M48
; DRILL file {KiCad (5.1.9)-1} date 06/16/21 13:38:00
; FORMAT={-:-/ absolute / inch / decimal}
; #@! TF.CreationDate,2021-06-16T13:38:00+02:00
; #@! TF.GenerationSoftware,Kicad,Pcbnew,(5.1.9)-1
; #@! TF.FileFunction,NonPlated,1,2,NPTH
FMAT,2
INCH
T1C0.0039
T2C0.0472
T3C0.0669
T4C0.0748
T5C0.1181
T6C0.1575
%
G90
G05
T1
X3.4646Y-5.2125
X3.6152Y-5.4733
X3.8415Y-3.737
X4.1427Y-3.737
X4.1465Y-4.8188
X4.2971Y-5.0796
X4.5931Y-1.1189
X4.5935Y-1.8669
X4.5935Y-2.6189
X4.5935Y-3.3669
X4.5935Y-4.115
X4.8943Y-1.1189
X4.8947Y-1.8669
X4.8947Y-2.6189
X4.8947Y-3.3669
X4.8947Y-4.115
X4.9675Y-4.8591
X5.2687Y-4.8591
X5.3415Y-1.0244
X5.3415Y-1.7724
X5.3415Y-2.5244
X5.3415Y-3.2724
X5.3415Y-4.0244
X5.6427Y-1.0244
X5.6427Y-1.7724
X5.6427Y-2.5244
X5.6427Y-3.2724
X5.6427Y-4.0244
X5.7156Y-4.7705
X6.0167Y-4.7705
X6.0935Y-0.9697
X6.0935Y-1.7177
X6.0935Y-2.4693
X6.0935Y-3.2213
X6.0935Y-3.9693
X6.3947Y-0.9697
X6.3947Y-1.7177
X6.3947Y-2.4693
X6.3947Y-3.2213
X6.3947Y-3.9693
X6.4675Y-4.7705
X6.7687Y-4.7705
X6.8415Y-1.0244
X6.8415Y-1.7724
X6.8415Y-2.5205
X6.8415Y-3.2724
X6.8415Y-4.0244
X7.1427Y-1.0244
X7.1427Y-1.7724
X7.1427Y-2.5205
X7.1427Y-3.2724
X7.1427Y-4.0244
X7.5935Y-1.2134
X7.5935Y-1.9614
X7.5935Y-2.7055
X7.5935Y-3.4614
X7.5935Y-4.2094
X7.8947Y-1.2134
X7.8947Y-1.9614
X7.8947Y-2.7055
X7.8947Y-3.4614
X7.8947Y-4.2094
X8.3415Y-1.2724
X8.3415Y-2.0205
X8.3415Y-2.7646
X8.3415Y-3.5205
X8.3435Y-4.2685
X8.6427Y-1.2724
X8.6427Y-2.0205
X8.6427Y-2.7646
X8.6427Y-3.5205
X8.6447Y-4.2685
X9.0896Y-1.2724
X9.0896Y-2.0205
X9.0896Y-2.7646
X9.0896Y-3.5205
X9.0915Y-4.2685
X9.3907Y-1.2724
X9.3907Y-2.0205
X9.3907Y-2.7646
X9.3907Y-3.5205
X9.3927Y-4.2685
T2
X3.3917Y-1.6063
X3.3917Y-1.8819
X3.4606Y-1.6063
X3.4606Y-1.8819
T3
X3.352Y-5.2205
X3.552Y-5.5669
X3.7921Y-3.8386
X4.0339Y-4.8268
X4.1921Y-3.8386
X4.2339Y-5.1732
X4.5437Y-1.2205
X4.5441Y-1.9685
X4.5441Y-2.7205
X4.5441Y-3.4685
X4.5441Y-4.2165
X4.9181Y-4.9606
X4.9437Y-1.2205
X4.9441Y-1.9685
X4.9441Y-2.7205
X4.9441Y-3.4685
X4.9441Y-4.2165
X5.2921Y-1.126
X5.2921Y-1.874
X5.2921Y-2.626
X5.2921Y-3.374
X5.2921Y-4.126
X5.3181Y-4.9606
X5.6661Y-4.872
X5.6921Y-1.126
X5.6921Y-1.874
X5.6921Y-2.626
X5.6921Y-3.374
X5.6921Y-4.126
X6.0441Y-1.0713
X6.0441Y-1.8193
X6.0441Y-2.5709
X6.0441Y-3.3228
X6.0441Y-4.0709
X6.0661Y-4.872
X6.4181Y-4.872
X6.4441Y-1.0713
X6.4441Y-1.8193
X6.4441Y-2.5709
X6.4441Y-3.3228
X6.4441Y-4.0709
X6.7921Y-1.126
X6.7921Y-1.874
X6.7921Y-2.622
X6.7921Y-3.374
X6.7921Y-4.126
X6.8181Y-4.872
X7.1921Y-1.126
X7.1921Y-1.874
X7.1921Y-2.622
X7.1921Y-3.374
X7.1921Y-4.126
X7.5441Y-1.315
X7.5441Y-2.063
X7.5441Y-2.8071
X7.5441Y-3.563
X7.5441Y-4.311
X7.9441Y-1.315
X7.9441Y-2.063
X7.9441Y-2.8071
X7.9441Y-3.563
X7.9441Y-4.311
X8.2921Y-1.374
X8.2921Y-2.122
X8.2921Y-2.8661
X8.2921Y-3.622
X8.2941Y-4.3701
X8.6921Y-1.374
X8.6921Y-2.122
X8.6921Y-2.8661
X8.6921Y-3.622
X8.6941Y-4.3701
X9.0402Y-1.374
X9.0402Y-2.122
X9.0402Y-2.8661
X9.0402Y-3.622
X9.0421Y-4.3701
X9.4402Y-1.374
X9.4402Y-2.122
X9.4402Y-2.8661
X9.4402Y-3.622
X9.4421Y-4.3701
T4
X3.3437Y-5.2062
X3.5602Y-5.5812
X3.7756Y-3.8386
X4.0256Y-4.8125
X4.2087Y-3.8386
X4.2421Y-5.1875
X4.5272Y-1.2205
X4.5276Y-1.9685
X4.5276Y-2.7205
X4.5276Y-3.4685
X4.5276Y-4.2165
X4.9016Y-4.9606
X4.9602Y-1.2205
X4.9606Y-1.9685
X4.9606Y-2.7205
X4.9606Y-3.4685
X4.9606Y-4.2165
X5.2756Y-1.126
X5.2756Y-1.874
X5.2756Y-2.626
X5.2756Y-3.374
X5.2756Y-4.126
X5.3346Y-4.9606
X5.6496Y-4.872
X5.7087Y-1.126
X5.7087Y-1.874
X5.7087Y-2.626
X5.7087Y-3.374
X5.7087Y-4.126
X6.0276Y-1.0713
X6.0276Y-1.8193
X6.0276Y-2.5709
X6.0276Y-3.3228
X6.0276Y-4.0709
X6.0827Y-4.872
X6.4016Y-4.872
X6.4606Y-1.0713
X6.4606Y-1.8193
X6.4606Y-2.5709
X6.4606Y-3.3228
X6.4606Y-4.0709
X6.7756Y-1.126
X6.7756Y-1.874
X6.7756Y-2.622
X6.7756Y-3.374
X6.7756Y-4.126
X6.8346Y-4.872
X7.2087Y-1.126
X7.2087Y-1.874
X7.2087Y-2.622
X7.2087Y-3.374
X7.2087Y-4.126
X7.5276Y-1.315
X7.5276Y-2.063
X7.5276Y-2.8071
X7.5276Y-3.563
X7.5276Y-4.311
X7.9606Y-1.315
X7.9606Y-2.063
X7.9606Y-2.8071
X7.9606Y-3.563
X7.9606Y-4.311
X8.2756Y-1.374
X8.2756Y-2.122
X8.2756Y-2.8661
X8.2756Y-3.622
X8.2776Y-4.3701
X8.7087Y-1.374
X8.7087Y-2.122
X8.7087Y-2.8661
X8.7087Y-3.622
X8.7106Y-4.3701
X9.0236Y-1.374
X9.0236Y-2.122
X9.0236Y-2.8661
X9.0236Y-3.622
X9.0256Y-4.3701
X9.4567Y-1.374
X9.4567Y-2.122
X9.4567Y-2.8661
X9.4567Y-3.622
X9.4587Y-4.3701
T5
X3.4636Y-5.2138
X3.5752Y-5.2071
X3.6136Y-5.4736
X3.6136Y-5.4736
X3.6752Y-5.3803
X3.8421Y-3.7386
X3.8921Y-3.6386
X4.0921Y-3.6386
X4.1421Y-3.7386
X4.1421Y-3.7386
X4.1455Y-4.8201
X4.2571Y-4.8134
X4.2955Y-5.0799
X4.2955Y-5.0799
X4.3571Y-4.9866
X4.5937Y-1.1205
X4.5941Y-1.8685
X4.5941Y-2.6205
X4.5941Y-3.3685
X4.5941Y-4.1165
X4.6437Y-1.0205
X4.6441Y-1.7685
X4.6441Y-2.5205
X4.6441Y-3.2685
X4.6441Y-4.0165
X4.8437Y-1.0205
X4.8441Y-1.7685
X4.8441Y-2.5205
X4.8441Y-3.2685
X4.8441Y-4.0165
X4.8937Y-1.1205
X4.8937Y-1.1205
X4.8941Y-1.8685
X4.8941Y-1.8685
X4.8941Y-2.6205
X4.8941Y-2.6205
X4.8941Y-3.3685
X4.8941Y-3.3685
X4.8941Y-4.1165
X4.8941Y-4.1165
X4.9681Y-4.8606
X5.0181Y-4.7606
X5.2181Y-4.7606
X5.2681Y-4.8606
X5.2681Y-4.8606
X5.3421Y-1.026
X5.3421Y-1.774
X5.3421Y-2.526
X5.3421Y-3.274
X5.3421Y-4.026
X5.3921Y-0.926
X5.3921Y-1.674
X5.3921Y-2.426
X5.3921Y-3.174
X5.3921Y-3.926
X5.5921Y-0.926
X5.5921Y-1.674
X5.5921Y-2.426
X5.5921Y-3.174
X5.5921Y-3.926
X5.6421Y-1.026
X5.6421Y-1.026
X5.6421Y-1.774
X5.6421Y-1.774
X5.6421Y-2.526
X5.6421Y-2.526
X5.6421Y-3.274
X5.6421Y-3.274
X5.6421Y-4.026
X5.6421Y-4.026
X5.7161Y-4.772
X5.7661Y-4.672
X5.9661Y-4.672
X6.0161Y-4.772
X6.0161Y-4.772
X6.0941Y-0.9713
X6.0941Y-1.7193
X6.0941Y-2.4709
X6.0941Y-3.2228
X6.0941Y-3.9709
X6.1441Y-0.8713
X6.1441Y-1.6193
X6.1441Y-2.3709
X6.1441Y-3.1228
X6.1441Y-3.8709
X6.3441Y-0.8713
X6.3441Y-1.6193
X6.3441Y-2.3709
X6.3441Y-3.1228
X6.3441Y-3.8709
X6.3941Y-0.9713
X6.3941Y-0.9713
X6.3941Y-1.7193
X6.3941Y-1.7193
X6.3941Y-2.4709
X6.3941Y-2.4709
X6.3941Y-3.2228
X6.3941Y-3.2228
X6.3941Y-3.9709
X6.3941Y-3.9709
X6.4681Y-4.772
X6.5181Y-4.672
X6.7181Y-4.672
X6.7681Y-4.772
X6.7681Y-4.772
X6.8421Y-1.026
X6.8421Y-1.774
X6.8421Y-2.522
X6.8421Y-3.274
X6.8421Y-4.026
X6.8921Y-0.926
X6.8921Y-1.674
X6.8921Y-2.422
X6.8921Y-3.174
X6.8921Y-3.926
X7.0921Y-0.926
X7.0921Y-1.674
X7.0921Y-2.422
X7.0921Y-3.174
X7.0921Y-3.926
X7.1421Y-1.026
X7.1421Y-1.026
X7.1421Y-1.774
X7.1421Y-1.774
X7.1421Y-2.522
X7.1421Y-2.522
X7.1421Y-3.274
X7.1421Y-3.274
X7.1421Y-4.026
X7.1421Y-4.026
X7.5941Y-1.215
X7.5941Y-1.963
X7.5941Y-2.7071
X7.5941Y-3.463
X7.5941Y-4.211
X7.6441Y-1.115
X7.6441Y-1.863
X7.6441Y-2.6071
X7.6441Y-3.363
X7.6441Y-4.111
X7.8441Y-1.115
X7.8441Y-1.863
X7.8441Y-2.6071
X7.8441Y-3.363
X7.8441Y-4.111
X7.8941Y-1.215
X7.8941Y-1.215
X7.8941Y-1.963
X7.8941Y-1.963
X7.8941Y-2.7071
X7.8941Y-2.7071
X7.8941Y-3.463
X7.8941Y-3.463
X7.8941Y-4.211
X7.8941Y-4.211
X8.3421Y-1.274
X8.3421Y-2.022
X8.3421Y-2.7661
X8.3421Y-3.522
X8.3441Y-4.2701
X8.3921Y-1.174
X8.3921Y-1.922
X8.3921Y-2.6661
X8.3921Y-3.422
X8.3941Y-4.1701
X8.5921Y-1.174
X8.5921Y-1.922
X8.5921Y-2.6661
X8.5921Y-3.422
X8.5941Y-4.1701
X8.6421Y-1.274
X8.6421Y-1.274
X8.6421Y-2.022
X8.6421Y-2.022
X8.6421Y-2.7661
X8.6421Y-2.7661
X8.6421Y-3.522
X8.6421Y-3.522
X8.6441Y-4.2701
X8.6441Y-4.2701
X9.0902Y-1.274
X9.0902Y-2.022
X9.0902Y-2.7661
X9.0902Y-3.522
X9.0921Y-4.2701
X9.1402Y-1.174
X9.1402Y-1.922
X9.1402Y-2.6661
X9.1402Y-3.422
X9.1421Y-4.1701
X9.3402Y-1.174
X9.3402Y-1.922
X9.3402Y-2.6661
X9.3402Y-3.422
X9.3421Y-4.1701
X9.3902Y-1.274
X9.3902Y-1.274
X9.3902Y-2.022
X9.3902Y-2.022
X9.3902Y-2.7661
X9.3902Y-2.7661
X9.3902Y-3.522
X9.3902Y-3.522
X9.3921Y-4.2701
X9.3921Y-4.2701
T6
X3.452Y-5.3937
X3.9921Y-3.8386
X4.1339Y-5.0
X4.7437Y-1.2205
X4.7441Y-1.9685
X4.7441Y-2.7205
X4.7441Y-3.4685
X4.7441Y-4.2165
X5.1181Y-4.9606
X5.4921Y-1.126
X5.4921Y-1.874
X5.4921Y-2.626
X5.4921Y-3.374
X5.4921Y-4.126
X5.8661Y-4.872
X6.2441Y-1.0713
X6.2441Y-1.8193
X6.2441Y-2.5709
X6.2441Y-3.3228
X6.2441Y-4.0709
X6.6181Y-4.872
X6.9921Y-1.126
X6.9921Y-1.874
X6.9921Y-2.622
X6.9921Y-3.374
X6.9921Y-4.126
X7.7441Y-1.315
X7.7441Y-2.063
X7.7441Y-2.8071
X7.7441Y-3.563
X7.7441Y-4.311
X8.4921Y-1.374
X8.4921Y-2.122
X8.4921Y-2.8661
X8.4921Y-3.622
X8.4941Y-4.3701
X9.2402Y-1.374
X9.2402Y-2.122
X9.2402Y-2.8661
X9.2402Y-3.622
X9.2421Y-4.3701
T0
M30
