M48
; DRILL file {KiCad (5.1.10)-1} date 06/09/21 20:37:45
; FORMAT={-:-/ absolute / inch / decimal}
; #@! TF.CreationDate,2021-06-09T20:37:45+02:00
; #@! TF.GenerationSoftware,Kicad,Pcbnew,(5.1.10)-1
; #@! TF.FileFunction,Plated,1,2,PTH
FMAT,2
INCH
T1C0.0118
T2C0.0157
T3C0.0197
T4C0.0256
T5C0.0320
T6C0.0394
T7C0.0512
T8C0.1850
%
G90
G05
T1
X2.9Y-5.175
X2.9Y-5.275
X2.95Y-5.375
X2.9656Y-5.0423
X3.001Y-4.8445
X3.025Y-5.5
X3.0266Y-4.7352
X3.075Y-5.6
X3.0846Y-4.563
X3.1035Y-4.913
X3.1211Y-4.4528
X3.125Y-5.675
X3.1335Y-4.5906
X3.1506Y-4.3642
X3.1644Y-4.2096
X3.175Y-5.775
X3.2077Y-4.9163
X3.2156Y-4.0157
X3.225Y-5.875
X3.2323Y-3.8917
X3.2496Y-5.1937
X3.2638Y-4.752
X3.2982Y-4.624
X3.2984Y-2.0429
X3.3Y-1.5
X3.3Y-1.6
X3.3Y-2.9
X3.3Y-3.0
X3.3Y-3.1
X3.3Y-3.2
X3.3Y-3.3
X3.3Y-3.4
X3.3Y-3.5
X3.3Y-3.6
X3.3Y-5.95
X3.32Y-2.64
X3.32Y-2.7
X3.32Y-3.7
X3.32Y-3.8
X3.3228Y-4.7776
X3.3236Y-5.2929
X3.325Y-5.125
X3.3272Y-5.3819
X3.334Y-2.172
X3.335Y-2.242
X3.34Y-3.94
X3.3654Y-3.6689
X3.3705Y-1.736
X3.3735Y-1.8205
X3.3785Y-5.972
X3.4Y-1.5
X3.4Y-2.88
X3.4Y-4.2
X3.4Y-5.3
X3.4071Y-5.5031
X3.4125Y-2.182
X3.44Y-2.48
X3.44Y-2.8
X3.4535Y-5.964
X3.46Y-4.36
X3.4744Y-3.5413
X3.475Y-3.2
X3.48Y-1.8165
X3.481Y-1.7365
X3.4843Y-2.3657
X3.4955Y-2.094
X3.5Y-1.5
X3.5Y-4.025
X3.5094Y-5.4988
X3.52Y-2.52
X3.52Y-2.66
X3.52Y-2.74
X3.52Y-2.8
X3.52Y-4.5
X3.525Y-4.775
X3.525Y-5.9
X3.5417Y-3.0
X3.5433Y-1.878
X3.55Y-4.375
X3.5541Y-2.2947
X3.575Y-3.225
X3.575Y-3.975
X3.575Y-4.1
X3.5756Y-3.0996
X3.5787Y-2.3835
X3.58Y-2.88
X3.5886Y-5.3232
X3.6Y-1.5
X3.6Y-3.6
X3.6Y-3.74
X3.6Y-4.5
X3.6Y-4.725
X3.6Y-5.85
X3.6193Y-4.9182
X3.6264Y-5.2917
X3.6563Y-5.5606
X3.6591Y-2.8886
X3.66Y-3.84
X3.66Y-3.94
X3.6693Y-3.6378
X3.675Y-4.225
X3.675Y-4.375
X3.68Y-4.02
X3.7Y-1.5
X3.7Y-4.86
X3.7Y-5.25
X3.7Y-5.8
X3.7441Y-1.7402
X3.76Y-3.54
X3.76Y-4.04
X3.7638Y-4.8268
X3.7717Y-5.0
X3.775Y-5.225
X3.8Y-1.5
X3.8Y-1.6
X3.8071Y-2.6693
X3.8097Y-4.9226
X3.815Y-1.7703
X3.815Y-1.9213
X3.8268Y-5.6378
X3.84Y-5.1
X3.85Y-4.5
X3.85Y-4.75
X3.85Y-4.925
X3.85Y-5.175
X3.85Y-5.7
X3.86Y-2.68
X3.875Y-4.325
X3.875Y-5.325
X3.8802Y-2.2703
X3.8807Y-5.6409
X3.9Y-1.5
X3.9Y-1.6
X3.9Y-5.25
X3.9Y-5.425
X3.9218Y-2.1703
X3.94Y-4.82
X3.95Y-4.4
X3.95Y-4.975
X3.9528Y-1.9703
X3.9528Y-2.7087
X3.9669Y-2.7744
X3.98Y-3.54
X3.98Y-4.74
X4.0Y-1.5
X4.0Y-2.68
X4.0Y-3.7
X4.0Y-4.6
X4.0Y-5.075
X4.0Y-5.2
X4.0Y-5.4
X4.04Y-3.44
X4.04Y-4.92
X4.0423Y-2.2703
X4.062Y-2.3703
X4.08Y-2.7
X4.08Y-4.4
X4.0827Y-2.4703
X4.0945Y-5.2677
X4.1Y-1.5
X4.1063Y-2.5423
X4.125Y-4.275
X4.1339Y-2.5984
X4.14Y-5.14
X4.1468Y-2.6406
X4.1575Y-2.0236
X4.1575Y-2.5669
X4.1614Y-2.2323
X4.1614Y-1.7323
X4.1614Y-2.3228
X4.1614Y-2.437
X4.1614Y-2.5197
X4.1614Y-1.6378
X4.1614Y-2.1339
X4.18Y-2.8
X4.2Y-5.5
X4.2205Y-4.6102
X4.26Y-4.94
X4.269Y-2.841
X4.28Y-4.5
X4.28Y-5.28
X4.3Y-3.24
X4.3Y-3.42
X4.3Y-4.04
X4.3Y-4.28
X4.3Y-5.4
X4.315Y-3.6417
X4.32Y-3.08
X4.32Y-3.14
X4.3228Y-3.0
X4.324Y-3.5105
X4.3268Y-3.1732
X4.327Y-3.574
X4.3425Y-2.5236
X4.36Y-4.88
X4.38Y-1.7
X4.4Y-0.7
X4.4Y-0.8
X4.4Y-0.9
X4.4Y-1.0
X4.4Y-1.2
X4.4Y-1.3
X4.4Y-1.4
X4.4Y-5.4
X4.42Y-1.98
X4.42Y-2.12
X4.42Y-2.22
X4.4213Y-2.5236
X4.4213Y-3.2677
X4.4252Y-1.1217
X4.4252Y-1.7677
X4.4252Y-4.0157
X4.44Y-3.48
X4.44Y-3.7
X4.44Y-4.24
X4.44Y-4.36
X4.44Y-4.5
X4.44Y-4.72
X4.4567Y-5.185
X4.46Y-1.22
X4.46Y-1.3
X4.46Y-1.4
X4.46Y-1.6
X4.48Y-0.94
X4.5Y-0.7
X4.5Y-2.18
X4.5Y-4.84
X4.5Y-5.04
X4.5Y-5.35
X4.52Y-2.04
X4.52Y-2.1
X4.52Y-2.8
X4.52Y-2.9
X4.52Y-3.56
X4.52Y-5.18
X4.54Y-2.22
X4.54Y-3.72
X4.58Y-0.94
X4.58Y-2.96
X4.58Y-3.18
X4.6Y-0.7
X4.6Y-4.775
X4.6Y-5.3
X4.62Y-1.22
X4.62Y-1.28
X4.62Y-1.98
X4.62Y-2.1
X4.62Y-2.74
X4.62Y-3.48
X4.62Y-4.24
X4.6303Y-2.1429
X4.64Y-0.92
X4.64Y-2.24
X4.64Y-3.74
X4.64Y-4.5
X4.655Y-0.8725
X4.66Y-1.42
X4.66Y-2.18
X4.7Y-0.7
X4.7Y-5.3
X4.72Y-1.64
X4.72Y-3.74
X4.72Y-4.86
X4.725Y-5.025
X4.74Y-1.72
X4.74Y-1.84
X4.74Y-2.1
X4.74Y-2.24
X4.74Y-2.46
X4.74Y-2.58
X4.74Y-2.84
X4.74Y-3.22
X4.74Y-3.34
X4.74Y-3.58
X4.76Y-0.96
X4.76Y-1.08
X4.76Y-3.96
X4.76Y-4.08
X4.76Y-4.34
X4.76Y-4.72
X4.78Y-2.36
X4.7992Y-4.7598
X4.8Y-0.7
X4.8Y-2.18
X4.8Y-4.96
X4.8Y-5.3
X4.822Y-0.8224
X4.84Y-0.9
X4.84Y-3.18
X4.86Y-1.98
X4.86Y-2.26
X4.86Y-3.48
X4.86Y-4.28
X4.86Y-5.14
X4.88Y-1.24
X4.88Y-2.74
X4.88Y-3.64
X4.88Y-4.5
X4.9Y-0.7
X4.9Y-5.3
X4.92Y-2.1
X4.96Y-1.54
X4.96Y-3.54
X4.96Y-5.04
X4.98Y-1.42
X4.98Y-2.04
X4.98Y-2.44
X4.98Y-3.18
X4.98Y-3.66
X5.0Y-0.7
X5.0Y-0.92
X5.0Y-1.28
X5.0Y-1.64
X5.0Y-4.98
X5.0157Y-5.1181
X5.04Y-2.72
X5.04Y-4.5
X5.0591Y-1.7677
X5.06Y-1.96
X5.06Y-2.1
X5.06Y-3.46
X5.06Y-4.22
X5.063Y-4.0157
X5.0669Y-2.5197
X5.0669Y-3.2677
X5.1Y-0.7
X5.1Y-0.98
X5.1Y-3.22
X5.1Y-5.3
X5.1063Y-1.1272
X5.12Y-1.18
X5.12Y-4.3
X5.12Y-4.72
X5.12Y-4.82
X5.1248Y-5.2413
X5.14Y-1.86
X5.14Y-2.16
X5.14Y-3.66
X5.14Y-5.14
X5.16Y-0.9
X5.16Y-2.28
X5.16Y-2.4
X5.16Y-4.14
X5.1646Y-1.026
X5.1693Y-3.1732
X5.1693Y-3.9528
X5.1732Y-1.6732
X5.1732Y-2.4488
X5.18Y-1.86
X5.18Y-2.04
X5.18Y-2.62
X5.18Y-2.84
X5.18Y-3.1
X5.18Y-3.36
X5.18Y-3.52
X5.2Y-0.7
X5.2Y-5.3
X5.22Y-1.58
X5.22Y-4.28
X5.24Y-1.42
X5.24Y-3.62
X5.24Y-4.5
X5.24Y-4.96
X5.26Y-0.84
X5.26Y-1.96
X5.26Y-2.7
X5.26Y-2.78
X5.26Y-2.94
X5.26Y-3.08
X5.26Y-3.46
X5.26Y-5.04
X5.28Y-1.26
X5.28Y-2.12
X5.3Y-0.7
X5.3Y-3.56
X5.3Y-5.3
X5.34Y-1.42
X5.34Y-1.58
X5.36Y-1.12
X5.36Y-1.28
X5.36Y-1.9
X5.36Y-2.1
X5.36Y-2.64
X5.36Y-3.38
X5.36Y-4.2
X5.4Y-0.7
X5.4Y-0.84
X5.4Y-1.58
X5.4Y-2.72
X5.4Y-5.12
X5.4Y-5.3
X5.42Y-3.08
X5.42Y-4.5
X5.42Y-4.96
X5.4331Y-4.7598
X5.46Y-4.28
X5.48Y-3.48
X5.48Y-3.56
X5.5Y-0.7
X5.5Y-0.88
X5.5Y-0.98
X5.5Y-1.24
X5.5Y-1.28
X5.5Y-1.62
X5.5Y-1.72
X5.5Y-1.98
X5.5Y-2.1
X5.5Y-2.36
X5.5Y-2.48
X5.5Y-2.78
X5.5Y-3.12
X5.5Y-3.24
X5.5Y-3.86
X5.5Y-3.98
X5.5Y-5.3
X5.5Y-5.3
X5.54Y-4.88
X5.5433Y-4.6732
X5.56Y-4.44
X5.578Y-2.1878
X5.58Y-2.06
X5.58Y-3.08
X5.6Y-0.7
X5.6Y-0.84
X5.6Y-1.58
X5.6Y-2.72
X5.6Y-5.3
X5.6Y-5.3
X5.62Y-1.14
X5.62Y-1.42
X5.62Y-1.9
X5.62Y-2.64
X5.62Y-3.38
X5.62Y-3.6
X5.62Y-4.2
X5.64Y-1.28
X5.64Y-3.68
X5.66Y-5.04
X5.68Y-1.96
X5.68Y-2.16
X5.7Y-0.7
X5.7Y-0.84
X5.7Y-1.58
X5.7Y-2.72
X5.7Y-5.3
X5.72Y-1.2
X5.72Y-1.3
X5.72Y-1.42
X5.72Y-1.54
X5.72Y-2.2
X5.72Y-2.32
X5.72Y-3.44
X5.72Y-3.5
X5.72Y-4.28
X5.74Y-2.78
X5.74Y-4.88
X5.74Y-4.94
X5.78Y-1.5
X5.78Y-2.06
X5.78Y-2.2
X5.78Y-3.08
X5.78Y-3.68
X5.8Y-0.7
X5.8Y-1.24
X5.8Y-1.86
X5.8Y-1.96
X5.8Y-2.62
X5.8Y-3.36
X5.8Y-3.52
X5.8Y-5.3
X5.8Y-5.3
X5.8071Y-2.4252
X5.811Y-1.6732
X5.811Y-3.9252
X5.8189Y-3.1732
X5.84Y-4.44
X5.86Y-0.9
X5.86Y-1.1
X5.86Y-1.6
X5.86Y-1.7
X5.86Y-2.12
X5.86Y-2.32
X5.86Y-2.68
X5.86Y-3.14
X5.86Y-3.62
X5.86Y-4.62
X5.86Y-4.74
X5.865Y-1.0185
X5.88Y-1.3
X5.88Y-1.8
X5.88Y-3.3
X5.88Y-4.38
X5.9Y-0.84
X5.9Y-1.42
X5.9Y-1.54
X5.9Y-5.04
X5.9Y-5.3
X5.9043Y-0.6677
X5.9091Y-0.9709
X5.9173Y-3.8701
X5.92Y-4.08
X5.9213Y-3.122
X5.9252Y-1.6181
X5.9291Y-2.3701
X5.94Y-1.82
X5.94Y-1.96
X5.94Y-2.06
X5.94Y-2.56
X5.94Y-2.82
X5.94Y-3.02
X5.94Y-3.32
X5.94Y-3.54
X5.94Y-4.46
X5.96Y-1.3
X5.96Y-1.42
X5.96Y-1.54
X5.96Y-4.24
X6.0Y-0.78
X6.0Y-3.4
X6.0Y-3.54
X6.0Y-4.88
X6.0Y-4.94
X6.0Y-5.3
X6.0043Y-0.6677
X6.02Y-1.9
X6.02Y-1.98
X6.02Y-2.04
X6.02Y-2.66
X6.02Y-2.82
X6.02Y-3.02
X6.02Y-4.16
X6.04Y-1.14
X6.04Y-1.22
X6.04Y-1.54
X6.08Y-3.56
X6.08Y-4.46
X6.1Y-1.3
X6.1Y-5.3
X6.1043Y-0.6677
X6.12Y-1.08
X6.12Y-1.82
X6.12Y-1.98
X6.12Y-2.58
X6.12Y-3.34
X6.12Y-4.12
X6.14Y-0.78
X6.14Y-1.52
X6.14Y-2.1
X6.14Y-3.02
X6.14Y-5.04
X6.16Y-1.42
X6.16Y-3.6
X6.16Y-4.58
X6.16Y-4.88
X6.185Y-4.6732
X6.2Y-4.46
X6.2Y-5.3
X6.2043Y-0.6677
X6.24Y-0.82
X6.24Y-0.92
X6.24Y-1.18
X6.24Y-1.94
X6.24Y-1.98
X6.24Y-2.04
X6.24Y-2.3
X6.24Y-2.42
X6.24Y-2.68
X6.24Y-3.08
X6.24Y-3.18
X6.24Y-3.44
X6.24Y-3.8
X6.24Y-3.92
X6.24Y-4.2
X6.26Y-1.6
X6.26Y-1.68
X6.28Y-3.6
X6.28Y-4.9
X6.2953Y-4.6732
X6.3Y-5.3
X6.3Y-5.3
X6.3043Y-0.6677
X6.3161Y-5.1232
X6.34Y-0.78
X6.34Y-1.52
X6.34Y-3.02
X6.34Y-4.4
X6.34Y-4.46
X6.36Y-1.08
X6.36Y-1.42
X6.36Y-1.82
X6.36Y-2.58
X6.36Y-3.32
X6.36Y-4.1
X6.4Y-1.3
X6.4Y-1.98
X6.4Y-2.1
X6.4Y-3.6
X6.4Y-5.04
X6.4Y-5.3
X6.4043Y-0.6677
X6.42Y-1.88
X6.44Y-1.22
X6.44Y-2.04
X6.4516Y-4.9484
X6.46Y-1.54
X6.46Y-2.16
X6.46Y-2.64
X6.46Y-3.76
X6.46Y-4.14
X6.48Y-0.78
X6.48Y-1.4
X6.48Y-3.02
X6.48Y-3.4
X6.48Y-3.52
X6.48Y-3.64
X6.4831Y-5.1181
X6.5Y-2.1
X6.5Y-2.26
X6.5Y-5.3
X6.5043Y-0.6677
X6.52Y-1.26
X6.52Y-1.86
X6.52Y-1.98
X6.52Y-2.86
X6.54Y-1.08
X6.54Y-2.56
X6.54Y-4.06
X6.54Y-4.52
X6.5591Y-2.3701
X6.56Y-1.5
X6.56Y-2.04
X6.56Y-3.32
X6.56Y-3.52
X6.563Y-1.6181
X6.5669Y-3.122
X6.5669Y-3.8701
X6.5689Y-5.2181
X6.58Y-0.82
X6.58Y-4.4
X6.5902Y-4.5988
X6.5906Y-0.9732
X6.6Y-1.82
X6.6Y-1.96
X6.6Y-2.16
X6.6Y-2.56
X6.6Y-3.64
X6.6Y-3.76
X6.6Y-4.06
X6.6Y-5.3
X6.6043Y-0.6677
X6.62Y-1.68
X6.62Y-2.4
X6.62Y-3.12
X6.62Y-3.88
X6.62Y-5.04
X6.64Y-0.94
X6.64Y-1.1
X6.64Y-4.34
X6.66Y-1.4
X6.66Y-3.6
X6.6693Y-1.6732
X6.6693Y-3.9252
X6.6732Y-2.4213
X6.6732Y-3.1732
X6.68Y-1.16
X6.68Y-1.3
X6.68Y-1.6
X6.68Y-1.86
X6.68Y-1.96
X6.68Y-2.04
X6.68Y-2.12
X6.68Y-2.62
X6.68Y-2.7
X6.68Y-2.84
X6.68Y-3.36
X6.68Y-4.12
X6.68Y-4.2
X6.7Y-0.7
X6.7Y-4.38
X6.7Y-5.3
X6.7087Y-1.1276
X6.74Y-1.48
X6.74Y-2.9
X6.7559Y-5.0787
X6.76Y-0.84
X6.76Y-1.3
X6.76Y-1.96
X6.76Y-2.04
X6.76Y-2.1
X6.76Y-2.8
X6.76Y-3.44
X6.76Y-3.6
X6.76Y-4.24
X6.76Y-4.94
X6.78Y-1.2
X6.78Y-1.58
X6.78Y-2.7
X6.78Y-3.08
X6.8Y-0.7
X6.8Y-1.4
X6.8Y-5.3
X6.82Y-1.32
X6.82Y-2.88
X6.84Y-5.04
X6.86Y-1.4
X6.86Y-1.48
X6.86Y-1.88
X6.86Y-2.12
X6.86Y-3.38
X6.86Y-3.62
X6.86Y-4.18
X6.86Y-4.58
X6.88Y-0.84
X6.88Y-1.14
X6.88Y-2.62
X6.88Y-3.08
X6.9Y-0.7
X6.9Y-1.3
X6.9Y-1.58
X6.9Y-1.96
X6.9Y-2.16
X6.9Y-5.3
X6.92Y-2.04
X6.92Y-3.64
X6.937Y-4.6732
X6.96Y-1.48
X6.96Y-4.6
X7.0Y-0.7
X7.0Y-0.84
X7.0Y-0.98
X7.0Y-1.24
X7.0Y-1.3
X7.0Y-1.42
X7.0Y-1.62
X7.0Y-1.74
X7.0Y-2.36
X7.0Y-2.46
X7.0Y-2.74
X7.0Y-3.14
X7.0Y-3.24
X7.0Y-3.48
X7.0Y-3.88
X7.0Y-3.98
X7.0Y-4.26
X7.0Y-4.7
X7.06Y-1.44
X7.08Y-1.58
X7.08Y-2.04
X7.08Y-3.08
X7.1Y-0.7
X7.1Y-0.82
X7.1Y-1.96
X7.1Y-4.6
X7.12Y-1.14
X7.12Y-1.32
X7.12Y-1.88
X7.12Y-2.62
X7.12Y-3.38
X7.12Y-3.64
X7.12Y-4.16
X7.14Y-1.4
X7.14Y-2.16
X7.14Y-4.42
X7.16Y-2.12
X7.1744Y-4.689
X7.18Y-4.52
X7.2Y-0.7
X7.2Y-1.22
X7.2Y-1.36
X7.2Y-1.58
X7.2Y-2.7
X7.2Y-3.68
X7.2Y-4.22
X7.22Y-2.08
X7.22Y-2.32
X7.22Y-3.44
X7.22Y-3.54
X7.26Y-3.08
X7.28Y-0.84
X7.28Y-1.88
X7.28Y-2.02
X7.28Y-2.14
X7.28Y-3.78
X7.3Y-0.7
X7.3Y-1.12
X7.3Y-1.52
X7.3Y-2.6
X7.3Y-3.36
X7.3Y-3.56
X7.3Y-4.7
X7.3071Y-2.4213
X7.3071Y-3.9252
X7.311Y-1.6732
X7.3189Y-3.1732
X7.34Y-2.06
X7.34Y-3.7
X7.34Y-3.86
X7.36Y-1.2
X7.36Y-1.32
X7.36Y-1.44
X7.36Y-1.56
X7.36Y-1.88
X7.36Y-2.72
X7.36Y-3.14
X7.36Y-4.12
X7.3665Y-1.0236
X7.38Y-1.78
X7.38Y-2.24
X7.38Y-3.36
X7.3953Y-1.3189
X7.4Y-0.7
X7.4Y-0.94
X7.4Y-2.56
X7.4Y-4.42
X7.4Y-4.7
X7.42Y-1.02
X7.42Y-2.8
X7.42Y-2.88
X7.42Y-3.06
X7.42Y-3.26
X7.42Y-3.56
X7.42Y-3.78
X7.4213Y-3.3622
X7.4213Y-4.1102
X7.4252Y-1.8622
X7.4252Y-2.6063
X7.44Y-1.36
X7.44Y-1.44
X7.44Y-1.52
X7.44Y-1.66
X7.44Y-2.06
X7.44Y-2.24
X7.44Y-4.3
X7.44Y-4.52
X7.4446Y-0.7541
X7.5Y-0.7
X7.5Y-1.72
X7.5Y-2.14
X7.5Y-2.24
X7.5Y-4.7
X7.52Y-1.02
X7.52Y-1.4
X7.52Y-3.06
X7.52Y-3.26
X7.52Y-3.64
X7.52Y-3.78
X7.54Y-1.78
X7.54Y-2.32
X7.54Y-2.88
X7.54Y-4.4
X7.5803Y-0.8339
X7.6Y-0.7
X7.6Y-1.44
X7.6Y-1.52
X7.6Y-4.7
X7.62Y-1.02
X7.62Y-1.32
X7.62Y-2.06
X7.62Y-2.82
X7.62Y-3.58
X7.62Y-3.78
X7.62Y-4.34
X7.64Y-1.78
X7.64Y-3.26
X7.66Y-3.88
X7.68Y-3.72
X7.7Y-0.7
X7.7Y-1.66
X7.7Y-4.7
X7.72Y-1.58
X7.72Y-3.8
X7.74Y-1.04
X7.74Y-1.18
X7.74Y-1.42
X7.74Y-1.8
X7.74Y-1.94
X7.74Y-2.18
X7.74Y-2.24
X7.74Y-2.56
X7.74Y-2.66
X7.74Y-2.92
X7.74Y-3.32
X7.74Y-3.42
X7.74Y-4.04
X7.74Y-4.16
X7.74Y-4.44
X7.76Y-2.32
X7.76Y-3.68
X7.7752Y-0.9283
X7.8Y-0.7
X7.8Y-2.42
X7.8Y-3.92
X7.8Y-4.7
X7.84Y-1.02
X7.84Y-1.78
X7.84Y-3.26
X7.84Y-3.86
X7.86Y-2.08
X7.86Y-2.82
X7.86Y-3.56
X7.86Y-3.7
X7.86Y-4.36
X7.88Y-1.34
X7.88Y-1.44
X7.9Y-0.7
X7.9Y-1.52
X7.9Y-4.7
X7.92Y-1.58
X7.92Y-1.66
X7.92Y-1.72
X7.92Y-3.64
X7.94Y-2.24
X7.94Y-2.36
X7.96Y-1.4
X7.96Y-1.78
X7.96Y-2.14
X7.96Y-2.88
X7.96Y-3.78
X7.96Y-4.0
X7.96Y-4.4
X7.98Y-1.02
X7.9803Y-4.6339
X8.0Y-0.7
X8.0Y-3.26
X8.0Y-3.68
X8.0Y-3.86
X8.0Y-3.92
X8.0Y-4.7
X8.02Y-1.74
X8.02Y-2.14
X8.04Y-1.32
X8.04Y-1.44
X8.04Y-2.24
X8.04Y-2.52
X8.0591Y-1.8622
X8.0591Y-2.6063
X8.06Y-3.56
X8.0669Y-3.3622
X8.0669Y-4.1102
X8.0709Y-4.4724
X8.08Y-1.08
X8.08Y-2.82
X8.08Y-4.32
X8.0882Y-1.3252
X8.1Y-0.7
X8.1Y-2.04
X8.1Y-4.7
X8.12Y-1.36
X8.12Y-1.52
X8.12Y-1.58
X8.12Y-1.82
X8.12Y-2.62
X8.12Y-3.1
X8.12Y-3.26
X8.12Y-3.4
X8.12Y-4.14
X8.14Y-1.2
X8.14Y-2.24
X8.1575Y-1.4
X8.1575Y-1.9213
X8.16Y-2.36
X8.16Y-2.94
X8.1693Y-4.1693
X8.1732Y-2.6654
X8.1732Y-3.4213
X8.18Y-2.12
X8.18Y-2.52
X8.18Y-3.62
X8.18Y-3.78
X8.18Y-3.86
X8.18Y-3.92
X8.18Y-4.0
X8.18Y-4.1
X8.18Y-4.38
X8.2Y-0.7
X8.2Y-1.42
X8.2Y-1.52
X8.2Y-1.6
X8.2Y-1.82
X8.2Y-4.7
X8.22Y-2.32
X8.22Y-3.02
X8.22Y-3.1
X8.22Y-3.26
X8.26Y-1.08
X8.26Y-1.66
X8.26Y-2.24
X8.26Y-2.46
X8.26Y-2.52
X8.26Y-3.32
X8.26Y-3.7
X8.26Y-3.78
X8.26Y-3.86
X8.26Y-3.92
X8.28Y-1.44
X8.28Y-2.2
X8.28Y-2.94
X8.28Y-4.46
X8.2933Y-4.6598
X8.3Y-0.7
X8.3Y-1.58
X8.3Y-2.4
X8.3Y-4.7
X8.34Y-3.78
X8.34Y-3.86
X8.36Y-1.38
X8.36Y-2.12
X8.36Y-2.88
X8.36Y-3.62
X8.36Y-3.98
X8.36Y-4.42
X8.38Y-1.68
X8.4Y-0.7
X8.4Y-1.06
X8.4Y-1.54
X8.4Y-3.32
X8.4Y-4.7
X8.42Y-3.92
X8.48Y-1.86
X8.48Y-1.98
X8.48Y-3.74
X8.48Y-4.5
X8.5Y-1.1
X8.5Y-1.22
X8.5Y-1.48
X8.5Y-2.24
X8.5Y-2.62
X8.5Y-2.72
X8.5Y-2.98
X8.5Y-3.38
X8.5Y-3.5
X8.5Y-4.12
X8.5Y-4.24
X8.5Y-4.7
X8.52Y-0.72
X8.52Y-2.32
X8.54Y-1.68
X8.54Y-1.82
X8.58Y-1.06
X8.58Y-2.4
X8.58Y-2.46
X8.58Y-2.52
X8.6Y-3.32
X8.6Y-4.7
X8.62Y-1.38
X8.62Y-1.54
X8.62Y-1.78
X8.62Y-2.12
X8.62Y-2.88
X8.62Y-3.64
X8.62Y-4.42
X8.64Y-1.64
X8.66Y-3.76
X8.68Y-0.72
X8.7Y-1.46
X8.7Y-2.2
X8.7Y-2.94
X8.7Y-3.92
X8.7Y-4.7
X8.72Y-1.08
X8.72Y-3.7
X8.72Y-4.46
X8.74Y-1.52
X8.74Y-1.78
X8.76Y-2.24
X8.76Y-2.32
X8.76Y-2.36
X8.76Y-3.34
X8.78Y-1.38
X8.8Y-1.1
X8.8Y-3.6
X8.8Y-3.74
X8.8Y-4.38
X8.8Y-4.7
X8.8071Y-1.9213
X8.8071Y-2.6654
X8.815Y-3.4213
X8.815Y-4.1693
X8.82Y-1.86
X8.82Y-2.88
X8.8386Y-1.3709
X8.84Y-0.74
X8.84Y-2.2
X8.84Y-2.36
X8.86Y-1.42
X8.86Y-1.92
X8.86Y-2.08
X8.86Y-2.62
X8.86Y-2.7
X8.86Y-3.44
X8.86Y-3.66
X8.88Y-1.16
X8.88Y-2.26
X8.88Y-2.54
X8.88Y-2.94
X8.88Y-3.1
X8.88Y-3.26
X8.8819Y-2.378
X8.8909Y-1.372
X8.9Y-3.6
X8.9Y-3.74
X8.9Y-4.7
X8.9035Y-4.1701
X8.9138Y-2.1339
X8.92Y-2.44
X8.92Y-4.38
X8.9244Y-3.3039
X8.94Y-1.4
X8.94Y-1.86
X8.9449Y-2.315
X8.9472Y-4.6169
X8.96Y-2.16
X8.98Y-1.54
X8.98Y-1.76
X8.98Y-2.38
X8.98Y-2.54
X8.98Y-2.94
X8.98Y-3.1
X8.98Y-3.26
X8.98Y-3.68
X8.98Y-3.76
X9.0Y-1.08
X9.0Y-4.7
X9.0157Y-2.5689
X9.02Y-0.76
X9.02Y-2.2
X9.04Y-3.34
X9.04Y-4.46
X9.06Y-1.52
X9.06Y-1.64
X9.06Y-1.76
X9.06Y-4.06
X9.08Y-2.46
X9.08Y-2.56
X9.08Y-4.0
X9.1Y-4.7
X9.12Y-1.82
X9.12Y-2.14
X9.12Y-2.88
X9.12Y-3.64
X9.12Y-3.8
X9.12Y-4.42
X9.14Y-1.08
X9.14Y-3.32
X9.16Y-0.78
X9.16Y-1.58
X9.1937Y-0.9283
X9.2Y-4.7
X9.2146Y-1.7217
X9.2197Y-1.8394
X9.2283Y-4.6122
X9.24Y-1.12
X9.24Y-1.22
X9.24Y-1.48
X9.24Y-2.24
X9.24Y-2.34
X9.24Y-2.62
X9.24Y-2.72
X9.24Y-2.98
X9.24Y-3.38
X9.24Y-3.5
X9.24Y-3.74
X9.24Y-4.12
X9.24Y-4.22
X9.24Y-4.5
X9.2693Y-2.0075
X9.3Y-0.8
X9.3Y-4.7
X9.3Y-4.7
X9.3287Y-4.6429
X9.34Y-1.08
X9.34Y-1.58
X9.34Y-1.82
X9.34Y-3.32
X9.3496Y-0.8642
X9.36Y-1.72
X9.36Y-2.14
X9.36Y-2.34
X9.36Y-2.88
X9.36Y-3.64
X9.36Y-4.42
X9.38Y-1.38
X9.38Y-2.46
X9.38Y-3.78
X9.38Y-3.92
X9.38Y-4.06
X9.4Y-1.66
X9.4331Y-4.4882
X9.44Y-0.82
X9.44Y-1.44
X9.44Y-1.5
X9.4437Y-4.4461
X9.4457Y-2.4126
X9.46Y-1.84
X9.46Y-2.94
X9.46Y-3.34
X9.46Y-3.7
X9.46Y-3.84
X9.46Y-4.0
X9.4638Y-2.5539
X9.4665Y-4.0815
X9.4699Y-2.3526
X9.48Y-1.08
X9.48Y-2.2
X9.4909Y-2.5051
X9.4949Y-3.1862
X9.4972Y-4.4535
X9.5Y-1.58
X9.5Y-4.7
X9.52Y-0.86
X9.52Y-1.44
X9.52Y-2.3
X9.54Y-1.82
X9.54Y-2.88
X9.54Y-3.76
X9.54Y-4.06
X9.56Y-1.5
X9.5626Y-2.1484
X9.5657Y-1.3685
X9.5677Y-2.6705
X9.5748Y-3.4213
X9.5972Y-2.5587
X9.6Y-0.9
X9.6Y-1.0
X9.6Y-1.1
X9.6Y-1.6
X9.6Y-1.7
X9.6Y-1.8
X9.6Y-1.9
X9.6Y-2.2
X9.6Y-2.3
X9.6Y-2.4
X9.6Y-2.4
X9.6Y-2.5
X9.6Y-2.9
X9.6Y-3.0
X9.6Y-3.1
T2
X3.6726Y-4.9951
X3.7395Y-5.111
X4.0906Y-3.5236
X4.2244Y-3.5236
X4.2894Y-4.6389
X4.3563Y-4.7548
X4.437Y-2.2835
X4.437Y-2.4055
X4.437Y-3.7795
X4.437Y-3.9016
X4.5709Y-2.2835
X4.5709Y-2.4055
X4.5709Y-3.7795
X4.5709Y-3.9016
X4.811Y-4.6457
X4.9449Y-4.6457
X5.0736Y-1.2476
X5.2075Y-1.2476
X5.2205Y-2.1929
X5.2205Y-3.6929
X5.2598Y-2.311
X5.2598Y-3.811
X5.3543Y-2.1929
X5.3543Y-3.6929
X5.3937Y-2.311
X5.3937Y-3.811
X5.5591Y-4.5591
X5.6929Y-4.5591
X5.8394Y-1.1827
X5.937Y-2.1339
X5.937Y-3.6339
X5.937Y-3.7559
X5.9409Y-2.2598
X5.9732Y-1.1827
X6.0709Y-2.1339
X6.0709Y-3.6339
X6.0709Y-3.7559
X6.0748Y-2.2598
X6.176Y-1.2567
X6.3098Y-1.2567
X6.311Y-4.5591
X6.4449Y-4.5591
X6.685Y-2.189
X6.685Y-2.311
X6.685Y-3.685
X6.685Y-3.811
X6.8189Y-2.189
X6.8189Y-2.311
X6.8189Y-3.685
X6.8189Y-3.811
X6.9244Y-1.3594
X7.0583Y-1.3594
X7.437Y-2.378
X7.437Y-2.4921
X7.437Y-3.8701
X7.437Y-3.9961
X7.5709Y-2.378
X7.5709Y-2.4921
X7.5709Y-3.8701
X7.5709Y-3.9961
X7.6768Y-1.4776
X7.8106Y-1.4776
X8.4217Y-3.8185
X8.4252Y-1.6087
X8.4346Y-4.0283
X8.5555Y-3.8185
X8.5591Y-1.6087
X8.5685Y-4.0283
X8.6654Y-2.4331
X8.6654Y-2.5551
X8.7992Y-2.4331
X8.7992Y-2.5551
X9.1717Y-2.5118
X9.172Y-1.6492
X9.1724Y-2.3984
X9.1795Y-3.9705
X9.1803Y-3.8563
X9.3055Y-2.5118
X9.3059Y-1.6492
X9.3063Y-2.3984
X9.3134Y-3.9705
X9.3142Y-3.8563
T4
X3.4567Y-2.9685
T5
X3.3346Y-2.3898
X3.4213Y-2.3898
X3.6291Y-1.6232
X3.6291Y-1.7232
X3.6291Y-1.8232
X3.6291Y-1.9232
X3.6291Y-2.0232
X3.6291Y-2.1232
X3.6291Y-2.2232
X3.6291Y-2.3232
X3.6291Y-2.4232
X3.6291Y-2.5232
X3.6291Y-2.6232
X3.6291Y-2.7232
X3.6803Y-1.6703
X3.6803Y-1.7703
X3.6803Y-1.8703
X3.6803Y-1.9703
X3.6803Y-2.0703
X3.6803Y-2.1703
X3.6803Y-2.2703
X3.6803Y-2.3703
X3.6803Y-2.4703
X3.6803Y-2.5703
X3.6803Y-2.6703
X3.6803Y-2.7703
X4.2291Y-1.6232
X4.2291Y-1.7232
X4.2291Y-1.8232
X4.2291Y-1.9232
X4.2291Y-2.0232
X4.2291Y-2.1232
X4.2291Y-2.2232
X4.2291Y-2.3232
X4.2291Y-2.4232
X4.2291Y-2.5232
X4.2291Y-2.6232
X4.2291Y-2.7232
X4.2803Y-1.6703
X4.2803Y-1.7703
X4.2803Y-1.8703
X4.2803Y-1.9703
X4.2803Y-2.0703
X4.2803Y-2.1703
X4.2803Y-2.2703
X4.2803Y-2.3703
X4.2803Y-2.4703
X4.2803Y-2.5703
X4.2803Y-2.6703
X4.2803Y-2.7703
T6
X4.437Y-3.0118
X4.437Y-3.0945
X4.437Y-3.1732
T7
X3.3465Y-2.5374
X3.3465Y-2.7933
T8
X3.725Y-4.625
X5.1024Y-1.5197
X5.1024Y-3.8425
X6.6185Y-2.976
X8.8701Y-1.685
X8.8701Y-3.937
T3
G00X3.3091Y-1.6555
M15
G01X3.3091Y-1.6988
M16
G05
G00X3.3091Y-1.7736
M15
G01X3.3091Y-1.8169
M16
G05
G00X3.3091Y-1.9311
M15
G01X3.3091Y-1.9744
M16
G05
G00X3.378Y-1.9902
M15
G01X3.378Y-2.0335
M16
G05
G00X3.4744Y-1.9902
M15
G01X3.4744Y-2.0335
M16
G05
G00X3.5433Y-1.6555
M15
G01X3.5433Y-1.6988
M16
G05
G00X3.5433Y-1.7736
M15
G01X3.5433Y-1.8169
M16
G05
G00X3.5433Y-1.9311
M15
G01X3.5433Y-1.9744
M16
G05
T0
M30
