G04 #@! TF.GenerationSoftware,KiCad,Pcbnew,(5.1.9)-1*
G04 #@! TF.CreationDate,2021-06-16T13:37:58+02:00*
G04 #@! TF.ProjectId,EKR82,454b5238-322e-46b6-9963-61645f706362,rev?*
G04 #@! TF.SameCoordinates,Original*
G04 #@! TF.FileFunction,Legend,Bot*
G04 #@! TF.FilePolarity,Positive*
%FSLAX46Y46*%
G04 Gerber Fmt 4.6, Leading zero omitted, Abs format (unit mm)*
G04 Created by KiCad (PCBNEW (5.1.9)-1) date 2021-06-16 13:37:58*
%MOMM*%
%LPD*%
G01*
G04 APERTURE LIST*
%ADD10C,0.100000*%
%ADD11C,0.150000*%
%ADD12C,0.300000*%
%ADD13C,0.400000*%
G04 #@! TA.AperFunction,Profile*
%ADD14C,0.150000*%
G04 #@! TD*
G04 #@! TA.AperFunction,Profile*
%ADD15C,0.200000*%
G04 #@! TD*
%ADD16C,0.010000*%
%ADD17C,0.018000*%
%ADD18C,0.120000*%
%ADD19C,0.250000*%
G04 APERTURE END LIST*
D10*
D11*
X177002200Y-166007200D02*
X177002200Y-198007200D01*
X285002200Y-198007200D01*
X285002200Y-166007200D01*
X177002200Y-166007200D01*
D10*
D11*
X10000000Y-10000000D02*
X10000000Y-200007200D01*
X287002200Y-200007200D01*
X287002200Y-10000000D01*
X10000000Y-10000000D01*
D10*
D11*
X12000000Y-12000000D02*
X12000000Y-198007200D01*
X285002200Y-198007200D01*
X285002200Y-12000000D01*
X12000000Y-12000000D01*
D10*
D11*
X60000000Y-12000000D02*
X60000000Y-10000000D01*
D10*
D11*
X110000000Y-12000000D02*
X110000000Y-10000000D01*
D10*
D11*
X160000000Y-12000000D02*
X160000000Y-10000000D01*
D10*
D11*
X210000000Y-12000000D02*
X210000000Y-10000000D01*
D10*
D11*
X260000000Y-12000000D02*
X260000000Y-10000000D01*
D10*
D11*
X36065476Y-11588095D02*
X35322619Y-11588095D01*
X35694047Y-11588095D02*
X35694047Y-10288095D01*
X35570238Y-10473809D01*
X35446428Y-10597619D01*
X35322619Y-10659523D01*
D10*
D11*
X85322619Y-10411904D02*
X85384523Y-10350000D01*
X85508333Y-10288095D01*
X85817857Y-10288095D01*
X85941666Y-10350000D01*
X86003571Y-10411904D01*
X86065476Y-10535714D01*
X86065476Y-10659523D01*
X86003571Y-10845238D01*
X85260714Y-11588095D01*
X86065476Y-11588095D01*
D10*
D11*
X135260714Y-10288095D02*
X136065476Y-10288095D01*
X135632142Y-10783333D01*
X135817857Y-10783333D01*
X135941666Y-10845238D01*
X136003571Y-10907142D01*
X136065476Y-11030952D01*
X136065476Y-11340476D01*
X136003571Y-11464285D01*
X135941666Y-11526190D01*
X135817857Y-11588095D01*
X135446428Y-11588095D01*
X135322619Y-11526190D01*
X135260714Y-11464285D01*
D10*
D11*
X185941666Y-10721428D02*
X185941666Y-11588095D01*
X185632142Y-10226190D02*
X185322619Y-11154761D01*
X186127380Y-11154761D01*
D10*
D11*
X236003571Y-10288095D02*
X235384523Y-10288095D01*
X235322619Y-10907142D01*
X235384523Y-10845238D01*
X235508333Y-10783333D01*
X235817857Y-10783333D01*
X235941666Y-10845238D01*
X236003571Y-10907142D01*
X236065476Y-11030952D01*
X236065476Y-11340476D01*
X236003571Y-11464285D01*
X235941666Y-11526190D01*
X235817857Y-11588095D01*
X235508333Y-11588095D01*
X235384523Y-11526190D01*
X235322619Y-11464285D01*
D10*
D11*
X285941666Y-10288095D02*
X285694047Y-10288095D01*
X285570238Y-10350000D01*
X285508333Y-10411904D01*
X285384523Y-10597619D01*
X285322619Y-10845238D01*
X285322619Y-11340476D01*
X285384523Y-11464285D01*
X285446428Y-11526190D01*
X285570238Y-11588095D01*
X285817857Y-11588095D01*
X285941666Y-11526190D01*
X286003571Y-11464285D01*
X286065476Y-11340476D01*
X286065476Y-11030952D01*
X286003571Y-10907142D01*
X285941666Y-10845238D01*
X285817857Y-10783333D01*
X285570238Y-10783333D01*
X285446428Y-10845238D01*
X285384523Y-10907142D01*
X285322619Y-11030952D01*
D10*
D11*
X60000000Y-198007200D02*
X60000000Y-200007200D01*
D10*
D11*
X110000000Y-198007200D02*
X110000000Y-200007200D01*
D10*
D11*
X160000000Y-198007200D02*
X160000000Y-200007200D01*
D10*
D11*
X210000000Y-198007200D02*
X210000000Y-200007200D01*
D10*
D11*
X260000000Y-198007200D02*
X260000000Y-200007200D01*
D10*
D11*
X36065476Y-199595295D02*
X35322619Y-199595295D01*
X35694047Y-199595295D02*
X35694047Y-198295295D01*
X35570238Y-198481009D01*
X35446428Y-198604819D01*
X35322619Y-198666723D01*
D10*
D11*
X85322619Y-198419104D02*
X85384523Y-198357200D01*
X85508333Y-198295295D01*
X85817857Y-198295295D01*
X85941666Y-198357200D01*
X86003571Y-198419104D01*
X86065476Y-198542914D01*
X86065476Y-198666723D01*
X86003571Y-198852438D01*
X85260714Y-199595295D01*
X86065476Y-199595295D01*
D10*
D11*
X135260714Y-198295295D02*
X136065476Y-198295295D01*
X135632142Y-198790533D01*
X135817857Y-198790533D01*
X135941666Y-198852438D01*
X136003571Y-198914342D01*
X136065476Y-199038152D01*
X136065476Y-199347676D01*
X136003571Y-199471485D01*
X135941666Y-199533390D01*
X135817857Y-199595295D01*
X135446428Y-199595295D01*
X135322619Y-199533390D01*
X135260714Y-199471485D01*
D10*
D11*
X185941666Y-198728628D02*
X185941666Y-199595295D01*
X185632142Y-198233390D02*
X185322619Y-199161961D01*
X186127380Y-199161961D01*
D10*
D11*
X236003571Y-198295295D02*
X235384523Y-198295295D01*
X235322619Y-198914342D01*
X235384523Y-198852438D01*
X235508333Y-198790533D01*
X235817857Y-198790533D01*
X235941666Y-198852438D01*
X236003571Y-198914342D01*
X236065476Y-199038152D01*
X236065476Y-199347676D01*
X236003571Y-199471485D01*
X235941666Y-199533390D01*
X235817857Y-199595295D01*
X235508333Y-199595295D01*
X235384523Y-199533390D01*
X235322619Y-199471485D01*
D10*
D11*
X285941666Y-198295295D02*
X285694047Y-198295295D01*
X285570238Y-198357200D01*
X285508333Y-198419104D01*
X285384523Y-198604819D01*
X285322619Y-198852438D01*
X285322619Y-199347676D01*
X285384523Y-199471485D01*
X285446428Y-199533390D01*
X285570238Y-199595295D01*
X285817857Y-199595295D01*
X285941666Y-199533390D01*
X286003571Y-199471485D01*
X286065476Y-199347676D01*
X286065476Y-199038152D01*
X286003571Y-198914342D01*
X285941666Y-198852438D01*
X285817857Y-198790533D01*
X285570238Y-198790533D01*
X285446428Y-198852438D01*
X285384523Y-198914342D01*
X285322619Y-199038152D01*
D10*
D11*
X10000000Y-60000000D02*
X12000000Y-60000000D01*
D10*
D11*
X10000000Y-110000000D02*
X12000000Y-110000000D01*
D10*
D11*
X10000000Y-160000000D02*
X12000000Y-160000000D01*
D10*
D11*
X10690476Y-35216666D02*
X11309523Y-35216666D01*
X10566666Y-35588095D02*
X11000000Y-34288095D01*
X11433333Y-35588095D01*
D10*
D11*
X11092857Y-84907142D02*
X11278571Y-84969047D01*
X11340476Y-85030952D01*
X11402380Y-85154761D01*
X11402380Y-85340476D01*
X11340476Y-85464285D01*
X11278571Y-85526190D01*
X11154761Y-85588095D01*
X10659523Y-85588095D01*
X10659523Y-84288095D01*
X11092857Y-84288095D01*
X11216666Y-84350000D01*
X11278571Y-84411904D01*
X11340476Y-84535714D01*
X11340476Y-84659523D01*
X11278571Y-84783333D01*
X11216666Y-84845238D01*
X11092857Y-84907142D01*
X10659523Y-84907142D01*
D10*
D11*
X11402380Y-135464285D02*
X11340476Y-135526190D01*
X11154761Y-135588095D01*
X11030952Y-135588095D01*
X10845238Y-135526190D01*
X10721428Y-135402380D01*
X10659523Y-135278571D01*
X10597619Y-135030952D01*
X10597619Y-134845238D01*
X10659523Y-134597619D01*
X10721428Y-134473809D01*
X10845238Y-134350000D01*
X11030952Y-134288095D01*
X11154761Y-134288095D01*
X11340476Y-134350000D01*
X11402380Y-134411904D01*
D10*
D11*
X10659523Y-185588095D02*
X10659523Y-184288095D01*
X10969047Y-184288095D01*
X11154761Y-184350000D01*
X11278571Y-184473809D01*
X11340476Y-184597619D01*
X11402380Y-184845238D01*
X11402380Y-185030952D01*
X11340476Y-185278571D01*
X11278571Y-185402380D01*
X11154761Y-185526190D01*
X10969047Y-185588095D01*
X10659523Y-185588095D01*
D10*
D11*
X287002200Y-60000000D02*
X285002200Y-60000000D01*
D10*
D11*
X287002200Y-110000000D02*
X285002200Y-110000000D01*
D10*
D11*
X287002200Y-160000000D02*
X285002200Y-160000000D01*
D10*
D11*
X285692676Y-35216666D02*
X286311723Y-35216666D01*
X285568866Y-35588095D02*
X286002200Y-34288095D01*
X286435533Y-35588095D01*
D10*
D11*
X286095057Y-84907142D02*
X286280771Y-84969047D01*
X286342676Y-85030952D01*
X286404580Y-85154761D01*
X286404580Y-85340476D01*
X286342676Y-85464285D01*
X286280771Y-85526190D01*
X286156961Y-85588095D01*
X285661723Y-85588095D01*
X285661723Y-84288095D01*
X286095057Y-84288095D01*
X286218866Y-84350000D01*
X286280771Y-84411904D01*
X286342676Y-84535714D01*
X286342676Y-84659523D01*
X286280771Y-84783333D01*
X286218866Y-84845238D01*
X286095057Y-84907142D01*
X285661723Y-84907142D01*
D10*
D11*
X286404580Y-135464285D02*
X286342676Y-135526190D01*
X286156961Y-135588095D01*
X286033152Y-135588095D01*
X285847438Y-135526190D01*
X285723628Y-135402380D01*
X285661723Y-135278571D01*
X285599819Y-135030952D01*
X285599819Y-134845238D01*
X285661723Y-134597619D01*
X285723628Y-134473809D01*
X285847438Y-134350000D01*
X286033152Y-134288095D01*
X286156961Y-134288095D01*
X286342676Y-134350000D01*
X286404580Y-134411904D01*
D10*
D11*
X285661723Y-185588095D02*
X285661723Y-184288095D01*
X285971247Y-184288095D01*
X286156961Y-184350000D01*
X286280771Y-184473809D01*
X286342676Y-184597619D01*
X286404580Y-184845238D01*
X286404580Y-185030952D01*
X286342676Y-185278571D01*
X286280771Y-185402380D01*
X286156961Y-185526190D01*
X285971247Y-185588095D01*
X285661723Y-185588095D01*
D10*
D11*
X200434342Y-193785771D02*
X200434342Y-192285771D01*
X200791485Y-192285771D01*
X201005771Y-192357200D01*
X201148628Y-192500057D01*
X201220057Y-192642914D01*
X201291485Y-192928628D01*
X201291485Y-193142914D01*
X201220057Y-193428628D01*
X201148628Y-193571485D01*
X201005771Y-193714342D01*
X200791485Y-193785771D01*
X200434342Y-193785771D01*
X202577200Y-193785771D02*
X202577200Y-193000057D01*
X202505771Y-192857200D01*
X202362914Y-192785771D01*
X202077200Y-192785771D01*
X201934342Y-192857200D01*
X202577200Y-193714342D02*
X202434342Y-193785771D01*
X202077200Y-193785771D01*
X201934342Y-193714342D01*
X201862914Y-193571485D01*
X201862914Y-193428628D01*
X201934342Y-193285771D01*
X202077200Y-193214342D01*
X202434342Y-193214342D01*
X202577200Y-193142914D01*
X203077200Y-192785771D02*
X203648628Y-192785771D01*
X203291485Y-192285771D02*
X203291485Y-193571485D01*
X203362914Y-193714342D01*
X203505771Y-193785771D01*
X203648628Y-193785771D01*
X204720057Y-193714342D02*
X204577200Y-193785771D01*
X204291485Y-193785771D01*
X204148628Y-193714342D01*
X204077200Y-193571485D01*
X204077200Y-193000057D01*
X204148628Y-192857200D01*
X204291485Y-192785771D01*
X204577200Y-192785771D01*
X204720057Y-192857200D01*
X204791485Y-193000057D01*
X204791485Y-193142914D01*
X204077200Y-193285771D01*
X205434342Y-193642914D02*
X205505771Y-193714342D01*
X205434342Y-193785771D01*
X205362914Y-193714342D01*
X205434342Y-193642914D01*
X205434342Y-193785771D01*
X205434342Y-192857200D02*
X205505771Y-192928628D01*
X205434342Y-193000057D01*
X205362914Y-192928628D01*
X205434342Y-192857200D01*
X205434342Y-193000057D01*
D10*
D11*
X177002200Y-194507200D02*
X285002200Y-194507200D01*
D10*
D11*
X178434342Y-196585771D02*
X178434342Y-195085771D01*
X179291485Y-196585771D02*
X178648628Y-195728628D01*
X179291485Y-195085771D02*
X178434342Y-195942914D01*
X179934342Y-196585771D02*
X179934342Y-195585771D01*
X179934342Y-195085771D02*
X179862914Y-195157200D01*
X179934342Y-195228628D01*
X180005771Y-195157200D01*
X179934342Y-195085771D01*
X179934342Y-195228628D01*
X181505771Y-196442914D02*
X181434342Y-196514342D01*
X181220057Y-196585771D01*
X181077200Y-196585771D01*
X180862914Y-196514342D01*
X180720057Y-196371485D01*
X180648628Y-196228628D01*
X180577200Y-195942914D01*
X180577200Y-195728628D01*
X180648628Y-195442914D01*
X180720057Y-195300057D01*
X180862914Y-195157200D01*
X181077200Y-195085771D01*
X181220057Y-195085771D01*
X181434342Y-195157200D01*
X181505771Y-195228628D01*
X182791485Y-196585771D02*
X182791485Y-195800057D01*
X182720057Y-195657200D01*
X182577200Y-195585771D01*
X182291485Y-195585771D01*
X182148628Y-195657200D01*
X182791485Y-196514342D02*
X182648628Y-196585771D01*
X182291485Y-196585771D01*
X182148628Y-196514342D01*
X182077200Y-196371485D01*
X182077200Y-196228628D01*
X182148628Y-196085771D01*
X182291485Y-196014342D01*
X182648628Y-196014342D01*
X182791485Y-195942914D01*
X184148628Y-196585771D02*
X184148628Y-195085771D01*
X184148628Y-196514342D02*
X184005771Y-196585771D01*
X183720057Y-196585771D01*
X183577200Y-196514342D01*
X183505771Y-196442914D01*
X183434342Y-196300057D01*
X183434342Y-195871485D01*
X183505771Y-195728628D01*
X183577200Y-195657200D01*
X183720057Y-195585771D01*
X184005771Y-195585771D01*
X184148628Y-195657200D01*
X186005771Y-195800057D02*
X186505771Y-195800057D01*
X186720057Y-196585771D02*
X186005771Y-196585771D01*
X186005771Y-195085771D01*
X186720057Y-195085771D01*
X187362914Y-196442914D02*
X187434342Y-196514342D01*
X187362914Y-196585771D01*
X187291485Y-196514342D01*
X187362914Y-196442914D01*
X187362914Y-196585771D01*
X188077200Y-196585771D02*
X188077200Y-195085771D01*
X188434342Y-195085771D01*
X188648628Y-195157200D01*
X188791485Y-195300057D01*
X188862914Y-195442914D01*
X188934342Y-195728628D01*
X188934342Y-195942914D01*
X188862914Y-196228628D01*
X188791485Y-196371485D01*
X188648628Y-196514342D01*
X188434342Y-196585771D01*
X188077200Y-196585771D01*
X189577200Y-196442914D02*
X189648628Y-196514342D01*
X189577200Y-196585771D01*
X189505771Y-196514342D01*
X189577200Y-196442914D01*
X189577200Y-196585771D01*
X190220057Y-196157200D02*
X190934342Y-196157200D01*
X190077200Y-196585771D02*
X190577200Y-195085771D01*
X191077200Y-196585771D01*
X191577200Y-196442914D02*
X191648628Y-196514342D01*
X191577200Y-196585771D01*
X191505771Y-196514342D01*
X191577200Y-196442914D01*
X191577200Y-196585771D01*
X194577200Y-196585771D02*
X194577200Y-195085771D01*
X194720057Y-196014342D02*
X195148628Y-196585771D01*
X195148628Y-195585771D02*
X194577200Y-196157200D01*
X195791485Y-196585771D02*
X195791485Y-195585771D01*
X195791485Y-195085771D02*
X195720057Y-195157200D01*
X195791485Y-195228628D01*
X195862914Y-195157200D01*
X195791485Y-195085771D01*
X195791485Y-195228628D01*
X197148628Y-196514342D02*
X197005771Y-196585771D01*
X196720057Y-196585771D01*
X196577200Y-196514342D01*
X196505771Y-196442914D01*
X196434342Y-196300057D01*
X196434342Y-195871485D01*
X196505771Y-195728628D01*
X196577200Y-195657200D01*
X196720057Y-195585771D01*
X197005771Y-195585771D01*
X197148628Y-195657200D01*
X198434342Y-196585771D02*
X198434342Y-195800057D01*
X198362914Y-195657200D01*
X198220057Y-195585771D01*
X197934342Y-195585771D01*
X197791485Y-195657200D01*
X198434342Y-196514342D02*
X198291485Y-196585771D01*
X197934342Y-196585771D01*
X197791485Y-196514342D01*
X197720057Y-196371485D01*
X197720057Y-196228628D01*
X197791485Y-196085771D01*
X197934342Y-196014342D01*
X198291485Y-196014342D01*
X198434342Y-195942914D01*
X199791485Y-196585771D02*
X199791485Y-195085771D01*
X199791485Y-196514342D02*
X199648628Y-196585771D01*
X199362914Y-196585771D01*
X199220057Y-196514342D01*
X199148628Y-196442914D01*
X199077200Y-196300057D01*
X199077200Y-195871485D01*
X199148628Y-195728628D01*
X199220057Y-195657200D01*
X199362914Y-195585771D01*
X199648628Y-195585771D01*
X199791485Y-195657200D01*
X202077200Y-197157200D02*
X202005771Y-197085771D01*
X201862914Y-196871485D01*
X201791485Y-196728628D01*
X201720057Y-196514342D01*
X201648628Y-196157200D01*
X201648628Y-195871485D01*
X201720057Y-195514342D01*
X201791485Y-195300057D01*
X201862914Y-195157200D01*
X202005771Y-194942914D01*
X202077200Y-194871485D01*
X203362914Y-195085771D02*
X202648628Y-195085771D01*
X202577200Y-195800057D01*
X202648628Y-195728628D01*
X202791485Y-195657200D01*
X203148628Y-195657200D01*
X203291485Y-195728628D01*
X203362914Y-195800057D01*
X203434342Y-195942914D01*
X203434342Y-196300057D01*
X203362914Y-196442914D01*
X203291485Y-196514342D01*
X203148628Y-196585771D01*
X202791485Y-196585771D01*
X202648628Y-196514342D01*
X202577200Y-196442914D01*
X204077200Y-196442914D02*
X204148628Y-196514342D01*
X204077200Y-196585771D01*
X204005771Y-196514342D01*
X204077200Y-196442914D01*
X204077200Y-196585771D01*
X205577200Y-196585771D02*
X204720057Y-196585771D01*
X205148628Y-196585771D02*
X205148628Y-195085771D01*
X205005771Y-195300057D01*
X204862914Y-195442914D01*
X204720057Y-195514342D01*
X206220057Y-196442914D02*
X206291485Y-196514342D01*
X206220057Y-196585771D01*
X206148628Y-196514342D01*
X206220057Y-196442914D01*
X206220057Y-196585771D01*
X207005771Y-196585771D02*
X207291485Y-196585771D01*
X207434342Y-196514342D01*
X207505771Y-196442914D01*
X207648628Y-196228628D01*
X207720057Y-195942914D01*
X207720057Y-195371485D01*
X207648628Y-195228628D01*
X207577200Y-195157200D01*
X207434342Y-195085771D01*
X207148628Y-195085771D01*
X207005771Y-195157200D01*
X206934342Y-195228628D01*
X206862914Y-195371485D01*
X206862914Y-195728628D01*
X206934342Y-195871485D01*
X207005771Y-195942914D01*
X207148628Y-196014342D01*
X207434342Y-196014342D01*
X207577200Y-195942914D01*
X207648628Y-195871485D01*
X207720057Y-195728628D01*
X208220057Y-197157200D02*
X208291485Y-197085771D01*
X208434342Y-196871485D01*
X208505771Y-196728628D01*
X208577200Y-196514342D01*
X208648628Y-196157200D01*
X208648628Y-195871485D01*
X208577200Y-195514342D01*
X208505771Y-195300057D01*
X208434342Y-195157200D01*
X208291485Y-194942914D01*
X208220057Y-194871485D01*
X209362914Y-196014342D02*
X210505771Y-196014342D01*
X212005771Y-196585771D02*
X211148628Y-196585771D01*
X211577200Y-196585771D02*
X211577200Y-195085771D01*
X211434342Y-195300057D01*
X211291485Y-195442914D01*
X211148628Y-195514342D01*
D10*
D11*
X177002200Y-191507200D02*
X285002200Y-191507200D01*
D10*
D12*
X264411485Y-193785771D02*
X263911485Y-193071485D01*
X263554342Y-193785771D02*
X263554342Y-192285771D01*
X264125771Y-192285771D01*
X264268628Y-192357200D01*
X264340057Y-192428628D01*
X264411485Y-192571485D01*
X264411485Y-192785771D01*
X264340057Y-192928628D01*
X264268628Y-193000057D01*
X264125771Y-193071485D01*
X263554342Y-193071485D01*
X265625771Y-193714342D02*
X265482914Y-193785771D01*
X265197200Y-193785771D01*
X265054342Y-193714342D01*
X264982914Y-193571485D01*
X264982914Y-193000057D01*
X265054342Y-192857200D01*
X265197200Y-192785771D01*
X265482914Y-192785771D01*
X265625771Y-192857200D01*
X265697200Y-193000057D01*
X265697200Y-193142914D01*
X264982914Y-193285771D01*
X266197200Y-192785771D02*
X266554342Y-193785771D01*
X266911485Y-192785771D01*
X267482914Y-193642914D02*
X267554342Y-193714342D01*
X267482914Y-193785771D01*
X267411485Y-193714342D01*
X267482914Y-193642914D01*
X267482914Y-193785771D01*
X267482914Y-192857200D02*
X267554342Y-192928628D01*
X267482914Y-193000057D01*
X267411485Y-192928628D01*
X267482914Y-192857200D01*
X267482914Y-193000057D01*
D10*
D11*
X178362914Y-193714342D02*
X178577200Y-193785771D01*
X178934342Y-193785771D01*
X179077200Y-193714342D01*
X179148628Y-193642914D01*
X179220057Y-193500057D01*
X179220057Y-193357200D01*
X179148628Y-193214342D01*
X179077200Y-193142914D01*
X178934342Y-193071485D01*
X178648628Y-193000057D01*
X178505771Y-192928628D01*
X178434342Y-192857200D01*
X178362914Y-192714342D01*
X178362914Y-192571485D01*
X178434342Y-192428628D01*
X178505771Y-192357200D01*
X178648628Y-192285771D01*
X179005771Y-192285771D01*
X179220057Y-192357200D01*
X179862914Y-193785771D02*
X179862914Y-192785771D01*
X179862914Y-192285771D02*
X179791485Y-192357200D01*
X179862914Y-192428628D01*
X179934342Y-192357200D01*
X179862914Y-192285771D01*
X179862914Y-192428628D01*
X180434342Y-192785771D02*
X181220057Y-192785771D01*
X180434342Y-193785771D01*
X181220057Y-193785771D01*
X182362914Y-193714342D02*
X182220057Y-193785771D01*
X181934342Y-193785771D01*
X181791485Y-193714342D01*
X181720057Y-193571485D01*
X181720057Y-193000057D01*
X181791485Y-192857200D01*
X181934342Y-192785771D01*
X182220057Y-192785771D01*
X182362914Y-192857200D01*
X182434342Y-193000057D01*
X182434342Y-193142914D01*
X181720057Y-193285771D01*
X183077200Y-193642914D02*
X183148628Y-193714342D01*
X183077200Y-193785771D01*
X183005771Y-193714342D01*
X183077200Y-193642914D01*
X183077200Y-193785771D01*
X183077200Y-192857200D02*
X183148628Y-192928628D01*
X183077200Y-193000057D01*
X183005771Y-192928628D01*
X183077200Y-192857200D01*
X183077200Y-193000057D01*
X184862914Y-193357200D02*
X185577200Y-193357200D01*
X184720057Y-193785771D02*
X185220057Y-192285771D01*
X185720057Y-193785771D01*
X186862914Y-192785771D02*
X186862914Y-193785771D01*
X186505771Y-192214342D02*
X186148628Y-193285771D01*
X187077200Y-193285771D01*
D10*
D11*
X263434342Y-196585771D02*
X263434342Y-195085771D01*
X264791485Y-196585771D02*
X264791485Y-195085771D01*
X264791485Y-196514342D02*
X264648628Y-196585771D01*
X264362914Y-196585771D01*
X264220057Y-196514342D01*
X264148628Y-196442914D01*
X264077200Y-196300057D01*
X264077200Y-195871485D01*
X264148628Y-195728628D01*
X264220057Y-195657200D01*
X264362914Y-195585771D01*
X264648628Y-195585771D01*
X264791485Y-195657200D01*
X265505771Y-196442914D02*
X265577200Y-196514342D01*
X265505771Y-196585771D01*
X265434342Y-196514342D01*
X265505771Y-196442914D01*
X265505771Y-196585771D01*
X265505771Y-195657200D02*
X265577200Y-195728628D01*
X265505771Y-195800057D01*
X265434342Y-195728628D01*
X265505771Y-195657200D01*
X265505771Y-195800057D01*
X268148628Y-196585771D02*
X267291485Y-196585771D01*
X267720057Y-196585771D02*
X267720057Y-195085771D01*
X267577200Y-195300057D01*
X267434342Y-195442914D01*
X267291485Y-195514342D01*
X269862914Y-195014342D02*
X268577200Y-196942914D01*
X271148628Y-196585771D02*
X270291485Y-196585771D01*
X270720057Y-196585771D02*
X270720057Y-195085771D01*
X270577200Y-195300057D01*
X270434342Y-195442914D01*
X270291485Y-195514342D01*
D10*
D11*
X177002200Y-187507200D02*
X285002200Y-187507200D01*
D10*
D13*
X178714580Y-188211961D02*
X179857438Y-188211961D01*
X179036009Y-190211961D02*
X179286009Y-188211961D01*
X180274104Y-190211961D02*
X180440771Y-188878628D01*
X180524104Y-188211961D02*
X180416961Y-188307200D01*
X180500295Y-188402438D01*
X180607438Y-188307200D01*
X180524104Y-188211961D01*
X180500295Y-188402438D01*
X181107438Y-188878628D02*
X181869342Y-188878628D01*
X181476485Y-188211961D02*
X181262200Y-189926247D01*
X181333628Y-190116723D01*
X181512200Y-190211961D01*
X181702676Y-190211961D01*
X182655057Y-190211961D02*
X182476485Y-190116723D01*
X182405057Y-189926247D01*
X182619342Y-188211961D01*
X184190771Y-190116723D02*
X183988390Y-190211961D01*
X183607438Y-190211961D01*
X183428866Y-190116723D01*
X183357438Y-189926247D01*
X183452676Y-189164342D01*
X183571723Y-188973866D01*
X183774104Y-188878628D01*
X184155057Y-188878628D01*
X184333628Y-188973866D01*
X184405057Y-189164342D01*
X184381247Y-189354819D01*
X183405057Y-189545295D01*
X185155057Y-190021485D02*
X185238390Y-190116723D01*
X185131247Y-190211961D01*
X185047914Y-190116723D01*
X185155057Y-190021485D01*
X185131247Y-190211961D01*
X185286009Y-188973866D02*
X185369342Y-189069104D01*
X185262200Y-189164342D01*
X185178866Y-189069104D01*
X185286009Y-188973866D01*
X185262200Y-189164342D01*
D10*
D11*
X178934342Y-185600057D02*
X178434342Y-185600057D01*
X178434342Y-186385771D02*
X178434342Y-184885771D01*
X179148628Y-184885771D01*
X179720057Y-186385771D02*
X179720057Y-185385771D01*
X179720057Y-184885771D02*
X179648628Y-184957200D01*
X179720057Y-185028628D01*
X179791485Y-184957200D01*
X179720057Y-184885771D01*
X179720057Y-185028628D01*
X180648628Y-186385771D02*
X180505771Y-186314342D01*
X180434342Y-186171485D01*
X180434342Y-184885771D01*
X181791485Y-186314342D02*
X181648628Y-186385771D01*
X181362914Y-186385771D01*
X181220057Y-186314342D01*
X181148628Y-186171485D01*
X181148628Y-185600057D01*
X181220057Y-185457200D01*
X181362914Y-185385771D01*
X181648628Y-185385771D01*
X181791485Y-185457200D01*
X181862914Y-185600057D01*
X181862914Y-185742914D01*
X181148628Y-185885771D01*
X182505771Y-186242914D02*
X182577200Y-186314342D01*
X182505771Y-186385771D01*
X182434342Y-186314342D01*
X182505771Y-186242914D01*
X182505771Y-186385771D01*
X182505771Y-185457200D02*
X182577200Y-185528628D01*
X182505771Y-185600057D01*
X182434342Y-185528628D01*
X182505771Y-185457200D01*
X182505771Y-185600057D01*
X184362914Y-185600057D02*
X184862914Y-185600057D01*
X185077200Y-186385771D02*
X184362914Y-186385771D01*
X184362914Y-184885771D01*
X185077200Y-184885771D01*
X185720057Y-186385771D02*
X185720057Y-184885771D01*
X186577200Y-186385771D02*
X185934342Y-185528628D01*
X186577200Y-184885771D02*
X185720057Y-185742914D01*
X188077200Y-186385771D02*
X187577200Y-185671485D01*
X187220057Y-186385771D02*
X187220057Y-184885771D01*
X187791485Y-184885771D01*
X187934342Y-184957200D01*
X188005771Y-185028628D01*
X188077200Y-185171485D01*
X188077200Y-185385771D01*
X188005771Y-185528628D01*
X187934342Y-185600057D01*
X187791485Y-185671485D01*
X187220057Y-185671485D01*
X188934342Y-185528628D02*
X188791485Y-185457200D01*
X188720057Y-185385771D01*
X188648628Y-185242914D01*
X188648628Y-185171485D01*
X188720057Y-185028628D01*
X188791485Y-184957200D01*
X188934342Y-184885771D01*
X189220057Y-184885771D01*
X189362914Y-184957200D01*
X189434342Y-185028628D01*
X189505771Y-185171485D01*
X189505771Y-185242914D01*
X189434342Y-185385771D01*
X189362914Y-185457200D01*
X189220057Y-185528628D01*
X188934342Y-185528628D01*
X188791485Y-185600057D01*
X188720057Y-185671485D01*
X188648628Y-185814342D01*
X188648628Y-186100057D01*
X188720057Y-186242914D01*
X188791485Y-186314342D01*
X188934342Y-186385771D01*
X189220057Y-186385771D01*
X189362914Y-186314342D01*
X189434342Y-186242914D01*
X189505771Y-186100057D01*
X189505771Y-185814342D01*
X189434342Y-185671485D01*
X189362914Y-185600057D01*
X189220057Y-185528628D01*
X190077200Y-185028628D02*
X190148628Y-184957200D01*
X190291485Y-184885771D01*
X190648628Y-184885771D01*
X190791485Y-184957200D01*
X190862914Y-185028628D01*
X190934342Y-185171485D01*
X190934342Y-185314342D01*
X190862914Y-185528628D01*
X190005771Y-186385771D01*
X190934342Y-186385771D01*
X191577200Y-186242914D02*
X191648628Y-186314342D01*
X191577200Y-186385771D01*
X191505771Y-186314342D01*
X191577200Y-186242914D01*
X191577200Y-186385771D01*
X192291485Y-186385771D02*
X192291485Y-184885771D01*
X192434342Y-185814342D02*
X192862914Y-186385771D01*
X192862914Y-185385771D02*
X192291485Y-185957200D01*
X193505771Y-186385771D02*
X193505771Y-185385771D01*
X193505771Y-184885771D02*
X193434342Y-184957200D01*
X193505771Y-185028628D01*
X193577200Y-184957200D01*
X193505771Y-184885771D01*
X193505771Y-185028628D01*
X194862914Y-186314342D02*
X194720057Y-186385771D01*
X194434342Y-186385771D01*
X194291485Y-186314342D01*
X194220057Y-186242914D01*
X194148628Y-186100057D01*
X194148628Y-185671485D01*
X194220057Y-185528628D01*
X194291485Y-185457200D01*
X194434342Y-185385771D01*
X194720057Y-185385771D01*
X194862914Y-185457200D01*
X196148628Y-186385771D02*
X196148628Y-185600057D01*
X196077200Y-185457200D01*
X195934342Y-185385771D01*
X195648628Y-185385771D01*
X195505771Y-185457200D01*
X196148628Y-186314342D02*
X196005771Y-186385771D01*
X195648628Y-186385771D01*
X195505771Y-186314342D01*
X195434342Y-186171485D01*
X195434342Y-186028628D01*
X195505771Y-185885771D01*
X195648628Y-185814342D01*
X196005771Y-185814342D01*
X196148628Y-185742914D01*
X197505771Y-186385771D02*
X197505771Y-184885771D01*
X197505771Y-186314342D02*
X197362914Y-186385771D01*
X197077200Y-186385771D01*
X196934342Y-186314342D01*
X196862914Y-186242914D01*
X196791485Y-186100057D01*
X196791485Y-185671485D01*
X196862914Y-185528628D01*
X196934342Y-185457200D01*
X197077200Y-185385771D01*
X197362914Y-185385771D01*
X197505771Y-185457200D01*
X197862914Y-186528628D02*
X199005771Y-186528628D01*
X199362914Y-185385771D02*
X199362914Y-186885771D01*
X199362914Y-185457200D02*
X199505771Y-185385771D01*
X199791485Y-185385771D01*
X199934342Y-185457200D01*
X200005771Y-185528628D01*
X200077200Y-185671485D01*
X200077200Y-186100057D01*
X200005771Y-186242914D01*
X199934342Y-186314342D01*
X199791485Y-186385771D01*
X199505771Y-186385771D01*
X199362914Y-186314342D01*
X201362914Y-186314342D02*
X201220057Y-186385771D01*
X200934342Y-186385771D01*
X200791485Y-186314342D01*
X200720057Y-186242914D01*
X200648628Y-186100057D01*
X200648628Y-185671485D01*
X200720057Y-185528628D01*
X200791485Y-185457200D01*
X200934342Y-185385771D01*
X201220057Y-185385771D01*
X201362914Y-185457200D01*
X202005771Y-186385771D02*
X202005771Y-184885771D01*
X202005771Y-185457200D02*
X202148628Y-185385771D01*
X202434342Y-185385771D01*
X202577200Y-185457200D01*
X202648628Y-185528628D01*
X202720057Y-185671485D01*
X202720057Y-186100057D01*
X202648628Y-186242914D01*
X202577200Y-186314342D01*
X202434342Y-186385771D01*
X202148628Y-186385771D01*
X202005771Y-186314342D01*
D10*
D11*
X177002200Y-181507200D02*
X285002200Y-181507200D01*
D10*
D11*
X178362914Y-183614342D02*
X178577200Y-183685771D01*
X178934342Y-183685771D01*
X179077200Y-183614342D01*
X179148628Y-183542914D01*
X179220057Y-183400057D01*
X179220057Y-183257200D01*
X179148628Y-183114342D01*
X179077200Y-183042914D01*
X178934342Y-182971485D01*
X178648628Y-182900057D01*
X178505771Y-182828628D01*
X178434342Y-182757200D01*
X178362914Y-182614342D01*
X178362914Y-182471485D01*
X178434342Y-182328628D01*
X178505771Y-182257200D01*
X178648628Y-182185771D01*
X179005771Y-182185771D01*
X179220057Y-182257200D01*
X179862914Y-183685771D02*
X179862914Y-182185771D01*
X180505771Y-183685771D02*
X180505771Y-182900057D01*
X180434342Y-182757200D01*
X180291485Y-182685771D01*
X180077200Y-182685771D01*
X179934342Y-182757200D01*
X179862914Y-182828628D01*
X181791485Y-183614342D02*
X181648628Y-183685771D01*
X181362914Y-183685771D01*
X181220057Y-183614342D01*
X181148628Y-183471485D01*
X181148628Y-182900057D01*
X181220057Y-182757200D01*
X181362914Y-182685771D01*
X181648628Y-182685771D01*
X181791485Y-182757200D01*
X181862914Y-182900057D01*
X181862914Y-183042914D01*
X181148628Y-183185771D01*
X183077200Y-183614342D02*
X182934342Y-183685771D01*
X182648628Y-183685771D01*
X182505771Y-183614342D01*
X182434342Y-183471485D01*
X182434342Y-182900057D01*
X182505771Y-182757200D01*
X182648628Y-182685771D01*
X182934342Y-182685771D01*
X183077200Y-182757200D01*
X183148628Y-182900057D01*
X183148628Y-183042914D01*
X182434342Y-183185771D01*
X183577200Y-182685771D02*
X184148628Y-182685771D01*
X183791485Y-182185771D02*
X183791485Y-183471485D01*
X183862914Y-183614342D01*
X184005771Y-183685771D01*
X184148628Y-183685771D01*
X184648628Y-183542914D02*
X184720057Y-183614342D01*
X184648628Y-183685771D01*
X184577200Y-183614342D01*
X184648628Y-183542914D01*
X184648628Y-183685771D01*
X184648628Y-182757200D02*
X184720057Y-182828628D01*
X184648628Y-182900057D01*
X184577200Y-182828628D01*
X184648628Y-182757200D01*
X184648628Y-182900057D01*
D10*
D11*
X197002200Y-191507200D02*
X197002200Y-194507200D01*
D10*
D11*
X261002200Y-191507200D02*
X261002200Y-198007200D01*
D12*
X136130000Y-131252857D02*
X136344285Y-131324285D01*
X136415714Y-131395714D01*
X136487142Y-131538571D01*
X136487142Y-131752857D01*
X136415714Y-131895714D01*
X136344285Y-131967142D01*
X136201428Y-132038571D01*
X135630000Y-132038571D01*
X135630000Y-130538571D01*
X136130000Y-130538571D01*
X136272857Y-130610000D01*
X136344285Y-130681428D01*
X136415714Y-130824285D01*
X136415714Y-130967142D01*
X136344285Y-131110000D01*
X136272857Y-131181428D01*
X136130000Y-131252857D01*
X135630000Y-131252857D01*
X136987142Y-131038571D02*
X137344285Y-132038571D01*
X137701428Y-131038571D02*
X137344285Y-132038571D01*
X137201428Y-132395714D01*
X137130000Y-132467142D01*
X136987142Y-132538571D01*
X139415714Y-132038571D02*
X139415714Y-130538571D01*
X139915714Y-131610000D01*
X140415714Y-130538571D01*
X140415714Y-132038571D01*
X141344285Y-132038571D02*
X141201428Y-131967142D01*
X141130000Y-131895714D01*
X141058571Y-131752857D01*
X141058571Y-131324285D01*
X141130000Y-131181428D01*
X141201428Y-131110000D01*
X141344285Y-131038571D01*
X141558571Y-131038571D01*
X141701428Y-131110000D01*
X141772857Y-131181428D01*
X141844285Y-131324285D01*
X141844285Y-131752857D01*
X141772857Y-131895714D01*
X141701428Y-131967142D01*
X141558571Y-132038571D01*
X141344285Y-132038571D01*
X142487142Y-132038571D02*
X142487142Y-131038571D01*
X142487142Y-131324285D02*
X142558571Y-131181428D01*
X142630000Y-131110000D01*
X142772857Y-131038571D01*
X142915714Y-131038571D01*
X143415714Y-131038571D02*
X143415714Y-132038571D01*
X143415714Y-131181428D02*
X143487142Y-131110000D01*
X143630000Y-131038571D01*
X143844285Y-131038571D01*
X143987142Y-131110000D01*
X144058571Y-131252857D01*
X144058571Y-132038571D01*
X145344285Y-131967142D02*
X145201428Y-132038571D01*
X144915714Y-132038571D01*
X144772857Y-131967142D01*
X144701428Y-131824285D01*
X144701428Y-131252857D01*
X144772857Y-131110000D01*
X144915714Y-131038571D01*
X145201428Y-131038571D01*
X145344285Y-131110000D01*
X145415714Y-131252857D01*
X145415714Y-131395714D01*
X144701428Y-131538571D01*
X146058571Y-131038571D02*
X146058571Y-132538571D01*
X146058571Y-131110000D02*
X146201428Y-131038571D01*
X146487142Y-131038571D01*
X146630000Y-131110000D01*
X146701428Y-131181428D01*
X146772857Y-131324285D01*
X146772857Y-131752857D01*
X146701428Y-131895714D01*
X146630000Y-131967142D01*
X146487142Y-132038571D01*
X146201428Y-132038571D01*
X146058571Y-131967142D01*
X147630000Y-132038571D02*
X147487142Y-131967142D01*
X147415714Y-131895714D01*
X147344285Y-131752857D01*
X147344285Y-131324285D01*
X147415714Y-131181428D01*
X147487142Y-131110000D01*
X147630000Y-131038571D01*
X147844285Y-131038571D01*
X147987142Y-131110000D01*
X148058571Y-131181428D01*
X148130000Y-131324285D01*
X148130000Y-131752857D01*
X148058571Y-131895714D01*
X147987142Y-131967142D01*
X147844285Y-132038571D01*
X147630000Y-132038571D01*
X149415714Y-131038571D02*
X149415714Y-132038571D01*
X148772857Y-131038571D02*
X148772857Y-131824285D01*
X148844285Y-131967142D01*
X148987142Y-132038571D01*
X149201428Y-132038571D01*
X149344285Y-131967142D01*
X149415714Y-131895714D01*
X150058571Y-131967142D02*
X150201428Y-132038571D01*
X150487142Y-132038571D01*
X150630000Y-131967142D01*
X150701428Y-131824285D01*
X150701428Y-131752857D01*
X150630000Y-131610000D01*
X150487142Y-131538571D01*
X150272857Y-131538571D01*
X150130000Y-131467142D01*
X150058571Y-131324285D01*
X150058571Y-131252857D01*
X150130000Y-131110000D01*
X150272857Y-131038571D01*
X150487142Y-131038571D01*
X150630000Y-131110000D01*
X151272857Y-131967142D02*
X151415714Y-132038571D01*
X151701428Y-132038571D01*
X151844285Y-131967142D01*
X151915714Y-131824285D01*
X151915714Y-131752857D01*
X151844285Y-131610000D01*
X151701428Y-131538571D01*
X151487142Y-131538571D01*
X151344285Y-131467142D01*
X151272857Y-131324285D01*
X151272857Y-131252857D01*
X151344285Y-131110000D01*
X151487142Y-131038571D01*
X151701428Y-131038571D01*
X151844285Y-131110000D01*
X153130000Y-131967142D02*
X152987142Y-132038571D01*
X152701428Y-132038571D01*
X152558571Y-131967142D01*
X152487142Y-131824285D01*
X152487142Y-131252857D01*
X152558571Y-131110000D01*
X152701428Y-131038571D01*
X152987142Y-131038571D01*
X153130000Y-131110000D01*
X153201428Y-131252857D01*
X153201428Y-131395714D01*
X152487142Y-131538571D01*
D14*
X72674503Y-134960305D02*
G75*
G02*
X72175000Y-132325000I4376397J2194505D01*
G01*
X88345583Y-152620389D02*
G75*
G02*
X81699101Y-150634699I-2328483J4322489D01*
G01*
X72674503Y-134960305D02*
X81699101Y-150634699D01*
X104456758Y-143271756D02*
X88345583Y-152620389D01*
X245120000Y-120789735D02*
X245120000Y-22546755D01*
X223959999Y-120789735D02*
X245120000Y-120789735D01*
X109898210Y-36780000D02*
X109898210Y-17246762D01*
X82940000Y-36780000D02*
X109898210Y-36780000D01*
X82937528Y-38136762D02*
X82940000Y-36780000D01*
D15*
X240549319Y-20073847D02*
X235185697Y-18995159D01*
X235185697Y-18995159D02*
X228080758Y-18055561D01*
X116186619Y-136480784D02*
X117862313Y-135510645D01*
X114510925Y-137450923D02*
X116186619Y-136480784D01*
X82937528Y-50750629D02*
X82937528Y-44443695D01*
X82937528Y-57057562D02*
X82937528Y-50750629D01*
X142171711Y-16196762D02*
X131763877Y-16196762D01*
X218692418Y-120789735D02*
X223959999Y-120789735D01*
X213424836Y-120789735D02*
X218692418Y-120789735D01*
X208157255Y-120789735D02*
X213424836Y-120789735D01*
X202889673Y-120789735D02*
X208157255Y-120789735D01*
X197622092Y-120789735D02*
X202889673Y-120789735D01*
X192354511Y-120789735D02*
X197622092Y-120789735D01*
X187086929Y-120789735D02*
X192354511Y-120789735D01*
X181819348Y-120789735D02*
X187086929Y-120789735D01*
X181113524Y-120860778D02*
X181819348Y-120789735D01*
X180456326Y-121064561D02*
X181113524Y-120860778D01*
X179861773Y-121387065D02*
X180456326Y-121064561D01*
X179343884Y-121814271D02*
X179861773Y-121387065D01*
X178916678Y-122332160D02*
X179343884Y-121814271D01*
X178594174Y-122926713D02*
X178916678Y-122332160D01*
X178390391Y-123583911D02*
X178594174Y-122926713D01*
X178319348Y-124289735D02*
X178390391Y-123583911D01*
X219467654Y-17280488D02*
X209579538Y-16695374D01*
X228080758Y-18055561D02*
X219467654Y-17280488D01*
X198649563Y-16325654D02*
X186910881Y-16196762D01*
X209579538Y-16695374D02*
X198649563Y-16325654D01*
X177658308Y-135255660D02*
X177403500Y-135393876D01*
X177880261Y-135072571D02*
X177658308Y-135255660D01*
X178063349Y-134850619D02*
X177880261Y-135072571D01*
X178201565Y-134595810D02*
X178063349Y-134850619D01*
X178288901Y-134314154D02*
X178201565Y-134595810D01*
X178319348Y-134034052D02*
X178288901Y-134314154D01*
X82937528Y-69671429D02*
X82937528Y-63364495D01*
X82937528Y-75978362D02*
X82937528Y-69671429D01*
X82937528Y-82285296D02*
X82937528Y-75978362D01*
X82937528Y-88592229D02*
X82937528Y-82285296D01*
X131763877Y-16196762D02*
X121356044Y-16196762D01*
X152579545Y-16196762D02*
X142171711Y-16196762D01*
X162987379Y-16196762D02*
X152579545Y-16196762D01*
X173395213Y-16196762D02*
X162987379Y-16196762D01*
X186910881Y-16196762D02*
X173395213Y-16196762D01*
X110360937Y-16375961D02*
X110539303Y-16279210D01*
X110205570Y-16504123D02*
X110360937Y-16375961D01*
X110077409Y-16659489D02*
X110205570Y-16504123D01*
X109980657Y-16837855D02*
X110077409Y-16659489D01*
X109919523Y-17035015D02*
X109980657Y-16837855D01*
X109898210Y-17246762D02*
X109919523Y-17035015D01*
X110736462Y-16218075D02*
X110948210Y-16196762D01*
X110539303Y-16279210D02*
X110736462Y-16218075D01*
X121356044Y-16196762D02*
X110948210Y-16196762D01*
X82937528Y-63364495D02*
X82937528Y-57057562D01*
X82937528Y-44443695D02*
X82937528Y-38136762D01*
X82937777Y-88592317D02*
X72175000Y-132325000D01*
X112835230Y-138421062D02*
X114510925Y-137450923D01*
X111159536Y-139391201D02*
X112835230Y-138421062D01*
X109483841Y-140361340D02*
X111159536Y-139391201D01*
X107808147Y-141331479D02*
X109483841Y-140361340D01*
X106132452Y-142301617D02*
X107808147Y-141331479D01*
X104456758Y-143271756D02*
X106132452Y-142301617D01*
X169449826Y-135511658D02*
X176819348Y-135511658D01*
X162080304Y-135511658D02*
X169449826Y-135511658D01*
X154710782Y-135511658D02*
X162080304Y-135511658D01*
X147341260Y-135511658D02*
X154710782Y-135511658D01*
X139971738Y-135511658D02*
X147341260Y-135511658D01*
X132602217Y-135511658D02*
X139971738Y-135511658D01*
X125232695Y-135511658D02*
X132602217Y-135511658D01*
X117863173Y-135511658D02*
X125232695Y-135511658D01*
X178319348Y-132816013D02*
X178319348Y-134034052D01*
X178319348Y-131597973D02*
X178319348Y-132816013D01*
X178319348Y-130379933D02*
X178319348Y-131597973D01*
X178319348Y-129161894D02*
X178319348Y-130379933D01*
X178319348Y-127943854D02*
X178319348Y-129161894D01*
X178319348Y-126725814D02*
X178319348Y-127943854D01*
X178319348Y-125507775D02*
X178319348Y-126725814D01*
X178319348Y-124289735D02*
X178319348Y-125507775D01*
X177121844Y-135481211D02*
X176819348Y-135511658D01*
X177403500Y-135393876D02*
X177121844Y-135481211D01*
X243938471Y-21266190D02*
X240549319Y-20073847D01*
X245120000Y-22546755D02*
X243938471Y-21266190D01*
D11*
X187800000Y-60400000D02*
X186900000Y-60400000D01*
X190100000Y-60400000D02*
X191000000Y-59700000D01*
X191000000Y-59700000D02*
X191000000Y-61100000D01*
X191000000Y-61100000D02*
X190100000Y-60400000D01*
X190100000Y-59700000D02*
X190100000Y-61100000D01*
X219000000Y-61800000D02*
X218100000Y-61800000D01*
X221300000Y-61800000D02*
X222200000Y-61100000D01*
X222200000Y-61100000D02*
X222200000Y-62500000D01*
X222200000Y-62500000D02*
X221300000Y-61800000D01*
X221300000Y-61100000D02*
X221300000Y-62500000D01*
X111600000Y-61100000D02*
X110700000Y-61100000D01*
X113900000Y-61100000D02*
X114800000Y-60400000D01*
X114800000Y-60400000D02*
X114800000Y-61800000D01*
X114800000Y-61800000D02*
X113900000Y-61100000D01*
X113900000Y-60400000D02*
X113900000Y-61800000D01*
X132500000Y-58700000D02*
X131600000Y-58700000D01*
X134800000Y-58700000D02*
X135700000Y-58000000D01*
X135700000Y-58000000D02*
X135700000Y-59400000D01*
X135700000Y-59400000D02*
X134800000Y-58700000D01*
X134800000Y-58000000D02*
X134800000Y-59400000D01*
X149800000Y-57400000D02*
X148900000Y-57400000D01*
X152100000Y-57400000D02*
X153000000Y-56700000D01*
X153000000Y-56700000D02*
X153000000Y-58100000D01*
X153000000Y-58100000D02*
X152100000Y-57400000D01*
X152100000Y-56700000D02*
X152100000Y-58100000D01*
X168700000Y-58700000D02*
X167800000Y-58700000D01*
X171000000Y-58700000D02*
X171900000Y-58000000D01*
X171900000Y-58000000D02*
X171900000Y-59400000D01*
X171900000Y-59400000D02*
X171000000Y-58700000D01*
X171000000Y-58000000D02*
X171000000Y-59400000D01*
X187800000Y-63300000D02*
X186900000Y-63300000D01*
X190100000Y-63300000D02*
X191000000Y-62600000D01*
X191000000Y-62600000D02*
X191000000Y-64000000D01*
X191000000Y-64000000D02*
X190100000Y-63300000D01*
X190100000Y-62600000D02*
X190100000Y-64000000D01*
X219000000Y-64900000D02*
X218100000Y-64900000D01*
X221300000Y-64900000D02*
X222200000Y-64200000D01*
X222200000Y-64200000D02*
X222200000Y-65600000D01*
X222200000Y-65600000D02*
X221300000Y-64900000D01*
X221300000Y-64200000D02*
X221300000Y-65600000D01*
X115000000Y-93000000D02*
X114100000Y-93000000D01*
X117300000Y-93000000D02*
X118200000Y-92300000D01*
X118200000Y-92300000D02*
X118200000Y-93700000D01*
X118200000Y-93700000D02*
X117300000Y-93000000D01*
X117300000Y-92300000D02*
X117300000Y-93700000D01*
X136600000Y-89400000D02*
X135700000Y-89400000D01*
X138900000Y-89400000D02*
X139800000Y-88700000D01*
X139800000Y-88700000D02*
X139800000Y-90100000D01*
X139800000Y-90100000D02*
X138900000Y-89400000D01*
X138900000Y-88700000D02*
X138900000Y-90100000D01*
X149700000Y-92300000D02*
X148800000Y-92300000D01*
X152000000Y-92300000D02*
X152900000Y-91600000D01*
X152900000Y-91600000D02*
X152900000Y-93000000D01*
X152900000Y-93000000D02*
X152000000Y-92300000D01*
X152000000Y-91600000D02*
X152000000Y-93000000D01*
X168700000Y-93600000D02*
X167800000Y-93600000D01*
X171000000Y-93600000D02*
X171900000Y-92900000D01*
X171900000Y-92900000D02*
X171900000Y-94300000D01*
X171900000Y-94300000D02*
X171000000Y-93600000D01*
X171000000Y-92900000D02*
X171000000Y-94300000D01*
X187800000Y-98300000D02*
X186900000Y-98300000D01*
X190100000Y-98300000D02*
X191000000Y-97600000D01*
X191000000Y-97600000D02*
X191000000Y-99000000D01*
X191000000Y-99000000D02*
X190100000Y-98300000D01*
X190100000Y-97600000D02*
X190100000Y-99000000D01*
X212810000Y-96990000D02*
X211910000Y-96990000D01*
X215110000Y-96990000D02*
X216010000Y-96290000D01*
X216010000Y-96290000D02*
X216010000Y-97690000D01*
X216010000Y-97690000D02*
X215110000Y-96990000D01*
X215110000Y-96290000D02*
X215110000Y-97690000D01*
X117200000Y-98400000D02*
X116300000Y-98400000D01*
X119500000Y-98400000D02*
X120400000Y-97700000D01*
X120400000Y-97700000D02*
X120400000Y-99100000D01*
X120400000Y-99100000D02*
X119500000Y-98400000D01*
X119500000Y-97700000D02*
X119500000Y-99100000D01*
X137600000Y-96600000D02*
X136700000Y-96600000D01*
X139900000Y-96600000D02*
X140800000Y-95900000D01*
X140800000Y-95900000D02*
X140800000Y-97300000D01*
X140800000Y-97300000D02*
X139900000Y-96600000D01*
X139900000Y-95900000D02*
X139900000Y-97300000D01*
X149700000Y-95400000D02*
X148800000Y-95400000D01*
X152000000Y-95400000D02*
X152900000Y-94700000D01*
X152900000Y-94700000D02*
X152900000Y-96100000D01*
X152900000Y-96100000D02*
X152000000Y-95400000D01*
X152000000Y-94700000D02*
X152000000Y-96100000D01*
X168700000Y-96800000D02*
X167800000Y-96800000D01*
X171000000Y-96800000D02*
X171900000Y-96100000D01*
X171900000Y-96100000D02*
X171900000Y-97500000D01*
X171900000Y-97500000D02*
X171000000Y-96800000D01*
X171000000Y-96100000D02*
X171000000Y-97500000D01*
X187800000Y-101500000D02*
X186900000Y-101500000D01*
X190100000Y-101500000D02*
X191000000Y-100800000D01*
X191000000Y-100800000D02*
X191000000Y-102200000D01*
X191000000Y-102200000D02*
X190100000Y-101500000D01*
X190100000Y-100800000D02*
X190100000Y-102200000D01*
X213140000Y-102320000D02*
X212240000Y-102320000D01*
X215440000Y-102320000D02*
X216340000Y-101620000D01*
X216340000Y-101620000D02*
X216340000Y-103020000D01*
X216340000Y-103020000D02*
X215440000Y-102320000D01*
X215440000Y-101620000D02*
X215440000Y-103020000D01*
X92733300Y-125922286D02*
X92283300Y-125142863D01*
X93883300Y-127914144D02*
X94939518Y-128343567D01*
X94939518Y-128343567D02*
X93727082Y-129043567D01*
X93727082Y-129043567D02*
X93883300Y-127914144D01*
X94489518Y-127564144D02*
X93277082Y-128264144D01*
X232060000Y-100850000D02*
X231160000Y-100850000D01*
X234360000Y-100850000D02*
X235260000Y-100150000D01*
X235260000Y-100150000D02*
X235260000Y-101550000D01*
X235260000Y-101550000D02*
X234360000Y-100850000D01*
X234360000Y-100150000D02*
X234360000Y-101550000D01*
X232080000Y-97950000D02*
X231180000Y-97950000D01*
X234380000Y-97950000D02*
X235280000Y-97250000D01*
X235280000Y-97250000D02*
X235280000Y-98650000D01*
X235280000Y-98650000D02*
X234380000Y-97950000D01*
X234380000Y-97250000D02*
X234380000Y-98650000D01*
X231860000Y-63800000D02*
X230960000Y-63800000D01*
X234160000Y-63800000D02*
X235060000Y-63100000D01*
X235060000Y-63100000D02*
X235060000Y-64500000D01*
X235060000Y-64500000D02*
X234160000Y-63800000D01*
X234160000Y-63100000D02*
X234160000Y-64500000D01*
X231880000Y-60920000D02*
X230980000Y-60920000D01*
X234180000Y-60920000D02*
X235080000Y-60220000D01*
X235080000Y-60220000D02*
X235080000Y-61620000D01*
X235080000Y-61620000D02*
X234180000Y-60920000D01*
X234180000Y-60220000D02*
X234180000Y-61620000D01*
X231870000Y-41890000D02*
X230970000Y-41890000D01*
X234170000Y-41890000D02*
X235070000Y-41190000D01*
X235070000Y-41190000D02*
X235070000Y-42590000D01*
X235070000Y-42590000D02*
X234170000Y-41890000D01*
X234170000Y-41190000D02*
X234170000Y-42590000D01*
X212900000Y-40860000D02*
X212000000Y-40860000D01*
X215200000Y-40860000D02*
X216100000Y-40160000D01*
X216100000Y-40160000D02*
X216100000Y-41560000D01*
X216100000Y-41560000D02*
X215200000Y-40860000D01*
X215200000Y-40160000D02*
X215200000Y-41560000D01*
X193890000Y-37530000D02*
X192990000Y-37530000D01*
X196190000Y-37530000D02*
X197090000Y-36830000D01*
X197090000Y-36830000D02*
X197090000Y-38230000D01*
X197090000Y-38230000D02*
X196190000Y-37530000D01*
X196190000Y-36830000D02*
X196190000Y-38230000D01*
X174780000Y-34530000D02*
X173880000Y-34530000D01*
X177080000Y-34530000D02*
X177980000Y-33830000D01*
X177980000Y-33830000D02*
X177980000Y-35230000D01*
X177980000Y-35230000D02*
X177080000Y-34530000D01*
X177080000Y-33830000D02*
X177080000Y-35230000D01*
X155770000Y-31920000D02*
X154870000Y-31920000D01*
X158070000Y-31920000D02*
X158970000Y-31220000D01*
X158970000Y-31220000D02*
X158970000Y-32620000D01*
X158970000Y-32620000D02*
X158070000Y-31920000D01*
X158070000Y-31220000D02*
X158070000Y-32620000D01*
X147220000Y-30040000D02*
X146320000Y-30040000D01*
X149520000Y-30040000D02*
X150420000Y-29340000D01*
X150420000Y-29340000D02*
X150420000Y-30740000D01*
X150420000Y-30740000D02*
X149520000Y-30040000D01*
X149520000Y-29340000D02*
X149520000Y-30740000D01*
X127770000Y-31690000D02*
X126870000Y-31690000D01*
X130070000Y-31690000D02*
X130970000Y-30990000D01*
X130970000Y-30990000D02*
X130970000Y-32390000D01*
X130970000Y-32390000D02*
X130070000Y-31690000D01*
X130070000Y-30990000D02*
X130070000Y-32390000D01*
X159200000Y-115800000D02*
X158300000Y-115800000D01*
X161500000Y-115800000D02*
X162400000Y-115100000D01*
X162400000Y-115100000D02*
X162400000Y-116500000D01*
X162400000Y-116500000D02*
X161500000Y-115800000D01*
X161500000Y-115100000D02*
X161500000Y-116500000D01*
X140100000Y-115800000D02*
X139200000Y-115800000D01*
X142400000Y-115800000D02*
X143300000Y-115100000D01*
X143300000Y-115100000D02*
X143300000Y-116500000D01*
X143300000Y-116500000D02*
X142400000Y-115800000D01*
X142400000Y-115100000D02*
X142400000Y-116500000D01*
X121100000Y-118000000D02*
X120200000Y-118000000D01*
X123400000Y-118000000D02*
X124300000Y-117300000D01*
X124300000Y-117300000D02*
X124300000Y-118700000D01*
X124300000Y-118700000D02*
X123400000Y-118000000D01*
X123400000Y-117300000D02*
X123400000Y-118700000D01*
X108400000Y-116875129D02*
X107950000Y-116095706D01*
X109550000Y-118866987D02*
X110606218Y-119296410D01*
X110606218Y-119296410D02*
X109393782Y-119996410D01*
X109393782Y-119996410D02*
X109550000Y-118866987D01*
X110156218Y-118516987D02*
X108943782Y-119216987D01*
X102800000Y-89500000D02*
X101900000Y-89500000D01*
X105100000Y-89500000D02*
X106000000Y-88800000D01*
X106000000Y-88800000D02*
X106000000Y-90200000D01*
X106000000Y-90200000D02*
X105100000Y-89500000D01*
X105100000Y-88800000D02*
X105100000Y-90200000D01*
X168700000Y-55600000D02*
X167800000Y-55600000D01*
X171000000Y-55600000D02*
X171900000Y-54900000D01*
X171900000Y-54900000D02*
X171900000Y-56300000D01*
X171900000Y-56300000D02*
X171000000Y-55600000D01*
X171000000Y-54900000D02*
X171000000Y-56300000D01*
X149700000Y-54200000D02*
X148800000Y-54200000D01*
X152000000Y-54200000D02*
X152900000Y-53500000D01*
X152900000Y-53500000D02*
X152900000Y-54900000D01*
X152900000Y-54900000D02*
X152000000Y-54200000D01*
X152000000Y-53500000D02*
X152000000Y-54900000D01*
X131500000Y-55700000D02*
X130600000Y-55700000D01*
X133800000Y-55700000D02*
X134700000Y-55000000D01*
X134700000Y-55000000D02*
X134700000Y-56400000D01*
X134700000Y-56400000D02*
X133800000Y-55700000D01*
X133800000Y-55000000D02*
X133800000Y-56400000D01*
X111600000Y-58000000D02*
X110700000Y-58000000D01*
X113900000Y-58000000D02*
X114800000Y-57300000D01*
X114800000Y-57300000D02*
X114800000Y-58700000D01*
X114800000Y-58700000D02*
X113900000Y-58000000D01*
X113900000Y-57300000D02*
X113900000Y-58700000D01*
D16*
G36*
X84433464Y-105960427D02*
G01*
X84320882Y-106557618D01*
X83905469Y-106728865D01*
X83490055Y-106900112D01*
X82991698Y-106561233D01*
X82852131Y-106466877D01*
X82725971Y-106382630D01*
X82619104Y-106312338D01*
X82537417Y-106259847D01*
X82486798Y-106229004D01*
X82473013Y-106222353D01*
X82448179Y-106239458D01*
X82395111Y-106286744D01*
X82319759Y-106358172D01*
X82228070Y-106447700D01*
X82125992Y-106549289D01*
X82019473Y-106656898D01*
X81914463Y-106764487D01*
X81816908Y-106866015D01*
X81732757Y-106955441D01*
X81667959Y-107026726D01*
X81628462Y-107073828D01*
X81619019Y-107089592D01*
X81632608Y-107118653D01*
X81670706Y-107182321D01*
X81729306Y-107274367D01*
X81804402Y-107388564D01*
X81891991Y-107518684D01*
X81942745Y-107592901D01*
X82035254Y-107728422D01*
X82117459Y-107850716D01*
X82185369Y-107953695D01*
X82234999Y-108031273D01*
X82262359Y-108077361D01*
X82266470Y-108087047D01*
X82257150Y-108114574D01*
X82231745Y-108178728D01*
X82194088Y-108270490D01*
X82148013Y-108380839D01*
X82097353Y-108500755D01*
X82045940Y-108621219D01*
X81997610Y-108733209D01*
X81956193Y-108827707D01*
X81925525Y-108895692D01*
X81909438Y-108928143D01*
X81908488Y-108929420D01*
X81883227Y-108935617D01*
X81815954Y-108949440D01*
X81713639Y-108969532D01*
X81583258Y-108994534D01*
X81431783Y-109023086D01*
X81343406Y-109039551D01*
X81181547Y-109070369D01*
X81035350Y-109099694D01*
X80912212Y-109125921D01*
X80819530Y-109147446D01*
X80764698Y-109162665D01*
X80753676Y-109167493D01*
X80742881Y-109200174D01*
X80734170Y-109273985D01*
X80727539Y-109380292D01*
X80722981Y-109510467D01*
X80720490Y-109655876D01*
X80720061Y-109807890D01*
X80721688Y-109957877D01*
X80725364Y-110097206D01*
X80731084Y-110217245D01*
X80738842Y-110309365D01*
X80748631Y-110364932D01*
X80754503Y-110376500D01*
X80789600Y-110390365D01*
X80863971Y-110410188D01*
X80967776Y-110433639D01*
X81091180Y-110458391D01*
X81134258Y-110466398D01*
X81341952Y-110504441D01*
X81506015Y-110535079D01*
X81631869Y-110559529D01*
X81724934Y-110579009D01*
X81790632Y-110594736D01*
X81834382Y-110607928D01*
X81861607Y-110619804D01*
X81877727Y-110631580D01*
X81879982Y-110633908D01*
X81902496Y-110671400D01*
X81936841Y-110744365D01*
X81979588Y-110843867D01*
X82027307Y-110960973D01*
X82076569Y-111086748D01*
X82123944Y-111212257D01*
X82166004Y-111328565D01*
X82199319Y-111426739D01*
X82220458Y-111497843D01*
X82225994Y-111532942D01*
X82225533Y-111534172D01*
X82206776Y-111562861D01*
X82164223Y-111625985D01*
X82102346Y-111716973D01*
X82025617Y-111829255D01*
X81938508Y-111956260D01*
X81913701Y-111992353D01*
X81825247Y-112123203D01*
X81747411Y-112242591D01*
X81684433Y-112343662D01*
X81640554Y-112419559D01*
X81620014Y-112463427D01*
X81619019Y-112468817D01*
X81636277Y-112497144D01*
X81683964Y-112553261D01*
X81755949Y-112631137D01*
X81846102Y-112724740D01*
X81948294Y-112828041D01*
X82056394Y-112935006D01*
X82164271Y-113039606D01*
X82265795Y-113135809D01*
X82354837Y-113217584D01*
X82425266Y-113278900D01*
X82470952Y-113313726D01*
X82483590Y-113319412D01*
X82513008Y-113306020D01*
X82573238Y-113269899D01*
X82654470Y-113217136D01*
X82716969Y-113174667D01*
X82830214Y-113096740D01*
X82964325Y-113004984D01*
X83098844Y-112913375D01*
X83171166Y-112864346D01*
X83415961Y-112698770D01*
X83621449Y-112809875D01*
X83715063Y-112858548D01*
X83794669Y-112896381D01*
X83848532Y-112917958D01*
X83862242Y-112920961D01*
X83878729Y-112898793D01*
X83911254Y-112836149D01*
X83957391Y-112738809D01*
X84014709Y-112612549D01*
X84080783Y-112463150D01*
X84153184Y-112296388D01*
X84229483Y-112118042D01*
X84307253Y-111933891D01*
X84384065Y-111749712D01*
X84457493Y-111571285D01*
X84525107Y-111404387D01*
X84584479Y-111254797D01*
X84633183Y-111128293D01*
X84668789Y-111030654D01*
X84688869Y-110967657D01*
X84692099Y-110946021D01*
X84666503Y-110918424D01*
X84610461Y-110873625D01*
X84535688Y-110820934D01*
X84529412Y-110816765D01*
X84336154Y-110662069D01*
X84180325Y-110481591D01*
X84063275Y-110281102D01*
X83986354Y-110066374D01*
X83950913Y-109843177D01*
X83958302Y-109617281D01*
X84009872Y-109394459D01*
X84106973Y-109180479D01*
X84135541Y-109133664D01*
X84284131Y-108944618D01*
X84459672Y-108792812D01*
X84656089Y-108679034D01*
X84867306Y-108604075D01*
X85087246Y-108568722D01*
X85309836Y-108573767D01*
X85528998Y-108619999D01*
X85738657Y-108708206D01*
X85932738Y-108839179D01*
X85992773Y-108892337D01*
X86145564Y-109058739D01*
X86256902Y-109233912D01*
X86333276Y-109430266D01*
X86375812Y-109624717D01*
X86386313Y-109843342D01*
X86351299Y-110063052D01*
X86274326Y-110276420D01*
X86158952Y-110476022D01*
X86008734Y-110654429D01*
X85827226Y-110804217D01*
X85803372Y-110820006D01*
X85727798Y-110871712D01*
X85670348Y-110916512D01*
X85642882Y-110945117D01*
X85642482Y-110946021D01*
X85648379Y-110976964D01*
X85671754Y-111047191D01*
X85710178Y-111150925D01*
X85761222Y-111282390D01*
X85822457Y-111435807D01*
X85891455Y-111605401D01*
X85965786Y-111785393D01*
X86043021Y-111970008D01*
X86120731Y-112153468D01*
X86196488Y-112329996D01*
X86267862Y-112493814D01*
X86332425Y-112639147D01*
X86387747Y-112760217D01*
X86431399Y-112851247D01*
X86460953Y-112906460D01*
X86472855Y-112920961D01*
X86509222Y-112909669D01*
X86577269Y-112879385D01*
X86665263Y-112835520D01*
X86713649Y-112809875D01*
X86919136Y-112698770D01*
X87163931Y-112864346D01*
X87288893Y-112949170D01*
X87425704Y-113042516D01*
X87553911Y-113130408D01*
X87618128Y-113174667D01*
X87708448Y-113235318D01*
X87784928Y-113283381D01*
X87837592Y-113312770D01*
X87854697Y-113318982D01*
X87879594Y-113302223D01*
X87934694Y-113255436D01*
X88014656Y-113183480D01*
X88114139Y-113091212D01*
X88227799Y-112983490D01*
X88299684Y-112914326D01*
X88425448Y-112790757D01*
X88534136Y-112680234D01*
X88621354Y-112587485D01*
X88682710Y-112517237D01*
X88713808Y-112474220D01*
X88716791Y-112465490D01*
X88702946Y-112432284D01*
X88664687Y-112365142D01*
X88606258Y-112270863D01*
X88531902Y-112156245D01*
X88445864Y-112028083D01*
X88421397Y-111992353D01*
X88332245Y-111862489D01*
X88252261Y-111745569D01*
X88185919Y-111648162D01*
X88137688Y-111576839D01*
X88112042Y-111538170D01*
X88109564Y-111534172D01*
X88113270Y-111503355D01*
X88132938Y-111435599D01*
X88165139Y-111339839D01*
X88206444Y-111225009D01*
X88253424Y-111100044D01*
X88302650Y-110973879D01*
X88350691Y-110855448D01*
X88394118Y-110753685D01*
X88429503Y-110677526D01*
X88453415Y-110635904D01*
X88455115Y-110633908D01*
X88469737Y-110622013D01*
X88494434Y-110610250D01*
X88534627Y-110597401D01*
X88595736Y-110582249D01*
X88683182Y-110563576D01*
X88802387Y-110540165D01*
X88958772Y-110510797D01*
X89157756Y-110474255D01*
X89200839Y-110466398D01*
X89328529Y-110441727D01*
X89439846Y-110417593D01*
X89524954Y-110396324D01*
X89574016Y-110380248D01*
X89580594Y-110376500D01*
X89591435Y-110343273D01*
X89600246Y-110269021D01*
X89607023Y-110162376D01*
X89611759Y-110031967D01*
X89614449Y-109886427D01*
X89615086Y-109734386D01*
X89613665Y-109584476D01*
X89610179Y-109445328D01*
X89604623Y-109325572D01*
X89596991Y-109233841D01*
X89587277Y-109178766D01*
X89581421Y-109167493D01*
X89548819Y-109156123D01*
X89474581Y-109137624D01*
X89366103Y-109113602D01*
X89230782Y-109085662D01*
X89076014Y-109055408D01*
X88991692Y-109039551D01*
X88831703Y-109009644D01*
X88689032Y-108982550D01*
X88570651Y-108959631D01*
X88483534Y-108942243D01*
X88434654Y-108931747D01*
X88426609Y-108929420D01*
X88413012Y-108903186D01*
X88384270Y-108839995D01*
X88344214Y-108748877D01*
X88296675Y-108638857D01*
X88245484Y-108518965D01*
X88194473Y-108398227D01*
X88147473Y-108285671D01*
X88108315Y-108190326D01*
X88080830Y-108121217D01*
X88068850Y-108087374D01*
X88068627Y-108085895D01*
X88082208Y-108059197D01*
X88120284Y-107997760D01*
X88178852Y-107907689D01*
X88253911Y-107795090D01*
X88341459Y-107666070D01*
X88392352Y-107591961D01*
X88485090Y-107456077D01*
X88567458Y-107332709D01*
X88635438Y-107228097D01*
X88685011Y-107148483D01*
X88712157Y-107100107D01*
X88716078Y-107089262D01*
X88699224Y-107064020D01*
X88652631Y-107010124D01*
X88582251Y-106933613D01*
X88494034Y-106840523D01*
X88393934Y-106736895D01*
X88287901Y-106628764D01*
X88181888Y-106522170D01*
X88081847Y-106423150D01*
X87993729Y-106337742D01*
X87923486Y-106271985D01*
X87877071Y-106231916D01*
X87861543Y-106222353D01*
X87836260Y-106235800D01*
X87775788Y-106273575D01*
X87686007Y-106331835D01*
X87572796Y-106406734D01*
X87442036Y-106494425D01*
X87343400Y-106561233D01*
X86845042Y-106900112D01*
X86429629Y-106728865D01*
X86014215Y-106557618D01*
X85901633Y-105960427D01*
X85789050Y-105363235D01*
X84546047Y-105363235D01*
X84433464Y-105960427D01*
G37*
X84433464Y-105960427D02*
X84320882Y-106557618D01*
X83905469Y-106728865D01*
X83490055Y-106900112D01*
X82991698Y-106561233D01*
X82852131Y-106466877D01*
X82725971Y-106382630D01*
X82619104Y-106312338D01*
X82537417Y-106259847D01*
X82486798Y-106229004D01*
X82473013Y-106222353D01*
X82448179Y-106239458D01*
X82395111Y-106286744D01*
X82319759Y-106358172D01*
X82228070Y-106447700D01*
X82125992Y-106549289D01*
X82019473Y-106656898D01*
X81914463Y-106764487D01*
X81816908Y-106866015D01*
X81732757Y-106955441D01*
X81667959Y-107026726D01*
X81628462Y-107073828D01*
X81619019Y-107089592D01*
X81632608Y-107118653D01*
X81670706Y-107182321D01*
X81729306Y-107274367D01*
X81804402Y-107388564D01*
X81891991Y-107518684D01*
X81942745Y-107592901D01*
X82035254Y-107728422D01*
X82117459Y-107850716D01*
X82185369Y-107953695D01*
X82234999Y-108031273D01*
X82262359Y-108077361D01*
X82266470Y-108087047D01*
X82257150Y-108114574D01*
X82231745Y-108178728D01*
X82194088Y-108270490D01*
X82148013Y-108380839D01*
X82097353Y-108500755D01*
X82045940Y-108621219D01*
X81997610Y-108733209D01*
X81956193Y-108827707D01*
X81925525Y-108895692D01*
X81909438Y-108928143D01*
X81908488Y-108929420D01*
X81883227Y-108935617D01*
X81815954Y-108949440D01*
X81713639Y-108969532D01*
X81583258Y-108994534D01*
X81431783Y-109023086D01*
X81343406Y-109039551D01*
X81181547Y-109070369D01*
X81035350Y-109099694D01*
X80912212Y-109125921D01*
X80819530Y-109147446D01*
X80764698Y-109162665D01*
X80753676Y-109167493D01*
X80742881Y-109200174D01*
X80734170Y-109273985D01*
X80727539Y-109380292D01*
X80722981Y-109510467D01*
X80720490Y-109655876D01*
X80720061Y-109807890D01*
X80721688Y-109957877D01*
X80725364Y-110097206D01*
X80731084Y-110217245D01*
X80738842Y-110309365D01*
X80748631Y-110364932D01*
X80754503Y-110376500D01*
X80789600Y-110390365D01*
X80863971Y-110410188D01*
X80967776Y-110433639D01*
X81091180Y-110458391D01*
X81134258Y-110466398D01*
X81341952Y-110504441D01*
X81506015Y-110535079D01*
X81631869Y-110559529D01*
X81724934Y-110579009D01*
X81790632Y-110594736D01*
X81834382Y-110607928D01*
X81861607Y-110619804D01*
X81877727Y-110631580D01*
X81879982Y-110633908D01*
X81902496Y-110671400D01*
X81936841Y-110744365D01*
X81979588Y-110843867D01*
X82027307Y-110960973D01*
X82076569Y-111086748D01*
X82123944Y-111212257D01*
X82166004Y-111328565D01*
X82199319Y-111426739D01*
X82220458Y-111497843D01*
X82225994Y-111532942D01*
X82225533Y-111534172D01*
X82206776Y-111562861D01*
X82164223Y-111625985D01*
X82102346Y-111716973D01*
X82025617Y-111829255D01*
X81938508Y-111956260D01*
X81913701Y-111992353D01*
X81825247Y-112123203D01*
X81747411Y-112242591D01*
X81684433Y-112343662D01*
X81640554Y-112419559D01*
X81620014Y-112463427D01*
X81619019Y-112468817D01*
X81636277Y-112497144D01*
X81683964Y-112553261D01*
X81755949Y-112631137D01*
X81846102Y-112724740D01*
X81948294Y-112828041D01*
X82056394Y-112935006D01*
X82164271Y-113039606D01*
X82265795Y-113135809D01*
X82354837Y-113217584D01*
X82425266Y-113278900D01*
X82470952Y-113313726D01*
X82483590Y-113319412D01*
X82513008Y-113306020D01*
X82573238Y-113269899D01*
X82654470Y-113217136D01*
X82716969Y-113174667D01*
X82830214Y-113096740D01*
X82964325Y-113004984D01*
X83098844Y-112913375D01*
X83171166Y-112864346D01*
X83415961Y-112698770D01*
X83621449Y-112809875D01*
X83715063Y-112858548D01*
X83794669Y-112896381D01*
X83848532Y-112917958D01*
X83862242Y-112920961D01*
X83878729Y-112898793D01*
X83911254Y-112836149D01*
X83957391Y-112738809D01*
X84014709Y-112612549D01*
X84080783Y-112463150D01*
X84153184Y-112296388D01*
X84229483Y-112118042D01*
X84307253Y-111933891D01*
X84384065Y-111749712D01*
X84457493Y-111571285D01*
X84525107Y-111404387D01*
X84584479Y-111254797D01*
X84633183Y-111128293D01*
X84668789Y-111030654D01*
X84688869Y-110967657D01*
X84692099Y-110946021D01*
X84666503Y-110918424D01*
X84610461Y-110873625D01*
X84535688Y-110820934D01*
X84529412Y-110816765D01*
X84336154Y-110662069D01*
X84180325Y-110481591D01*
X84063275Y-110281102D01*
X83986354Y-110066374D01*
X83950913Y-109843177D01*
X83958302Y-109617281D01*
X84009872Y-109394459D01*
X84106973Y-109180479D01*
X84135541Y-109133664D01*
X84284131Y-108944618D01*
X84459672Y-108792812D01*
X84656089Y-108679034D01*
X84867306Y-108604075D01*
X85087246Y-108568722D01*
X85309836Y-108573767D01*
X85528998Y-108619999D01*
X85738657Y-108708206D01*
X85932738Y-108839179D01*
X85992773Y-108892337D01*
X86145564Y-109058739D01*
X86256902Y-109233912D01*
X86333276Y-109430266D01*
X86375812Y-109624717D01*
X86386313Y-109843342D01*
X86351299Y-110063052D01*
X86274326Y-110276420D01*
X86158952Y-110476022D01*
X86008734Y-110654429D01*
X85827226Y-110804217D01*
X85803372Y-110820006D01*
X85727798Y-110871712D01*
X85670348Y-110916512D01*
X85642882Y-110945117D01*
X85642482Y-110946021D01*
X85648379Y-110976964D01*
X85671754Y-111047191D01*
X85710178Y-111150925D01*
X85761222Y-111282390D01*
X85822457Y-111435807D01*
X85891455Y-111605401D01*
X85965786Y-111785393D01*
X86043021Y-111970008D01*
X86120731Y-112153468D01*
X86196488Y-112329996D01*
X86267862Y-112493814D01*
X86332425Y-112639147D01*
X86387747Y-112760217D01*
X86431399Y-112851247D01*
X86460953Y-112906460D01*
X86472855Y-112920961D01*
X86509222Y-112909669D01*
X86577269Y-112879385D01*
X86665263Y-112835520D01*
X86713649Y-112809875D01*
X86919136Y-112698770D01*
X87163931Y-112864346D01*
X87288893Y-112949170D01*
X87425704Y-113042516D01*
X87553911Y-113130408D01*
X87618128Y-113174667D01*
X87708448Y-113235318D01*
X87784928Y-113283381D01*
X87837592Y-113312770D01*
X87854697Y-113318982D01*
X87879594Y-113302223D01*
X87934694Y-113255436D01*
X88014656Y-113183480D01*
X88114139Y-113091212D01*
X88227799Y-112983490D01*
X88299684Y-112914326D01*
X88425448Y-112790757D01*
X88534136Y-112680234D01*
X88621354Y-112587485D01*
X88682710Y-112517237D01*
X88713808Y-112474220D01*
X88716791Y-112465490D01*
X88702946Y-112432284D01*
X88664687Y-112365142D01*
X88606258Y-112270863D01*
X88531902Y-112156245D01*
X88445864Y-112028083D01*
X88421397Y-111992353D01*
X88332245Y-111862489D01*
X88252261Y-111745569D01*
X88185919Y-111648162D01*
X88137688Y-111576839D01*
X88112042Y-111538170D01*
X88109564Y-111534172D01*
X88113270Y-111503355D01*
X88132938Y-111435599D01*
X88165139Y-111339839D01*
X88206444Y-111225009D01*
X88253424Y-111100044D01*
X88302650Y-110973879D01*
X88350691Y-110855448D01*
X88394118Y-110753685D01*
X88429503Y-110677526D01*
X88453415Y-110635904D01*
X88455115Y-110633908D01*
X88469737Y-110622013D01*
X88494434Y-110610250D01*
X88534627Y-110597401D01*
X88595736Y-110582249D01*
X88683182Y-110563576D01*
X88802387Y-110540165D01*
X88958772Y-110510797D01*
X89157756Y-110474255D01*
X89200839Y-110466398D01*
X89328529Y-110441727D01*
X89439846Y-110417593D01*
X89524954Y-110396324D01*
X89574016Y-110380248D01*
X89580594Y-110376500D01*
X89591435Y-110343273D01*
X89600246Y-110269021D01*
X89607023Y-110162376D01*
X89611759Y-110031967D01*
X89614449Y-109886427D01*
X89615086Y-109734386D01*
X89613665Y-109584476D01*
X89610179Y-109445328D01*
X89604623Y-109325572D01*
X89596991Y-109233841D01*
X89587277Y-109178766D01*
X89581421Y-109167493D01*
X89548819Y-109156123D01*
X89474581Y-109137624D01*
X89366103Y-109113602D01*
X89230782Y-109085662D01*
X89076014Y-109055408D01*
X88991692Y-109039551D01*
X88831703Y-109009644D01*
X88689032Y-108982550D01*
X88570651Y-108959631D01*
X88483534Y-108942243D01*
X88434654Y-108931747D01*
X88426609Y-108929420D01*
X88413012Y-108903186D01*
X88384270Y-108839995D01*
X88344214Y-108748877D01*
X88296675Y-108638857D01*
X88245484Y-108518965D01*
X88194473Y-108398227D01*
X88147473Y-108285671D01*
X88108315Y-108190326D01*
X88080830Y-108121217D01*
X88068850Y-108087374D01*
X88068627Y-108085895D01*
X88082208Y-108059197D01*
X88120284Y-107997760D01*
X88178852Y-107907689D01*
X88253911Y-107795090D01*
X88341459Y-107666070D01*
X88392352Y-107591961D01*
X88485090Y-107456077D01*
X88567458Y-107332709D01*
X88635438Y-107228097D01*
X88685011Y-107148483D01*
X88712157Y-107100107D01*
X88716078Y-107089262D01*
X88699224Y-107064020D01*
X88652631Y-107010124D01*
X88582251Y-106933613D01*
X88494034Y-106840523D01*
X88393934Y-106736895D01*
X88287901Y-106628764D01*
X88181888Y-106522170D01*
X88081847Y-106423150D01*
X87993729Y-106337742D01*
X87923486Y-106271985D01*
X87877071Y-106231916D01*
X87861543Y-106222353D01*
X87836260Y-106235800D01*
X87775788Y-106273575D01*
X87686007Y-106331835D01*
X87572796Y-106406734D01*
X87442036Y-106494425D01*
X87343400Y-106561233D01*
X86845042Y-106900112D01*
X86429629Y-106728865D01*
X86014215Y-106557618D01*
X85901633Y-105960427D01*
X85789050Y-105363235D01*
X84546047Y-105363235D01*
X84433464Y-105960427D01*
D10*
G36*
X94110350Y-85762800D02*
G01*
X94409990Y-85758273D01*
X94340000Y-85720000D01*
X94110350Y-85762800D01*
G37*
X94110350Y-85762800D02*
X94409990Y-85758273D01*
X94340000Y-85720000D01*
X94110350Y-85762800D01*
D17*
X99100580Y-82779480D02*
X99139250Y-82700970D01*
X99519200Y-85033140D02*
X99452870Y-84972090D01*
X99734540Y-85194120D02*
X99660200Y-85144140D01*
X98920311Y-83731260D02*
X98917520Y-83644170D01*
X98917520Y-83644170D02*
X98917520Y-83615130D01*
X99034400Y-82940670D02*
X99065600Y-82859430D01*
X99900140Y-81944190D02*
X99988640Y-81902250D01*
X99658040Y-82092900D02*
X99734810Y-82039680D01*
X99585080Y-82149480D02*
X99658040Y-82092900D01*
X98933870Y-83359980D02*
X98946620Y-83275050D01*
X99660200Y-85144140D02*
X99588350Y-85090500D01*
X99045500Y-84351240D02*
X99012560Y-84257100D01*
X99082820Y-84441720D02*
X99045500Y-84351240D01*
X99124370Y-84528510D02*
X99082820Y-84441720D01*
X99169940Y-84611670D02*
X99124370Y-84528510D01*
X99811160Y-85240380D02*
X99734540Y-85194120D01*
X99219440Y-84691110D02*
X99169940Y-84611670D01*
X99988640Y-81902250D02*
X100081070Y-81864480D01*
X99815540Y-81990060D02*
X99900140Y-81944190D01*
X99734810Y-82039680D02*
X99815540Y-81990060D01*
X99277910Y-82476330D02*
X99331700Y-82405710D01*
X98928560Y-83843760D02*
X98920311Y-83731260D01*
X99515930Y-82209210D02*
X99585080Y-82149480D01*
X99450710Y-82271970D02*
X99515930Y-82209210D01*
X98960690Y-84057750D02*
X98942060Y-83952600D01*
X99389270Y-82337550D02*
X99450710Y-82271970D01*
X99065600Y-82859430D02*
X99100580Y-82779480D01*
X98917520Y-83615130D02*
X98917520Y-83593890D01*
X99331700Y-82405710D02*
X99389270Y-82337550D01*
X99588350Y-85090500D02*
X99519200Y-85033140D01*
X98983100Y-83106390D02*
X99006890Y-83023080D01*
X99139250Y-82700970D02*
X99181700Y-82624170D01*
X99272660Y-84766860D02*
X99219440Y-84691110D01*
X99452870Y-84972090D02*
X99389540Y-84907380D01*
X99012560Y-84257100D02*
X98984270Y-84159271D01*
X98917520Y-83593890D02*
X98919350Y-83530230D01*
X98942060Y-83952600D02*
X98928560Y-83843760D01*
X99389540Y-84907380D02*
X99329390Y-84838980D01*
X98919350Y-83530230D02*
X98924780Y-83445090D01*
X99006890Y-83023080D02*
X99034400Y-82940670D01*
X99227900Y-82549260D02*
X99277910Y-82476330D01*
X98963030Y-83190420D02*
X98983100Y-83106390D01*
X98924780Y-83445090D02*
X98933870Y-83359980D01*
X98946620Y-83275050D02*
X98963030Y-83190420D01*
X98984270Y-84159271D02*
X98960690Y-84057750D01*
X99329390Y-84838980D02*
X99272660Y-84766860D01*
X99181700Y-82624170D02*
X99227900Y-82549260D01*
X100826001Y-85507221D02*
X100757780Y-85505346D01*
X99789980Y-83591670D02*
X99789980Y-83615130D01*
X100063250Y-82908750D02*
X100000490Y-82985580D01*
X100799120Y-82576170D02*
X100709180Y-82582350D01*
X100667060Y-85499778D02*
X100576790Y-85490521D01*
X100576790Y-85490521D02*
X100487060Y-85477533D01*
X100223150Y-85416348D02*
X100137530Y-85388565D01*
X100310121Y-85440453D02*
X100223150Y-85416348D01*
X100398110Y-85460850D02*
X100310121Y-85440453D01*
X99807710Y-83427390D02*
X99794450Y-83521350D01*
X99898700Y-83153340D02*
X99860000Y-83242560D01*
X100297040Y-82716750D02*
X100211690Y-82773510D01*
X101274020Y-82675920D02*
X101186900Y-82639920D01*
X101706890Y-83063460D02*
X101650070Y-82978290D01*
X100489280Y-82629330D02*
X100389650Y-82668420D01*
X101186900Y-82639920D02*
X101097890Y-82611960D01*
X101848580Y-83583360D02*
X101842310Y-83487930D01*
X101794730Y-83975250D02*
X101824070Y-83863830D01*
X101848580Y-83647290D02*
X101848580Y-83615130D01*
X101439140Y-82772310D02*
X101358440Y-82720050D01*
X101182730Y-84598650D02*
X101270870Y-84562500D01*
X100487060Y-85477533D02*
X100398110Y-85460850D01*
X101356040Y-84518190D02*
X101437400Y-84465690D01*
X99789980Y-83615130D02*
X99789980Y-83615130D01*
X101842310Y-83743800D02*
X101848580Y-83647290D01*
X100848680Y-85507221D02*
X100826001Y-85507221D01*
X100829060Y-82576170D02*
X100799120Y-82576170D01*
X100918070Y-82580130D02*
X100851320Y-82576170D01*
X101515280Y-82832730D02*
X101439140Y-82772310D01*
X101824070Y-83369190D02*
X101794820Y-83258880D01*
X101794820Y-83258880D02*
X101755430Y-83157000D01*
X101437400Y-84465690D02*
X101514080Y-84404910D01*
X101514080Y-84404910D02*
X101585060Y-84335791D01*
X99829610Y-83334180D02*
X99807710Y-83427390D01*
X101585900Y-82901400D02*
X101515280Y-82832730D01*
X99794450Y-83521350D02*
X99789980Y-83591670D01*
X99945620Y-83067390D02*
X99898700Y-83153340D01*
X101092640Y-84626670D02*
X101182730Y-84598650D01*
X100133690Y-82837800D02*
X100063250Y-82908750D01*
X101755430Y-83157000D02*
X101706890Y-83063460D01*
X100709180Y-82582350D02*
X100595870Y-82600350D01*
X101842310Y-83487930D02*
X101824070Y-83369190D01*
X101007981Y-82592040D02*
X100918070Y-82580130D01*
X101585060Y-84335791D02*
X101649560Y-84258330D01*
X101848580Y-83615130D02*
X101848580Y-83583360D01*
X100389650Y-82668420D02*
X100297040Y-82716750D01*
X101650070Y-82978290D02*
X101585900Y-82901400D01*
X101824070Y-83863830D02*
X101842310Y-83743800D01*
X100000490Y-82985580D02*
X99945620Y-83067390D01*
X99890000Y-85282980D02*
X99811160Y-85240380D01*
X99970790Y-85321866D02*
X99890000Y-85282980D01*
X100053320Y-85357053D02*
X99970790Y-85321866D01*
X100137530Y-85388565D02*
X100053320Y-85357053D01*
X100757780Y-85505346D02*
X100667060Y-85499778D01*
X100595870Y-82600350D02*
X100489280Y-82629330D01*
X99860000Y-83242560D02*
X99829610Y-83334180D01*
X100211690Y-82773510D02*
X100133690Y-82837800D01*
X101097890Y-82611960D02*
X101007981Y-82592040D01*
X101755280Y-84078150D02*
X101794730Y-83975250D01*
X101706620Y-84172440D02*
X101755280Y-84078150D01*
X101270870Y-84562500D02*
X101356040Y-84518190D01*
X101649560Y-84258330D02*
X101706620Y-84172440D01*
X101358440Y-82720050D02*
X101274020Y-82675920D01*
X100851320Y-82576170D02*
X100829060Y-82576170D01*
X100586480Y-84637950D02*
X100699490Y-84656250D01*
X103364600Y-84782970D02*
X103459160Y-84827910D01*
X100289540Y-84519990D02*
X100381370Y-84568950D01*
X100205000Y-84462510D02*
X100289540Y-84519990D01*
X103187690Y-84662850D02*
X103273850Y-84727980D01*
X102760250Y-83654610D02*
X102766640Y-83773020D01*
X100058360Y-84325710D02*
X100127870Y-84397500D01*
X102855980Y-83054610D02*
X102815360Y-83179830D01*
X99896450Y-84078900D02*
X99942500Y-84165540D01*
X99858440Y-83989020D02*
X99896450Y-84078900D01*
X103459160Y-84827910D02*
X103556660Y-84862770D01*
X104985501Y-83615130D02*
X104985501Y-83615130D01*
X103107020Y-84587550D02*
X103187690Y-84662850D01*
X102815360Y-84057480D02*
X102855980Y-84184080D01*
X99807290Y-83803230D02*
X99828710Y-83896860D01*
X102766640Y-83460090D02*
X102760250Y-83576400D01*
X104883770Y-84184080D02*
X104926820Y-84057480D01*
X104536520Y-84662850D02*
X104620310Y-84587550D01*
X104768390Y-84406380D02*
X104830640Y-84300390D01*
X99794330Y-83709000D02*
X99807290Y-83803230D01*
X104978660Y-83773020D02*
X104985501Y-83654610D01*
X103032710Y-84502080D02*
X103107020Y-84587550D01*
X103883150Y-84907500D02*
X103958060Y-84902520D01*
X104697950Y-84502080D02*
X104768390Y-84406380D01*
X102766640Y-83773020D02*
X102785331Y-83920440D01*
X103858160Y-84907500D02*
X103883150Y-84907500D01*
X102785331Y-83920440D02*
X102815360Y-84057480D01*
X103273850Y-84727980D02*
X103364600Y-84782970D01*
X102815360Y-83179830D02*
X102785331Y-83315010D01*
X104958770Y-83920440D02*
X104978660Y-83773020D01*
X104058620Y-84887640D02*
X104158790Y-84862770D01*
X103958060Y-84902520D02*
X104058620Y-84887640D01*
X102965480Y-84406380D02*
X103032710Y-84502080D01*
X99789980Y-83638590D02*
X99794330Y-83709000D01*
X103656200Y-84887640D02*
X103757000Y-84902520D01*
X101001440Y-84646620D02*
X101092640Y-84626670D01*
X100841991Y-84662550D02*
X100910000Y-84658560D01*
X100699490Y-84656250D02*
X100789310Y-84662550D01*
X100381370Y-84568950D02*
X100480400Y-84608581D01*
X104985501Y-83654610D02*
X104985501Y-83615130D01*
X99996530Y-84248100D02*
X100058360Y-84325710D01*
X104926820Y-84057480D02*
X104958770Y-83920440D01*
X99789980Y-83615130D02*
X99789980Y-83638590D01*
X104158790Y-84862770D02*
X104257640Y-84827910D01*
X104830640Y-84300390D02*
X104883770Y-84184080D01*
X104620310Y-84587550D02*
X104697950Y-84502080D01*
X103556660Y-84862770D02*
X103656200Y-84887640D01*
X102760250Y-83615130D02*
X102760250Y-83654610D01*
X102785331Y-83315010D02*
X102766640Y-83460090D01*
X100910000Y-84658560D02*
X101001440Y-84646620D01*
X102906320Y-84300390D02*
X102965480Y-84406380D01*
X100819280Y-84662550D02*
X100841991Y-84662550D01*
X100480400Y-84608581D02*
X100586480Y-84637950D01*
X103757000Y-84902520D02*
X103832870Y-84907500D01*
X102760250Y-83576400D02*
X102760250Y-83615130D01*
X100789310Y-84662550D02*
X100819280Y-84662550D01*
X100127870Y-84397500D02*
X100205000Y-84462510D01*
X99942500Y-84165540D02*
X99996530Y-84248100D01*
X102855980Y-84184080D02*
X102906320Y-84300390D01*
X104447480Y-84727980D02*
X104536520Y-84662850D01*
X104354180Y-84782970D02*
X104447480Y-84727980D01*
X104257640Y-84827910D02*
X104354180Y-84782970D01*
X99828710Y-83896860D02*
X99858440Y-83989020D01*
X103832870Y-84907500D02*
X103858160Y-84907500D01*
X95643650Y-78096180D02*
X95749311Y-78134040D01*
X95377790Y-77930790D02*
X95457890Y-77993790D01*
X95053850Y-76956630D02*
X95041280Y-77051761D01*
X95142020Y-76682460D02*
X95104250Y-76771230D01*
X95037080Y-77123520D02*
X95037080Y-77147430D01*
X95037080Y-77147430D02*
X95037080Y-77171730D01*
X103858160Y-82331220D02*
X103832870Y-82331220D01*
X95053850Y-77341020D02*
X95074820Y-77435941D01*
X103032710Y-82738590D02*
X102965480Y-82833960D01*
X103187690Y-82577850D02*
X103107020Y-82653270D01*
X103273850Y-82512510D02*
X103187690Y-82577850D01*
X103459160Y-82411830D02*
X103364600Y-82457130D01*
X95457890Y-77993790D02*
X95546540Y-78049171D01*
X95377790Y-76371840D02*
X95306150Y-76441290D01*
X95546540Y-76253940D02*
X95457890Y-76309140D01*
X104257640Y-82411830D02*
X104158790Y-82376610D01*
X95243000Y-76516710D02*
X95188280Y-76597380D01*
X97121450Y-78593760D02*
X97121450Y-78593760D01*
X104985501Y-83576400D02*
X104978660Y-83460090D01*
X97121450Y-78185400D02*
X97121450Y-78593760D01*
X104985501Y-83615130D02*
X104985501Y-83576400D01*
X95306150Y-77861010D02*
X95377790Y-77930790D01*
X96117560Y-78185400D02*
X97121450Y-78185400D01*
X102906320Y-82939290D02*
X102855980Y-83054610D01*
X95104250Y-76771230D02*
X95074820Y-76862850D01*
X102965480Y-82833960D02*
X102906320Y-82939290D01*
X103107020Y-82653270D02*
X103032710Y-82738590D01*
X95074820Y-76862850D02*
X95053850Y-76956630D01*
X104830640Y-82939290D02*
X104768390Y-82833960D01*
X103364600Y-82457130D02*
X103273850Y-82512510D01*
X103556660Y-82376610D02*
X103459160Y-82411830D01*
X103656200Y-82351381D02*
X103556660Y-82376610D01*
X103832870Y-82331220D02*
X103757000Y-82336260D01*
X104926820Y-83179830D02*
X104883770Y-83054610D01*
X95306150Y-76441290D02*
X95243000Y-76516710D01*
X104620310Y-82653270D02*
X104536520Y-82577850D01*
X95243000Y-77785080D02*
X95306150Y-77861010D01*
X95037080Y-77171730D02*
X95041280Y-77244600D01*
X103958060Y-82336260D02*
X103883150Y-82331220D01*
X95188280Y-76597380D02*
X95142020Y-76682460D01*
X95546540Y-78049171D02*
X95643650Y-78096180D01*
X103757000Y-82336260D02*
X103656200Y-82351381D01*
X104536520Y-82577850D02*
X104447480Y-82512510D01*
X96084740Y-78185400D02*
X96117560Y-78185400D01*
X95749311Y-78134040D02*
X95863520Y-78162060D01*
X104978660Y-83460090D02*
X104958770Y-83315010D01*
X95457890Y-76309140D02*
X95377790Y-76371840D01*
X95041280Y-77244600D02*
X95053850Y-77341020D01*
X95074820Y-77435941D02*
X95104250Y-77528550D01*
X104883770Y-83054610D02*
X104830640Y-82939290D01*
X95863520Y-78162060D02*
X95986250Y-78179430D01*
X104447480Y-82512510D02*
X104354180Y-82457130D01*
X95104250Y-77528550D02*
X95142020Y-77618130D01*
X103883150Y-82331220D02*
X103858160Y-82331220D01*
X104058620Y-82351381D02*
X103958060Y-82336260D01*
X104158790Y-82376610D02*
X104058620Y-82351381D01*
X104354180Y-82457130D02*
X104257640Y-82411830D01*
X104697950Y-82738590D02*
X104620310Y-82653270D01*
X95041280Y-77051761D02*
X95037080Y-77123520D01*
X104768390Y-82833960D02*
X104697950Y-82738590D01*
X104958770Y-83315010D02*
X104926820Y-83179830D01*
X95986250Y-78179430D02*
X96084740Y-78185400D01*
X95188280Y-77703901D02*
X95243000Y-77785080D01*
X95142020Y-77618130D02*
X95188280Y-77703901D01*
X98286981Y-81205590D02*
X97436240Y-81205590D01*
X94208120Y-76794810D02*
X94225160Y-76707810D01*
X98286981Y-75250230D02*
X98286981Y-81205590D01*
X96087740Y-75250230D02*
X96117560Y-75250230D01*
X94185410Y-76970520D02*
X94194861Y-76882380D01*
X94329321Y-77906941D02*
X94274870Y-77762100D01*
X95998250Y-75252960D02*
X96087740Y-75250230D01*
X94908140Y-78636270D02*
X94781810Y-78535560D01*
X95662940Y-75293010D02*
X95770910Y-75274560D01*
X94225160Y-76707810D02*
X94245980Y-76621680D01*
X95358410Y-78873090D02*
X95196500Y-78805890D01*
X95670980Y-78959880D02*
X95532140Y-78927420D01*
X94179710Y-77058900D02*
X94185410Y-76970520D01*
X94202120Y-77460151D02*
X94183910Y-77304720D01*
X95717690Y-78968040D02*
X95670980Y-78959880D01*
X94564910Y-78306600D02*
X94474400Y-78180000D01*
X95179910Y-75454980D02*
X95268890Y-75413850D01*
X94791560Y-75716880D02*
X94861641Y-75657540D01*
X95013200Y-75548970D02*
X95094650Y-75500040D01*
X95458370Y-75344400D02*
X95558750Y-75316350D01*
X95361740Y-75376920D02*
X95458370Y-75344400D01*
X94177820Y-77125290D02*
X94179710Y-77058900D01*
X94407020Y-76209600D02*
X94450610Y-76132140D01*
X94935530Y-75601500D02*
X95013200Y-75548970D01*
X94274870Y-77762100D02*
X94232450Y-77612880D01*
X94367240Y-76288920D02*
X94407020Y-76209600D01*
X94232450Y-77612880D02*
X94202120Y-77460151D01*
X94194861Y-76882380D02*
X94208120Y-76794810D01*
X94781810Y-78535560D02*
X94667390Y-78425400D01*
X94497950Y-76056750D02*
X94549100Y-75983610D01*
X95532140Y-78927420D02*
X95358410Y-78873090D01*
X94450610Y-76132140D02*
X94497950Y-76056750D01*
X94177820Y-77147430D02*
X94177820Y-77125290D01*
X95882690Y-75261150D02*
X95998250Y-75252960D01*
X94270610Y-76536540D02*
X94299020Y-76452600D01*
X95643650Y-76207050D02*
X95546540Y-76253940D01*
X95749311Y-76169250D02*
X95643650Y-76207050D01*
X95863520Y-76141290D02*
X95749311Y-76169250D01*
X97436240Y-76118010D02*
X96117560Y-76118010D01*
X95558750Y-75316350D02*
X95662940Y-75293010D01*
X95770910Y-75274560D02*
X95882690Y-75261150D01*
X95268890Y-75413850D02*
X95361740Y-75376920D01*
X95094650Y-75500040D02*
X95179910Y-75454980D01*
X94549100Y-75983610D02*
X94604030Y-75912840D01*
X94861641Y-75657540D02*
X94935530Y-75601500D01*
X94245980Y-76621680D02*
X94270610Y-76536540D01*
X95046410Y-78726690D02*
X94908140Y-78636270D01*
X94395860Y-78046500D02*
X94329321Y-77906941D01*
X94667390Y-78425400D02*
X94564910Y-78306600D01*
X94177820Y-77186760D02*
X94177820Y-77147430D01*
X95196500Y-78805890D02*
X95046410Y-78726690D01*
X93837530Y-81205590D02*
X95717690Y-78968040D01*
X95986250Y-76123980D02*
X95863520Y-76141290D01*
X94299020Y-76452600D02*
X94331270Y-76370010D01*
X94474400Y-78180000D02*
X94395860Y-78046500D01*
X96084740Y-76118010D02*
X95986250Y-76123980D01*
X96117560Y-76118010D02*
X96084740Y-76118010D01*
X97436240Y-81205590D02*
X97436240Y-76118010D01*
X94183910Y-77304720D02*
X94177820Y-77186760D01*
X94725290Y-75779310D02*
X94791560Y-75716880D01*
X94662740Y-75844710D02*
X94725290Y-75779310D01*
X94604030Y-75912840D02*
X94662740Y-75844710D01*
X96117560Y-75250230D02*
X98286981Y-75250230D01*
X94331270Y-76370010D02*
X94367240Y-76288920D01*
X101750060Y-75254460D02*
X100669610Y-75254460D01*
X94952030Y-81205590D02*
X93837530Y-81205590D01*
X97121450Y-78593760D02*
X94952030Y-81205590D01*
X98593730Y-78444840D02*
X98593730Y-78444840D01*
X105125480Y-78637170D02*
X105125480Y-78637170D01*
X98593730Y-78010980D02*
X98593730Y-78444840D01*
X105125480Y-78637170D02*
X102428570Y-78637170D01*
X100669610Y-75254460D02*
X98593730Y-78010980D01*
X99478520Y-78206640D02*
X101750060Y-75254460D01*
X101988290Y-81201330D02*
X99478520Y-78206640D01*
X102369020Y-76093380D02*
X102369020Y-75234090D01*
X100865270Y-81201330D02*
X101988290Y-81201330D01*
X105993290Y-81180960D02*
X102360501Y-81180960D01*
X105125480Y-77769390D02*
X105125480Y-76093380D01*
X98593730Y-78444840D02*
X100865270Y-81201330D01*
X102360501Y-80321670D02*
X105125480Y-80321670D01*
X102428570Y-78637170D02*
X102428570Y-77769390D01*
X102360501Y-81180960D02*
X102360501Y-80321670D01*
X105125480Y-76093380D02*
X102369020Y-76093380D01*
X105125480Y-80321670D02*
X105125480Y-78637170D01*
X105993290Y-75234090D02*
X105993290Y-81180960D01*
X102369020Y-75234090D02*
X105993290Y-75234090D01*
X102428570Y-77769390D02*
X105125480Y-77769390D01*
X104719580Y-81656340D02*
X104807990Y-81696090D01*
X101186270Y-81762630D02*
X101283200Y-81782430D01*
X104629070Y-81620760D02*
X104719580Y-81656340D01*
X104050820Y-81494940D02*
X104150600Y-81505440D01*
X101002490Y-81738540D02*
X101092370Y-81748171D01*
X100277750Y-81802020D02*
X100382000Y-81777750D01*
X102041810Y-82198500D02*
X102119060Y-82290900D01*
X104536610Y-81589350D02*
X104629070Y-81620760D01*
X103275620Y-81589170D02*
X103389140Y-81552390D01*
X103163570Y-81633960D02*
X103275620Y-81589170D01*
X101283200Y-81782430D02*
X101382020Y-81808081D01*
X104442410Y-81562080D02*
X104536610Y-81589350D01*
X100917650Y-81733140D02*
X101002490Y-81738540D01*
X100602500Y-81744090D02*
X100718690Y-81735060D01*
X102842540Y-81815760D02*
X102946520Y-81747300D01*
X101958290Y-82116331D02*
X102041810Y-82198500D01*
X104346560Y-81539010D02*
X104442410Y-81562080D01*
X103733930Y-81490680D02*
X103819791Y-81486510D01*
X103618910Y-81503040D02*
X103733930Y-81490680D01*
X103389140Y-81552390D02*
X103503771Y-81523651D01*
X103053740Y-81686670D02*
X103163570Y-81633960D01*
X100858580Y-81731460D02*
X100917650Y-81733140D01*
X102946520Y-81747300D02*
X103053740Y-81686670D01*
X102250490Y-82508580D02*
X102265940Y-82477680D01*
X100382000Y-81777750D02*
X100490240Y-81758400D01*
X101776280Y-81980580D02*
X101869400Y-82043880D01*
X100490240Y-81758400D02*
X100602500Y-81744090D01*
X101092370Y-81748171D02*
X101186270Y-81762630D01*
X102236600Y-82479270D02*
X102250490Y-82508580D01*
X102316700Y-82387140D02*
X102389960Y-82273080D01*
X105421100Y-82163550D02*
X105483650Y-82240560D01*
X105213140Y-81957181D02*
X105285740Y-82021860D01*
X100838900Y-81731460D02*
X100858580Y-81731460D01*
X103848350Y-81486510D02*
X103873790Y-81486510D01*
X101481770Y-81840210D02*
X101581430Y-81879300D01*
X104894150Y-81740010D02*
X104977910Y-81788100D01*
X104249240Y-81520140D02*
X104346560Y-81539010D01*
X103503771Y-81523651D02*
X103618910Y-81503040D01*
X104150600Y-81505440D02*
X104249240Y-81520140D01*
X103819791Y-81486510D02*
X103848350Y-81486510D01*
X102555321Y-82067401D02*
X102646370Y-81975840D01*
X101869400Y-82043880D02*
X101958290Y-82116331D01*
X103950020Y-81488640D02*
X104050820Y-81494940D01*
X102646370Y-81975840D02*
X102742280Y-81891960D01*
X102265940Y-82477680D02*
X102316700Y-82387140D01*
X102742280Y-81891960D02*
X102842540Y-81815760D01*
X101382020Y-81808081D02*
X101481770Y-81840210D01*
X100177460Y-81831000D02*
X100277750Y-81802020D01*
X103873790Y-81486510D02*
X103950020Y-81488640D01*
X102469640Y-82166460D02*
X102555321Y-82067401D01*
X100808870Y-81731670D02*
X100838900Y-81731460D01*
X102188990Y-82394040D02*
X102236600Y-82479270D01*
X102119060Y-82290900D02*
X102188990Y-82394040D01*
X101581430Y-81879300D02*
X101679980Y-81925920D01*
X100081070Y-81864480D02*
X100177460Y-81831000D01*
X105355070Y-82090650D02*
X105421100Y-82163550D01*
X105285740Y-82021860D02*
X105355070Y-82090650D01*
X102389960Y-82273080D02*
X102469640Y-82166460D01*
X100718690Y-81735060D02*
X100808870Y-81731670D01*
X105137570Y-81896670D02*
X105213140Y-81957181D01*
X105059060Y-81840300D02*
X105137570Y-81896670D01*
X104977910Y-81788100D02*
X105059060Y-81840300D01*
X104807990Y-81696090D02*
X104894150Y-81740010D01*
X101679980Y-81925920D02*
X101776280Y-81980580D01*
X94224620Y-81528720D02*
X94292660Y-82388010D01*
X93561860Y-81705300D02*
X93651500Y-81670710D01*
X92927330Y-82095301D02*
X92997500Y-82035480D01*
X94292660Y-82388010D02*
X94292660Y-82388010D01*
X94125500Y-81544650D02*
X94199780Y-81532290D01*
X93305450Y-81827880D02*
X93388700Y-81783841D01*
X92735390Y-82293900D02*
X92796140Y-82224510D01*
X93146240Y-81925350D02*
X93224570Y-81875010D01*
X92293370Y-83604600D02*
X92293370Y-83575890D01*
X92796140Y-82224510D02*
X92860190Y-82158300D01*
X93836330Y-81610920D02*
X93931250Y-81585720D01*
X92624030Y-82442310D02*
X92678000Y-82366500D01*
X92573690Y-82521360D02*
X92624030Y-82442310D01*
X92380430Y-82964940D02*
X92410910Y-82869720D01*
X92527100Y-82603590D02*
X92573690Y-82521360D01*
X92445560Y-82777770D02*
X92484350Y-82689060D01*
X92484350Y-82689060D02*
X92527100Y-82603590D01*
X92293370Y-83575890D02*
X92295890Y-83489790D01*
X92354360Y-83063340D02*
X92380430Y-82964940D01*
X92860190Y-82158300D02*
X92927330Y-82095301D01*
X92315690Y-83270040D02*
X92332730Y-83165040D01*
X94027640Y-81563640D02*
X94125500Y-81544650D01*
X92410910Y-82869720D02*
X92445560Y-82777770D01*
X93743030Y-81639270D02*
X93836330Y-81610920D01*
X92300540Y-83811150D02*
X92293370Y-83656260D01*
X94199780Y-81532290D02*
X94224620Y-81528720D01*
X92997500Y-82035480D02*
X93070490Y-81978810D01*
X92295890Y-83489790D02*
X92303360Y-83378250D01*
X93224570Y-81875010D02*
X93305450Y-81827880D01*
X92303360Y-83378250D02*
X92315690Y-83270040D01*
X93474200Y-81743010D02*
X93561860Y-81705300D01*
X93651500Y-81670710D02*
X93743030Y-81639270D01*
X93070490Y-81978810D02*
X93146240Y-81925350D01*
X92678000Y-82366500D02*
X92735390Y-82293900D01*
X92321450Y-84007980D02*
X92300540Y-83811150D01*
X92332730Y-83165040D02*
X92354360Y-83063340D01*
X92293370Y-83656260D02*
X92293370Y-83604600D01*
X93931250Y-81585720D02*
X94027640Y-81563640D01*
X93388700Y-81783841D02*
X93474200Y-81743010D01*
X94795070Y-84688740D02*
X94875980Y-84638550D01*
X94627790Y-84768690D02*
X94712210Y-84732120D01*
X92901860Y-85219530D02*
X92795690Y-85104330D01*
X93015500Y-85324017D02*
X92901860Y-85219530D01*
X93815480Y-85720791D02*
X93671600Y-85682592D01*
X93135950Y-85417734D02*
X93015500Y-85324017D01*
X96668450Y-83908770D02*
X96587690Y-84009420D01*
X95142980Y-85537833D02*
X95001020Y-85606242D01*
X95281250Y-85457040D02*
X95142980Y-85537833D01*
X95030240Y-84517680D02*
X95102810Y-84447000D01*
X95102810Y-84447000D02*
X95171900Y-84369510D01*
X93262460Y-85500546D02*
X93135950Y-85417734D01*
X94559810Y-85738302D02*
X94409990Y-85758273D01*
X94708730Y-85706371D02*
X94559810Y-85738302D01*
X95666600Y-85139340D02*
X95543750Y-85257900D01*
X96749360Y-83807850D02*
X96668450Y-83908770D01*
X97107440Y-83365350D02*
X97009520Y-83485470D01*
X97213700Y-83235750D02*
X97107440Y-83365350D01*
X95237000Y-84293730D02*
X97619150Y-81494730D01*
X97457540Y-85671966D02*
X97457540Y-82941000D01*
X95001020Y-85606242D02*
X94856030Y-85662396D01*
X95237000Y-84285210D02*
X95237000Y-84293730D01*
X94954491Y-84581520D02*
X95030240Y-84517680D01*
X96330530Y-84328830D02*
X96234410Y-84447151D01*
X93394400Y-85572369D02*
X93262460Y-85500546D01*
X95415021Y-85363761D02*
X95281250Y-85457040D01*
X95543750Y-85257900D02*
X95415021Y-85363761D01*
X96420350Y-84217650D02*
X96330530Y-84328830D01*
X95221490Y-84306840D02*
X95237000Y-84285210D01*
X96130370Y-84574530D02*
X96016821Y-84712770D01*
X92355500Y-84194910D02*
X92321450Y-84007980D01*
X92401940Y-84371940D02*
X92355500Y-84194910D01*
X92460110Y-84538950D02*
X92401940Y-84371940D01*
X94259960Y-85766415D02*
X94110350Y-85762800D01*
X92697740Y-84978600D02*
X92608700Y-84842370D01*
X98282750Y-85671966D02*
X97457540Y-85671966D01*
X94856030Y-85662396D02*
X94708730Y-85706371D01*
X97425530Y-82979430D02*
X97329830Y-83094930D01*
X93530990Y-85633083D02*
X93394400Y-85572369D01*
X94409990Y-85758273D02*
X94259960Y-85766415D01*
X95892110Y-84863730D02*
X95866250Y-84900780D01*
X96832100Y-83704890D02*
X96749360Y-83807850D01*
X95866250Y-84900780D02*
X95783000Y-85008000D01*
X94712210Y-84732120D02*
X94795070Y-84688740D01*
X96234410Y-84447151D02*
X96130370Y-84574530D01*
X93671600Y-85682592D02*
X93530990Y-85633083D01*
X95783000Y-85008000D02*
X95666600Y-85139340D01*
X93962000Y-85747566D02*
X93815480Y-85720791D01*
X97329830Y-83094930D02*
X97213700Y-83235750D01*
X97619150Y-81494730D02*
X98282750Y-81494730D01*
X96918290Y-83598060D02*
X96832100Y-83704890D01*
X94110350Y-85762800D02*
X93962000Y-85747566D01*
X96505580Y-84111810D02*
X96420350Y-84217650D01*
X96587690Y-84009420D02*
X96505580Y-84111810D01*
X95923310Y-84826020D02*
X95892110Y-84863730D01*
X97009520Y-83485470D02*
X96918290Y-83598060D01*
X92529230Y-84695790D02*
X92460110Y-84538950D01*
X95171900Y-84369510D02*
X95221490Y-84306840D01*
X96016821Y-84712770D02*
X95923310Y-84826020D01*
X97457540Y-82941000D02*
X97425530Y-82979430D01*
X92608700Y-84842370D02*
X92529230Y-84695790D01*
X92795690Y-85104330D02*
X92697740Y-84978600D01*
X94875980Y-84638550D02*
X94954491Y-84581520D01*
X98282750Y-81494730D02*
X98282750Y-85671966D01*
X101735960Y-85266180D02*
X101641490Y-85316103D01*
X102311750Y-84887820D02*
X102264530Y-84795450D01*
X93942770Y-84815880D02*
X94025661Y-84833820D01*
X93237440Y-83120190D02*
X93200990Y-83229390D01*
X93640310Y-82624890D02*
X93553400Y-82688881D01*
X93634940Y-84676110D02*
X93707570Y-84721260D01*
X94455740Y-84821340D02*
X94542140Y-84798420D01*
X94368950Y-84837450D02*
X94455740Y-84821340D01*
X93861890Y-84791130D02*
X93942770Y-84815880D01*
X102238580Y-84786390D02*
X102198230Y-84851580D01*
X102198230Y-84851580D02*
X102137570Y-84934050D01*
X94282160Y-84846780D02*
X94368950Y-84837450D01*
X93565850Y-84624180D02*
X93634940Y-84676110D01*
X93500690Y-84565440D02*
X93565850Y-84624180D01*
X93174410Y-83346420D02*
X93158150Y-83471520D01*
X94262000Y-82392720D02*
X94170530Y-82410480D01*
X101042030Y-85495011D02*
X100944020Y-85504158D01*
X101141870Y-85479873D02*
X101042030Y-85495011D01*
X101913110Y-85149630D02*
X101826770Y-85210680D01*
X101544140Y-85360392D02*
X101444750Y-85398967D01*
X93188120Y-83964090D02*
X93214640Y-84070380D01*
X101994230Y-85083150D02*
X101913110Y-85149630D01*
X102250490Y-84763890D02*
X102238580Y-84786390D01*
X94195730Y-84849270D02*
X94282160Y-84846780D01*
X94110110Y-84844920D02*
X94195730Y-84849270D01*
X93152600Y-83636250D02*
X93156680Y-83731230D01*
X93200990Y-83229390D02*
X93174410Y-83346420D01*
X93941030Y-82475460D02*
X93834560Y-82518270D01*
X102069320Y-85011270D02*
X101994230Y-85083150D01*
X94025661Y-84833820D02*
X94110110Y-84844920D01*
X93553400Y-82688881D02*
X93473810Y-82760221D01*
X94292660Y-82388010D02*
X94262000Y-82392720D01*
X93247850Y-84169860D02*
X93287390Y-84262560D01*
X93783350Y-84759600D02*
X93861890Y-84791130D01*
X93283400Y-83018760D02*
X93237440Y-83120190D01*
X101641490Y-85316103D02*
X101544140Y-85360392D01*
X93439910Y-84499920D02*
X93500690Y-84565440D01*
X101344040Y-85431777D02*
X101242790Y-85458783D01*
X93332810Y-84348450D02*
X93383810Y-84427590D01*
X93156680Y-83731230D02*
X93168650Y-83851050D01*
X93287390Y-84262560D02*
X93332810Y-84348450D01*
X93383810Y-84427590D02*
X93439910Y-84499920D01*
X93214640Y-84070380D02*
X93247850Y-84169860D01*
X93152600Y-83604600D02*
X93152600Y-83636250D01*
X93338360Y-82925040D02*
X93283400Y-83018760D01*
X93152600Y-83571360D02*
X93152600Y-83604600D01*
X93158150Y-83471520D02*
X93152600Y-83571360D01*
X93834560Y-82518270D02*
X93734180Y-82568040D01*
X101242790Y-85458783D02*
X101141870Y-85479873D01*
X101826770Y-85210680D02*
X101735960Y-85266180D01*
X100872530Y-85507221D02*
X100848680Y-85507221D01*
X93168650Y-83851050D02*
X93188120Y-83964090D01*
X93734180Y-82568040D02*
X93640310Y-82624890D01*
X93401990Y-82838881D02*
X93338360Y-82925040D01*
X94170530Y-82410480D02*
X94053140Y-82439610D01*
X100944020Y-85504158D02*
X100872530Y-85507221D01*
X100848680Y-85507221D02*
X100848680Y-85507221D01*
X102137570Y-84934050D02*
X102069320Y-85011270D01*
X94542140Y-84798420D02*
X94627790Y-84768690D01*
X101444750Y-85398967D02*
X101344040Y-85431777D01*
X93707570Y-84721260D02*
X93783350Y-84759600D01*
X93473810Y-82760221D02*
X93401990Y-82838881D01*
X102264530Y-84795450D02*
X102250490Y-84763890D01*
X94053140Y-82439610D02*
X93941030Y-82475460D01*
X105466370Y-85003050D02*
X105402111Y-85080600D01*
X103614860Y-85745842D02*
X103497620Y-85727253D01*
X103265330Y-85667244D02*
X103151540Y-85625640D01*
X105189830Y-85288200D02*
X105113120Y-85349049D01*
X105583910Y-84835380D02*
X105527030Y-84921300D01*
X103731981Y-85756941D02*
X103614860Y-85745842D01*
X102631370Y-85298232D02*
X102541520Y-85208250D01*
X102726770Y-85379925D02*
X102631370Y-85298232D01*
X103380890Y-85701081D02*
X103265330Y-85667244D01*
X103819280Y-85760619D02*
X103731981Y-85756941D01*
X103848350Y-85760619D02*
X103819280Y-85760619D01*
X105033830Y-85405704D02*
X104952080Y-85458162D01*
X105903980Y-83746890D02*
X105895160Y-83874480D01*
X105835490Y-84232260D02*
X105805190Y-84343200D01*
X105542540Y-82321710D02*
X105597560Y-82406970D01*
X105895160Y-83874480D02*
X105880640Y-83997900D01*
X104420570Y-85684938D02*
X104326941Y-85708065D01*
X105906950Y-83615130D02*
X105906950Y-83648040D01*
X105906950Y-83582550D02*
X105906950Y-83615130D01*
X105839150Y-83004720D02*
X105863150Y-83118690D01*
X105904160Y-83484900D02*
X105906950Y-83582550D01*
X105882080Y-83236680D02*
X105895820Y-83358750D01*
X105895820Y-83358750D02*
X105904160Y-83484900D01*
X105597560Y-82406970D02*
X105648650Y-82496341D01*
X105810230Y-82894860D02*
X105839150Y-83004720D01*
X102931820Y-85518825D02*
X102827150Y-85453425D01*
X104693930Y-85590420D02*
X104604230Y-85626132D01*
X105730070Y-84552600D02*
X105685610Y-84651030D01*
X105113120Y-85349049D02*
X105033830Y-85405704D01*
X105738320Y-82687440D02*
X105776570Y-82789110D01*
X105527030Y-84921300D02*
X105466370Y-85003050D01*
X105860750Y-84117180D02*
X105835490Y-84232260D01*
X104232350Y-85726977D02*
X104137040Y-85741692D01*
X102827150Y-85453425D02*
X102726770Y-85379925D01*
X105263660Y-85223190D02*
X105189830Y-85288200D01*
X105863150Y-83118690D02*
X105882080Y-83236680D01*
X103040150Y-85576194D02*
X102931820Y-85518825D01*
X103872500Y-85760619D02*
X103848350Y-85760619D01*
X104041100Y-85752204D02*
X103944830Y-85758504D01*
X104604230Y-85626132D02*
X104513060Y-85657624D01*
X104137040Y-85741692D02*
X104041100Y-85752204D01*
X103151540Y-85625640D02*
X103040150Y-85576194D01*
X103497620Y-85727253D02*
X103380890Y-85701081D01*
X105648650Y-82496341D02*
X105695660Y-82589850D01*
X105334490Y-85153980D02*
X105263660Y-85223190D01*
X103944830Y-85758504D02*
X103872500Y-85760619D01*
X105695660Y-82589850D02*
X105738320Y-82687440D01*
X104781950Y-85550529D02*
X104693930Y-85590420D01*
X104868020Y-85506438D02*
X104781950Y-85550529D01*
X105685610Y-84651030D02*
X105636830Y-84745290D01*
X104952080Y-85458162D02*
X104868020Y-85506438D01*
X104326941Y-85708065D02*
X104232350Y-85726977D01*
X105636830Y-84745290D02*
X105583910Y-84835380D01*
X104513060Y-85657624D02*
X104420570Y-85684938D01*
X105805190Y-84343200D02*
X105770000Y-84450000D01*
X105906950Y-83648040D02*
X105903980Y-83746890D01*
X105402111Y-85080600D02*
X105334490Y-85153980D01*
X105880640Y-83997900D02*
X105860750Y-84117180D01*
X105776570Y-82789110D02*
X105810230Y-82894860D01*
X105483650Y-82240560D02*
X105542540Y-82321710D01*
X102381081Y-85003140D02*
X102311750Y-84887820D01*
X102457911Y-85109940D02*
X102381081Y-85003140D01*
X102541520Y-85208250D02*
X102457911Y-85109940D01*
X105770000Y-84450000D02*
X105730070Y-84552600D01*
D11*
X228600000Y-91104000D02*
X232210000Y-91104000D01*
X228600000Y-87150000D02*
X228600000Y-91095000D01*
X239500000Y-85196000D02*
X230875000Y-85196000D01*
X239500000Y-89104000D02*
X239500000Y-85196000D01*
X239500000Y-89150000D02*
X234450000Y-89196000D01*
X228611000Y-87080000D02*
G75*
G02*
X230875000Y-85196000I2074000J-190000D01*
G01*
X232215001Y-91079999D02*
G75*
G02*
X234475000Y-89200000I2069999J-190000D01*
G01*
D18*
X115250000Y-22750000D02*
X121150000Y-22750000D01*
X115250000Y-18850000D02*
X121150000Y-18850000D01*
X121150000Y-18850000D02*
X121150000Y-19925000D01*
X189450000Y-22950000D02*
X195350000Y-22950000D01*
X189450000Y-19050000D02*
X195350000Y-19050000D01*
X195350000Y-19050000D02*
X195350000Y-20125000D01*
X234450000Y-25550000D02*
X240350000Y-25550000D01*
X234450000Y-21650000D02*
X240350000Y-21650000D01*
X240350000Y-21650000D02*
X240350000Y-22725000D01*
X239250000Y-78050000D02*
X239250000Y-83950000D01*
X243150000Y-78050000D02*
X243150000Y-83950000D01*
X243150000Y-83950000D02*
X242075000Y-83950000D01*
X243550000Y-115050000D02*
X237650000Y-115050000D01*
X243550000Y-118950000D02*
X237650000Y-118950000D01*
X237650000Y-118950000D02*
X237650000Y-117875000D01*
X209350000Y-114850000D02*
X203450000Y-114850000D01*
X209350000Y-118750000D02*
X203450000Y-118750000D01*
X203450000Y-118750000D02*
X203450000Y-117675000D01*
X176550000Y-130450000D02*
X170650000Y-130450000D01*
X176550000Y-134350000D02*
X170650000Y-134350000D01*
X170650000Y-134350000D02*
X170650000Y-133275000D01*
X128750000Y-130850000D02*
X122850000Y-130850000D01*
X128750000Y-134750000D02*
X122850000Y-134750000D01*
X122850000Y-134750000D02*
X122850000Y-133675000D01*
X102979775Y-137636250D02*
X97870225Y-140586250D01*
X104929775Y-141013750D02*
X99820225Y-143963750D01*
X99820225Y-143963750D02*
X99282725Y-143032772D01*
X82350000Y-122750000D02*
X82350000Y-116850000D01*
X78450000Y-122750000D02*
X78450000Y-116850000D01*
X78450000Y-116850000D02*
X79525000Y-116850000D01*
X88950000Y-88350000D02*
X88950000Y-82450000D01*
X85050000Y-88350000D02*
X85050000Y-82450000D01*
X85050000Y-82450000D02*
X86125000Y-82450000D01*
D12*
X97920000Y-62935000D02*
X97622454Y-62806853D01*
X97622454Y-62806853D02*
X97328674Y-62656405D01*
X97328674Y-62656405D02*
X97049726Y-62495796D01*
X97049726Y-62495796D02*
X96738759Y-62299240D01*
X96738759Y-62299240D02*
X96489877Y-62129486D01*
X96489877Y-62129486D02*
X96264832Y-61965231D01*
X96264832Y-61965231D02*
X96624453Y-61668949D01*
X95665084Y-60536197D02*
X95497876Y-60271006D01*
X95497876Y-60271006D02*
X95321474Y-59958948D01*
X95321474Y-59958948D02*
X95158825Y-59653341D01*
X95158825Y-59653341D02*
X95017071Y-59376086D01*
X95017071Y-59376086D02*
X94961722Y-59264853D01*
X96624453Y-61668949D02*
X96393988Y-61416229D01*
X96393988Y-61416229D02*
X96170406Y-61163393D01*
X96170406Y-61163393D02*
X95970880Y-60929322D01*
X95970880Y-60929322D02*
X95752825Y-60656787D01*
X95752825Y-60656787D02*
X95665084Y-60536197D01*
X95369747Y-59230252D02*
X95287127Y-58910689D01*
X95287127Y-58910689D02*
X95215611Y-58610861D01*
X95215611Y-58610861D02*
X95152189Y-58306223D01*
X95152189Y-58306223D02*
X95127731Y-58155546D01*
X99854810Y-47801007D02*
X99870969Y-48196836D01*
X99870969Y-48196836D02*
X99961020Y-48640987D01*
X99961020Y-48640987D02*
X100041546Y-49016557D01*
X100041546Y-49016557D02*
X100133442Y-49449733D01*
X100133442Y-49449733D02*
X100232401Y-49935397D01*
X100232401Y-49935397D02*
X100334119Y-50468430D01*
X100334119Y-50468430D02*
X100434289Y-51043715D01*
X100434289Y-51043715D02*
X100482447Y-51345603D01*
X100482447Y-51345603D02*
X100528604Y-51656135D01*
X100528604Y-51656135D02*
X100572221Y-51974671D01*
X100572221Y-51974671D02*
X100612759Y-52300571D01*
X100612759Y-52300571D02*
X100649681Y-52633196D01*
X100649681Y-52633196D02*
X100682448Y-52971905D01*
X100682448Y-52971905D02*
X100710523Y-53316060D01*
X100710523Y-53316060D02*
X100733366Y-53665021D01*
X100733366Y-53665021D02*
X100750439Y-54018147D01*
X100750439Y-54018147D02*
X100761205Y-54374800D01*
X100761205Y-54374800D02*
X100765124Y-54734338D01*
X100765124Y-54734338D02*
X100761660Y-55096123D01*
X100761660Y-55096123D02*
X100750273Y-55459516D01*
X100750273Y-55459516D02*
X100731465Y-55815929D01*
X100731465Y-55815929D02*
X100705754Y-56172242D01*
X100705754Y-56172242D02*
X100673630Y-56527718D01*
X100673630Y-56527718D02*
X100635587Y-56881624D01*
X100635587Y-56881624D02*
X100592114Y-57233222D01*
X100592114Y-57233222D02*
X100543706Y-57581778D01*
X100543706Y-57581778D02*
X100490852Y-57926557D01*
X100490852Y-57926557D02*
X100434046Y-58266822D01*
X100434046Y-58266822D02*
X100373780Y-58601839D01*
X100373780Y-58601839D02*
X100310544Y-58930872D01*
X100310544Y-58930872D02*
X100244832Y-59253185D01*
X100244832Y-59253185D02*
X100177135Y-59568044D01*
X100177135Y-59568044D02*
X100107945Y-59874713D01*
X100107945Y-59874713D02*
X100037754Y-60172456D01*
X100037754Y-60172456D02*
X99896336Y-60738224D01*
X99896336Y-60738224D02*
X99756817Y-61259465D01*
X99756817Y-61259465D02*
X99623132Y-61730294D01*
X99623132Y-61730294D02*
X99499217Y-62144830D01*
X99499217Y-62144830D02*
X99389007Y-62497189D01*
X99389007Y-62497189D02*
X99257998Y-62896275D01*
X99257998Y-62896275D02*
X99163928Y-63167185D01*
X99163928Y-63167185D02*
X98856488Y-63126623D01*
X98856488Y-63126623D02*
X98509464Y-63072441D01*
X98509464Y-63072441D02*
X98203396Y-63013454D01*
X98203396Y-63013454D02*
X97920000Y-62935000D01*
X98357899Y-48971008D02*
X98378223Y-48613971D01*
X98378223Y-48613971D02*
X98400695Y-48248721D01*
X98400695Y-48248721D02*
X98422797Y-47916165D01*
X98422797Y-47916165D02*
X98447480Y-47577706D01*
X98447480Y-47577706D02*
X98473743Y-47261007D01*
X98473743Y-47261007D02*
X98507269Y-46937877D01*
X97189978Y-51873319D02*
X97224327Y-51546855D01*
X97224327Y-51546855D02*
X97266036Y-51185034D01*
X97266036Y-51185034D02*
X97309005Y-50848248D01*
X97309005Y-50848248D02*
X97356679Y-50521593D01*
X97356679Y-50521593D02*
X97406470Y-50244622D01*
X103866617Y-60740966D02*
X104185399Y-60986008D01*
X99048491Y-63588037D02*
X99353281Y-63577010D01*
X99353281Y-63577010D02*
X99670588Y-63570488D01*
X99670588Y-63570488D02*
X99782294Y-63582743D01*
X98784642Y-45559705D02*
X98992854Y-45778172D01*
X98992854Y-45778172D02*
X99219198Y-46019715D01*
X99219198Y-46019715D02*
X99424845Y-46243876D01*
X99424845Y-46243876D02*
X99651453Y-46500343D01*
X99651453Y-46500343D02*
X99768592Y-46642351D01*
X100349432Y-47554831D02*
X100657815Y-47421532D01*
X102010273Y-49173508D02*
X102149385Y-49446627D01*
X102149385Y-49446627D02*
X102308161Y-49760685D01*
X102308161Y-49760685D02*
X102450534Y-50045374D01*
X102450534Y-50045374D02*
X102587332Y-50325357D01*
X103774537Y-52509559D02*
X103867169Y-52838364D01*
X103867169Y-52838364D02*
X103945511Y-53161383D01*
X103945511Y-53161383D02*
X104015686Y-53474731D01*
X104015686Y-53474731D02*
X104048319Y-53628130D01*
X95061554Y-56941113D02*
X95685315Y-56957374D01*
X105025084Y-57819180D02*
X104926900Y-58130766D01*
X104926900Y-58130766D02*
X104811980Y-58426300D01*
X104811980Y-58426300D02*
X104677302Y-58741169D01*
X104677302Y-58741169D02*
X104555420Y-59008277D01*
X97406470Y-50244622D02*
X97483294Y-49932038D01*
X97483294Y-49932038D02*
X97567275Y-49637915D01*
X97567275Y-49637915D02*
X97656191Y-49347387D01*
X97656191Y-49347387D02*
X97751966Y-49048606D01*
X97751966Y-49048606D02*
X97829621Y-48815021D01*
X95786470Y-54300483D02*
X96291869Y-54288760D01*
X102587332Y-50325357D02*
X102705019Y-50613292D01*
X102705019Y-50613292D02*
X102812426Y-50928012D01*
X102812426Y-50928012D02*
X102904250Y-51224891D01*
X102904250Y-51224891D02*
X102922941Y-51285483D01*
X95127731Y-58155546D02*
X95099016Y-57853803D01*
X95099016Y-57853803D02*
X95081742Y-57553170D01*
X95081742Y-57553170D02*
X95068932Y-57224761D01*
X95068932Y-57224761D02*
X95061554Y-56941113D01*
X96291869Y-54288760D02*
X96292992Y-53954794D01*
X96292992Y-53954794D02*
X96300731Y-53610045D01*
X96300731Y-53610045D02*
X96315834Y-53303591D01*
X96315834Y-53303591D02*
X96341785Y-53041617D01*
X96637310Y-51916050D02*
X97189978Y-51873319D01*
X105106197Y-59107353D02*
X104956323Y-59405541D01*
X104956323Y-59405541D02*
X104801885Y-59687699D01*
X104801885Y-59687699D02*
X104640674Y-59942311D01*
X104640674Y-59942311D02*
X104621785Y-59967836D01*
X104621785Y-59967836D02*
X104416605Y-60203501D01*
X104416605Y-60203501D02*
X104197534Y-60426266D01*
X104197534Y-60426266D02*
X103976972Y-60638337D01*
X103976972Y-60638337D02*
X103866617Y-60740966D01*
X104435735Y-53552878D02*
X104486805Y-53883708D01*
X104486805Y-53883708D02*
X104533794Y-54211682D01*
X104533794Y-54211682D02*
X104572915Y-54512100D01*
X104572915Y-54512100D02*
X104610091Y-54855744D01*
X104610091Y-54855744D02*
X104621407Y-55004033D01*
X104555420Y-59008277D02*
X105106197Y-59107353D01*
X95647878Y-55540819D02*
X95671233Y-55222192D01*
X95671233Y-55222192D02*
X95704736Y-54914387D01*
X95704736Y-54914387D02*
X95746806Y-54583304D01*
X95746806Y-54583304D02*
X95786470Y-54300483D01*
X95685315Y-56957374D02*
X95669032Y-56625925D01*
X95669032Y-56625925D02*
X95656116Y-56300879D01*
X95656116Y-56300879D02*
X95646628Y-55948968D01*
X95646628Y-55948968D02*
X95645525Y-55629701D01*
X95645525Y-55629701D02*
X95647878Y-55540819D01*
X101693949Y-49321744D02*
X102010273Y-49173508D01*
X99768592Y-46642351D02*
X99953233Y-46904655D01*
X99953233Y-46904655D02*
X100120143Y-47168510D01*
X100120143Y-47168510D02*
X100275397Y-47427301D01*
X100275397Y-47427301D02*
X100349432Y-47554831D01*
X100657815Y-47421532D02*
X100852780Y-47683995D01*
X100852780Y-47683995D02*
X101029157Y-47932613D01*
X101029157Y-47932613D02*
X101198279Y-48188856D01*
X101198279Y-48188856D02*
X101274390Y-48318318D01*
X104621407Y-55004033D02*
X104631539Y-55327225D01*
X104631539Y-55327225D02*
X104632078Y-55637070D01*
X104632078Y-55637070D02*
X104628025Y-55946055D01*
X104628025Y-55946055D02*
X104620522Y-56265944D01*
X104620522Y-56265944D02*
X104612521Y-56517395D01*
X104185399Y-60986008D02*
X103919214Y-61186015D01*
X103919214Y-61186015D02*
X103667745Y-61367037D01*
X103667745Y-61367037D02*
X103409587Y-61540750D01*
X103409587Y-61540750D02*
X103279915Y-61619033D01*
X103279915Y-61619033D02*
X102992538Y-61761613D01*
X102992538Y-61761613D02*
X102706201Y-61886264D01*
X102706201Y-61886264D02*
X102426588Y-62000091D01*
X102426588Y-62000091D02*
X102289159Y-62053718D01*
X96341785Y-53041617D02*
X96411571Y-52703821D01*
X96411571Y-52703821D02*
X96497925Y-52379193D01*
X96497925Y-52379193D02*
X96589875Y-52067604D01*
X96589875Y-52067604D02*
X96637310Y-51916050D01*
X98507269Y-46937877D02*
X98554491Y-46638043D01*
X98554491Y-46638043D02*
X98620623Y-46297496D01*
X98620623Y-46297496D02*
X98690633Y-45970086D01*
X98690633Y-45970086D02*
X98757161Y-45676552D01*
X98757161Y-45676552D02*
X98784642Y-45559705D01*
X101274390Y-48318318D02*
X101412772Y-48608791D01*
X101412772Y-48608791D02*
X101533040Y-48898824D01*
X101533040Y-48898824D02*
X101642497Y-49182323D01*
X101642497Y-49182323D02*
X101693949Y-49321744D01*
X104048319Y-53628130D02*
X104435735Y-53552878D01*
X94961722Y-59264853D02*
X95369747Y-59230252D01*
X105163487Y-56521744D02*
X105146416Y-56822981D01*
X105146416Y-56822981D02*
X105118593Y-57172703D01*
X105118593Y-57172703D02*
X105082647Y-57494082D01*
X105082647Y-57494082D02*
X105025084Y-57819180D01*
X102522857Y-62356807D02*
X102235017Y-62516083D01*
X102235017Y-62516083D02*
X101931570Y-62673351D01*
X101931570Y-62673351D02*
X101653941Y-62804213D01*
X101653941Y-62804213D02*
X101404096Y-62901911D01*
X97829621Y-48815021D02*
X98357899Y-48971008D01*
X101404096Y-62901911D02*
X101061541Y-62990016D01*
X101061541Y-62990016D02*
X100712034Y-63059120D01*
X100712034Y-63059120D02*
X100376160Y-63116565D01*
X100376160Y-63116565D02*
X100056337Y-63165624D01*
X100056337Y-63165624D02*
X99989621Y-63175126D01*
X99989621Y-63175126D02*
X100091473Y-62824415D01*
X100091473Y-62824415D02*
X100179891Y-62511151D01*
X100179891Y-62511151D02*
X100288676Y-62116245D01*
X100288676Y-62116245D02*
X100413244Y-61651167D01*
X100413244Y-61651167D02*
X100549010Y-61127388D01*
X100549010Y-61127388D02*
X100691389Y-60556376D01*
X100691389Y-60556376D02*
X100763626Y-60256743D01*
X100763626Y-60256743D02*
X100835796Y-59949602D01*
X100835796Y-59949602D02*
X100907328Y-59636389D01*
X100907328Y-59636389D02*
X100977648Y-59318536D01*
X100977648Y-59318536D02*
X101046183Y-58997477D01*
X101046183Y-58997477D02*
X101112359Y-58674646D01*
X101112359Y-58674646D02*
X101175604Y-58351477D01*
X101175604Y-58351477D02*
X101235345Y-58029403D01*
X101235345Y-58029403D02*
X101291008Y-57709858D01*
X101291008Y-57709858D02*
X101342021Y-57394277D01*
X101342021Y-57394277D02*
X101387810Y-57084091D01*
X101387810Y-57084091D02*
X101427802Y-56780736D01*
X101427802Y-56780736D02*
X101488104Y-56200252D01*
X101488104Y-56200252D02*
X101518343Y-55664293D01*
X101518343Y-55664293D02*
X101520756Y-55416596D01*
X102289159Y-62053718D02*
X102522857Y-62356807D01*
X99782294Y-63582743D02*
X99606766Y-63864190D01*
X99606766Y-63864190D02*
X99401212Y-64167605D01*
X99401212Y-64167605D02*
X99219092Y-64431492D01*
X99219092Y-64431492D02*
X99045585Y-64679212D01*
X99045585Y-64679212D02*
X98850583Y-64949863D01*
X98850583Y-64949863D02*
X98796832Y-65015936D01*
X98258534Y-64915537D02*
X98439154Y-64604964D01*
X98439154Y-64604964D02*
X98614205Y-64311531D01*
X98614205Y-64311531D02*
X98796998Y-64006471D01*
X98796998Y-64006471D02*
X98975087Y-63710027D01*
X98975087Y-63710027D02*
X99048491Y-63588037D01*
X98796832Y-65015936D02*
X98495989Y-64985731D01*
X98495989Y-64985731D02*
X98258534Y-64915537D01*
X101520756Y-55416596D02*
X101502306Y-54907736D01*
X101502306Y-54907736D02*
X101457524Y-54349694D01*
X101457524Y-54349694D02*
X101389605Y-53753947D01*
X101389605Y-53753947D02*
X101347968Y-53445521D01*
X101347968Y-53445521D02*
X101301744Y-53131974D01*
X101301744Y-53131974D02*
X101251333Y-52814740D01*
X101251333Y-52814740D02*
X101197135Y-52495255D01*
X101197135Y-52495255D02*
X101139549Y-52174952D01*
X101139549Y-52174952D02*
X101078973Y-51855267D01*
X101078973Y-51855267D02*
X101015808Y-51537635D01*
X101015808Y-51537635D02*
X100950454Y-51223491D01*
X100950454Y-51223491D02*
X100883308Y-50914269D01*
X100883308Y-50914269D02*
X100814771Y-50611404D01*
X100814771Y-50611404D02*
X100745241Y-50316331D01*
X100745241Y-50316331D02*
X100604804Y-49755302D01*
X100604804Y-49755302D02*
X100465190Y-49242660D01*
X100465190Y-49242660D02*
X100329595Y-48789883D01*
X100329595Y-48789883D02*
X100201214Y-48408452D01*
X100201214Y-48408452D02*
X100083241Y-48109843D01*
X100083241Y-48109843D02*
X99932785Y-47842336D01*
X99932785Y-47842336D02*
X99854810Y-47801007D01*
X102922941Y-51285483D02*
X103272163Y-51231785D01*
X103272163Y-51231785D02*
X103397017Y-51530739D01*
X103397017Y-51530739D02*
X103516494Y-51823926D01*
X103516494Y-51823926D02*
X103641481Y-52141360D01*
X103641481Y-52141360D02*
X103747582Y-52429370D01*
X103747582Y-52429370D02*
X103774537Y-52509559D01*
X104612521Y-56517395D02*
X105163487Y-56521744D01*
D10*
G36*
X100079000Y-63062000D02*
G01*
X101476000Y-62935000D01*
X102522857Y-62356807D01*
X102365000Y-62046000D01*
X104143000Y-61030000D01*
X103889000Y-60776000D01*
X105106197Y-59107353D01*
X104651000Y-58998000D01*
X105159000Y-56712000D01*
X105032000Y-56458000D01*
X104612521Y-56517395D01*
X104435735Y-53552878D01*
X104016000Y-53537000D01*
X103272163Y-51231785D01*
X102873000Y-51251000D01*
X101984000Y-49219000D01*
X101730000Y-49346000D01*
X100657815Y-47421532D01*
X100349432Y-47554831D01*
X98936000Y-45663000D01*
X98682000Y-45917000D01*
X98357899Y-48971008D01*
X97793000Y-48838000D01*
X97158000Y-51759000D01*
X96637310Y-51916050D01*
X96396000Y-53029000D01*
X96269000Y-54172000D01*
X95786470Y-54300483D01*
X95634000Y-56839000D01*
X95061554Y-56941113D01*
X95369747Y-59230252D01*
X94999000Y-59252000D01*
X95634000Y-60522000D01*
X96523000Y-61665000D01*
X96269000Y-61919000D01*
X97793000Y-62935000D01*
X99063000Y-63189000D01*
X99825000Y-61030000D01*
X100587000Y-57220000D01*
X100841000Y-54934000D01*
X100841000Y-53918000D01*
X100587000Y-51505000D01*
X100079000Y-49600000D01*
X99825000Y-48076000D01*
X100206000Y-48457000D01*
X100587000Y-49981000D01*
X101349000Y-53029000D01*
X101476000Y-55950000D01*
X101095000Y-58871000D01*
X100333000Y-61665000D01*
X100079000Y-63062000D01*
G37*
X100079000Y-63062000D02*
X101476000Y-62935000D01*
X102522857Y-62356807D01*
X102365000Y-62046000D01*
X104143000Y-61030000D01*
X103889000Y-60776000D01*
X105106197Y-59107353D01*
X104651000Y-58998000D01*
X105159000Y-56712000D01*
X105032000Y-56458000D01*
X104612521Y-56517395D01*
X104435735Y-53552878D01*
X104016000Y-53537000D01*
X103272163Y-51231785D01*
X102873000Y-51251000D01*
X101984000Y-49219000D01*
X101730000Y-49346000D01*
X100657815Y-47421532D01*
X100349432Y-47554831D01*
X98936000Y-45663000D01*
X98682000Y-45917000D01*
X98357899Y-48971008D01*
X97793000Y-48838000D01*
X97158000Y-51759000D01*
X96637310Y-51916050D01*
X96396000Y-53029000D01*
X96269000Y-54172000D01*
X95786470Y-54300483D01*
X95634000Y-56839000D01*
X95061554Y-56941113D01*
X95369747Y-59230252D01*
X94999000Y-59252000D01*
X95634000Y-60522000D01*
X96523000Y-61665000D01*
X96269000Y-61919000D01*
X97793000Y-62935000D01*
X99063000Y-63189000D01*
X99825000Y-61030000D01*
X100587000Y-57220000D01*
X100841000Y-54934000D01*
X100841000Y-53918000D01*
X100587000Y-51505000D01*
X100079000Y-49600000D01*
X99825000Y-48076000D01*
X100206000Y-48457000D01*
X100587000Y-49981000D01*
X101349000Y-53029000D01*
X101476000Y-55950000D01*
X101095000Y-58871000D01*
X100333000Y-61665000D01*
X100079000Y-63062000D01*
G36*
X98301000Y-64840000D02*
G01*
X98796832Y-65015936D01*
X99698000Y-63697000D01*
X99063000Y-63697000D01*
X98301000Y-64840000D01*
G37*
X98301000Y-64840000D02*
X98796832Y-65015936D01*
X99698000Y-63697000D01*
X99063000Y-63697000D01*
X98301000Y-64840000D01*
D11*
X85405959Y-131269245D02*
X87210959Y-134395597D01*
X88830223Y-129292245D02*
X85413753Y-131264745D01*
X95972437Y-137754922D02*
X91659937Y-130285453D01*
X92588010Y-139708922D02*
X95972437Y-137754922D01*
X92548172Y-139731922D02*
X89983335Y-135381494D01*
X88896345Y-129266771D02*
G75*
G02*
X91659937Y-130285453I872455J-1891137D01*
G01*
X87234244Y-134387927D02*
G75*
G02*
X89992371Y-135405144I870455J-1887672D01*
G01*
X228600000Y-34004000D02*
X232210000Y-34004000D01*
X228600000Y-30050000D02*
X228600000Y-33995000D01*
X239500000Y-28096000D02*
X230875000Y-28096000D01*
X239500000Y-32004000D02*
X239500000Y-28096000D01*
X239500000Y-32050000D02*
X234450000Y-32096000D01*
X228611000Y-29980000D02*
G75*
G02*
X230875000Y-28096000I2074000J-190000D01*
G01*
X232215001Y-33979999D02*
G75*
G02*
X234475000Y-32100000I2069999J-190000D01*
G01*
X228650000Y-110104000D02*
X232260000Y-110104000D01*
X228650000Y-106150000D02*
X228650000Y-110095000D01*
X239550000Y-104196000D02*
X230925000Y-104196000D01*
X239550000Y-108104000D02*
X239550000Y-104196000D01*
X239550000Y-108150000D02*
X234500000Y-108196000D01*
X228661000Y-106080000D02*
G75*
G02*
X230925000Y-104196000I2074000J-190000D01*
G01*
X232265001Y-110079999D02*
G75*
G02*
X234525000Y-108200000I2069999J-190000D01*
G01*
X228600000Y-71904000D02*
X232210000Y-71904000D01*
X228600000Y-67950000D02*
X228600000Y-71895000D01*
X239500000Y-65996000D02*
X230875000Y-65996000D01*
X239500000Y-69904000D02*
X239500000Y-65996000D01*
X239500000Y-69950000D02*
X234450000Y-69996000D01*
X228611000Y-67880000D02*
G75*
G02*
X230875000Y-65996000I2074000J-190000D01*
G01*
X232215001Y-71879999D02*
G75*
G02*
X234475000Y-70000000I2069999J-190000D01*
G01*
X228600000Y-53004000D02*
X232210000Y-53004000D01*
X228600000Y-49050000D02*
X228600000Y-52995000D01*
X239500000Y-47096000D02*
X230875000Y-47096000D01*
X239500000Y-51004000D02*
X239500000Y-47096000D01*
X239500000Y-51050000D02*
X234450000Y-51096000D01*
X228611000Y-48980000D02*
G75*
G02*
X230875000Y-47096000I2074000J-190000D01*
G01*
X232215001Y-52979999D02*
G75*
G02*
X234475000Y-51100000I2069999J-190000D01*
G01*
X209600000Y-53004000D02*
X213210000Y-53004000D01*
X209600000Y-49050000D02*
X209600000Y-52995000D01*
X220500000Y-47096000D02*
X211875000Y-47096000D01*
X220500000Y-51004000D02*
X220500000Y-47096000D01*
X220500000Y-51050000D02*
X215450000Y-51096000D01*
X209611000Y-48980000D02*
G75*
G02*
X211875000Y-47096000I2074000J-190000D01*
G01*
X213215001Y-52979999D02*
G75*
G02*
X215475000Y-51100000I2069999J-190000D01*
G01*
X209600000Y-34004000D02*
X213210000Y-34004000D01*
X209600000Y-30050000D02*
X209600000Y-33995000D01*
X220500000Y-28096000D02*
X211875000Y-28096000D01*
X220500000Y-32004000D02*
X220500000Y-28096000D01*
X220500000Y-32050000D02*
X215450000Y-32096000D01*
X209611000Y-29980000D02*
G75*
G02*
X211875000Y-28096000I2074000J-190000D01*
G01*
X213215001Y-33979999D02*
G75*
G02*
X215475000Y-32100000I2069999J-190000D01*
G01*
X190600000Y-32504000D02*
X194210000Y-32504000D01*
X190600000Y-28550000D02*
X190600000Y-32495000D01*
X201500000Y-26596000D02*
X192875000Y-26596000D01*
X201500000Y-30504000D02*
X201500000Y-26596000D01*
X201500000Y-30550000D02*
X196450000Y-30596000D01*
X190611000Y-28480000D02*
G75*
G02*
X192875000Y-26596000I2074000J-190000D01*
G01*
X194215001Y-32479999D02*
G75*
G02*
X196475000Y-30600000I2069999J-190000D01*
G01*
X171500000Y-27704000D02*
X175110000Y-27704000D01*
X171500000Y-23750000D02*
X171500000Y-27695000D01*
X182400000Y-21796000D02*
X173775000Y-21796000D01*
X182400000Y-25704000D02*
X182400000Y-21796000D01*
X182400000Y-25750000D02*
X177350000Y-25796000D01*
X171511000Y-23680000D02*
G75*
G02*
X173775000Y-21796000I2074000J-190000D01*
G01*
X175115001Y-27679999D02*
G75*
G02*
X177375000Y-25800000I2069999J-190000D01*
G01*
X152500000Y-26314000D02*
X156110000Y-26314000D01*
X152500000Y-22360000D02*
X152500000Y-26305000D01*
X163400000Y-20406000D02*
X154775000Y-20406000D01*
X163400000Y-24314000D02*
X163400000Y-20406000D01*
X163400000Y-24360000D02*
X158350000Y-24406000D01*
X152511000Y-22290000D02*
G75*
G02*
X154775000Y-20406000I2074000J-190000D01*
G01*
X156115001Y-26289999D02*
G75*
G02*
X158375000Y-24410000I2069999J-190000D01*
G01*
X133400000Y-27704000D02*
X137010000Y-27704000D01*
X133400000Y-23750000D02*
X133400000Y-27695000D01*
X144300000Y-21796000D02*
X135675000Y-21796000D01*
X144300000Y-25704000D02*
X144300000Y-21796000D01*
X144300000Y-25750000D02*
X139250000Y-25796000D01*
X133411000Y-23680000D02*
G75*
G02*
X135675000Y-21796000I2074000J-190000D01*
G01*
X137015001Y-27679999D02*
G75*
G02*
X139275000Y-25800000I2069999J-190000D01*
G01*
X114390000Y-30104000D02*
X118000000Y-30104000D01*
X114390000Y-26150000D02*
X114390000Y-30095000D01*
X125290000Y-24196000D02*
X116665000Y-24196000D01*
X125290000Y-28104000D02*
X125290000Y-24196000D01*
X125290000Y-28150000D02*
X120240000Y-28196000D01*
X114401000Y-26080000D02*
G75*
G02*
X116665000Y-24196000I2074000J-190000D01*
G01*
X118005001Y-30079999D02*
G75*
G02*
X120265000Y-28200000I2069999J-190000D01*
G01*
X190600000Y-70404000D02*
X194210000Y-70404000D01*
X190600000Y-66450000D02*
X190600000Y-70395000D01*
X201500000Y-64496000D02*
X192875000Y-64496000D01*
X201500000Y-68404000D02*
X201500000Y-64496000D01*
X201500000Y-68450000D02*
X196450000Y-68496000D01*
X190611000Y-66380000D02*
G75*
G02*
X192875000Y-64496000I2074000J-190000D01*
G01*
X194215001Y-70379999D02*
G75*
G02*
X196475000Y-68500000I2069999J-190000D01*
G01*
X142900000Y-122854000D02*
X146510000Y-122854000D01*
X142900000Y-118900000D02*
X142900000Y-122845000D01*
X153800000Y-116946000D02*
X145175000Y-116946000D01*
X153800000Y-120854000D02*
X153800000Y-116946000D01*
X153800000Y-120900000D02*
X148750000Y-120946000D01*
X142911000Y-118830000D02*
G75*
G02*
X145175000Y-116946000I2074000J-190000D01*
G01*
X146515001Y-122829999D02*
G75*
G02*
X148775000Y-120950000I2069999J-190000D01*
G01*
X190600000Y-89604000D02*
X194210000Y-89604000D01*
X190600000Y-85650000D02*
X190600000Y-89595000D01*
X201500000Y-83696000D02*
X192875000Y-83696000D01*
X201500000Y-87604000D02*
X201500000Y-83696000D01*
X201500000Y-87650000D02*
X196450000Y-87696000D01*
X190611000Y-85580000D02*
G75*
G02*
X192875000Y-83696000I2074000J-190000D01*
G01*
X194215001Y-89579999D02*
G75*
G02*
X196475000Y-87700000I2069999J-190000D01*
G01*
X190600000Y-51504000D02*
X194210000Y-51504000D01*
X190600000Y-47550000D02*
X190600000Y-51495000D01*
X201500000Y-45596000D02*
X192875000Y-45596000D01*
X201500000Y-49504000D02*
X201500000Y-45596000D01*
X201500000Y-49550000D02*
X196450000Y-49596000D01*
X190611000Y-47480000D02*
G75*
G02*
X192875000Y-45596000I2074000J-190000D01*
G01*
X194215001Y-51479999D02*
G75*
G02*
X196475000Y-49600000I2069999J-190000D01*
G01*
X171500000Y-46704000D02*
X175110000Y-46704000D01*
X171500000Y-42750000D02*
X171500000Y-46695000D01*
X182400000Y-40796000D02*
X173775000Y-40796000D01*
X182400000Y-44704000D02*
X182400000Y-40796000D01*
X182400000Y-44750000D02*
X177350000Y-44796000D01*
X171511000Y-42680000D02*
G75*
G02*
X173775000Y-40796000I2074000J-190000D01*
G01*
X175115001Y-46679999D02*
G75*
G02*
X177375000Y-44800000I2069999J-190000D01*
G01*
X133400000Y-46704000D02*
X137010000Y-46704000D01*
X133400000Y-42750000D02*
X133400000Y-46695000D01*
X144300000Y-40796000D02*
X135675000Y-40796000D01*
X144300000Y-44704000D02*
X144300000Y-40796000D01*
X144300000Y-44750000D02*
X139250000Y-44796000D01*
X133411000Y-42680000D02*
G75*
G02*
X135675000Y-40796000I2074000J-190000D01*
G01*
X137015001Y-46679999D02*
G75*
G02*
X139275000Y-44800000I2069999J-190000D01*
G01*
X102725959Y-121269245D02*
X104530959Y-124395597D01*
X106150223Y-119292245D02*
X102733753Y-121264745D01*
X113292437Y-127754922D02*
X108979937Y-120285453D01*
X109908010Y-129708922D02*
X113292437Y-127754922D01*
X109868172Y-129731922D02*
X107303335Y-125381494D01*
X106216345Y-119266771D02*
G75*
G02*
X108979937Y-120285453I872455J-1891137D01*
G01*
X104554244Y-124387927D02*
G75*
G02*
X107312371Y-125405144I870455J-1887672D01*
G01*
X162000000Y-122854000D02*
X165610000Y-122854000D01*
X162000000Y-118900000D02*
X162000000Y-122845000D01*
X172900000Y-116946000D02*
X164275000Y-116946000D01*
X172900000Y-120854000D02*
X172900000Y-116946000D01*
X172900000Y-120900000D02*
X167850000Y-120946000D01*
X162011000Y-118830000D02*
G75*
G02*
X164275000Y-116946000I2074000J-190000D01*
G01*
X165615001Y-122829999D02*
G75*
G02*
X167875000Y-120950000I2069999J-190000D01*
G01*
X123900000Y-125104000D02*
X127510000Y-125104000D01*
X123900000Y-121150000D02*
X123900000Y-125095000D01*
X134800000Y-119196000D02*
X126175000Y-119196000D01*
X134800000Y-123104000D02*
X134800000Y-119196000D01*
X134800000Y-123150000D02*
X129750000Y-123196000D01*
X123911000Y-121080000D02*
G75*
G02*
X126175000Y-119196000I2074000J-190000D01*
G01*
X127515001Y-125079999D02*
G75*
G02*
X129775000Y-123200000I2069999J-190000D01*
G01*
X95300000Y-96604000D02*
X98910000Y-96604000D01*
X95300000Y-92650000D02*
X95300000Y-96595000D01*
X106200000Y-90696000D02*
X97575000Y-90696000D01*
X106200000Y-94604000D02*
X106200000Y-90696000D01*
X106200000Y-94650000D02*
X101150000Y-94696000D01*
X95311000Y-92580000D02*
G75*
G02*
X97575000Y-90696000I2074000J-190000D01*
G01*
X98915001Y-96579999D02*
G75*
G02*
X101175000Y-94700000I2069999J-190000D01*
G01*
X209650000Y-110104000D02*
X213260000Y-110104000D01*
X209650000Y-106150000D02*
X209650000Y-110095000D01*
X220550000Y-104196000D02*
X211925000Y-104196000D01*
X220550000Y-108104000D02*
X220550000Y-104196000D01*
X220550000Y-108150000D02*
X215500000Y-108196000D01*
X209661000Y-106080000D02*
G75*
G02*
X211925000Y-104196000I2074000J-190000D01*
G01*
X213265001Y-110079999D02*
G75*
G02*
X215525000Y-108200000I2069999J-190000D01*
G01*
X190600000Y-108604000D02*
X194210000Y-108604000D01*
X190600000Y-104650000D02*
X190600000Y-108595000D01*
X201500000Y-102696000D02*
X192875000Y-102696000D01*
X201500000Y-106604000D02*
X201500000Y-102696000D01*
X201500000Y-106650000D02*
X196450000Y-106696000D01*
X190611000Y-104580000D02*
G75*
G02*
X192875000Y-102696000I2074000J-190000D01*
G01*
X194215001Y-108579999D02*
G75*
G02*
X196475000Y-106700000I2069999J-190000D01*
G01*
X171500000Y-103904000D02*
X175110000Y-103904000D01*
X171500000Y-99950000D02*
X171500000Y-103895000D01*
X182400000Y-97996000D02*
X173775000Y-97996000D01*
X182400000Y-101904000D02*
X182400000Y-97996000D01*
X182400000Y-101950000D02*
X177350000Y-101996000D01*
X171511000Y-99880000D02*
G75*
G02*
X173775000Y-97996000I2074000J-190000D01*
G01*
X175115001Y-103879999D02*
G75*
G02*
X177375000Y-102000000I2069999J-190000D01*
G01*
X152500000Y-102504000D02*
X156110000Y-102504000D01*
X152500000Y-98550000D02*
X152500000Y-102495000D01*
X163400000Y-96596000D02*
X154775000Y-96596000D01*
X163400000Y-100504000D02*
X163400000Y-96596000D01*
X163400000Y-100550000D02*
X158350000Y-100596000D01*
X152511000Y-98480000D02*
G75*
G02*
X154775000Y-96596000I2074000J-190000D01*
G01*
X156115001Y-102479999D02*
G75*
G02*
X158375000Y-100600000I2069999J-190000D01*
G01*
X133400000Y-103904000D02*
X137010000Y-103904000D01*
X133400000Y-99950000D02*
X133400000Y-103895000D01*
X144300000Y-97996000D02*
X135675000Y-97996000D01*
X144300000Y-101904000D02*
X144300000Y-97996000D01*
X144300000Y-101950000D02*
X139250000Y-101996000D01*
X133411000Y-99880000D02*
G75*
G02*
X135675000Y-97996000I2074000J-190000D01*
G01*
X137015001Y-103879999D02*
G75*
G02*
X139275000Y-102000000I2069999J-190000D01*
G01*
X114400000Y-106204000D02*
X118010000Y-106204000D01*
X114400000Y-102250000D02*
X114400000Y-106195000D01*
X125300000Y-100296000D02*
X116675000Y-100296000D01*
X125300000Y-104204000D02*
X125300000Y-100296000D01*
X125300000Y-104250000D02*
X120250000Y-104296000D01*
X114411000Y-102180000D02*
G75*
G02*
X116675000Y-100296000I2074000J-190000D01*
G01*
X118015001Y-106179999D02*
G75*
G02*
X120275000Y-104300000I2069999J-190000D01*
G01*
X209600000Y-91104000D02*
X213210000Y-91104000D01*
X209600000Y-87150000D02*
X209600000Y-91095000D01*
X220500000Y-85196000D02*
X211875000Y-85196000D01*
X220500000Y-89104000D02*
X220500000Y-85196000D01*
X220500000Y-89150000D02*
X215450000Y-89196000D01*
X209611000Y-87080000D02*
G75*
G02*
X211875000Y-85196000I2074000J-190000D01*
G01*
X213215001Y-91079999D02*
G75*
G02*
X215475000Y-89200000I2069999J-190000D01*
G01*
X171500000Y-84804000D02*
X175110000Y-84804000D01*
X171500000Y-80850000D02*
X171500000Y-84795000D01*
X182400000Y-78896000D02*
X173775000Y-78896000D01*
X182400000Y-82804000D02*
X182400000Y-78896000D01*
X182400000Y-82850000D02*
X177350000Y-82896000D01*
X171511000Y-80780000D02*
G75*
G02*
X173775000Y-78896000I2074000J-190000D01*
G01*
X175115001Y-84779999D02*
G75*
G02*
X177375000Y-82900000I2069999J-190000D01*
G01*
X152500000Y-83504000D02*
X156110000Y-83504000D01*
X152500000Y-79550000D02*
X152500000Y-83495000D01*
X163400000Y-77596000D02*
X154775000Y-77596000D01*
X163400000Y-81504000D02*
X163400000Y-77596000D01*
X163400000Y-81550000D02*
X158350000Y-81596000D01*
X152511000Y-79480000D02*
G75*
G02*
X154775000Y-77596000I2074000J-190000D01*
G01*
X156115001Y-83479999D02*
G75*
G02*
X158375000Y-81600000I2069999J-190000D01*
G01*
X133400000Y-84804000D02*
X137010000Y-84804000D01*
X133400000Y-80850000D02*
X133400000Y-84795000D01*
X144300000Y-78896000D02*
X135675000Y-78896000D01*
X144300000Y-82804000D02*
X144300000Y-78896000D01*
X144300000Y-82850000D02*
X139250000Y-82896000D01*
X133411000Y-80780000D02*
G75*
G02*
X135675000Y-78896000I2074000J-190000D01*
G01*
X137015001Y-84779999D02*
G75*
G02*
X139275000Y-82900000I2069999J-190000D01*
G01*
X114400000Y-87204000D02*
X118010000Y-87204000D01*
X114400000Y-83250000D02*
X114400000Y-87195000D01*
X125300000Y-81296000D02*
X116675000Y-81296000D01*
X125300000Y-85204000D02*
X125300000Y-81296000D01*
X125300000Y-85250000D02*
X120250000Y-85296000D01*
X114411000Y-83180000D02*
G75*
G02*
X116675000Y-81296000I2074000J-190000D01*
G01*
X118015001Y-87179999D02*
G75*
G02*
X120275000Y-85300000I2069999J-190000D01*
G01*
X209600000Y-71904000D02*
X213210000Y-71904000D01*
X209600000Y-67950000D02*
X209600000Y-71895000D01*
X220500000Y-65996000D02*
X211875000Y-65996000D01*
X220500000Y-69904000D02*
X220500000Y-65996000D01*
X220500000Y-69950000D02*
X215450000Y-69996000D01*
X209611000Y-67880000D02*
G75*
G02*
X211875000Y-65996000I2074000J-190000D01*
G01*
X213215001Y-71879999D02*
G75*
G02*
X215475000Y-70000000I2069999J-190000D01*
G01*
X171500000Y-65704000D02*
X175110000Y-65704000D01*
X171500000Y-61750000D02*
X171500000Y-65695000D01*
X182400000Y-59796000D02*
X173775000Y-59796000D01*
X182400000Y-63704000D02*
X182400000Y-59796000D01*
X182400000Y-63750000D02*
X177350000Y-63796000D01*
X171511000Y-61680000D02*
G75*
G02*
X173775000Y-59796000I2074000J-190000D01*
G01*
X175115001Y-65679999D02*
G75*
G02*
X177375000Y-63800000I2069999J-190000D01*
G01*
X152500000Y-64404000D02*
X156110000Y-64404000D01*
X152500000Y-60450000D02*
X152500000Y-64395000D01*
X163400000Y-58496000D02*
X154775000Y-58496000D01*
X163400000Y-62404000D02*
X163400000Y-58496000D01*
X163400000Y-62450000D02*
X158350000Y-62496000D01*
X152511000Y-60380000D02*
G75*
G02*
X154775000Y-58496000I2074000J-190000D01*
G01*
X156115001Y-64379999D02*
G75*
G02*
X158375000Y-62500000I2069999J-190000D01*
G01*
X133400000Y-65804000D02*
X137010000Y-65804000D01*
X133400000Y-61850000D02*
X133400000Y-65795000D01*
X144300000Y-59896000D02*
X135675000Y-59896000D01*
X144300000Y-63804000D02*
X144300000Y-59896000D01*
X144300000Y-63850000D02*
X139250000Y-63896000D01*
X133411000Y-61780000D02*
G75*
G02*
X135675000Y-59896000I2074000J-190000D01*
G01*
X137015001Y-65779999D02*
G75*
G02*
X139275000Y-63900000I2069999J-190000D01*
G01*
X114400000Y-68204000D02*
X118010000Y-68204000D01*
X114400000Y-64250000D02*
X114400000Y-68195000D01*
X125300000Y-62296000D02*
X116675000Y-62296000D01*
X125300000Y-66204000D02*
X125300000Y-62296000D01*
X125300000Y-66250000D02*
X120250000Y-66296000D01*
X114411000Y-64180000D02*
G75*
G02*
X116675000Y-62296000I2074000J-190000D01*
G01*
X118015001Y-68179999D02*
G75*
G02*
X120275000Y-66300000I2069999J-190000D01*
G01*
X152500000Y-45314000D02*
X156110000Y-45314000D01*
X152500000Y-41360000D02*
X152500000Y-45305000D01*
X163400000Y-39406000D02*
X154775000Y-39406000D01*
X163400000Y-43314000D02*
X163400000Y-39406000D01*
X163400000Y-43360000D02*
X158350000Y-43406000D01*
X152511000Y-41290000D02*
G75*
G02*
X154775000Y-39406000I2074000J-190000D01*
G01*
X156115001Y-45289999D02*
G75*
G02*
X158375000Y-43410000I2069999J-190000D01*
G01*
X114400000Y-49104000D02*
X118010000Y-49104000D01*
X114400000Y-45150000D02*
X114400000Y-49095000D01*
X125300000Y-43196000D02*
X116675000Y-43196000D01*
X125300000Y-47104000D02*
X125300000Y-43196000D01*
X125300000Y-47150000D02*
X120250000Y-47196000D01*
X114411000Y-45080000D02*
G75*
G02*
X116675000Y-43196000I2074000J-190000D01*
G01*
X118015001Y-49079999D02*
G75*
G02*
X120275000Y-47200000I2069999J-190000D01*
G01*
X88650000Y-39300000D02*
X88650000Y-37400000D01*
X89150000Y-39300000D02*
X88650000Y-39300000D01*
X83700000Y-37400000D02*
X88650000Y-37400000D01*
X83650000Y-39300000D02*
X83650000Y-37400000D01*
X83150000Y-51300000D02*
X83150000Y-39300000D01*
X89150000Y-51300000D02*
X83150000Y-51300000D01*
X89150000Y-39300000D02*
X89150000Y-51300000D01*
X83150000Y-39300000D02*
X83650000Y-39300000D01*
X113600000Y-75600000D02*
X113600000Y-77400000D01*
X111800000Y-75600000D02*
X113600000Y-75600000D01*
X111800000Y-77400000D02*
X111800000Y-75600000D01*
X113600000Y-77400000D02*
X111800000Y-77400000D01*
X113600000Y-79700000D02*
X113600000Y-81500000D01*
X111800000Y-79700000D02*
X113600000Y-79700000D01*
X111800000Y-81500000D02*
X111800000Y-79700000D01*
X113600000Y-81500000D02*
X111800000Y-81500000D01*
X113600000Y-77700000D02*
X113600000Y-79500000D01*
X111800000Y-77700000D02*
X113600000Y-77700000D01*
X111800000Y-79500000D02*
X111800000Y-77700000D01*
X113600000Y-79500000D02*
X111800000Y-79500000D01*
X90910000Y-70440000D02*
X90910000Y-39960000D01*
D19*
X93450000Y-70440000D02*
X90910000Y-70440000D01*
X93450000Y-39960000D02*
X93450000Y-70440000D01*
X90910000Y-39960000D02*
X93450000Y-39960000D01*
X106150000Y-70440000D02*
X106150000Y-39960000D01*
X108690000Y-70440000D02*
X106150000Y-70440000D01*
D11*
X108690000Y-39960000D02*
X108690000Y-70440000D01*
D19*
X106150000Y-39960000D02*
X108690000Y-39960000D01*
X90910000Y-70440000D02*
X90910000Y-37420000D01*
X108690000Y-37420000D02*
X108690000Y-70440000D01*
X90910000Y-37420000D02*
X108690000Y-37420000D01*
D11*
X85700000Y-61700000D02*
X83700000Y-61700000D01*
X83700000Y-61700000D02*
X83700000Y-59700000D01*
X83700000Y-59700000D02*
X85700000Y-59700000D01*
X85700000Y-59700000D02*
X85700000Y-61700000D01*
X87900000Y-59700000D02*
X87900000Y-61700000D01*
X85900000Y-59700000D02*
X87900000Y-59700000D01*
X85900000Y-61700000D02*
X85900000Y-59700000D01*
X87900000Y-61700000D02*
X85900000Y-61700000D01*
X83200000Y-70700000D02*
X83200000Y-64800000D01*
X83200000Y-70700000D02*
X83200000Y-64700000D01*
X86700000Y-64700000D02*
X86700000Y-70700000D01*
X83200000Y-64700000D02*
X83700000Y-64700000D01*
X86700000Y-64700000D02*
X86300000Y-64700000D01*
X86700000Y-70700000D02*
X86300000Y-70700000D01*
X83200000Y-70700000D02*
X83700000Y-70700000D01*
X119414285Y-24002380D02*
X119414285Y-23002380D01*
X119176190Y-23002380D01*
X119033333Y-23050000D01*
X118938095Y-23145238D01*
X118890476Y-23240476D01*
X118842857Y-23430952D01*
X118842857Y-23573809D01*
X118890476Y-23764285D01*
X118938095Y-23859523D01*
X119033333Y-23954761D01*
X119176190Y-24002380D01*
X119414285Y-24002380D01*
X117985714Y-23002380D02*
X118176190Y-23002380D01*
X118271428Y-23050000D01*
X118319047Y-23097619D01*
X118414285Y-23240476D01*
X118461904Y-23430952D01*
X118461904Y-23811904D01*
X118414285Y-23907142D01*
X118366666Y-23954761D01*
X118271428Y-24002380D01*
X118080952Y-24002380D01*
X117985714Y-23954761D01*
X117938095Y-23907142D01*
X117890476Y-23811904D01*
X117890476Y-23573809D01*
X117938095Y-23478571D01*
X117985714Y-23430952D01*
X118080952Y-23383333D01*
X118271428Y-23383333D01*
X118366666Y-23430952D01*
X118414285Y-23478571D01*
X118461904Y-23573809D01*
X117557142Y-23002380D02*
X116938095Y-23002380D01*
X117271428Y-23383333D01*
X117128571Y-23383333D01*
X117033333Y-23430952D01*
X116985714Y-23478571D01*
X116938095Y-23573809D01*
X116938095Y-23811904D01*
X116985714Y-23907142D01*
X117033333Y-23954761D01*
X117128571Y-24002380D01*
X117414285Y-24002380D01*
X117509523Y-23954761D01*
X117557142Y-23907142D01*
X114414285Y-22127380D02*
X114985714Y-22127380D01*
X114700000Y-22127380D02*
X114700000Y-21127380D01*
X114795238Y-21270238D01*
X114890476Y-21365476D01*
X114985714Y-21413095D01*
X193614285Y-24202380D02*
X193614285Y-23202380D01*
X193376190Y-23202380D01*
X193233333Y-23250000D01*
X193138095Y-23345238D01*
X193090476Y-23440476D01*
X193042857Y-23630952D01*
X193042857Y-23773809D01*
X193090476Y-23964285D01*
X193138095Y-24059523D01*
X193233333Y-24154761D01*
X193376190Y-24202380D01*
X193614285Y-24202380D01*
X192185714Y-23202380D02*
X192376190Y-23202380D01*
X192471428Y-23250000D01*
X192519047Y-23297619D01*
X192614285Y-23440476D01*
X192661904Y-23630952D01*
X192661904Y-24011904D01*
X192614285Y-24107142D01*
X192566666Y-24154761D01*
X192471428Y-24202380D01*
X192280952Y-24202380D01*
X192185714Y-24154761D01*
X192138095Y-24107142D01*
X192090476Y-24011904D01*
X192090476Y-23773809D01*
X192138095Y-23678571D01*
X192185714Y-23630952D01*
X192280952Y-23583333D01*
X192471428Y-23583333D01*
X192566666Y-23630952D01*
X192614285Y-23678571D01*
X192661904Y-23773809D01*
X191709523Y-23297619D02*
X191661904Y-23250000D01*
X191566666Y-23202380D01*
X191328571Y-23202380D01*
X191233333Y-23250000D01*
X191185714Y-23297619D01*
X191138095Y-23392857D01*
X191138095Y-23488095D01*
X191185714Y-23630952D01*
X191757142Y-24202380D01*
X191138095Y-24202380D01*
X188614285Y-22327380D02*
X189185714Y-22327380D01*
X188900000Y-22327380D02*
X188900000Y-21327380D01*
X188995238Y-21470238D01*
X189090476Y-21565476D01*
X189185714Y-21613095D01*
X238614285Y-26802380D02*
X238614285Y-25802380D01*
X238376190Y-25802380D01*
X238233333Y-25850000D01*
X238138095Y-25945238D01*
X238090476Y-26040476D01*
X238042857Y-26230952D01*
X238042857Y-26373809D01*
X238090476Y-26564285D01*
X238138095Y-26659523D01*
X238233333Y-26754761D01*
X238376190Y-26802380D01*
X238614285Y-26802380D01*
X237185714Y-25802380D02*
X237376190Y-25802380D01*
X237471428Y-25850000D01*
X237519047Y-25897619D01*
X237614285Y-26040476D01*
X237661904Y-26230952D01*
X237661904Y-26611904D01*
X237614285Y-26707142D01*
X237566666Y-26754761D01*
X237471428Y-26802380D01*
X237280952Y-26802380D01*
X237185714Y-26754761D01*
X237138095Y-26707142D01*
X237090476Y-26611904D01*
X237090476Y-26373809D01*
X237138095Y-26278571D01*
X237185714Y-26230952D01*
X237280952Y-26183333D01*
X237471428Y-26183333D01*
X237566666Y-26230952D01*
X237614285Y-26278571D01*
X237661904Y-26373809D01*
X236138095Y-26802380D02*
X236709523Y-26802380D01*
X236423809Y-26802380D02*
X236423809Y-25802380D01*
X236519047Y-25945238D01*
X236614285Y-26040476D01*
X236709523Y-26088095D01*
X233614285Y-24927380D02*
X234185714Y-24927380D01*
X233900000Y-24927380D02*
X233900000Y-23927380D01*
X233995238Y-24070238D01*
X234090476Y-24165476D01*
X234185714Y-24213095D01*
X238902380Y-79785714D02*
X237902380Y-79785714D01*
X237902380Y-80023809D01*
X237950000Y-80166666D01*
X238045238Y-80261904D01*
X238140476Y-80309523D01*
X238330952Y-80357142D01*
X238473809Y-80357142D01*
X238664285Y-80309523D01*
X238759523Y-80261904D01*
X238854761Y-80166666D01*
X238902380Y-80023809D01*
X238902380Y-79785714D01*
X237902380Y-81214285D02*
X237902380Y-81023809D01*
X237950000Y-80928571D01*
X237997619Y-80880952D01*
X238140476Y-80785714D01*
X238330952Y-80738095D01*
X238711904Y-80738095D01*
X238807142Y-80785714D01*
X238854761Y-80833333D01*
X238902380Y-80928571D01*
X238902380Y-81119047D01*
X238854761Y-81214285D01*
X238807142Y-81261904D01*
X238711904Y-81309523D01*
X238473809Y-81309523D01*
X238378571Y-81261904D01*
X238330952Y-81214285D01*
X238283333Y-81119047D01*
X238283333Y-80928571D01*
X238330952Y-80833333D01*
X238378571Y-80785714D01*
X238473809Y-80738095D01*
X237902380Y-81928571D02*
X237902380Y-82023809D01*
X237950000Y-82119047D01*
X237997619Y-82166666D01*
X238092857Y-82214285D01*
X238283333Y-82261904D01*
X238521428Y-82261904D01*
X238711904Y-82214285D01*
X238807142Y-82166666D01*
X238854761Y-82119047D01*
X238902380Y-82023809D01*
X238902380Y-81928571D01*
X238854761Y-81833333D01*
X238807142Y-81785714D01*
X238711904Y-81738095D01*
X238521428Y-81690476D01*
X238283333Y-81690476D01*
X238092857Y-81738095D01*
X237997619Y-81785714D01*
X237950000Y-81833333D01*
X237902380Y-81928571D01*
X240777380Y-77785714D02*
X240777380Y-77214285D01*
X240777380Y-77500000D02*
X239777380Y-77500000D01*
X239920238Y-77404761D01*
X240015476Y-77309523D01*
X240063095Y-77214285D01*
X241814285Y-114702380D02*
X241814285Y-113702380D01*
X241576190Y-113702380D01*
X241433333Y-113750000D01*
X241338095Y-113845238D01*
X241290476Y-113940476D01*
X241242857Y-114130952D01*
X241242857Y-114273809D01*
X241290476Y-114464285D01*
X241338095Y-114559523D01*
X241433333Y-114654761D01*
X241576190Y-114702380D01*
X241814285Y-114702380D01*
X240338095Y-113702380D02*
X240814285Y-113702380D01*
X240861904Y-114178571D01*
X240814285Y-114130952D01*
X240719047Y-114083333D01*
X240480952Y-114083333D01*
X240385714Y-114130952D01*
X240338095Y-114178571D01*
X240290476Y-114273809D01*
X240290476Y-114511904D01*
X240338095Y-114607142D01*
X240385714Y-114654761D01*
X240480952Y-114702380D01*
X240719047Y-114702380D01*
X240814285Y-114654761D01*
X240861904Y-114607142D01*
X239814285Y-114702380D02*
X239623809Y-114702380D01*
X239528571Y-114654761D01*
X239480952Y-114607142D01*
X239385714Y-114464285D01*
X239338095Y-114273809D01*
X239338095Y-113892857D01*
X239385714Y-113797619D01*
X239433333Y-113750000D01*
X239528571Y-113702380D01*
X239719047Y-113702380D01*
X239814285Y-113750000D01*
X239861904Y-113797619D01*
X239909523Y-113892857D01*
X239909523Y-114130952D01*
X239861904Y-114226190D01*
X239814285Y-114273809D01*
X239719047Y-114321428D01*
X239528571Y-114321428D01*
X239433333Y-114273809D01*
X239385714Y-114226190D01*
X239338095Y-114130952D01*
X243814285Y-116577380D02*
X244385714Y-116577380D01*
X244100000Y-116577380D02*
X244100000Y-115577380D01*
X244195238Y-115720238D01*
X244290476Y-115815476D01*
X244385714Y-115863095D01*
X207614285Y-114502380D02*
X207614285Y-113502380D01*
X207376190Y-113502380D01*
X207233333Y-113550000D01*
X207138095Y-113645238D01*
X207090476Y-113740476D01*
X207042857Y-113930952D01*
X207042857Y-114073809D01*
X207090476Y-114264285D01*
X207138095Y-114359523D01*
X207233333Y-114454761D01*
X207376190Y-114502380D01*
X207614285Y-114502380D01*
X206138095Y-113502380D02*
X206614285Y-113502380D01*
X206661904Y-113978571D01*
X206614285Y-113930952D01*
X206519047Y-113883333D01*
X206280952Y-113883333D01*
X206185714Y-113930952D01*
X206138095Y-113978571D01*
X206090476Y-114073809D01*
X206090476Y-114311904D01*
X206138095Y-114407142D01*
X206185714Y-114454761D01*
X206280952Y-114502380D01*
X206519047Y-114502380D01*
X206614285Y-114454761D01*
X206661904Y-114407142D01*
X205519047Y-113930952D02*
X205614285Y-113883333D01*
X205661904Y-113835714D01*
X205709523Y-113740476D01*
X205709523Y-113692857D01*
X205661904Y-113597619D01*
X205614285Y-113550000D01*
X205519047Y-113502380D01*
X205328571Y-113502380D01*
X205233333Y-113550000D01*
X205185714Y-113597619D01*
X205138095Y-113692857D01*
X205138095Y-113740476D01*
X205185714Y-113835714D01*
X205233333Y-113883333D01*
X205328571Y-113930952D01*
X205519047Y-113930952D01*
X205614285Y-113978571D01*
X205661904Y-114026190D01*
X205709523Y-114121428D01*
X205709523Y-114311904D01*
X205661904Y-114407142D01*
X205614285Y-114454761D01*
X205519047Y-114502380D01*
X205328571Y-114502380D01*
X205233333Y-114454761D01*
X205185714Y-114407142D01*
X205138095Y-114311904D01*
X205138095Y-114121428D01*
X205185714Y-114026190D01*
X205233333Y-113978571D01*
X205328571Y-113930952D01*
X209614285Y-116377380D02*
X210185714Y-116377380D01*
X209900000Y-116377380D02*
X209900000Y-115377380D01*
X209995238Y-115520238D01*
X210090476Y-115615476D01*
X210185714Y-115663095D01*
X174814285Y-130102380D02*
X174814285Y-129102380D01*
X174576190Y-129102380D01*
X174433333Y-129150000D01*
X174338095Y-129245238D01*
X174290476Y-129340476D01*
X174242857Y-129530952D01*
X174242857Y-129673809D01*
X174290476Y-129864285D01*
X174338095Y-129959523D01*
X174433333Y-130054761D01*
X174576190Y-130102380D01*
X174814285Y-130102380D01*
X173338095Y-129102380D02*
X173814285Y-129102380D01*
X173861904Y-129578571D01*
X173814285Y-129530952D01*
X173719047Y-129483333D01*
X173480952Y-129483333D01*
X173385714Y-129530952D01*
X173338095Y-129578571D01*
X173290476Y-129673809D01*
X173290476Y-129911904D01*
X173338095Y-130007142D01*
X173385714Y-130054761D01*
X173480952Y-130102380D01*
X173719047Y-130102380D01*
X173814285Y-130054761D01*
X173861904Y-130007142D01*
X172957142Y-129102380D02*
X172290476Y-129102380D01*
X172719047Y-130102380D01*
X176814285Y-131977380D02*
X177385714Y-131977380D01*
X177100000Y-131977380D02*
X177100000Y-130977380D01*
X177195238Y-131120238D01*
X177290476Y-131215476D01*
X177385714Y-131263095D01*
X127014285Y-130502380D02*
X127014285Y-129502380D01*
X126776190Y-129502380D01*
X126633333Y-129550000D01*
X126538095Y-129645238D01*
X126490476Y-129740476D01*
X126442857Y-129930952D01*
X126442857Y-130073809D01*
X126490476Y-130264285D01*
X126538095Y-130359523D01*
X126633333Y-130454761D01*
X126776190Y-130502380D01*
X127014285Y-130502380D01*
X125538095Y-129502380D02*
X126014285Y-129502380D01*
X126061904Y-129978571D01*
X126014285Y-129930952D01*
X125919047Y-129883333D01*
X125680952Y-129883333D01*
X125585714Y-129930952D01*
X125538095Y-129978571D01*
X125490476Y-130073809D01*
X125490476Y-130311904D01*
X125538095Y-130407142D01*
X125585714Y-130454761D01*
X125680952Y-130502380D01*
X125919047Y-130502380D01*
X126014285Y-130454761D01*
X126061904Y-130407142D01*
X124633333Y-129502380D02*
X124823809Y-129502380D01*
X124919047Y-129550000D01*
X124966666Y-129597619D01*
X125061904Y-129740476D01*
X125109523Y-129930952D01*
X125109523Y-130311904D01*
X125061904Y-130407142D01*
X125014285Y-130454761D01*
X124919047Y-130502380D01*
X124728571Y-130502380D01*
X124633333Y-130454761D01*
X124585714Y-130407142D01*
X124538095Y-130311904D01*
X124538095Y-130073809D01*
X124585714Y-129978571D01*
X124633333Y-129930952D01*
X124728571Y-129883333D01*
X124919047Y-129883333D01*
X125014285Y-129930952D01*
X125061904Y-129978571D01*
X125109523Y-130073809D01*
X129014285Y-132377380D02*
X129585714Y-132377380D01*
X129300000Y-132377380D02*
X129300000Y-131377380D01*
X129395238Y-131520238D01*
X129490476Y-131615476D01*
X129585714Y-131663095D01*
X101302792Y-138203060D02*
X100802792Y-137337035D01*
X100596596Y-137456082D01*
X100496687Y-137568750D01*
X100461828Y-137698848D01*
X100468208Y-137805136D01*
X100522206Y-137993903D01*
X100593635Y-138117621D01*
X100730112Y-138258768D01*
X100818971Y-138317437D01*
X100949068Y-138352297D01*
X101096596Y-138322108D01*
X101302792Y-138203060D01*
X99524374Y-138075130D02*
X99936767Y-137837035D01*
X100216101Y-138225618D01*
X100151053Y-138208188D01*
X100044764Y-138214568D01*
X99838568Y-138333616D01*
X99779899Y-138422474D01*
X99762469Y-138487523D01*
X99768849Y-138593811D01*
X99887896Y-138800008D01*
X99976755Y-138858677D01*
X100041804Y-138876106D01*
X100148092Y-138869727D01*
X100354288Y-138750679D01*
X100412957Y-138661821D01*
X100430387Y-138596772D01*
X98699588Y-138551320D02*
X99111981Y-138313225D01*
X99391315Y-138701809D01*
X99326266Y-138684379D01*
X99219978Y-138690759D01*
X99013782Y-138809806D01*
X98955113Y-138898665D01*
X98937683Y-138963713D01*
X98944063Y-139070002D01*
X99063110Y-139276198D01*
X99151969Y-139334867D01*
X99217017Y-139352297D01*
X99323306Y-139345917D01*
X99529502Y-139226870D01*
X99588171Y-139138011D01*
X99605601Y-139072962D01*
X103972343Y-138826858D02*
X104467215Y-138541144D01*
X104219779Y-138684001D02*
X103719779Y-137817975D01*
X103873686Y-137894074D01*
X104003784Y-137928934D01*
X104110072Y-137922554D01*
X83602380Y-118585714D02*
X82602380Y-118585714D01*
X82602380Y-118823809D01*
X82650000Y-118966666D01*
X82745238Y-119061904D01*
X82840476Y-119109523D01*
X83030952Y-119157142D01*
X83173809Y-119157142D01*
X83364285Y-119109523D01*
X83459523Y-119061904D01*
X83554761Y-118966666D01*
X83602380Y-118823809D01*
X83602380Y-118585714D01*
X82602380Y-120061904D02*
X82602380Y-119585714D01*
X83078571Y-119538095D01*
X83030952Y-119585714D01*
X82983333Y-119680952D01*
X82983333Y-119919047D01*
X83030952Y-120014285D01*
X83078571Y-120061904D01*
X83173809Y-120109523D01*
X83411904Y-120109523D01*
X83507142Y-120061904D01*
X83554761Y-120014285D01*
X83602380Y-119919047D01*
X83602380Y-119680952D01*
X83554761Y-119585714D01*
X83507142Y-119538095D01*
X82935714Y-120966666D02*
X83602380Y-120966666D01*
X82554761Y-120728571D02*
X83269047Y-120490476D01*
X83269047Y-121109523D01*
X81727380Y-123585714D02*
X81727380Y-123014285D01*
X81727380Y-123300000D02*
X80727380Y-123300000D01*
X80870238Y-123204761D01*
X80965476Y-123109523D01*
X81013095Y-123014285D01*
X90202380Y-84185714D02*
X89202380Y-84185714D01*
X89202380Y-84423809D01*
X89250000Y-84566666D01*
X89345238Y-84661904D01*
X89440476Y-84709523D01*
X89630952Y-84757142D01*
X89773809Y-84757142D01*
X89964285Y-84709523D01*
X90059523Y-84661904D01*
X90154761Y-84566666D01*
X90202380Y-84423809D01*
X90202380Y-84185714D01*
X89202380Y-85661904D02*
X89202380Y-85185714D01*
X89678571Y-85138095D01*
X89630952Y-85185714D01*
X89583333Y-85280952D01*
X89583333Y-85519047D01*
X89630952Y-85614285D01*
X89678571Y-85661904D01*
X89773809Y-85709523D01*
X90011904Y-85709523D01*
X90107142Y-85661904D01*
X90154761Y-85614285D01*
X90202380Y-85519047D01*
X90202380Y-85280952D01*
X90154761Y-85185714D01*
X90107142Y-85138095D01*
X89202380Y-86042857D02*
X89202380Y-86661904D01*
X89583333Y-86328571D01*
X89583333Y-86471428D01*
X89630952Y-86566666D01*
X89678571Y-86614285D01*
X89773809Y-86661904D01*
X90011904Y-86661904D01*
X90107142Y-86614285D01*
X90154761Y-86566666D01*
X90202380Y-86471428D01*
X90202380Y-86185714D01*
X90154761Y-86090476D01*
X90107142Y-86042857D01*
X88327380Y-89185714D02*
X88327380Y-88614285D01*
X88327380Y-88900000D02*
X87327380Y-88900000D01*
X87470238Y-88804761D01*
X87565476Y-88709523D01*
X87613095Y-88614285D01*
X115966666Y-80261904D02*
X115700000Y-81061904D01*
X115433333Y-80261904D01*
X114709523Y-80985714D02*
X114747619Y-81023809D01*
X114861904Y-81061904D01*
X114938095Y-81061904D01*
X115052380Y-81023809D01*
X115128571Y-80947619D01*
X115166666Y-80871428D01*
X115204761Y-80719047D01*
X115204761Y-80604761D01*
X115166666Y-80452380D01*
X115128571Y-80376190D01*
X115052380Y-80300000D01*
X114938095Y-80261904D01*
X114861904Y-80261904D01*
X114747619Y-80300000D01*
X114709523Y-80338095D01*
X113909523Y-80985714D02*
X113947619Y-81023809D01*
X114061904Y-81061904D01*
X114138095Y-81061904D01*
X114252380Y-81023809D01*
X114328571Y-80947619D01*
X114366666Y-80871428D01*
X114404761Y-80719047D01*
X114404761Y-80604761D01*
X114366666Y-80452380D01*
X114328571Y-80376190D01*
X114252380Y-80300000D01*
X114138095Y-80261904D01*
X114061904Y-80261904D01*
X113947619Y-80300000D01*
X113909523Y-80338095D01*
X115414285Y-78961904D02*
X115795238Y-78961904D01*
X115795238Y-78161904D01*
X115147619Y-78542857D02*
X114880952Y-78542857D01*
X114766666Y-78961904D02*
X115147619Y-78961904D01*
X115147619Y-78161904D01*
X114766666Y-78161904D01*
X114423809Y-78961904D02*
X114423809Y-78161904D01*
X114233333Y-78161904D01*
X114119047Y-78200000D01*
X114042857Y-78276190D01*
X114004761Y-78352380D01*
X113966666Y-78504761D01*
X113966666Y-78619047D01*
X114004761Y-78771428D01*
X114042857Y-78847619D01*
X114119047Y-78923809D01*
X114233333Y-78961904D01*
X114423809Y-78961904D01*
X115509523Y-76200000D02*
X115585714Y-76161904D01*
X115700000Y-76161904D01*
X115814285Y-76200000D01*
X115890476Y-76276190D01*
X115928571Y-76352380D01*
X115966666Y-76504761D01*
X115966666Y-76619047D01*
X115928571Y-76771428D01*
X115890476Y-76847619D01*
X115814285Y-76923809D01*
X115700000Y-76961904D01*
X115623809Y-76961904D01*
X115509523Y-76923809D01*
X115471428Y-76885714D01*
X115471428Y-76619047D01*
X115623809Y-76619047D01*
X115128571Y-76961904D02*
X115128571Y-76161904D01*
X114671428Y-76961904D01*
X114671428Y-76161904D01*
X114290476Y-76961904D02*
X114290476Y-76161904D01*
X114100000Y-76161904D01*
X113985714Y-76200000D01*
X113909523Y-76276190D01*
X113871428Y-76352380D01*
X113833333Y-76504761D01*
X113833333Y-76619047D01*
X113871428Y-76771428D01*
X113909523Y-76847619D01*
X113985714Y-76923809D01*
X114100000Y-76961904D01*
X114290476Y-76961904D01*
X85090476Y-62761904D02*
X85090476Y-61961904D01*
X84785714Y-61961904D01*
X84709523Y-62000000D01*
X84671428Y-62038095D01*
X84633333Y-62114285D01*
X84633333Y-62228571D01*
X84671428Y-62304761D01*
X84709523Y-62342857D01*
X84785714Y-62380952D01*
X85090476Y-62380952D01*
X83871428Y-62761904D02*
X84328571Y-62761904D01*
X84100000Y-62761904D02*
X84100000Y-61961904D01*
X84176190Y-62076190D01*
X84252380Y-62152380D01*
X84328571Y-62190476D01*
X87490476Y-62761904D02*
X87490476Y-61961904D01*
X87185714Y-61961904D01*
X87109523Y-62000000D01*
X87071428Y-62038095D01*
X87033333Y-62114285D01*
X87033333Y-62228571D01*
X87071428Y-62304761D01*
X87109523Y-62342857D01*
X87185714Y-62380952D01*
X87490476Y-62380952D01*
X86728571Y-62038095D02*
X86690476Y-62000000D01*
X86614285Y-61961904D01*
X86423809Y-61961904D01*
X86347619Y-62000000D01*
X86309523Y-62038095D01*
X86271428Y-62114285D01*
X86271428Y-62190476D01*
X86309523Y-62304761D01*
X86766666Y-62761904D01*
X86271428Y-62761904D01*
X85361904Y-66538095D02*
X84980952Y-66271428D01*
X85361904Y-66080952D02*
X84561904Y-66080952D01*
X84561904Y-66385714D01*
X84600000Y-66461904D01*
X84638095Y-66500000D01*
X84714285Y-66538095D01*
X84828571Y-66538095D01*
X84904761Y-66500000D01*
X84942857Y-66461904D01*
X84980952Y-66385714D01*
X84980952Y-66080952D01*
X84942857Y-66880952D02*
X84942857Y-67147619D01*
X85361904Y-67261904D02*
X85361904Y-66880952D01*
X84561904Y-66880952D01*
X84561904Y-67261904D01*
X85323809Y-67566666D02*
X85361904Y-67680952D01*
X85361904Y-67871428D01*
X85323809Y-67947619D01*
X85285714Y-67985714D01*
X85209523Y-68023809D01*
X85133333Y-68023809D01*
X85057142Y-67985714D01*
X85019047Y-67947619D01*
X84980952Y-67871428D01*
X84942857Y-67719047D01*
X84904761Y-67642857D01*
X84866666Y-67604761D01*
X84790476Y-67566666D01*
X84714285Y-67566666D01*
X84638095Y-67604761D01*
X84600000Y-67642857D01*
X84561904Y-67719047D01*
X84561904Y-67909523D01*
X84600000Y-68023809D01*
X84942857Y-68366666D02*
X84942857Y-68633333D01*
X85361904Y-68747619D02*
X85361904Y-68366666D01*
X84561904Y-68366666D01*
X84561904Y-68747619D01*
X84561904Y-68976190D02*
X84561904Y-69433333D01*
X85361904Y-69204761D02*
X84561904Y-69204761D01*
M02*
