G04 #@! TF.GenerationSoftware,KiCad,Pcbnew,(5.1.10)-1*
G04 #@! TF.CreationDate,2021-06-09T20:37:38+02:00*
G04 #@! TF.ProjectId,EKR82,454b5238-322e-46b6-9963-61645f706362,rev?*
G04 #@! TF.SameCoordinates,Original*
G04 #@! TF.FileFunction,Soldermask,Bot*
G04 #@! TF.FilePolarity,Negative*
%FSLAX46Y46*%
G04 Gerber Fmt 4.6, Leading zero omitted, Abs format (unit mm)*
G04 Created by KiCad (PCBNEW (5.1.10)-1) date 2021-06-09 20:37:38*
%MOMM*%
%LPD*%
G01*
G04 APERTURE LIST*
%ADD10C,0.100000*%
%ADD11C,0.150000*%
%ADD12C,0.300000*%
%ADD13C,0.400000*%
G04 #@! TA.AperFunction,Profile*
%ADD14C,0.150000*%
G04 #@! TD*
G04 #@! TA.AperFunction,Profile*
%ADD15C,0.200000*%
G04 #@! TD*
%ADD16C,3.400000*%
%ADD17C,2.100000*%
%ADD18C,2.300000*%
%ADD19C,4.400000*%
%ADD20C,0.500000*%
%ADD21C,5.300000*%
%ADD22C,1.600000*%
%ADD23C,1.924000*%
%ADD24C,1.797000*%
%ADD25C,2.900000*%
G04 APERTURE END LIST*
D10*
D11*
X177002200Y-166007200D02*
X177002200Y-198007200D01*
X285002200Y-198007200D01*
X285002200Y-166007200D01*
X177002200Y-166007200D01*
D10*
D11*
X10000000Y-10000000D02*
X10000000Y-200007200D01*
X287002200Y-200007200D01*
X287002200Y-10000000D01*
X10000000Y-10000000D01*
D10*
D11*
X12000000Y-12000000D02*
X12000000Y-198007200D01*
X285002200Y-198007200D01*
X285002200Y-12000000D01*
X12000000Y-12000000D01*
D10*
D11*
X60000000Y-12000000D02*
X60000000Y-10000000D01*
D10*
D11*
X110000000Y-12000000D02*
X110000000Y-10000000D01*
D10*
D11*
X160000000Y-12000000D02*
X160000000Y-10000000D01*
D10*
D11*
X210000000Y-12000000D02*
X210000000Y-10000000D01*
D10*
D11*
X260000000Y-12000000D02*
X260000000Y-10000000D01*
D10*
D11*
X36065476Y-11588095D02*
X35322619Y-11588095D01*
X35694047Y-11588095D02*
X35694047Y-10288095D01*
X35570238Y-10473809D01*
X35446428Y-10597619D01*
X35322619Y-10659523D01*
D10*
D11*
X85322619Y-10411904D02*
X85384523Y-10350000D01*
X85508333Y-10288095D01*
X85817857Y-10288095D01*
X85941666Y-10350000D01*
X86003571Y-10411904D01*
X86065476Y-10535714D01*
X86065476Y-10659523D01*
X86003571Y-10845238D01*
X85260714Y-11588095D01*
X86065476Y-11588095D01*
D10*
D11*
X135260714Y-10288095D02*
X136065476Y-10288095D01*
X135632142Y-10783333D01*
X135817857Y-10783333D01*
X135941666Y-10845238D01*
X136003571Y-10907142D01*
X136065476Y-11030952D01*
X136065476Y-11340476D01*
X136003571Y-11464285D01*
X135941666Y-11526190D01*
X135817857Y-11588095D01*
X135446428Y-11588095D01*
X135322619Y-11526190D01*
X135260714Y-11464285D01*
D10*
D11*
X185941666Y-10721428D02*
X185941666Y-11588095D01*
X185632142Y-10226190D02*
X185322619Y-11154761D01*
X186127380Y-11154761D01*
D10*
D11*
X236003571Y-10288095D02*
X235384523Y-10288095D01*
X235322619Y-10907142D01*
X235384523Y-10845238D01*
X235508333Y-10783333D01*
X235817857Y-10783333D01*
X235941666Y-10845238D01*
X236003571Y-10907142D01*
X236065476Y-11030952D01*
X236065476Y-11340476D01*
X236003571Y-11464285D01*
X235941666Y-11526190D01*
X235817857Y-11588095D01*
X235508333Y-11588095D01*
X235384523Y-11526190D01*
X235322619Y-11464285D01*
D10*
D11*
X285941666Y-10288095D02*
X285694047Y-10288095D01*
X285570238Y-10350000D01*
X285508333Y-10411904D01*
X285384523Y-10597619D01*
X285322619Y-10845238D01*
X285322619Y-11340476D01*
X285384523Y-11464285D01*
X285446428Y-11526190D01*
X285570238Y-11588095D01*
X285817857Y-11588095D01*
X285941666Y-11526190D01*
X286003571Y-11464285D01*
X286065476Y-11340476D01*
X286065476Y-11030952D01*
X286003571Y-10907142D01*
X285941666Y-10845238D01*
X285817857Y-10783333D01*
X285570238Y-10783333D01*
X285446428Y-10845238D01*
X285384523Y-10907142D01*
X285322619Y-11030952D01*
D10*
D11*
X60000000Y-198007200D02*
X60000000Y-200007200D01*
D10*
D11*
X110000000Y-198007200D02*
X110000000Y-200007200D01*
D10*
D11*
X160000000Y-198007200D02*
X160000000Y-200007200D01*
D10*
D11*
X210000000Y-198007200D02*
X210000000Y-200007200D01*
D10*
D11*
X260000000Y-198007200D02*
X260000000Y-200007200D01*
D10*
D11*
X36065476Y-199595295D02*
X35322619Y-199595295D01*
X35694047Y-199595295D02*
X35694047Y-198295295D01*
X35570238Y-198481009D01*
X35446428Y-198604819D01*
X35322619Y-198666723D01*
D10*
D11*
X85322619Y-198419104D02*
X85384523Y-198357200D01*
X85508333Y-198295295D01*
X85817857Y-198295295D01*
X85941666Y-198357200D01*
X86003571Y-198419104D01*
X86065476Y-198542914D01*
X86065476Y-198666723D01*
X86003571Y-198852438D01*
X85260714Y-199595295D01*
X86065476Y-199595295D01*
D10*
D11*
X135260714Y-198295295D02*
X136065476Y-198295295D01*
X135632142Y-198790533D01*
X135817857Y-198790533D01*
X135941666Y-198852438D01*
X136003571Y-198914342D01*
X136065476Y-199038152D01*
X136065476Y-199347676D01*
X136003571Y-199471485D01*
X135941666Y-199533390D01*
X135817857Y-199595295D01*
X135446428Y-199595295D01*
X135322619Y-199533390D01*
X135260714Y-199471485D01*
D10*
D11*
X185941666Y-198728628D02*
X185941666Y-199595295D01*
X185632142Y-198233390D02*
X185322619Y-199161961D01*
X186127380Y-199161961D01*
D10*
D11*
X236003571Y-198295295D02*
X235384523Y-198295295D01*
X235322619Y-198914342D01*
X235384523Y-198852438D01*
X235508333Y-198790533D01*
X235817857Y-198790533D01*
X235941666Y-198852438D01*
X236003571Y-198914342D01*
X236065476Y-199038152D01*
X236065476Y-199347676D01*
X236003571Y-199471485D01*
X235941666Y-199533390D01*
X235817857Y-199595295D01*
X235508333Y-199595295D01*
X235384523Y-199533390D01*
X235322619Y-199471485D01*
D10*
D11*
X285941666Y-198295295D02*
X285694047Y-198295295D01*
X285570238Y-198357200D01*
X285508333Y-198419104D01*
X285384523Y-198604819D01*
X285322619Y-198852438D01*
X285322619Y-199347676D01*
X285384523Y-199471485D01*
X285446428Y-199533390D01*
X285570238Y-199595295D01*
X285817857Y-199595295D01*
X285941666Y-199533390D01*
X286003571Y-199471485D01*
X286065476Y-199347676D01*
X286065476Y-199038152D01*
X286003571Y-198914342D01*
X285941666Y-198852438D01*
X285817857Y-198790533D01*
X285570238Y-198790533D01*
X285446428Y-198852438D01*
X285384523Y-198914342D01*
X285322619Y-199038152D01*
D10*
D11*
X10000000Y-60000000D02*
X12000000Y-60000000D01*
D10*
D11*
X10000000Y-110000000D02*
X12000000Y-110000000D01*
D10*
D11*
X10000000Y-160000000D02*
X12000000Y-160000000D01*
D10*
D11*
X10690476Y-35216666D02*
X11309523Y-35216666D01*
X10566666Y-35588095D02*
X11000000Y-34288095D01*
X11433333Y-35588095D01*
D10*
D11*
X11092857Y-84907142D02*
X11278571Y-84969047D01*
X11340476Y-85030952D01*
X11402380Y-85154761D01*
X11402380Y-85340476D01*
X11340476Y-85464285D01*
X11278571Y-85526190D01*
X11154761Y-85588095D01*
X10659523Y-85588095D01*
X10659523Y-84288095D01*
X11092857Y-84288095D01*
X11216666Y-84350000D01*
X11278571Y-84411904D01*
X11340476Y-84535714D01*
X11340476Y-84659523D01*
X11278571Y-84783333D01*
X11216666Y-84845238D01*
X11092857Y-84907142D01*
X10659523Y-84907142D01*
D10*
D11*
X11402380Y-135464285D02*
X11340476Y-135526190D01*
X11154761Y-135588095D01*
X11030952Y-135588095D01*
X10845238Y-135526190D01*
X10721428Y-135402380D01*
X10659523Y-135278571D01*
X10597619Y-135030952D01*
X10597619Y-134845238D01*
X10659523Y-134597619D01*
X10721428Y-134473809D01*
X10845238Y-134350000D01*
X11030952Y-134288095D01*
X11154761Y-134288095D01*
X11340476Y-134350000D01*
X11402380Y-134411904D01*
D10*
D11*
X10659523Y-185588095D02*
X10659523Y-184288095D01*
X10969047Y-184288095D01*
X11154761Y-184350000D01*
X11278571Y-184473809D01*
X11340476Y-184597619D01*
X11402380Y-184845238D01*
X11402380Y-185030952D01*
X11340476Y-185278571D01*
X11278571Y-185402380D01*
X11154761Y-185526190D01*
X10969047Y-185588095D01*
X10659523Y-185588095D01*
D10*
D11*
X287002200Y-60000000D02*
X285002200Y-60000000D01*
D10*
D11*
X287002200Y-110000000D02*
X285002200Y-110000000D01*
D10*
D11*
X287002200Y-160000000D02*
X285002200Y-160000000D01*
D10*
D11*
X285692676Y-35216666D02*
X286311723Y-35216666D01*
X285568866Y-35588095D02*
X286002200Y-34288095D01*
X286435533Y-35588095D01*
D10*
D11*
X286095057Y-84907142D02*
X286280771Y-84969047D01*
X286342676Y-85030952D01*
X286404580Y-85154761D01*
X286404580Y-85340476D01*
X286342676Y-85464285D01*
X286280771Y-85526190D01*
X286156961Y-85588095D01*
X285661723Y-85588095D01*
X285661723Y-84288095D01*
X286095057Y-84288095D01*
X286218866Y-84350000D01*
X286280771Y-84411904D01*
X286342676Y-84535714D01*
X286342676Y-84659523D01*
X286280771Y-84783333D01*
X286218866Y-84845238D01*
X286095057Y-84907142D01*
X285661723Y-84907142D01*
D10*
D11*
X286404580Y-135464285D02*
X286342676Y-135526190D01*
X286156961Y-135588095D01*
X286033152Y-135588095D01*
X285847438Y-135526190D01*
X285723628Y-135402380D01*
X285661723Y-135278571D01*
X285599819Y-135030952D01*
X285599819Y-134845238D01*
X285661723Y-134597619D01*
X285723628Y-134473809D01*
X285847438Y-134350000D01*
X286033152Y-134288095D01*
X286156961Y-134288095D01*
X286342676Y-134350000D01*
X286404580Y-134411904D01*
D10*
D11*
X285661723Y-185588095D02*
X285661723Y-184288095D01*
X285971247Y-184288095D01*
X286156961Y-184350000D01*
X286280771Y-184473809D01*
X286342676Y-184597619D01*
X286404580Y-184845238D01*
X286404580Y-185030952D01*
X286342676Y-185278571D01*
X286280771Y-185402380D01*
X286156961Y-185526190D01*
X285971247Y-185588095D01*
X285661723Y-185588095D01*
D10*
D11*
X200434342Y-193785771D02*
X200434342Y-192285771D01*
X200791485Y-192285771D01*
X201005771Y-192357200D01*
X201148628Y-192500057D01*
X201220057Y-192642914D01*
X201291485Y-192928628D01*
X201291485Y-193142914D01*
X201220057Y-193428628D01*
X201148628Y-193571485D01*
X201005771Y-193714342D01*
X200791485Y-193785771D01*
X200434342Y-193785771D01*
X202577200Y-193785771D02*
X202577200Y-193000057D01*
X202505771Y-192857200D01*
X202362914Y-192785771D01*
X202077200Y-192785771D01*
X201934342Y-192857200D01*
X202577200Y-193714342D02*
X202434342Y-193785771D01*
X202077200Y-193785771D01*
X201934342Y-193714342D01*
X201862914Y-193571485D01*
X201862914Y-193428628D01*
X201934342Y-193285771D01*
X202077200Y-193214342D01*
X202434342Y-193214342D01*
X202577200Y-193142914D01*
X203077200Y-192785771D02*
X203648628Y-192785771D01*
X203291485Y-192285771D02*
X203291485Y-193571485D01*
X203362914Y-193714342D01*
X203505771Y-193785771D01*
X203648628Y-193785771D01*
X204720057Y-193714342D02*
X204577200Y-193785771D01*
X204291485Y-193785771D01*
X204148628Y-193714342D01*
X204077200Y-193571485D01*
X204077200Y-193000057D01*
X204148628Y-192857200D01*
X204291485Y-192785771D01*
X204577200Y-192785771D01*
X204720057Y-192857200D01*
X204791485Y-193000057D01*
X204791485Y-193142914D01*
X204077200Y-193285771D01*
X205434342Y-193642914D02*
X205505771Y-193714342D01*
X205434342Y-193785771D01*
X205362914Y-193714342D01*
X205434342Y-193642914D01*
X205434342Y-193785771D01*
X205434342Y-192857200D02*
X205505771Y-192928628D01*
X205434342Y-193000057D01*
X205362914Y-192928628D01*
X205434342Y-192857200D01*
X205434342Y-193000057D01*
D10*
D11*
X177002200Y-194507200D02*
X285002200Y-194507200D01*
D10*
D11*
X178434342Y-196585771D02*
X178434342Y-195085771D01*
X179291485Y-196585771D02*
X178648628Y-195728628D01*
X179291485Y-195085771D02*
X178434342Y-195942914D01*
X179934342Y-196585771D02*
X179934342Y-195585771D01*
X179934342Y-195085771D02*
X179862914Y-195157200D01*
X179934342Y-195228628D01*
X180005771Y-195157200D01*
X179934342Y-195085771D01*
X179934342Y-195228628D01*
X181505771Y-196442914D02*
X181434342Y-196514342D01*
X181220057Y-196585771D01*
X181077200Y-196585771D01*
X180862914Y-196514342D01*
X180720057Y-196371485D01*
X180648628Y-196228628D01*
X180577200Y-195942914D01*
X180577200Y-195728628D01*
X180648628Y-195442914D01*
X180720057Y-195300057D01*
X180862914Y-195157200D01*
X181077200Y-195085771D01*
X181220057Y-195085771D01*
X181434342Y-195157200D01*
X181505771Y-195228628D01*
X182791485Y-196585771D02*
X182791485Y-195800057D01*
X182720057Y-195657200D01*
X182577200Y-195585771D01*
X182291485Y-195585771D01*
X182148628Y-195657200D01*
X182791485Y-196514342D02*
X182648628Y-196585771D01*
X182291485Y-196585771D01*
X182148628Y-196514342D01*
X182077200Y-196371485D01*
X182077200Y-196228628D01*
X182148628Y-196085771D01*
X182291485Y-196014342D01*
X182648628Y-196014342D01*
X182791485Y-195942914D01*
X184148628Y-196585771D02*
X184148628Y-195085771D01*
X184148628Y-196514342D02*
X184005771Y-196585771D01*
X183720057Y-196585771D01*
X183577200Y-196514342D01*
X183505771Y-196442914D01*
X183434342Y-196300057D01*
X183434342Y-195871485D01*
X183505771Y-195728628D01*
X183577200Y-195657200D01*
X183720057Y-195585771D01*
X184005771Y-195585771D01*
X184148628Y-195657200D01*
X186005771Y-195800057D02*
X186505771Y-195800057D01*
X186720057Y-196585771D02*
X186005771Y-196585771D01*
X186005771Y-195085771D01*
X186720057Y-195085771D01*
X187362914Y-196442914D02*
X187434342Y-196514342D01*
X187362914Y-196585771D01*
X187291485Y-196514342D01*
X187362914Y-196442914D01*
X187362914Y-196585771D01*
X188077200Y-196585771D02*
X188077200Y-195085771D01*
X188434342Y-195085771D01*
X188648628Y-195157200D01*
X188791485Y-195300057D01*
X188862914Y-195442914D01*
X188934342Y-195728628D01*
X188934342Y-195942914D01*
X188862914Y-196228628D01*
X188791485Y-196371485D01*
X188648628Y-196514342D01*
X188434342Y-196585771D01*
X188077200Y-196585771D01*
X189577200Y-196442914D02*
X189648628Y-196514342D01*
X189577200Y-196585771D01*
X189505771Y-196514342D01*
X189577200Y-196442914D01*
X189577200Y-196585771D01*
X190220057Y-196157200D02*
X190934342Y-196157200D01*
X190077200Y-196585771D02*
X190577200Y-195085771D01*
X191077200Y-196585771D01*
X191577200Y-196442914D02*
X191648628Y-196514342D01*
X191577200Y-196585771D01*
X191505771Y-196514342D01*
X191577200Y-196442914D01*
X191577200Y-196585771D01*
X194577200Y-196585771D02*
X194577200Y-195085771D01*
X194720057Y-196014342D02*
X195148628Y-196585771D01*
X195148628Y-195585771D02*
X194577200Y-196157200D01*
X195791485Y-196585771D02*
X195791485Y-195585771D01*
X195791485Y-195085771D02*
X195720057Y-195157200D01*
X195791485Y-195228628D01*
X195862914Y-195157200D01*
X195791485Y-195085771D01*
X195791485Y-195228628D01*
X197148628Y-196514342D02*
X197005771Y-196585771D01*
X196720057Y-196585771D01*
X196577200Y-196514342D01*
X196505771Y-196442914D01*
X196434342Y-196300057D01*
X196434342Y-195871485D01*
X196505771Y-195728628D01*
X196577200Y-195657200D01*
X196720057Y-195585771D01*
X197005771Y-195585771D01*
X197148628Y-195657200D01*
X198434342Y-196585771D02*
X198434342Y-195800057D01*
X198362914Y-195657200D01*
X198220057Y-195585771D01*
X197934342Y-195585771D01*
X197791485Y-195657200D01*
X198434342Y-196514342D02*
X198291485Y-196585771D01*
X197934342Y-196585771D01*
X197791485Y-196514342D01*
X197720057Y-196371485D01*
X197720057Y-196228628D01*
X197791485Y-196085771D01*
X197934342Y-196014342D01*
X198291485Y-196014342D01*
X198434342Y-195942914D01*
X199791485Y-196585771D02*
X199791485Y-195085771D01*
X199791485Y-196514342D02*
X199648628Y-196585771D01*
X199362914Y-196585771D01*
X199220057Y-196514342D01*
X199148628Y-196442914D01*
X199077200Y-196300057D01*
X199077200Y-195871485D01*
X199148628Y-195728628D01*
X199220057Y-195657200D01*
X199362914Y-195585771D01*
X199648628Y-195585771D01*
X199791485Y-195657200D01*
X202077200Y-197157200D02*
X202005771Y-197085771D01*
X201862914Y-196871485D01*
X201791485Y-196728628D01*
X201720057Y-196514342D01*
X201648628Y-196157200D01*
X201648628Y-195871485D01*
X201720057Y-195514342D01*
X201791485Y-195300057D01*
X201862914Y-195157200D01*
X202005771Y-194942914D01*
X202077200Y-194871485D01*
X203362914Y-195085771D02*
X202648628Y-195085771D01*
X202577200Y-195800057D01*
X202648628Y-195728628D01*
X202791485Y-195657200D01*
X203148628Y-195657200D01*
X203291485Y-195728628D01*
X203362914Y-195800057D01*
X203434342Y-195942914D01*
X203434342Y-196300057D01*
X203362914Y-196442914D01*
X203291485Y-196514342D01*
X203148628Y-196585771D01*
X202791485Y-196585771D01*
X202648628Y-196514342D01*
X202577200Y-196442914D01*
X204077200Y-196442914D02*
X204148628Y-196514342D01*
X204077200Y-196585771D01*
X204005771Y-196514342D01*
X204077200Y-196442914D01*
X204077200Y-196585771D01*
X205577200Y-196585771D02*
X204720057Y-196585771D01*
X205148628Y-196585771D02*
X205148628Y-195085771D01*
X205005771Y-195300057D01*
X204862914Y-195442914D01*
X204720057Y-195514342D01*
X206220057Y-196442914D02*
X206291485Y-196514342D01*
X206220057Y-196585771D01*
X206148628Y-196514342D01*
X206220057Y-196442914D01*
X206220057Y-196585771D01*
X207720057Y-196585771D02*
X206862914Y-196585771D01*
X207291485Y-196585771D02*
X207291485Y-195085771D01*
X207148628Y-195300057D01*
X207005771Y-195442914D01*
X206862914Y-195514342D01*
X208648628Y-195085771D02*
X208791485Y-195085771D01*
X208934342Y-195157200D01*
X209005771Y-195228628D01*
X209077200Y-195371485D01*
X209148628Y-195657200D01*
X209148628Y-196014342D01*
X209077200Y-196300057D01*
X209005771Y-196442914D01*
X208934342Y-196514342D01*
X208791485Y-196585771D01*
X208648628Y-196585771D01*
X208505771Y-196514342D01*
X208434342Y-196442914D01*
X208362914Y-196300057D01*
X208291485Y-196014342D01*
X208291485Y-195657200D01*
X208362914Y-195371485D01*
X208434342Y-195228628D01*
X208505771Y-195157200D01*
X208648628Y-195085771D01*
X209648628Y-197157200D02*
X209720057Y-197085771D01*
X209862914Y-196871485D01*
X209934342Y-196728628D01*
X210005771Y-196514342D01*
X210077200Y-196157200D01*
X210077200Y-195871485D01*
X210005771Y-195514342D01*
X209934342Y-195300057D01*
X209862914Y-195157200D01*
X209720057Y-194942914D01*
X209648628Y-194871485D01*
X210791485Y-196014342D02*
X211934342Y-196014342D01*
X213434342Y-196585771D02*
X212577200Y-196585771D01*
X213005771Y-196585771D02*
X213005771Y-195085771D01*
X212862914Y-195300057D01*
X212720057Y-195442914D01*
X212577200Y-195514342D01*
D10*
D11*
X177002200Y-191507200D02*
X285002200Y-191507200D01*
D10*
D12*
X264411485Y-193785771D02*
X263911485Y-193071485D01*
X263554342Y-193785771D02*
X263554342Y-192285771D01*
X264125771Y-192285771D01*
X264268628Y-192357200D01*
X264340057Y-192428628D01*
X264411485Y-192571485D01*
X264411485Y-192785771D01*
X264340057Y-192928628D01*
X264268628Y-193000057D01*
X264125771Y-193071485D01*
X263554342Y-193071485D01*
X265625771Y-193714342D02*
X265482914Y-193785771D01*
X265197200Y-193785771D01*
X265054342Y-193714342D01*
X264982914Y-193571485D01*
X264982914Y-193000057D01*
X265054342Y-192857200D01*
X265197200Y-192785771D01*
X265482914Y-192785771D01*
X265625771Y-192857200D01*
X265697200Y-193000057D01*
X265697200Y-193142914D01*
X264982914Y-193285771D01*
X266197200Y-192785771D02*
X266554342Y-193785771D01*
X266911485Y-192785771D01*
X267482914Y-193642914D02*
X267554342Y-193714342D01*
X267482914Y-193785771D01*
X267411485Y-193714342D01*
X267482914Y-193642914D01*
X267482914Y-193785771D01*
X267482914Y-192857200D02*
X267554342Y-192928628D01*
X267482914Y-193000057D01*
X267411485Y-192928628D01*
X267482914Y-192857200D01*
X267482914Y-193000057D01*
D10*
D11*
X178362914Y-193714342D02*
X178577200Y-193785771D01*
X178934342Y-193785771D01*
X179077200Y-193714342D01*
X179148628Y-193642914D01*
X179220057Y-193500057D01*
X179220057Y-193357200D01*
X179148628Y-193214342D01*
X179077200Y-193142914D01*
X178934342Y-193071485D01*
X178648628Y-193000057D01*
X178505771Y-192928628D01*
X178434342Y-192857200D01*
X178362914Y-192714342D01*
X178362914Y-192571485D01*
X178434342Y-192428628D01*
X178505771Y-192357200D01*
X178648628Y-192285771D01*
X179005771Y-192285771D01*
X179220057Y-192357200D01*
X179862914Y-193785771D02*
X179862914Y-192785771D01*
X179862914Y-192285771D02*
X179791485Y-192357200D01*
X179862914Y-192428628D01*
X179934342Y-192357200D01*
X179862914Y-192285771D01*
X179862914Y-192428628D01*
X180434342Y-192785771D02*
X181220057Y-192785771D01*
X180434342Y-193785771D01*
X181220057Y-193785771D01*
X182362914Y-193714342D02*
X182220057Y-193785771D01*
X181934342Y-193785771D01*
X181791485Y-193714342D01*
X181720057Y-193571485D01*
X181720057Y-193000057D01*
X181791485Y-192857200D01*
X181934342Y-192785771D01*
X182220057Y-192785771D01*
X182362914Y-192857200D01*
X182434342Y-193000057D01*
X182434342Y-193142914D01*
X181720057Y-193285771D01*
X183077200Y-193642914D02*
X183148628Y-193714342D01*
X183077200Y-193785771D01*
X183005771Y-193714342D01*
X183077200Y-193642914D01*
X183077200Y-193785771D01*
X183077200Y-192857200D02*
X183148628Y-192928628D01*
X183077200Y-193000057D01*
X183005771Y-192928628D01*
X183077200Y-192857200D01*
X183077200Y-193000057D01*
X184862914Y-193357200D02*
X185577200Y-193357200D01*
X184720057Y-193785771D02*
X185220057Y-192285771D01*
X185720057Y-193785771D01*
X186862914Y-192785771D02*
X186862914Y-193785771D01*
X186505771Y-192214342D02*
X186148628Y-193285771D01*
X187077200Y-193285771D01*
D10*
D11*
X263434342Y-196585771D02*
X263434342Y-195085771D01*
X264791485Y-196585771D02*
X264791485Y-195085771D01*
X264791485Y-196514342D02*
X264648628Y-196585771D01*
X264362914Y-196585771D01*
X264220057Y-196514342D01*
X264148628Y-196442914D01*
X264077200Y-196300057D01*
X264077200Y-195871485D01*
X264148628Y-195728628D01*
X264220057Y-195657200D01*
X264362914Y-195585771D01*
X264648628Y-195585771D01*
X264791485Y-195657200D01*
X265505771Y-196442914D02*
X265577200Y-196514342D01*
X265505771Y-196585771D01*
X265434342Y-196514342D01*
X265505771Y-196442914D01*
X265505771Y-196585771D01*
X265505771Y-195657200D02*
X265577200Y-195728628D01*
X265505771Y-195800057D01*
X265434342Y-195728628D01*
X265505771Y-195657200D01*
X265505771Y-195800057D01*
X268148628Y-196585771D02*
X267291485Y-196585771D01*
X267720057Y-196585771D02*
X267720057Y-195085771D01*
X267577200Y-195300057D01*
X267434342Y-195442914D01*
X267291485Y-195514342D01*
X269862914Y-195014342D02*
X268577200Y-196942914D01*
X271148628Y-196585771D02*
X270291485Y-196585771D01*
X270720057Y-196585771D02*
X270720057Y-195085771D01*
X270577200Y-195300057D01*
X270434342Y-195442914D01*
X270291485Y-195514342D01*
D10*
D11*
X177002200Y-187507200D02*
X285002200Y-187507200D01*
D10*
D13*
X178714580Y-188211961D02*
X179857438Y-188211961D01*
X179036009Y-190211961D02*
X179286009Y-188211961D01*
X180274104Y-190211961D02*
X180440771Y-188878628D01*
X180524104Y-188211961D02*
X180416961Y-188307200D01*
X180500295Y-188402438D01*
X180607438Y-188307200D01*
X180524104Y-188211961D01*
X180500295Y-188402438D01*
X181107438Y-188878628D02*
X181869342Y-188878628D01*
X181476485Y-188211961D02*
X181262200Y-189926247D01*
X181333628Y-190116723D01*
X181512200Y-190211961D01*
X181702676Y-190211961D01*
X182655057Y-190211961D02*
X182476485Y-190116723D01*
X182405057Y-189926247D01*
X182619342Y-188211961D01*
X184190771Y-190116723D02*
X183988390Y-190211961D01*
X183607438Y-190211961D01*
X183428866Y-190116723D01*
X183357438Y-189926247D01*
X183452676Y-189164342D01*
X183571723Y-188973866D01*
X183774104Y-188878628D01*
X184155057Y-188878628D01*
X184333628Y-188973866D01*
X184405057Y-189164342D01*
X184381247Y-189354819D01*
X183405057Y-189545295D01*
X185155057Y-190021485D02*
X185238390Y-190116723D01*
X185131247Y-190211961D01*
X185047914Y-190116723D01*
X185155057Y-190021485D01*
X185131247Y-190211961D01*
X185286009Y-188973866D02*
X185369342Y-189069104D01*
X185262200Y-189164342D01*
X185178866Y-189069104D01*
X185286009Y-188973866D01*
X185262200Y-189164342D01*
D10*
D11*
X178934342Y-185600057D02*
X178434342Y-185600057D01*
X178434342Y-186385771D02*
X178434342Y-184885771D01*
X179148628Y-184885771D01*
X179720057Y-186385771D02*
X179720057Y-185385771D01*
X179720057Y-184885771D02*
X179648628Y-184957200D01*
X179720057Y-185028628D01*
X179791485Y-184957200D01*
X179720057Y-184885771D01*
X179720057Y-185028628D01*
X180648628Y-186385771D02*
X180505771Y-186314342D01*
X180434342Y-186171485D01*
X180434342Y-184885771D01*
X181791485Y-186314342D02*
X181648628Y-186385771D01*
X181362914Y-186385771D01*
X181220057Y-186314342D01*
X181148628Y-186171485D01*
X181148628Y-185600057D01*
X181220057Y-185457200D01*
X181362914Y-185385771D01*
X181648628Y-185385771D01*
X181791485Y-185457200D01*
X181862914Y-185600057D01*
X181862914Y-185742914D01*
X181148628Y-185885771D01*
X182505771Y-186242914D02*
X182577200Y-186314342D01*
X182505771Y-186385771D01*
X182434342Y-186314342D01*
X182505771Y-186242914D01*
X182505771Y-186385771D01*
X182505771Y-185457200D02*
X182577200Y-185528628D01*
X182505771Y-185600057D01*
X182434342Y-185528628D01*
X182505771Y-185457200D01*
X182505771Y-185600057D01*
X184362914Y-185600057D02*
X184862914Y-185600057D01*
X185077200Y-186385771D02*
X184362914Y-186385771D01*
X184362914Y-184885771D01*
X185077200Y-184885771D01*
X185720057Y-186385771D02*
X185720057Y-184885771D01*
X186577200Y-186385771D02*
X185934342Y-185528628D01*
X186577200Y-184885771D02*
X185720057Y-185742914D01*
X188077200Y-186385771D02*
X187577200Y-185671485D01*
X187220057Y-186385771D02*
X187220057Y-184885771D01*
X187791485Y-184885771D01*
X187934342Y-184957200D01*
X188005771Y-185028628D01*
X188077200Y-185171485D01*
X188077200Y-185385771D01*
X188005771Y-185528628D01*
X187934342Y-185600057D01*
X187791485Y-185671485D01*
X187220057Y-185671485D01*
X188934342Y-185528628D02*
X188791485Y-185457200D01*
X188720057Y-185385771D01*
X188648628Y-185242914D01*
X188648628Y-185171485D01*
X188720057Y-185028628D01*
X188791485Y-184957200D01*
X188934342Y-184885771D01*
X189220057Y-184885771D01*
X189362914Y-184957200D01*
X189434342Y-185028628D01*
X189505771Y-185171485D01*
X189505771Y-185242914D01*
X189434342Y-185385771D01*
X189362914Y-185457200D01*
X189220057Y-185528628D01*
X188934342Y-185528628D01*
X188791485Y-185600057D01*
X188720057Y-185671485D01*
X188648628Y-185814342D01*
X188648628Y-186100057D01*
X188720057Y-186242914D01*
X188791485Y-186314342D01*
X188934342Y-186385771D01*
X189220057Y-186385771D01*
X189362914Y-186314342D01*
X189434342Y-186242914D01*
X189505771Y-186100057D01*
X189505771Y-185814342D01*
X189434342Y-185671485D01*
X189362914Y-185600057D01*
X189220057Y-185528628D01*
X190077200Y-185028628D02*
X190148628Y-184957200D01*
X190291485Y-184885771D01*
X190648628Y-184885771D01*
X190791485Y-184957200D01*
X190862914Y-185028628D01*
X190934342Y-185171485D01*
X190934342Y-185314342D01*
X190862914Y-185528628D01*
X190005771Y-186385771D01*
X190934342Y-186385771D01*
X191577200Y-186242914D02*
X191648628Y-186314342D01*
X191577200Y-186385771D01*
X191505771Y-186314342D01*
X191577200Y-186242914D01*
X191577200Y-186385771D01*
X192291485Y-186385771D02*
X192291485Y-184885771D01*
X192434342Y-185814342D02*
X192862914Y-186385771D01*
X192862914Y-185385771D02*
X192291485Y-185957200D01*
X193505771Y-186385771D02*
X193505771Y-185385771D01*
X193505771Y-184885771D02*
X193434342Y-184957200D01*
X193505771Y-185028628D01*
X193577200Y-184957200D01*
X193505771Y-184885771D01*
X193505771Y-185028628D01*
X194862914Y-186314342D02*
X194720057Y-186385771D01*
X194434342Y-186385771D01*
X194291485Y-186314342D01*
X194220057Y-186242914D01*
X194148628Y-186100057D01*
X194148628Y-185671485D01*
X194220057Y-185528628D01*
X194291485Y-185457200D01*
X194434342Y-185385771D01*
X194720057Y-185385771D01*
X194862914Y-185457200D01*
X196148628Y-186385771D02*
X196148628Y-185600057D01*
X196077200Y-185457200D01*
X195934342Y-185385771D01*
X195648628Y-185385771D01*
X195505771Y-185457200D01*
X196148628Y-186314342D02*
X196005771Y-186385771D01*
X195648628Y-186385771D01*
X195505771Y-186314342D01*
X195434342Y-186171485D01*
X195434342Y-186028628D01*
X195505771Y-185885771D01*
X195648628Y-185814342D01*
X196005771Y-185814342D01*
X196148628Y-185742914D01*
X197505771Y-186385771D02*
X197505771Y-184885771D01*
X197505771Y-186314342D02*
X197362914Y-186385771D01*
X197077200Y-186385771D01*
X196934342Y-186314342D01*
X196862914Y-186242914D01*
X196791485Y-186100057D01*
X196791485Y-185671485D01*
X196862914Y-185528628D01*
X196934342Y-185457200D01*
X197077200Y-185385771D01*
X197362914Y-185385771D01*
X197505771Y-185457200D01*
X197862914Y-186528628D02*
X199005771Y-186528628D01*
X199362914Y-185385771D02*
X199362914Y-186885771D01*
X199362914Y-185457200D02*
X199505771Y-185385771D01*
X199791485Y-185385771D01*
X199934342Y-185457200D01*
X200005771Y-185528628D01*
X200077200Y-185671485D01*
X200077200Y-186100057D01*
X200005771Y-186242914D01*
X199934342Y-186314342D01*
X199791485Y-186385771D01*
X199505771Y-186385771D01*
X199362914Y-186314342D01*
X201362914Y-186314342D02*
X201220057Y-186385771D01*
X200934342Y-186385771D01*
X200791485Y-186314342D01*
X200720057Y-186242914D01*
X200648628Y-186100057D01*
X200648628Y-185671485D01*
X200720057Y-185528628D01*
X200791485Y-185457200D01*
X200934342Y-185385771D01*
X201220057Y-185385771D01*
X201362914Y-185457200D01*
X202005771Y-186385771D02*
X202005771Y-184885771D01*
X202005771Y-185457200D02*
X202148628Y-185385771D01*
X202434342Y-185385771D01*
X202577200Y-185457200D01*
X202648628Y-185528628D01*
X202720057Y-185671485D01*
X202720057Y-186100057D01*
X202648628Y-186242914D01*
X202577200Y-186314342D01*
X202434342Y-186385771D01*
X202148628Y-186385771D01*
X202005771Y-186314342D01*
D10*
D11*
X177002200Y-181507200D02*
X285002200Y-181507200D01*
D10*
D11*
X178362914Y-183614342D02*
X178577200Y-183685771D01*
X178934342Y-183685771D01*
X179077200Y-183614342D01*
X179148628Y-183542914D01*
X179220057Y-183400057D01*
X179220057Y-183257200D01*
X179148628Y-183114342D01*
X179077200Y-183042914D01*
X178934342Y-182971485D01*
X178648628Y-182900057D01*
X178505771Y-182828628D01*
X178434342Y-182757200D01*
X178362914Y-182614342D01*
X178362914Y-182471485D01*
X178434342Y-182328628D01*
X178505771Y-182257200D01*
X178648628Y-182185771D01*
X179005771Y-182185771D01*
X179220057Y-182257200D01*
X179862914Y-183685771D02*
X179862914Y-182185771D01*
X180505771Y-183685771D02*
X180505771Y-182900057D01*
X180434342Y-182757200D01*
X180291485Y-182685771D01*
X180077200Y-182685771D01*
X179934342Y-182757200D01*
X179862914Y-182828628D01*
X181791485Y-183614342D02*
X181648628Y-183685771D01*
X181362914Y-183685771D01*
X181220057Y-183614342D01*
X181148628Y-183471485D01*
X181148628Y-182900057D01*
X181220057Y-182757200D01*
X181362914Y-182685771D01*
X181648628Y-182685771D01*
X181791485Y-182757200D01*
X181862914Y-182900057D01*
X181862914Y-183042914D01*
X181148628Y-183185771D01*
X183077200Y-183614342D02*
X182934342Y-183685771D01*
X182648628Y-183685771D01*
X182505771Y-183614342D01*
X182434342Y-183471485D01*
X182434342Y-182900057D01*
X182505771Y-182757200D01*
X182648628Y-182685771D01*
X182934342Y-182685771D01*
X183077200Y-182757200D01*
X183148628Y-182900057D01*
X183148628Y-183042914D01*
X182434342Y-183185771D01*
X183577200Y-182685771D02*
X184148628Y-182685771D01*
X183791485Y-182185771D02*
X183791485Y-183471485D01*
X183862914Y-183614342D01*
X184005771Y-183685771D01*
X184148628Y-183685771D01*
X184648628Y-183542914D02*
X184720057Y-183614342D01*
X184648628Y-183685771D01*
X184577200Y-183614342D01*
X184648628Y-183542914D01*
X184648628Y-183685771D01*
X184648628Y-182757200D02*
X184720057Y-182828628D01*
X184648628Y-182900057D01*
X184577200Y-182828628D01*
X184648628Y-182757200D01*
X184648628Y-182900057D01*
D10*
D11*
X197002200Y-191507200D02*
X197002200Y-194507200D01*
D10*
D11*
X261002200Y-191507200D02*
X261002200Y-198007200D01*
D14*
X72674503Y-134960305D02*
G75*
G02*
X72175000Y-132325000I4376397J2194505D01*
G01*
X88345583Y-152620389D02*
G75*
G02*
X81699101Y-150634699I-2328483J4322489D01*
G01*
X72674503Y-134960305D02*
X81699101Y-150634699D01*
X104456758Y-143271756D02*
X88345583Y-152620389D01*
X245120000Y-120789735D02*
X245120000Y-22546755D01*
X223959999Y-120789735D02*
X245120000Y-120789735D01*
X109898210Y-36780000D02*
X109898210Y-17246762D01*
X82940000Y-36780000D02*
X109898210Y-36780000D01*
X82937528Y-38136762D02*
X82940000Y-36780000D01*
D15*
X240549319Y-20073847D02*
X235185697Y-18995159D01*
X235185697Y-18995159D02*
X228080758Y-18055561D01*
X116186619Y-136480784D02*
X117862313Y-135510645D01*
X114510925Y-137450923D02*
X116186619Y-136480784D01*
X82937528Y-50750629D02*
X82937528Y-44443695D01*
X82937528Y-57057562D02*
X82937528Y-50750629D01*
X142171711Y-16196762D02*
X131763877Y-16196762D01*
X218692418Y-120789735D02*
X223959999Y-120789735D01*
X213424836Y-120789735D02*
X218692418Y-120789735D01*
X208157255Y-120789735D02*
X213424836Y-120789735D01*
X202889673Y-120789735D02*
X208157255Y-120789735D01*
X197622092Y-120789735D02*
X202889673Y-120789735D01*
X192354511Y-120789735D02*
X197622092Y-120789735D01*
X187086929Y-120789735D02*
X192354511Y-120789735D01*
X181819348Y-120789735D02*
X187086929Y-120789735D01*
X181113524Y-120860778D02*
X181819348Y-120789735D01*
X180456326Y-121064561D02*
X181113524Y-120860778D01*
X179861773Y-121387065D02*
X180456326Y-121064561D01*
X179343884Y-121814271D02*
X179861773Y-121387065D01*
X178916678Y-122332160D02*
X179343884Y-121814271D01*
X178594174Y-122926713D02*
X178916678Y-122332160D01*
X178390391Y-123583911D02*
X178594174Y-122926713D01*
X178319348Y-124289735D02*
X178390391Y-123583911D01*
X219467654Y-17280488D02*
X209579538Y-16695374D01*
X228080758Y-18055561D02*
X219467654Y-17280488D01*
X198649563Y-16325654D02*
X186910881Y-16196762D01*
X209579538Y-16695374D02*
X198649563Y-16325654D01*
X177658308Y-135255660D02*
X177403500Y-135393876D01*
X177880261Y-135072571D02*
X177658308Y-135255660D01*
X178063349Y-134850619D02*
X177880261Y-135072571D01*
X178201565Y-134595810D02*
X178063349Y-134850619D01*
X178288901Y-134314154D02*
X178201565Y-134595810D01*
X178319348Y-134034052D02*
X178288901Y-134314154D01*
X82937528Y-69671429D02*
X82937528Y-63364495D01*
X82937528Y-75978362D02*
X82937528Y-69671429D01*
X82937528Y-82285296D02*
X82937528Y-75978362D01*
X82937528Y-88592229D02*
X82937528Y-82285296D01*
X131763877Y-16196762D02*
X121356044Y-16196762D01*
X152579545Y-16196762D02*
X142171711Y-16196762D01*
X162987379Y-16196762D02*
X152579545Y-16196762D01*
X173395213Y-16196762D02*
X162987379Y-16196762D01*
X186910881Y-16196762D02*
X173395213Y-16196762D01*
X110360937Y-16375961D02*
X110539303Y-16279210D01*
X110205570Y-16504123D02*
X110360937Y-16375961D01*
X110077409Y-16659489D02*
X110205570Y-16504123D01*
X109980657Y-16837855D02*
X110077409Y-16659489D01*
X109919523Y-17035015D02*
X109980657Y-16837855D01*
X109898210Y-17246762D02*
X109919523Y-17035015D01*
X110736462Y-16218075D02*
X110948210Y-16196762D01*
X110539303Y-16279210D02*
X110736462Y-16218075D01*
X121356044Y-16196762D02*
X110948210Y-16196762D01*
X82937528Y-63364495D02*
X82937528Y-57057562D01*
X82937528Y-44443695D02*
X82937528Y-38136762D01*
X82937777Y-88592317D02*
X72175000Y-132325000D01*
X112835230Y-138421062D02*
X114510925Y-137450923D01*
X111159536Y-139391201D02*
X112835230Y-138421062D01*
X109483841Y-140361340D02*
X111159536Y-139391201D01*
X107808147Y-141331479D02*
X109483841Y-140361340D01*
X106132452Y-142301617D02*
X107808147Y-141331479D01*
X104456758Y-143271756D02*
X106132452Y-142301617D01*
X169449826Y-135511658D02*
X176819348Y-135511658D01*
X162080304Y-135511658D02*
X169449826Y-135511658D01*
X154710782Y-135511658D02*
X162080304Y-135511658D01*
X147341260Y-135511658D02*
X154710782Y-135511658D01*
X139971738Y-135511658D02*
X147341260Y-135511658D01*
X132602217Y-135511658D02*
X139971738Y-135511658D01*
X125232695Y-135511658D02*
X132602217Y-135511658D01*
X117863173Y-135511658D02*
X125232695Y-135511658D01*
X178319348Y-132816013D02*
X178319348Y-134034052D01*
X178319348Y-131597973D02*
X178319348Y-132816013D01*
X178319348Y-130379933D02*
X178319348Y-131597973D01*
X178319348Y-129161894D02*
X178319348Y-130379933D01*
X178319348Y-127943854D02*
X178319348Y-129161894D01*
X178319348Y-126725814D02*
X178319348Y-127943854D01*
X178319348Y-125507775D02*
X178319348Y-126725814D01*
X178319348Y-124289735D02*
X178319348Y-125507775D01*
X177121844Y-135481211D02*
X176819348Y-135511658D01*
X177403500Y-135393876D02*
X177121844Y-135481211D01*
X243938471Y-21266190D02*
X240549319Y-20073847D01*
X245120000Y-22546755D02*
X243938471Y-21266190D01*
D10*
G36*
X102369020Y-76093380D02*
G01*
X105125480Y-76093380D01*
X105125480Y-77769390D01*
X102428570Y-77769390D01*
X102428570Y-78637170D01*
X105125480Y-78637170D01*
X105125480Y-80321670D01*
X102360501Y-80321670D01*
X102360501Y-81180960D01*
X105993290Y-81180960D01*
X105993290Y-75234090D01*
X102369020Y-75234090D01*
X102369020Y-76093380D01*
G37*
X102369020Y-76093380D02*
X105125480Y-76093380D01*
X105125480Y-77769390D01*
X102428570Y-77769390D01*
X102428570Y-78637170D01*
X105125480Y-78637170D01*
X105125480Y-80321670D01*
X102360501Y-80321670D01*
X102360501Y-81180960D01*
X105993290Y-81180960D01*
X105993290Y-75234090D01*
X102369020Y-75234090D01*
X102369020Y-76093380D01*
G36*
X98593730Y-78010980D02*
G01*
X98593730Y-78444840D01*
X100865270Y-81201330D01*
X101988290Y-81201330D01*
X99478520Y-78206640D01*
X101750060Y-75254460D01*
X100669610Y-75254460D01*
X98593730Y-78010980D01*
G37*
X98593730Y-78010980D02*
X98593730Y-78444840D01*
X100865270Y-81201330D01*
X101988290Y-81201330D01*
X99478520Y-78206640D01*
X101750060Y-75254460D01*
X100669610Y-75254460D01*
X98593730Y-78010980D01*
G36*
X95171900Y-84369510D02*
G01*
X95030240Y-84517680D01*
X94875980Y-84638550D01*
X94795070Y-84688740D01*
X94627790Y-84768690D01*
X94368950Y-84837450D01*
X94282160Y-84846780D01*
X94110110Y-84844920D01*
X93942770Y-84815880D01*
X93861890Y-84791130D01*
X93707570Y-84721260D01*
X93634940Y-84676110D01*
X93500690Y-84565440D01*
X93439910Y-84499920D01*
X93332810Y-84348450D01*
X93287390Y-84262560D01*
X93247850Y-84169860D01*
X93214640Y-84070380D01*
X93168650Y-83851050D01*
X93156680Y-83731230D01*
X93152600Y-83636250D01*
X93158150Y-83471520D01*
X93174410Y-83346420D01*
X93200990Y-83229390D01*
X93283400Y-83018760D01*
X93338360Y-82925040D01*
X93401990Y-82838881D01*
X93553400Y-82688881D01*
X93734180Y-82568040D01*
X93834560Y-82518270D01*
X93941030Y-82475460D01*
X94170530Y-82410480D01*
X94292660Y-82388010D01*
X94224620Y-81528720D01*
X93931250Y-81585720D01*
X93651500Y-81670710D01*
X93474200Y-81743010D01*
X93388700Y-81783841D01*
X93224570Y-81875010D01*
X93070490Y-81978810D01*
X92927330Y-82095301D01*
X92796140Y-82224510D01*
X92735390Y-82293900D01*
X92678000Y-82366500D01*
X92624030Y-82442310D01*
X92573690Y-82521360D01*
X92484350Y-82689060D01*
X92445560Y-82777770D01*
X92410910Y-82869720D01*
X92380430Y-82964940D01*
X92354360Y-83063340D01*
X92332730Y-83165040D01*
X92315690Y-83270040D01*
X92303360Y-83378250D01*
X92295890Y-83489790D01*
X92293370Y-83575890D01*
X92300540Y-83811150D01*
X92321450Y-84007980D01*
X92355500Y-84194910D01*
X92401940Y-84371940D01*
X92460110Y-84538950D01*
X92608700Y-84842370D01*
X92697740Y-84978600D01*
X92795690Y-85104330D01*
X92901860Y-85219530D01*
X93015500Y-85324017D01*
X93135950Y-85417734D01*
X93394400Y-85572369D01*
X93530990Y-85633083D01*
X93815480Y-85720791D01*
X93962000Y-85747566D01*
X94110350Y-85762800D01*
X94340000Y-85720000D01*
X94409990Y-85758273D01*
X94708730Y-85706371D01*
X95142980Y-85537833D01*
X95281250Y-85457040D01*
X95415021Y-85363761D01*
X95666600Y-85139340D01*
X96016821Y-84712770D01*
X97457540Y-82941000D01*
X97457540Y-85671966D01*
X98282750Y-85671966D01*
X98282750Y-81494730D01*
X97619150Y-81494730D01*
X95171900Y-84369510D01*
G37*
X95171900Y-84369510D02*
X95030240Y-84517680D01*
X94875980Y-84638550D01*
X94795070Y-84688740D01*
X94627790Y-84768690D01*
X94368950Y-84837450D01*
X94282160Y-84846780D01*
X94110110Y-84844920D01*
X93942770Y-84815880D01*
X93861890Y-84791130D01*
X93707570Y-84721260D01*
X93634940Y-84676110D01*
X93500690Y-84565440D01*
X93439910Y-84499920D01*
X93332810Y-84348450D01*
X93287390Y-84262560D01*
X93247850Y-84169860D01*
X93214640Y-84070380D01*
X93168650Y-83851050D01*
X93156680Y-83731230D01*
X93152600Y-83636250D01*
X93158150Y-83471520D01*
X93174410Y-83346420D01*
X93200990Y-83229390D01*
X93283400Y-83018760D01*
X93338360Y-82925040D01*
X93401990Y-82838881D01*
X93553400Y-82688881D01*
X93734180Y-82568040D01*
X93834560Y-82518270D01*
X93941030Y-82475460D01*
X94170530Y-82410480D01*
X94292660Y-82388010D01*
X94224620Y-81528720D01*
X93931250Y-81585720D01*
X93651500Y-81670710D01*
X93474200Y-81743010D01*
X93388700Y-81783841D01*
X93224570Y-81875010D01*
X93070490Y-81978810D01*
X92927330Y-82095301D01*
X92796140Y-82224510D01*
X92735390Y-82293900D01*
X92678000Y-82366500D01*
X92624030Y-82442310D01*
X92573690Y-82521360D01*
X92484350Y-82689060D01*
X92445560Y-82777770D01*
X92410910Y-82869720D01*
X92380430Y-82964940D01*
X92354360Y-83063340D01*
X92332730Y-83165040D01*
X92315690Y-83270040D01*
X92303360Y-83378250D01*
X92295890Y-83489790D01*
X92293370Y-83575890D01*
X92300540Y-83811150D01*
X92321450Y-84007980D01*
X92355500Y-84194910D01*
X92401940Y-84371940D01*
X92460110Y-84538950D01*
X92608700Y-84842370D01*
X92697740Y-84978600D01*
X92795690Y-85104330D01*
X92901860Y-85219530D01*
X93015500Y-85324017D01*
X93135950Y-85417734D01*
X93394400Y-85572369D01*
X93530990Y-85633083D01*
X93815480Y-85720791D01*
X93962000Y-85747566D01*
X94110350Y-85762800D01*
X94340000Y-85720000D01*
X94409990Y-85758273D01*
X94708730Y-85706371D01*
X95142980Y-85537833D01*
X95281250Y-85457040D01*
X95415021Y-85363761D01*
X95666600Y-85139340D01*
X96016821Y-84712770D01*
X97457540Y-82941000D01*
X97457540Y-85671966D01*
X98282750Y-85671966D01*
X98282750Y-81494730D01*
X97619150Y-81494730D01*
X95171900Y-84369510D01*
G36*
X95882690Y-75261150D02*
G01*
X95770910Y-75274560D01*
X95662940Y-75293010D01*
X95558750Y-75316350D01*
X95361740Y-75376920D01*
X95094650Y-75500040D01*
X95013200Y-75548970D01*
X94935530Y-75601500D01*
X94791560Y-75716880D01*
X94725290Y-75779310D01*
X94604030Y-75912840D01*
X94497950Y-76056750D01*
X94331270Y-76370010D01*
X94270610Y-76536540D01*
X94208120Y-76794810D01*
X94194861Y-76882380D01*
X94185410Y-76970520D01*
X94179710Y-77058900D01*
X94177820Y-77186760D01*
X94183910Y-77304720D01*
X94202120Y-77460151D01*
X94274870Y-77762100D01*
X94329321Y-77906941D01*
X94395860Y-78046500D01*
X94474400Y-78180000D01*
X94564910Y-78306600D01*
X94667390Y-78425400D01*
X94781810Y-78535560D01*
X94908140Y-78636270D01*
X95046410Y-78726690D01*
X95358410Y-78873090D01*
X95532140Y-78927420D01*
X95717690Y-78968040D01*
X93837530Y-81205590D01*
X94952030Y-81205590D01*
X97121450Y-78593760D01*
X97121450Y-78185400D01*
X96084740Y-78185400D01*
X95986250Y-78179430D01*
X95749311Y-78134040D01*
X95643650Y-78096180D01*
X95546540Y-78049171D01*
X95457890Y-77993790D01*
X95306150Y-77861010D01*
X95243000Y-77785080D01*
X95142020Y-77618130D01*
X95104250Y-77528550D01*
X95074820Y-77435941D01*
X95053850Y-77341020D01*
X95041280Y-77244600D01*
X95037080Y-77123520D01*
X95053850Y-76956630D01*
X95104250Y-76771230D01*
X95142020Y-76682460D01*
X95188280Y-76597380D01*
X95243000Y-76516710D01*
X95306150Y-76441290D01*
X95546540Y-76253940D01*
X95643650Y-76207050D01*
X95749311Y-76169250D01*
X95986250Y-76123980D01*
X97436240Y-76118010D01*
X97436240Y-81205590D01*
X98286981Y-81205590D01*
X98286981Y-75250230D01*
X95882690Y-75261150D01*
G37*
X95882690Y-75261150D02*
X95770910Y-75274560D01*
X95662940Y-75293010D01*
X95558750Y-75316350D01*
X95361740Y-75376920D01*
X95094650Y-75500040D01*
X95013200Y-75548970D01*
X94935530Y-75601500D01*
X94791560Y-75716880D01*
X94725290Y-75779310D01*
X94604030Y-75912840D01*
X94497950Y-76056750D01*
X94331270Y-76370010D01*
X94270610Y-76536540D01*
X94208120Y-76794810D01*
X94194861Y-76882380D01*
X94185410Y-76970520D01*
X94179710Y-77058900D01*
X94177820Y-77186760D01*
X94183910Y-77304720D01*
X94202120Y-77460151D01*
X94274870Y-77762100D01*
X94329321Y-77906941D01*
X94395860Y-78046500D01*
X94474400Y-78180000D01*
X94564910Y-78306600D01*
X94667390Y-78425400D01*
X94781810Y-78535560D01*
X94908140Y-78636270D01*
X95046410Y-78726690D01*
X95358410Y-78873090D01*
X95532140Y-78927420D01*
X95717690Y-78968040D01*
X93837530Y-81205590D01*
X94952030Y-81205590D01*
X97121450Y-78593760D01*
X97121450Y-78185400D01*
X96084740Y-78185400D01*
X95986250Y-78179430D01*
X95749311Y-78134040D01*
X95643650Y-78096180D01*
X95546540Y-78049171D01*
X95457890Y-77993790D01*
X95306150Y-77861010D01*
X95243000Y-77785080D01*
X95142020Y-77618130D01*
X95104250Y-77528550D01*
X95074820Y-77435941D01*
X95053850Y-77341020D01*
X95041280Y-77244600D01*
X95037080Y-77123520D01*
X95053850Y-76956630D01*
X95104250Y-76771230D01*
X95142020Y-76682460D01*
X95188280Y-76597380D01*
X95243000Y-76516710D01*
X95306150Y-76441290D01*
X95546540Y-76253940D01*
X95643650Y-76207050D01*
X95749311Y-76169250D01*
X95986250Y-76123980D01*
X97436240Y-76118010D01*
X97436240Y-81205590D01*
X98286981Y-81205590D01*
X98286981Y-75250230D01*
X95882690Y-75261150D01*
G36*
X103733930Y-81490680D02*
G01*
X103503771Y-81523651D01*
X103275620Y-81589170D01*
X103163570Y-81633960D01*
X102946520Y-81747300D01*
X102742280Y-81891960D01*
X102646370Y-81975840D01*
X102555321Y-82067401D01*
X102469640Y-82166460D01*
X102389960Y-82273080D01*
X102316700Y-82387140D01*
X102265940Y-82477680D01*
X102250490Y-82508580D01*
X102188990Y-82394040D01*
X102041810Y-82198500D01*
X101958290Y-82116331D01*
X101869400Y-82043880D01*
X101776280Y-81980580D01*
X101679980Y-81925920D01*
X101581430Y-81879300D01*
X101481770Y-81840210D01*
X101382020Y-81808081D01*
X101186270Y-81762630D01*
X101002490Y-81738540D01*
X100838900Y-81731460D01*
X100718690Y-81735060D01*
X100602500Y-81744090D01*
X100277750Y-81802020D01*
X99988640Y-81902250D01*
X99900140Y-81944190D01*
X99815540Y-81990060D01*
X99585080Y-82149480D01*
X99331700Y-82405710D01*
X99139250Y-82700970D01*
X99100580Y-82779480D01*
X99065600Y-82859430D01*
X99034400Y-82940670D01*
X99006890Y-83023080D01*
X98946620Y-83275050D01*
X98924780Y-83445090D01*
X98919350Y-83530230D01*
X98920311Y-83731260D01*
X98942060Y-83952600D01*
X98960690Y-84057750D01*
X98984270Y-84159271D01*
X99101873Y-84469218D01*
X99169940Y-84611670D01*
X99219440Y-84691110D01*
X99272660Y-84766860D01*
X99452870Y-84972090D01*
X99588350Y-85090500D01*
X99734540Y-85194120D01*
X99811160Y-85240380D01*
X99890000Y-85282980D01*
X99970790Y-85321866D01*
X100053320Y-85357053D01*
X100137530Y-85388565D01*
X100310121Y-85440453D01*
X100576790Y-85490521D01*
X100757780Y-85505346D01*
X100872530Y-85507221D01*
X101042030Y-85495011D01*
X101141870Y-85479873D01*
X101344040Y-85431777D01*
X101444750Y-85398967D01*
X101641490Y-85316103D01*
X101735960Y-85266180D01*
X101826770Y-85210680D01*
X101913110Y-85149630D01*
X101994230Y-85083150D01*
X102069320Y-85011270D01*
X102137570Y-84934050D01*
X102198230Y-84851580D01*
X102250490Y-84763890D01*
X102311750Y-84887820D01*
X102381081Y-85003140D01*
X102457911Y-85109940D01*
X102631370Y-85298232D01*
X102827150Y-85453425D01*
X102931820Y-85518825D01*
X103040150Y-85576194D01*
X103265330Y-85667244D01*
X103380890Y-85701081D01*
X103497620Y-85727253D01*
X103614860Y-85745842D01*
X103731981Y-85756941D01*
X103872500Y-85760619D01*
X104041100Y-85752204D01*
X104232350Y-85726977D01*
X104326941Y-85708065D01*
X104420570Y-85684938D01*
X104604230Y-85626132D01*
X104781950Y-85550529D01*
X104868020Y-85506438D01*
X104952080Y-85458162D01*
X105033830Y-85405704D01*
X105113120Y-85349049D01*
X105189830Y-85288200D01*
X105263660Y-85223190D01*
X105402111Y-85080600D01*
X105466370Y-85003050D01*
X105527030Y-84921300D01*
X105583910Y-84835380D01*
X105636830Y-84745290D01*
X105685610Y-84651030D01*
X105730070Y-84552600D01*
X105805190Y-84343200D01*
X105835490Y-84232260D01*
X105860750Y-84117180D01*
X105880640Y-83997900D01*
X105895160Y-83874480D01*
X105903980Y-83746890D01*
X105906950Y-83648040D01*
X105904160Y-83484900D01*
X105895820Y-83358750D01*
X105882080Y-83236680D01*
X105863150Y-83118690D01*
X105839150Y-83004720D01*
X105810230Y-82894860D01*
X105776570Y-82789110D01*
X105738320Y-82687440D01*
X105695660Y-82589850D01*
X105648650Y-82496341D01*
X105542540Y-82321710D01*
X105483650Y-82240560D01*
X105421100Y-82163550D01*
X105355070Y-82090650D01*
X105285740Y-82021860D01*
X105083721Y-81860052D01*
X104977910Y-81788100D01*
X104894150Y-81740010D01*
X104807990Y-81696090D01*
X104536610Y-81589350D01*
X104442410Y-81562080D01*
X104346560Y-81539010D01*
X104249240Y-81520140D01*
X103873790Y-81486510D01*
X103733930Y-81490680D01*
G37*
X103733930Y-81490680D02*
X103503771Y-81523651D01*
X103275620Y-81589170D01*
X103163570Y-81633960D01*
X102946520Y-81747300D01*
X102742280Y-81891960D01*
X102646370Y-81975840D01*
X102555321Y-82067401D01*
X102469640Y-82166460D01*
X102389960Y-82273080D01*
X102316700Y-82387140D01*
X102265940Y-82477680D01*
X102250490Y-82508580D01*
X102188990Y-82394040D01*
X102041810Y-82198500D01*
X101958290Y-82116331D01*
X101869400Y-82043880D01*
X101776280Y-81980580D01*
X101679980Y-81925920D01*
X101581430Y-81879300D01*
X101481770Y-81840210D01*
X101382020Y-81808081D01*
X101186270Y-81762630D01*
X101002490Y-81738540D01*
X100838900Y-81731460D01*
X100718690Y-81735060D01*
X100602500Y-81744090D01*
X100277750Y-81802020D01*
X99988640Y-81902250D01*
X99900140Y-81944190D01*
X99815540Y-81990060D01*
X99585080Y-82149480D01*
X99331700Y-82405710D01*
X99139250Y-82700970D01*
X99100580Y-82779480D01*
X99065600Y-82859430D01*
X99034400Y-82940670D01*
X99006890Y-83023080D01*
X98946620Y-83275050D01*
X98924780Y-83445090D01*
X98919350Y-83530230D01*
X98920311Y-83731260D01*
X98942060Y-83952600D01*
X98960690Y-84057750D01*
X98984270Y-84159271D01*
X99101873Y-84469218D01*
X99169940Y-84611670D01*
X99219440Y-84691110D01*
X99272660Y-84766860D01*
X99452870Y-84972090D01*
X99588350Y-85090500D01*
X99734540Y-85194120D01*
X99811160Y-85240380D01*
X99890000Y-85282980D01*
X99970790Y-85321866D01*
X100053320Y-85357053D01*
X100137530Y-85388565D01*
X100310121Y-85440453D01*
X100576790Y-85490521D01*
X100757780Y-85505346D01*
X100872530Y-85507221D01*
X101042030Y-85495011D01*
X101141870Y-85479873D01*
X101344040Y-85431777D01*
X101444750Y-85398967D01*
X101641490Y-85316103D01*
X101735960Y-85266180D01*
X101826770Y-85210680D01*
X101913110Y-85149630D01*
X101994230Y-85083150D01*
X102069320Y-85011270D01*
X102137570Y-84934050D01*
X102198230Y-84851580D01*
X102250490Y-84763890D01*
X102311750Y-84887820D01*
X102381081Y-85003140D01*
X102457911Y-85109940D01*
X102631370Y-85298232D01*
X102827150Y-85453425D01*
X102931820Y-85518825D01*
X103040150Y-85576194D01*
X103265330Y-85667244D01*
X103380890Y-85701081D01*
X103497620Y-85727253D01*
X103614860Y-85745842D01*
X103731981Y-85756941D01*
X103872500Y-85760619D01*
X104041100Y-85752204D01*
X104232350Y-85726977D01*
X104326941Y-85708065D01*
X104420570Y-85684938D01*
X104604230Y-85626132D01*
X104781950Y-85550529D01*
X104868020Y-85506438D01*
X104952080Y-85458162D01*
X105033830Y-85405704D01*
X105113120Y-85349049D01*
X105189830Y-85288200D01*
X105263660Y-85223190D01*
X105402111Y-85080600D01*
X105466370Y-85003050D01*
X105527030Y-84921300D01*
X105583910Y-84835380D01*
X105636830Y-84745290D01*
X105685610Y-84651030D01*
X105730070Y-84552600D01*
X105805190Y-84343200D01*
X105835490Y-84232260D01*
X105860750Y-84117180D01*
X105880640Y-83997900D01*
X105895160Y-83874480D01*
X105903980Y-83746890D01*
X105906950Y-83648040D01*
X105904160Y-83484900D01*
X105895820Y-83358750D01*
X105882080Y-83236680D01*
X105863150Y-83118690D01*
X105839150Y-83004720D01*
X105810230Y-82894860D01*
X105776570Y-82789110D01*
X105738320Y-82687440D01*
X105695660Y-82589850D01*
X105648650Y-82496341D01*
X105542540Y-82321710D01*
X105483650Y-82240560D01*
X105421100Y-82163550D01*
X105355070Y-82090650D01*
X105285740Y-82021860D01*
X105083721Y-81860052D01*
X104977910Y-81788100D01*
X104894150Y-81740010D01*
X104807990Y-81696090D01*
X104536610Y-81589350D01*
X104442410Y-81562080D01*
X104346560Y-81539010D01*
X104249240Y-81520140D01*
X103873790Y-81486510D01*
X103733930Y-81490680D01*
G36*
G01*
X241800000Y-85720000D02*
X241800000Y-88120000D01*
G75*
G02*
X241600000Y-88320000I-200000J0D01*
G01*
X239200000Y-88320000D01*
G75*
G02*
X239000000Y-88120000I0J200000D01*
G01*
X239000000Y-85720000D01*
G75*
G02*
X239200000Y-85520000I200000J0D01*
G01*
X241600000Y-85520000D01*
G75*
G02*
X241800000Y-85720000I0J-200000D01*
G01*
G37*
D16*
X230890000Y-89459999D03*
D17*
X229620000Y-92000000D03*
X239780000Y-92000000D03*
D18*
X240200000Y-92000000D03*
X229200000Y-92000000D03*
D19*
X234700000Y-92000000D03*
D16*
X237240000Y-86920000D03*
G36*
G01*
X229250000Y-88210000D02*
X229250000Y-90710000D01*
G75*
G02*
X229050000Y-90910000I-200000J0D01*
G01*
X226550000Y-90910000D01*
G75*
G02*
X226350000Y-90710000I0J200000D01*
G01*
X226350000Y-88210000D01*
G75*
G02*
X226550000Y-88010000I200000J0D01*
G01*
X229050000Y-88010000D01*
G75*
G02*
X229250000Y-88210000I0J-200000D01*
G01*
G37*
D20*
X230875000Y-89420000D03*
X238525000Y-89420000D03*
D16*
X232160000Y-86920000D03*
X238510000Y-89460000D03*
X238510000Y-89460000D03*
G36*
G01*
X241350000Y-87650000D02*
X241350000Y-86150000D01*
G75*
G02*
X241550000Y-85950000I200000J0D01*
G01*
X242250000Y-85950000D01*
G75*
G02*
X242450000Y-86150000I0J-200000D01*
G01*
X242450000Y-87650000D01*
G75*
G02*
X242250000Y-87850000I-200000J0D01*
G01*
X241550000Y-87850000D01*
G75*
G02*
X241350000Y-87650000I0J200000D01*
G01*
G37*
G36*
G01*
X225650000Y-90250000D02*
X225650000Y-88750000D01*
G75*
G02*
X225850000Y-88550000I200000J0D01*
G01*
X226550000Y-88550000D01*
G75*
G02*
X226750000Y-88750000I0J-200000D01*
G01*
X226750000Y-90250000D01*
G75*
G02*
X226550000Y-90450000I-200000J0D01*
G01*
X225850000Y-90450000D01*
G75*
G02*
X225650000Y-90250000I0J200000D01*
G01*
G37*
G36*
G01*
X115450000Y-22100000D02*
X115450000Y-21250000D01*
G75*
G02*
X115650000Y-21050000I200000J0D01*
G01*
X117250000Y-21050000D01*
G75*
G02*
X117450000Y-21250000I0J-200000D01*
G01*
X117450000Y-22100000D01*
G75*
G02*
X117250000Y-22300000I-200000J0D01*
G01*
X115650000Y-22300000D01*
G75*
G02*
X115450000Y-22100000I0J200000D01*
G01*
G37*
G36*
G01*
X115450000Y-20350000D02*
X115450000Y-19500000D01*
G75*
G02*
X115650000Y-19300000I200000J0D01*
G01*
X117250000Y-19300000D01*
G75*
G02*
X117450000Y-19500000I0J-200000D01*
G01*
X117450000Y-20350000D01*
G75*
G02*
X117250000Y-20550000I-200000J0D01*
G01*
X115650000Y-20550000D01*
G75*
G02*
X115450000Y-20350000I0J200000D01*
G01*
G37*
G36*
G01*
X118950000Y-22100000D02*
X118950000Y-21250000D01*
G75*
G02*
X119150000Y-21050000I200000J0D01*
G01*
X120750000Y-21050000D01*
G75*
G02*
X120950000Y-21250000I0J-200000D01*
G01*
X120950000Y-22100000D01*
G75*
G02*
X120750000Y-22300000I-200000J0D01*
G01*
X119150000Y-22300000D01*
G75*
G02*
X118950000Y-22100000I0J200000D01*
G01*
G37*
G36*
G01*
X118950000Y-20350000D02*
X118950000Y-19500000D01*
G75*
G02*
X119150000Y-19300000I200000J0D01*
G01*
X120750000Y-19300000D01*
G75*
G02*
X120950000Y-19500000I0J-200000D01*
G01*
X120950000Y-20350000D01*
G75*
G02*
X120750000Y-20550000I-200000J0D01*
G01*
X119150000Y-20550000D01*
G75*
G02*
X118950000Y-20350000I0J200000D01*
G01*
G37*
G36*
G01*
X189650000Y-22300000D02*
X189650000Y-21450000D01*
G75*
G02*
X189850000Y-21250000I200000J0D01*
G01*
X191450000Y-21250000D01*
G75*
G02*
X191650000Y-21450000I0J-200000D01*
G01*
X191650000Y-22300000D01*
G75*
G02*
X191450000Y-22500000I-200000J0D01*
G01*
X189850000Y-22500000D01*
G75*
G02*
X189650000Y-22300000I0J200000D01*
G01*
G37*
G36*
G01*
X189650000Y-20550000D02*
X189650000Y-19700000D01*
G75*
G02*
X189850000Y-19500000I200000J0D01*
G01*
X191450000Y-19500000D01*
G75*
G02*
X191650000Y-19700000I0J-200000D01*
G01*
X191650000Y-20550000D01*
G75*
G02*
X191450000Y-20750000I-200000J0D01*
G01*
X189850000Y-20750000D01*
G75*
G02*
X189650000Y-20550000I0J200000D01*
G01*
G37*
G36*
G01*
X193150000Y-22300000D02*
X193150000Y-21450000D01*
G75*
G02*
X193350000Y-21250000I200000J0D01*
G01*
X194950000Y-21250000D01*
G75*
G02*
X195150000Y-21450000I0J-200000D01*
G01*
X195150000Y-22300000D01*
G75*
G02*
X194950000Y-22500000I-200000J0D01*
G01*
X193350000Y-22500000D01*
G75*
G02*
X193150000Y-22300000I0J200000D01*
G01*
G37*
G36*
G01*
X193150000Y-20550000D02*
X193150000Y-19700000D01*
G75*
G02*
X193350000Y-19500000I200000J0D01*
G01*
X194950000Y-19500000D01*
G75*
G02*
X195150000Y-19700000I0J-200000D01*
G01*
X195150000Y-20550000D01*
G75*
G02*
X194950000Y-20750000I-200000J0D01*
G01*
X193350000Y-20750000D01*
G75*
G02*
X193150000Y-20550000I0J200000D01*
G01*
G37*
G36*
G01*
X234650000Y-24900000D02*
X234650000Y-24050000D01*
G75*
G02*
X234850000Y-23850000I200000J0D01*
G01*
X236450000Y-23850000D01*
G75*
G02*
X236650000Y-24050000I0J-200000D01*
G01*
X236650000Y-24900000D01*
G75*
G02*
X236450000Y-25100000I-200000J0D01*
G01*
X234850000Y-25100000D01*
G75*
G02*
X234650000Y-24900000I0J200000D01*
G01*
G37*
G36*
G01*
X234650000Y-23150000D02*
X234650000Y-22300000D01*
G75*
G02*
X234850000Y-22100000I200000J0D01*
G01*
X236450000Y-22100000D01*
G75*
G02*
X236650000Y-22300000I0J-200000D01*
G01*
X236650000Y-23150000D01*
G75*
G02*
X236450000Y-23350000I-200000J0D01*
G01*
X234850000Y-23350000D01*
G75*
G02*
X234650000Y-23150000I0J200000D01*
G01*
G37*
G36*
G01*
X238150000Y-24900000D02*
X238150000Y-24050000D01*
G75*
G02*
X238350000Y-23850000I200000J0D01*
G01*
X239950000Y-23850000D01*
G75*
G02*
X240150000Y-24050000I0J-200000D01*
G01*
X240150000Y-24900000D01*
G75*
G02*
X239950000Y-25100000I-200000J0D01*
G01*
X238350000Y-25100000D01*
G75*
G02*
X238150000Y-24900000I0J200000D01*
G01*
G37*
G36*
G01*
X238150000Y-23150000D02*
X238150000Y-22300000D01*
G75*
G02*
X238350000Y-22100000I200000J0D01*
G01*
X239950000Y-22100000D01*
G75*
G02*
X240150000Y-22300000I0J-200000D01*
G01*
X240150000Y-23150000D01*
G75*
G02*
X239950000Y-23350000I-200000J0D01*
G01*
X238350000Y-23350000D01*
G75*
G02*
X238150000Y-23150000I0J200000D01*
G01*
G37*
G36*
G01*
X239900000Y-78250000D02*
X240750000Y-78250000D01*
G75*
G02*
X240950000Y-78450000I0J-200000D01*
G01*
X240950000Y-80050000D01*
G75*
G02*
X240750000Y-80250000I-200000J0D01*
G01*
X239900000Y-80250000D01*
G75*
G02*
X239700000Y-80050000I0J200000D01*
G01*
X239700000Y-78450000D01*
G75*
G02*
X239900000Y-78250000I200000J0D01*
G01*
G37*
G36*
G01*
X241650000Y-78250000D02*
X242500000Y-78250000D01*
G75*
G02*
X242700000Y-78450000I0J-200000D01*
G01*
X242700000Y-80050000D01*
G75*
G02*
X242500000Y-80250000I-200000J0D01*
G01*
X241650000Y-80250000D01*
G75*
G02*
X241450000Y-80050000I0J200000D01*
G01*
X241450000Y-78450000D01*
G75*
G02*
X241650000Y-78250000I200000J0D01*
G01*
G37*
G36*
G01*
X239900000Y-81750000D02*
X240750000Y-81750000D01*
G75*
G02*
X240950000Y-81950000I0J-200000D01*
G01*
X240950000Y-83550000D01*
G75*
G02*
X240750000Y-83750000I-200000J0D01*
G01*
X239900000Y-83750000D01*
G75*
G02*
X239700000Y-83550000I0J200000D01*
G01*
X239700000Y-81950000D01*
G75*
G02*
X239900000Y-81750000I200000J0D01*
G01*
G37*
G36*
G01*
X241650000Y-81750000D02*
X242500000Y-81750000D01*
G75*
G02*
X242700000Y-81950000I0J-200000D01*
G01*
X242700000Y-83550000D01*
G75*
G02*
X242500000Y-83750000I-200000J0D01*
G01*
X241650000Y-83750000D01*
G75*
G02*
X241450000Y-83550000I0J200000D01*
G01*
X241450000Y-81950000D01*
G75*
G02*
X241650000Y-81750000I200000J0D01*
G01*
G37*
G36*
G01*
X243350000Y-115700000D02*
X243350000Y-116550000D01*
G75*
G02*
X243150000Y-116750000I-200000J0D01*
G01*
X241550000Y-116750000D01*
G75*
G02*
X241350000Y-116550000I0J200000D01*
G01*
X241350000Y-115700000D01*
G75*
G02*
X241550000Y-115500000I200000J0D01*
G01*
X243150000Y-115500000D01*
G75*
G02*
X243350000Y-115700000I0J-200000D01*
G01*
G37*
G36*
G01*
X243350000Y-117450000D02*
X243350000Y-118300000D01*
G75*
G02*
X243150000Y-118500000I-200000J0D01*
G01*
X241550000Y-118500000D01*
G75*
G02*
X241350000Y-118300000I0J200000D01*
G01*
X241350000Y-117450000D01*
G75*
G02*
X241550000Y-117250000I200000J0D01*
G01*
X243150000Y-117250000D01*
G75*
G02*
X243350000Y-117450000I0J-200000D01*
G01*
G37*
G36*
G01*
X239850000Y-115700000D02*
X239850000Y-116550000D01*
G75*
G02*
X239650000Y-116750000I-200000J0D01*
G01*
X238050000Y-116750000D01*
G75*
G02*
X237850000Y-116550000I0J200000D01*
G01*
X237850000Y-115700000D01*
G75*
G02*
X238050000Y-115500000I200000J0D01*
G01*
X239650000Y-115500000D01*
G75*
G02*
X239850000Y-115700000I0J-200000D01*
G01*
G37*
G36*
G01*
X239850000Y-117450000D02*
X239850000Y-118300000D01*
G75*
G02*
X239650000Y-118500000I-200000J0D01*
G01*
X238050000Y-118500000D01*
G75*
G02*
X237850000Y-118300000I0J200000D01*
G01*
X237850000Y-117450000D01*
G75*
G02*
X238050000Y-117250000I200000J0D01*
G01*
X239650000Y-117250000D01*
G75*
G02*
X239850000Y-117450000I0J-200000D01*
G01*
G37*
G36*
G01*
X209150000Y-115500000D02*
X209150000Y-116350000D01*
G75*
G02*
X208950000Y-116550000I-200000J0D01*
G01*
X207350000Y-116550000D01*
G75*
G02*
X207150000Y-116350000I0J200000D01*
G01*
X207150000Y-115500000D01*
G75*
G02*
X207350000Y-115300000I200000J0D01*
G01*
X208950000Y-115300000D01*
G75*
G02*
X209150000Y-115500000I0J-200000D01*
G01*
G37*
G36*
G01*
X209150000Y-117250000D02*
X209150000Y-118100000D01*
G75*
G02*
X208950000Y-118300000I-200000J0D01*
G01*
X207350000Y-118300000D01*
G75*
G02*
X207150000Y-118100000I0J200000D01*
G01*
X207150000Y-117250000D01*
G75*
G02*
X207350000Y-117050000I200000J0D01*
G01*
X208950000Y-117050000D01*
G75*
G02*
X209150000Y-117250000I0J-200000D01*
G01*
G37*
G36*
G01*
X205650000Y-115500000D02*
X205650000Y-116350000D01*
G75*
G02*
X205450000Y-116550000I-200000J0D01*
G01*
X203850000Y-116550000D01*
G75*
G02*
X203650000Y-116350000I0J200000D01*
G01*
X203650000Y-115500000D01*
G75*
G02*
X203850000Y-115300000I200000J0D01*
G01*
X205450000Y-115300000D01*
G75*
G02*
X205650000Y-115500000I0J-200000D01*
G01*
G37*
G36*
G01*
X205650000Y-117250000D02*
X205650000Y-118100000D01*
G75*
G02*
X205450000Y-118300000I-200000J0D01*
G01*
X203850000Y-118300000D01*
G75*
G02*
X203650000Y-118100000I0J200000D01*
G01*
X203650000Y-117250000D01*
G75*
G02*
X203850000Y-117050000I200000J0D01*
G01*
X205450000Y-117050000D01*
G75*
G02*
X205650000Y-117250000I0J-200000D01*
G01*
G37*
G36*
G01*
X176350000Y-131100000D02*
X176350000Y-131950000D01*
G75*
G02*
X176150000Y-132150000I-200000J0D01*
G01*
X174550000Y-132150000D01*
G75*
G02*
X174350000Y-131950000I0J200000D01*
G01*
X174350000Y-131100000D01*
G75*
G02*
X174550000Y-130900000I200000J0D01*
G01*
X176150000Y-130900000D01*
G75*
G02*
X176350000Y-131100000I0J-200000D01*
G01*
G37*
G36*
G01*
X176350000Y-132850000D02*
X176350000Y-133700000D01*
G75*
G02*
X176150000Y-133900000I-200000J0D01*
G01*
X174550000Y-133900000D01*
G75*
G02*
X174350000Y-133700000I0J200000D01*
G01*
X174350000Y-132850000D01*
G75*
G02*
X174550000Y-132650000I200000J0D01*
G01*
X176150000Y-132650000D01*
G75*
G02*
X176350000Y-132850000I0J-200000D01*
G01*
G37*
G36*
G01*
X172850000Y-131100000D02*
X172850000Y-131950000D01*
G75*
G02*
X172650000Y-132150000I-200000J0D01*
G01*
X171050000Y-132150000D01*
G75*
G02*
X170850000Y-131950000I0J200000D01*
G01*
X170850000Y-131100000D01*
G75*
G02*
X171050000Y-130900000I200000J0D01*
G01*
X172650000Y-130900000D01*
G75*
G02*
X172850000Y-131100000I0J-200000D01*
G01*
G37*
G36*
G01*
X172850000Y-132850000D02*
X172850000Y-133700000D01*
G75*
G02*
X172650000Y-133900000I-200000J0D01*
G01*
X171050000Y-133900000D01*
G75*
G02*
X170850000Y-133700000I0J200000D01*
G01*
X170850000Y-132850000D01*
G75*
G02*
X171050000Y-132650000I200000J0D01*
G01*
X172650000Y-132650000D01*
G75*
G02*
X172850000Y-132850000I0J-200000D01*
G01*
G37*
G36*
G01*
X128550000Y-131500000D02*
X128550000Y-132350000D01*
G75*
G02*
X128350000Y-132550000I-200000J0D01*
G01*
X126750000Y-132550000D01*
G75*
G02*
X126550000Y-132350000I0J200000D01*
G01*
X126550000Y-131500000D01*
G75*
G02*
X126750000Y-131300000I200000J0D01*
G01*
X128350000Y-131300000D01*
G75*
G02*
X128550000Y-131500000I0J-200000D01*
G01*
G37*
G36*
G01*
X128550000Y-133250000D02*
X128550000Y-134100000D01*
G75*
G02*
X128350000Y-134300000I-200000J0D01*
G01*
X126750000Y-134300000D01*
G75*
G02*
X126550000Y-134100000I0J200000D01*
G01*
X126550000Y-133250000D01*
G75*
G02*
X126750000Y-133050000I200000J0D01*
G01*
X128350000Y-133050000D01*
G75*
G02*
X128550000Y-133250000I0J-200000D01*
G01*
G37*
G36*
G01*
X125050000Y-131500000D02*
X125050000Y-132350000D01*
G75*
G02*
X124850000Y-132550000I-200000J0D01*
G01*
X123250000Y-132550000D01*
G75*
G02*
X123050000Y-132350000I0J200000D01*
G01*
X123050000Y-131500000D01*
G75*
G02*
X123250000Y-131300000I200000J0D01*
G01*
X124850000Y-131300000D01*
G75*
G02*
X125050000Y-131500000I0J-200000D01*
G01*
G37*
G36*
G01*
X125050000Y-133250000D02*
X125050000Y-134100000D01*
G75*
G02*
X124850000Y-134300000I-200000J0D01*
G01*
X123250000Y-134300000D01*
G75*
G02*
X123050000Y-134100000I0J200000D01*
G01*
X123050000Y-133250000D01*
G75*
G02*
X123250000Y-133050000I200000J0D01*
G01*
X124850000Y-133050000D01*
G75*
G02*
X125050000Y-133250000I0J-200000D01*
G01*
G37*
G36*
G01*
X103131569Y-138299167D02*
X103556569Y-139035289D01*
G75*
G02*
X103483364Y-139308494I-173205J-100000D01*
G01*
X102097724Y-140108494D01*
G75*
G02*
X101824519Y-140035289I-100000J173205D01*
G01*
X101399519Y-139299167D01*
G75*
G02*
X101472724Y-139025962I173205J100000D01*
G01*
X102858364Y-138225962D01*
G75*
G02*
X103131569Y-138299167I100000J-173205D01*
G01*
G37*
G36*
G01*
X104006569Y-139814711D02*
X104431569Y-140550833D01*
G75*
G02*
X104358364Y-140824038I-173205J-100000D01*
G01*
X102972724Y-141624038D01*
G75*
G02*
X102699519Y-141550833I-100000J173205D01*
G01*
X102274519Y-140814711D01*
G75*
G02*
X102347724Y-140541506I173205J100000D01*
G01*
X103733364Y-139741506D01*
G75*
G02*
X104006569Y-139814711I100000J-173205D01*
G01*
G37*
G36*
G01*
X100100481Y-140049167D02*
X100525481Y-140785289D01*
G75*
G02*
X100452276Y-141058494I-173205J-100000D01*
G01*
X99066636Y-141858494D01*
G75*
G02*
X98793431Y-141785289I-100000J173205D01*
G01*
X98368431Y-141049167D01*
G75*
G02*
X98441636Y-140775962I173205J100000D01*
G01*
X99827276Y-139975962D01*
G75*
G02*
X100100481Y-140049167I100000J-173205D01*
G01*
G37*
G36*
G01*
X100975481Y-141564711D02*
X101400481Y-142300833D01*
G75*
G02*
X101327276Y-142574038I-173205J-100000D01*
G01*
X99941636Y-143374038D01*
G75*
G02*
X99668431Y-143300833I-100000J173205D01*
G01*
X99243431Y-142564711D01*
G75*
G02*
X99316636Y-142291506I173205J100000D01*
G01*
X100702276Y-141491506D01*
G75*
G02*
X100975481Y-141564711I100000J-173205D01*
G01*
G37*
G36*
G01*
X81700000Y-122550000D02*
X80850000Y-122550000D01*
G75*
G02*
X80650000Y-122350000I0J200000D01*
G01*
X80650000Y-120750000D01*
G75*
G02*
X80850000Y-120550000I200000J0D01*
G01*
X81700000Y-120550000D01*
G75*
G02*
X81900000Y-120750000I0J-200000D01*
G01*
X81900000Y-122350000D01*
G75*
G02*
X81700000Y-122550000I-200000J0D01*
G01*
G37*
G36*
G01*
X79950000Y-122550000D02*
X79100000Y-122550000D01*
G75*
G02*
X78900000Y-122350000I0J200000D01*
G01*
X78900000Y-120750000D01*
G75*
G02*
X79100000Y-120550000I200000J0D01*
G01*
X79950000Y-120550000D01*
G75*
G02*
X80150000Y-120750000I0J-200000D01*
G01*
X80150000Y-122350000D01*
G75*
G02*
X79950000Y-122550000I-200000J0D01*
G01*
G37*
G36*
G01*
X81700000Y-119050000D02*
X80850000Y-119050000D01*
G75*
G02*
X80650000Y-118850000I0J200000D01*
G01*
X80650000Y-117250000D01*
G75*
G02*
X80850000Y-117050000I200000J0D01*
G01*
X81700000Y-117050000D01*
G75*
G02*
X81900000Y-117250000I0J-200000D01*
G01*
X81900000Y-118850000D01*
G75*
G02*
X81700000Y-119050000I-200000J0D01*
G01*
G37*
G36*
G01*
X79950000Y-119050000D02*
X79100000Y-119050000D01*
G75*
G02*
X78900000Y-118850000I0J200000D01*
G01*
X78900000Y-117250000D01*
G75*
G02*
X79100000Y-117050000I200000J0D01*
G01*
X79950000Y-117050000D01*
G75*
G02*
X80150000Y-117250000I0J-200000D01*
G01*
X80150000Y-118850000D01*
G75*
G02*
X79950000Y-119050000I-200000J0D01*
G01*
G37*
G36*
G01*
X88300000Y-88150000D02*
X87450000Y-88150000D01*
G75*
G02*
X87250000Y-87950000I0J200000D01*
G01*
X87250000Y-86350000D01*
G75*
G02*
X87450000Y-86150000I200000J0D01*
G01*
X88300000Y-86150000D01*
G75*
G02*
X88500000Y-86350000I0J-200000D01*
G01*
X88500000Y-87950000D01*
G75*
G02*
X88300000Y-88150000I-200000J0D01*
G01*
G37*
G36*
G01*
X86550000Y-88150000D02*
X85700000Y-88150000D01*
G75*
G02*
X85500000Y-87950000I0J200000D01*
G01*
X85500000Y-86350000D01*
G75*
G02*
X85700000Y-86150000I200000J0D01*
G01*
X86550000Y-86150000D01*
G75*
G02*
X86750000Y-86350000I0J-200000D01*
G01*
X86750000Y-87950000D01*
G75*
G02*
X86550000Y-88150000I-200000J0D01*
G01*
G37*
G36*
G01*
X88300000Y-84650000D02*
X87450000Y-84650000D01*
G75*
G02*
X87250000Y-84450000I0J200000D01*
G01*
X87250000Y-82850000D01*
G75*
G02*
X87450000Y-82650000I200000J0D01*
G01*
X88300000Y-82650000D01*
G75*
G02*
X88500000Y-82850000I0J-200000D01*
G01*
X88500000Y-84450000D01*
G75*
G02*
X88300000Y-84650000I-200000J0D01*
G01*
G37*
G36*
G01*
X86550000Y-84650000D02*
X85700000Y-84650000D01*
G75*
G02*
X85500000Y-84450000I0J200000D01*
G01*
X85500000Y-82850000D01*
G75*
G02*
X85700000Y-82650000I200000J0D01*
G01*
X86550000Y-82650000D01*
G75*
G02*
X86750000Y-82850000I0J-200000D01*
G01*
X86750000Y-84450000D01*
G75*
G02*
X86550000Y-84650000I-200000J0D01*
G01*
G37*
G36*
G01*
X87100000Y-75900000D02*
X87100000Y-74900000D01*
G75*
G02*
X87300000Y-74700000I200000J0D01*
G01*
X88300000Y-74700000D01*
G75*
G02*
X88500000Y-74900000I0J-200000D01*
G01*
X88500000Y-75900000D01*
G75*
G02*
X88300000Y-76100000I-200000J0D01*
G01*
X87300000Y-76100000D01*
G75*
G02*
X87100000Y-75900000I0J200000D01*
G01*
G37*
G36*
G01*
X96668639Y-140008780D02*
X94590179Y-141208780D01*
G75*
G02*
X94316974Y-141135575I-100000J173205D01*
G01*
X93116974Y-139057115D01*
G75*
G02*
X93190179Y-138783910I173205J100000D01*
G01*
X95268639Y-137583910D01*
G75*
G02*
X95541844Y-137657115I100000J-173205D01*
G01*
X96741844Y-139735575D01*
G75*
G02*
X96668639Y-140008780I-173205J-100000D01*
G01*
G37*
X87974705Y-132430443D03*
D17*
X85140000Y-132600591D03*
X90220000Y-141399409D03*
D18*
X90430000Y-141763140D03*
X84930000Y-132236860D03*
D19*
X87680000Y-137000000D03*
D16*
X93349409Y-136659705D03*
G36*
G01*
X88237237Y-130385162D02*
X86072173Y-131635162D01*
G75*
G02*
X85798968Y-131561957I-100000J173205D01*
G01*
X84548968Y-129396893D01*
G75*
G02*
X84622173Y-129123688I173205J100000D01*
G01*
X86787237Y-127873688D01*
G75*
G02*
X87060442Y-127946893I100000J-173205D01*
G01*
X88310442Y-130111957D01*
G75*
G02*
X88237237Y-130385162I-173205J-100000D01*
G01*
G37*
D20*
X88001846Y-132397453D03*
X91826846Y-139022547D03*
D16*
X90809409Y-132260295D03*
X91784705Y-139029557D03*
X91784705Y-139029557D03*
G36*
G01*
X94772211Y-140584069D02*
X96071249Y-139834069D01*
G75*
G02*
X96344454Y-139907274I100000J-173205D01*
G01*
X96694454Y-140513492D01*
G75*
G02*
X96621249Y-140786697I-173205J-100000D01*
G01*
X95322211Y-141536697D01*
G75*
G02*
X95049006Y-141463492I-100000J173205D01*
G01*
X94699006Y-140857274D01*
G75*
G02*
X94772211Y-140584069I173205J100000D01*
G01*
G37*
G36*
G01*
X84670545Y-128287470D02*
X85969583Y-127537470D01*
G75*
G02*
X86242788Y-127610675I100000J-173205D01*
G01*
X86592788Y-128216893D01*
G75*
G02*
X86519583Y-128490098I-173205J-100000D01*
G01*
X85220545Y-129240098D01*
G75*
G02*
X84947340Y-129166893I-100000J173205D01*
G01*
X84597340Y-128560675D01*
G75*
G02*
X84670545Y-128287470I173205J100000D01*
G01*
G37*
G36*
G01*
X93783781Y-129241772D02*
X95082819Y-128491772D01*
G75*
G02*
X95356024Y-128564977I100000J-173205D01*
G01*
X96256024Y-130123823D01*
G75*
G02*
X96182819Y-130397028I-173205J-100000D01*
G01*
X94883781Y-131147028D01*
G75*
G02*
X94610576Y-131073823I-100000J173205D01*
G01*
X93710576Y-129514977D01*
G75*
G02*
X93783781Y-129241772I173205J100000D01*
G01*
G37*
G36*
G01*
X92083781Y-126297286D02*
X93382819Y-125547286D01*
G75*
G02*
X93656024Y-125620491I100000J-173205D01*
G01*
X94556024Y-127179337D01*
G75*
G02*
X94482819Y-127452542I-173205J-100000D01*
G01*
X93183781Y-128202542D01*
G75*
G02*
X92910576Y-128129337I-100000J173205D01*
G01*
X92010576Y-126570491D01*
G75*
G02*
X92083781Y-126297286I173205J100000D01*
G01*
G37*
D21*
X168110000Y-75590000D03*
G36*
G01*
X235460000Y-101600000D02*
X235460000Y-100100000D01*
G75*
G02*
X235660000Y-99900000I200000J0D01*
G01*
X237460000Y-99900000D01*
G75*
G02*
X237660000Y-100100000I0J-200000D01*
G01*
X237660000Y-101600000D01*
G75*
G02*
X237460000Y-101800000I-200000J0D01*
G01*
X235660000Y-101800000D01*
G75*
G02*
X235460000Y-101600000I0J200000D01*
G01*
G37*
G36*
G01*
X232060000Y-101600000D02*
X232060000Y-100100000D01*
G75*
G02*
X232260000Y-99900000I200000J0D01*
G01*
X234060000Y-99900000D01*
G75*
G02*
X234260000Y-100100000I0J-200000D01*
G01*
X234260000Y-101600000D01*
G75*
G02*
X234060000Y-101800000I-200000J0D01*
G01*
X232260000Y-101800000D01*
G75*
G02*
X232060000Y-101600000I0J200000D01*
G01*
G37*
G36*
G01*
X235480000Y-98700000D02*
X235480000Y-97200000D01*
G75*
G02*
X235680000Y-97000000I200000J0D01*
G01*
X237480000Y-97000000D01*
G75*
G02*
X237680000Y-97200000I0J-200000D01*
G01*
X237680000Y-98700000D01*
G75*
G02*
X237480000Y-98900000I-200000J0D01*
G01*
X235680000Y-98900000D01*
G75*
G02*
X235480000Y-98700000I0J200000D01*
G01*
G37*
G36*
G01*
X232080000Y-98700000D02*
X232080000Y-97200000D01*
G75*
G02*
X232280000Y-97000000I200000J0D01*
G01*
X234080000Y-97000000D01*
G75*
G02*
X234280000Y-97200000I0J-200000D01*
G01*
X234280000Y-98700000D01*
G75*
G02*
X234080000Y-98900000I-200000J0D01*
G01*
X232280000Y-98900000D01*
G75*
G02*
X232080000Y-98700000I0J200000D01*
G01*
G37*
G36*
G01*
X235260000Y-64550000D02*
X235260000Y-63050000D01*
G75*
G02*
X235460000Y-62850000I200000J0D01*
G01*
X237260000Y-62850000D01*
G75*
G02*
X237460000Y-63050000I0J-200000D01*
G01*
X237460000Y-64550000D01*
G75*
G02*
X237260000Y-64750000I-200000J0D01*
G01*
X235460000Y-64750000D01*
G75*
G02*
X235260000Y-64550000I0J200000D01*
G01*
G37*
G36*
G01*
X231860000Y-64550000D02*
X231860000Y-63050000D01*
G75*
G02*
X232060000Y-62850000I200000J0D01*
G01*
X233860000Y-62850000D01*
G75*
G02*
X234060000Y-63050000I0J-200000D01*
G01*
X234060000Y-64550000D01*
G75*
G02*
X233860000Y-64750000I-200000J0D01*
G01*
X232060000Y-64750000D01*
G75*
G02*
X231860000Y-64550000I0J200000D01*
G01*
G37*
G36*
G01*
X235280000Y-61670000D02*
X235280000Y-60170000D01*
G75*
G02*
X235480000Y-59970000I200000J0D01*
G01*
X237280000Y-59970000D01*
G75*
G02*
X237480000Y-60170000I0J-200000D01*
G01*
X237480000Y-61670000D01*
G75*
G02*
X237280000Y-61870000I-200000J0D01*
G01*
X235480000Y-61870000D01*
G75*
G02*
X235280000Y-61670000I0J200000D01*
G01*
G37*
G36*
G01*
X231880000Y-61670000D02*
X231880000Y-60170000D01*
G75*
G02*
X232080000Y-59970000I200000J0D01*
G01*
X233880000Y-59970000D01*
G75*
G02*
X234080000Y-60170000I0J-200000D01*
G01*
X234080000Y-61670000D01*
G75*
G02*
X233880000Y-61870000I-200000J0D01*
G01*
X232080000Y-61870000D01*
G75*
G02*
X231880000Y-61670000I0J200000D01*
G01*
G37*
G36*
G01*
X241800000Y-28620000D02*
X241800000Y-31020000D01*
G75*
G02*
X241600000Y-31220000I-200000J0D01*
G01*
X239200000Y-31220000D01*
G75*
G02*
X239000000Y-31020000I0J200000D01*
G01*
X239000000Y-28620000D01*
G75*
G02*
X239200000Y-28420000I200000J0D01*
G01*
X241600000Y-28420000D01*
G75*
G02*
X241800000Y-28620000I0J-200000D01*
G01*
G37*
D16*
X230890000Y-32359999D03*
D17*
X229620000Y-34900000D03*
X239780000Y-34900000D03*
D18*
X240200000Y-34900000D03*
X229200000Y-34900000D03*
D19*
X234700000Y-34900000D03*
D16*
X237240000Y-29820000D03*
G36*
G01*
X229250000Y-31110000D02*
X229250000Y-33610000D01*
G75*
G02*
X229050000Y-33810000I-200000J0D01*
G01*
X226550000Y-33810000D01*
G75*
G02*
X226350000Y-33610000I0J200000D01*
G01*
X226350000Y-31110000D01*
G75*
G02*
X226550000Y-30910000I200000J0D01*
G01*
X229050000Y-30910000D01*
G75*
G02*
X229250000Y-31110000I0J-200000D01*
G01*
G37*
D20*
X230875000Y-32320000D03*
X238525000Y-32320000D03*
D16*
X232160000Y-29820000D03*
X238510000Y-32360000D03*
X238510000Y-32360000D03*
G36*
G01*
X241350000Y-30550000D02*
X241350000Y-29050000D01*
G75*
G02*
X241550000Y-28850000I200000J0D01*
G01*
X242250000Y-28850000D01*
G75*
G02*
X242450000Y-29050000I0J-200000D01*
G01*
X242450000Y-30550000D01*
G75*
G02*
X242250000Y-30750000I-200000J0D01*
G01*
X241550000Y-30750000D01*
G75*
G02*
X241350000Y-30550000I0J200000D01*
G01*
G37*
G36*
G01*
X225650000Y-33150000D02*
X225650000Y-31650000D01*
G75*
G02*
X225850000Y-31450000I200000J0D01*
G01*
X226550000Y-31450000D01*
G75*
G02*
X226750000Y-31650000I0J-200000D01*
G01*
X226750000Y-33150000D01*
G75*
G02*
X226550000Y-33350000I-200000J0D01*
G01*
X225850000Y-33350000D01*
G75*
G02*
X225650000Y-33150000I0J200000D01*
G01*
G37*
G36*
G01*
X241850000Y-104720000D02*
X241850000Y-107120000D01*
G75*
G02*
X241650000Y-107320000I-200000J0D01*
G01*
X239250000Y-107320000D01*
G75*
G02*
X239050000Y-107120000I0J200000D01*
G01*
X239050000Y-104720000D01*
G75*
G02*
X239250000Y-104520000I200000J0D01*
G01*
X241650000Y-104520000D01*
G75*
G02*
X241850000Y-104720000I0J-200000D01*
G01*
G37*
X230940000Y-108459999D03*
D17*
X229670000Y-111000000D03*
X239830000Y-111000000D03*
D18*
X240250000Y-111000000D03*
X229250000Y-111000000D03*
D19*
X234750000Y-111000000D03*
D16*
X237290000Y-105920000D03*
G36*
G01*
X229300000Y-107210000D02*
X229300000Y-109710000D01*
G75*
G02*
X229100000Y-109910000I-200000J0D01*
G01*
X226600000Y-109910000D01*
G75*
G02*
X226400000Y-109710000I0J200000D01*
G01*
X226400000Y-107210000D01*
G75*
G02*
X226600000Y-107010000I200000J0D01*
G01*
X229100000Y-107010000D01*
G75*
G02*
X229300000Y-107210000I0J-200000D01*
G01*
G37*
D20*
X230925000Y-108420000D03*
X238575000Y-108420000D03*
D16*
X232210000Y-105920000D03*
X238560000Y-108460000D03*
X238560000Y-108460000D03*
G36*
G01*
X241400000Y-106650000D02*
X241400000Y-105150000D01*
G75*
G02*
X241600000Y-104950000I200000J0D01*
G01*
X242300000Y-104950000D01*
G75*
G02*
X242500000Y-105150000I0J-200000D01*
G01*
X242500000Y-106650000D01*
G75*
G02*
X242300000Y-106850000I-200000J0D01*
G01*
X241600000Y-106850000D01*
G75*
G02*
X241400000Y-106650000I0J200000D01*
G01*
G37*
G36*
G01*
X225700000Y-109250000D02*
X225700000Y-107750000D01*
G75*
G02*
X225900000Y-107550000I200000J0D01*
G01*
X226600000Y-107550000D01*
G75*
G02*
X226800000Y-107750000I0J-200000D01*
G01*
X226800000Y-109250000D01*
G75*
G02*
X226600000Y-109450000I-200000J0D01*
G01*
X225900000Y-109450000D01*
G75*
G02*
X225700000Y-109250000I0J200000D01*
G01*
G37*
G36*
G01*
X241800000Y-66520000D02*
X241800000Y-68920000D01*
G75*
G02*
X241600000Y-69120000I-200000J0D01*
G01*
X239200000Y-69120000D01*
G75*
G02*
X239000000Y-68920000I0J200000D01*
G01*
X239000000Y-66520000D01*
G75*
G02*
X239200000Y-66320000I200000J0D01*
G01*
X241600000Y-66320000D01*
G75*
G02*
X241800000Y-66520000I0J-200000D01*
G01*
G37*
X230890000Y-70259999D03*
D17*
X229620000Y-72800000D03*
X239780000Y-72800000D03*
D18*
X240200000Y-72800000D03*
X229200000Y-72800000D03*
D19*
X234700000Y-72800000D03*
D16*
X237240000Y-67720000D03*
G36*
G01*
X229250000Y-69010000D02*
X229250000Y-71510000D01*
G75*
G02*
X229050000Y-71710000I-200000J0D01*
G01*
X226550000Y-71710000D01*
G75*
G02*
X226350000Y-71510000I0J200000D01*
G01*
X226350000Y-69010000D01*
G75*
G02*
X226550000Y-68810000I200000J0D01*
G01*
X229050000Y-68810000D01*
G75*
G02*
X229250000Y-69010000I0J-200000D01*
G01*
G37*
D20*
X230875000Y-70220000D03*
X238525000Y-70220000D03*
D16*
X232160000Y-67720000D03*
X238510000Y-70260000D03*
X238510000Y-70260000D03*
G36*
G01*
X241350000Y-68450000D02*
X241350000Y-66950000D01*
G75*
G02*
X241550000Y-66750000I200000J0D01*
G01*
X242250000Y-66750000D01*
G75*
G02*
X242450000Y-66950000I0J-200000D01*
G01*
X242450000Y-68450000D01*
G75*
G02*
X242250000Y-68650000I-200000J0D01*
G01*
X241550000Y-68650000D01*
G75*
G02*
X241350000Y-68450000I0J200000D01*
G01*
G37*
G36*
G01*
X225650000Y-71050000D02*
X225650000Y-69550000D01*
G75*
G02*
X225850000Y-69350000I200000J0D01*
G01*
X226550000Y-69350000D01*
G75*
G02*
X226750000Y-69550000I0J-200000D01*
G01*
X226750000Y-71050000D01*
G75*
G02*
X226550000Y-71250000I-200000J0D01*
G01*
X225850000Y-71250000D01*
G75*
G02*
X225650000Y-71050000I0J200000D01*
G01*
G37*
G36*
G01*
X241800000Y-47620000D02*
X241800000Y-50020000D01*
G75*
G02*
X241600000Y-50220000I-200000J0D01*
G01*
X239200000Y-50220000D01*
G75*
G02*
X239000000Y-50020000I0J200000D01*
G01*
X239000000Y-47620000D01*
G75*
G02*
X239200000Y-47420000I200000J0D01*
G01*
X241600000Y-47420000D01*
G75*
G02*
X241800000Y-47620000I0J-200000D01*
G01*
G37*
X230890000Y-51359999D03*
D17*
X229620000Y-53900000D03*
X239780000Y-53900000D03*
D18*
X240200000Y-53900000D03*
X229200000Y-53900000D03*
D19*
X234700000Y-53900000D03*
D16*
X237240000Y-48820000D03*
G36*
G01*
X229250000Y-50110000D02*
X229250000Y-52610000D01*
G75*
G02*
X229050000Y-52810000I-200000J0D01*
G01*
X226550000Y-52810000D01*
G75*
G02*
X226350000Y-52610000I0J200000D01*
G01*
X226350000Y-50110000D01*
G75*
G02*
X226550000Y-49910000I200000J0D01*
G01*
X229050000Y-49910000D01*
G75*
G02*
X229250000Y-50110000I0J-200000D01*
G01*
G37*
D20*
X230875000Y-51320000D03*
X238525000Y-51320000D03*
D16*
X232160000Y-48820000D03*
X238510000Y-51360000D03*
X238510000Y-51360000D03*
G36*
G01*
X241350000Y-49550000D02*
X241350000Y-48050000D01*
G75*
G02*
X241550000Y-47850000I200000J0D01*
G01*
X242250000Y-47850000D01*
G75*
G02*
X242450000Y-48050000I0J-200000D01*
G01*
X242450000Y-49550000D01*
G75*
G02*
X242250000Y-49750000I-200000J0D01*
G01*
X241550000Y-49750000D01*
G75*
G02*
X241350000Y-49550000I0J200000D01*
G01*
G37*
G36*
G01*
X225650000Y-52150000D02*
X225650000Y-50650000D01*
G75*
G02*
X225850000Y-50450000I200000J0D01*
G01*
X226550000Y-50450000D01*
G75*
G02*
X226750000Y-50650000I0J-200000D01*
G01*
X226750000Y-52150000D01*
G75*
G02*
X226550000Y-52350000I-200000J0D01*
G01*
X225850000Y-52350000D01*
G75*
G02*
X225650000Y-52150000I0J200000D01*
G01*
G37*
G36*
G01*
X235270000Y-42640000D02*
X235270000Y-41140000D01*
G75*
G02*
X235470000Y-40940000I200000J0D01*
G01*
X237270000Y-40940000D01*
G75*
G02*
X237470000Y-41140000I0J-200000D01*
G01*
X237470000Y-42640000D01*
G75*
G02*
X237270000Y-42840000I-200000J0D01*
G01*
X235470000Y-42840000D01*
G75*
G02*
X235270000Y-42640000I0J200000D01*
G01*
G37*
G36*
G01*
X231870000Y-42640000D02*
X231870000Y-41140000D01*
G75*
G02*
X232070000Y-40940000I200000J0D01*
G01*
X233870000Y-40940000D01*
G75*
G02*
X234070000Y-41140000I0J-200000D01*
G01*
X234070000Y-42640000D01*
G75*
G02*
X233870000Y-42840000I-200000J0D01*
G01*
X232070000Y-42840000D01*
G75*
G02*
X231870000Y-42640000I0J200000D01*
G01*
G37*
G36*
G01*
X222800000Y-47620000D02*
X222800000Y-50020000D01*
G75*
G02*
X222600000Y-50220000I-200000J0D01*
G01*
X220200000Y-50220000D01*
G75*
G02*
X220000000Y-50020000I0J200000D01*
G01*
X220000000Y-47620000D01*
G75*
G02*
X220200000Y-47420000I200000J0D01*
G01*
X222600000Y-47420000D01*
G75*
G02*
X222800000Y-47620000I0J-200000D01*
G01*
G37*
X211890000Y-51359999D03*
D17*
X210620000Y-53900000D03*
X220780000Y-53900000D03*
D18*
X221200000Y-53900000D03*
X210200000Y-53900000D03*
D19*
X215700000Y-53900000D03*
D16*
X218240000Y-48820000D03*
G36*
G01*
X210250000Y-50110000D02*
X210250000Y-52610000D01*
G75*
G02*
X210050000Y-52810000I-200000J0D01*
G01*
X207550000Y-52810000D01*
G75*
G02*
X207350000Y-52610000I0J200000D01*
G01*
X207350000Y-50110000D01*
G75*
G02*
X207550000Y-49910000I200000J0D01*
G01*
X210050000Y-49910000D01*
G75*
G02*
X210250000Y-50110000I0J-200000D01*
G01*
G37*
D20*
X211875000Y-51320000D03*
X219525000Y-51320000D03*
D16*
X213160000Y-48820000D03*
X219510000Y-51360000D03*
X219510000Y-51360000D03*
G36*
G01*
X222350000Y-49550000D02*
X222350000Y-48050000D01*
G75*
G02*
X222550000Y-47850000I200000J0D01*
G01*
X223250000Y-47850000D01*
G75*
G02*
X223450000Y-48050000I0J-200000D01*
G01*
X223450000Y-49550000D01*
G75*
G02*
X223250000Y-49750000I-200000J0D01*
G01*
X222550000Y-49750000D01*
G75*
G02*
X222350000Y-49550000I0J200000D01*
G01*
G37*
G36*
G01*
X206650000Y-52150000D02*
X206650000Y-50650000D01*
G75*
G02*
X206850000Y-50450000I200000J0D01*
G01*
X207550000Y-50450000D01*
G75*
G02*
X207750000Y-50650000I0J-200000D01*
G01*
X207750000Y-52150000D01*
G75*
G02*
X207550000Y-52350000I-200000J0D01*
G01*
X206850000Y-52350000D01*
G75*
G02*
X206650000Y-52150000I0J200000D01*
G01*
G37*
G36*
G01*
X222800000Y-28620000D02*
X222800000Y-31020000D01*
G75*
G02*
X222600000Y-31220000I-200000J0D01*
G01*
X220200000Y-31220000D01*
G75*
G02*
X220000000Y-31020000I0J200000D01*
G01*
X220000000Y-28620000D01*
G75*
G02*
X220200000Y-28420000I200000J0D01*
G01*
X222600000Y-28420000D01*
G75*
G02*
X222800000Y-28620000I0J-200000D01*
G01*
G37*
X211890000Y-32359999D03*
D17*
X210620000Y-34900000D03*
X220780000Y-34900000D03*
D18*
X221200000Y-34900000D03*
X210200000Y-34900000D03*
D19*
X215700000Y-34900000D03*
D16*
X218240000Y-29820000D03*
G36*
G01*
X210250000Y-31110000D02*
X210250000Y-33610000D01*
G75*
G02*
X210050000Y-33810000I-200000J0D01*
G01*
X207550000Y-33810000D01*
G75*
G02*
X207350000Y-33610000I0J200000D01*
G01*
X207350000Y-31110000D01*
G75*
G02*
X207550000Y-30910000I200000J0D01*
G01*
X210050000Y-30910000D01*
G75*
G02*
X210250000Y-31110000I0J-200000D01*
G01*
G37*
D20*
X211875000Y-32320000D03*
X219525000Y-32320000D03*
D16*
X213160000Y-29820000D03*
X219510000Y-32360000D03*
X219510000Y-32360000D03*
G36*
G01*
X222350000Y-30550000D02*
X222350000Y-29050000D01*
G75*
G02*
X222550000Y-28850000I200000J0D01*
G01*
X223250000Y-28850000D01*
G75*
G02*
X223450000Y-29050000I0J-200000D01*
G01*
X223450000Y-30550000D01*
G75*
G02*
X223250000Y-30750000I-200000J0D01*
G01*
X222550000Y-30750000D01*
G75*
G02*
X222350000Y-30550000I0J200000D01*
G01*
G37*
G36*
G01*
X206650000Y-33150000D02*
X206650000Y-31650000D01*
G75*
G02*
X206850000Y-31450000I200000J0D01*
G01*
X207550000Y-31450000D01*
G75*
G02*
X207750000Y-31650000I0J-200000D01*
G01*
X207750000Y-33150000D01*
G75*
G02*
X207550000Y-33350000I-200000J0D01*
G01*
X206850000Y-33350000D01*
G75*
G02*
X206650000Y-33150000I0J200000D01*
G01*
G37*
G36*
G01*
X203800000Y-27120000D02*
X203800000Y-29520000D01*
G75*
G02*
X203600000Y-29720000I-200000J0D01*
G01*
X201200000Y-29720000D01*
G75*
G02*
X201000000Y-29520000I0J200000D01*
G01*
X201000000Y-27120000D01*
G75*
G02*
X201200000Y-26920000I200000J0D01*
G01*
X203600000Y-26920000D01*
G75*
G02*
X203800000Y-27120000I0J-200000D01*
G01*
G37*
X192890000Y-30859999D03*
D17*
X191620000Y-33400000D03*
X201780000Y-33400000D03*
D18*
X202200000Y-33400000D03*
X191200000Y-33400000D03*
D19*
X196700000Y-33400000D03*
D16*
X199240000Y-28320000D03*
G36*
G01*
X191250000Y-29610000D02*
X191250000Y-32110000D01*
G75*
G02*
X191050000Y-32310000I-200000J0D01*
G01*
X188550000Y-32310000D01*
G75*
G02*
X188350000Y-32110000I0J200000D01*
G01*
X188350000Y-29610000D01*
G75*
G02*
X188550000Y-29410000I200000J0D01*
G01*
X191050000Y-29410000D01*
G75*
G02*
X191250000Y-29610000I0J-200000D01*
G01*
G37*
D20*
X192875000Y-30820000D03*
X200525000Y-30820000D03*
D16*
X194160000Y-28320000D03*
X200510000Y-30860000D03*
X200510000Y-30860000D03*
G36*
G01*
X203350000Y-29050000D02*
X203350000Y-27550000D01*
G75*
G02*
X203550000Y-27350000I200000J0D01*
G01*
X204250000Y-27350000D01*
G75*
G02*
X204450000Y-27550000I0J-200000D01*
G01*
X204450000Y-29050000D01*
G75*
G02*
X204250000Y-29250000I-200000J0D01*
G01*
X203550000Y-29250000D01*
G75*
G02*
X203350000Y-29050000I0J200000D01*
G01*
G37*
G36*
G01*
X187650000Y-31650000D02*
X187650000Y-30150000D01*
G75*
G02*
X187850000Y-29950000I200000J0D01*
G01*
X188550000Y-29950000D01*
G75*
G02*
X188750000Y-30150000I0J-200000D01*
G01*
X188750000Y-31650000D01*
G75*
G02*
X188550000Y-31850000I-200000J0D01*
G01*
X187850000Y-31850000D01*
G75*
G02*
X187650000Y-31650000I0J200000D01*
G01*
G37*
G36*
G01*
X184700000Y-22320000D02*
X184700000Y-24720000D01*
G75*
G02*
X184500000Y-24920000I-200000J0D01*
G01*
X182100000Y-24920000D01*
G75*
G02*
X181900000Y-24720000I0J200000D01*
G01*
X181900000Y-22320000D01*
G75*
G02*
X182100000Y-22120000I200000J0D01*
G01*
X184500000Y-22120000D01*
G75*
G02*
X184700000Y-22320000I0J-200000D01*
G01*
G37*
X173790000Y-26059999D03*
D17*
X172520000Y-28600000D03*
X182680000Y-28600000D03*
D18*
X183100000Y-28600000D03*
X172100000Y-28600000D03*
D19*
X177600000Y-28600000D03*
D16*
X180140000Y-23520000D03*
G36*
G01*
X172150000Y-24810000D02*
X172150000Y-27310000D01*
G75*
G02*
X171950000Y-27510000I-200000J0D01*
G01*
X169450000Y-27510000D01*
G75*
G02*
X169250000Y-27310000I0J200000D01*
G01*
X169250000Y-24810000D01*
G75*
G02*
X169450000Y-24610000I200000J0D01*
G01*
X171950000Y-24610000D01*
G75*
G02*
X172150000Y-24810000I0J-200000D01*
G01*
G37*
D20*
X173775000Y-26020000D03*
X181425000Y-26020000D03*
D16*
X175060000Y-23520000D03*
X181410000Y-26060000D03*
X181410000Y-26060000D03*
G36*
G01*
X184250000Y-24250000D02*
X184250000Y-22750000D01*
G75*
G02*
X184450000Y-22550000I200000J0D01*
G01*
X185150000Y-22550000D01*
G75*
G02*
X185350000Y-22750000I0J-200000D01*
G01*
X185350000Y-24250000D01*
G75*
G02*
X185150000Y-24450000I-200000J0D01*
G01*
X184450000Y-24450000D01*
G75*
G02*
X184250000Y-24250000I0J200000D01*
G01*
G37*
G36*
G01*
X168550000Y-26850000D02*
X168550000Y-25350000D01*
G75*
G02*
X168750000Y-25150000I200000J0D01*
G01*
X169450000Y-25150000D01*
G75*
G02*
X169650000Y-25350000I0J-200000D01*
G01*
X169650000Y-26850000D01*
G75*
G02*
X169450000Y-27050000I-200000J0D01*
G01*
X168750000Y-27050000D01*
G75*
G02*
X168550000Y-26850000I0J200000D01*
G01*
G37*
G36*
G01*
X165700000Y-20930000D02*
X165700000Y-23330000D01*
G75*
G02*
X165500000Y-23530000I-200000J0D01*
G01*
X163100000Y-23530000D01*
G75*
G02*
X162900000Y-23330000I0J200000D01*
G01*
X162900000Y-20930000D01*
G75*
G02*
X163100000Y-20730000I200000J0D01*
G01*
X165500000Y-20730000D01*
G75*
G02*
X165700000Y-20930000I0J-200000D01*
G01*
G37*
X154790000Y-24669999D03*
D17*
X153520000Y-27210000D03*
X163680000Y-27210000D03*
D18*
X164100000Y-27210000D03*
X153100000Y-27210000D03*
D19*
X158600000Y-27210000D03*
D16*
X161140000Y-22130000D03*
G36*
G01*
X153150000Y-23420000D02*
X153150000Y-25920000D01*
G75*
G02*
X152950000Y-26120000I-200000J0D01*
G01*
X150450000Y-26120000D01*
G75*
G02*
X150250000Y-25920000I0J200000D01*
G01*
X150250000Y-23420000D01*
G75*
G02*
X150450000Y-23220000I200000J0D01*
G01*
X152950000Y-23220000D01*
G75*
G02*
X153150000Y-23420000I0J-200000D01*
G01*
G37*
D20*
X154775000Y-24630000D03*
X162425000Y-24630000D03*
D16*
X156060000Y-22130000D03*
X162410000Y-24670000D03*
X162410000Y-24670000D03*
G36*
G01*
X165250000Y-22860000D02*
X165250000Y-21360000D01*
G75*
G02*
X165450000Y-21160000I200000J0D01*
G01*
X166150000Y-21160000D01*
G75*
G02*
X166350000Y-21360000I0J-200000D01*
G01*
X166350000Y-22860000D01*
G75*
G02*
X166150000Y-23060000I-200000J0D01*
G01*
X165450000Y-23060000D01*
G75*
G02*
X165250000Y-22860000I0J200000D01*
G01*
G37*
G36*
G01*
X149550000Y-25460000D02*
X149550000Y-23960000D01*
G75*
G02*
X149750000Y-23760000I200000J0D01*
G01*
X150450000Y-23760000D01*
G75*
G02*
X150650000Y-23960000I0J-200000D01*
G01*
X150650000Y-25460000D01*
G75*
G02*
X150450000Y-25660000I-200000J0D01*
G01*
X149750000Y-25660000D01*
G75*
G02*
X149550000Y-25460000I0J200000D01*
G01*
G37*
G36*
G01*
X146600000Y-22320000D02*
X146600000Y-24720000D01*
G75*
G02*
X146400000Y-24920000I-200000J0D01*
G01*
X144000000Y-24920000D01*
G75*
G02*
X143800000Y-24720000I0J200000D01*
G01*
X143800000Y-22320000D01*
G75*
G02*
X144000000Y-22120000I200000J0D01*
G01*
X146400000Y-22120000D01*
G75*
G02*
X146600000Y-22320000I0J-200000D01*
G01*
G37*
X135690000Y-26059999D03*
D17*
X134420000Y-28600000D03*
X144580000Y-28600000D03*
D18*
X145000000Y-28600000D03*
X134000000Y-28600000D03*
D19*
X139500000Y-28600000D03*
D16*
X142040000Y-23520000D03*
G36*
G01*
X134050000Y-24810000D02*
X134050000Y-27310000D01*
G75*
G02*
X133850000Y-27510000I-200000J0D01*
G01*
X131350000Y-27510000D01*
G75*
G02*
X131150000Y-27310000I0J200000D01*
G01*
X131150000Y-24810000D01*
G75*
G02*
X131350000Y-24610000I200000J0D01*
G01*
X133850000Y-24610000D01*
G75*
G02*
X134050000Y-24810000I0J-200000D01*
G01*
G37*
D20*
X135675000Y-26020000D03*
X143325000Y-26020000D03*
D16*
X136960000Y-23520000D03*
X143310000Y-26060000D03*
X143310000Y-26060000D03*
G36*
G01*
X146150000Y-24250000D02*
X146150000Y-22750000D01*
G75*
G02*
X146350000Y-22550000I200000J0D01*
G01*
X147050000Y-22550000D01*
G75*
G02*
X147250000Y-22750000I0J-200000D01*
G01*
X147250000Y-24250000D01*
G75*
G02*
X147050000Y-24450000I-200000J0D01*
G01*
X146350000Y-24450000D01*
G75*
G02*
X146150000Y-24250000I0J200000D01*
G01*
G37*
G36*
G01*
X130450000Y-26850000D02*
X130450000Y-25350000D01*
G75*
G02*
X130650000Y-25150000I200000J0D01*
G01*
X131350000Y-25150000D01*
G75*
G02*
X131550000Y-25350000I0J-200000D01*
G01*
X131550000Y-26850000D01*
G75*
G02*
X131350000Y-27050000I-200000J0D01*
G01*
X130650000Y-27050000D01*
G75*
G02*
X130450000Y-26850000I0J200000D01*
G01*
G37*
G36*
G01*
X127590000Y-24720000D02*
X127590000Y-27120000D01*
G75*
G02*
X127390000Y-27320000I-200000J0D01*
G01*
X124990000Y-27320000D01*
G75*
G02*
X124790000Y-27120000I0J200000D01*
G01*
X124790000Y-24720000D01*
G75*
G02*
X124990000Y-24520000I200000J0D01*
G01*
X127390000Y-24520000D01*
G75*
G02*
X127590000Y-24720000I0J-200000D01*
G01*
G37*
X116680000Y-28459999D03*
D17*
X115410000Y-31000000D03*
X125570000Y-31000000D03*
D18*
X125990000Y-31000000D03*
X114990000Y-31000000D03*
D19*
X120490000Y-31000000D03*
D16*
X123030000Y-25920000D03*
G36*
G01*
X115040000Y-27210000D02*
X115040000Y-29710000D01*
G75*
G02*
X114840000Y-29910000I-200000J0D01*
G01*
X112340000Y-29910000D01*
G75*
G02*
X112140000Y-29710000I0J200000D01*
G01*
X112140000Y-27210000D01*
G75*
G02*
X112340000Y-27010000I200000J0D01*
G01*
X114840000Y-27010000D01*
G75*
G02*
X115040000Y-27210000I0J-200000D01*
G01*
G37*
D20*
X116665000Y-28420000D03*
X124315000Y-28420000D03*
D16*
X117950000Y-25920000D03*
X124300000Y-28460000D03*
X124300000Y-28460000D03*
G36*
G01*
X127140000Y-26650000D02*
X127140000Y-25150000D01*
G75*
G02*
X127340000Y-24950000I200000J0D01*
G01*
X128040000Y-24950000D01*
G75*
G02*
X128240000Y-25150000I0J-200000D01*
G01*
X128240000Y-26650000D01*
G75*
G02*
X128040000Y-26850000I-200000J0D01*
G01*
X127340000Y-26850000D01*
G75*
G02*
X127140000Y-26650000I0J200000D01*
G01*
G37*
G36*
G01*
X111440000Y-29250000D02*
X111440000Y-27750000D01*
G75*
G02*
X111640000Y-27550000I200000J0D01*
G01*
X112340000Y-27550000D01*
G75*
G02*
X112540000Y-27750000I0J-200000D01*
G01*
X112540000Y-29250000D01*
G75*
G02*
X112340000Y-29450000I-200000J0D01*
G01*
X111640000Y-29450000D01*
G75*
G02*
X111440000Y-29250000I0J200000D01*
G01*
G37*
G36*
G01*
X216300000Y-41610000D02*
X216300000Y-40110000D01*
G75*
G02*
X216500000Y-39910000I200000J0D01*
G01*
X218300000Y-39910000D01*
G75*
G02*
X218500000Y-40110000I0J-200000D01*
G01*
X218500000Y-41610000D01*
G75*
G02*
X218300000Y-41810000I-200000J0D01*
G01*
X216500000Y-41810000D01*
G75*
G02*
X216300000Y-41610000I0J200000D01*
G01*
G37*
G36*
G01*
X212900000Y-41610000D02*
X212900000Y-40110000D01*
G75*
G02*
X213100000Y-39910000I200000J0D01*
G01*
X214900000Y-39910000D01*
G75*
G02*
X215100000Y-40110000I0J-200000D01*
G01*
X215100000Y-41610000D01*
G75*
G02*
X214900000Y-41810000I-200000J0D01*
G01*
X213100000Y-41810000D01*
G75*
G02*
X212900000Y-41610000I0J200000D01*
G01*
G37*
G36*
G01*
X197290000Y-38280000D02*
X197290000Y-36780000D01*
G75*
G02*
X197490000Y-36580000I200000J0D01*
G01*
X199290000Y-36580000D01*
G75*
G02*
X199490000Y-36780000I0J-200000D01*
G01*
X199490000Y-38280000D01*
G75*
G02*
X199290000Y-38480000I-200000J0D01*
G01*
X197490000Y-38480000D01*
G75*
G02*
X197290000Y-38280000I0J200000D01*
G01*
G37*
G36*
G01*
X193890000Y-38280000D02*
X193890000Y-36780000D01*
G75*
G02*
X194090000Y-36580000I200000J0D01*
G01*
X195890000Y-36580000D01*
G75*
G02*
X196090000Y-36780000I0J-200000D01*
G01*
X196090000Y-38280000D01*
G75*
G02*
X195890000Y-38480000I-200000J0D01*
G01*
X194090000Y-38480000D01*
G75*
G02*
X193890000Y-38280000I0J200000D01*
G01*
G37*
G36*
G01*
X178180000Y-35280000D02*
X178180000Y-33780000D01*
G75*
G02*
X178380000Y-33580000I200000J0D01*
G01*
X180180000Y-33580000D01*
G75*
G02*
X180380000Y-33780000I0J-200000D01*
G01*
X180380000Y-35280000D01*
G75*
G02*
X180180000Y-35480000I-200000J0D01*
G01*
X178380000Y-35480000D01*
G75*
G02*
X178180000Y-35280000I0J200000D01*
G01*
G37*
G36*
G01*
X174780000Y-35280000D02*
X174780000Y-33780000D01*
G75*
G02*
X174980000Y-33580000I200000J0D01*
G01*
X176780000Y-33580000D01*
G75*
G02*
X176980000Y-33780000I0J-200000D01*
G01*
X176980000Y-35280000D01*
G75*
G02*
X176780000Y-35480000I-200000J0D01*
G01*
X174980000Y-35480000D01*
G75*
G02*
X174780000Y-35280000I0J200000D01*
G01*
G37*
G36*
G01*
X159170000Y-32670000D02*
X159170000Y-31170000D01*
G75*
G02*
X159370000Y-30970000I200000J0D01*
G01*
X161170000Y-30970000D01*
G75*
G02*
X161370000Y-31170000I0J-200000D01*
G01*
X161370000Y-32670000D01*
G75*
G02*
X161170000Y-32870000I-200000J0D01*
G01*
X159370000Y-32870000D01*
G75*
G02*
X159170000Y-32670000I0J200000D01*
G01*
G37*
G36*
G01*
X155770000Y-32670000D02*
X155770000Y-31170000D01*
G75*
G02*
X155970000Y-30970000I200000J0D01*
G01*
X157770000Y-30970000D01*
G75*
G02*
X157970000Y-31170000I0J-200000D01*
G01*
X157970000Y-32670000D01*
G75*
G02*
X157770000Y-32870000I-200000J0D01*
G01*
X155970000Y-32870000D01*
G75*
G02*
X155770000Y-32670000I0J200000D01*
G01*
G37*
G36*
G01*
X150620000Y-30790000D02*
X150620000Y-29290000D01*
G75*
G02*
X150820000Y-29090000I200000J0D01*
G01*
X152620000Y-29090000D01*
G75*
G02*
X152820000Y-29290000I0J-200000D01*
G01*
X152820000Y-30790000D01*
G75*
G02*
X152620000Y-30990000I-200000J0D01*
G01*
X150820000Y-30990000D01*
G75*
G02*
X150620000Y-30790000I0J200000D01*
G01*
G37*
G36*
G01*
X147220000Y-30790000D02*
X147220000Y-29290000D01*
G75*
G02*
X147420000Y-29090000I200000J0D01*
G01*
X149220000Y-29090000D01*
G75*
G02*
X149420000Y-29290000I0J-200000D01*
G01*
X149420000Y-30790000D01*
G75*
G02*
X149220000Y-30990000I-200000J0D01*
G01*
X147420000Y-30990000D01*
G75*
G02*
X147220000Y-30790000I0J200000D01*
G01*
G37*
G36*
G01*
X131170000Y-32440000D02*
X131170000Y-30940000D01*
G75*
G02*
X131370000Y-30740000I200000J0D01*
G01*
X133170000Y-30740000D01*
G75*
G02*
X133370000Y-30940000I0J-200000D01*
G01*
X133370000Y-32440000D01*
G75*
G02*
X133170000Y-32640000I-200000J0D01*
G01*
X131370000Y-32640000D01*
G75*
G02*
X131170000Y-32440000I0J200000D01*
G01*
G37*
G36*
G01*
X127770000Y-32440000D02*
X127770000Y-30940000D01*
G75*
G02*
X127970000Y-30740000I200000J0D01*
G01*
X129770000Y-30740000D01*
G75*
G02*
X129970000Y-30940000I0J-200000D01*
G01*
X129970000Y-32440000D01*
G75*
G02*
X129770000Y-32640000I-200000J0D01*
G01*
X127970000Y-32640000D01*
G75*
G02*
X127770000Y-32440000I0J200000D01*
G01*
G37*
G36*
G01*
X162600000Y-116550000D02*
X162600000Y-115050000D01*
G75*
G02*
X162800000Y-114850000I200000J0D01*
G01*
X164600000Y-114850000D01*
G75*
G02*
X164800000Y-115050000I0J-200000D01*
G01*
X164800000Y-116550000D01*
G75*
G02*
X164600000Y-116750000I-200000J0D01*
G01*
X162800000Y-116750000D01*
G75*
G02*
X162600000Y-116550000I0J200000D01*
G01*
G37*
G36*
G01*
X159200000Y-116550000D02*
X159200000Y-115050000D01*
G75*
G02*
X159400000Y-114850000I200000J0D01*
G01*
X161200000Y-114850000D01*
G75*
G02*
X161400000Y-115050000I0J-200000D01*
G01*
X161400000Y-116550000D01*
G75*
G02*
X161200000Y-116750000I-200000J0D01*
G01*
X159400000Y-116750000D01*
G75*
G02*
X159200000Y-116550000I0J200000D01*
G01*
G37*
G36*
G01*
X143500000Y-116550000D02*
X143500000Y-115050000D01*
G75*
G02*
X143700000Y-114850000I200000J0D01*
G01*
X145500000Y-114850000D01*
G75*
G02*
X145700000Y-115050000I0J-200000D01*
G01*
X145700000Y-116550000D01*
G75*
G02*
X145500000Y-116750000I-200000J0D01*
G01*
X143700000Y-116750000D01*
G75*
G02*
X143500000Y-116550000I0J200000D01*
G01*
G37*
G36*
G01*
X140100000Y-116550000D02*
X140100000Y-115050000D01*
G75*
G02*
X140300000Y-114850000I200000J0D01*
G01*
X142100000Y-114850000D01*
G75*
G02*
X142300000Y-115050000I0J-200000D01*
G01*
X142300000Y-116550000D01*
G75*
G02*
X142100000Y-116750000I-200000J0D01*
G01*
X140300000Y-116750000D01*
G75*
G02*
X140100000Y-116550000I0J200000D01*
G01*
G37*
G36*
G01*
X124500000Y-118750000D02*
X124500000Y-117250000D01*
G75*
G02*
X124700000Y-117050000I200000J0D01*
G01*
X126500000Y-117050000D01*
G75*
G02*
X126700000Y-117250000I0J-200000D01*
G01*
X126700000Y-118750000D01*
G75*
G02*
X126500000Y-118950000I-200000J0D01*
G01*
X124700000Y-118950000D01*
G75*
G02*
X124500000Y-118750000I0J200000D01*
G01*
G37*
G36*
G01*
X121100000Y-118750000D02*
X121100000Y-117250000D01*
G75*
G02*
X121300000Y-117050000I200000J0D01*
G01*
X123100000Y-117050000D01*
G75*
G02*
X123300000Y-117250000I0J-200000D01*
G01*
X123300000Y-118750000D01*
G75*
G02*
X123100000Y-118950000I-200000J0D01*
G01*
X121300000Y-118950000D01*
G75*
G02*
X121100000Y-118750000I0J200000D01*
G01*
G37*
G36*
G01*
X109450481Y-120194615D02*
X110749519Y-119444615D01*
G75*
G02*
X111022724Y-119517820I100000J-173205D01*
G01*
X111922724Y-121076666D01*
G75*
G02*
X111849519Y-121349871I-173205J-100000D01*
G01*
X110550481Y-122099871D01*
G75*
G02*
X110277276Y-122026666I-100000J173205D01*
G01*
X109377276Y-120467820D01*
G75*
G02*
X109450481Y-120194615I173205J100000D01*
G01*
G37*
G36*
G01*
X107750481Y-117250129D02*
X109049519Y-116500129D01*
G75*
G02*
X109322724Y-116573334I100000J-173205D01*
G01*
X110222724Y-118132180D01*
G75*
G02*
X110149519Y-118405385I-173205J-100000D01*
G01*
X108850481Y-119155385D01*
G75*
G02*
X108577276Y-119082180I-100000J173205D01*
G01*
X107677276Y-117523334D01*
G75*
G02*
X107750481Y-117250129I173205J100000D01*
G01*
G37*
G36*
G01*
X106200000Y-90250000D02*
X106200000Y-88750000D01*
G75*
G02*
X106400000Y-88550000I200000J0D01*
G01*
X108200000Y-88550000D01*
G75*
G02*
X108400000Y-88750000I0J-200000D01*
G01*
X108400000Y-90250000D01*
G75*
G02*
X108200000Y-90450000I-200000J0D01*
G01*
X106400000Y-90450000D01*
G75*
G02*
X106200000Y-90250000I0J200000D01*
G01*
G37*
G36*
G01*
X102800000Y-90250000D02*
X102800000Y-88750000D01*
G75*
G02*
X103000000Y-88550000I200000J0D01*
G01*
X104800000Y-88550000D01*
G75*
G02*
X105000000Y-88750000I0J-200000D01*
G01*
X105000000Y-90250000D01*
G75*
G02*
X104800000Y-90450000I-200000J0D01*
G01*
X103000000Y-90450000D01*
G75*
G02*
X102800000Y-90250000I0J200000D01*
G01*
G37*
G36*
G01*
X172100000Y-56350000D02*
X172100000Y-54850000D01*
G75*
G02*
X172300000Y-54650000I200000J0D01*
G01*
X174100000Y-54650000D01*
G75*
G02*
X174300000Y-54850000I0J-200000D01*
G01*
X174300000Y-56350000D01*
G75*
G02*
X174100000Y-56550000I-200000J0D01*
G01*
X172300000Y-56550000D01*
G75*
G02*
X172100000Y-56350000I0J200000D01*
G01*
G37*
G36*
G01*
X168700000Y-56350000D02*
X168700000Y-54850000D01*
G75*
G02*
X168900000Y-54650000I200000J0D01*
G01*
X170700000Y-54650000D01*
G75*
G02*
X170900000Y-54850000I0J-200000D01*
G01*
X170900000Y-56350000D01*
G75*
G02*
X170700000Y-56550000I-200000J0D01*
G01*
X168900000Y-56550000D01*
G75*
G02*
X168700000Y-56350000I0J200000D01*
G01*
G37*
G36*
G01*
X153100000Y-54950000D02*
X153100000Y-53450000D01*
G75*
G02*
X153300000Y-53250000I200000J0D01*
G01*
X155100000Y-53250000D01*
G75*
G02*
X155300000Y-53450000I0J-200000D01*
G01*
X155300000Y-54950000D01*
G75*
G02*
X155100000Y-55150000I-200000J0D01*
G01*
X153300000Y-55150000D01*
G75*
G02*
X153100000Y-54950000I0J200000D01*
G01*
G37*
G36*
G01*
X149700000Y-54950000D02*
X149700000Y-53450000D01*
G75*
G02*
X149900000Y-53250000I200000J0D01*
G01*
X151700000Y-53250000D01*
G75*
G02*
X151900000Y-53450000I0J-200000D01*
G01*
X151900000Y-54950000D01*
G75*
G02*
X151700000Y-55150000I-200000J0D01*
G01*
X149900000Y-55150000D01*
G75*
G02*
X149700000Y-54950000I0J200000D01*
G01*
G37*
G36*
G01*
X134900000Y-56450000D02*
X134900000Y-54950000D01*
G75*
G02*
X135100000Y-54750000I200000J0D01*
G01*
X136900000Y-54750000D01*
G75*
G02*
X137100000Y-54950000I0J-200000D01*
G01*
X137100000Y-56450000D01*
G75*
G02*
X136900000Y-56650000I-200000J0D01*
G01*
X135100000Y-56650000D01*
G75*
G02*
X134900000Y-56450000I0J200000D01*
G01*
G37*
G36*
G01*
X131500000Y-56450000D02*
X131500000Y-54950000D01*
G75*
G02*
X131700000Y-54750000I200000J0D01*
G01*
X133500000Y-54750000D01*
G75*
G02*
X133700000Y-54950000I0J-200000D01*
G01*
X133700000Y-56450000D01*
G75*
G02*
X133500000Y-56650000I-200000J0D01*
G01*
X131700000Y-56650000D01*
G75*
G02*
X131500000Y-56450000I0J200000D01*
G01*
G37*
G36*
G01*
X115000000Y-58750000D02*
X115000000Y-57250000D01*
G75*
G02*
X115200000Y-57050000I200000J0D01*
G01*
X117000000Y-57050000D01*
G75*
G02*
X117200000Y-57250000I0J-200000D01*
G01*
X117200000Y-58750000D01*
G75*
G02*
X117000000Y-58950000I-200000J0D01*
G01*
X115200000Y-58950000D01*
G75*
G02*
X115000000Y-58750000I0J200000D01*
G01*
G37*
G36*
G01*
X111600000Y-58750000D02*
X111600000Y-57250000D01*
G75*
G02*
X111800000Y-57050000I200000J0D01*
G01*
X113600000Y-57050000D01*
G75*
G02*
X113800000Y-57250000I0J-200000D01*
G01*
X113800000Y-58750000D01*
G75*
G02*
X113600000Y-58950000I-200000J0D01*
G01*
X111800000Y-58950000D01*
G75*
G02*
X111600000Y-58750000I0J200000D01*
G01*
G37*
G36*
G01*
X203800000Y-65020000D02*
X203800000Y-67420000D01*
G75*
G02*
X203600000Y-67620000I-200000J0D01*
G01*
X201200000Y-67620000D01*
G75*
G02*
X201000000Y-67420000I0J200000D01*
G01*
X201000000Y-65020000D01*
G75*
G02*
X201200000Y-64820000I200000J0D01*
G01*
X203600000Y-64820000D01*
G75*
G02*
X203800000Y-65020000I0J-200000D01*
G01*
G37*
X192890000Y-68759999D03*
D17*
X191620000Y-71300000D03*
X201780000Y-71300000D03*
D18*
X202200000Y-71300000D03*
X191200000Y-71300000D03*
D19*
X196700000Y-71300000D03*
D16*
X199240000Y-66220000D03*
G36*
G01*
X191250000Y-67510000D02*
X191250000Y-70010000D01*
G75*
G02*
X191050000Y-70210000I-200000J0D01*
G01*
X188550000Y-70210000D01*
G75*
G02*
X188350000Y-70010000I0J200000D01*
G01*
X188350000Y-67510000D01*
G75*
G02*
X188550000Y-67310000I200000J0D01*
G01*
X191050000Y-67310000D01*
G75*
G02*
X191250000Y-67510000I0J-200000D01*
G01*
G37*
D20*
X192875000Y-68720000D03*
X200525000Y-68720000D03*
D16*
X194160000Y-66220000D03*
X200510000Y-68760000D03*
X200510000Y-68760000D03*
G36*
G01*
X203350000Y-66950000D02*
X203350000Y-65450000D01*
G75*
G02*
X203550000Y-65250000I200000J0D01*
G01*
X204250000Y-65250000D01*
G75*
G02*
X204450000Y-65450000I0J-200000D01*
G01*
X204450000Y-66950000D01*
G75*
G02*
X204250000Y-67150000I-200000J0D01*
G01*
X203550000Y-67150000D01*
G75*
G02*
X203350000Y-66950000I0J200000D01*
G01*
G37*
G36*
G01*
X187650000Y-69550000D02*
X187650000Y-68050000D01*
G75*
G02*
X187850000Y-67850000I200000J0D01*
G01*
X188550000Y-67850000D01*
G75*
G02*
X188750000Y-68050000I0J-200000D01*
G01*
X188750000Y-69550000D01*
G75*
G02*
X188550000Y-69750000I-200000J0D01*
G01*
X187850000Y-69750000D01*
G75*
G02*
X187650000Y-69550000I0J200000D01*
G01*
G37*
G36*
G01*
X156100000Y-117470000D02*
X156100000Y-119870000D01*
G75*
G02*
X155900000Y-120070000I-200000J0D01*
G01*
X153500000Y-120070000D01*
G75*
G02*
X153300000Y-119870000I0J200000D01*
G01*
X153300000Y-117470000D01*
G75*
G02*
X153500000Y-117270000I200000J0D01*
G01*
X155900000Y-117270000D01*
G75*
G02*
X156100000Y-117470000I0J-200000D01*
G01*
G37*
X145190000Y-121209999D03*
D17*
X143920000Y-123750000D03*
X154080000Y-123750000D03*
D18*
X154500000Y-123750000D03*
X143500000Y-123750000D03*
D19*
X149000000Y-123750000D03*
D16*
X151540000Y-118670000D03*
G36*
G01*
X143550000Y-119960000D02*
X143550000Y-122460000D01*
G75*
G02*
X143350000Y-122660000I-200000J0D01*
G01*
X140850000Y-122660000D01*
G75*
G02*
X140650000Y-122460000I0J200000D01*
G01*
X140650000Y-119960000D01*
G75*
G02*
X140850000Y-119760000I200000J0D01*
G01*
X143350000Y-119760000D01*
G75*
G02*
X143550000Y-119960000I0J-200000D01*
G01*
G37*
D20*
X145175000Y-121170000D03*
X152825000Y-121170000D03*
D16*
X146460000Y-118670000D03*
X152810000Y-121210000D03*
X152810000Y-121210000D03*
G36*
G01*
X155650000Y-119400000D02*
X155650000Y-117900000D01*
G75*
G02*
X155850000Y-117700000I200000J0D01*
G01*
X156550000Y-117700000D01*
G75*
G02*
X156750000Y-117900000I0J-200000D01*
G01*
X156750000Y-119400000D01*
G75*
G02*
X156550000Y-119600000I-200000J0D01*
G01*
X155850000Y-119600000D01*
G75*
G02*
X155650000Y-119400000I0J200000D01*
G01*
G37*
G36*
G01*
X139950000Y-122000000D02*
X139950000Y-120500000D01*
G75*
G02*
X140150000Y-120300000I200000J0D01*
G01*
X140850000Y-120300000D01*
G75*
G02*
X141050000Y-120500000I0J-200000D01*
G01*
X141050000Y-122000000D01*
G75*
G02*
X140850000Y-122200000I-200000J0D01*
G01*
X140150000Y-122200000D01*
G75*
G02*
X139950000Y-122000000I0J200000D01*
G01*
G37*
G36*
G01*
X203800000Y-84220000D02*
X203800000Y-86620000D01*
G75*
G02*
X203600000Y-86820000I-200000J0D01*
G01*
X201200000Y-86820000D01*
G75*
G02*
X201000000Y-86620000I0J200000D01*
G01*
X201000000Y-84220000D01*
G75*
G02*
X201200000Y-84020000I200000J0D01*
G01*
X203600000Y-84020000D01*
G75*
G02*
X203800000Y-84220000I0J-200000D01*
G01*
G37*
X192890000Y-87959999D03*
D17*
X191620000Y-90500000D03*
X201780000Y-90500000D03*
D18*
X202200000Y-90500000D03*
X191200000Y-90500000D03*
D19*
X196700000Y-90500000D03*
D16*
X199240000Y-85420000D03*
G36*
G01*
X191250000Y-86710000D02*
X191250000Y-89210000D01*
G75*
G02*
X191050000Y-89410000I-200000J0D01*
G01*
X188550000Y-89410000D01*
G75*
G02*
X188350000Y-89210000I0J200000D01*
G01*
X188350000Y-86710000D01*
G75*
G02*
X188550000Y-86510000I200000J0D01*
G01*
X191050000Y-86510000D01*
G75*
G02*
X191250000Y-86710000I0J-200000D01*
G01*
G37*
D20*
X192875000Y-87920000D03*
X200525000Y-87920000D03*
D16*
X194160000Y-85420000D03*
X200510000Y-87960000D03*
X200510000Y-87960000D03*
G36*
G01*
X203350000Y-86150000D02*
X203350000Y-84650000D01*
G75*
G02*
X203550000Y-84450000I200000J0D01*
G01*
X204250000Y-84450000D01*
G75*
G02*
X204450000Y-84650000I0J-200000D01*
G01*
X204450000Y-86150000D01*
G75*
G02*
X204250000Y-86350000I-200000J0D01*
G01*
X203550000Y-86350000D01*
G75*
G02*
X203350000Y-86150000I0J200000D01*
G01*
G37*
G36*
G01*
X187650000Y-88750000D02*
X187650000Y-87250000D01*
G75*
G02*
X187850000Y-87050000I200000J0D01*
G01*
X188550000Y-87050000D01*
G75*
G02*
X188750000Y-87250000I0J-200000D01*
G01*
X188750000Y-88750000D01*
G75*
G02*
X188550000Y-88950000I-200000J0D01*
G01*
X187850000Y-88950000D01*
G75*
G02*
X187650000Y-88750000I0J200000D01*
G01*
G37*
G36*
G01*
X203800000Y-46120000D02*
X203800000Y-48520000D01*
G75*
G02*
X203600000Y-48720000I-200000J0D01*
G01*
X201200000Y-48720000D01*
G75*
G02*
X201000000Y-48520000I0J200000D01*
G01*
X201000000Y-46120000D01*
G75*
G02*
X201200000Y-45920000I200000J0D01*
G01*
X203600000Y-45920000D01*
G75*
G02*
X203800000Y-46120000I0J-200000D01*
G01*
G37*
X192890000Y-49859999D03*
D17*
X191620000Y-52400000D03*
X201780000Y-52400000D03*
D18*
X202200000Y-52400000D03*
X191200000Y-52400000D03*
D19*
X196700000Y-52400000D03*
D16*
X199240000Y-47320000D03*
G36*
G01*
X191250000Y-48610000D02*
X191250000Y-51110000D01*
G75*
G02*
X191050000Y-51310000I-200000J0D01*
G01*
X188550000Y-51310000D01*
G75*
G02*
X188350000Y-51110000I0J200000D01*
G01*
X188350000Y-48610000D01*
G75*
G02*
X188550000Y-48410000I200000J0D01*
G01*
X191050000Y-48410000D01*
G75*
G02*
X191250000Y-48610000I0J-200000D01*
G01*
G37*
D20*
X192875000Y-49820000D03*
X200525000Y-49820000D03*
D16*
X194160000Y-47320000D03*
X200510000Y-49860000D03*
X200510000Y-49860000D03*
G36*
G01*
X203350000Y-48050000D02*
X203350000Y-46550000D01*
G75*
G02*
X203550000Y-46350000I200000J0D01*
G01*
X204250000Y-46350000D01*
G75*
G02*
X204450000Y-46550000I0J-200000D01*
G01*
X204450000Y-48050000D01*
G75*
G02*
X204250000Y-48250000I-200000J0D01*
G01*
X203550000Y-48250000D01*
G75*
G02*
X203350000Y-48050000I0J200000D01*
G01*
G37*
G36*
G01*
X187650000Y-50650000D02*
X187650000Y-49150000D01*
G75*
G02*
X187850000Y-48950000I200000J0D01*
G01*
X188550000Y-48950000D01*
G75*
G02*
X188750000Y-49150000I0J-200000D01*
G01*
X188750000Y-50650000D01*
G75*
G02*
X188550000Y-50850000I-200000J0D01*
G01*
X187850000Y-50850000D01*
G75*
G02*
X187650000Y-50650000I0J200000D01*
G01*
G37*
G36*
G01*
X184700000Y-41320000D02*
X184700000Y-43720000D01*
G75*
G02*
X184500000Y-43920000I-200000J0D01*
G01*
X182100000Y-43920000D01*
G75*
G02*
X181900000Y-43720000I0J200000D01*
G01*
X181900000Y-41320000D01*
G75*
G02*
X182100000Y-41120000I200000J0D01*
G01*
X184500000Y-41120000D01*
G75*
G02*
X184700000Y-41320000I0J-200000D01*
G01*
G37*
X173790000Y-45059999D03*
D17*
X172520000Y-47600000D03*
X182680000Y-47600000D03*
D18*
X183100000Y-47600000D03*
X172100000Y-47600000D03*
D19*
X177600000Y-47600000D03*
D16*
X180140000Y-42520000D03*
G36*
G01*
X172150000Y-43810000D02*
X172150000Y-46310000D01*
G75*
G02*
X171950000Y-46510000I-200000J0D01*
G01*
X169450000Y-46510000D01*
G75*
G02*
X169250000Y-46310000I0J200000D01*
G01*
X169250000Y-43810000D01*
G75*
G02*
X169450000Y-43610000I200000J0D01*
G01*
X171950000Y-43610000D01*
G75*
G02*
X172150000Y-43810000I0J-200000D01*
G01*
G37*
D20*
X173775000Y-45020000D03*
X181425000Y-45020000D03*
D16*
X175060000Y-42520000D03*
X181410000Y-45060000D03*
X181410000Y-45060000D03*
G36*
G01*
X184250000Y-43250000D02*
X184250000Y-41750000D01*
G75*
G02*
X184450000Y-41550000I200000J0D01*
G01*
X185150000Y-41550000D01*
G75*
G02*
X185350000Y-41750000I0J-200000D01*
G01*
X185350000Y-43250000D01*
G75*
G02*
X185150000Y-43450000I-200000J0D01*
G01*
X184450000Y-43450000D01*
G75*
G02*
X184250000Y-43250000I0J200000D01*
G01*
G37*
G36*
G01*
X168550000Y-45850000D02*
X168550000Y-44350000D01*
G75*
G02*
X168750000Y-44150000I200000J0D01*
G01*
X169450000Y-44150000D01*
G75*
G02*
X169650000Y-44350000I0J-200000D01*
G01*
X169650000Y-45850000D01*
G75*
G02*
X169450000Y-46050000I-200000J0D01*
G01*
X168750000Y-46050000D01*
G75*
G02*
X168550000Y-45850000I0J200000D01*
G01*
G37*
G36*
G01*
X146600000Y-41320000D02*
X146600000Y-43720000D01*
G75*
G02*
X146400000Y-43920000I-200000J0D01*
G01*
X144000000Y-43920000D01*
G75*
G02*
X143800000Y-43720000I0J200000D01*
G01*
X143800000Y-41320000D01*
G75*
G02*
X144000000Y-41120000I200000J0D01*
G01*
X146400000Y-41120000D01*
G75*
G02*
X146600000Y-41320000I0J-200000D01*
G01*
G37*
X135690000Y-45059999D03*
D17*
X134420000Y-47600000D03*
X144580000Y-47600000D03*
D18*
X145000000Y-47600000D03*
X134000000Y-47600000D03*
D19*
X139500000Y-47600000D03*
D16*
X142040000Y-42520000D03*
G36*
G01*
X134050000Y-43810000D02*
X134050000Y-46310000D01*
G75*
G02*
X133850000Y-46510000I-200000J0D01*
G01*
X131350000Y-46510000D01*
G75*
G02*
X131150000Y-46310000I0J200000D01*
G01*
X131150000Y-43810000D01*
G75*
G02*
X131350000Y-43610000I200000J0D01*
G01*
X133850000Y-43610000D01*
G75*
G02*
X134050000Y-43810000I0J-200000D01*
G01*
G37*
D20*
X135675000Y-45020000D03*
X143325000Y-45020000D03*
D16*
X136960000Y-42520000D03*
X143310000Y-45060000D03*
X143310000Y-45060000D03*
G36*
G01*
X146150000Y-43250000D02*
X146150000Y-41750000D01*
G75*
G02*
X146350000Y-41550000I200000J0D01*
G01*
X147050000Y-41550000D01*
G75*
G02*
X147250000Y-41750000I0J-200000D01*
G01*
X147250000Y-43250000D01*
G75*
G02*
X147050000Y-43450000I-200000J0D01*
G01*
X146350000Y-43450000D01*
G75*
G02*
X146150000Y-43250000I0J200000D01*
G01*
G37*
G36*
G01*
X130450000Y-45850000D02*
X130450000Y-44350000D01*
G75*
G02*
X130650000Y-44150000I200000J0D01*
G01*
X131350000Y-44150000D01*
G75*
G02*
X131550000Y-44350000I0J-200000D01*
G01*
X131550000Y-45850000D01*
G75*
G02*
X131350000Y-46050000I-200000J0D01*
G01*
X130650000Y-46050000D01*
G75*
G02*
X130450000Y-45850000I0J200000D01*
G01*
G37*
G36*
G01*
X113988639Y-130008780D02*
X111910179Y-131208780D01*
G75*
G02*
X111636974Y-131135575I-100000J173205D01*
G01*
X110436974Y-129057115D01*
G75*
G02*
X110510179Y-128783910I173205J100000D01*
G01*
X112588639Y-127583910D01*
G75*
G02*
X112861844Y-127657115I100000J-173205D01*
G01*
X114061844Y-129735575D01*
G75*
G02*
X113988639Y-130008780I-173205J-100000D01*
G01*
G37*
X105294705Y-122430443D03*
D17*
X102460000Y-122600591D03*
X107540000Y-131399409D03*
D18*
X107750000Y-131763140D03*
X102250000Y-122236860D03*
D19*
X105000000Y-127000000D03*
D16*
X110669409Y-126659705D03*
G36*
G01*
X105557237Y-120385162D02*
X103392173Y-121635162D01*
G75*
G02*
X103118968Y-121561957I-100000J173205D01*
G01*
X101868968Y-119396893D01*
G75*
G02*
X101942173Y-119123688I173205J100000D01*
G01*
X104107237Y-117873688D01*
G75*
G02*
X104380442Y-117946893I100000J-173205D01*
G01*
X105630442Y-120111957D01*
G75*
G02*
X105557237Y-120385162I-173205J-100000D01*
G01*
G37*
D20*
X105321846Y-122397453D03*
X109146846Y-129022547D03*
D16*
X108129409Y-122260295D03*
X109104705Y-129029557D03*
X109104705Y-129029557D03*
G36*
G01*
X112092211Y-130584069D02*
X113391249Y-129834069D01*
G75*
G02*
X113664454Y-129907274I100000J-173205D01*
G01*
X114014454Y-130513492D01*
G75*
G02*
X113941249Y-130786697I-173205J-100000D01*
G01*
X112642211Y-131536697D01*
G75*
G02*
X112369006Y-131463492I-100000J173205D01*
G01*
X112019006Y-130857274D01*
G75*
G02*
X112092211Y-130584069I173205J100000D01*
G01*
G37*
G36*
G01*
X101990545Y-118287470D02*
X103289583Y-117537470D01*
G75*
G02*
X103562788Y-117610675I100000J-173205D01*
G01*
X103912788Y-118216893D01*
G75*
G02*
X103839583Y-118490098I-173205J-100000D01*
G01*
X102540545Y-119240098D01*
G75*
G02*
X102267340Y-119166893I-100000J173205D01*
G01*
X101917340Y-118560675D01*
G75*
G02*
X101990545Y-118287470I173205J100000D01*
G01*
G37*
G36*
G01*
X175200000Y-117470000D02*
X175200000Y-119870000D01*
G75*
G02*
X175000000Y-120070000I-200000J0D01*
G01*
X172600000Y-120070000D01*
G75*
G02*
X172400000Y-119870000I0J200000D01*
G01*
X172400000Y-117470000D01*
G75*
G02*
X172600000Y-117270000I200000J0D01*
G01*
X175000000Y-117270000D01*
G75*
G02*
X175200000Y-117470000I0J-200000D01*
G01*
G37*
X164290000Y-121209999D03*
D17*
X163020000Y-123750000D03*
X173180000Y-123750000D03*
D18*
X173600000Y-123750000D03*
X162600000Y-123750000D03*
D19*
X168100000Y-123750000D03*
D16*
X170640000Y-118670000D03*
G36*
G01*
X162650000Y-119960000D02*
X162650000Y-122460000D01*
G75*
G02*
X162450000Y-122660000I-200000J0D01*
G01*
X159950000Y-122660000D01*
G75*
G02*
X159750000Y-122460000I0J200000D01*
G01*
X159750000Y-119960000D01*
G75*
G02*
X159950000Y-119760000I200000J0D01*
G01*
X162450000Y-119760000D01*
G75*
G02*
X162650000Y-119960000I0J-200000D01*
G01*
G37*
D20*
X164275000Y-121170000D03*
X171925000Y-121170000D03*
D16*
X165560000Y-118670000D03*
X171910000Y-121210000D03*
X171910000Y-121210000D03*
G36*
G01*
X174750000Y-119400000D02*
X174750000Y-117900000D01*
G75*
G02*
X174950000Y-117700000I200000J0D01*
G01*
X175650000Y-117700000D01*
G75*
G02*
X175850000Y-117900000I0J-200000D01*
G01*
X175850000Y-119400000D01*
G75*
G02*
X175650000Y-119600000I-200000J0D01*
G01*
X174950000Y-119600000D01*
G75*
G02*
X174750000Y-119400000I0J200000D01*
G01*
G37*
G36*
G01*
X159050000Y-122000000D02*
X159050000Y-120500000D01*
G75*
G02*
X159250000Y-120300000I200000J0D01*
G01*
X159950000Y-120300000D01*
G75*
G02*
X160150000Y-120500000I0J-200000D01*
G01*
X160150000Y-122000000D01*
G75*
G02*
X159950000Y-122200000I-200000J0D01*
G01*
X159250000Y-122200000D01*
G75*
G02*
X159050000Y-122000000I0J200000D01*
G01*
G37*
G36*
G01*
X137100000Y-119720000D02*
X137100000Y-122120000D01*
G75*
G02*
X136900000Y-122320000I-200000J0D01*
G01*
X134500000Y-122320000D01*
G75*
G02*
X134300000Y-122120000I0J200000D01*
G01*
X134300000Y-119720000D01*
G75*
G02*
X134500000Y-119520000I200000J0D01*
G01*
X136900000Y-119520000D01*
G75*
G02*
X137100000Y-119720000I0J-200000D01*
G01*
G37*
X126190000Y-123459999D03*
D17*
X124920000Y-126000000D03*
X135080000Y-126000000D03*
D18*
X135500000Y-126000000D03*
X124500000Y-126000000D03*
D19*
X130000000Y-126000000D03*
D16*
X132540000Y-120920000D03*
G36*
G01*
X124550000Y-122210000D02*
X124550000Y-124710000D01*
G75*
G02*
X124350000Y-124910000I-200000J0D01*
G01*
X121850000Y-124910000D01*
G75*
G02*
X121650000Y-124710000I0J200000D01*
G01*
X121650000Y-122210000D01*
G75*
G02*
X121850000Y-122010000I200000J0D01*
G01*
X124350000Y-122010000D01*
G75*
G02*
X124550000Y-122210000I0J-200000D01*
G01*
G37*
D20*
X126175000Y-123420000D03*
X133825000Y-123420000D03*
D16*
X127460000Y-120920000D03*
X133810000Y-123460000D03*
X133810000Y-123460000D03*
G36*
G01*
X136650000Y-121650000D02*
X136650000Y-120150000D01*
G75*
G02*
X136850000Y-119950000I200000J0D01*
G01*
X137550000Y-119950000D01*
G75*
G02*
X137750000Y-120150000I0J-200000D01*
G01*
X137750000Y-121650000D01*
G75*
G02*
X137550000Y-121850000I-200000J0D01*
G01*
X136850000Y-121850000D01*
G75*
G02*
X136650000Y-121650000I0J200000D01*
G01*
G37*
G36*
G01*
X120950000Y-124250000D02*
X120950000Y-122750000D01*
G75*
G02*
X121150000Y-122550000I200000J0D01*
G01*
X121850000Y-122550000D01*
G75*
G02*
X122050000Y-122750000I0J-200000D01*
G01*
X122050000Y-124250000D01*
G75*
G02*
X121850000Y-124450000I-200000J0D01*
G01*
X121150000Y-124450000D01*
G75*
G02*
X120950000Y-124250000I0J200000D01*
G01*
G37*
G36*
G01*
X108500000Y-91220000D02*
X108500000Y-93620000D01*
G75*
G02*
X108300000Y-93820000I-200000J0D01*
G01*
X105900000Y-93820000D01*
G75*
G02*
X105700000Y-93620000I0J200000D01*
G01*
X105700000Y-91220000D01*
G75*
G02*
X105900000Y-91020000I200000J0D01*
G01*
X108300000Y-91020000D01*
G75*
G02*
X108500000Y-91220000I0J-200000D01*
G01*
G37*
X97590000Y-94959999D03*
D17*
X96320000Y-97500000D03*
X106480000Y-97500000D03*
D18*
X106900000Y-97500000D03*
X95900000Y-97500000D03*
D19*
X101400000Y-97500000D03*
D16*
X103940000Y-92420000D03*
G36*
G01*
X95950000Y-93710000D02*
X95950000Y-96210000D01*
G75*
G02*
X95750000Y-96410000I-200000J0D01*
G01*
X93250000Y-96410000D01*
G75*
G02*
X93050000Y-96210000I0J200000D01*
G01*
X93050000Y-93710000D01*
G75*
G02*
X93250000Y-93510000I200000J0D01*
G01*
X95750000Y-93510000D01*
G75*
G02*
X95950000Y-93710000I0J-200000D01*
G01*
G37*
D20*
X97575000Y-94920000D03*
X105225000Y-94920000D03*
D16*
X98860000Y-92420000D03*
X105210000Y-94960000D03*
X105210000Y-94960000D03*
G36*
G01*
X108050000Y-93150000D02*
X108050000Y-91650000D01*
G75*
G02*
X108250000Y-91450000I200000J0D01*
G01*
X108950000Y-91450000D01*
G75*
G02*
X109150000Y-91650000I0J-200000D01*
G01*
X109150000Y-93150000D01*
G75*
G02*
X108950000Y-93350000I-200000J0D01*
G01*
X108250000Y-93350000D01*
G75*
G02*
X108050000Y-93150000I0J200000D01*
G01*
G37*
G36*
G01*
X92350000Y-95750000D02*
X92350000Y-94250000D01*
G75*
G02*
X92550000Y-94050000I200000J0D01*
G01*
X93250000Y-94050000D01*
G75*
G02*
X93450000Y-94250000I0J-200000D01*
G01*
X93450000Y-95750000D01*
G75*
G02*
X93250000Y-95950000I-200000J0D01*
G01*
X92550000Y-95950000D01*
G75*
G02*
X92350000Y-95750000I0J200000D01*
G01*
G37*
G36*
G01*
X222850000Y-104720000D02*
X222850000Y-107120000D01*
G75*
G02*
X222650000Y-107320000I-200000J0D01*
G01*
X220250000Y-107320000D01*
G75*
G02*
X220050000Y-107120000I0J200000D01*
G01*
X220050000Y-104720000D01*
G75*
G02*
X220250000Y-104520000I200000J0D01*
G01*
X222650000Y-104520000D01*
G75*
G02*
X222850000Y-104720000I0J-200000D01*
G01*
G37*
X211940000Y-108459999D03*
D17*
X210670000Y-111000000D03*
X220830000Y-111000000D03*
D18*
X221250000Y-111000000D03*
X210250000Y-111000000D03*
D19*
X215750000Y-111000000D03*
D16*
X218290000Y-105920000D03*
G36*
G01*
X210300000Y-107210000D02*
X210300000Y-109710000D01*
G75*
G02*
X210100000Y-109910000I-200000J0D01*
G01*
X207600000Y-109910000D01*
G75*
G02*
X207400000Y-109710000I0J200000D01*
G01*
X207400000Y-107210000D01*
G75*
G02*
X207600000Y-107010000I200000J0D01*
G01*
X210100000Y-107010000D01*
G75*
G02*
X210300000Y-107210000I0J-200000D01*
G01*
G37*
D20*
X211925000Y-108420000D03*
X219575000Y-108420000D03*
D16*
X213210000Y-105920000D03*
X219560000Y-108460000D03*
X219560000Y-108460000D03*
G36*
G01*
X222400000Y-106650000D02*
X222400000Y-105150000D01*
G75*
G02*
X222600000Y-104950000I200000J0D01*
G01*
X223300000Y-104950000D01*
G75*
G02*
X223500000Y-105150000I0J-200000D01*
G01*
X223500000Y-106650000D01*
G75*
G02*
X223300000Y-106850000I-200000J0D01*
G01*
X222600000Y-106850000D01*
G75*
G02*
X222400000Y-106650000I0J200000D01*
G01*
G37*
G36*
G01*
X206700000Y-109250000D02*
X206700000Y-107750000D01*
G75*
G02*
X206900000Y-107550000I200000J0D01*
G01*
X207600000Y-107550000D01*
G75*
G02*
X207800000Y-107750000I0J-200000D01*
G01*
X207800000Y-109250000D01*
G75*
G02*
X207600000Y-109450000I-200000J0D01*
G01*
X206900000Y-109450000D01*
G75*
G02*
X206700000Y-109250000I0J200000D01*
G01*
G37*
G36*
G01*
X203800000Y-103220000D02*
X203800000Y-105620000D01*
G75*
G02*
X203600000Y-105820000I-200000J0D01*
G01*
X201200000Y-105820000D01*
G75*
G02*
X201000000Y-105620000I0J200000D01*
G01*
X201000000Y-103220000D01*
G75*
G02*
X201200000Y-103020000I200000J0D01*
G01*
X203600000Y-103020000D01*
G75*
G02*
X203800000Y-103220000I0J-200000D01*
G01*
G37*
X192890000Y-106959999D03*
D17*
X191620000Y-109500000D03*
X201780000Y-109500000D03*
D18*
X202200000Y-109500000D03*
X191200000Y-109500000D03*
D19*
X196700000Y-109500000D03*
D16*
X199240000Y-104420000D03*
G36*
G01*
X191250000Y-105710000D02*
X191250000Y-108210000D01*
G75*
G02*
X191050000Y-108410000I-200000J0D01*
G01*
X188550000Y-108410000D01*
G75*
G02*
X188350000Y-108210000I0J200000D01*
G01*
X188350000Y-105710000D01*
G75*
G02*
X188550000Y-105510000I200000J0D01*
G01*
X191050000Y-105510000D01*
G75*
G02*
X191250000Y-105710000I0J-200000D01*
G01*
G37*
D20*
X192875000Y-106920000D03*
X200525000Y-106920000D03*
D16*
X194160000Y-104420000D03*
X200510000Y-106960000D03*
X200510000Y-106960000D03*
G36*
G01*
X203350000Y-105150000D02*
X203350000Y-103650000D01*
G75*
G02*
X203550000Y-103450000I200000J0D01*
G01*
X204250000Y-103450000D01*
G75*
G02*
X204450000Y-103650000I0J-200000D01*
G01*
X204450000Y-105150000D01*
G75*
G02*
X204250000Y-105350000I-200000J0D01*
G01*
X203550000Y-105350000D01*
G75*
G02*
X203350000Y-105150000I0J200000D01*
G01*
G37*
G36*
G01*
X187650000Y-107750000D02*
X187650000Y-106250000D01*
G75*
G02*
X187850000Y-106050000I200000J0D01*
G01*
X188550000Y-106050000D01*
G75*
G02*
X188750000Y-106250000I0J-200000D01*
G01*
X188750000Y-107750000D01*
G75*
G02*
X188550000Y-107950000I-200000J0D01*
G01*
X187850000Y-107950000D01*
G75*
G02*
X187650000Y-107750000I0J200000D01*
G01*
G37*
G36*
G01*
X184700000Y-98520000D02*
X184700000Y-100920000D01*
G75*
G02*
X184500000Y-101120000I-200000J0D01*
G01*
X182100000Y-101120000D01*
G75*
G02*
X181900000Y-100920000I0J200000D01*
G01*
X181900000Y-98520000D01*
G75*
G02*
X182100000Y-98320000I200000J0D01*
G01*
X184500000Y-98320000D01*
G75*
G02*
X184700000Y-98520000I0J-200000D01*
G01*
G37*
X173790000Y-102259999D03*
D17*
X172520000Y-104800000D03*
X182680000Y-104800000D03*
D18*
X183100000Y-104800000D03*
X172100000Y-104800000D03*
D19*
X177600000Y-104800000D03*
D16*
X180140000Y-99720000D03*
G36*
G01*
X172150000Y-101010000D02*
X172150000Y-103510000D01*
G75*
G02*
X171950000Y-103710000I-200000J0D01*
G01*
X169450000Y-103710000D01*
G75*
G02*
X169250000Y-103510000I0J200000D01*
G01*
X169250000Y-101010000D01*
G75*
G02*
X169450000Y-100810000I200000J0D01*
G01*
X171950000Y-100810000D01*
G75*
G02*
X172150000Y-101010000I0J-200000D01*
G01*
G37*
D20*
X173775000Y-102220000D03*
X181425000Y-102220000D03*
D16*
X175060000Y-99720000D03*
X181410000Y-102260000D03*
X181410000Y-102260000D03*
G36*
G01*
X184250000Y-100450000D02*
X184250000Y-98950000D01*
G75*
G02*
X184450000Y-98750000I200000J0D01*
G01*
X185150000Y-98750000D01*
G75*
G02*
X185350000Y-98950000I0J-200000D01*
G01*
X185350000Y-100450000D01*
G75*
G02*
X185150000Y-100650000I-200000J0D01*
G01*
X184450000Y-100650000D01*
G75*
G02*
X184250000Y-100450000I0J200000D01*
G01*
G37*
G36*
G01*
X168550000Y-103050000D02*
X168550000Y-101550000D01*
G75*
G02*
X168750000Y-101350000I200000J0D01*
G01*
X169450000Y-101350000D01*
G75*
G02*
X169650000Y-101550000I0J-200000D01*
G01*
X169650000Y-103050000D01*
G75*
G02*
X169450000Y-103250000I-200000J0D01*
G01*
X168750000Y-103250000D01*
G75*
G02*
X168550000Y-103050000I0J200000D01*
G01*
G37*
G36*
G01*
X165700000Y-97120000D02*
X165700000Y-99520000D01*
G75*
G02*
X165500000Y-99720000I-200000J0D01*
G01*
X163100000Y-99720000D01*
G75*
G02*
X162900000Y-99520000I0J200000D01*
G01*
X162900000Y-97120000D01*
G75*
G02*
X163100000Y-96920000I200000J0D01*
G01*
X165500000Y-96920000D01*
G75*
G02*
X165700000Y-97120000I0J-200000D01*
G01*
G37*
X154790000Y-100859999D03*
D17*
X153520000Y-103400000D03*
X163680000Y-103400000D03*
D18*
X164100000Y-103400000D03*
X153100000Y-103400000D03*
D19*
X158600000Y-103400000D03*
D16*
X161140000Y-98320000D03*
G36*
G01*
X153150000Y-99610000D02*
X153150000Y-102110000D01*
G75*
G02*
X152950000Y-102310000I-200000J0D01*
G01*
X150450000Y-102310000D01*
G75*
G02*
X150250000Y-102110000I0J200000D01*
G01*
X150250000Y-99610000D01*
G75*
G02*
X150450000Y-99410000I200000J0D01*
G01*
X152950000Y-99410000D01*
G75*
G02*
X153150000Y-99610000I0J-200000D01*
G01*
G37*
D20*
X154775000Y-100820000D03*
X162425000Y-100820000D03*
D16*
X156060000Y-98320000D03*
X162410000Y-100860000D03*
X162410000Y-100860000D03*
G36*
G01*
X165250000Y-99050000D02*
X165250000Y-97550000D01*
G75*
G02*
X165450000Y-97350000I200000J0D01*
G01*
X166150000Y-97350000D01*
G75*
G02*
X166350000Y-97550000I0J-200000D01*
G01*
X166350000Y-99050000D01*
G75*
G02*
X166150000Y-99250000I-200000J0D01*
G01*
X165450000Y-99250000D01*
G75*
G02*
X165250000Y-99050000I0J200000D01*
G01*
G37*
G36*
G01*
X149550000Y-101650000D02*
X149550000Y-100150000D01*
G75*
G02*
X149750000Y-99950000I200000J0D01*
G01*
X150450000Y-99950000D01*
G75*
G02*
X150650000Y-100150000I0J-200000D01*
G01*
X150650000Y-101650000D01*
G75*
G02*
X150450000Y-101850000I-200000J0D01*
G01*
X149750000Y-101850000D01*
G75*
G02*
X149550000Y-101650000I0J200000D01*
G01*
G37*
G36*
G01*
X146600000Y-98520000D02*
X146600000Y-100920000D01*
G75*
G02*
X146400000Y-101120000I-200000J0D01*
G01*
X144000000Y-101120000D01*
G75*
G02*
X143800000Y-100920000I0J200000D01*
G01*
X143800000Y-98520000D01*
G75*
G02*
X144000000Y-98320000I200000J0D01*
G01*
X146400000Y-98320000D01*
G75*
G02*
X146600000Y-98520000I0J-200000D01*
G01*
G37*
X135690000Y-102259999D03*
D17*
X134420000Y-104800000D03*
X144580000Y-104800000D03*
D18*
X145000000Y-104800000D03*
X134000000Y-104800000D03*
D19*
X139500000Y-104800000D03*
D16*
X142040000Y-99720000D03*
G36*
G01*
X134050000Y-101010000D02*
X134050000Y-103510000D01*
G75*
G02*
X133850000Y-103710000I-200000J0D01*
G01*
X131350000Y-103710000D01*
G75*
G02*
X131150000Y-103510000I0J200000D01*
G01*
X131150000Y-101010000D01*
G75*
G02*
X131350000Y-100810000I200000J0D01*
G01*
X133850000Y-100810000D01*
G75*
G02*
X134050000Y-101010000I0J-200000D01*
G01*
G37*
D20*
X135675000Y-102220000D03*
X143325000Y-102220000D03*
D16*
X136960000Y-99720000D03*
X143310000Y-102260000D03*
X143310000Y-102260000D03*
G36*
G01*
X146150000Y-100450000D02*
X146150000Y-98950000D01*
G75*
G02*
X146350000Y-98750000I200000J0D01*
G01*
X147050000Y-98750000D01*
G75*
G02*
X147250000Y-98950000I0J-200000D01*
G01*
X147250000Y-100450000D01*
G75*
G02*
X147050000Y-100650000I-200000J0D01*
G01*
X146350000Y-100650000D01*
G75*
G02*
X146150000Y-100450000I0J200000D01*
G01*
G37*
G36*
G01*
X130450000Y-103050000D02*
X130450000Y-101550000D01*
G75*
G02*
X130650000Y-101350000I200000J0D01*
G01*
X131350000Y-101350000D01*
G75*
G02*
X131550000Y-101550000I0J-200000D01*
G01*
X131550000Y-103050000D01*
G75*
G02*
X131350000Y-103250000I-200000J0D01*
G01*
X130650000Y-103250000D01*
G75*
G02*
X130450000Y-103050000I0J200000D01*
G01*
G37*
G36*
G01*
X127600000Y-100820000D02*
X127600000Y-103220000D01*
G75*
G02*
X127400000Y-103420000I-200000J0D01*
G01*
X125000000Y-103420000D01*
G75*
G02*
X124800000Y-103220000I0J200000D01*
G01*
X124800000Y-100820000D01*
G75*
G02*
X125000000Y-100620000I200000J0D01*
G01*
X127400000Y-100620000D01*
G75*
G02*
X127600000Y-100820000I0J-200000D01*
G01*
G37*
X116690000Y-104559999D03*
D17*
X115420000Y-107100000D03*
X125580000Y-107100000D03*
D18*
X126000000Y-107100000D03*
X115000000Y-107100000D03*
D19*
X120500000Y-107100000D03*
D16*
X123040000Y-102020000D03*
G36*
G01*
X115050000Y-103310000D02*
X115050000Y-105810000D01*
G75*
G02*
X114850000Y-106010000I-200000J0D01*
G01*
X112350000Y-106010000D01*
G75*
G02*
X112150000Y-105810000I0J200000D01*
G01*
X112150000Y-103310000D01*
G75*
G02*
X112350000Y-103110000I200000J0D01*
G01*
X114850000Y-103110000D01*
G75*
G02*
X115050000Y-103310000I0J-200000D01*
G01*
G37*
D20*
X116675000Y-104520000D03*
X124325000Y-104520000D03*
D16*
X117960000Y-102020000D03*
X124310000Y-104560000D03*
X124310000Y-104560000D03*
G36*
G01*
X127150000Y-102750000D02*
X127150000Y-101250000D01*
G75*
G02*
X127350000Y-101050000I200000J0D01*
G01*
X128050000Y-101050000D01*
G75*
G02*
X128250000Y-101250000I0J-200000D01*
G01*
X128250000Y-102750000D01*
G75*
G02*
X128050000Y-102950000I-200000J0D01*
G01*
X127350000Y-102950000D01*
G75*
G02*
X127150000Y-102750000I0J200000D01*
G01*
G37*
G36*
G01*
X111450000Y-105350000D02*
X111450000Y-103850000D01*
G75*
G02*
X111650000Y-103650000I200000J0D01*
G01*
X112350000Y-103650000D01*
G75*
G02*
X112550000Y-103850000I0J-200000D01*
G01*
X112550000Y-105350000D01*
G75*
G02*
X112350000Y-105550000I-200000J0D01*
G01*
X111650000Y-105550000D01*
G75*
G02*
X111450000Y-105350000I0J200000D01*
G01*
G37*
G36*
G01*
X222800000Y-85720000D02*
X222800000Y-88120000D01*
G75*
G02*
X222600000Y-88320000I-200000J0D01*
G01*
X220200000Y-88320000D01*
G75*
G02*
X220000000Y-88120000I0J200000D01*
G01*
X220000000Y-85720000D01*
G75*
G02*
X220200000Y-85520000I200000J0D01*
G01*
X222600000Y-85520000D01*
G75*
G02*
X222800000Y-85720000I0J-200000D01*
G01*
G37*
X211890000Y-89459999D03*
D17*
X210620000Y-92000000D03*
X220780000Y-92000000D03*
D18*
X221200000Y-92000000D03*
X210200000Y-92000000D03*
D19*
X215700000Y-92000000D03*
D16*
X218240000Y-86920000D03*
G36*
G01*
X210250000Y-88210000D02*
X210250000Y-90710000D01*
G75*
G02*
X210050000Y-90910000I-200000J0D01*
G01*
X207550000Y-90910000D01*
G75*
G02*
X207350000Y-90710000I0J200000D01*
G01*
X207350000Y-88210000D01*
G75*
G02*
X207550000Y-88010000I200000J0D01*
G01*
X210050000Y-88010000D01*
G75*
G02*
X210250000Y-88210000I0J-200000D01*
G01*
G37*
D20*
X211875000Y-89420000D03*
X219525000Y-89420000D03*
D16*
X213160000Y-86920000D03*
X219510000Y-89460000D03*
X219510000Y-89460000D03*
G36*
G01*
X222350000Y-87650000D02*
X222350000Y-86150000D01*
G75*
G02*
X222550000Y-85950000I200000J0D01*
G01*
X223250000Y-85950000D01*
G75*
G02*
X223450000Y-86150000I0J-200000D01*
G01*
X223450000Y-87650000D01*
G75*
G02*
X223250000Y-87850000I-200000J0D01*
G01*
X222550000Y-87850000D01*
G75*
G02*
X222350000Y-87650000I0J200000D01*
G01*
G37*
G36*
G01*
X206650000Y-90250000D02*
X206650000Y-88750000D01*
G75*
G02*
X206850000Y-88550000I200000J0D01*
G01*
X207550000Y-88550000D01*
G75*
G02*
X207750000Y-88750000I0J-200000D01*
G01*
X207750000Y-90250000D01*
G75*
G02*
X207550000Y-90450000I-200000J0D01*
G01*
X206850000Y-90450000D01*
G75*
G02*
X206650000Y-90250000I0J200000D01*
G01*
G37*
G36*
G01*
X184700000Y-79420000D02*
X184700000Y-81820000D01*
G75*
G02*
X184500000Y-82020000I-200000J0D01*
G01*
X182100000Y-82020000D01*
G75*
G02*
X181900000Y-81820000I0J200000D01*
G01*
X181900000Y-79420000D01*
G75*
G02*
X182100000Y-79220000I200000J0D01*
G01*
X184500000Y-79220000D01*
G75*
G02*
X184700000Y-79420000I0J-200000D01*
G01*
G37*
X173790000Y-83159999D03*
D17*
X172520000Y-85700000D03*
X182680000Y-85700000D03*
D18*
X183100000Y-85700000D03*
X172100000Y-85700000D03*
D19*
X177600000Y-85700000D03*
D16*
X180140000Y-80620000D03*
G36*
G01*
X172150000Y-81910000D02*
X172150000Y-84410000D01*
G75*
G02*
X171950000Y-84610000I-200000J0D01*
G01*
X169450000Y-84610000D01*
G75*
G02*
X169250000Y-84410000I0J200000D01*
G01*
X169250000Y-81910000D01*
G75*
G02*
X169450000Y-81710000I200000J0D01*
G01*
X171950000Y-81710000D01*
G75*
G02*
X172150000Y-81910000I0J-200000D01*
G01*
G37*
D20*
X173775000Y-83120000D03*
X181425000Y-83120000D03*
D16*
X175060000Y-80620000D03*
X181410000Y-83160000D03*
X181410000Y-83160000D03*
G36*
G01*
X184250000Y-81350000D02*
X184250000Y-79850000D01*
G75*
G02*
X184450000Y-79650000I200000J0D01*
G01*
X185150000Y-79650000D01*
G75*
G02*
X185350000Y-79850000I0J-200000D01*
G01*
X185350000Y-81350000D01*
G75*
G02*
X185150000Y-81550000I-200000J0D01*
G01*
X184450000Y-81550000D01*
G75*
G02*
X184250000Y-81350000I0J200000D01*
G01*
G37*
G36*
G01*
X168550000Y-83950000D02*
X168550000Y-82450000D01*
G75*
G02*
X168750000Y-82250000I200000J0D01*
G01*
X169450000Y-82250000D01*
G75*
G02*
X169650000Y-82450000I0J-200000D01*
G01*
X169650000Y-83950000D01*
G75*
G02*
X169450000Y-84150000I-200000J0D01*
G01*
X168750000Y-84150000D01*
G75*
G02*
X168550000Y-83950000I0J200000D01*
G01*
G37*
G36*
G01*
X165700000Y-78120000D02*
X165700000Y-80520000D01*
G75*
G02*
X165500000Y-80720000I-200000J0D01*
G01*
X163100000Y-80720000D01*
G75*
G02*
X162900000Y-80520000I0J200000D01*
G01*
X162900000Y-78120000D01*
G75*
G02*
X163100000Y-77920000I200000J0D01*
G01*
X165500000Y-77920000D01*
G75*
G02*
X165700000Y-78120000I0J-200000D01*
G01*
G37*
X154790000Y-81859999D03*
D17*
X153520000Y-84400000D03*
X163680000Y-84400000D03*
D18*
X164100000Y-84400000D03*
X153100000Y-84400000D03*
D19*
X158600000Y-84400000D03*
D16*
X161140000Y-79320000D03*
G36*
G01*
X153150000Y-80610000D02*
X153150000Y-83110000D01*
G75*
G02*
X152950000Y-83310000I-200000J0D01*
G01*
X150450000Y-83310000D01*
G75*
G02*
X150250000Y-83110000I0J200000D01*
G01*
X150250000Y-80610000D01*
G75*
G02*
X150450000Y-80410000I200000J0D01*
G01*
X152950000Y-80410000D01*
G75*
G02*
X153150000Y-80610000I0J-200000D01*
G01*
G37*
D20*
X154775000Y-81820000D03*
X162425000Y-81820000D03*
D16*
X156060000Y-79320000D03*
X162410000Y-81860000D03*
X162410000Y-81860000D03*
G36*
G01*
X165250000Y-80050000D02*
X165250000Y-78550000D01*
G75*
G02*
X165450000Y-78350000I200000J0D01*
G01*
X166150000Y-78350000D01*
G75*
G02*
X166350000Y-78550000I0J-200000D01*
G01*
X166350000Y-80050000D01*
G75*
G02*
X166150000Y-80250000I-200000J0D01*
G01*
X165450000Y-80250000D01*
G75*
G02*
X165250000Y-80050000I0J200000D01*
G01*
G37*
G36*
G01*
X149550000Y-82650000D02*
X149550000Y-81150000D01*
G75*
G02*
X149750000Y-80950000I200000J0D01*
G01*
X150450000Y-80950000D01*
G75*
G02*
X150650000Y-81150000I0J-200000D01*
G01*
X150650000Y-82650000D01*
G75*
G02*
X150450000Y-82850000I-200000J0D01*
G01*
X149750000Y-82850000D01*
G75*
G02*
X149550000Y-82650000I0J200000D01*
G01*
G37*
G36*
G01*
X146600000Y-79420000D02*
X146600000Y-81820000D01*
G75*
G02*
X146400000Y-82020000I-200000J0D01*
G01*
X144000000Y-82020000D01*
G75*
G02*
X143800000Y-81820000I0J200000D01*
G01*
X143800000Y-79420000D01*
G75*
G02*
X144000000Y-79220000I200000J0D01*
G01*
X146400000Y-79220000D01*
G75*
G02*
X146600000Y-79420000I0J-200000D01*
G01*
G37*
X135690000Y-83159999D03*
D17*
X134420000Y-85700000D03*
X144580000Y-85700000D03*
D18*
X145000000Y-85700000D03*
X134000000Y-85700000D03*
D19*
X139500000Y-85700000D03*
D16*
X142040000Y-80620000D03*
G36*
G01*
X134050000Y-81910000D02*
X134050000Y-84410000D01*
G75*
G02*
X133850000Y-84610000I-200000J0D01*
G01*
X131350000Y-84610000D01*
G75*
G02*
X131150000Y-84410000I0J200000D01*
G01*
X131150000Y-81910000D01*
G75*
G02*
X131350000Y-81710000I200000J0D01*
G01*
X133850000Y-81710000D01*
G75*
G02*
X134050000Y-81910000I0J-200000D01*
G01*
G37*
D20*
X135675000Y-83120000D03*
X143325000Y-83120000D03*
D16*
X136960000Y-80620000D03*
X143310000Y-83160000D03*
X143310000Y-83160000D03*
G36*
G01*
X146150000Y-81350000D02*
X146150000Y-79850000D01*
G75*
G02*
X146350000Y-79650000I200000J0D01*
G01*
X147050000Y-79650000D01*
G75*
G02*
X147250000Y-79850000I0J-200000D01*
G01*
X147250000Y-81350000D01*
G75*
G02*
X147050000Y-81550000I-200000J0D01*
G01*
X146350000Y-81550000D01*
G75*
G02*
X146150000Y-81350000I0J200000D01*
G01*
G37*
G36*
G01*
X130450000Y-83950000D02*
X130450000Y-82450000D01*
G75*
G02*
X130650000Y-82250000I200000J0D01*
G01*
X131350000Y-82250000D01*
G75*
G02*
X131550000Y-82450000I0J-200000D01*
G01*
X131550000Y-83950000D01*
G75*
G02*
X131350000Y-84150000I-200000J0D01*
G01*
X130650000Y-84150000D01*
G75*
G02*
X130450000Y-83950000I0J200000D01*
G01*
G37*
G36*
G01*
X127600000Y-81820000D02*
X127600000Y-84220000D01*
G75*
G02*
X127400000Y-84420000I-200000J0D01*
G01*
X125000000Y-84420000D01*
G75*
G02*
X124800000Y-84220000I0J200000D01*
G01*
X124800000Y-81820000D01*
G75*
G02*
X125000000Y-81620000I200000J0D01*
G01*
X127400000Y-81620000D01*
G75*
G02*
X127600000Y-81820000I0J-200000D01*
G01*
G37*
X116690000Y-85559999D03*
D17*
X115420000Y-88100000D03*
X125580000Y-88100000D03*
D18*
X126000000Y-88100000D03*
X115000000Y-88100000D03*
D19*
X120500000Y-88100000D03*
D16*
X123040000Y-83020000D03*
G36*
G01*
X115050000Y-84310000D02*
X115050000Y-86810000D01*
G75*
G02*
X114850000Y-87010000I-200000J0D01*
G01*
X112350000Y-87010000D01*
G75*
G02*
X112150000Y-86810000I0J200000D01*
G01*
X112150000Y-84310000D01*
G75*
G02*
X112350000Y-84110000I200000J0D01*
G01*
X114850000Y-84110000D01*
G75*
G02*
X115050000Y-84310000I0J-200000D01*
G01*
G37*
D20*
X116675000Y-85520000D03*
X124325000Y-85520000D03*
D16*
X117960000Y-83020000D03*
X124310000Y-85560000D03*
X124310000Y-85560000D03*
G36*
G01*
X127150000Y-83750000D02*
X127150000Y-82250000D01*
G75*
G02*
X127350000Y-82050000I200000J0D01*
G01*
X128050000Y-82050000D01*
G75*
G02*
X128250000Y-82250000I0J-200000D01*
G01*
X128250000Y-83750000D01*
G75*
G02*
X128050000Y-83950000I-200000J0D01*
G01*
X127350000Y-83950000D01*
G75*
G02*
X127150000Y-83750000I0J200000D01*
G01*
G37*
G36*
G01*
X111450000Y-86350000D02*
X111450000Y-84850000D01*
G75*
G02*
X111650000Y-84650000I200000J0D01*
G01*
X112350000Y-84650000D01*
G75*
G02*
X112550000Y-84850000I0J-200000D01*
G01*
X112550000Y-86350000D01*
G75*
G02*
X112350000Y-86550000I-200000J0D01*
G01*
X111650000Y-86550000D01*
G75*
G02*
X111450000Y-86350000I0J200000D01*
G01*
G37*
G36*
G01*
X222800000Y-66520000D02*
X222800000Y-68920000D01*
G75*
G02*
X222600000Y-69120000I-200000J0D01*
G01*
X220200000Y-69120000D01*
G75*
G02*
X220000000Y-68920000I0J200000D01*
G01*
X220000000Y-66520000D01*
G75*
G02*
X220200000Y-66320000I200000J0D01*
G01*
X222600000Y-66320000D01*
G75*
G02*
X222800000Y-66520000I0J-200000D01*
G01*
G37*
X211890000Y-70259999D03*
D17*
X210620000Y-72800000D03*
X220780000Y-72800000D03*
D18*
X221200000Y-72800000D03*
X210200000Y-72800000D03*
D19*
X215700000Y-72800000D03*
D16*
X218240000Y-67720000D03*
G36*
G01*
X210250000Y-69010000D02*
X210250000Y-71510000D01*
G75*
G02*
X210050000Y-71710000I-200000J0D01*
G01*
X207550000Y-71710000D01*
G75*
G02*
X207350000Y-71510000I0J200000D01*
G01*
X207350000Y-69010000D01*
G75*
G02*
X207550000Y-68810000I200000J0D01*
G01*
X210050000Y-68810000D01*
G75*
G02*
X210250000Y-69010000I0J-200000D01*
G01*
G37*
D20*
X211875000Y-70220000D03*
X219525000Y-70220000D03*
D16*
X213160000Y-67720000D03*
X219510000Y-70260000D03*
X219510000Y-70260000D03*
G36*
G01*
X222350000Y-68450000D02*
X222350000Y-66950000D01*
G75*
G02*
X222550000Y-66750000I200000J0D01*
G01*
X223250000Y-66750000D01*
G75*
G02*
X223450000Y-66950000I0J-200000D01*
G01*
X223450000Y-68450000D01*
G75*
G02*
X223250000Y-68650000I-200000J0D01*
G01*
X222550000Y-68650000D01*
G75*
G02*
X222350000Y-68450000I0J200000D01*
G01*
G37*
G36*
G01*
X206650000Y-71050000D02*
X206650000Y-69550000D01*
G75*
G02*
X206850000Y-69350000I200000J0D01*
G01*
X207550000Y-69350000D01*
G75*
G02*
X207750000Y-69550000I0J-200000D01*
G01*
X207750000Y-71050000D01*
G75*
G02*
X207550000Y-71250000I-200000J0D01*
G01*
X206850000Y-71250000D01*
G75*
G02*
X206650000Y-71050000I0J200000D01*
G01*
G37*
G36*
G01*
X184700000Y-60320000D02*
X184700000Y-62720000D01*
G75*
G02*
X184500000Y-62920000I-200000J0D01*
G01*
X182100000Y-62920000D01*
G75*
G02*
X181900000Y-62720000I0J200000D01*
G01*
X181900000Y-60320000D01*
G75*
G02*
X182100000Y-60120000I200000J0D01*
G01*
X184500000Y-60120000D01*
G75*
G02*
X184700000Y-60320000I0J-200000D01*
G01*
G37*
X173790000Y-64059999D03*
D17*
X172520000Y-66600000D03*
X182680000Y-66600000D03*
D18*
X183100000Y-66600000D03*
X172100000Y-66600000D03*
D19*
X177600000Y-66600000D03*
D16*
X180140000Y-61520000D03*
G36*
G01*
X172150000Y-62810000D02*
X172150000Y-65310000D01*
G75*
G02*
X171950000Y-65510000I-200000J0D01*
G01*
X169450000Y-65510000D01*
G75*
G02*
X169250000Y-65310000I0J200000D01*
G01*
X169250000Y-62810000D01*
G75*
G02*
X169450000Y-62610000I200000J0D01*
G01*
X171950000Y-62610000D01*
G75*
G02*
X172150000Y-62810000I0J-200000D01*
G01*
G37*
D20*
X173775000Y-64020000D03*
X181425000Y-64020000D03*
D16*
X175060000Y-61520000D03*
X181410000Y-64060000D03*
X181410000Y-64060000D03*
G36*
G01*
X184250000Y-62250000D02*
X184250000Y-60750000D01*
G75*
G02*
X184450000Y-60550000I200000J0D01*
G01*
X185150000Y-60550000D01*
G75*
G02*
X185350000Y-60750000I0J-200000D01*
G01*
X185350000Y-62250000D01*
G75*
G02*
X185150000Y-62450000I-200000J0D01*
G01*
X184450000Y-62450000D01*
G75*
G02*
X184250000Y-62250000I0J200000D01*
G01*
G37*
G36*
G01*
X168550000Y-64850000D02*
X168550000Y-63350000D01*
G75*
G02*
X168750000Y-63150000I200000J0D01*
G01*
X169450000Y-63150000D01*
G75*
G02*
X169650000Y-63350000I0J-200000D01*
G01*
X169650000Y-64850000D01*
G75*
G02*
X169450000Y-65050000I-200000J0D01*
G01*
X168750000Y-65050000D01*
G75*
G02*
X168550000Y-64850000I0J200000D01*
G01*
G37*
G36*
G01*
X165700000Y-59020000D02*
X165700000Y-61420000D01*
G75*
G02*
X165500000Y-61620000I-200000J0D01*
G01*
X163100000Y-61620000D01*
G75*
G02*
X162900000Y-61420000I0J200000D01*
G01*
X162900000Y-59020000D01*
G75*
G02*
X163100000Y-58820000I200000J0D01*
G01*
X165500000Y-58820000D01*
G75*
G02*
X165700000Y-59020000I0J-200000D01*
G01*
G37*
X154790000Y-62759999D03*
D17*
X153520000Y-65300000D03*
X163680000Y-65300000D03*
D18*
X164100000Y-65300000D03*
X153100000Y-65300000D03*
D19*
X158600000Y-65300000D03*
D16*
X161140000Y-60220000D03*
G36*
G01*
X153150000Y-61510000D02*
X153150000Y-64010000D01*
G75*
G02*
X152950000Y-64210000I-200000J0D01*
G01*
X150450000Y-64210000D01*
G75*
G02*
X150250000Y-64010000I0J200000D01*
G01*
X150250000Y-61510000D01*
G75*
G02*
X150450000Y-61310000I200000J0D01*
G01*
X152950000Y-61310000D01*
G75*
G02*
X153150000Y-61510000I0J-200000D01*
G01*
G37*
D20*
X154775000Y-62720000D03*
X162425000Y-62720000D03*
D16*
X156060000Y-60220000D03*
X162410000Y-62760000D03*
X162410000Y-62760000D03*
G36*
G01*
X165250000Y-60950000D02*
X165250000Y-59450000D01*
G75*
G02*
X165450000Y-59250000I200000J0D01*
G01*
X166150000Y-59250000D01*
G75*
G02*
X166350000Y-59450000I0J-200000D01*
G01*
X166350000Y-60950000D01*
G75*
G02*
X166150000Y-61150000I-200000J0D01*
G01*
X165450000Y-61150000D01*
G75*
G02*
X165250000Y-60950000I0J200000D01*
G01*
G37*
G36*
G01*
X149550000Y-63550000D02*
X149550000Y-62050000D01*
G75*
G02*
X149750000Y-61850000I200000J0D01*
G01*
X150450000Y-61850000D01*
G75*
G02*
X150650000Y-62050000I0J-200000D01*
G01*
X150650000Y-63550000D01*
G75*
G02*
X150450000Y-63750000I-200000J0D01*
G01*
X149750000Y-63750000D01*
G75*
G02*
X149550000Y-63550000I0J200000D01*
G01*
G37*
G36*
G01*
X146600000Y-60420000D02*
X146600000Y-62820000D01*
G75*
G02*
X146400000Y-63020000I-200000J0D01*
G01*
X144000000Y-63020000D01*
G75*
G02*
X143800000Y-62820000I0J200000D01*
G01*
X143800000Y-60420000D01*
G75*
G02*
X144000000Y-60220000I200000J0D01*
G01*
X146400000Y-60220000D01*
G75*
G02*
X146600000Y-60420000I0J-200000D01*
G01*
G37*
X135690000Y-64159999D03*
D17*
X134420000Y-66700000D03*
X144580000Y-66700000D03*
D18*
X145000000Y-66700000D03*
X134000000Y-66700000D03*
D19*
X139500000Y-66700000D03*
D16*
X142040000Y-61620000D03*
G36*
G01*
X134050000Y-62910000D02*
X134050000Y-65410000D01*
G75*
G02*
X133850000Y-65610000I-200000J0D01*
G01*
X131350000Y-65610000D01*
G75*
G02*
X131150000Y-65410000I0J200000D01*
G01*
X131150000Y-62910000D01*
G75*
G02*
X131350000Y-62710000I200000J0D01*
G01*
X133850000Y-62710000D01*
G75*
G02*
X134050000Y-62910000I0J-200000D01*
G01*
G37*
D20*
X135675000Y-64120000D03*
X143325000Y-64120000D03*
D16*
X136960000Y-61620000D03*
X143310000Y-64160000D03*
X143310000Y-64160000D03*
G36*
G01*
X146150000Y-62350000D02*
X146150000Y-60850000D01*
G75*
G02*
X146350000Y-60650000I200000J0D01*
G01*
X147050000Y-60650000D01*
G75*
G02*
X147250000Y-60850000I0J-200000D01*
G01*
X147250000Y-62350000D01*
G75*
G02*
X147050000Y-62550000I-200000J0D01*
G01*
X146350000Y-62550000D01*
G75*
G02*
X146150000Y-62350000I0J200000D01*
G01*
G37*
G36*
G01*
X130450000Y-64950000D02*
X130450000Y-63450000D01*
G75*
G02*
X130650000Y-63250000I200000J0D01*
G01*
X131350000Y-63250000D01*
G75*
G02*
X131550000Y-63450000I0J-200000D01*
G01*
X131550000Y-64950000D01*
G75*
G02*
X131350000Y-65150000I-200000J0D01*
G01*
X130650000Y-65150000D01*
G75*
G02*
X130450000Y-64950000I0J200000D01*
G01*
G37*
G36*
G01*
X127600000Y-62820000D02*
X127600000Y-65220000D01*
G75*
G02*
X127400000Y-65420000I-200000J0D01*
G01*
X125000000Y-65420000D01*
G75*
G02*
X124800000Y-65220000I0J200000D01*
G01*
X124800000Y-62820000D01*
G75*
G02*
X125000000Y-62620000I200000J0D01*
G01*
X127400000Y-62620000D01*
G75*
G02*
X127600000Y-62820000I0J-200000D01*
G01*
G37*
X116690000Y-66559999D03*
D17*
X115420000Y-69100000D03*
X125580000Y-69100000D03*
D18*
X126000000Y-69100000D03*
X115000000Y-69100000D03*
D19*
X120500000Y-69100000D03*
D16*
X123040000Y-64020000D03*
G36*
G01*
X115050000Y-65310000D02*
X115050000Y-67810000D01*
G75*
G02*
X114850000Y-68010000I-200000J0D01*
G01*
X112350000Y-68010000D01*
G75*
G02*
X112150000Y-67810000I0J200000D01*
G01*
X112150000Y-65310000D01*
G75*
G02*
X112350000Y-65110000I200000J0D01*
G01*
X114850000Y-65110000D01*
G75*
G02*
X115050000Y-65310000I0J-200000D01*
G01*
G37*
D20*
X116675000Y-66520000D03*
X124325000Y-66520000D03*
D16*
X117960000Y-64020000D03*
X124310000Y-66560000D03*
X124310000Y-66560000D03*
G36*
G01*
X127150000Y-64750000D02*
X127150000Y-63250000D01*
G75*
G02*
X127350000Y-63050000I200000J0D01*
G01*
X128050000Y-63050000D01*
G75*
G02*
X128250000Y-63250000I0J-200000D01*
G01*
X128250000Y-64750000D01*
G75*
G02*
X128050000Y-64950000I-200000J0D01*
G01*
X127350000Y-64950000D01*
G75*
G02*
X127150000Y-64750000I0J200000D01*
G01*
G37*
G36*
G01*
X111450000Y-67350000D02*
X111450000Y-65850000D01*
G75*
G02*
X111650000Y-65650000I200000J0D01*
G01*
X112350000Y-65650000D01*
G75*
G02*
X112550000Y-65850000I0J-200000D01*
G01*
X112550000Y-67350000D01*
G75*
G02*
X112350000Y-67550000I-200000J0D01*
G01*
X111650000Y-67550000D01*
G75*
G02*
X111450000Y-67350000I0J200000D01*
G01*
G37*
G36*
G01*
X165700000Y-39930000D02*
X165700000Y-42330000D01*
G75*
G02*
X165500000Y-42530000I-200000J0D01*
G01*
X163100000Y-42530000D01*
G75*
G02*
X162900000Y-42330000I0J200000D01*
G01*
X162900000Y-39930000D01*
G75*
G02*
X163100000Y-39730000I200000J0D01*
G01*
X165500000Y-39730000D01*
G75*
G02*
X165700000Y-39930000I0J-200000D01*
G01*
G37*
X154790000Y-43669999D03*
D17*
X153520000Y-46210000D03*
X163680000Y-46210000D03*
D18*
X164100000Y-46210000D03*
X153100000Y-46210000D03*
D19*
X158600000Y-46210000D03*
D16*
X161140000Y-41130000D03*
G36*
G01*
X153150000Y-42420000D02*
X153150000Y-44920000D01*
G75*
G02*
X152950000Y-45120000I-200000J0D01*
G01*
X150450000Y-45120000D01*
G75*
G02*
X150250000Y-44920000I0J200000D01*
G01*
X150250000Y-42420000D01*
G75*
G02*
X150450000Y-42220000I200000J0D01*
G01*
X152950000Y-42220000D01*
G75*
G02*
X153150000Y-42420000I0J-200000D01*
G01*
G37*
D20*
X154775000Y-43630000D03*
X162425000Y-43630000D03*
D16*
X156060000Y-41130000D03*
X162410000Y-43670000D03*
X162410000Y-43670000D03*
G36*
G01*
X165250000Y-41860000D02*
X165250000Y-40360000D01*
G75*
G02*
X165450000Y-40160000I200000J0D01*
G01*
X166150000Y-40160000D01*
G75*
G02*
X166350000Y-40360000I0J-200000D01*
G01*
X166350000Y-41860000D01*
G75*
G02*
X166150000Y-42060000I-200000J0D01*
G01*
X165450000Y-42060000D01*
G75*
G02*
X165250000Y-41860000I0J200000D01*
G01*
G37*
G36*
G01*
X149550000Y-44460000D02*
X149550000Y-42960000D01*
G75*
G02*
X149750000Y-42760000I200000J0D01*
G01*
X150450000Y-42760000D01*
G75*
G02*
X150650000Y-42960000I0J-200000D01*
G01*
X150650000Y-44460000D01*
G75*
G02*
X150450000Y-44660000I-200000J0D01*
G01*
X149750000Y-44660000D01*
G75*
G02*
X149550000Y-44460000I0J200000D01*
G01*
G37*
G36*
G01*
X127600000Y-43720000D02*
X127600000Y-46120000D01*
G75*
G02*
X127400000Y-46320000I-200000J0D01*
G01*
X125000000Y-46320000D01*
G75*
G02*
X124800000Y-46120000I0J200000D01*
G01*
X124800000Y-43720000D01*
G75*
G02*
X125000000Y-43520000I200000J0D01*
G01*
X127400000Y-43520000D01*
G75*
G02*
X127600000Y-43720000I0J-200000D01*
G01*
G37*
X116690000Y-47459999D03*
D17*
X115420000Y-50000000D03*
X125580000Y-50000000D03*
D18*
X126000000Y-50000000D03*
X115000000Y-50000000D03*
D19*
X120500000Y-50000000D03*
D16*
X123040000Y-44920000D03*
G36*
G01*
X115050000Y-46210000D02*
X115050000Y-48710000D01*
G75*
G02*
X114850000Y-48910000I-200000J0D01*
G01*
X112350000Y-48910000D01*
G75*
G02*
X112150000Y-48710000I0J200000D01*
G01*
X112150000Y-46210000D01*
G75*
G02*
X112350000Y-46010000I200000J0D01*
G01*
X114850000Y-46010000D01*
G75*
G02*
X115050000Y-46210000I0J-200000D01*
G01*
G37*
D20*
X116675000Y-47420000D03*
X124325000Y-47420000D03*
D16*
X117960000Y-44920000D03*
X124310000Y-47460000D03*
X124310000Y-47460000D03*
G36*
G01*
X127150000Y-45650000D02*
X127150000Y-44150000D01*
G75*
G02*
X127350000Y-43950000I200000J0D01*
G01*
X128050000Y-43950000D01*
G75*
G02*
X128250000Y-44150000I0J-200000D01*
G01*
X128250000Y-45650000D01*
G75*
G02*
X128050000Y-45850000I-200000J0D01*
G01*
X127350000Y-45850000D01*
G75*
G02*
X127150000Y-45650000I0J200000D01*
G01*
G37*
G36*
G01*
X111450000Y-48250000D02*
X111450000Y-46750000D01*
G75*
G02*
X111650000Y-46550000I200000J0D01*
G01*
X112350000Y-46550000D01*
G75*
G02*
X112550000Y-46750000I0J-200000D01*
G01*
X112550000Y-48250000D01*
G75*
G02*
X112350000Y-48450000I-200000J0D01*
G01*
X111650000Y-48450000D01*
G75*
G02*
X111450000Y-48250000I0J200000D01*
G01*
G37*
D22*
X86150000Y-47800000D03*
X86150000Y-40800000D03*
G36*
G01*
X83250000Y-50650000D02*
X83250000Y-48550000D01*
G75*
G02*
X83450000Y-48350000I200000J0D01*
G01*
X84650000Y-48350000D01*
G75*
G02*
X84850000Y-48550000I0J-200000D01*
G01*
X84850000Y-50650000D01*
G75*
G02*
X84650000Y-50850000I-200000J0D01*
G01*
X83450000Y-50850000D01*
G75*
G02*
X83250000Y-50650000I0J200000D01*
G01*
G37*
G36*
G01*
X87450000Y-52150000D02*
X87450000Y-50050000D01*
G75*
G02*
X87650000Y-49850000I200000J0D01*
G01*
X88850000Y-49850000D01*
G75*
G02*
X89050000Y-50050000I0J-200000D01*
G01*
X89050000Y-52150000D01*
G75*
G02*
X88850000Y-52350000I-200000J0D01*
G01*
X87650000Y-52350000D01*
G75*
G02*
X87450000Y-52150000I0J200000D01*
G01*
G37*
G36*
G01*
X83250000Y-43650000D02*
X83250000Y-41550000D01*
G75*
G02*
X83450000Y-41350000I200000J0D01*
G01*
X84650000Y-41350000D01*
G75*
G02*
X84850000Y-41550000I0J-200000D01*
G01*
X84850000Y-43650000D01*
G75*
G02*
X84650000Y-43850000I-200000J0D01*
G01*
X83450000Y-43850000D01*
G75*
G02*
X83250000Y-43650000I0J200000D01*
G01*
G37*
G36*
G01*
X83250000Y-46650000D02*
X83250000Y-44550000D01*
G75*
G02*
X83450000Y-44350000I200000J0D01*
G01*
X84650000Y-44350000D01*
G75*
G02*
X84850000Y-44550000I0J-200000D01*
G01*
X84850000Y-46650000D01*
G75*
G02*
X84650000Y-46850000I-200000J0D01*
G01*
X83450000Y-46850000D01*
G75*
G02*
X83250000Y-46650000I0J200000D01*
G01*
G37*
X87900000Y-40800000D03*
X87900000Y-47800000D03*
G36*
G01*
X89200000Y-43650000D02*
X89200000Y-41550000D01*
G75*
G02*
X89400000Y-41350000I200000J0D01*
G01*
X90600000Y-41350000D01*
G75*
G02*
X90800000Y-41550000I0J-200000D01*
G01*
X90800000Y-43650000D01*
G75*
G02*
X90600000Y-43850000I-200000J0D01*
G01*
X89400000Y-43850000D01*
G75*
G02*
X89200000Y-43650000I0J200000D01*
G01*
G37*
G36*
G01*
X89200000Y-46650000D02*
X89200000Y-44550000D01*
G75*
G02*
X89400000Y-44350000I200000J0D01*
G01*
X90600000Y-44350000D01*
G75*
G02*
X90800000Y-44550000I0J-200000D01*
G01*
X90800000Y-46650000D01*
G75*
G02*
X90600000Y-46850000I-200000J0D01*
G01*
X89400000Y-46850000D01*
G75*
G02*
X89200000Y-46650000I0J200000D01*
G01*
G37*
G36*
G01*
X89200000Y-50650000D02*
X89200000Y-48550000D01*
G75*
G02*
X89400000Y-48350000I200000J0D01*
G01*
X90600000Y-48350000D01*
G75*
G02*
X90800000Y-48550000I0J-200000D01*
G01*
X90800000Y-50650000D01*
G75*
G02*
X90600000Y-50850000I-200000J0D01*
G01*
X89400000Y-50850000D01*
G75*
G02*
X89200000Y-50650000I0J200000D01*
G01*
G37*
G36*
G01*
X85000000Y-52150000D02*
X85000000Y-50050000D01*
G75*
G02*
X85200000Y-49850000I200000J0D01*
G01*
X86400000Y-49850000D01*
G75*
G02*
X86600000Y-50050000I0J-200000D01*
G01*
X86600000Y-52150000D01*
G75*
G02*
X86400000Y-52350000I-200000J0D01*
G01*
X85200000Y-52350000D01*
G75*
G02*
X85000000Y-52150000I0J200000D01*
G01*
G37*
G36*
G01*
X113662000Y-75738000D02*
X113662000Y-77262000D01*
G75*
G02*
X113462000Y-77462000I-200000J0D01*
G01*
X111938000Y-77462000D01*
G75*
G02*
X111738000Y-77262000I0J200000D01*
G01*
X111738000Y-75738000D01*
G75*
G02*
X111938000Y-75538000I200000J0D01*
G01*
X113462000Y-75538000D01*
G75*
G02*
X113662000Y-75738000I0J-200000D01*
G01*
G37*
G36*
G01*
X113662000Y-77838000D02*
X113662000Y-79362000D01*
G75*
G02*
X113462000Y-79562000I-200000J0D01*
G01*
X111938000Y-79562000D01*
G75*
G02*
X111738000Y-79362000I0J200000D01*
G01*
X111738000Y-77838000D01*
G75*
G02*
X111938000Y-77638000I200000J0D01*
G01*
X113462000Y-77638000D01*
G75*
G02*
X113662000Y-77838000I0J-200000D01*
G01*
G37*
G36*
G01*
X111938000Y-79638000D02*
X113462000Y-79638000D01*
G75*
G02*
X113662000Y-79838000I0J-200000D01*
G01*
X113662000Y-81362000D01*
G75*
G02*
X113462000Y-81562000I-200000J0D01*
G01*
X111938000Y-81562000D01*
G75*
G02*
X111738000Y-81362000I0J200000D01*
G01*
X111738000Y-79838000D01*
G75*
G02*
X111938000Y-79638000I200000J0D01*
G01*
G37*
D23*
X107420000Y-41230000D03*
X107420000Y-43770000D03*
X107420000Y-46310000D03*
X107420000Y-48850000D03*
X107420000Y-51390000D03*
X107420000Y-53930000D03*
X107420000Y-56470000D03*
X107420000Y-59010000D03*
X107420000Y-61550000D03*
X107420000Y-64090000D03*
X107420000Y-66630000D03*
X107420000Y-69170000D03*
X92180000Y-69170000D03*
X92180000Y-66630000D03*
X92180000Y-64090000D03*
X92180000Y-61550000D03*
X92180000Y-59010000D03*
X92180000Y-56470000D03*
X92180000Y-53930000D03*
X92180000Y-51390000D03*
X92180000Y-48850000D03*
X92180000Y-46310000D03*
X92180000Y-43770000D03*
X92180000Y-41230000D03*
X108718815Y-52585745D03*
X108718815Y-57665745D03*
X93478815Y-42425745D03*
X108718815Y-44965745D03*
X108718815Y-67825745D03*
X93478815Y-70365745D03*
X108718815Y-60205745D03*
X108718815Y-62745745D03*
X93478815Y-60205745D03*
X93478815Y-65285745D03*
X93478815Y-52585745D03*
X93478815Y-50045745D03*
X93478815Y-44965745D03*
X93478815Y-55125745D03*
X108718815Y-70365745D03*
X93478815Y-62745745D03*
X108718815Y-42425745D03*
X108718815Y-47505745D03*
X93478815Y-67825745D03*
X108718815Y-50045745D03*
X108718815Y-55125745D03*
X93478815Y-57665745D03*
X108718815Y-65285745D03*
X93478815Y-47505745D03*
D21*
X129600000Y-38600000D03*
X225300000Y-42800000D03*
X129600000Y-97600000D03*
X225300000Y-100000000D03*
X94615000Y-117475000D03*
D24*
X84700000Y-60700000D03*
X86900000Y-60700000D03*
D25*
X85000000Y-70950000D03*
X85000000Y-64450000D03*
G36*
G01*
X191200000Y-61150000D02*
X191200000Y-59650000D01*
G75*
G02*
X191400000Y-59450000I200000J0D01*
G01*
X193200000Y-59450000D01*
G75*
G02*
X193400000Y-59650000I0J-200000D01*
G01*
X193400000Y-61150000D01*
G75*
G02*
X193200000Y-61350000I-200000J0D01*
G01*
X191400000Y-61350000D01*
G75*
G02*
X191200000Y-61150000I0J200000D01*
G01*
G37*
G36*
G01*
X187800000Y-61150000D02*
X187800000Y-59650000D01*
G75*
G02*
X188000000Y-59450000I200000J0D01*
G01*
X189800000Y-59450000D01*
G75*
G02*
X190000000Y-59650000I0J-200000D01*
G01*
X190000000Y-61150000D01*
G75*
G02*
X189800000Y-61350000I-200000J0D01*
G01*
X188000000Y-61350000D01*
G75*
G02*
X187800000Y-61150000I0J200000D01*
G01*
G37*
G36*
G01*
X219000000Y-62550000D02*
X219000000Y-61050000D01*
G75*
G02*
X219200000Y-60850000I200000J0D01*
G01*
X221000000Y-60850000D01*
G75*
G02*
X221200000Y-61050000I0J-200000D01*
G01*
X221200000Y-62550000D01*
G75*
G02*
X221000000Y-62750000I-200000J0D01*
G01*
X219200000Y-62750000D01*
G75*
G02*
X219000000Y-62550000I0J200000D01*
G01*
G37*
G36*
G01*
X222400000Y-62550000D02*
X222400000Y-61050000D01*
G75*
G02*
X222600000Y-60850000I200000J0D01*
G01*
X224400000Y-60850000D01*
G75*
G02*
X224600000Y-61050000I0J-200000D01*
G01*
X224600000Y-62550000D01*
G75*
G02*
X224400000Y-62750000I-200000J0D01*
G01*
X222600000Y-62750000D01*
G75*
G02*
X222400000Y-62550000I0J200000D01*
G01*
G37*
G36*
G01*
X115000000Y-61850000D02*
X115000000Y-60350000D01*
G75*
G02*
X115200000Y-60150000I200000J0D01*
G01*
X117000000Y-60150000D01*
G75*
G02*
X117200000Y-60350000I0J-200000D01*
G01*
X117200000Y-61850000D01*
G75*
G02*
X117000000Y-62050000I-200000J0D01*
G01*
X115200000Y-62050000D01*
G75*
G02*
X115000000Y-61850000I0J200000D01*
G01*
G37*
G36*
G01*
X111600000Y-61850000D02*
X111600000Y-60350000D01*
G75*
G02*
X111800000Y-60150000I200000J0D01*
G01*
X113600000Y-60150000D01*
G75*
G02*
X113800000Y-60350000I0J-200000D01*
G01*
X113800000Y-61850000D01*
G75*
G02*
X113600000Y-62050000I-200000J0D01*
G01*
X111800000Y-62050000D01*
G75*
G02*
X111600000Y-61850000I0J200000D01*
G01*
G37*
G36*
G01*
X135900000Y-59450000D02*
X135900000Y-57950000D01*
G75*
G02*
X136100000Y-57750000I200000J0D01*
G01*
X137900000Y-57750000D01*
G75*
G02*
X138100000Y-57950000I0J-200000D01*
G01*
X138100000Y-59450000D01*
G75*
G02*
X137900000Y-59650000I-200000J0D01*
G01*
X136100000Y-59650000D01*
G75*
G02*
X135900000Y-59450000I0J200000D01*
G01*
G37*
G36*
G01*
X132500000Y-59450000D02*
X132500000Y-57950000D01*
G75*
G02*
X132700000Y-57750000I200000J0D01*
G01*
X134500000Y-57750000D01*
G75*
G02*
X134700000Y-57950000I0J-200000D01*
G01*
X134700000Y-59450000D01*
G75*
G02*
X134500000Y-59650000I-200000J0D01*
G01*
X132700000Y-59650000D01*
G75*
G02*
X132500000Y-59450000I0J200000D01*
G01*
G37*
G36*
G01*
X153200000Y-58150000D02*
X153200000Y-56650000D01*
G75*
G02*
X153400000Y-56450000I200000J0D01*
G01*
X155200000Y-56450000D01*
G75*
G02*
X155400000Y-56650000I0J-200000D01*
G01*
X155400000Y-58150000D01*
G75*
G02*
X155200000Y-58350000I-200000J0D01*
G01*
X153400000Y-58350000D01*
G75*
G02*
X153200000Y-58150000I0J200000D01*
G01*
G37*
G36*
G01*
X149800000Y-58150000D02*
X149800000Y-56650000D01*
G75*
G02*
X150000000Y-56450000I200000J0D01*
G01*
X151800000Y-56450000D01*
G75*
G02*
X152000000Y-56650000I0J-200000D01*
G01*
X152000000Y-58150000D01*
G75*
G02*
X151800000Y-58350000I-200000J0D01*
G01*
X150000000Y-58350000D01*
G75*
G02*
X149800000Y-58150000I0J200000D01*
G01*
G37*
G36*
G01*
X168700000Y-59450000D02*
X168700000Y-57950000D01*
G75*
G02*
X168900000Y-57750000I200000J0D01*
G01*
X170700000Y-57750000D01*
G75*
G02*
X170900000Y-57950000I0J-200000D01*
G01*
X170900000Y-59450000D01*
G75*
G02*
X170700000Y-59650000I-200000J0D01*
G01*
X168900000Y-59650000D01*
G75*
G02*
X168700000Y-59450000I0J200000D01*
G01*
G37*
G36*
G01*
X172100000Y-59450000D02*
X172100000Y-57950000D01*
G75*
G02*
X172300000Y-57750000I200000J0D01*
G01*
X174100000Y-57750000D01*
G75*
G02*
X174300000Y-57950000I0J-200000D01*
G01*
X174300000Y-59450000D01*
G75*
G02*
X174100000Y-59650000I-200000J0D01*
G01*
X172300000Y-59650000D01*
G75*
G02*
X172100000Y-59450000I0J200000D01*
G01*
G37*
G36*
G01*
X191200000Y-64050000D02*
X191200000Y-62550000D01*
G75*
G02*
X191400000Y-62350000I200000J0D01*
G01*
X193200000Y-62350000D01*
G75*
G02*
X193400000Y-62550000I0J-200000D01*
G01*
X193400000Y-64050000D01*
G75*
G02*
X193200000Y-64250000I-200000J0D01*
G01*
X191400000Y-64250000D01*
G75*
G02*
X191200000Y-64050000I0J200000D01*
G01*
G37*
G36*
G01*
X187800000Y-64050000D02*
X187800000Y-62550000D01*
G75*
G02*
X188000000Y-62350000I200000J0D01*
G01*
X189800000Y-62350000D01*
G75*
G02*
X190000000Y-62550000I0J-200000D01*
G01*
X190000000Y-64050000D01*
G75*
G02*
X189800000Y-64250000I-200000J0D01*
G01*
X188000000Y-64250000D01*
G75*
G02*
X187800000Y-64050000I0J200000D01*
G01*
G37*
G36*
G01*
X222400000Y-65650000D02*
X222400000Y-64150000D01*
G75*
G02*
X222600000Y-63950000I200000J0D01*
G01*
X224400000Y-63950000D01*
G75*
G02*
X224600000Y-64150000I0J-200000D01*
G01*
X224600000Y-65650000D01*
G75*
G02*
X224400000Y-65850000I-200000J0D01*
G01*
X222600000Y-65850000D01*
G75*
G02*
X222400000Y-65650000I0J200000D01*
G01*
G37*
G36*
G01*
X219000000Y-65650000D02*
X219000000Y-64150000D01*
G75*
G02*
X219200000Y-63950000I200000J0D01*
G01*
X221000000Y-63950000D01*
G75*
G02*
X221200000Y-64150000I0J-200000D01*
G01*
X221200000Y-65650000D01*
G75*
G02*
X221000000Y-65850000I-200000J0D01*
G01*
X219200000Y-65850000D01*
G75*
G02*
X219000000Y-65650000I0J200000D01*
G01*
G37*
G36*
G01*
X111600000Y-96750000D02*
X111600000Y-95250000D01*
G75*
G02*
X111800000Y-95050000I200000J0D01*
G01*
X113600000Y-95050000D01*
G75*
G02*
X113800000Y-95250000I0J-200000D01*
G01*
X113800000Y-96750000D01*
G75*
G02*
X113600000Y-96950000I-200000J0D01*
G01*
X111800000Y-96950000D01*
G75*
G02*
X111600000Y-96750000I0J200000D01*
G01*
G37*
G36*
G01*
X115000000Y-96750000D02*
X115000000Y-95250000D01*
G75*
G02*
X115200000Y-95050000I200000J0D01*
G01*
X117000000Y-95050000D01*
G75*
G02*
X117200000Y-95250000I0J-200000D01*
G01*
X117200000Y-96750000D01*
G75*
G02*
X117000000Y-96950000I-200000J0D01*
G01*
X115200000Y-96950000D01*
G75*
G02*
X115000000Y-96750000I0J200000D01*
G01*
G37*
G36*
G01*
X134900000Y-94550000D02*
X134900000Y-93050000D01*
G75*
G02*
X135100000Y-92850000I200000J0D01*
G01*
X136900000Y-92850000D01*
G75*
G02*
X137100000Y-93050000I0J-200000D01*
G01*
X137100000Y-94550000D01*
G75*
G02*
X136900000Y-94750000I-200000J0D01*
G01*
X135100000Y-94750000D01*
G75*
G02*
X134900000Y-94550000I0J200000D01*
G01*
G37*
G36*
G01*
X131500000Y-94550000D02*
X131500000Y-93050000D01*
G75*
G02*
X131700000Y-92850000I200000J0D01*
G01*
X133500000Y-92850000D01*
G75*
G02*
X133700000Y-93050000I0J-200000D01*
G01*
X133700000Y-94550000D01*
G75*
G02*
X133500000Y-94750000I-200000J0D01*
G01*
X131700000Y-94750000D01*
G75*
G02*
X131500000Y-94550000I0J200000D01*
G01*
G37*
G36*
G01*
X153100000Y-93050000D02*
X153100000Y-91550000D01*
G75*
G02*
X153300000Y-91350000I200000J0D01*
G01*
X155100000Y-91350000D01*
G75*
G02*
X155300000Y-91550000I0J-200000D01*
G01*
X155300000Y-93050000D01*
G75*
G02*
X155100000Y-93250000I-200000J0D01*
G01*
X153300000Y-93250000D01*
G75*
G02*
X153100000Y-93050000I0J200000D01*
G01*
G37*
G36*
G01*
X149700000Y-93050000D02*
X149700000Y-91550000D01*
G75*
G02*
X149900000Y-91350000I200000J0D01*
G01*
X151700000Y-91350000D01*
G75*
G02*
X151900000Y-91550000I0J-200000D01*
G01*
X151900000Y-93050000D01*
G75*
G02*
X151700000Y-93250000I-200000J0D01*
G01*
X149900000Y-93250000D01*
G75*
G02*
X149700000Y-93050000I0J200000D01*
G01*
G37*
G36*
G01*
X168700000Y-94350000D02*
X168700000Y-92850000D01*
G75*
G02*
X168900000Y-92650000I200000J0D01*
G01*
X170700000Y-92650000D01*
G75*
G02*
X170900000Y-92850000I0J-200000D01*
G01*
X170900000Y-94350000D01*
G75*
G02*
X170700000Y-94550000I-200000J0D01*
G01*
X168900000Y-94550000D01*
G75*
G02*
X168700000Y-94350000I0J200000D01*
G01*
G37*
G36*
G01*
X172100000Y-94350000D02*
X172100000Y-92850000D01*
G75*
G02*
X172300000Y-92650000I200000J0D01*
G01*
X174100000Y-92650000D01*
G75*
G02*
X174300000Y-92850000I0J-200000D01*
G01*
X174300000Y-94350000D01*
G75*
G02*
X174100000Y-94550000I-200000J0D01*
G01*
X172300000Y-94550000D01*
G75*
G02*
X172100000Y-94350000I0J200000D01*
G01*
G37*
G36*
G01*
X187800000Y-99050000D02*
X187800000Y-97550000D01*
G75*
G02*
X188000000Y-97350000I200000J0D01*
G01*
X189800000Y-97350000D01*
G75*
G02*
X190000000Y-97550000I0J-200000D01*
G01*
X190000000Y-99050000D01*
G75*
G02*
X189800000Y-99250000I-200000J0D01*
G01*
X188000000Y-99250000D01*
G75*
G02*
X187800000Y-99050000I0J200000D01*
G01*
G37*
G36*
G01*
X191200000Y-99050000D02*
X191200000Y-97550000D01*
G75*
G02*
X191400000Y-97350000I200000J0D01*
G01*
X193200000Y-97350000D01*
G75*
G02*
X193400000Y-97550000I0J-200000D01*
G01*
X193400000Y-99050000D01*
G75*
G02*
X193200000Y-99250000I-200000J0D01*
G01*
X191400000Y-99250000D01*
G75*
G02*
X191200000Y-99050000I0J200000D01*
G01*
G37*
G36*
G01*
X216210000Y-97740000D02*
X216210000Y-96240000D01*
G75*
G02*
X216410000Y-96040000I200000J0D01*
G01*
X218210000Y-96040000D01*
G75*
G02*
X218410000Y-96240000I0J-200000D01*
G01*
X218410000Y-97740000D01*
G75*
G02*
X218210000Y-97940000I-200000J0D01*
G01*
X216410000Y-97940000D01*
G75*
G02*
X216210000Y-97740000I0J200000D01*
G01*
G37*
G36*
G01*
X212810000Y-97740000D02*
X212810000Y-96240000D01*
G75*
G02*
X213010000Y-96040000I200000J0D01*
G01*
X214810000Y-96040000D01*
G75*
G02*
X215010000Y-96240000I0J-200000D01*
G01*
X215010000Y-97740000D01*
G75*
G02*
X214810000Y-97940000I-200000J0D01*
G01*
X213010000Y-97940000D01*
G75*
G02*
X212810000Y-97740000I0J200000D01*
G01*
G37*
G36*
G01*
X115000000Y-99850000D02*
X115000000Y-98350000D01*
G75*
G02*
X115200000Y-98150000I200000J0D01*
G01*
X117000000Y-98150000D01*
G75*
G02*
X117200000Y-98350000I0J-200000D01*
G01*
X117200000Y-99850000D01*
G75*
G02*
X117000000Y-100050000I-200000J0D01*
G01*
X115200000Y-100050000D01*
G75*
G02*
X115000000Y-99850000I0J200000D01*
G01*
G37*
G36*
G01*
X111600000Y-99850000D02*
X111600000Y-98350000D01*
G75*
G02*
X111800000Y-98150000I200000J0D01*
G01*
X113600000Y-98150000D01*
G75*
G02*
X113800000Y-98350000I0J-200000D01*
G01*
X113800000Y-99850000D01*
G75*
G02*
X113600000Y-100050000I-200000J0D01*
G01*
X111800000Y-100050000D01*
G75*
G02*
X111600000Y-99850000I0J200000D01*
G01*
G37*
G36*
G01*
X132500000Y-97550000D02*
X132500000Y-96050000D01*
G75*
G02*
X132700000Y-95850000I200000J0D01*
G01*
X134500000Y-95850000D01*
G75*
G02*
X134700000Y-96050000I0J-200000D01*
G01*
X134700000Y-97550000D01*
G75*
G02*
X134500000Y-97750000I-200000J0D01*
G01*
X132700000Y-97750000D01*
G75*
G02*
X132500000Y-97550000I0J200000D01*
G01*
G37*
G36*
G01*
X135900000Y-97550000D02*
X135900000Y-96050000D01*
G75*
G02*
X136100000Y-95850000I200000J0D01*
G01*
X137900000Y-95850000D01*
G75*
G02*
X138100000Y-96050000I0J-200000D01*
G01*
X138100000Y-97550000D01*
G75*
G02*
X137900000Y-97750000I-200000J0D01*
G01*
X136100000Y-97750000D01*
G75*
G02*
X135900000Y-97550000I0J200000D01*
G01*
G37*
G36*
G01*
X153100000Y-96150000D02*
X153100000Y-94650000D01*
G75*
G02*
X153300000Y-94450000I200000J0D01*
G01*
X155100000Y-94450000D01*
G75*
G02*
X155300000Y-94650000I0J-200000D01*
G01*
X155300000Y-96150000D01*
G75*
G02*
X155100000Y-96350000I-200000J0D01*
G01*
X153300000Y-96350000D01*
G75*
G02*
X153100000Y-96150000I0J200000D01*
G01*
G37*
G36*
G01*
X149700000Y-96150000D02*
X149700000Y-94650000D01*
G75*
G02*
X149900000Y-94450000I200000J0D01*
G01*
X151700000Y-94450000D01*
G75*
G02*
X151900000Y-94650000I0J-200000D01*
G01*
X151900000Y-96150000D01*
G75*
G02*
X151700000Y-96350000I-200000J0D01*
G01*
X149900000Y-96350000D01*
G75*
G02*
X149700000Y-96150000I0J200000D01*
G01*
G37*
G36*
G01*
X168700000Y-97550000D02*
X168700000Y-96050000D01*
G75*
G02*
X168900000Y-95850000I200000J0D01*
G01*
X170700000Y-95850000D01*
G75*
G02*
X170900000Y-96050000I0J-200000D01*
G01*
X170900000Y-97550000D01*
G75*
G02*
X170700000Y-97750000I-200000J0D01*
G01*
X168900000Y-97750000D01*
G75*
G02*
X168700000Y-97550000I0J200000D01*
G01*
G37*
G36*
G01*
X172100000Y-97550000D02*
X172100000Y-96050000D01*
G75*
G02*
X172300000Y-95850000I200000J0D01*
G01*
X174100000Y-95850000D01*
G75*
G02*
X174300000Y-96050000I0J-200000D01*
G01*
X174300000Y-97550000D01*
G75*
G02*
X174100000Y-97750000I-200000J0D01*
G01*
X172300000Y-97750000D01*
G75*
G02*
X172100000Y-97550000I0J200000D01*
G01*
G37*
G36*
G01*
X191200000Y-102250000D02*
X191200000Y-100750000D01*
G75*
G02*
X191400000Y-100550000I200000J0D01*
G01*
X193200000Y-100550000D01*
G75*
G02*
X193400000Y-100750000I0J-200000D01*
G01*
X193400000Y-102250000D01*
G75*
G02*
X193200000Y-102450000I-200000J0D01*
G01*
X191400000Y-102450000D01*
G75*
G02*
X191200000Y-102250000I0J200000D01*
G01*
G37*
G36*
G01*
X187800000Y-102250000D02*
X187800000Y-100750000D01*
G75*
G02*
X188000000Y-100550000I200000J0D01*
G01*
X189800000Y-100550000D01*
G75*
G02*
X190000000Y-100750000I0J-200000D01*
G01*
X190000000Y-102250000D01*
G75*
G02*
X189800000Y-102450000I-200000J0D01*
G01*
X188000000Y-102450000D01*
G75*
G02*
X187800000Y-102250000I0J200000D01*
G01*
G37*
G36*
G01*
X213140000Y-103070000D02*
X213140000Y-101570000D01*
G75*
G02*
X213340000Y-101370000I200000J0D01*
G01*
X215140000Y-101370000D01*
G75*
G02*
X215340000Y-101570000I0J-200000D01*
G01*
X215340000Y-103070000D01*
G75*
G02*
X215140000Y-103270000I-200000J0D01*
G01*
X213340000Y-103270000D01*
G75*
G02*
X213140000Y-103070000I0J200000D01*
G01*
G37*
G36*
G01*
X216540000Y-103070000D02*
X216540000Y-101570000D01*
G75*
G02*
X216740000Y-101370000I200000J0D01*
G01*
X218540000Y-101370000D01*
G75*
G02*
X218740000Y-101570000I0J-200000D01*
G01*
X218740000Y-103070000D01*
G75*
G02*
X218540000Y-103270000I-200000J0D01*
G01*
X216740000Y-103270000D01*
G75*
G02*
X216540000Y-103070000I0J200000D01*
G01*
G37*
M02*
