M48
; DRILL file {KiCad (5.1.4)-1} date 12/11/2020 20:18:56
; FORMAT={-:-/ absolute / metric / decimal}
; #@! TF.CreationDate,2020-11-12T20:18:56+01:00
; #@! TF.GenerationSoftware,Kicad,Pcbnew,(5.1.4)-1
; #@! TF.FileFunction,NonPlated,1,2,NPTH
FMAT,2
METRIC
T1C0.100
T2C1.200
T3C1.700
T4C1.900
T5C3.000
T6C4.000
%
G90
G05
T1
X154.775Y-100.82
X162.425Y-100.82
X192.875Y-106.92
X200.525Y-106.92
X192.875Y-87.92
X200.525Y-87.92
X230.925Y-108.42
X238.575Y-108.42
X135.675Y-64.12
X143.325Y-64.12
X154.775Y-24.63
X162.425Y-24.63
X116.675Y-104.52
X124.325Y-104.52
X211.925Y-108.42
X219.575Y-108.42
X192.875Y-30.82
X200.525Y-30.82
X116.675Y-85.52
X124.325Y-85.52
X173.775Y-64.02
X181.425Y-64.02
X211.875Y-70.22
X219.525Y-70.22
X173.775Y-45.02
X181.425Y-45.02
X89.628Y-131.44
X93.453Y-138.065
X105.322Y-122.397
X109.147Y-129.023
X192.875Y-49.82
X200.525Y-49.82
X230.875Y-89.42
X238.525Y-89.42
X211.875Y-32.32
X219.525Y-32.32
X135.675Y-26.02
X143.325Y-26.02
X211.875Y-89.42
X219.525Y-89.42
X154.775Y-81.82
X162.425Y-81.82
X116.675Y-66.52
X124.325Y-66.52
X135.675Y-45.02
X143.325Y-45.02
X97.575Y-94.92
X105.225Y-94.92
X230.875Y-51.32
X238.525Y-51.32
X173.775Y-102.22
X181.425Y-102.22
X135.675Y-102.22
X143.325Y-102.22
X192.875Y-68.72
X200.525Y-68.72
X230.875Y-32.32
X238.525Y-32.32
X145.175Y-121.17
X152.825Y-121.17
X154.775Y-62.72
X162.425Y-62.72
X173.775Y-26.02
X181.425Y-26.02
X116.675Y-47.42
X124.325Y-47.42
X116.665Y-28.42
X124.315Y-28.42
X173.775Y-83.12
X181.425Y-83.12
X154.775Y-43.63
X162.425Y-43.63
X211.875Y-51.32
X219.525Y-51.32
X135.675Y-83.12
X143.325Y-83.12
X230.875Y-70.22
X238.525Y-70.22
X126.175Y-123.42
X133.825Y-123.42
X164.275Y-121.17
X171.925Y-121.17
T2
X86.15Y-40.8
X86.15Y-47.8
X87.9Y-40.8
X87.9Y-47.8
T3
X191.62Y-52.4
X201.78Y-52.4
X229.62Y-92.0
X239.78Y-92.0
X210.62Y-34.9
X220.78Y-34.9
X134.42Y-28.6
X144.58Y-28.6
X210.62Y-92.0
X220.78Y-92.0
X153.52Y-84.4
X163.68Y-84.4
X115.42Y-69.1
X125.58Y-69.1
X134.42Y-47.6
X144.58Y-47.6
X96.32Y-97.5
X106.48Y-97.5
X229.62Y-53.9
X239.78Y-53.9
X172.52Y-104.8
X182.68Y-104.8
X134.42Y-104.8
X144.58Y-104.8
X191.62Y-71.3
X201.78Y-71.3
X229.62Y-34.9
X239.78Y-34.9
X143.92Y-123.75
X154.08Y-123.75
X153.52Y-65.3
X163.68Y-65.3
X172.52Y-28.6
X182.68Y-28.6
X115.42Y-50.0
X125.58Y-50.0
X115.41Y-31.0
X125.57Y-31.0
X172.52Y-85.7
X182.68Y-85.7
X153.52Y-46.21
X163.68Y-46.21
X210.62Y-53.9
X220.78Y-53.9
X134.42Y-85.7
X144.58Y-85.7
X229.62Y-72.8
X239.78Y-72.8
X124.92Y-126.0
X135.08Y-126.0
X163.02Y-123.75
X173.18Y-123.75
X153.52Y-103.4
X163.68Y-103.4
X191.62Y-109.5
X201.78Y-109.5
X191.62Y-90.5
X201.78Y-90.5
X229.67Y-111.0
X239.83Y-111.0
X134.42Y-66.7
X144.58Y-66.7
X153.52Y-27.21
X163.68Y-27.21
X115.42Y-107.1
X125.58Y-107.1
X210.67Y-111.0
X220.83Y-111.0
X191.62Y-33.4
X201.78Y-33.4
X115.42Y-88.1
X125.58Y-88.1
X172.52Y-66.6
X182.68Y-66.6
X210.62Y-72.8
X220.78Y-72.8
X172.52Y-47.6
X182.68Y-47.6
X86.766Y-131.643
X91.846Y-140.442
X102.46Y-122.601
X107.54Y-131.399
T4
X153.1Y-103.4
X164.1Y-103.4
X191.2Y-109.5
X202.2Y-109.5
X191.2Y-90.5
X202.2Y-90.5
X229.25Y-111.0
X240.25Y-111.0
X134.0Y-66.7
X145.0Y-66.7
X153.1Y-27.21
X164.1Y-27.21
X115.0Y-107.1
X126.0Y-107.1
X210.25Y-111.0
X221.25Y-111.0
X191.2Y-33.4
X202.2Y-33.4
X115.0Y-88.1
X126.0Y-88.1
X172.1Y-66.6
X183.1Y-66.6
X210.2Y-72.8
X221.2Y-72.8
X172.1Y-47.6
X183.1Y-47.6
X86.556Y-131.279
X92.056Y-140.806
X102.25Y-122.237
X107.75Y-131.763
X191.2Y-52.4
X202.2Y-52.4
X229.2Y-92.0
X240.2Y-92.0
X210.2Y-34.9
X221.2Y-34.9
X134.0Y-28.6
X145.0Y-28.6
X210.2Y-92.0
X221.2Y-92.0
X153.1Y-84.4
X164.1Y-84.4
X115.0Y-69.1
X126.0Y-69.1
X134.0Y-47.6
X145.0Y-47.6
X95.9Y-97.5
X106.9Y-97.5
X229.2Y-53.9
X240.2Y-53.9
X172.1Y-104.8
X183.1Y-104.8
X134.0Y-104.8
X145.0Y-104.8
X191.2Y-71.3
X202.2Y-71.3
X229.2Y-34.9
X240.2Y-34.9
X143.5Y-123.75
X154.5Y-123.75
X153.1Y-65.3
X164.1Y-65.3
X172.1Y-28.6
X183.1Y-28.6
X115.0Y-50.0
X126.0Y-50.0
X114.99Y-31.0
X125.99Y-31.0
X172.1Y-85.7
X183.1Y-85.7
X153.1Y-46.21
X164.1Y-46.21
X210.2Y-53.9
X221.2Y-53.9
X134.0Y-85.7
X145.0Y-85.7
X229.2Y-72.8
X240.2Y-72.8
X124.5Y-126.0
X135.5Y-126.0
X162.6Y-123.75
X173.6Y-123.75
T5
X164.29Y-121.21
X165.56Y-118.67
X170.64Y-118.67
X171.91Y-121.21
X171.91Y-121.21
X154.79Y-100.86
X156.06Y-98.32
X161.14Y-98.32
X162.41Y-100.86
X162.41Y-100.86
X192.89Y-106.96
X194.16Y-104.42
X199.24Y-104.42
X200.51Y-106.96
X200.51Y-106.96
X192.89Y-87.96
X194.16Y-85.42
X199.24Y-85.42
X200.51Y-87.96
X200.51Y-87.96
X230.94Y-108.46
X232.21Y-105.92
X237.29Y-105.92
X238.56Y-108.46
X238.56Y-108.46
X135.69Y-64.16
X136.96Y-61.62
X142.04Y-61.62
X143.31Y-64.16
X143.31Y-64.16
X154.79Y-24.67
X156.06Y-22.13
X161.14Y-22.13
X162.41Y-24.67
X162.41Y-24.67
X116.69Y-104.56
X117.96Y-102.02
X123.04Y-102.02
X124.31Y-104.56
X124.31Y-104.56
X211.94Y-108.46
X213.21Y-105.92
X218.29Y-105.92
X219.56Y-108.46
X219.56Y-108.46
X192.89Y-30.86
X194.16Y-28.32
X199.24Y-28.32
X200.51Y-30.86
X200.51Y-30.86
X116.69Y-85.56
X117.96Y-83.02
X123.04Y-83.02
X124.31Y-85.56
X124.31Y-85.56
X173.79Y-64.06
X175.06Y-61.52
X180.14Y-61.52
X181.41Y-64.06
X181.41Y-64.06
X211.89Y-70.26
X213.16Y-67.72
X218.24Y-67.72
X219.51Y-70.26
X219.51Y-70.26
X173.79Y-45.06
X175.06Y-42.52
X180.14Y-42.52
X181.41Y-45.06
X181.41Y-45.06
X89.601Y-131.473
X92.436Y-131.303
X93.411Y-138.072
X93.411Y-138.072
X94.976Y-135.702
X105.295Y-122.43
X108.129Y-122.26
X109.105Y-129.03
X109.105Y-129.03
X110.669Y-126.66
X192.89Y-49.86
X194.16Y-47.32
X199.24Y-47.32
X200.51Y-49.86
X200.51Y-49.86
X230.89Y-89.46
X232.16Y-86.92
X237.24Y-86.92
X238.51Y-89.46
X238.51Y-89.46
X211.89Y-32.36
X213.16Y-29.82
X218.24Y-29.82
X219.51Y-32.36
X219.51Y-32.36
X135.69Y-26.06
X136.96Y-23.52
X142.04Y-23.52
X143.31Y-26.06
X143.31Y-26.06
X211.89Y-89.46
X213.16Y-86.92
X218.24Y-86.92
X219.51Y-89.46
X219.51Y-89.46
X154.79Y-81.86
X156.06Y-79.32
X161.14Y-79.32
X162.41Y-81.86
X162.41Y-81.86
X116.69Y-66.56
X117.96Y-64.02
X123.04Y-64.02
X124.31Y-66.56
X124.31Y-66.56
X135.69Y-45.06
X136.96Y-42.52
X142.04Y-42.52
X143.31Y-45.06
X143.31Y-45.06
X97.59Y-94.96
X98.86Y-92.42
X103.94Y-92.42
X105.21Y-94.96
X105.21Y-94.96
X230.89Y-51.36
X232.16Y-48.82
X237.24Y-48.82
X238.51Y-51.36
X238.51Y-51.36
X173.79Y-102.26
X175.06Y-99.72
X180.14Y-99.72
X181.41Y-102.26
X181.41Y-102.26
X135.69Y-102.26
X136.96Y-99.72
X142.04Y-99.72
X143.31Y-102.26
X143.31Y-102.26
X192.89Y-68.76
X194.16Y-66.22
X199.24Y-66.22
X200.51Y-68.76
X200.51Y-68.76
X230.89Y-32.36
X232.16Y-29.82
X237.24Y-29.82
X238.51Y-32.36
X238.51Y-32.36
X145.19Y-121.21
X146.46Y-118.67
X151.54Y-118.67
X152.81Y-121.21
X152.81Y-121.21
X154.79Y-62.76
X156.06Y-60.22
X161.14Y-60.22
X162.41Y-62.76
X162.41Y-62.76
X173.79Y-26.06
X175.06Y-23.52
X180.14Y-23.52
X181.41Y-26.06
X181.41Y-26.06
X116.69Y-47.46
X117.96Y-44.92
X123.04Y-44.92
X124.31Y-47.46
X124.31Y-47.46
X116.68Y-28.46
X117.95Y-25.92
X123.03Y-25.92
X124.3Y-28.46
X124.3Y-28.46
X173.79Y-83.16
X175.06Y-80.62
X180.14Y-80.62
X181.41Y-83.16
X181.41Y-83.16
X154.79Y-43.67
X156.06Y-41.13
X161.14Y-41.13
X162.41Y-43.67
X162.41Y-43.67
X211.89Y-51.36
X213.16Y-48.82
X218.24Y-48.82
X219.51Y-51.36
X219.51Y-51.36
X135.69Y-83.16
X136.96Y-80.62
X142.04Y-80.62
X143.31Y-83.16
X143.31Y-83.16
X230.89Y-70.26
X232.16Y-67.72
X237.24Y-67.72
X238.51Y-70.26
X238.51Y-70.26
X126.19Y-123.46
X127.46Y-120.92
X132.54Y-120.92
X133.81Y-123.46
X133.81Y-123.46
T6
X196.7Y-71.3
X234.7Y-34.9
X149.0Y-123.75
X158.6Y-65.3
X177.6Y-28.6
X120.5Y-50.0
X120.49Y-31.0
X177.6Y-85.7
X158.6Y-46.21
X215.7Y-53.9
X139.5Y-85.7
X234.7Y-72.8
X130.0Y-126.0
X168.1Y-123.75
X158.6Y-103.4
X196.7Y-109.5
X196.7Y-90.5
X234.75Y-111.0
X139.5Y-66.7
X158.6Y-27.21
X120.5Y-107.1
X215.75Y-111.0
X196.7Y-33.4
X120.5Y-88.1
X177.6Y-66.6
X215.7Y-72.8
X177.6Y-47.6
X89.306Y-136.042
X105.0Y-127.0
X196.7Y-52.4
X234.7Y-92.0
X215.7Y-34.9
X139.5Y-28.6
X215.7Y-92.0
X158.6Y-84.4
X120.5Y-69.1
X139.5Y-47.6
X101.4Y-97.5
X234.7Y-53.9
X177.6Y-104.8
X139.5Y-104.8
T0
M30
