M48
; DRILL file {KiCad (5.1.4)-1} date 12/11/2020 20:18:56
; FORMAT={-:-/ absolute / metric / decimal}
; #@! TF.CreationDate,2020-11-12T20:18:56+01:00
; #@! TF.GenerationSoftware,Kicad,Pcbnew,(5.1.4)-1
; #@! TF.FileFunction,Plated,1,2,PTH
FMAT,2
METRIC
T1C0.300
T2C0.400
T3C0.500
T4C0.813
T5C1.000
T6C1.300
T7C4.700
%
G90
G05
T1
X73.66Y-131.445
X73.66Y-133.985
X74.93Y-136.525
X75.325Y-128.075
X76.225Y-123.05
X76.835Y-139.7
X76.875Y-120.275
X78.105Y-142.24
X78.35Y-115.9
X79.275Y-113.1
X79.375Y-144.145
X80.025Y-110.85
X80.375Y-106.925
X80.425Y-119.75
X80.645Y-146.685
X81.475Y-124.875
X81.675Y-102.0
X81.915Y-149.225
X82.1Y-98.85
X83.775Y-117.45
X83.82Y-38.1
X83.82Y-40.64
X83.82Y-73.66
X83.82Y-76.2
X83.82Y-78.74
X83.82Y-81.28
X83.82Y-83.82
X83.82Y-86.36
X83.82Y-88.9
X83.82Y-91.44
X83.82Y-151.13
X84.328Y-67.056
X84.328Y-68.58
X84.328Y-93.98
X84.328Y-96.52
X84.4Y-121.35
X84.455Y-130.175
X84.455Y-132.08
X84.684Y-55.169
X84.709Y-56.947
X84.836Y-100.076
X85.09Y-133.35
X85.611Y-44.094
X85.687Y-46.241
X85.725Y-128.905
X85.814Y-151.689
X85.852Y-103.632
X86.36Y-38.1
X86.36Y-73.152
X86.36Y-106.68
X86.36Y-134.62
X86.36Y-137.795
X86.677Y-55.423
X87.376Y-62.992
X87.376Y-71.12
X87.719Y-151.486
X87.884Y-110.744
X88.265Y-81.28
X88.392Y-46.139
X88.417Y-44.107
X88.786Y-53.188
X88.9Y-38.1
X88.9Y-102.235
X88.9Y-139.065
X89.408Y-64.008
X89.408Y-67.564
X89.408Y-69.596
X89.408Y-71.12
X89.408Y-114.3
X89.535Y-121.285
X89.535Y-140.97
X89.535Y-149.86
X90.0Y-47.7
X90.17Y-111.125
X90.275Y-58.285
X90.3Y-59.1
X90.5Y-62.4
X90.805Y-81.915
X90.805Y-100.965
X90.805Y-104.14
X90.805Y-139.065
X90.932Y-73.152
X91.44Y-38.1
X91.44Y-91.44
X91.44Y-94.996
X91.44Y-114.3
X91.44Y-120.015
X91.44Y-133.985
X91.44Y-148.59
X91.931Y-124.922
X92.075Y-135.255
X92.964Y-97.536
X92.964Y-100.076
X93.2Y-92.4
X93.345Y-107.315
X93.345Y-111.125
X93.472Y-102.108
X93.98Y-38.1
X93.98Y-123.444
X93.98Y-133.35
X93.98Y-147.32
X94.996Y-73.152
X95.1Y-44.2
X95.504Y-89.916
X95.504Y-102.616
X95.885Y-132.715
X96.52Y-38.1
X96.52Y-40.64
X96.52Y-127.0
X96.7Y-67.8
X96.9Y-44.966
X96.9Y-48.8
X97.028Y-71.12
X97.536Y-129.54
X97.79Y-114.3
X97.79Y-120.65
X97.79Y-125.095
X97.79Y-131.445
X97.79Y-144.78
X98.044Y-68.072
X98.425Y-109.855
X98.425Y-135.255
X98.557Y-57.666
X99.06Y-38.1
X99.06Y-40.64
X99.06Y-70.612
X99.06Y-73.66
X99.06Y-76.708
X99.06Y-133.35
X99.06Y-137.795
X99.614Y-55.126
X100.076Y-122.428
X100.33Y-111.76
X100.33Y-126.365
X100.4Y-50.046
X100.4Y-68.8
X100.965Y-142.875
X101.092Y-89.916
X101.092Y-120.396
X101.6Y-38.1
X101.6Y-68.072
X101.6Y-74.676
X101.6Y-93.98
X101.6Y-116.84
X101.6Y-128.905
X101.6Y-132.08
X101.6Y-137.16
X102.108Y-79.756
X102.616Y-87.376
X102.616Y-124.968
X102.675Y-57.666
X103.175Y-60.206
X103.632Y-68.58
X103.632Y-111.76
X103.7Y-62.746
X104.14Y-38.1
X104.14Y-77.216
X104.14Y-139.7
X104.14Y-142.24
X104.3Y-64.575
X104.775Y-108.585
X105.0Y-66.0
X105.156Y-82.296
X105.156Y-130.556
X105.328Y-67.072
X105.6Y-51.4
X105.6Y-65.2
X105.7Y-56.7
X105.7Y-44.0
X105.7Y-59.0
X105.7Y-61.9
X105.7Y-64.0
X105.7Y-41.6
X105.7Y-54.2
X106.172Y-71.12
X106.172Y-79.756
X106.68Y-139.7
X107.2Y-117.1
X108.204Y-125.476
X108.433Y-72.161
X108.712Y-76.708
X108.712Y-114.3
X108.712Y-134.112
X109.22Y-82.296
X109.22Y-86.868
X109.22Y-102.616
X109.22Y-108.712
X109.22Y-137.16
X109.6Y-92.5
X109.728Y-78.232
X109.728Y-79.756
X109.8Y-76.2
X109.83Y-89.167
X109.9Y-80.6
X109.906Y-90.78
X110.3Y-64.1
X110.744Y-123.952
X111.252Y-43.18
X111.76Y-17.78
X111.76Y-20.32
X111.76Y-22.86
X111.76Y-25.4
X111.76Y-30.48
X111.76Y-33.02
X111.76Y-35.56
X111.76Y-137.16
X112.268Y-50.292
X112.268Y-53.848
X112.268Y-56.388
X112.3Y-64.1
X112.3Y-83.0
X112.4Y-28.49
X112.4Y-44.9
X112.4Y-102.0
X112.776Y-88.392
X112.776Y-93.98
X112.776Y-107.696
X112.776Y-110.744
X112.776Y-114.3
X112.776Y-119.888
X113.2Y-131.7
X113.284Y-30.988
X113.284Y-33.02
X113.284Y-35.56
X113.284Y-40.64
X113.792Y-23.876
X114.3Y-17.78
X114.3Y-55.372
X114.3Y-122.936
X114.3Y-128.016
X114.3Y-134.62
X114.3Y-135.89
X114.808Y-51.816
X114.808Y-53.34
X114.808Y-71.12
X114.808Y-73.66
X114.808Y-90.424
X114.808Y-131.572
X115.316Y-56.388
X115.316Y-94.488
X116.332Y-23.876
X116.332Y-75.184
X116.332Y-80.772
X116.84Y-17.78
X116.84Y-121.285
X116.84Y-134.62
X117.348Y-30.988
X117.348Y-32.512
X117.348Y-50.292
X117.348Y-53.34
X117.348Y-69.596
X117.348Y-88.392
X117.348Y-107.696
X117.61Y-54.43
X117.856Y-23.368
X117.856Y-56.896
X117.856Y-94.996
X117.856Y-114.3
X118.364Y-36.068
X118.364Y-55.372
X119.38Y-17.78
X119.38Y-134.62
X119.888Y-41.656
X119.888Y-94.996
X119.888Y-123.444
X120.015Y-127.635
X120.396Y-43.688
X120.396Y-46.736
X120.396Y-53.34
X120.396Y-56.896
X120.396Y-62.484
X120.396Y-65.532
X120.396Y-72.136
X120.396Y-81.788
X120.396Y-84.836
X120.396Y-90.932
X120.904Y-24.384
X120.904Y-27.432
X120.904Y-100.584
X120.904Y-103.632
X120.904Y-110.236
X120.904Y-119.888
X121.412Y-59.944
X121.9Y-120.9
X121.92Y-17.78
X121.92Y-55.372
X121.92Y-125.984
X121.92Y-134.62
X122.936Y-22.86
X122.936Y-80.772
X123.444Y-50.292
X123.444Y-57.404
X123.444Y-88.392
X123.444Y-108.712
X123.444Y-130.556
X123.952Y-31.496
X123.952Y-69.596
X123.952Y-92.456
X123.952Y-114.3
X124.46Y-17.78
X124.46Y-134.62
X124.968Y-53.34
X125.984Y-39.116
X125.984Y-89.916
X125.984Y-128.016
X126.492Y-36.068
X126.492Y-51.816
X126.492Y-61.976
X126.492Y-80.772
X126.492Y-92.964
X127.0Y-17.78
X127.0Y-23.368
X127.0Y-32.512
X127.0Y-41.656
X127.0Y-126.492
X127.0Y-134.62
X128.016Y-69.088
X128.016Y-114.3
X128.5Y-44.9
X128.524Y-49.784
X128.524Y-53.34
X128.524Y-87.884
X128.524Y-107.188
X128.6Y-102.0
X128.7Y-64.0
X128.7Y-83.0
X129.54Y-17.78
X129.54Y-24.892
X129.54Y-81.788
X129.54Y-134.62
X129.7Y-28.63
X130.048Y-29.972
X130.048Y-109.22
X130.048Y-119.888
X130.048Y-122.428
X130.556Y-47.244
X130.556Y-54.864
X130.556Y-92.964
X130.556Y-130.556
X131.064Y-22.86
X131.064Y-57.912
X131.064Y-60.96
X131.064Y-105.156
X131.18Y-26.06
X131.3Y-80.6
X131.3Y-100.4
X131.4Y-42.5
X131.4Y-62.2
X131.572Y-47.244
X131.572Y-51.816
X131.572Y-66.548
X131.572Y-72.136
X131.572Y-78.74
X131.572Y-85.344
X131.572Y-89.408
X132.08Y-17.78
X132.08Y-134.62
X132.588Y-40.132
X132.588Y-108.712
X133.096Y-36.068
X133.096Y-91.948
X133.096Y-114.3
X133.096Y-125.984
X133.604Y-21.336
X133.604Y-49.784
X133.604Y-68.58
X133.604Y-70.612
X133.604Y-74.676
X133.604Y-78.232
X133.604Y-87.884
X133.604Y-128.016
X134.112Y-32.004
X134.112Y-53.848
X134.62Y-17.78
X134.62Y-90.424
X134.62Y-134.62
X135.636Y-36.068
X135.636Y-40.132
X136.144Y-28.448
X136.144Y-32.512
X136.144Y-48.26
X136.144Y-53.34
X136.144Y-67.056
X136.144Y-85.852
X136.144Y-106.68
X137.16Y-17.78
X137.16Y-21.336
X137.16Y-40.132
X137.16Y-69.088
X137.16Y-130.048
X137.16Y-134.62
X137.668Y-78.232
X137.668Y-114.3
X137.668Y-125.984
X138.0Y-120.9
X138.684Y-108.712
X139.192Y-88.392
X139.192Y-90.424
X139.7Y-17.78
X139.7Y-22.352
X139.7Y-24.892
X139.7Y-31.496
X139.7Y-32.512
X139.7Y-41.148
X139.7Y-43.688
X139.7Y-50.292
X139.7Y-53.34
X139.7Y-59.944
X139.7Y-62.992
X139.7Y-70.612
X139.7Y-79.248
X139.7Y-82.296
X139.7Y-98.044
X139.7Y-101.092
X139.7Y-134.62
X139.7Y-134.62
X140.716Y-123.952
X140.8Y-118.7
X141.224Y-112.776
X141.68Y-55.57
X141.732Y-52.324
X141.732Y-78.232
X142.24Y-17.78
X142.24Y-21.336
X142.24Y-40.132
X142.24Y-69.088
X142.24Y-134.62
X142.24Y-134.62
X142.748Y-28.956
X142.748Y-36.068
X142.748Y-48.26
X142.748Y-67.056
X142.748Y-85.852
X142.748Y-91.44
X142.748Y-106.68
X143.256Y-32.512
X143.256Y-93.472
X143.764Y-128.016
X144.272Y-49.784
X144.272Y-54.864
X144.78Y-17.78
X144.78Y-21.336
X144.78Y-40.132
X144.78Y-69.088
X144.78Y-134.62
X145.288Y-30.48
X145.288Y-33.02
X145.288Y-36.068
X145.288Y-39.116
X145.288Y-55.88
X145.288Y-58.928
X145.288Y-87.376
X145.288Y-88.9
X145.288Y-108.712
X145.796Y-70.612
X145.796Y-123.952
X145.796Y-125.476
X146.812Y-38.1
X146.812Y-52.324
X146.812Y-55.88
X146.812Y-78.232
X146.812Y-93.472
X147.32Y-17.78
X147.32Y-31.496
X147.32Y-47.244
X147.32Y-49.784
X147.32Y-66.548
X147.32Y-85.344
X147.32Y-89.408
X147.32Y-134.62
X147.32Y-134.62
X147.5Y-61.6
X147.6Y-42.5
X147.6Y-99.7
X147.8Y-80.6
X148.336Y-112.776
X148.844Y-22.86
X148.844Y-27.94
X148.844Y-40.64
X148.844Y-43.18
X148.844Y-53.848
X148.844Y-58.928
X148.844Y-68.072
X148.844Y-79.756
X148.844Y-91.948
X148.844Y-117.348
X148.844Y-120.396
X148.97Y-25.87
X149.352Y-33.02
X149.352Y-45.72
X149.352Y-83.82
X149.352Y-111.252
X149.86Y-17.78
X149.86Y-21.336
X149.86Y-36.068
X149.86Y-39.116
X149.86Y-128.016
X149.86Y-134.62
X150.09Y-24.66
X150.3Y-98.3
X150.368Y-103.632
X150.4Y-79.3
X150.5Y-41.1
X150.6Y-60.2
X150.876Y-46.228
X150.876Y-49.784
X150.876Y-52.324
X150.876Y-65.024
X150.876Y-71.628
X150.876Y-76.708
X150.876Y-84.328
X150.876Y-89.916
X150.876Y-113.284
X151.384Y-33.02
X151.384Y-36.068
X151.384Y-39.116
X151.384Y-107.696
X152.4Y-17.78
X152.4Y-19.812
X152.4Y-86.36
X152.4Y-89.916
X152.4Y-123.952
X152.4Y-125.476
X152.4Y-134.62
X152.908Y-48.26
X152.908Y-50.292
X152.908Y-51.816
X152.908Y-67.564
X152.908Y-71.628
X152.908Y-76.708
X152.908Y-105.664
X153.416Y-28.956
X153.416Y-30.988
X153.416Y-39.116
X154.432Y-90.424
X154.432Y-113.284
X154.94Y-17.78
X154.94Y-33.02
X154.94Y-134.62
X155.448Y-27.432
X155.448Y-46.228
X155.448Y-50.292
X155.448Y-65.532
X155.448Y-84.836
X155.448Y-104.648
X155.956Y-19.812
X155.956Y-38.608
X155.956Y-53.34
X155.956Y-76.708
X155.956Y-128.016
X156.464Y-36.068
X156.464Y-91.44
X156.464Y-116.332
X156.464Y-123.952
X157.1Y-118.7
X157.48Y-17.78
X157.48Y-113.284
X157.48Y-134.62
X158.496Y-20.828
X158.496Y-23.368
X158.496Y-29.972
X158.496Y-49.276
X158.496Y-50.292
X158.496Y-51.816
X158.496Y-58.42
X158.496Y-61.468
X158.496Y-68.072
X158.496Y-78.232
X158.496Y-80.772
X158.496Y-87.376
X158.496Y-96.52
X158.496Y-99.568
X158.496Y-106.68
X159.004Y-40.64
X159.004Y-42.672
X159.512Y-91.44
X159.512Y-124.46
X159.9Y-118.7
X160.02Y-17.78
X160.02Y-134.62
X160.02Y-134.62
X161.036Y-19.812
X161.036Y-38.608
X161.036Y-76.708
X161.036Y-111.76
X161.036Y-113.284
X161.544Y-27.432
X161.544Y-36.068
X161.544Y-46.228
X161.544Y-65.532
X161.544Y-84.328
X161.544Y-104.14
X162.56Y-17.78
X162.56Y-33.02
X162.56Y-50.292
X162.56Y-53.34
X162.56Y-91.44
X162.56Y-128.016
X162.56Y-134.62
X163.068Y-47.752
X163.576Y-30.988
X163.576Y-51.816
X164.084Y-39.116
X164.084Y-54.864
X164.084Y-67.056
X164.084Y-95.504
X164.084Y-105.156
X164.592Y-19.812
X164.592Y-35.56
X164.592Y-76.708
X164.592Y-86.36
X164.592Y-89.408
X164.592Y-92.456
X164.592Y-125.476
X165.1Y-17.78
X165.1Y-53.34
X165.1Y-57.404
X165.1Y-134.62
X165.608Y-32.004
X165.608Y-47.244
X165.608Y-50.292
X165.608Y-72.644
X166.116Y-27.432
X166.116Y-65.024
X166.116Y-103.124
X166.116Y-114.808
X166.6Y-60.2
X166.624Y-38.1
X166.624Y-51.816
X166.624Y-84.328
X166.624Y-89.408
X166.7Y-41.1
X166.8Y-79.3
X166.8Y-98.3
X167.132Y-20.828
X167.132Y-111.76
X167.4Y-24.72
X167.64Y-17.78
X167.64Y-46.228
X167.64Y-49.784
X167.64Y-54.864
X167.64Y-65.024
X167.64Y-92.456
X167.64Y-95.504
X167.64Y-103.124
X167.64Y-134.62
X168.148Y-42.672
X168.148Y-60.96
X168.148Y-79.248
X168.148Y-98.552
X168.148Y-117.348
X168.148Y-119.888
X168.148Y-128.016
X168.656Y-23.876
X168.656Y-27.94
X168.656Y-110.236
X169.164Y-35.56
X169.164Y-91.44
X169.4Y-42.5
X169.4Y-99.7
X169.5Y-61.5
X169.5Y-80.6
X169.672Y-29.464
X169.672Y-33.02
X169.672Y-40.64
X169.672Y-47.244
X169.672Y-49.784
X169.672Y-51.816
X169.672Y-53.848
X169.672Y-66.548
X169.672Y-68.58
X169.672Y-72.136
X169.672Y-85.344
X169.672Y-104.648
X169.672Y-106.68
X170.18Y-17.78
X170.18Y-111.252
X170.18Y-134.62
X170.4Y-28.64
X171.196Y-37.592
X171.196Y-73.66
X171.704Y-21.336
X171.704Y-33.02
X171.704Y-49.784
X171.704Y-51.816
X171.704Y-53.34
X171.704Y-71.12
X171.704Y-87.376
X171.704Y-91.44
X171.704Y-107.696
X171.704Y-125.476
X172.212Y-30.48
X172.212Y-40.132
X172.212Y-68.58
X172.212Y-78.232
X172.72Y-17.78
X172.72Y-35.56
X172.72Y-134.62
X173.228Y-33.528
X173.228Y-73.152
X173.736Y-128.016
X174.244Y-35.56
X174.244Y-37.592
X174.244Y-47.752
X174.244Y-53.848
X174.244Y-85.852
X174.244Y-91.948
X174.244Y-106.172
X174.244Y-116.332
X174.752Y-21.336
X174.752Y-28.956
X174.752Y-66.548
X174.752Y-78.232
X175.26Y-17.78
X175.26Y-33.02
X175.26Y-40.132
X175.26Y-49.784
X175.26Y-54.864
X175.26Y-134.62
X175.768Y-51.816
X175.768Y-92.456
X176.2Y-118.7
X176.784Y-37.592
X176.784Y-116.84
X177.8Y-17.78
X177.8Y-21.336
X177.8Y-24.892
X177.8Y-31.496
X177.8Y-33.02
X177.8Y-36.068
X177.8Y-41.148
X177.8Y-44.196
X177.8Y-59.944
X177.8Y-62.484
X177.8Y-69.596
X177.8Y-79.756
X177.8Y-82.296
X177.8Y-88.392
X177.8Y-98.552
X177.8Y-101.092
X177.8Y-108.204
X177.8Y-119.38
X177.8Y-121.92
X177.8Y-124.46
X177.8Y-127.0
X177.8Y-129.54
X177.8Y-132.08
X179.324Y-36.576
X179.832Y-40.132
X179.832Y-51.816
X179.832Y-78.232
X180.34Y-17.78
X180.34Y-20.828
X180.34Y-49.784
X180.34Y-116.84
X180.34Y-119.38
X180.848Y-28.956
X180.848Y-33.528
X180.848Y-47.752
X180.848Y-66.548
X180.848Y-85.852
X180.848Y-92.456
X180.848Y-105.664
X181.356Y-35.56
X181.356Y-54.864
X181.356Y-112.268
X181.864Y-53.848
X182.372Y-114.808
X182.88Y-17.78
X182.88Y-30.988
X182.88Y-34.544
X182.88Y-40.132
X182.88Y-68.58
X182.88Y-93.472
X182.88Y-107.188
X182.88Y-119.38
X183.388Y-52.832
X183.388Y-58.928
X183.388Y-87.376
X183.388Y-89.916
X184.404Y-78.232
X184.912Y-21.336
X184.912Y-47.752
X184.912Y-51.308
X184.912Y-54.356
X184.912Y-96.012
X185.42Y-17.78
X185.42Y-28.448
X185.42Y-38.608
X185.42Y-66.04
X185.42Y-85.344
X185.42Y-90.424
X185.42Y-119.38
X185.6Y-61.5
X185.6Y-99.7
X185.7Y-42.5
X185.9Y-80.6
X186.436Y-52.324
X186.436Y-93.98
X186.436Y-98.044
X186.944Y-30.48
X186.944Y-33.528
X186.944Y-36.576
X186.944Y-39.624
X186.944Y-47.752
X186.944Y-69.088
X186.944Y-79.756
X186.944Y-104.648
X187.11Y-26.0
X187.452Y-45.212
X187.452Y-56.896
X187.452Y-85.344
X187.84Y-33.5
X187.96Y-17.78
X187.96Y-23.876
X187.96Y-65.024
X187.96Y-112.268
X187.96Y-119.38
X188.468Y-25.908
X188.468Y-71.12
X188.468Y-73.152
X188.468Y-77.724
X188.468Y-82.804
X188.468Y-90.424
X188.468Y-96.012
X188.5Y-85.4
X188.5Y-104.4
X188.6Y-47.3
X188.6Y-66.2
X188.976Y-34.544
X188.976Y-36.576
X188.976Y-38.608
X188.976Y-42.164
X188.976Y-52.324
X188.976Y-56.896
X188.976Y-109.22
X188.976Y-114.808
X190.5Y-17.78
X190.5Y-43.688
X190.5Y-54.356
X190.5Y-56.896
X190.5Y-119.38
X191.008Y-25.908
X191.008Y-35.56
X191.008Y-77.724
X191.008Y-82.804
X191.008Y-92.456
X191.008Y-96.012
X191.516Y-45.212
X191.516Y-58.928
X191.516Y-73.152
X191.516Y-111.76
X193.04Y-17.78
X193.04Y-36.576
X193.04Y-38.608
X193.04Y-119.38
X193.548Y-25.908
X193.548Y-33.528
X193.548Y-52.324
X193.548Y-71.628
X193.548Y-90.932
X193.548Y-96.012
X193.548Y-110.236
X194.056Y-45.212
X194.056Y-82.804
X194.564Y-98.552
X195.072Y-94.488
X195.58Y-17.78
X195.58Y-42.164
X195.58Y-119.38
X196.088Y-40.132
X196.088Y-96.52
X196.596Y-26.416
X196.596Y-29.972
X196.596Y-36.068
X196.596Y-45.72
X196.596Y-49.276
X196.596Y-55.372
X196.596Y-56.896
X196.596Y-65.024
X196.596Y-67.564
X196.596Y-74.168
X196.596Y-84.328
X196.596Y-86.868
X196.596Y-102.616
X196.596Y-105.664
X196.596Y-112.776
X197.104Y-58.928
X197.104Y-93.472
X198.12Y-17.78
X198.12Y-61.468
X198.12Y-99.568
X198.12Y-119.38
X199.136Y-25.908
X199.136Y-45.212
X199.136Y-82.804
X199.136Y-98.044
X199.644Y-52.832
X199.644Y-71.628
X199.644Y-90.424
X199.644Y-93.98
X199.644Y-110.744
X200.152Y-34.036
X200.152Y-36.576
X200.66Y-17.78
X200.66Y-38.608
X200.66Y-119.38
X201.168Y-40.132
X201.168Y-42.164
X201.168Y-43.688
X201.168Y-92.456
X201.676Y-56.896
X201.676Y-59.944
X202.184Y-35.56
X202.184Y-45.212
X202.184Y-54.356
X202.184Y-73.152
X202.184Y-96.012
X202.184Y-101.6
X202.184Y-111.76
X202.692Y-25.908
X203.2Y-17.78
X203.2Y-82.804
X203.2Y-93.472
X203.2Y-98.044
X203.2Y-99.568
X203.2Y-119.38
X203.708Y-44.196
X203.708Y-54.356
X204.216Y-33.528
X204.216Y-36.576
X204.216Y-56.896
X204.216Y-64.008
X204.7Y-47.3
X204.7Y-66.2
X204.724Y-90.424
X204.9Y-85.4
X204.9Y-104.4
X205.232Y-27.432
X205.232Y-71.628
X205.232Y-109.728
X205.44Y-33.66
X205.74Y-17.78
X205.74Y-51.816
X205.74Y-119.38
X206.248Y-34.544
X206.248Y-38.608
X206.248Y-40.132
X206.248Y-46.228
X206.248Y-66.548
X206.248Y-78.74
X206.248Y-82.804
X206.248Y-86.36
X206.248Y-105.156
X206.756Y-30.48
X206.756Y-56.896
X207.2Y-35.56
X207.2Y-48.8
X207.264Y-59.944
X207.264Y-74.676
X207.5Y-105.9
X207.6Y-67.7
X207.6Y-86.9
X207.772Y-53.848
X207.772Y-64.008
X207.772Y-91.948
X207.772Y-96.012
X207.772Y-98.044
X207.772Y-99.568
X207.772Y-101.6
X207.772Y-104.14
X207.772Y-111.252
X208.28Y-17.78
X208.28Y-36.068
X208.28Y-38.608
X208.28Y-40.64
X208.28Y-46.228
X208.28Y-119.38
X208.788Y-58.928
X208.788Y-76.708
X208.788Y-78.74
X208.788Y-82.804
X209.804Y-27.432
X209.804Y-42.164
X209.804Y-56.896
X209.804Y-62.484
X209.804Y-64.008
X209.804Y-84.328
X209.804Y-93.98
X209.804Y-96.012
X209.804Y-98.044
X209.804Y-99.568
X210.312Y-36.576
X210.312Y-55.88
X210.312Y-74.676
X210.312Y-113.284
X210.82Y-17.78
X210.82Y-40.132
X210.82Y-60.96
X210.82Y-119.38
X211.836Y-96.012
X211.836Y-98.044
X212.344Y-35.052
X212.344Y-53.848
X212.344Y-73.152
X212.344Y-91.948
X212.344Y-101.092
X212.344Y-112.268
X212.852Y-42.672
X213.36Y-17.78
X213.36Y-26.924
X213.36Y-39.116
X213.36Y-84.328
X213.36Y-119.38
X213.868Y-99.568
X215.392Y-47.244
X215.392Y-50.292
X215.392Y-94.996
X215.392Y-114.3
X215.9Y-27.94
X215.9Y-30.988
X215.9Y-37.592
X215.9Y-56.896
X215.9Y-66.548
X215.9Y-69.088
X215.9Y-75.692
X215.9Y-85.852
X215.9Y-88.9
X215.9Y-104.648
X215.9Y-107.696
X215.9Y-119.38
X216.408Y-18.288
X216.408Y-58.928
X216.916Y-42.672
X216.916Y-46.228
X217.932Y-26.924
X217.932Y-60.96
X217.932Y-62.484
X217.932Y-64.008
X218.44Y-84.328
X218.44Y-119.38
X218.948Y-35.052
X218.948Y-39.116
X218.948Y-45.212
X218.948Y-53.848
X218.948Y-73.152
X218.948Y-92.456
X218.948Y-112.268
X219.456Y-41.656
X219.964Y-95.504
X220.472Y-18.288
X220.98Y-37.084
X220.98Y-55.88
X220.98Y-74.676
X220.98Y-99.568
X220.98Y-119.38
X221.488Y-27.432
X221.488Y-93.98
X221.488Y-113.284
X221.996Y-38.608
X221.996Y-45.212
X222.504Y-56.896
X222.504Y-58.928
X222.504Y-59.944
X222.504Y-84.836
X223.012Y-35.052
X223.52Y-27.94
X223.52Y-91.44
X223.52Y-94.996
X223.52Y-111.252
X223.52Y-119.38
X223.7Y-48.8
X223.7Y-67.7
X223.9Y-86.9
X223.9Y-105.9
X224.028Y-47.244
X224.028Y-73.152
X224.5Y-34.82
X224.536Y-18.796
X224.536Y-55.88
X224.536Y-59.944
X225.044Y-36.068
X225.044Y-48.768
X225.044Y-52.832
X225.044Y-66.548
X225.044Y-68.58
X225.044Y-87.376
X225.044Y-92.964
X225.044Y-104.14
X225.044Y-106.68
X225.552Y-29.464
X225.552Y-57.404
X225.552Y-64.516
X225.552Y-74.676
X225.552Y-78.74
X225.552Y-82.804
X225.83Y-34.85
X226.06Y-91.44
X226.06Y-94.996
X226.06Y-119.38
X226.15Y-105.92
X226.41Y-54.2
X226.568Y-61.976
X226.568Y-111.252
X226.68Y-83.92
X227.076Y-35.56
X227.076Y-47.244
X227.584Y-54.864
X228.092Y-39.116
X228.092Y-44.704
X228.092Y-60.452
X228.092Y-64.516
X228.092Y-74.676
X228.092Y-78.74
X228.092Y-82.804
X228.092Y-93.472
X228.092Y-95.504
X228.6Y-27.432
X228.6Y-119.38
X229.0Y-65.25
X229.108Y-19.304
X229.108Y-55.88
X229.616Y-84.836
X229.616Y-113.284
X230.124Y-38.608
X230.124Y-41.656
X230.124Y-44.704
X230.124Y-103.124
X230.632Y-62.484
X230.632Y-65.024
X230.632Y-101.6
X231.14Y-119.38
X231.648Y-35.052
X231.648Y-46.228
X231.648Y-54.356
X231.648Y-73.152
X231.648Y-92.456
X231.648Y-96.52
X231.648Y-112.268
X232.156Y-27.432
X232.156Y-84.328
X232.664Y-19.812
X232.664Y-40.132
X233.68Y-119.38
X234.696Y-28.448
X234.696Y-30.988
X234.696Y-37.592
X234.696Y-43.688
X234.696Y-47.244
X234.696Y-50.292
X234.696Y-56.896
X234.696Y-59.436
X234.696Y-66.548
X234.696Y-69.088
X234.696Y-75.692
X234.696Y-85.852
X234.696Y-88.9
X234.696Y-94.996
X234.696Y-104.648
X234.696Y-107.188
X234.696Y-114.3
X236.22Y-20.32
X236.22Y-119.38
X236.22Y-119.38
X237.236Y-27.432
X237.236Y-40.132
X237.236Y-46.228
X237.236Y-84.328
X237.744Y-43.688
X237.744Y-54.356
X237.744Y-59.436
X237.744Y-73.152
X237.744Y-92.456
X237.744Y-112.268
X238.252Y-35.052
X238.252Y-62.484
X238.252Y-96.012
X238.252Y-99.568
X238.252Y-103.124
X238.76Y-42.164
X238.76Y-119.38
X239.776Y-20.828
X239.776Y-36.576
X239.776Y-38.1
X239.776Y-113.284
X240.284Y-46.736
X240.284Y-74.676
X240.284Y-84.836
X240.284Y-93.98
X240.284Y-97.536
X240.284Y-101.6
X240.38Y-64.87
X240.45Y-103.67
X240.792Y-27.432
X240.792Y-55.88
X241.3Y-40.132
X241.3Y-119.38
X241.808Y-21.844
X241.808Y-36.576
X241.808Y-58.42
X241.808Y-64.516
X242.316Y-46.228
X242.316Y-73.152
X242.316Y-95.504
X242.316Y-103.124
X242.824Y-38.1
X242.89Y-54.57
X242.97Y-34.76
X243.2Y-86.9
X243.84Y-22.86
X243.84Y-25.4
X243.84Y-27.94
X243.84Y-30.48
X243.84Y-35.56
X243.84Y-38.1
X243.84Y-40.64
X243.84Y-43.18
X243.84Y-45.72
X243.84Y-48.26
X243.84Y-53.34
X243.84Y-55.88
X243.84Y-58.42
X243.84Y-60.96
X243.84Y-60.96
X243.84Y-63.5
X243.84Y-66.04
X243.84Y-68.58
X243.84Y-73.66
X243.84Y-76.2
X243.84Y-78.74
X243.84Y-81.28
X243.84Y-83.82
X243.84Y-86.36
X243.84Y-91.44
X243.84Y-93.98
X243.84Y-96.52
X243.84Y-99.06
X243.84Y-101.6
X243.84Y-101.6
X243.84Y-104.14
X243.84Y-106.68
X243.84Y-111.76
X243.84Y-114.3
X243.84Y-116.84
X243.84Y-119.38
T2
X133.6Y-58.7
X137.0Y-58.7
X103.9Y-89.5
X107.3Y-89.5
X188.9Y-101.5
X192.3Y-101.5
X150.8Y-54.2
X154.2Y-54.2
X220.1Y-64.9
X223.5Y-64.9
X108.95Y-117.828
X110.65Y-120.772
X233.18Y-97.95
X236.58Y-97.95
X169.8Y-96.8
X173.2Y-96.8
X232.97Y-41.89
X236.37Y-41.89
X112.7Y-61.1
X116.1Y-61.1
X188.9Y-60.4
X192.3Y-60.4
X156.87Y-31.92
X160.27Y-31.92
X133.6Y-96.8
X137.0Y-96.8
X112.7Y-58.0
X116.1Y-58.0
X132.6Y-93.8
X136.0Y-93.8
X194.99Y-37.53
X198.39Y-37.53
X150.9Y-57.4
X154.3Y-57.4
X148.32Y-30.04
X151.72Y-30.04
X150.8Y-92.3
X154.2Y-92.3
X232.98Y-60.92
X236.38Y-60.92
X214.24Y-102.32
X217.64Y-102.32
X232.96Y-63.8
X236.36Y-63.8
X150.8Y-95.4
X154.2Y-95.4
X93.283Y-126.875
X94.983Y-129.819
X188.9Y-63.3
X192.3Y-63.3
X122.2Y-118.0
X125.6Y-118.0
X112.7Y-96.0
X116.1Y-96.0
X128.87Y-31.69
X132.27Y-31.69
X175.88Y-34.53
X179.28Y-34.53
X169.8Y-93.6
X173.2Y-93.6
X160.3Y-115.8
X163.7Y-115.8
X188.9Y-98.3
X192.3Y-98.3
X141.2Y-115.8
X144.6Y-115.8
X220.1Y-61.8
X223.5Y-61.8
X233.16Y-100.85
X236.56Y-100.85
X214.0Y-40.86
X217.4Y-40.86
X213.91Y-96.99
X217.31Y-96.99
X169.8Y-58.7
X173.2Y-58.7
X169.8Y-55.6
X173.2Y-55.6
X112.7Y-99.1
X116.1Y-99.1
X132.6Y-55.7
X136.0Y-55.7
T4
X86.9Y-60.7
X84.688Y-53.499
X84.688Y-58.579
X92.18Y-41.23
X92.18Y-43.77
X92.18Y-46.31
X92.18Y-48.85
X92.18Y-51.39
X92.18Y-53.93
X92.18Y-56.47
X92.18Y-59.01
X92.18Y-61.55
X92.18Y-64.09
X92.18Y-66.63
X92.18Y-69.17
X93.479Y-42.426
X93.479Y-44.966
X93.479Y-47.506
X93.479Y-50.046
X93.479Y-52.586
X93.479Y-55.126
X93.479Y-57.666
X93.479Y-60.206
X93.479Y-62.746
X93.479Y-65.286
X93.479Y-67.826
X93.479Y-70.366
X107.42Y-41.23
X107.42Y-43.77
X107.42Y-46.31
X107.42Y-48.85
X107.42Y-51.39
X107.42Y-53.93
X107.42Y-56.47
X107.42Y-59.01
X107.42Y-61.55
X107.42Y-64.09
X107.42Y-66.63
X107.42Y-69.17
X108.719Y-42.426
X108.719Y-44.966
X108.719Y-47.506
X108.719Y-50.046
X108.719Y-52.586
X108.719Y-55.126
X108.719Y-57.666
X108.719Y-60.206
X108.719Y-62.746
X108.719Y-65.286
X108.719Y-67.826
X108.719Y-70.366
X86.938Y-53.499
X86.938Y-58.579
X84.7Y-60.7
T5
X112.7Y-76.5
X112.7Y-78.6
X112.7Y-80.6
T6
X85.0Y-64.45
X85.0Y-70.95
T7
X168.11Y-75.59
X129.6Y-97.6
X225.3Y-100.0
X94.615Y-117.475
X225.3Y-42.8
X129.6Y-38.6
T3
G00X84.05Y-42.05
M15
G01X84.05Y-43.15
M16
G05
G00X84.05Y-45.05
M15
G01X84.05Y-46.15
M16
G05
G00X84.05Y-49.05
M15
G01X84.05Y-50.15
M16
G05
G00X85.8Y-50.55
M15
G01X85.8Y-51.65
M16
G05
G00X88.25Y-50.55
M15
G01X88.25Y-51.65
M16
G05
G00X90.0Y-42.05
M15
G01X90.0Y-43.15
M16
G05
G00X90.0Y-45.05
M15
G01X90.0Y-46.15
M16
G05
G00X90.0Y-49.05
M15
G01X90.0Y-50.15
M16
G05
T0
M30
