G04 #@! TF.GenerationSoftware,KiCad,Pcbnew,(5.1.4)-1*
G04 #@! TF.CreationDate,2020-11-12T20:18:54+01:00*
G04 #@! TF.ProjectId,Lily58_Pro,4c696c79-3538-45f5-9072-6f2e6b696361,rev?*
G04 #@! TF.SameCoordinates,Original*
G04 #@! TF.FileFunction,Legend,Top*
G04 #@! TF.FilePolarity,Positive*
%FSLAX46Y46*%
G04 Gerber Fmt 4.6, Leading zero omitted, Abs format (unit mm)*
G04 Created by KiCad (PCBNEW (5.1.4)-1) date 2020-11-12 20:18:54*
%MOMM*%
%LPD*%
G04 APERTURE LIST*
%ADD10C,0.100000*%
%ADD11C,0.150000*%
%ADD12C,0.300000*%
%ADD13C,0.400000*%
%ADD14C,0.200000*%
%ADD15C,0.250000*%
G04 APERTURE END LIST*
D10*
D11*
X177002200Y-166007200D02*
X177002200Y-198007200D01*
X285002200Y-198007200D01*
X285002200Y-166007200D01*
X177002200Y-166007200D01*
D10*
D11*
X10000000Y-10000000D02*
X10000000Y-200007200D01*
X287002200Y-200007200D01*
X287002200Y-10000000D01*
X10000000Y-10000000D01*
D10*
D11*
X12000000Y-12000000D02*
X12000000Y-198007200D01*
X285002200Y-198007200D01*
X285002200Y-12000000D01*
X12000000Y-12000000D01*
D10*
D11*
X60000000Y-12000000D02*
X60000000Y-10000000D01*
D10*
D11*
X110000000Y-12000000D02*
X110000000Y-10000000D01*
D10*
D11*
X160000000Y-12000000D02*
X160000000Y-10000000D01*
D10*
D11*
X210000000Y-12000000D02*
X210000000Y-10000000D01*
D10*
D11*
X260000000Y-12000000D02*
X260000000Y-10000000D01*
D10*
D11*
X36065476Y-11588095D02*
X35322619Y-11588095D01*
X35694047Y-11588095D02*
X35694047Y-10288095D01*
X35570238Y-10473809D01*
X35446428Y-10597619D01*
X35322619Y-10659523D01*
D10*
D11*
X85322619Y-10411904D02*
X85384523Y-10350000D01*
X85508333Y-10288095D01*
X85817857Y-10288095D01*
X85941666Y-10350000D01*
X86003571Y-10411904D01*
X86065476Y-10535714D01*
X86065476Y-10659523D01*
X86003571Y-10845238D01*
X85260714Y-11588095D01*
X86065476Y-11588095D01*
D10*
D11*
X135260714Y-10288095D02*
X136065476Y-10288095D01*
X135632142Y-10783333D01*
X135817857Y-10783333D01*
X135941666Y-10845238D01*
X136003571Y-10907142D01*
X136065476Y-11030952D01*
X136065476Y-11340476D01*
X136003571Y-11464285D01*
X135941666Y-11526190D01*
X135817857Y-11588095D01*
X135446428Y-11588095D01*
X135322619Y-11526190D01*
X135260714Y-11464285D01*
D10*
D11*
X185941666Y-10721428D02*
X185941666Y-11588095D01*
X185632142Y-10226190D02*
X185322619Y-11154761D01*
X186127380Y-11154761D01*
D10*
D11*
X236003571Y-10288095D02*
X235384523Y-10288095D01*
X235322619Y-10907142D01*
X235384523Y-10845238D01*
X235508333Y-10783333D01*
X235817857Y-10783333D01*
X235941666Y-10845238D01*
X236003571Y-10907142D01*
X236065476Y-11030952D01*
X236065476Y-11340476D01*
X236003571Y-11464285D01*
X235941666Y-11526190D01*
X235817857Y-11588095D01*
X235508333Y-11588095D01*
X235384523Y-11526190D01*
X235322619Y-11464285D01*
D10*
D11*
X285941666Y-10288095D02*
X285694047Y-10288095D01*
X285570238Y-10350000D01*
X285508333Y-10411904D01*
X285384523Y-10597619D01*
X285322619Y-10845238D01*
X285322619Y-11340476D01*
X285384523Y-11464285D01*
X285446428Y-11526190D01*
X285570238Y-11588095D01*
X285817857Y-11588095D01*
X285941666Y-11526190D01*
X286003571Y-11464285D01*
X286065476Y-11340476D01*
X286065476Y-11030952D01*
X286003571Y-10907142D01*
X285941666Y-10845238D01*
X285817857Y-10783333D01*
X285570238Y-10783333D01*
X285446428Y-10845238D01*
X285384523Y-10907142D01*
X285322619Y-11030952D01*
D10*
D11*
X60000000Y-198007200D02*
X60000000Y-200007200D01*
D10*
D11*
X110000000Y-198007200D02*
X110000000Y-200007200D01*
D10*
D11*
X160000000Y-198007200D02*
X160000000Y-200007200D01*
D10*
D11*
X210000000Y-198007200D02*
X210000000Y-200007200D01*
D10*
D11*
X260000000Y-198007200D02*
X260000000Y-200007200D01*
D10*
D11*
X36065476Y-199595295D02*
X35322619Y-199595295D01*
X35694047Y-199595295D02*
X35694047Y-198295295D01*
X35570238Y-198481009D01*
X35446428Y-198604819D01*
X35322619Y-198666723D01*
D10*
D11*
X85322619Y-198419104D02*
X85384523Y-198357200D01*
X85508333Y-198295295D01*
X85817857Y-198295295D01*
X85941666Y-198357200D01*
X86003571Y-198419104D01*
X86065476Y-198542914D01*
X86065476Y-198666723D01*
X86003571Y-198852438D01*
X85260714Y-199595295D01*
X86065476Y-199595295D01*
D10*
D11*
X135260714Y-198295295D02*
X136065476Y-198295295D01*
X135632142Y-198790533D01*
X135817857Y-198790533D01*
X135941666Y-198852438D01*
X136003571Y-198914342D01*
X136065476Y-199038152D01*
X136065476Y-199347676D01*
X136003571Y-199471485D01*
X135941666Y-199533390D01*
X135817857Y-199595295D01*
X135446428Y-199595295D01*
X135322619Y-199533390D01*
X135260714Y-199471485D01*
D10*
D11*
X185941666Y-198728628D02*
X185941666Y-199595295D01*
X185632142Y-198233390D02*
X185322619Y-199161961D01*
X186127380Y-199161961D01*
D10*
D11*
X236003571Y-198295295D02*
X235384523Y-198295295D01*
X235322619Y-198914342D01*
X235384523Y-198852438D01*
X235508333Y-198790533D01*
X235817857Y-198790533D01*
X235941666Y-198852438D01*
X236003571Y-198914342D01*
X236065476Y-199038152D01*
X236065476Y-199347676D01*
X236003571Y-199471485D01*
X235941666Y-199533390D01*
X235817857Y-199595295D01*
X235508333Y-199595295D01*
X235384523Y-199533390D01*
X235322619Y-199471485D01*
D10*
D11*
X285941666Y-198295295D02*
X285694047Y-198295295D01*
X285570238Y-198357200D01*
X285508333Y-198419104D01*
X285384523Y-198604819D01*
X285322619Y-198852438D01*
X285322619Y-199347676D01*
X285384523Y-199471485D01*
X285446428Y-199533390D01*
X285570238Y-199595295D01*
X285817857Y-199595295D01*
X285941666Y-199533390D01*
X286003571Y-199471485D01*
X286065476Y-199347676D01*
X286065476Y-199038152D01*
X286003571Y-198914342D01*
X285941666Y-198852438D01*
X285817857Y-198790533D01*
X285570238Y-198790533D01*
X285446428Y-198852438D01*
X285384523Y-198914342D01*
X285322619Y-199038152D01*
D10*
D11*
X10000000Y-60000000D02*
X12000000Y-60000000D01*
D10*
D11*
X10000000Y-110000000D02*
X12000000Y-110000000D01*
D10*
D11*
X10000000Y-160000000D02*
X12000000Y-160000000D01*
D10*
D11*
X10690476Y-35216666D02*
X11309523Y-35216666D01*
X10566666Y-35588095D02*
X11000000Y-34288095D01*
X11433333Y-35588095D01*
D10*
D11*
X11092857Y-84907142D02*
X11278571Y-84969047D01*
X11340476Y-85030952D01*
X11402380Y-85154761D01*
X11402380Y-85340476D01*
X11340476Y-85464285D01*
X11278571Y-85526190D01*
X11154761Y-85588095D01*
X10659523Y-85588095D01*
X10659523Y-84288095D01*
X11092857Y-84288095D01*
X11216666Y-84350000D01*
X11278571Y-84411904D01*
X11340476Y-84535714D01*
X11340476Y-84659523D01*
X11278571Y-84783333D01*
X11216666Y-84845238D01*
X11092857Y-84907142D01*
X10659523Y-84907142D01*
D10*
D11*
X11402380Y-135464285D02*
X11340476Y-135526190D01*
X11154761Y-135588095D01*
X11030952Y-135588095D01*
X10845238Y-135526190D01*
X10721428Y-135402380D01*
X10659523Y-135278571D01*
X10597619Y-135030952D01*
X10597619Y-134845238D01*
X10659523Y-134597619D01*
X10721428Y-134473809D01*
X10845238Y-134350000D01*
X11030952Y-134288095D01*
X11154761Y-134288095D01*
X11340476Y-134350000D01*
X11402380Y-134411904D01*
D10*
D11*
X10659523Y-185588095D02*
X10659523Y-184288095D01*
X10969047Y-184288095D01*
X11154761Y-184350000D01*
X11278571Y-184473809D01*
X11340476Y-184597619D01*
X11402380Y-184845238D01*
X11402380Y-185030952D01*
X11340476Y-185278571D01*
X11278571Y-185402380D01*
X11154761Y-185526190D01*
X10969047Y-185588095D01*
X10659523Y-185588095D01*
D10*
D11*
X287002200Y-60000000D02*
X285002200Y-60000000D01*
D10*
D11*
X287002200Y-110000000D02*
X285002200Y-110000000D01*
D10*
D11*
X287002200Y-160000000D02*
X285002200Y-160000000D01*
D10*
D11*
X285692676Y-35216666D02*
X286311723Y-35216666D01*
X285568866Y-35588095D02*
X286002200Y-34288095D01*
X286435533Y-35588095D01*
D10*
D11*
X286095057Y-84907142D02*
X286280771Y-84969047D01*
X286342676Y-85030952D01*
X286404580Y-85154761D01*
X286404580Y-85340476D01*
X286342676Y-85464285D01*
X286280771Y-85526190D01*
X286156961Y-85588095D01*
X285661723Y-85588095D01*
X285661723Y-84288095D01*
X286095057Y-84288095D01*
X286218866Y-84350000D01*
X286280771Y-84411904D01*
X286342676Y-84535714D01*
X286342676Y-84659523D01*
X286280771Y-84783333D01*
X286218866Y-84845238D01*
X286095057Y-84907142D01*
X285661723Y-84907142D01*
D10*
D11*
X286404580Y-135464285D02*
X286342676Y-135526190D01*
X286156961Y-135588095D01*
X286033152Y-135588095D01*
X285847438Y-135526190D01*
X285723628Y-135402380D01*
X285661723Y-135278571D01*
X285599819Y-135030952D01*
X285599819Y-134845238D01*
X285661723Y-134597619D01*
X285723628Y-134473809D01*
X285847438Y-134350000D01*
X286033152Y-134288095D01*
X286156961Y-134288095D01*
X286342676Y-134350000D01*
X286404580Y-134411904D01*
D10*
D11*
X285661723Y-185588095D02*
X285661723Y-184288095D01*
X285971247Y-184288095D01*
X286156961Y-184350000D01*
X286280771Y-184473809D01*
X286342676Y-184597619D01*
X286404580Y-184845238D01*
X286404580Y-185030952D01*
X286342676Y-185278571D01*
X286280771Y-185402380D01*
X286156961Y-185526190D01*
X285971247Y-185588095D01*
X285661723Y-185588095D01*
D10*
D11*
X200434342Y-193785771D02*
X200434342Y-192285771D01*
X200791485Y-192285771D01*
X201005771Y-192357200D01*
X201148628Y-192500057D01*
X201220057Y-192642914D01*
X201291485Y-192928628D01*
X201291485Y-193142914D01*
X201220057Y-193428628D01*
X201148628Y-193571485D01*
X201005771Y-193714342D01*
X200791485Y-193785771D01*
X200434342Y-193785771D01*
X202577200Y-193785771D02*
X202577200Y-193000057D01*
X202505771Y-192857200D01*
X202362914Y-192785771D01*
X202077200Y-192785771D01*
X201934342Y-192857200D01*
X202577200Y-193714342D02*
X202434342Y-193785771D01*
X202077200Y-193785771D01*
X201934342Y-193714342D01*
X201862914Y-193571485D01*
X201862914Y-193428628D01*
X201934342Y-193285771D01*
X202077200Y-193214342D01*
X202434342Y-193214342D01*
X202577200Y-193142914D01*
X203077200Y-192785771D02*
X203648628Y-192785771D01*
X203291485Y-192285771D02*
X203291485Y-193571485D01*
X203362914Y-193714342D01*
X203505771Y-193785771D01*
X203648628Y-193785771D01*
X204720057Y-193714342D02*
X204577200Y-193785771D01*
X204291485Y-193785771D01*
X204148628Y-193714342D01*
X204077200Y-193571485D01*
X204077200Y-193000057D01*
X204148628Y-192857200D01*
X204291485Y-192785771D01*
X204577200Y-192785771D01*
X204720057Y-192857200D01*
X204791485Y-193000057D01*
X204791485Y-193142914D01*
X204077200Y-193285771D01*
X205434342Y-193642914D02*
X205505771Y-193714342D01*
X205434342Y-193785771D01*
X205362914Y-193714342D01*
X205434342Y-193642914D01*
X205434342Y-193785771D01*
X205434342Y-192857200D02*
X205505771Y-192928628D01*
X205434342Y-193000057D01*
X205362914Y-192928628D01*
X205434342Y-192857200D01*
X205434342Y-193000057D01*
D10*
D11*
X177002200Y-194507200D02*
X285002200Y-194507200D01*
D10*
D11*
X178434342Y-196585771D02*
X178434342Y-195085771D01*
X179291485Y-196585771D02*
X178648628Y-195728628D01*
X179291485Y-195085771D02*
X178434342Y-195942914D01*
X179934342Y-196585771D02*
X179934342Y-195585771D01*
X179934342Y-195085771D02*
X179862914Y-195157200D01*
X179934342Y-195228628D01*
X180005771Y-195157200D01*
X179934342Y-195085771D01*
X179934342Y-195228628D01*
X181505771Y-196442914D02*
X181434342Y-196514342D01*
X181220057Y-196585771D01*
X181077200Y-196585771D01*
X180862914Y-196514342D01*
X180720057Y-196371485D01*
X180648628Y-196228628D01*
X180577200Y-195942914D01*
X180577200Y-195728628D01*
X180648628Y-195442914D01*
X180720057Y-195300057D01*
X180862914Y-195157200D01*
X181077200Y-195085771D01*
X181220057Y-195085771D01*
X181434342Y-195157200D01*
X181505771Y-195228628D01*
X182791485Y-196585771D02*
X182791485Y-195800057D01*
X182720057Y-195657200D01*
X182577200Y-195585771D01*
X182291485Y-195585771D01*
X182148628Y-195657200D01*
X182791485Y-196514342D02*
X182648628Y-196585771D01*
X182291485Y-196585771D01*
X182148628Y-196514342D01*
X182077200Y-196371485D01*
X182077200Y-196228628D01*
X182148628Y-196085771D01*
X182291485Y-196014342D01*
X182648628Y-196014342D01*
X182791485Y-195942914D01*
X184148628Y-196585771D02*
X184148628Y-195085771D01*
X184148628Y-196514342D02*
X184005771Y-196585771D01*
X183720057Y-196585771D01*
X183577200Y-196514342D01*
X183505771Y-196442914D01*
X183434342Y-196300057D01*
X183434342Y-195871485D01*
X183505771Y-195728628D01*
X183577200Y-195657200D01*
X183720057Y-195585771D01*
X184005771Y-195585771D01*
X184148628Y-195657200D01*
X186005771Y-195800057D02*
X186505771Y-195800057D01*
X186720057Y-196585771D02*
X186005771Y-196585771D01*
X186005771Y-195085771D01*
X186720057Y-195085771D01*
X187362914Y-196442914D02*
X187434342Y-196514342D01*
X187362914Y-196585771D01*
X187291485Y-196514342D01*
X187362914Y-196442914D01*
X187362914Y-196585771D01*
X188077200Y-196585771D02*
X188077200Y-195085771D01*
X188434342Y-195085771D01*
X188648628Y-195157200D01*
X188791485Y-195300057D01*
X188862914Y-195442914D01*
X188934342Y-195728628D01*
X188934342Y-195942914D01*
X188862914Y-196228628D01*
X188791485Y-196371485D01*
X188648628Y-196514342D01*
X188434342Y-196585771D01*
X188077200Y-196585771D01*
X189577200Y-196442914D02*
X189648628Y-196514342D01*
X189577200Y-196585771D01*
X189505771Y-196514342D01*
X189577200Y-196442914D01*
X189577200Y-196585771D01*
X190220057Y-196157200D02*
X190934342Y-196157200D01*
X190077200Y-196585771D02*
X190577200Y-195085771D01*
X191077200Y-196585771D01*
X191577200Y-196442914D02*
X191648628Y-196514342D01*
X191577200Y-196585771D01*
X191505771Y-196514342D01*
X191577200Y-196442914D01*
X191577200Y-196585771D01*
X194577200Y-196585771D02*
X194577200Y-195085771D01*
X194720057Y-196014342D02*
X195148628Y-196585771D01*
X195148628Y-195585771D02*
X194577200Y-196157200D01*
X195791485Y-196585771D02*
X195791485Y-195585771D01*
X195791485Y-195085771D02*
X195720057Y-195157200D01*
X195791485Y-195228628D01*
X195862914Y-195157200D01*
X195791485Y-195085771D01*
X195791485Y-195228628D01*
X197148628Y-196514342D02*
X197005771Y-196585771D01*
X196720057Y-196585771D01*
X196577200Y-196514342D01*
X196505771Y-196442914D01*
X196434342Y-196300057D01*
X196434342Y-195871485D01*
X196505771Y-195728628D01*
X196577200Y-195657200D01*
X196720057Y-195585771D01*
X197005771Y-195585771D01*
X197148628Y-195657200D01*
X198434342Y-196585771D02*
X198434342Y-195800057D01*
X198362914Y-195657200D01*
X198220057Y-195585771D01*
X197934342Y-195585771D01*
X197791485Y-195657200D01*
X198434342Y-196514342D02*
X198291485Y-196585771D01*
X197934342Y-196585771D01*
X197791485Y-196514342D01*
X197720057Y-196371485D01*
X197720057Y-196228628D01*
X197791485Y-196085771D01*
X197934342Y-196014342D01*
X198291485Y-196014342D01*
X198434342Y-195942914D01*
X199791485Y-196585771D02*
X199791485Y-195085771D01*
X199791485Y-196514342D02*
X199648628Y-196585771D01*
X199362914Y-196585771D01*
X199220057Y-196514342D01*
X199148628Y-196442914D01*
X199077200Y-196300057D01*
X199077200Y-195871485D01*
X199148628Y-195728628D01*
X199220057Y-195657200D01*
X199362914Y-195585771D01*
X199648628Y-195585771D01*
X199791485Y-195657200D01*
X202077200Y-197157200D02*
X202005771Y-197085771D01*
X201862914Y-196871485D01*
X201791485Y-196728628D01*
X201720057Y-196514342D01*
X201648628Y-196157200D01*
X201648628Y-195871485D01*
X201720057Y-195514342D01*
X201791485Y-195300057D01*
X201862914Y-195157200D01*
X202005771Y-194942914D01*
X202077200Y-194871485D01*
X203362914Y-195085771D02*
X202648628Y-195085771D01*
X202577200Y-195800057D01*
X202648628Y-195728628D01*
X202791485Y-195657200D01*
X203148628Y-195657200D01*
X203291485Y-195728628D01*
X203362914Y-195800057D01*
X203434342Y-195942914D01*
X203434342Y-196300057D01*
X203362914Y-196442914D01*
X203291485Y-196514342D01*
X203148628Y-196585771D01*
X202791485Y-196585771D01*
X202648628Y-196514342D01*
X202577200Y-196442914D01*
X204077200Y-196442914D02*
X204148628Y-196514342D01*
X204077200Y-196585771D01*
X204005771Y-196514342D01*
X204077200Y-196442914D01*
X204077200Y-196585771D01*
X205577200Y-196585771D02*
X204720057Y-196585771D01*
X205148628Y-196585771D02*
X205148628Y-195085771D01*
X205005771Y-195300057D01*
X204862914Y-195442914D01*
X204720057Y-195514342D01*
X206220057Y-196442914D02*
X206291485Y-196514342D01*
X206220057Y-196585771D01*
X206148628Y-196514342D01*
X206220057Y-196442914D01*
X206220057Y-196585771D01*
X207577200Y-195585771D02*
X207577200Y-196585771D01*
X207220057Y-195014342D02*
X206862914Y-196085771D01*
X207791485Y-196085771D01*
X208220057Y-197157200D02*
X208291485Y-197085771D01*
X208434342Y-196871485D01*
X208505771Y-196728628D01*
X208577200Y-196514342D01*
X208648628Y-196157200D01*
X208648628Y-195871485D01*
X208577200Y-195514342D01*
X208505771Y-195300057D01*
X208434342Y-195157200D01*
X208291485Y-194942914D01*
X208220057Y-194871485D01*
X209362914Y-196014342D02*
X210505771Y-196014342D01*
X212005771Y-196585771D02*
X211148628Y-196585771D01*
X211577200Y-196585771D02*
X211577200Y-195085771D01*
X211434342Y-195300057D01*
X211291485Y-195442914D01*
X211148628Y-195514342D01*
D10*
D11*
X177002200Y-191507200D02*
X285002200Y-191507200D01*
D10*
D12*
X264411485Y-193785771D02*
X263911485Y-193071485D01*
X263554342Y-193785771D02*
X263554342Y-192285771D01*
X264125771Y-192285771D01*
X264268628Y-192357200D01*
X264340057Y-192428628D01*
X264411485Y-192571485D01*
X264411485Y-192785771D01*
X264340057Y-192928628D01*
X264268628Y-193000057D01*
X264125771Y-193071485D01*
X263554342Y-193071485D01*
X265625771Y-193714342D02*
X265482914Y-193785771D01*
X265197200Y-193785771D01*
X265054342Y-193714342D01*
X264982914Y-193571485D01*
X264982914Y-193000057D01*
X265054342Y-192857200D01*
X265197200Y-192785771D01*
X265482914Y-192785771D01*
X265625771Y-192857200D01*
X265697200Y-193000057D01*
X265697200Y-193142914D01*
X264982914Y-193285771D01*
X266197200Y-192785771D02*
X266554342Y-193785771D01*
X266911485Y-192785771D01*
X267482914Y-193642914D02*
X267554342Y-193714342D01*
X267482914Y-193785771D01*
X267411485Y-193714342D01*
X267482914Y-193642914D01*
X267482914Y-193785771D01*
X267482914Y-192857200D02*
X267554342Y-192928628D01*
X267482914Y-193000057D01*
X267411485Y-192928628D01*
X267482914Y-192857200D01*
X267482914Y-193000057D01*
D10*
D11*
X178362914Y-193714342D02*
X178577200Y-193785771D01*
X178934342Y-193785771D01*
X179077200Y-193714342D01*
X179148628Y-193642914D01*
X179220057Y-193500057D01*
X179220057Y-193357200D01*
X179148628Y-193214342D01*
X179077200Y-193142914D01*
X178934342Y-193071485D01*
X178648628Y-193000057D01*
X178505771Y-192928628D01*
X178434342Y-192857200D01*
X178362914Y-192714342D01*
X178362914Y-192571485D01*
X178434342Y-192428628D01*
X178505771Y-192357200D01*
X178648628Y-192285771D01*
X179005771Y-192285771D01*
X179220057Y-192357200D01*
X179862914Y-193785771D02*
X179862914Y-192785771D01*
X179862914Y-192285771D02*
X179791485Y-192357200D01*
X179862914Y-192428628D01*
X179934342Y-192357200D01*
X179862914Y-192285771D01*
X179862914Y-192428628D01*
X180434342Y-192785771D02*
X181220057Y-192785771D01*
X180434342Y-193785771D01*
X181220057Y-193785771D01*
X182362914Y-193714342D02*
X182220057Y-193785771D01*
X181934342Y-193785771D01*
X181791485Y-193714342D01*
X181720057Y-193571485D01*
X181720057Y-193000057D01*
X181791485Y-192857200D01*
X181934342Y-192785771D01*
X182220057Y-192785771D01*
X182362914Y-192857200D01*
X182434342Y-193000057D01*
X182434342Y-193142914D01*
X181720057Y-193285771D01*
X183077200Y-193642914D02*
X183148628Y-193714342D01*
X183077200Y-193785771D01*
X183005771Y-193714342D01*
X183077200Y-193642914D01*
X183077200Y-193785771D01*
X183077200Y-192857200D02*
X183148628Y-192928628D01*
X183077200Y-193000057D01*
X183005771Y-192928628D01*
X183077200Y-192857200D01*
X183077200Y-193000057D01*
X184862914Y-193357200D02*
X185577200Y-193357200D01*
X184720057Y-193785771D02*
X185220057Y-192285771D01*
X185720057Y-193785771D01*
X186862914Y-192785771D02*
X186862914Y-193785771D01*
X186505771Y-192214342D02*
X186148628Y-193285771D01*
X187077200Y-193285771D01*
D10*
D11*
X263434342Y-196585771D02*
X263434342Y-195085771D01*
X264791485Y-196585771D02*
X264791485Y-195085771D01*
X264791485Y-196514342D02*
X264648628Y-196585771D01*
X264362914Y-196585771D01*
X264220057Y-196514342D01*
X264148628Y-196442914D01*
X264077200Y-196300057D01*
X264077200Y-195871485D01*
X264148628Y-195728628D01*
X264220057Y-195657200D01*
X264362914Y-195585771D01*
X264648628Y-195585771D01*
X264791485Y-195657200D01*
X265505771Y-196442914D02*
X265577200Y-196514342D01*
X265505771Y-196585771D01*
X265434342Y-196514342D01*
X265505771Y-196442914D01*
X265505771Y-196585771D01*
X265505771Y-195657200D02*
X265577200Y-195728628D01*
X265505771Y-195800057D01*
X265434342Y-195728628D01*
X265505771Y-195657200D01*
X265505771Y-195800057D01*
X268148628Y-196585771D02*
X267291485Y-196585771D01*
X267720057Y-196585771D02*
X267720057Y-195085771D01*
X267577200Y-195300057D01*
X267434342Y-195442914D01*
X267291485Y-195514342D01*
X269862914Y-195014342D02*
X268577200Y-196942914D01*
X271148628Y-196585771D02*
X270291485Y-196585771D01*
X270720057Y-196585771D02*
X270720057Y-195085771D01*
X270577200Y-195300057D01*
X270434342Y-195442914D01*
X270291485Y-195514342D01*
D10*
D11*
X177002200Y-187507200D02*
X285002200Y-187507200D01*
D10*
D13*
X178714580Y-188211961D02*
X179857438Y-188211961D01*
X179036009Y-190211961D02*
X179286009Y-188211961D01*
X180274104Y-190211961D02*
X180440771Y-188878628D01*
X180524104Y-188211961D02*
X180416961Y-188307200D01*
X180500295Y-188402438D01*
X180607438Y-188307200D01*
X180524104Y-188211961D01*
X180500295Y-188402438D01*
X181107438Y-188878628D02*
X181869342Y-188878628D01*
X181476485Y-188211961D02*
X181262200Y-189926247D01*
X181333628Y-190116723D01*
X181512200Y-190211961D01*
X181702676Y-190211961D01*
X182655057Y-190211961D02*
X182476485Y-190116723D01*
X182405057Y-189926247D01*
X182619342Y-188211961D01*
X184190771Y-190116723D02*
X183988390Y-190211961D01*
X183607438Y-190211961D01*
X183428866Y-190116723D01*
X183357438Y-189926247D01*
X183452676Y-189164342D01*
X183571723Y-188973866D01*
X183774104Y-188878628D01*
X184155057Y-188878628D01*
X184333628Y-188973866D01*
X184405057Y-189164342D01*
X184381247Y-189354819D01*
X183405057Y-189545295D01*
X185155057Y-190021485D02*
X185238390Y-190116723D01*
X185131247Y-190211961D01*
X185047914Y-190116723D01*
X185155057Y-190021485D01*
X185131247Y-190211961D01*
X185286009Y-188973866D02*
X185369342Y-189069104D01*
X185262200Y-189164342D01*
X185178866Y-189069104D01*
X185286009Y-188973866D01*
X185262200Y-189164342D01*
D10*
D11*
X178934342Y-185600057D02*
X178434342Y-185600057D01*
X178434342Y-186385771D02*
X178434342Y-184885771D01*
X179148628Y-184885771D01*
X179720057Y-186385771D02*
X179720057Y-185385771D01*
X179720057Y-184885771D02*
X179648628Y-184957200D01*
X179720057Y-185028628D01*
X179791485Y-184957200D01*
X179720057Y-184885771D01*
X179720057Y-185028628D01*
X180648628Y-186385771D02*
X180505771Y-186314342D01*
X180434342Y-186171485D01*
X180434342Y-184885771D01*
X181791485Y-186314342D02*
X181648628Y-186385771D01*
X181362914Y-186385771D01*
X181220057Y-186314342D01*
X181148628Y-186171485D01*
X181148628Y-185600057D01*
X181220057Y-185457200D01*
X181362914Y-185385771D01*
X181648628Y-185385771D01*
X181791485Y-185457200D01*
X181862914Y-185600057D01*
X181862914Y-185742914D01*
X181148628Y-185885771D01*
X182505771Y-186242914D02*
X182577200Y-186314342D01*
X182505771Y-186385771D01*
X182434342Y-186314342D01*
X182505771Y-186242914D01*
X182505771Y-186385771D01*
X182505771Y-185457200D02*
X182577200Y-185528628D01*
X182505771Y-185600057D01*
X182434342Y-185528628D01*
X182505771Y-185457200D01*
X182505771Y-185600057D01*
X185077200Y-186385771D02*
X184362914Y-186385771D01*
X184362914Y-184885771D01*
X185577200Y-186385771D02*
X185577200Y-185385771D01*
X185577200Y-184885771D02*
X185505771Y-184957200D01*
X185577200Y-185028628D01*
X185648628Y-184957200D01*
X185577200Y-184885771D01*
X185577200Y-185028628D01*
X186505771Y-186385771D02*
X186362914Y-186314342D01*
X186291485Y-186171485D01*
X186291485Y-184885771D01*
X186934342Y-185385771D02*
X187291485Y-186385771D01*
X187648628Y-185385771D02*
X187291485Y-186385771D01*
X187148628Y-186742914D01*
X187077200Y-186814342D01*
X186934342Y-186885771D01*
X188934342Y-184885771D02*
X188220057Y-184885771D01*
X188148628Y-185600057D01*
X188220057Y-185528628D01*
X188362914Y-185457200D01*
X188720057Y-185457200D01*
X188862914Y-185528628D01*
X188934342Y-185600057D01*
X189005771Y-185742914D01*
X189005771Y-186100057D01*
X188934342Y-186242914D01*
X188862914Y-186314342D01*
X188720057Y-186385771D01*
X188362914Y-186385771D01*
X188220057Y-186314342D01*
X188148628Y-186242914D01*
X189862914Y-185528628D02*
X189720057Y-185457200D01*
X189648628Y-185385771D01*
X189577200Y-185242914D01*
X189577200Y-185171485D01*
X189648628Y-185028628D01*
X189720057Y-184957200D01*
X189862914Y-184885771D01*
X190148628Y-184885771D01*
X190291485Y-184957200D01*
X190362914Y-185028628D01*
X190434342Y-185171485D01*
X190434342Y-185242914D01*
X190362914Y-185385771D01*
X190291485Y-185457200D01*
X190148628Y-185528628D01*
X189862914Y-185528628D01*
X189720057Y-185600057D01*
X189648628Y-185671485D01*
X189577200Y-185814342D01*
X189577200Y-186100057D01*
X189648628Y-186242914D01*
X189720057Y-186314342D01*
X189862914Y-186385771D01*
X190148628Y-186385771D01*
X190291485Y-186314342D01*
X190362914Y-186242914D01*
X190434342Y-186100057D01*
X190434342Y-185814342D01*
X190362914Y-185671485D01*
X190291485Y-185600057D01*
X190148628Y-185528628D01*
X190720057Y-186528628D02*
X191862914Y-186528628D01*
X192220057Y-186385771D02*
X192220057Y-184885771D01*
X192791485Y-184885771D01*
X192934342Y-184957200D01*
X193005771Y-185028628D01*
X193077200Y-185171485D01*
X193077200Y-185385771D01*
X193005771Y-185528628D01*
X192934342Y-185600057D01*
X192791485Y-185671485D01*
X192220057Y-185671485D01*
X193720057Y-186385771D02*
X193720057Y-185385771D01*
X193720057Y-185671485D02*
X193791485Y-185528628D01*
X193862914Y-185457200D01*
X194005771Y-185385771D01*
X194148628Y-185385771D01*
X194862914Y-186385771D02*
X194720057Y-186314342D01*
X194648628Y-186242914D01*
X194577200Y-186100057D01*
X194577200Y-185671485D01*
X194648628Y-185528628D01*
X194720057Y-185457200D01*
X194862914Y-185385771D01*
X195077200Y-185385771D01*
X195220057Y-185457200D01*
X195291485Y-185528628D01*
X195362914Y-185671485D01*
X195362914Y-186100057D01*
X195291485Y-186242914D01*
X195220057Y-186314342D01*
X195077200Y-186385771D01*
X194862914Y-186385771D01*
X196005771Y-186242914D02*
X196077200Y-186314342D01*
X196005771Y-186385771D01*
X195934342Y-186314342D01*
X196005771Y-186242914D01*
X196005771Y-186385771D01*
X196720057Y-186385771D02*
X196720057Y-184885771D01*
X196862914Y-185814342D02*
X197291485Y-186385771D01*
X197291485Y-185385771D02*
X196720057Y-185957200D01*
X197934342Y-186385771D02*
X197934342Y-185385771D01*
X197934342Y-184885771D02*
X197862914Y-184957200D01*
X197934342Y-185028628D01*
X198005771Y-184957200D01*
X197934342Y-184885771D01*
X197934342Y-185028628D01*
X199291485Y-186314342D02*
X199148628Y-186385771D01*
X198862914Y-186385771D01*
X198720057Y-186314342D01*
X198648628Y-186242914D01*
X198577200Y-186100057D01*
X198577200Y-185671485D01*
X198648628Y-185528628D01*
X198720057Y-185457200D01*
X198862914Y-185385771D01*
X199148628Y-185385771D01*
X199291485Y-185457200D01*
X200577200Y-186385771D02*
X200577200Y-185600057D01*
X200505771Y-185457200D01*
X200362914Y-185385771D01*
X200077200Y-185385771D01*
X199934342Y-185457200D01*
X200577200Y-186314342D02*
X200434342Y-186385771D01*
X200077200Y-186385771D01*
X199934342Y-186314342D01*
X199862914Y-186171485D01*
X199862914Y-186028628D01*
X199934342Y-185885771D01*
X200077200Y-185814342D01*
X200434342Y-185814342D01*
X200577200Y-185742914D01*
X201934342Y-186385771D02*
X201934342Y-184885771D01*
X201934342Y-186314342D02*
X201791485Y-186385771D01*
X201505771Y-186385771D01*
X201362914Y-186314342D01*
X201291485Y-186242914D01*
X201220057Y-186100057D01*
X201220057Y-185671485D01*
X201291485Y-185528628D01*
X201362914Y-185457200D01*
X201505771Y-185385771D01*
X201791485Y-185385771D01*
X201934342Y-185457200D01*
X202291485Y-186528628D02*
X203434342Y-186528628D01*
X203791485Y-185385771D02*
X203791485Y-186885771D01*
X203791485Y-185457200D02*
X203934342Y-185385771D01*
X204220057Y-185385771D01*
X204362914Y-185457200D01*
X204434342Y-185528628D01*
X204505771Y-185671485D01*
X204505771Y-186100057D01*
X204434342Y-186242914D01*
X204362914Y-186314342D01*
X204220057Y-186385771D01*
X203934342Y-186385771D01*
X203791485Y-186314342D01*
X205791485Y-186314342D02*
X205648628Y-186385771D01*
X205362914Y-186385771D01*
X205220057Y-186314342D01*
X205148628Y-186242914D01*
X205077200Y-186100057D01*
X205077200Y-185671485D01*
X205148628Y-185528628D01*
X205220057Y-185457200D01*
X205362914Y-185385771D01*
X205648628Y-185385771D01*
X205791485Y-185457200D01*
X206434342Y-186385771D02*
X206434342Y-184885771D01*
X206434342Y-185457200D02*
X206577200Y-185385771D01*
X206862914Y-185385771D01*
X207005771Y-185457200D01*
X207077200Y-185528628D01*
X207148628Y-185671485D01*
X207148628Y-186100057D01*
X207077200Y-186242914D01*
X207005771Y-186314342D01*
X206862914Y-186385771D01*
X206577200Y-186385771D01*
X206434342Y-186314342D01*
D10*
D11*
X177002200Y-181507200D02*
X285002200Y-181507200D01*
D10*
D11*
X178362914Y-183614342D02*
X178577200Y-183685771D01*
X178934342Y-183685771D01*
X179077200Y-183614342D01*
X179148628Y-183542914D01*
X179220057Y-183400057D01*
X179220057Y-183257200D01*
X179148628Y-183114342D01*
X179077200Y-183042914D01*
X178934342Y-182971485D01*
X178648628Y-182900057D01*
X178505771Y-182828628D01*
X178434342Y-182757200D01*
X178362914Y-182614342D01*
X178362914Y-182471485D01*
X178434342Y-182328628D01*
X178505771Y-182257200D01*
X178648628Y-182185771D01*
X179005771Y-182185771D01*
X179220057Y-182257200D01*
X179862914Y-183685771D02*
X179862914Y-182185771D01*
X180505771Y-183685771D02*
X180505771Y-182900057D01*
X180434342Y-182757200D01*
X180291485Y-182685771D01*
X180077200Y-182685771D01*
X179934342Y-182757200D01*
X179862914Y-182828628D01*
X181791485Y-183614342D02*
X181648628Y-183685771D01*
X181362914Y-183685771D01*
X181220057Y-183614342D01*
X181148628Y-183471485D01*
X181148628Y-182900057D01*
X181220057Y-182757200D01*
X181362914Y-182685771D01*
X181648628Y-182685771D01*
X181791485Y-182757200D01*
X181862914Y-182900057D01*
X181862914Y-183042914D01*
X181148628Y-183185771D01*
X183077200Y-183614342D02*
X182934342Y-183685771D01*
X182648628Y-183685771D01*
X182505771Y-183614342D01*
X182434342Y-183471485D01*
X182434342Y-182900057D01*
X182505771Y-182757200D01*
X182648628Y-182685771D01*
X182934342Y-182685771D01*
X183077200Y-182757200D01*
X183148628Y-182900057D01*
X183148628Y-183042914D01*
X182434342Y-183185771D01*
X183577200Y-182685771D02*
X184148628Y-182685771D01*
X183791485Y-182185771D02*
X183791485Y-183471485D01*
X183862914Y-183614342D01*
X184005771Y-183685771D01*
X184148628Y-183685771D01*
X184648628Y-183542914D02*
X184720057Y-183614342D01*
X184648628Y-183685771D01*
X184577200Y-183614342D01*
X184648628Y-183542914D01*
X184648628Y-183685771D01*
X184648628Y-182757200D02*
X184720057Y-182828628D01*
X184648628Y-182900057D01*
X184577200Y-182828628D01*
X184648628Y-182757200D01*
X184648628Y-182900057D01*
D10*
D11*
X197002200Y-191507200D02*
X197002200Y-194507200D01*
D10*
D11*
X261002200Y-191507200D02*
X261002200Y-198007200D01*
X74700000Y-128475000D02*
X74725000Y-128475000D01*
X72674503Y-134960305D02*
G75*
G02X72175000Y-132325000I4376397J2194505D01*
G01*
X88345583Y-152620389D02*
G75*
G02X81699101Y-150634699I-2328483J4322489D01*
G01*
X72674503Y-134960305D02*
X81699101Y-150634699D01*
X104456758Y-143271756D02*
X88345583Y-152620389D01*
X245120000Y-120789735D02*
X245120000Y-22546755D01*
X223959999Y-120789735D02*
X245120000Y-120789735D01*
X109898210Y-36780000D02*
X109898210Y-17246762D01*
X82940000Y-36780000D02*
X109898210Y-36780000D01*
X82937528Y-38136762D02*
X82940000Y-36780000D01*
D14*
X240549319Y-20073847D02*
X235185697Y-18995159D01*
X235185697Y-18995159D02*
X228080758Y-18055561D01*
X116186619Y-136480784D02*
X117862313Y-135510645D01*
X114510925Y-137450923D02*
X116186619Y-136480784D01*
X82937528Y-50750629D02*
X82937528Y-44443695D01*
X82937528Y-57057562D02*
X82937528Y-50750629D01*
X142171711Y-16196762D02*
X131763877Y-16196762D01*
X218692418Y-120789735D02*
X223959999Y-120789735D01*
X213424836Y-120789735D02*
X218692418Y-120789735D01*
X208157255Y-120789735D02*
X213424836Y-120789735D01*
X202889673Y-120789735D02*
X208157255Y-120789735D01*
X197622092Y-120789735D02*
X202889673Y-120789735D01*
X192354511Y-120789735D02*
X197622092Y-120789735D01*
X187086929Y-120789735D02*
X192354511Y-120789735D01*
X181819348Y-120789735D02*
X187086929Y-120789735D01*
X181113524Y-120860778D02*
X181819348Y-120789735D01*
X180456326Y-121064561D02*
X181113524Y-120860778D01*
X179861773Y-121387065D02*
X180456326Y-121064561D01*
X179343884Y-121814271D02*
X179861773Y-121387065D01*
X178916678Y-122332160D02*
X179343884Y-121814271D01*
X178594174Y-122926713D02*
X178916678Y-122332160D01*
X178390391Y-123583911D02*
X178594174Y-122926713D01*
X178319348Y-124289735D02*
X178390391Y-123583911D01*
X219467654Y-17280488D02*
X209579538Y-16695374D01*
X228080758Y-18055561D02*
X219467654Y-17280488D01*
X198649563Y-16325654D02*
X186910881Y-16196762D01*
X209579538Y-16695374D02*
X198649563Y-16325654D01*
X177658308Y-135255660D02*
X177403500Y-135393876D01*
X177880261Y-135072571D02*
X177658308Y-135255660D01*
X178063349Y-134850619D02*
X177880261Y-135072571D01*
X178201565Y-134595810D02*
X178063349Y-134850619D01*
X178288901Y-134314154D02*
X178201565Y-134595810D01*
X178319348Y-134034052D02*
X178288901Y-134314154D01*
X82937528Y-69671429D02*
X82937528Y-63364495D01*
X82937528Y-75978362D02*
X82937528Y-69671429D01*
X82937528Y-82285296D02*
X82937528Y-75978362D01*
X82937528Y-88592229D02*
X82937528Y-82285296D01*
X131763877Y-16196762D02*
X121356044Y-16196762D01*
X152579545Y-16196762D02*
X142171711Y-16196762D01*
X162987379Y-16196762D02*
X152579545Y-16196762D01*
X173395213Y-16196762D02*
X162987379Y-16196762D01*
X186910881Y-16196762D02*
X173395213Y-16196762D01*
X110360937Y-16375961D02*
X110539303Y-16279210D01*
X110205570Y-16504123D02*
X110360937Y-16375961D01*
X110077409Y-16659489D02*
X110205570Y-16504123D01*
X109980657Y-16837855D02*
X110077409Y-16659489D01*
X109919523Y-17035015D02*
X109980657Y-16837855D01*
X109898210Y-17246762D02*
X109919523Y-17035015D01*
X110736462Y-16218075D02*
X110948210Y-16196762D01*
X110539303Y-16279210D02*
X110736462Y-16218075D01*
X121356044Y-16196762D02*
X110948210Y-16196762D01*
X82937528Y-63364495D02*
X82937528Y-57057562D01*
X82937528Y-44443695D02*
X82937528Y-38136762D01*
X82937777Y-88592317D02*
X72175000Y-132325000D01*
X112835230Y-138421062D02*
X114510925Y-137450923D01*
X111159536Y-139391201D02*
X112835230Y-138421062D01*
X109483841Y-140361340D02*
X111159536Y-139391201D01*
X107808147Y-141331479D02*
X109483841Y-140361340D01*
X106132452Y-142301617D02*
X107808147Y-141331479D01*
X104456758Y-143271756D02*
X106132452Y-142301617D01*
X169449826Y-135511658D02*
X176819348Y-135511658D01*
X162080304Y-135511658D02*
X169449826Y-135511658D01*
X154710782Y-135511658D02*
X162080304Y-135511658D01*
X147341260Y-135511658D02*
X154710782Y-135511658D01*
X139971738Y-135511658D02*
X147341260Y-135511658D01*
X132602217Y-135511658D02*
X139971738Y-135511658D01*
X125232695Y-135511658D02*
X132602217Y-135511658D01*
X117863173Y-135511658D02*
X125232695Y-135511658D01*
X178319348Y-132816013D02*
X178319348Y-134034052D01*
X178319348Y-131597973D02*
X178319348Y-132816013D01*
X178319348Y-130379933D02*
X178319348Y-131597973D01*
X178319348Y-129161894D02*
X178319348Y-130379933D01*
X178319348Y-127943854D02*
X178319348Y-129161894D01*
X178319348Y-126725814D02*
X178319348Y-127943854D01*
X178319348Y-125507775D02*
X178319348Y-126725814D01*
X178319348Y-124289735D02*
X178319348Y-125507775D01*
X177121844Y-135481211D02*
X176819348Y-135511658D01*
X177403500Y-135393876D02*
X177121844Y-135481211D01*
X243938471Y-21266190D02*
X240549319Y-20073847D01*
X245120000Y-22546755D02*
X243938471Y-21266190D01*
D10*
G36*
X101348995Y-63964294D02*
G01*
X100695000Y-64010000D01*
X101711000Y-65407000D01*
X102092000Y-65280000D01*
X101348995Y-63964294D01*
G37*
X101348995Y-63964294D02*
X100695000Y-64010000D01*
X101711000Y-65407000D01*
X102092000Y-65280000D01*
X101348995Y-63964294D01*
G36*
X100314000Y-63502000D02*
G01*
X98917000Y-63248000D01*
X97901000Y-62740000D01*
X98108327Y-62429975D01*
X97117571Y-61995290D01*
X96250000Y-61343000D01*
X96504000Y-61089000D01*
X95775701Y-60344093D01*
X95291290Y-59483610D01*
X95842067Y-59384534D01*
X95372403Y-58195437D01*
X95234000Y-56898000D01*
X95784966Y-56893651D01*
X95996000Y-53977000D01*
X96377000Y-53977000D01*
X97139000Y-51564000D01*
X97474546Y-51661740D01*
X98387214Y-49549765D01*
X98703538Y-49698000D01*
X99739672Y-47797789D01*
X100048055Y-47931087D01*
X100695000Y-46865000D01*
X101612844Y-45935961D01*
X101965000Y-47754000D01*
X102092000Y-49278000D01*
X102567865Y-49191277D01*
X103235000Y-52199000D01*
X103760176Y-52292307D01*
X104055701Y-53417874D01*
X104124000Y-54612000D01*
X104611017Y-54676740D01*
X104759000Y-57279000D01*
X105335933Y-57317370D01*
X105269756Y-58531803D01*
X105140000Y-59565000D01*
X105435764Y-59641110D01*
X104632000Y-60962000D01*
X103773033Y-62045206D01*
X104124000Y-62359000D01*
X102854000Y-63248000D01*
X101330000Y-63502000D01*
X101203000Y-63248000D01*
X99933000Y-58930000D01*
X99679000Y-53723000D01*
X100060000Y-51056000D01*
X100441000Y-48770000D01*
X100187000Y-48643000D01*
X99552000Y-50929000D01*
X98790000Y-55501000D01*
X99425000Y-59946000D01*
X100314000Y-63375000D01*
X100314000Y-63502000D01*
G37*
X100314000Y-63502000D02*
X98917000Y-63248000D01*
X97901000Y-62740000D01*
X98108327Y-62429975D01*
X97117571Y-61995290D01*
X96250000Y-61343000D01*
X96504000Y-61089000D01*
X95775701Y-60344093D01*
X95291290Y-59483610D01*
X95842067Y-59384534D01*
X95372403Y-58195437D01*
X95234000Y-56898000D01*
X95784966Y-56893651D01*
X95996000Y-53977000D01*
X96377000Y-53977000D01*
X97139000Y-51564000D01*
X97474546Y-51661740D01*
X98387214Y-49549765D01*
X98703538Y-49698000D01*
X99739672Y-47797789D01*
X100048055Y-47931087D01*
X100695000Y-46865000D01*
X101612844Y-45935961D01*
X101965000Y-47754000D01*
X102092000Y-49278000D01*
X102567865Y-49191277D01*
X103235000Y-52199000D01*
X103760176Y-52292307D01*
X104055701Y-53417874D01*
X104124000Y-54612000D01*
X104611017Y-54676740D01*
X104759000Y-57279000D01*
X105335933Y-57317370D01*
X105269756Y-58531803D01*
X105140000Y-59565000D01*
X105435764Y-59641110D01*
X104632000Y-60962000D01*
X103773033Y-62045206D01*
X104124000Y-62359000D01*
X102854000Y-63248000D01*
X101330000Y-63502000D01*
X101203000Y-63248000D01*
X99933000Y-58930000D01*
X99679000Y-53723000D01*
X100060000Y-51056000D01*
X100441000Y-48770000D01*
X100187000Y-48643000D01*
X99552000Y-50929000D01*
X98790000Y-55501000D01*
X99425000Y-59946000D01*
X100314000Y-63375000D01*
X100314000Y-63502000D01*
D12*
X97474546Y-51661740D02*
X97125323Y-51608042D01*
X105435764Y-59641110D02*
X105027739Y-59606509D01*
X101348995Y-63964294D02*
X101348995Y-63964294D01*
X98108327Y-62429975D02*
X97874630Y-62733063D01*
X95784966Y-56893651D02*
X95234000Y-56898000D01*
X103760176Y-52292307D02*
X103207508Y-52249576D01*
X96349168Y-54004387D02*
X95961752Y-53929135D01*
X104611017Y-54676740D02*
X104105618Y-54665017D01*
X102567865Y-49191277D02*
X102039588Y-49347265D01*
X96530870Y-61117223D02*
X96212088Y-61362265D01*
X104132655Y-62341488D02*
X103773033Y-62045206D01*
X100542676Y-48177264D02*
X100542676Y-48177264D01*
X100048055Y-47931087D02*
X99739672Y-47797789D01*
X105335933Y-57317370D02*
X104712172Y-57333630D01*
X95842067Y-59384534D02*
X95291290Y-59483610D01*
X98703538Y-49698000D02*
X98387214Y-49549765D01*
X99854810Y-47801007D02*
X99854810Y-47801007D01*
X99048491Y-63588037D02*
X99048491Y-63588037D01*
D11*
X91345644Y-137734473D02*
G75*
G03X91843771Y-134837256I-1199545J1697672D01*
G01*
X96611745Y-138855629D02*
G75*
G03X97111337Y-135952947I-1201545J1701137D01*
G01*
X89374572Y-130460478D02*
X91859735Y-134856906D01*
X89414410Y-130437478D02*
X92798837Y-128483478D01*
X92798837Y-128483478D02*
X97111337Y-135952947D01*
X96556623Y-138900155D02*
X93140153Y-140872655D01*
X93132359Y-140877155D02*
X91327359Y-137750803D01*
X94489518Y-127564144D02*
X93277082Y-128264144D01*
X93883300Y-127914144D02*
X94939518Y-128343567D01*
X93727082Y-129043567D02*
X93883300Y-127914144D01*
X94939518Y-128343567D02*
X93727082Y-129043567D01*
X234360000Y-100150000D02*
X234360000Y-101550000D01*
X234360000Y-100850000D02*
X235260000Y-100150000D01*
X235260000Y-101550000D02*
X234360000Y-100850000D01*
X235260000Y-100150000D02*
X235260000Y-101550000D01*
X234380000Y-97250000D02*
X234380000Y-98650000D01*
X234380000Y-97950000D02*
X235280000Y-97250000D01*
X235280000Y-98650000D02*
X234380000Y-97950000D01*
X235280000Y-97250000D02*
X235280000Y-98650000D01*
X234160000Y-63100000D02*
X234160000Y-64500000D01*
X234160000Y-63800000D02*
X235060000Y-63100000D01*
X235060000Y-64500000D02*
X234160000Y-63800000D01*
X235060000Y-63100000D02*
X235060000Y-64500000D01*
X234180000Y-60220000D02*
X234180000Y-61620000D01*
X234180000Y-60920000D02*
X235080000Y-60220000D01*
X235080000Y-61620000D02*
X234180000Y-60920000D01*
X235080000Y-60220000D02*
X235080000Y-61620000D01*
X237185001Y-33979999D02*
G75*
G03X234925000Y-32100000I-2070000J-190001D01*
G01*
X240789000Y-29980000D02*
G75*
G03X238525000Y-28096000I-2074000J-190000D01*
G01*
X229900000Y-32050000D02*
X234950000Y-32096000D01*
X229900000Y-32004000D02*
X229900000Y-28096000D01*
X229900000Y-28096000D02*
X238525000Y-28096000D01*
X240800000Y-30050000D02*
X240800000Y-33995000D01*
X240800000Y-34004000D02*
X237190000Y-34004000D01*
X237235001Y-110079999D02*
G75*
G03X234975000Y-108200000I-2070000J-190001D01*
G01*
X240839000Y-106080000D02*
G75*
G03X238575000Y-104196000I-2074000J-190000D01*
G01*
X229950000Y-108150000D02*
X235000000Y-108196000D01*
X229950000Y-108104000D02*
X229950000Y-104196000D01*
X229950000Y-104196000D02*
X238575000Y-104196000D01*
X240850000Y-106150000D02*
X240850000Y-110095000D01*
X240850000Y-110104000D02*
X237240000Y-110104000D01*
X237185001Y-91079999D02*
G75*
G03X234925000Y-89200000I-2070000J-190001D01*
G01*
X240789000Y-87080000D02*
G75*
G03X238525000Y-85196000I-2074000J-190000D01*
G01*
X229900000Y-89150000D02*
X234950000Y-89196000D01*
X229900000Y-89104000D02*
X229900000Y-85196000D01*
X229900000Y-85196000D02*
X238525000Y-85196000D01*
X240800000Y-87150000D02*
X240800000Y-91095000D01*
X240800000Y-91104000D02*
X237190000Y-91104000D01*
X237185001Y-71879999D02*
G75*
G03X234925000Y-70000000I-2070000J-190001D01*
G01*
X240789000Y-67880000D02*
G75*
G03X238525000Y-65996000I-2074000J-190000D01*
G01*
X229900000Y-69950000D02*
X234950000Y-69996000D01*
X229900000Y-69904000D02*
X229900000Y-65996000D01*
X229900000Y-65996000D02*
X238525000Y-65996000D01*
X240800000Y-67950000D02*
X240800000Y-71895000D01*
X240800000Y-71904000D02*
X237190000Y-71904000D01*
X237185001Y-52979999D02*
G75*
G03X234925000Y-51100000I-2070000J-190001D01*
G01*
X240789000Y-48980000D02*
G75*
G03X238525000Y-47096000I-2074000J-190000D01*
G01*
X229900000Y-51050000D02*
X234950000Y-51096000D01*
X229900000Y-51004000D02*
X229900000Y-47096000D01*
X229900000Y-47096000D02*
X238525000Y-47096000D01*
X240800000Y-49050000D02*
X240800000Y-52995000D01*
X240800000Y-53004000D02*
X237190000Y-53004000D01*
X234170000Y-41190000D02*
X234170000Y-42590000D01*
X234170000Y-41890000D02*
X235070000Y-41190000D01*
X235070000Y-42590000D02*
X234170000Y-41890000D01*
X235070000Y-41190000D02*
X235070000Y-42590000D01*
X218185001Y-52979999D02*
G75*
G03X215925000Y-51100000I-2070000J-190001D01*
G01*
X221789000Y-48980000D02*
G75*
G03X219525000Y-47096000I-2074000J-190000D01*
G01*
X210900000Y-51050000D02*
X215950000Y-51096000D01*
X210900000Y-51004000D02*
X210900000Y-47096000D01*
X210900000Y-47096000D02*
X219525000Y-47096000D01*
X221800000Y-49050000D02*
X221800000Y-52995000D01*
X221800000Y-53004000D02*
X218190000Y-53004000D01*
X218185001Y-33979999D02*
G75*
G03X215925000Y-32100000I-2070000J-190001D01*
G01*
X221789000Y-29980000D02*
G75*
G03X219525000Y-28096000I-2074000J-190000D01*
G01*
X210900000Y-32050000D02*
X215950000Y-32096000D01*
X210900000Y-32004000D02*
X210900000Y-28096000D01*
X210900000Y-28096000D02*
X219525000Y-28096000D01*
X221800000Y-30050000D02*
X221800000Y-33995000D01*
X221800000Y-34004000D02*
X218190000Y-34004000D01*
X199185001Y-32479999D02*
G75*
G03X196925000Y-30600000I-2070000J-190001D01*
G01*
X202789000Y-28480000D02*
G75*
G03X200525000Y-26596000I-2074000J-190000D01*
G01*
X191900000Y-30550000D02*
X196950000Y-30596000D01*
X191900000Y-30504000D02*
X191900000Y-26596000D01*
X191900000Y-26596000D02*
X200525000Y-26596000D01*
X202800000Y-28550000D02*
X202800000Y-32495000D01*
X202800000Y-32504000D02*
X199190000Y-32504000D01*
X180085001Y-27679999D02*
G75*
G03X177825000Y-25800000I-2070000J-190001D01*
G01*
X183689000Y-23680000D02*
G75*
G03X181425000Y-21796000I-2074000J-190000D01*
G01*
X172800000Y-25750000D02*
X177850000Y-25796000D01*
X172800000Y-25704000D02*
X172800000Y-21796000D01*
X172800000Y-21796000D02*
X181425000Y-21796000D01*
X183700000Y-23750000D02*
X183700000Y-27695000D01*
X183700000Y-27704000D02*
X180090000Y-27704000D01*
X161085001Y-26289999D02*
G75*
G03X158825000Y-24410000I-2070000J-190001D01*
G01*
X164689000Y-22290000D02*
G75*
G03X162425000Y-20406000I-2074000J-190000D01*
G01*
X153800000Y-24360000D02*
X158850000Y-24406000D01*
X153800000Y-24314000D02*
X153800000Y-20406000D01*
X153800000Y-20406000D02*
X162425000Y-20406000D01*
X164700000Y-22360000D02*
X164700000Y-26305000D01*
X164700000Y-26314000D02*
X161090000Y-26314000D01*
X141985001Y-27679999D02*
G75*
G03X139725000Y-25800000I-2070000J-190001D01*
G01*
X145589000Y-23680000D02*
G75*
G03X143325000Y-21796000I-2074000J-190000D01*
G01*
X134700000Y-25750000D02*
X139750000Y-25796000D01*
X134700000Y-25704000D02*
X134700000Y-21796000D01*
X134700000Y-21796000D02*
X143325000Y-21796000D01*
X145600000Y-23750000D02*
X145600000Y-27695000D01*
X145600000Y-27704000D02*
X141990000Y-27704000D01*
X122975001Y-30079999D02*
G75*
G03X120715000Y-28200000I-2070000J-190001D01*
G01*
X126579000Y-26080000D02*
G75*
G03X124315000Y-24196000I-2074000J-190000D01*
G01*
X115690000Y-28150000D02*
X120740000Y-28196000D01*
X115690000Y-28104000D02*
X115690000Y-24196000D01*
X115690000Y-24196000D02*
X124315000Y-24196000D01*
X126590000Y-26150000D02*
X126590000Y-30095000D01*
X126590000Y-30104000D02*
X122980000Y-30104000D01*
X215200000Y-40160000D02*
X215200000Y-41560000D01*
X215200000Y-40860000D02*
X216100000Y-40160000D01*
X216100000Y-41560000D02*
X215200000Y-40860000D01*
X216100000Y-40160000D02*
X216100000Y-41560000D01*
X196190000Y-36830000D02*
X196190000Y-38230000D01*
X196190000Y-37530000D02*
X197090000Y-36830000D01*
X197090000Y-38230000D02*
X196190000Y-37530000D01*
X197090000Y-36830000D02*
X197090000Y-38230000D01*
X177080000Y-33830000D02*
X177080000Y-35230000D01*
X177080000Y-34530000D02*
X177980000Y-33830000D01*
X177980000Y-35230000D02*
X177080000Y-34530000D01*
X177980000Y-33830000D02*
X177980000Y-35230000D01*
X158070000Y-31220000D02*
X158070000Y-32620000D01*
X158070000Y-31920000D02*
X158970000Y-31220000D01*
X158970000Y-32620000D02*
X158070000Y-31920000D01*
X158970000Y-31220000D02*
X158970000Y-32620000D01*
X149520000Y-29340000D02*
X149520000Y-30740000D01*
X149520000Y-30040000D02*
X150420000Y-29340000D01*
X150420000Y-30740000D02*
X149520000Y-30040000D01*
X150420000Y-29340000D02*
X150420000Y-30740000D01*
X130070000Y-30990000D02*
X130070000Y-32390000D01*
X130070000Y-31690000D02*
X130970000Y-30990000D01*
X130970000Y-32390000D02*
X130070000Y-31690000D01*
X130970000Y-30990000D02*
X130970000Y-32390000D01*
X161500000Y-115100000D02*
X161500000Y-116500000D01*
X161500000Y-115800000D02*
X162400000Y-115100000D01*
X162400000Y-116500000D02*
X161500000Y-115800000D01*
X162400000Y-115100000D02*
X162400000Y-116500000D01*
X142400000Y-115100000D02*
X142400000Y-116500000D01*
X142400000Y-115800000D02*
X143300000Y-115100000D01*
X143300000Y-116500000D02*
X142400000Y-115800000D01*
X143300000Y-115100000D02*
X143300000Y-116500000D01*
X123400000Y-117300000D02*
X123400000Y-118700000D01*
X123400000Y-118000000D02*
X124300000Y-117300000D01*
X124300000Y-118700000D02*
X123400000Y-118000000D01*
X124300000Y-117300000D02*
X124300000Y-118700000D01*
X110156218Y-118516987D02*
X108943782Y-119216987D01*
X109550000Y-118866987D02*
X110606218Y-119296410D01*
X109393782Y-119996410D02*
X109550000Y-118866987D01*
X110606218Y-119296410D02*
X109393782Y-119996410D01*
X105100000Y-88800000D02*
X105100000Y-90200000D01*
X105100000Y-89500000D02*
X106000000Y-88800000D01*
X106000000Y-90200000D02*
X105100000Y-89500000D01*
X106000000Y-88800000D02*
X106000000Y-90200000D01*
X171000000Y-54900000D02*
X171000000Y-56300000D01*
X171000000Y-55600000D02*
X171900000Y-54900000D01*
X171900000Y-56300000D02*
X171000000Y-55600000D01*
X171900000Y-54900000D02*
X171900000Y-56300000D01*
X152000000Y-53500000D02*
X152000000Y-54900000D01*
X152000000Y-54200000D02*
X152900000Y-53500000D01*
X152900000Y-54900000D02*
X152000000Y-54200000D01*
X152900000Y-53500000D02*
X152900000Y-54900000D01*
X133800000Y-55000000D02*
X133800000Y-56400000D01*
X133800000Y-55700000D02*
X134700000Y-55000000D01*
X134700000Y-56400000D02*
X133800000Y-55700000D01*
X134700000Y-55000000D02*
X134700000Y-56400000D01*
X113900000Y-57300000D02*
X113900000Y-58700000D01*
X113900000Y-58000000D02*
X114800000Y-57300000D01*
X114800000Y-58700000D02*
X113900000Y-58000000D01*
X114800000Y-57300000D02*
X114800000Y-58700000D01*
X199185001Y-70379999D02*
G75*
G03X196925000Y-68500000I-2070000J-190001D01*
G01*
X202789000Y-66380000D02*
G75*
G03X200525000Y-64496000I-2074000J-190000D01*
G01*
X191900000Y-68450000D02*
X196950000Y-68496000D01*
X191900000Y-68404000D02*
X191900000Y-64496000D01*
X191900000Y-64496000D02*
X200525000Y-64496000D01*
X202800000Y-66450000D02*
X202800000Y-70395000D01*
X202800000Y-70404000D02*
X199190000Y-70404000D01*
X151485001Y-122829999D02*
G75*
G03X149225000Y-120950000I-2070000J-190001D01*
G01*
X155089000Y-118830000D02*
G75*
G03X152825000Y-116946000I-2074000J-190000D01*
G01*
X144200000Y-120900000D02*
X149250000Y-120946000D01*
X144200000Y-120854000D02*
X144200000Y-116946000D01*
X144200000Y-116946000D02*
X152825000Y-116946000D01*
X155100000Y-118900000D02*
X155100000Y-122845000D01*
X155100000Y-122854000D02*
X151490000Y-122854000D01*
X199185001Y-89579999D02*
G75*
G03X196925000Y-87700000I-2070000J-190001D01*
G01*
X202789000Y-85580000D02*
G75*
G03X200525000Y-83696000I-2074000J-190000D01*
G01*
X191900000Y-87650000D02*
X196950000Y-87696000D01*
X191900000Y-87604000D02*
X191900000Y-83696000D01*
X191900000Y-83696000D02*
X200525000Y-83696000D01*
X202800000Y-85650000D02*
X202800000Y-89595000D01*
X202800000Y-89604000D02*
X199190000Y-89604000D01*
X199185001Y-51479999D02*
G75*
G03X196925000Y-49600000I-2070000J-190001D01*
G01*
X202789000Y-47480000D02*
G75*
G03X200525000Y-45596000I-2074000J-190000D01*
G01*
X191900000Y-49550000D02*
X196950000Y-49596000D01*
X191900000Y-49504000D02*
X191900000Y-45596000D01*
X191900000Y-45596000D02*
X200525000Y-45596000D01*
X202800000Y-47550000D02*
X202800000Y-51495000D01*
X202800000Y-51504000D02*
X199190000Y-51504000D01*
X180085001Y-46679999D02*
G75*
G03X177825000Y-44800000I-2070000J-190001D01*
G01*
X183689000Y-42680000D02*
G75*
G03X181425000Y-40796000I-2074000J-190000D01*
G01*
X172800000Y-44750000D02*
X177850000Y-44796000D01*
X172800000Y-44704000D02*
X172800000Y-40796000D01*
X172800000Y-40796000D02*
X181425000Y-40796000D01*
X183700000Y-42750000D02*
X183700000Y-46695000D01*
X183700000Y-46704000D02*
X180090000Y-46704000D01*
X141985001Y-46679999D02*
G75*
G03X139725000Y-44800000I-2070000J-190001D01*
G01*
X145589000Y-42680000D02*
G75*
G03X143325000Y-40796000I-2074000J-190000D01*
G01*
X134700000Y-44750000D02*
X139750000Y-44796000D01*
X134700000Y-44704000D02*
X134700000Y-40796000D01*
X134700000Y-40796000D02*
X143325000Y-40796000D01*
X145600000Y-42750000D02*
X145600000Y-46695000D01*
X145600000Y-46704000D02*
X141990000Y-46704000D01*
X107039244Y-128692073D02*
G75*
G03X107537371Y-125794856I-1199545J1697672D01*
G01*
X112305345Y-129813229D02*
G75*
G03X112804937Y-126910547I-1201545J1701137D01*
G01*
X105068172Y-121418078D02*
X107553335Y-125814506D01*
X105108010Y-121395078D02*
X108492437Y-119441078D01*
X108492437Y-119441078D02*
X112804937Y-126910547D01*
X112250223Y-129857755D02*
X108833753Y-131830255D01*
X108825959Y-131834755D02*
X107020959Y-128708403D01*
X170585001Y-122829999D02*
G75*
G03X168325000Y-120950000I-2070000J-190001D01*
G01*
X174189000Y-118830000D02*
G75*
G03X171925000Y-116946000I-2074000J-190000D01*
G01*
X163300000Y-120900000D02*
X168350000Y-120946000D01*
X163300000Y-120854000D02*
X163300000Y-116946000D01*
X163300000Y-116946000D02*
X171925000Y-116946000D01*
X174200000Y-118900000D02*
X174200000Y-122845000D01*
X174200000Y-122854000D02*
X170590000Y-122854000D01*
X132485001Y-125079999D02*
G75*
G03X130225000Y-123200000I-2070000J-190001D01*
G01*
X136089000Y-121080000D02*
G75*
G03X133825000Y-119196000I-2074000J-190000D01*
G01*
X125200000Y-123150000D02*
X130250000Y-123196000D01*
X125200000Y-123104000D02*
X125200000Y-119196000D01*
X125200000Y-119196000D02*
X133825000Y-119196000D01*
X136100000Y-121150000D02*
X136100000Y-125095000D01*
X136100000Y-125104000D02*
X132490000Y-125104000D01*
X103885001Y-96579999D02*
G75*
G03X101625000Y-94700000I-2070000J-190001D01*
G01*
X107489000Y-92580000D02*
G75*
G03X105225000Y-90696000I-2074000J-190000D01*
G01*
X96600000Y-94650000D02*
X101650000Y-94696000D01*
X96600000Y-94604000D02*
X96600000Y-90696000D01*
X96600000Y-90696000D02*
X105225000Y-90696000D01*
X107500000Y-92650000D02*
X107500000Y-96595000D01*
X107500000Y-96604000D02*
X103890000Y-96604000D01*
X218235001Y-110079999D02*
G75*
G03X215975000Y-108200000I-2070000J-190001D01*
G01*
X221839000Y-106080000D02*
G75*
G03X219575000Y-104196000I-2074000J-190000D01*
G01*
X210950000Y-108150000D02*
X216000000Y-108196000D01*
X210950000Y-108104000D02*
X210950000Y-104196000D01*
X210950000Y-104196000D02*
X219575000Y-104196000D01*
X221850000Y-106150000D02*
X221850000Y-110095000D01*
X221850000Y-110104000D02*
X218240000Y-110104000D01*
X199185001Y-108579999D02*
G75*
G03X196925000Y-106700000I-2070000J-190001D01*
G01*
X202789000Y-104580000D02*
G75*
G03X200525000Y-102696000I-2074000J-190000D01*
G01*
X191900000Y-106650000D02*
X196950000Y-106696000D01*
X191900000Y-106604000D02*
X191900000Y-102696000D01*
X191900000Y-102696000D02*
X200525000Y-102696000D01*
X202800000Y-104650000D02*
X202800000Y-108595000D01*
X202800000Y-108604000D02*
X199190000Y-108604000D01*
X180085001Y-103879999D02*
G75*
G03X177825000Y-102000000I-2070000J-190001D01*
G01*
X183689000Y-99880000D02*
G75*
G03X181425000Y-97996000I-2074000J-190000D01*
G01*
X172800000Y-101950000D02*
X177850000Y-101996000D01*
X172800000Y-101904000D02*
X172800000Y-97996000D01*
X172800000Y-97996000D02*
X181425000Y-97996000D01*
X183700000Y-99950000D02*
X183700000Y-103895000D01*
X183700000Y-103904000D02*
X180090000Y-103904000D01*
X161085001Y-102479999D02*
G75*
G03X158825000Y-100600000I-2070000J-190001D01*
G01*
X164689000Y-98480000D02*
G75*
G03X162425000Y-96596000I-2074000J-190000D01*
G01*
X153800000Y-100550000D02*
X158850000Y-100596000D01*
X153800000Y-100504000D02*
X153800000Y-96596000D01*
X153800000Y-96596000D02*
X162425000Y-96596000D01*
X164700000Y-98550000D02*
X164700000Y-102495000D01*
X164700000Y-102504000D02*
X161090000Y-102504000D01*
X141985001Y-103879999D02*
G75*
G03X139725000Y-102000000I-2070000J-190001D01*
G01*
X145589000Y-99880000D02*
G75*
G03X143325000Y-97996000I-2074000J-190000D01*
G01*
X134700000Y-101950000D02*
X139750000Y-101996000D01*
X134700000Y-101904000D02*
X134700000Y-97996000D01*
X134700000Y-97996000D02*
X143325000Y-97996000D01*
X145600000Y-99950000D02*
X145600000Y-103895000D01*
X145600000Y-103904000D02*
X141990000Y-103904000D01*
X122985001Y-106179999D02*
G75*
G03X120725000Y-104300000I-2070000J-190001D01*
G01*
X126589000Y-102180000D02*
G75*
G03X124325000Y-100296000I-2074000J-190000D01*
G01*
X115700000Y-104250000D02*
X120750000Y-104296000D01*
X115700000Y-104204000D02*
X115700000Y-100296000D01*
X115700000Y-100296000D02*
X124325000Y-100296000D01*
X126600000Y-102250000D02*
X126600000Y-106195000D01*
X126600000Y-106204000D02*
X122990000Y-106204000D01*
X218185001Y-91079999D02*
G75*
G03X215925000Y-89200000I-2070000J-190001D01*
G01*
X221789000Y-87080000D02*
G75*
G03X219525000Y-85196000I-2074000J-190000D01*
G01*
X210900000Y-89150000D02*
X215950000Y-89196000D01*
X210900000Y-89104000D02*
X210900000Y-85196000D01*
X210900000Y-85196000D02*
X219525000Y-85196000D01*
X221800000Y-87150000D02*
X221800000Y-91095000D01*
X221800000Y-91104000D02*
X218190000Y-91104000D01*
X180085001Y-84779999D02*
G75*
G03X177825000Y-82900000I-2070000J-190001D01*
G01*
X183689000Y-80780000D02*
G75*
G03X181425000Y-78896000I-2074000J-190000D01*
G01*
X172800000Y-82850000D02*
X177850000Y-82896000D01*
X172800000Y-82804000D02*
X172800000Y-78896000D01*
X172800000Y-78896000D02*
X181425000Y-78896000D01*
X183700000Y-80850000D02*
X183700000Y-84795000D01*
X183700000Y-84804000D02*
X180090000Y-84804000D01*
X161085001Y-83479999D02*
G75*
G03X158825000Y-81600000I-2070000J-190001D01*
G01*
X164689000Y-79480000D02*
G75*
G03X162425000Y-77596000I-2074000J-190000D01*
G01*
X153800000Y-81550000D02*
X158850000Y-81596000D01*
X153800000Y-81504000D02*
X153800000Y-77596000D01*
X153800000Y-77596000D02*
X162425000Y-77596000D01*
X164700000Y-79550000D02*
X164700000Y-83495000D01*
X164700000Y-83504000D02*
X161090000Y-83504000D01*
X141985001Y-84779999D02*
G75*
G03X139725000Y-82900000I-2070000J-190001D01*
G01*
X145589000Y-80780000D02*
G75*
G03X143325000Y-78896000I-2074000J-190000D01*
G01*
X134700000Y-82850000D02*
X139750000Y-82896000D01*
X134700000Y-82804000D02*
X134700000Y-78896000D01*
X134700000Y-78896000D02*
X143325000Y-78896000D01*
X145600000Y-80850000D02*
X145600000Y-84795000D01*
X145600000Y-84804000D02*
X141990000Y-84804000D01*
X122985001Y-87179999D02*
G75*
G03X120725000Y-85300000I-2070000J-190001D01*
G01*
X126589000Y-83180000D02*
G75*
G03X124325000Y-81296000I-2074000J-190000D01*
G01*
X115700000Y-85250000D02*
X120750000Y-85296000D01*
X115700000Y-85204000D02*
X115700000Y-81296000D01*
X115700000Y-81296000D02*
X124325000Y-81296000D01*
X126600000Y-83250000D02*
X126600000Y-87195000D01*
X126600000Y-87204000D02*
X122990000Y-87204000D01*
X218185001Y-71879999D02*
G75*
G03X215925000Y-70000000I-2070000J-190001D01*
G01*
X221789000Y-67880000D02*
G75*
G03X219525000Y-65996000I-2074000J-190000D01*
G01*
X210900000Y-69950000D02*
X215950000Y-69996000D01*
X210900000Y-69904000D02*
X210900000Y-65996000D01*
X210900000Y-65996000D02*
X219525000Y-65996000D01*
X221800000Y-67950000D02*
X221800000Y-71895000D01*
X221800000Y-71904000D02*
X218190000Y-71904000D01*
X180085001Y-65679999D02*
G75*
G03X177825000Y-63800000I-2070000J-190001D01*
G01*
X183689000Y-61680000D02*
G75*
G03X181425000Y-59796000I-2074000J-190000D01*
G01*
X172800000Y-63750000D02*
X177850000Y-63796000D01*
X172800000Y-63704000D02*
X172800000Y-59796000D01*
X172800000Y-59796000D02*
X181425000Y-59796000D01*
X183700000Y-61750000D02*
X183700000Y-65695000D01*
X183700000Y-65704000D02*
X180090000Y-65704000D01*
X161085001Y-64379999D02*
G75*
G03X158825000Y-62500000I-2070000J-190001D01*
G01*
X164689000Y-60380000D02*
G75*
G03X162425000Y-58496000I-2074000J-190000D01*
G01*
X153800000Y-62450000D02*
X158850000Y-62496000D01*
X153800000Y-62404000D02*
X153800000Y-58496000D01*
X153800000Y-58496000D02*
X162425000Y-58496000D01*
X164700000Y-60450000D02*
X164700000Y-64395000D01*
X164700000Y-64404000D02*
X161090000Y-64404000D01*
X141985001Y-65779999D02*
G75*
G03X139725000Y-63900000I-2070000J-190001D01*
G01*
X145589000Y-61780000D02*
G75*
G03X143325000Y-59896000I-2074000J-190000D01*
G01*
X134700000Y-63850000D02*
X139750000Y-63896000D01*
X134700000Y-63804000D02*
X134700000Y-59896000D01*
X134700000Y-59896000D02*
X143325000Y-59896000D01*
X145600000Y-61850000D02*
X145600000Y-65795000D01*
X145600000Y-65804000D02*
X141990000Y-65804000D01*
X122985001Y-68179999D02*
G75*
G03X120725000Y-66300000I-2070000J-190001D01*
G01*
X126589000Y-64180000D02*
G75*
G03X124325000Y-62296000I-2074000J-190000D01*
G01*
X115700000Y-66250000D02*
X120750000Y-66296000D01*
X115700000Y-66204000D02*
X115700000Y-62296000D01*
X115700000Y-62296000D02*
X124325000Y-62296000D01*
X126600000Y-64250000D02*
X126600000Y-68195000D01*
X126600000Y-68204000D02*
X122990000Y-68204000D01*
X161085001Y-45289999D02*
G75*
G03X158825000Y-43410000I-2070000J-190001D01*
G01*
X164689000Y-41290000D02*
G75*
G03X162425000Y-39406000I-2074000J-190000D01*
G01*
X153800000Y-43360000D02*
X158850000Y-43406000D01*
X153800000Y-43314000D02*
X153800000Y-39406000D01*
X153800000Y-39406000D02*
X162425000Y-39406000D01*
X164700000Y-41360000D02*
X164700000Y-45305000D01*
X164700000Y-45314000D02*
X161090000Y-45314000D01*
X122985001Y-49079999D02*
G75*
G03X120725000Y-47200000I-2070000J-190001D01*
G01*
X126589000Y-45080000D02*
G75*
G03X124325000Y-43196000I-2074000J-190000D01*
G01*
X115700000Y-47150000D02*
X120750000Y-47196000D01*
X115700000Y-47104000D02*
X115700000Y-43196000D01*
X115700000Y-43196000D02*
X124325000Y-43196000D01*
X126600000Y-45150000D02*
X126600000Y-49095000D01*
X126600000Y-49104000D02*
X122990000Y-49104000D01*
X85400000Y-37400000D02*
X90400000Y-37400000D01*
X90900000Y-39300000D02*
X90400000Y-39300000D01*
X85400000Y-39300000D02*
X85400000Y-37400000D01*
X90400000Y-39300000D02*
X90400000Y-37400000D01*
X84900000Y-39300000D02*
X85400000Y-39300000D01*
X90900000Y-39300000D02*
X90900000Y-51300000D01*
X90900000Y-51300000D02*
X84900000Y-51300000D01*
X84900000Y-51300000D02*
X84900000Y-39300000D01*
X113600000Y-77400000D02*
X111800000Y-77400000D01*
X113600000Y-81500000D02*
X111800000Y-81500000D01*
X111800000Y-81500000D02*
X111800000Y-79700000D01*
X111800000Y-79700000D02*
X113600000Y-79700000D01*
X113600000Y-79700000D02*
X113600000Y-81500000D01*
X113600000Y-79500000D02*
X111800000Y-79500000D01*
X111800000Y-77700000D02*
X113600000Y-77700000D01*
X111800000Y-79500000D02*
X111800000Y-77700000D01*
X113600000Y-79500000D02*
X113600000Y-77700000D01*
X111800000Y-77400000D02*
X111800000Y-75600000D01*
X111800000Y-75600000D02*
X113600000Y-75600000D01*
X113600000Y-77400000D02*
X113600000Y-75600000D01*
D15*
X107448815Y-71635745D02*
X109988815Y-71635745D01*
X94748815Y-41155745D02*
X92208815Y-41155745D01*
D11*
X92208815Y-41155745D02*
X92208815Y-71635745D01*
D15*
X92208815Y-38615745D02*
X92208815Y-71635745D01*
X109988815Y-38615745D02*
X92208815Y-38615745D01*
X92208815Y-71635745D02*
X94748815Y-71635745D01*
X109988815Y-41155745D02*
X107448815Y-41155745D01*
X109988815Y-71635745D02*
X109988815Y-38615745D01*
X107448815Y-41155745D02*
X107448815Y-71635745D01*
X94748815Y-71635745D02*
X94748815Y-41155745D01*
D11*
X109988815Y-71635745D02*
X109988815Y-41155745D01*
X85700000Y-61700000D02*
X85700000Y-59700000D01*
X85700000Y-59700000D02*
X83700000Y-59700000D01*
X83700000Y-59700000D02*
X83700000Y-61700000D01*
X83700000Y-61700000D02*
X85700000Y-61700000D01*
X85900000Y-61700000D02*
X87900000Y-61700000D01*
X85900000Y-59700000D02*
X85900000Y-61700000D01*
X87900000Y-59700000D02*
X85900000Y-59700000D01*
X87900000Y-61700000D02*
X87900000Y-59700000D01*
X87938795Y-57540412D02*
X87938795Y-54538132D01*
X85937275Y-57540412D02*
X87938795Y-57540412D01*
X85937275Y-54538132D02*
X85937275Y-57540412D01*
X87938795Y-54538132D02*
X85937275Y-54538132D01*
X85688795Y-54538132D02*
X83687275Y-54538132D01*
X83687275Y-54538132D02*
X83687275Y-57540412D01*
X83687275Y-57540412D02*
X85688795Y-57540412D01*
X85688795Y-57540412D02*
X85688795Y-54538132D01*
X83200000Y-64700000D02*
X83200000Y-70700000D01*
X86700000Y-70700000D02*
X86700000Y-64700000D01*
X83200000Y-64700000D02*
X83700000Y-64700000D01*
X86700000Y-64700000D02*
X86300000Y-64700000D01*
X86700000Y-70700000D02*
X86300000Y-70700000D01*
X83200000Y-70700000D02*
X83700000Y-70700000D01*
X89889000Y-61843000D02*
X88111000Y-61843000D01*
X89889000Y-59557000D02*
X89889000Y-61843000D01*
X88111000Y-59557000D02*
X89889000Y-59557000D01*
X88111000Y-61843000D02*
X88111000Y-59557000D01*
X190100000Y-59700000D02*
X190100000Y-61100000D01*
X190100000Y-60400000D02*
X191000000Y-59700000D01*
X191000000Y-61100000D02*
X190100000Y-60400000D01*
X191000000Y-59700000D02*
X191000000Y-61100000D01*
X222200000Y-61100000D02*
X222200000Y-62500000D01*
X222200000Y-62500000D02*
X221300000Y-61800000D01*
X221300000Y-61800000D02*
X222200000Y-61100000D01*
X221300000Y-61100000D02*
X221300000Y-62500000D01*
X113900000Y-60400000D02*
X113900000Y-61800000D01*
X113900000Y-61100000D02*
X114800000Y-60400000D01*
X114800000Y-61800000D02*
X113900000Y-61100000D01*
X114800000Y-60400000D02*
X114800000Y-61800000D01*
X134800000Y-58000000D02*
X134800000Y-59400000D01*
X134800000Y-58700000D02*
X135700000Y-58000000D01*
X135700000Y-59400000D02*
X134800000Y-58700000D01*
X135700000Y-58000000D02*
X135700000Y-59400000D01*
X152100000Y-56700000D02*
X152100000Y-58100000D01*
X152100000Y-57400000D02*
X153000000Y-56700000D01*
X153000000Y-58100000D02*
X152100000Y-57400000D01*
X153000000Y-56700000D02*
X153000000Y-58100000D01*
X171900000Y-58000000D02*
X171900000Y-59400000D01*
X171900000Y-59400000D02*
X171000000Y-58700000D01*
X171000000Y-58700000D02*
X171900000Y-58000000D01*
X171000000Y-58000000D02*
X171000000Y-59400000D01*
X190100000Y-62600000D02*
X190100000Y-64000000D01*
X190100000Y-63300000D02*
X191000000Y-62600000D01*
X191000000Y-64000000D02*
X190100000Y-63300000D01*
X191000000Y-62600000D02*
X191000000Y-64000000D01*
X221300000Y-64200000D02*
X221300000Y-65600000D01*
X221300000Y-64900000D02*
X222200000Y-64200000D01*
X222200000Y-65600000D02*
X221300000Y-64900000D01*
X222200000Y-64200000D02*
X222200000Y-65600000D01*
X114800000Y-95300000D02*
X114800000Y-96700000D01*
X114800000Y-96700000D02*
X113900000Y-96000000D01*
X113900000Y-96000000D02*
X114800000Y-95300000D01*
X113900000Y-95300000D02*
X113900000Y-96700000D01*
X133800000Y-93100000D02*
X133800000Y-94500000D01*
X133800000Y-93800000D02*
X134700000Y-93100000D01*
X134700000Y-94500000D02*
X133800000Y-93800000D01*
X134700000Y-93100000D02*
X134700000Y-94500000D01*
X152000000Y-91600000D02*
X152000000Y-93000000D01*
X152000000Y-92300000D02*
X152900000Y-91600000D01*
X152900000Y-93000000D02*
X152000000Y-92300000D01*
X152900000Y-91600000D02*
X152900000Y-93000000D01*
X171900000Y-92900000D02*
X171900000Y-94300000D01*
X171900000Y-94300000D02*
X171000000Y-93600000D01*
X171000000Y-93600000D02*
X171900000Y-92900000D01*
X171000000Y-92900000D02*
X171000000Y-94300000D01*
X191000000Y-97600000D02*
X191000000Y-99000000D01*
X191000000Y-99000000D02*
X190100000Y-98300000D01*
X190100000Y-98300000D02*
X191000000Y-97600000D01*
X190100000Y-97600000D02*
X190100000Y-99000000D01*
X215110000Y-96290000D02*
X215110000Y-97690000D01*
X215110000Y-96990000D02*
X216010000Y-96290000D01*
X216010000Y-97690000D02*
X215110000Y-96990000D01*
X216010000Y-96290000D02*
X216010000Y-97690000D01*
X113900000Y-98400000D02*
X113900000Y-99800000D01*
X113900000Y-99100000D02*
X114800000Y-98400000D01*
X114800000Y-99800000D02*
X113900000Y-99100000D01*
X114800000Y-98400000D02*
X114800000Y-99800000D01*
X135700000Y-96100000D02*
X135700000Y-97500000D01*
X135700000Y-97500000D02*
X134800000Y-96800000D01*
X134800000Y-96800000D02*
X135700000Y-96100000D01*
X134800000Y-96100000D02*
X134800000Y-97500000D01*
X152000000Y-94700000D02*
X152000000Y-96100000D01*
X152000000Y-95400000D02*
X152900000Y-94700000D01*
X152900000Y-96100000D02*
X152000000Y-95400000D01*
X152900000Y-94700000D02*
X152900000Y-96100000D01*
X171900000Y-96100000D02*
X171900000Y-97500000D01*
X171900000Y-97500000D02*
X171000000Y-96800000D01*
X171000000Y-96800000D02*
X171900000Y-96100000D01*
X171000000Y-96100000D02*
X171000000Y-97500000D01*
X190100000Y-100800000D02*
X190100000Y-102200000D01*
X190100000Y-101500000D02*
X191000000Y-100800000D01*
X191000000Y-102200000D02*
X190100000Y-101500000D01*
X191000000Y-100800000D02*
X191000000Y-102200000D01*
X216340000Y-101620000D02*
X216340000Y-103020000D01*
X216340000Y-103020000D02*
X215440000Y-102320000D01*
X215440000Y-102320000D02*
X216340000Y-101620000D01*
X215440000Y-101620000D02*
X215440000Y-103020000D01*
X113833333Y-80261904D02*
X114100000Y-81061904D01*
X114366666Y-80261904D01*
X115090476Y-80985714D02*
X115052380Y-81023809D01*
X114938095Y-81061904D01*
X114861904Y-81061904D01*
X114747619Y-81023809D01*
X114671428Y-80947619D01*
X114633333Y-80871428D01*
X114595238Y-80719047D01*
X114595238Y-80604761D01*
X114633333Y-80452380D01*
X114671428Y-80376190D01*
X114747619Y-80300000D01*
X114861904Y-80261904D01*
X114938095Y-80261904D01*
X115052380Y-80300000D01*
X115090476Y-80338095D01*
X115890476Y-80985714D02*
X115852380Y-81023809D01*
X115738095Y-81061904D01*
X115661904Y-81061904D01*
X115547619Y-81023809D01*
X115471428Y-80947619D01*
X115433333Y-80871428D01*
X115395238Y-80719047D01*
X115395238Y-80604761D01*
X115433333Y-80452380D01*
X115471428Y-80376190D01*
X115547619Y-80300000D01*
X115661904Y-80261904D01*
X115738095Y-80261904D01*
X115852380Y-80300000D01*
X115890476Y-80338095D01*
X114290476Y-76200000D02*
X114214285Y-76161904D01*
X114100000Y-76161904D01*
X113985714Y-76200000D01*
X113909523Y-76276190D01*
X113871428Y-76352380D01*
X113833333Y-76504761D01*
X113833333Y-76619047D01*
X113871428Y-76771428D01*
X113909523Y-76847619D01*
X113985714Y-76923809D01*
X114100000Y-76961904D01*
X114176190Y-76961904D01*
X114290476Y-76923809D01*
X114328571Y-76885714D01*
X114328571Y-76619047D01*
X114176190Y-76619047D01*
X114671428Y-76961904D02*
X114671428Y-76161904D01*
X115128571Y-76961904D01*
X115128571Y-76161904D01*
X115509523Y-76961904D02*
X115509523Y-76161904D01*
X115700000Y-76161904D01*
X115814285Y-76200000D01*
X115890476Y-76276190D01*
X115928571Y-76352380D01*
X115966666Y-76504761D01*
X115966666Y-76619047D01*
X115928571Y-76771428D01*
X115890476Y-76847619D01*
X115814285Y-76923809D01*
X115700000Y-76961904D01*
X115509523Y-76961904D01*
X114385714Y-78961904D02*
X114004761Y-78961904D01*
X114004761Y-78161904D01*
X114652380Y-78542857D02*
X114919047Y-78542857D01*
X115033333Y-78961904D02*
X114652380Y-78961904D01*
X114652380Y-78161904D01*
X115033333Y-78161904D01*
X115376190Y-78961904D02*
X115376190Y-78161904D01*
X115566666Y-78161904D01*
X115680952Y-78200000D01*
X115757142Y-78276190D01*
X115795238Y-78352380D01*
X115833333Y-78504761D01*
X115833333Y-78619047D01*
X115795238Y-78771428D01*
X115757142Y-78847619D01*
X115680952Y-78923809D01*
X115566666Y-78961904D01*
X115376190Y-78961904D01*
X84100076Y-62739639D02*
X84100076Y-61926839D01*
X84409714Y-61926839D01*
X84487123Y-61965544D01*
X84525828Y-62004248D01*
X84564533Y-62081658D01*
X84564533Y-62197772D01*
X84525828Y-62275182D01*
X84487123Y-62313886D01*
X84409714Y-62352591D01*
X84100076Y-62352591D01*
X85338628Y-62739639D02*
X84874171Y-62739639D01*
X85106400Y-62739639D02*
X85106400Y-61926839D01*
X85028990Y-62042953D01*
X84951580Y-62120363D01*
X84874171Y-62159067D01*
X86300076Y-62739639D02*
X86300076Y-61926839D01*
X86609714Y-61926839D01*
X86687123Y-61965544D01*
X86725828Y-62004248D01*
X86764533Y-62081658D01*
X86764533Y-62197772D01*
X86725828Y-62275182D01*
X86687123Y-62313886D01*
X86609714Y-62352591D01*
X86300076Y-62352591D01*
X87074171Y-62004248D02*
X87112876Y-61965544D01*
X87190285Y-61926839D01*
X87383809Y-61926839D01*
X87461219Y-61965544D01*
X87499923Y-62004248D01*
X87538628Y-62081658D01*
X87538628Y-62159067D01*
X87499923Y-62275182D01*
X87035466Y-62739639D01*
X87538628Y-62739639D01*
X87267695Y-56135466D02*
X86880647Y-56406400D01*
X87267695Y-56599923D02*
X86454895Y-56599923D01*
X86454895Y-56290285D01*
X86493600Y-56212876D01*
X86532304Y-56174171D01*
X86609714Y-56135466D01*
X86725828Y-56135466D01*
X86803238Y-56174171D01*
X86841942Y-56212876D01*
X86880647Y-56290285D01*
X86880647Y-56599923D01*
X86532304Y-55825828D02*
X86493600Y-55787123D01*
X86454895Y-55709714D01*
X86454895Y-55516190D01*
X86493600Y-55438780D01*
X86532304Y-55400076D01*
X86609714Y-55361371D01*
X86687123Y-55361371D01*
X86803238Y-55400076D01*
X87267695Y-55864533D01*
X87267695Y-55361371D01*
X85067695Y-56135466D02*
X84680647Y-56406400D01*
X85067695Y-56599923D02*
X84254895Y-56599923D01*
X84254895Y-56290285D01*
X84293600Y-56212876D01*
X84332304Y-56174171D01*
X84409714Y-56135466D01*
X84525828Y-56135466D01*
X84603238Y-56174171D01*
X84641942Y-56212876D01*
X84680647Y-56290285D01*
X84680647Y-56599923D01*
X85067695Y-55361371D02*
X85067695Y-55825828D01*
X85067695Y-55593600D02*
X84254895Y-55593600D01*
X84371009Y-55671009D01*
X84448419Y-55748419D01*
X84487123Y-55825828D01*
X85361904Y-68861904D02*
X84980952Y-69128571D01*
X85361904Y-69319047D02*
X84561904Y-69319047D01*
X84561904Y-69014285D01*
X84600000Y-68938095D01*
X84638095Y-68900000D01*
X84714285Y-68861904D01*
X84828571Y-68861904D01*
X84904761Y-68900000D01*
X84942857Y-68938095D01*
X84980952Y-69014285D01*
X84980952Y-69319047D01*
X84942857Y-68519047D02*
X84942857Y-68252380D01*
X85361904Y-68138095D02*
X85361904Y-68519047D01*
X84561904Y-68519047D01*
X84561904Y-68138095D01*
X85323809Y-67833333D02*
X85361904Y-67719047D01*
X85361904Y-67528571D01*
X85323809Y-67452380D01*
X85285714Y-67414285D01*
X85209523Y-67376190D01*
X85133333Y-67376190D01*
X85057142Y-67414285D01*
X85019047Y-67452380D01*
X84980952Y-67528571D01*
X84942857Y-67680952D01*
X84904761Y-67757142D01*
X84866666Y-67795238D01*
X84790476Y-67833333D01*
X84714285Y-67833333D01*
X84638095Y-67795238D01*
X84600000Y-67757142D01*
X84561904Y-67680952D01*
X84561904Y-67490476D01*
X84600000Y-67376190D01*
X84942857Y-67033333D02*
X84942857Y-66766666D01*
X85361904Y-66652380D02*
X85361904Y-67033333D01*
X84561904Y-67033333D01*
X84561904Y-66652380D01*
X84561904Y-66423809D02*
X84561904Y-65966666D01*
X85361904Y-66195238D02*
X84561904Y-66195238D01*
M02*
