<?xml version="1.0" standalone="no"?>
 <!DOCTYPE svg PUBLIC "-//W3C//DTD SVG 1.1//EN" 
 "http://www.w3.org/Graphics/SVG/1.1/DTD/svg11.dtd"> 
<svg xmlns="http://www.w3.org/2000/svg" version="1.1" 
    width="29.7002cm" height="21.0007cm" viewBox="0 0 116930 82680 ">
<title>SVG Picture created as Lily58_Pro-F_SilkS.svg date 2020/11/24 20:32:45 </title>
  <desc>Picture generated by PCBNEW </desc>
<g style="fill:#000000; fill-opacity:1;stroke:#000000; stroke-opacity:1;
stroke-linecap:round; stroke-linejoin:round; "
 transform="translate(0 0) scale(1 1)">
</g>
<g style="fill:#000000; fill-opacity:0.0; 
stroke:#000000; stroke-width:-0.000393701; stroke-opacity:1; 
stroke-linecap:round; stroke-linejoin:round;">
</g>
<g style="fill:#000000; fill-opacity:0.0; 
stroke:#000000; stroke-width:39.3701; stroke-opacity:1; 
stroke-linecap:round; stroke-linejoin:round;">
</g>
<g style="fill:#000000; fill-opacity:0.0; 
stroke:#000000; stroke-width:59.0551; stroke-opacity:1; 
stroke-linecap:round; stroke-linejoin:round;">
<rect x="69685.9" y="65357.2" width="42519.7" height="12598.4" rx="0" />
</g>
<g style="fill:#000000; fill-opacity:0.0; 
stroke:#000000; stroke-width:39.3701; stroke-opacity:1; 
stroke-linecap:round; stroke-linejoin:round;">
</g>
<g style="fill:#000000; fill-opacity:0.0; 
stroke:#000000; stroke-width:59.0551; stroke-opacity:1; 
stroke-linecap:round; stroke-linejoin:round;">
<rect x="3937.01" y="3937.01" width="109056" height="74806" rx="0" />
</g>
<g style="fill:#000000; fill-opacity:0.0; 
stroke:#000000; stroke-width:39.3701; stroke-opacity:1; 
stroke-linecap:round; stroke-linejoin:round;">
</g>
<g style="fill:#000000; fill-opacity:0.0; 
stroke:#000000; stroke-width:59.0551; stroke-opacity:1; 
stroke-linecap:round; stroke-linejoin:round;">
<rect x="4724.41" y="4724.41" width="107481" height="73231.2" rx="0" />
</g>
<g style="fill:#000000; fill-opacity:0.0; 
stroke:#000000; stroke-width:39.3701; stroke-opacity:1; 
stroke-linecap:round; stroke-linejoin:round;">
</g>
<g style="fill:#000000; fill-opacity:0.0; 
stroke:#000000; stroke-width:59.0551; stroke-opacity:1; 
stroke-linecap:round; stroke-linejoin:round;">
<path d="M23622 4724
L23622 3937
" />
</g>
<g style="fill:#000000; fill-opacity:0.0; 
stroke:#000000; stroke-width:39.3701; stroke-opacity:1; 
stroke-linecap:round; stroke-linejoin:round;">
</g>
<g style="fill:#000000; fill-opacity:0.0; 
stroke:#000000; stroke-width:59.0551; stroke-opacity:1; 
stroke-linecap:round; stroke-linejoin:round;">
<path d="M43307 4724
L43307 3937
" />
</g>
<g style="fill:#000000; fill-opacity:0.0; 
stroke:#000000; stroke-width:39.3701; stroke-opacity:1; 
stroke-linecap:round; stroke-linejoin:round;">
</g>
<g style="fill:#000000; fill-opacity:0.0; 
stroke:#000000; stroke-width:59.0551; stroke-opacity:1; 
stroke-linecap:round; stroke-linejoin:round;">
<path d="M62992 4724
L62992 3937
" />
</g>
<g style="fill:#000000; fill-opacity:0.0; 
stroke:#000000; stroke-width:39.3701; stroke-opacity:1; 
stroke-linecap:round; stroke-linejoin:round;">
</g>
<g style="fill:#000000; fill-opacity:0.0; 
stroke:#000000; stroke-width:59.0551; stroke-opacity:1; 
stroke-linecap:round; stroke-linejoin:round;">
<path d="M82677 4724
L82677 3937
" />
</g>
<g style="fill:#000000; fill-opacity:0.0; 
stroke:#000000; stroke-width:39.3701; stroke-opacity:1; 
stroke-linecap:round; stroke-linejoin:round;">
</g>
<g style="fill:#000000; fill-opacity:0.0; 
stroke:#000000; stroke-width:59.0551; stroke-opacity:1; 
stroke-linecap:round; stroke-linejoin:round;">
<path d="M102362 4724
L102362 3937
" />
</g>
<g style="fill:#000000; fill-opacity:0.0; 
stroke:#000000; stroke-width:39.3701; stroke-opacity:1; 
stroke-linecap:round; stroke-linejoin:round;">
</g>
<g style="fill:#000000; fill-opacity:0.0; 
stroke:#000000; stroke-width:59.0551; stroke-opacity:1; 
stroke-linecap:round; stroke-linejoin:round;">
<path d="M14199 4562
L13906 4562
" />
<path d="M14052 4562
L14052 4050
L14004 4123
L13955 4172
L13906 4196
" />
</g>
<g style="fill:#000000; fill-opacity:0.0; 
stroke:#000000; stroke-width:39.3701; stroke-opacity:1; 
stroke-linecap:round; stroke-linejoin:round;">
</g>
<g style="fill:#000000; fill-opacity:0.0; 
stroke:#000000; stroke-width:59.0551; stroke-opacity:1; 
stroke-linecap:round; stroke-linejoin:round;">
<path d="M33591 4099
L33615 4074
L33664 4050
L33786 4050
L33835 4074
L33859 4099
L33884 4147
L33884 4196
L33859 4269
L33567 4562
L33884 4562
" />
</g>
<g style="fill:#000000; fill-opacity:0.0; 
stroke:#000000; stroke-width:39.3701; stroke-opacity:1; 
stroke-linecap:round; stroke-linejoin:round;">
</g>
<g style="fill:#000000; fill-opacity:0.0; 
stroke:#000000; stroke-width:59.0551; stroke-opacity:1; 
stroke-linecap:round; stroke-linejoin:round;">
<path d="M53252 4050
L53569 4050
L53398 4245
L53471 4245
L53520 4269
L53544 4294
L53569 4342
L53569 4464
L53544 4513
L53520 4537
L53471 4562
L53325 4562
L53276 4537
L53252 4513
" />
</g>
<g style="fill:#000000; fill-opacity:0.0; 
stroke:#000000; stroke-width:39.3701; stroke-opacity:1; 
stroke-linecap:round; stroke-linejoin:round;">
</g>
<g style="fill:#000000; fill-opacity:0.0; 
stroke:#000000; stroke-width:59.0551; stroke-opacity:1; 
stroke-linecap:round; stroke-linejoin:round;">
<path d="M73205 4221
L73205 4562
" />
<path d="M73083 4026
L72961 4391
L73278 4391
" />
</g>
<g style="fill:#000000; fill-opacity:0.0; 
stroke:#000000; stroke-width:39.3701; stroke-opacity:1; 
stroke-linecap:round; stroke-linejoin:round;">
</g>
<g style="fill:#000000; fill-opacity:0.0; 
stroke:#000000; stroke-width:59.0551; stroke-opacity:1; 
stroke-linecap:round; stroke-linejoin:round;">
<path d="M92914 4050
L92671 4050
L92646 4294
L92671 4269
L92719 4245
L92841 4245
L92890 4269
L92914 4294
L92939 4342
L92939 4464
L92914 4513
L92890 4537
L92841 4562
L92719 4562
L92671 4537
L92646 4513
" />
</g>
<g style="fill:#000000; fill-opacity:0.0; 
stroke:#000000; stroke-width:39.3701; stroke-opacity:1; 
stroke-linecap:round; stroke-linejoin:round;">
</g>
<g style="fill:#000000; fill-opacity:0.0; 
stroke:#000000; stroke-width:59.0551; stroke-opacity:1; 
stroke-linecap:round; stroke-linejoin:round;">
<path d="M112575 4050
L112477 4050
L112429 4074
L112404 4099
L112356 4172
L112331 4269
L112331 4464
L112356 4513
L112380 4537
L112429 4562
L112526 4562
L112575 4537
L112599 4513
L112624 4464
L112624 4342
L112599 4294
L112575 4269
L112526 4245
L112429 4245
L112380 4269
L112356 4294
L112331 4342
" />
</g>
<g style="fill:#000000; fill-opacity:0.0; 
stroke:#000000; stroke-width:39.3701; stroke-opacity:1; 
stroke-linecap:round; stroke-linejoin:round;">
</g>
<g style="fill:#000000; fill-opacity:0.0; 
stroke:#000000; stroke-width:59.0551; stroke-opacity:1; 
stroke-linecap:round; stroke-linejoin:round;">
<path d="M23622 77955
L23622 78742
" />
</g>
<g style="fill:#000000; fill-opacity:0.0; 
stroke:#000000; stroke-width:39.3701; stroke-opacity:1; 
stroke-linecap:round; stroke-linejoin:round;">
</g>
<g style="fill:#000000; fill-opacity:0.0; 
stroke:#000000; stroke-width:59.0551; stroke-opacity:1; 
stroke-linecap:round; stroke-linejoin:round;">
<path d="M43307 77955
L43307 78742
" />
</g>
<g style="fill:#000000; fill-opacity:0.0; 
stroke:#000000; stroke-width:39.3701; stroke-opacity:1; 
stroke-linecap:round; stroke-linejoin:round;">
</g>
<g style="fill:#000000; fill-opacity:0.0; 
stroke:#000000; stroke-width:59.0551; stroke-opacity:1; 
stroke-linecap:round; stroke-linejoin:round;">
<path d="M62992 77955
L62992 78742
" />
</g>
<g style="fill:#000000; fill-opacity:0.0; 
stroke:#000000; stroke-width:39.3701; stroke-opacity:1; 
stroke-linecap:round; stroke-linejoin:round;">
</g>
<g style="fill:#000000; fill-opacity:0.0; 
stroke:#000000; stroke-width:59.0551; stroke-opacity:1; 
stroke-linecap:round; stroke-linejoin:round;">
<path d="M82677 77955
L82677 78742
" />
</g>
<g style="fill:#000000; fill-opacity:0.0; 
stroke:#000000; stroke-width:39.3701; stroke-opacity:1; 
stroke-linecap:round; stroke-linejoin:round;">
</g>
<g style="fill:#000000; fill-opacity:0.0; 
stroke:#000000; stroke-width:59.0551; stroke-opacity:1; 
stroke-linecap:round; stroke-linejoin:round;">
<path d="M102362 77955
L102362 78742
" />
</g>
<g style="fill:#000000; fill-opacity:0.0; 
stroke:#000000; stroke-width:39.3701; stroke-opacity:1; 
stroke-linecap:round; stroke-linejoin:round;">
</g>
<g style="fill:#000000; fill-opacity:0.0; 
stroke:#000000; stroke-width:59.0551; stroke-opacity:1; 
stroke-linecap:round; stroke-linejoin:round;">
<path d="M14199 78580
L13906 78580
" />
<path d="M14052 78580
L14052 78069
L14004 78142
L13955 78190
L13906 78215
" />
</g>
<g style="fill:#000000; fill-opacity:0.0; 
stroke:#000000; stroke-width:39.3701; stroke-opacity:1; 
stroke-linecap:round; stroke-linejoin:round;">
</g>
<g style="fill:#000000; fill-opacity:0.0; 
stroke:#000000; stroke-width:59.0551; stroke-opacity:1; 
stroke-linecap:round; stroke-linejoin:round;">
<path d="M33591 78117
L33615 78093
L33664 78069
L33786 78069
L33835 78093
L33859 78117
L33884 78166
L33884 78215
L33859 78288
L33567 78580
L33884 78580
" />
</g>
<g style="fill:#000000; fill-opacity:0.0; 
stroke:#000000; stroke-width:39.3701; stroke-opacity:1; 
stroke-linecap:round; stroke-linejoin:round;">
</g>
<g style="fill:#000000; fill-opacity:0.0; 
stroke:#000000; stroke-width:59.0551; stroke-opacity:1; 
stroke-linecap:round; stroke-linejoin:round;">
<path d="M53252 78069
L53569 78069
L53398 78263
L53471 78263
L53520 78288
L53544 78312
L53569 78361
L53569 78483
L53544 78532
L53520 78556
L53471 78580
L53325 78580
L53276 78556
L53252 78532
" />
</g>
<g style="fill:#000000; fill-opacity:0.0; 
stroke:#000000; stroke-width:39.3701; stroke-opacity:1; 
stroke-linecap:round; stroke-linejoin:round;">
</g>
<g style="fill:#000000; fill-opacity:0.0; 
stroke:#000000; stroke-width:59.0551; stroke-opacity:1; 
stroke-linecap:round; stroke-linejoin:round;">
<path d="M73205 78239
L73205 78580
" />
<path d="M73083 78044
L72961 78410
L73278 78410
" />
</g>
<g style="fill:#000000; fill-opacity:0.0; 
stroke:#000000; stroke-width:39.3701; stroke-opacity:1; 
stroke-linecap:round; stroke-linejoin:round;">
</g>
<g style="fill:#000000; fill-opacity:0.0; 
stroke:#000000; stroke-width:59.0551; stroke-opacity:1; 
stroke-linecap:round; stroke-linejoin:round;">
<path d="M92914 78069
L92671 78069
L92646 78312
L92671 78288
L92719 78263
L92841 78263
L92890 78288
L92914 78312
L92939 78361
L92939 78483
L92914 78532
L92890 78556
L92841 78580
L92719 78580
L92671 78556
L92646 78532
" />
</g>
<g style="fill:#000000; fill-opacity:0.0; 
stroke:#000000; stroke-width:39.3701; stroke-opacity:1; 
stroke-linecap:round; stroke-linejoin:round;">
</g>
<g style="fill:#000000; fill-opacity:0.0; 
stroke:#000000; stroke-width:59.0551; stroke-opacity:1; 
stroke-linecap:round; stroke-linejoin:round;">
<path d="M112575 78069
L112477 78069
L112429 78093
L112404 78117
L112356 78190
L112331 78288
L112331 78483
L112356 78532
L112380 78556
L112429 78580
L112526 78580
L112575 78556
L112599 78532
L112624 78483
L112624 78361
L112599 78312
L112575 78288
L112526 78263
L112429 78263
L112380 78288
L112356 78312
L112331 78361
" />
</g>
<g style="fill:#000000; fill-opacity:0.0; 
stroke:#000000; stroke-width:39.3701; stroke-opacity:1; 
stroke-linecap:round; stroke-linejoin:round;">
</g>
<g style="fill:#000000; fill-opacity:0.0; 
stroke:#000000; stroke-width:59.0551; stroke-opacity:1; 
stroke-linecap:round; stroke-linejoin:round;">
<path d="M3937 23622
L4724 23622
" />
</g>
<g style="fill:#000000; fill-opacity:0.0; 
stroke:#000000; stroke-width:39.3701; stroke-opacity:1; 
stroke-linecap:round; stroke-linejoin:round;">
</g>
<g style="fill:#000000; fill-opacity:0.0; 
stroke:#000000; stroke-width:59.0551; stroke-opacity:1; 
stroke-linecap:round; stroke-linejoin:round;">
<path d="M3937 43307
L4724 43307
" />
</g>
<g style="fill:#000000; fill-opacity:0.0; 
stroke:#000000; stroke-width:39.3701; stroke-opacity:1; 
stroke-linecap:round; stroke-linejoin:round;">
</g>
<g style="fill:#000000; fill-opacity:0.0; 
stroke:#000000; stroke-width:59.0551; stroke-opacity:1; 
stroke-linecap:round; stroke-linejoin:round;">
<path d="M3937 62992
L4724 62992
" />
</g>
<g style="fill:#000000; fill-opacity:0.0; 
stroke:#000000; stroke-width:39.3701; stroke-opacity:1; 
stroke-linecap:round; stroke-linejoin:round;">
</g>
<g style="fill:#000000; fill-opacity:0.0; 
stroke:#000000; stroke-width:59.0551; stroke-opacity:1; 
stroke-linecap:round; stroke-linejoin:round;">
<path d="M4208 13864
L4452 13864
" />
<path d="M4160 14011
L4330 13499
L4501 14011
" />
</g>
<g style="fill:#000000; fill-opacity:0.0; 
stroke:#000000; stroke-width:39.3701; stroke-opacity:1; 
stroke-linecap:round; stroke-linejoin:round;">
</g>
<g style="fill:#000000; fill-opacity:0.0; 
stroke:#000000; stroke-width:59.0551; stroke-opacity:1; 
stroke-linecap:round; stroke-linejoin:round;">
<path d="M4367 33428
L4440 33452
L4464 33476
L4489 33525
L4489 33598
L4464 33647
L4440 33671
L4391 33696
L4196 33696
L4196 33184
L4367 33184
L4416 33208
L4440 33233
L4464 33281
L4464 33330
L4440 33379
L4416 33403
L4367 33428
L4196 33428
" />
</g>
<g style="fill:#000000; fill-opacity:0.0; 
stroke:#000000; stroke-width:39.3701; stroke-opacity:1; 
stroke-linecap:round; stroke-linejoin:round;">
</g>
<g style="fill:#000000; fill-opacity:0.0; 
stroke:#000000; stroke-width:59.0551; stroke-opacity:1; 
stroke-linecap:round; stroke-linejoin:round;">
<path d="M4489 53332
L4464 53356
L4391 53381
L4342 53381
L4269 53356
L4221 53308
L4196 53259
L4172 53161
L4172 53088
L4196 52991
L4221 52942
L4269 52893
L4342 52869
L4391 52869
L4464 52893
L4489 52918
" />
</g>
<g style="fill:#000000; fill-opacity:0.0; 
stroke:#000000; stroke-width:39.3701; stroke-opacity:1; 
stroke-linecap:round; stroke-linejoin:round;">
</g>
<g style="fill:#000000; fill-opacity:0.0; 
stroke:#000000; stroke-width:59.0551; stroke-opacity:1; 
stroke-linecap:round; stroke-linejoin:round;">
<path d="M4196 73066
L4196 72554
L4318 72554
L4391 72578
L4440 72627
L4464 72676
L4489 72773
L4489 72846
L4464 72944
L4440 72993
L4391 73041
L4318 73066
L4196 73066
" />
</g>
<g style="fill:#000000; fill-opacity:0.0; 
stroke:#000000; stroke-width:39.3701; stroke-opacity:1; 
stroke-linecap:round; stroke-linejoin:round;">
</g>
<g style="fill:#000000; fill-opacity:0.0; 
stroke:#000000; stroke-width:59.0551; stroke-opacity:1; 
stroke-linecap:round; stroke-linejoin:round;">
<path d="M112992 23622
L112205 23622
" />
</g>
<g style="fill:#000000; fill-opacity:0.0; 
stroke:#000000; stroke-width:39.3701; stroke-opacity:1; 
stroke-linecap:round; stroke-linejoin:round;">
</g>
<g style="fill:#000000; fill-opacity:0.0; 
stroke:#000000; stroke-width:59.0551; stroke-opacity:1; 
stroke-linecap:round; stroke-linejoin:round;">
<path d="M112992 43307
L112205 43307
" />
</g>
<g style="fill:#000000; fill-opacity:0.0; 
stroke:#000000; stroke-width:39.3701; stroke-opacity:1; 
stroke-linecap:round; stroke-linejoin:round;">
</g>
<g style="fill:#000000; fill-opacity:0.0; 
stroke:#000000; stroke-width:59.0551; stroke-opacity:1; 
stroke-linecap:round; stroke-linejoin:round;">
<path d="M112992 62992
L112205 62992
" />
</g>
<g style="fill:#000000; fill-opacity:0.0; 
stroke:#000000; stroke-width:39.3701; stroke-opacity:1; 
stroke-linecap:round; stroke-linejoin:round;">
</g>
<g style="fill:#000000; fill-opacity:0.0; 
stroke:#000000; stroke-width:59.0551; stroke-opacity:1; 
stroke-linecap:round; stroke-linejoin:round;">
<path d="M112477 13864
L112721 13864
" />
<path d="M112428 14011
L112599 13499
L112769 14011
" />
</g>
<g style="fill:#000000; fill-opacity:0.0; 
stroke:#000000; stroke-width:39.3701; stroke-opacity:1; 
stroke-linecap:round; stroke-linejoin:round;">
</g>
<g style="fill:#000000; fill-opacity:0.0; 
stroke:#000000; stroke-width:59.0551; stroke-opacity:1; 
stroke-linecap:round; stroke-linejoin:round;">
<path d="M112635 33428
L112708 33452
L112733 33476
L112757 33525
L112757 33598
L112733 33647
L112708 33671
L112660 33696
L112465 33696
L112465 33184
L112635 33184
L112684 33208
L112708 33233
L112733 33281
L112733 33330
L112708 33379
L112684 33403
L112635 33428
L112465 33428
" />
</g>
<g style="fill:#000000; fill-opacity:0.0; 
stroke:#000000; stroke-width:39.3701; stroke-opacity:1; 
stroke-linecap:round; stroke-linejoin:round;">
</g>
<g style="fill:#000000; fill-opacity:0.0; 
stroke:#000000; stroke-width:59.0551; stroke-opacity:1; 
stroke-linecap:round; stroke-linejoin:round;">
<path d="M112757 53332
L112733 53356
L112660 53381
L112611 53381
L112538 53356
L112489 53308
L112465 53259
L112440 53161
L112440 53088
L112465 52991
L112489 52942
L112538 52893
L112611 52869
L112660 52869
L112733 52893
L112757 52918
" />
</g>
<g style="fill:#000000; fill-opacity:0.0; 
stroke:#000000; stroke-width:39.3701; stroke-opacity:1; 
stroke-linecap:round; stroke-linejoin:round;">
</g>
<g style="fill:#000000; fill-opacity:0.0; 
stroke:#000000; stroke-width:59.0551; stroke-opacity:1; 
stroke-linecap:round; stroke-linejoin:round;">
<path d="M112465 73066
L112465 72554
L112587 72554
L112660 72578
L112708 72627
L112733 72676
L112757 72773
L112757 72846
L112733 72944
L112708 72993
L112660 73041
L112587 73066
L112465 73066
" />
</g>
<g style="fill:#000000; fill-opacity:0.0; 
stroke:#000000; stroke-width:39.3701; stroke-opacity:1; 
stroke-linecap:round; stroke-linejoin:round;">
</g>
<g style="fill:#000000; fill-opacity:0.0; 
stroke:#000000; stroke-width:59.0551; stroke-opacity:1; 
stroke-linecap:round; stroke-linejoin:round;">
<path d="M78911 76293
L78911 75703
L79051 75703
L79136 75731
L79192 75787
L79220 75843
L79248 75956
L79248 76040
L79220 76153
L79192 76209
L79136 76265
L79051 76293
L78911 76293
" />
<path d="M79754 76293
L79754 75984
L79726 75928
L79670 75899
L79557 75899
L79501 75928
" />
<path d="M79754 76265
L79698 76293
L79557 76293
L79501 76265
L79473 76209
L79473 76153
L79501 76096
L79557 76068
L79698 76068
L79754 76040
" />
<path d="M79951 75899
L80176 75899
" />
<path d="M80036 75703
L80036 76209
L80064 76265
L80120 76293
L80176 76293
" />
<path d="M80598 76265
L80542 76293
L80429 76293
L80373 76265
L80345 76209
L80345 75984
L80373 75928
L80429 75899
L80542 75899
L80598 75928
L80626 75984
L80626 76040
L80345 76096
" />
<path d="M80879 76237
L80907 76265
L80879 76293
L80851 76265
L80879 76237
L80879 76293
" />
<path d="M80879 75928
L80907 75956
L80879 75984
L80851 75956
L80879 75928
L80879 75984
" />
</g>
<g style="fill:#000000; fill-opacity:0.0; 
stroke:#000000; stroke-width:39.3701; stroke-opacity:1; 
stroke-linecap:round; stroke-linejoin:round;">
</g>
<g style="fill:#000000; fill-opacity:0.0; 
stroke:#000000; stroke-width:59.0551; stroke-opacity:1; 
stroke-linecap:round; stroke-linejoin:round;">
<path d="M69685 76577
L112205 76577
" />
</g>
<g style="fill:#000000; fill-opacity:0.0; 
stroke:#000000; stroke-width:39.3701; stroke-opacity:1; 
stroke-linecap:round; stroke-linejoin:round;">
</g>
<g style="fill:#000000; fill-opacity:0.0; 
stroke:#000000; stroke-width:59.0551; stroke-opacity:1; 
stroke-linecap:round; stroke-linejoin:round;">
<path d="M70249 77395
L70249 76805
" />
<path d="M70587 77395
L70334 77058
" />
<path d="M70587 76805
L70249 77142
" />
<path d="M70840 77395
L70840 77002
" />
<path d="M70840 76805
L70812 76833
L70840 76861
L70868 76833
L70840 76805
L70840 76861
" />
<path d="M71458 77339
L71430 77367
L71346 77395
L71290 77395
L71205 77367
L71149 77311
L71121 77255
L71093 77142
L71093 77058
L71121 76946
L71149 76889
L71205 76833
L71290 76805
L71346 76805
L71430 76833
L71458 76861
" />
<path d="M71965 77395
L71965 77086
L71937 77030
L71880 77002
L71768 77002
L71712 77030
" />
<path d="M71965 77367
L71908 77395
L71768 77395
L71712 77367
L71683 77311
L71683 77255
L71712 77199
L71768 77171
L71908 77171
L71965 77142
" />
<path d="M72499 77395
L72499 76805
" />
<path d="M72499 77367
L72443 77395
L72330 77395
L72274 77367
L72246 77339
L72218 77283
L72218 77114
L72246 77058
L72274 77030
L72330 77002
L72443 77002
L72499 77030
" />
<path d="M73230 77086
L73427 77086
" />
<path d="M73511 77395
L73230 77395
L73230 76805
L73511 76805
" />
<path d="M73764 77339
L73793 77367
L73764 77395
L73736 77367
L73764 77339
L73764 77395
" />
<path d="M74046 77395
L74046 76805
L74186 76805
L74271 76833
L74327 76889
L74355 76946
L74383 77058
L74383 77142
L74355 77255
L74327 77311
L74271 77367
L74186 77395
L74046 77395
" />
<path d="M74636 77339
L74664 77367
L74636 77395
L74608 77367
L74636 77339
L74636 77395
" />
<path d="M74889 77227
L75171 77227
" />
<path d="M74833 77395
L75030 76805
L75227 77395
" />
<path d="M75424 77339
L75452 77367
L75424 77395
L75395 77367
L75424 77339
L75424 77395
" />
<path d="M76605 77395
L76605 76805
" />
<path d="M76661 77171
L76830 77395
" />
<path d="M76830 77002
L76605 77227
" />
<path d="M77083 77395
L77083 77002
" />
<path d="M77083 76805
L77055 76833
L77083 76861
L77111 76833
L77083 76805
L77083 76861
" />
<path d="M77617 77367
L77561 77395
L77448 77395
L77392 77367
L77364 77339
L77336 77283
L77336 77114
L77364 77058
L77392 77030
L77448 77002
L77561 77002
L77617 77030
" />
<path d="M78123 77395
L78123 77086
L78095 77030
L78039 77002
L77926 77002
L77870 77030
" />
<path d="M78123 77367
L78067 77395
L77926 77395
L77870 77367
L77842 77311
L77842 77255
L77870 77199
L77926 77171
L78067 77171
L78123 77142
" />
<path d="M78658 77395
L78658 76805
" />
<path d="M78658 77367
L78601 77395
L78489 77395
L78433 77367
L78404 77339
L78376 77283
L78376 77114
L78404 77058
L78433 77030
L78489 77002
L78601 77002
L78658 77030
" />
<path d="M79557 77620
L79529 77592
L79473 77508
L79445 77452
L79417 77367
L79389 77227
L79389 77114
L79417 76974
L79445 76889
L79473 76833
L79529 76749
L79557 76721
" />
<path d="M80064 76805
L79782 76805
L79754 77086
L79782 77058
L79839 77030
L79979 77030
L80036 77058
L80064 77086
L80092 77142
L80092 77283
L80064 77339
L80036 77367
L79979 77395
L79839 77395
L79782 77367
L79754 77339
" />
<path d="M80345 77339
L80373 77367
L80345 77395
L80317 77367
L80345 77339
L80345 77395
" />
<path d="M80935 77395
L80598 77395
" />
<path d="M80767 77395
L80767 76805
L80710 76889
L80654 76946
L80598 76974
" />
<path d="M81188 77339
L81217 77367
L81188 77395
L81160 77367
L81188 77339
L81188 77395
" />
<path d="M81723 77002
L81723 77395
" />
<path d="M81582 76777
L81442 77199
L81807 77199
" />
<path d="M81976 77620
L82004 77592
L82060 77508
L82088 77452
L82117 77367
L82145 77227
L82145 77114
L82117 76974
L82088 76889
L82060 76833
L82004 76749
L81976 76721
" />
<path d="M82426 77171
L82876 77171
" />
<path d="M83466 77395
L83129 77395
" />
<path d="M83298 77395
L83298 76805
L83241 76889
L83185 76946
L83129 76974
" />
</g>
<g style="fill:#000000; fill-opacity:0.0; 
stroke:#000000; stroke-width:39.3701; stroke-opacity:1; 
stroke-linecap:round; stroke-linejoin:round;">
</g>
<g style="fill:#000000; fill-opacity:0.0; 
stroke:#000000; stroke-width:59.0551; stroke-opacity:1; 
stroke-linecap:round; stroke-linejoin:round;">
<path d="M69685 75396
L112205 75396
" />
</g>
<g style="fill:#000000; fill-opacity:0.0; 
stroke:#000000; stroke-width:39.3701; stroke-opacity:1; 
stroke-linecap:round; stroke-linejoin:round;">
</g>
<g style="fill:#000000; fill-opacity:0.0; 
stroke:#000000; stroke-width:118.11; stroke-opacity:1; 
stroke-linecap:round; stroke-linejoin:round;">
<path d="M104099 76293
L103902 76012
" />
<path d="M103761 76293
L103761 75703
L103986 75703
L104042 75731
L104070 75759
L104099 75815
L104099 75899
L104070 75956
L104042 75984
L103986 76012
L103761 76012
" />
<path d="M104577 76265
L104520 76293
L104408 76293
L104352 76265
L104323 76209
L104323 75984
L104352 75928
L104408 75899
L104520 75899
L104577 75928
L104605 75984
L104605 76040
L104323 76096
" />
<path d="M104802 75899
L104942 76293
L105083 75899
" />
<path d="M105308 76237
L105336 76265
L105308 76293
L105280 76265
L105308 76237
L105308 76293
" />
<path d="M105308 75928
L105336 75956
L105308 75984
L105280 75956
L105308 75928
L105308 75984
" />
</g>
<g style="fill:#000000; fill-opacity:0.0; 
stroke:#000000; stroke-width:39.3701; stroke-opacity:1; 
stroke-linecap:round; stroke-linejoin:round;">
</g>
<g style="fill:#000000; fill-opacity:0.0; 
stroke:#000000; stroke-width:59.0551; stroke-opacity:1; 
stroke-linecap:round; stroke-linejoin:round;">
<path d="M70221 76265
L70305 76293
L70446 76293
L70502 76265
L70530 76237
L70559 76181
L70559 76124
L70530 76068
L70502 76040
L70446 76012
L70334 75984
L70277 75956
L70249 75928
L70221 75871
L70221 75815
L70249 75759
L70277 75731
L70334 75703
L70474 75703
L70559 75731
" />
<path d="M70812 76293
L70812 75899
" />
<path d="M70812 75703
L70784 75731
L70812 75759
L70840 75731
L70812 75703
L70812 75759
" />
<path d="M71037 75899
L71346 75899
L71037 76293
L71346 76293
" />
<path d="M71796 76265
L71740 76293
L71627 76293
L71571 76265
L71543 76209
L71543 75984
L71571 75928
L71627 75899
L71740 75899
L71796 75928
L71824 75984
L71824 76040
L71543 76096
" />
<path d="M72077 76237
L72105 76265
L72077 76293
L72049 76265
L72077 76237
L72077 76293
" />
<path d="M72077 75928
L72105 75956
L72077 75984
L72049 75956
L72077 75928
L72077 75984
" />
<path d="M72780 76124
L73061 76124
" />
<path d="M72724 76293
L72921 75703
L73118 76293
" />
<path d="M73568 75899
L73568 76293
" />
<path d="M73427 75674
L73286 76096
L73652 76096
" />
</g>
<g style="fill:#000000; fill-opacity:0.0; 
stroke:#000000; stroke-width:39.3701; stroke-opacity:1; 
stroke-linecap:round; stroke-linejoin:round;">
</g>
<g style="fill:#000000; fill-opacity:0.0; 
stroke:#000000; stroke-width:59.0551; stroke-opacity:1; 
stroke-linecap:round; stroke-linejoin:round;">
<path d="M103714 77395
L103714 76805
" />
<path d="M104248 77395
L104248 76805
" />
<path d="M104248 77367
L104192 77395
L104079 77395
L104023 77367
L103995 77339
L103967 77283
L103967 77114
L103995 77058
L104023 77030
L104079 77002
L104192 77002
L104248 77030
" />
<path d="M104529 77339
L104557 77367
L104529 77395
L104501 77367
L104529 77339
L104529 77395
" />
<path d="M104529 77030
L104557 77058
L104529 77086
L104501 77058
L104529 77030
L104529 77086
" />
<path d="M105570 77395
L105232 77395
" />
<path d="M105401 77395
L105401 76805
L105345 76889
L105289 76946
L105232 76974
" />
<path d="M106245 76777
L105739 77536
" />
<path d="M106751 77395
L106413 77395
" />
<path d="M106582 77395
L106582 76805
L106526 76889
L106470 76946
L106413 76974
" />
</g>
<g style="fill:#000000; fill-opacity:0.0; 
stroke:#000000; stroke-width:39.3701; stroke-opacity:1; 
stroke-linecap:round; stroke-linejoin:round;">
</g>
<g style="fill:#000000; fill-opacity:0.0; 
stroke:#000000; stroke-width:59.0551; stroke-opacity:1; 
stroke-linecap:round; stroke-linejoin:round;">
<path d="M69685 73821
L112205 73821
" />
</g>
<g style="fill:#000000; fill-opacity:0.0; 
stroke:#000000; stroke-width:39.3701; stroke-opacity:1; 
stroke-linecap:round; stroke-linejoin:round;">
</g>
<g style="fill:#000000; fill-opacity:0.0; 
stroke:#000000; stroke-width:157.48; stroke-opacity:1; 
stroke-linecap:round; stroke-linejoin:round;">
<path d="M70360 74099
L70810 74099
" />
<path d="M70486 74886
L70585 74099
" />
<path d="M70974 74886
L71039 74361
" />
<path d="M71072 74099
L71030 74136
L71063 74174
L71105 74136
L71072 74099
L71063 74174
" />
<path d="M71302 74361
L71602 74361
" />
<path d="M71447 74099
L71363 74774
L71391 74849
L71461 74886
L71536 74886
" />
<path d="M71911 74886
L71841 74849
L71813 74774
L71897 74099
" />
<path d="M72516 74849
L72436 74886
L72286 74886
L72216 74849
L72187 74774
L72225 74474
L72272 74399
L72352 74361
L72501 74361
L72572 74399
L72600 74474
L72591 74549
L72206 74624
" />
<path d="M72895 74811
L72928 74849
L72886 74886
L72853 74849
L72895 74811
L72886 74886
" />
<path d="M72947 74399
L72980 74436
L72937 74474
L72905 74436
L72947 74399
L72937 74474
" />
</g>
<g style="fill:#000000; fill-opacity:0.0; 
stroke:#000000; stroke-width:39.3701; stroke-opacity:1; 
stroke-linecap:round; stroke-linejoin:round;">
</g>
<g style="fill:#000000; fill-opacity:0.0; 
stroke:#000000; stroke-width:59.0551; stroke-opacity:1; 
stroke-linecap:round; stroke-linejoin:round;">
<path d="M70446 73070
L70249 73070
" />
<path d="M70249 73380
L70249 72789
L70530 72789
" />
<path d="M70755 73380
L70755 72986
" />
<path d="M70755 72789
L70727 72817
L70755 72845
L70784 72817
L70755 72789
L70755 72845
" />
<path d="M71121 73380
L71065 73352
L71037 73295
L71037 72789
" />
<path d="M71571 73352
L71515 73380
L71402 73380
L71346 73352
L71318 73295
L71318 73070
L71346 73014
L71402 72986
L71515 72986
L71571 73014
L71599 73070
L71599 73127
L71318 73183
" />
<path d="M71852 73323
L71880 73352
L71852 73380
L71824 73352
L71852 73323
L71852 73380
" />
<path d="M71852 73014
L71880 73042
L71852 73070
L71824 73042
L71852 73014
L71852 73070
" />
<path d="M72865 73380
L72583 73380
L72583 72789
" />
<path d="M73061 73380
L73061 72986
" />
<path d="M73061 72789
L73033 72817
L73061 72845
L73090 72817
L73061 72789
L73061 72845
" />
<path d="M73427 73380
L73371 73352
L73343 73295
L73343 72789
" />
<path d="M73596 72986
L73736 73380
" />
<path d="M73877 72986
L73736 73380
L73680 73520
L73652 73548
L73596 73577
" />
<path d="M74383 72789
L74102 72789
L74074 73070
L74102 73042
L74158 73014
L74299 73014
L74355 73042
L74383 73070
L74411 73127
L74411 73267
L74383 73323
L74355 73352
L74299 73380
L74158 73380
L74102 73352
L74074 73323
" />
<path d="M74749 73042
L74692 73014
L74664 72986
L74636 72930
L74636 72902
L74664 72845
L74692 72817
L74749 72789
L74861 72789
L74917 72817
L74946 72845
L74974 72902
L74974 72930
L74946 72986
L74917 73014
L74861 73042
L74749 73042
L74692 73070
L74664 73099
L74636 73155
L74636 73267
L74664 73323
L74692 73352
L74749 73380
L74861 73380
L74917 73352
L74946 73323
L74974 73267
L74974 73155
L74946 73099
L74917 73070
L74861 73042
" />
<path d="M75086 73436
L75536 73436
" />
<path d="M75677 73380
L75677 72789
L75902 72789
L75958 72817
L75986 72845
L76014 72902
L76014 72986
L75986 73042
L75958 73070
L75902 73099
L75677 73099
" />
<path d="M76267 73380
L76267 72986
" />
<path d="M76267 73099
L76295 73042
L76323 73014
L76380 72986
L76436 72986
" />
<path d="M76717 73380
L76661 73352
L76633 73323
L76605 73267
L76605 73099
L76633 73042
L76661 73014
L76717 72986
L76802 72986
L76858 73014
L76886 73042
L76914 73099
L76914 73267
L76886 73323
L76858 73352
L76802 73380
L76717 73380
" />
<path d="M77167 73323
L77195 73352
L77167 73380
L77139 73352
L77167 73323
L77167 73380
" />
<path d="M77448 73380
L77448 72789
" />
<path d="M77505 73155
L77673 73380
" />
<path d="M77673 72986
L77448 73211
" />
<path d="M77926 73380
L77926 72986
" />
<path d="M77926 72789
L77898 72817
L77926 72845
L77955 72817
L77926 72789
L77926 72845
" />
<path d="M78461 73352
L78404 73380
L78292 73380
L78236 73352
L78208 73323
L78180 73267
L78180 73099
L78208 73042
L78236 73014
L78292 72986
L78404 72986
L78461 73014
" />
<path d="M78967 73380
L78967 73070
L78939 73014
L78883 72986
L78770 72986
L78714 73014
" />
<path d="M78967 73352
L78911 73380
L78770 73380
L78714 73352
L78686 73295
L78686 73239
L78714 73183
L78770 73155
L78911 73155
L78967 73127
" />
<path d="M79501 73380
L79501 72789
" />
<path d="M79501 73352
L79445 73380
L79332 73380
L79276 73352
L79248 73323
L79220 73267
L79220 73099
L79248 73042
L79276 73014
L79332 72986
L79445 72986
L79501 73014
" />
<path d="M79642 73436
L80092 73436
" />
<path d="M80232 72986
L80232 73577
" />
<path d="M80232 73014
L80289 72986
L80401 72986
L80457 73014
L80485 73042
L80514 73099
L80514 73267
L80485 73323
L80457 73352
L80401 73380
L80289 73380
L80232 73352
" />
<path d="M81020 73352
L80964 73380
L80851 73380
L80795 73352
L80767 73323
L80739 73267
L80739 73099
L80767 73042
L80795 73014
L80851 72986
L80964 72986
L81020 73014
" />
<path d="M81273 73380
L81273 72789
" />
<path d="M81273 73014
L81329 72986
L81442 72986
L81498 73014
L81526 73042
L81554 73099
L81554 73267
L81526 73323
L81498 73352
L81442 73380
L81329 73380
L81273 73352
" />
</g>
<g style="fill:#000000; fill-opacity:0.0; 
stroke:#000000; stroke-width:39.3701; stroke-opacity:1; 
stroke-linecap:round; stroke-linejoin:round;">
</g>
<g style="fill:#000000; fill-opacity:0.0; 
stroke:#000000; stroke-width:59.0551; stroke-opacity:1; 
stroke-linecap:round; stroke-linejoin:round;">
<path d="M69685 71459
L112205 71459
" />
</g>
<g style="fill:#000000; fill-opacity:0.0; 
stroke:#000000; stroke-width:39.3701; stroke-opacity:1; 
stroke-linecap:round; stroke-linejoin:round;">
</g>
<g style="fill:#000000; fill-opacity:0.0; 
stroke:#000000; stroke-width:59.0551; stroke-opacity:1; 
stroke-linecap:round; stroke-linejoin:round;">
<path d="M70221 72289
L70305 72317
L70446 72317
L70502 72289
L70530 72260
L70559 72204
L70559 72148
L70530 72092
L70502 72064
L70446 72036
L70334 72007
L70277 71979
L70249 71951
L70221 71895
L70221 71839
L70249 71782
L70277 71754
L70334 71726
L70474 71726
L70559 71754
" />
<path d="M70812 72317
L70812 71726
" />
<path d="M71065 72317
L71065 72007
L71037 71951
L70980 71923
L70896 71923
L70840 71951
L70812 71979
" />
<path d="M71571 72289
L71515 72317
L71402 72317
L71346 72289
L71318 72232
L71318 72007
L71346 71951
L71402 71923
L71515 71923
L71571 71951
L71599 72007
L71599 72064
L71318 72120
" />
<path d="M72077 72289
L72021 72317
L71908 72317
L71852 72289
L71824 72232
L71824 72007
L71852 71951
L71908 71923
L72021 71923
L72077 71951
L72105 72007
L72105 72064
L71824 72120
" />
<path d="M72274 71923
L72499 71923
" />
<path d="M72358 71726
L72358 72232
L72386 72289
L72443 72317
L72499 72317
" />
<path d="M72696 72260
L72724 72289
L72696 72317
L72668 72289
L72696 72260
L72696 72317
" />
<path d="M72696 71951
L72724 71979
L72696 72007
L72668 71979
L72696 71951
L72696 72007
" />
</g>
<g style="fill:#000000; fill-opacity:0.0; 
stroke:#000000; stroke-width:39.3701; stroke-opacity:1; 
stroke-linecap:round; stroke-linejoin:round;">
</g>
<g style="fill:#000000; fill-opacity:0.0; 
stroke:#000000; stroke-width:59.0551; stroke-opacity:1; 
stroke-linecap:round; stroke-linejoin:round;">
<path d="M77559 75396
L77559 76577
" />
</g>
<g style="fill:#000000; fill-opacity:0.0; 
stroke:#000000; stroke-width:39.3701; stroke-opacity:1; 
stroke-linecap:round; stroke-linejoin:round;">
</g>
<g style="fill:#000000; fill-opacity:0.0; 
stroke:#000000; stroke-width:59.0551; stroke-opacity:1; 
stroke-linecap:round; stroke-linejoin:round;">
<path d="M102756 75396
L102756 77955
" />
<path d="M29409 50580
L29419 50580
" />
<path d="M28415.4 52096.5 A1927.47 1927.47 0.0 0 0 28612 53134 " />
<path d="M32165 59305 A1932.98 1932.98 0.0 0 0 34781.7 60086.8 " />
<path d="M28612 53133
L32165 59304
" />
<path d="M41124 56406
L34781 60086
" />
<path d="M96503 47555
L96503 8876
" />
<path d="M88173 47555
L96503 47555
" />
<path d="M43267 14480
L43267 6790
" />
<path d="M32653 14480
L43267 14480
" />
<path d="M32652 15014
L32653 14480
" />
</g>
<g style="fill:#000000; fill-opacity:0.0; 
stroke:#000000; stroke-width:78.7402; stroke-opacity:1; 
stroke-linecap:round; stroke-linejoin:round;">
<path d="M94704 7903
L92592 7478
" />
<path d="M92592 7478
L89795 7108
" />
<path d="M45742 53732
L46402 53350
" />
<path d="M45083 54114
L45742 53732
" />
<path d="M32652 19980
L32652 17497
" />
<path d="M32652 22463
L32652 19980
" />
<path d="M55973 6376
L51875 6376
" />
<path d="M86099 47555
L88173 47555
" />
<path d="M84025 47555
L86099 47555
" />
<path d="M81951 47555
L84025 47555
" />
<path d="M79877 47555
L81951 47555
" />
<path d="M77803 47555
L79877 47555
" />
<path d="M75730 47555
L77803 47555
" />
<path d="M73656 47555
L75730 47555
" />
<path d="M71582 47555
L73656 47555
" />
<path d="M71304 47582
L71582 47555
" />
<path d="M71045 47663
L71304 47582
" />
<path d="M70811 47790
L71045 47663
" />
<path d="M70607 47958
L70811 47790
" />
<path d="M70439 48162
L70607 47958
" />
<path d="M70312 48396
L70439 48162
" />
<path d="M70232 48655
L70312 48396
" />
<path d="M70204 48932
L70232 48655
" />
<path d="M86404 6803
L82511 6572
" />
<path d="M89795 7108
L86404 6803
" />
<path d="M78208 6427
L73586 6376
" />
<path d="M82511 6572
L78208 6427
" />
<path d="M69944 53250
L69843 53304
" />
<path d="M70031 53178
L69944 53250
" />
<path d="M70103 53090
L70031 53178
" />
<path d="M70158 52990
L70103 53090
" />
<path d="M70192 52879
L70158 52990
" />
<path d="M70204 52769
L70192 52879
" />
<path d="M32652 27429
L32652 24946
" />
<path d="M32652 29912
L32652 27429
" />
<path d="M32652 32395
L32652 29912
" />
<path d="M32652 34878
L32652 32395
" />
<path d="M51875 6376
L47777 6376
" />
<path d="M60070 6376
L55973 6376
" />
<path d="M64168 6376
L60070 6376
" />
<path d="M68265 6376
L64168 6376
" />
<path d="M73586 6376
L68265 6376
" />
<path d="M43449 6447
L43519 6409
" />
<path d="M43388 6497
L43449 6447
" />
<path d="M43337 6558
L43388 6497
" />
<path d="M43299 6629
L43337 6558
" />
<path d="M43275 6706
L43299 6629
" />
<path d="M43267 6790
L43275 6706
" />
<path d="M43597 6385
L43680 6376
" />
<path d="M43519 6409
L43597 6385
" />
<path d="M47777 6376
L43680 6376
" />
<path d="M32652 24946
L32652 22463
" />
<path d="M32652 17497
L32652 15014
" />
<path d="M32652 34878
L28415 52096
" />
<path d="M44423 54496
L45083 54114
" />
<path d="M43763 54878
L44423 54496
" />
<path d="M43103 55260
L43763 54878
" />
<path d="M42444 55642
L43103 55260
" />
<path d="M41784 56024
L42444 55642
" />
<path d="M41124 56406
L41784 56024
" />
<path d="M66712 53351
L69613 53351
" />
<path d="M63811 53351
L66712 53351
" />
<path d="M60909 53351
L63811 53351
" />
<path d="M58008 53351
L60909 53351
" />
<path d="M55106 53351
L58008 53351
" />
<path d="M52205 53351
L55106 53351
" />
<path d="M49304 53351
L52205 53351
" />
<path d="M46402 53351
L49304 53351
" />
<path d="M70204 52289
L70204 52769
" />
<path d="M70204 51810
L70204 52289
" />
<path d="M70204 51330
L70204 51810
" />
<path d="M70204 50851
L70204 51330
" />
<path d="M70204 50371
L70204 50851
" />
<path d="M70204 49892
L70204 50371
" />
<path d="M70204 49412
L70204 49892
" />
<path d="M70204 48932
L70204 49412
" />
<path d="M69733 53339
L69613 53351
" />
<path d="M69843 53304
L69733 53339
" />
<path d="M96038 8372
L94704 7903
" />
<path d="M96503 8876
L96038 8372
" />
</g>
<g style="fill:#000000; fill-opacity:1.0; 
stroke:#000000; stroke-width:39.3701; stroke-opacity:1; 
stroke-linecap:round; stroke-linejoin:round;">
<path style="fill:#000000; fill-opacity:1.0; 
stroke:#000000; stroke-width:39.3701; stroke-opacity:1; 
stroke-linecap:round; stroke-linejoin:round;fill-rule:evenodd;"
d="M 39901,25182
39643,25200
40043,25750
40193,25700
Z" /> 
<path style="fill:#000000; fill-opacity:1.0; 
stroke:#000000; stroke-width:39.3701; stroke-opacity:1; 
stroke-linecap:round; stroke-linejoin:round;fill-rule:evenodd;"
d="M 39493,25000
38943,24900
38543,24700
38625,24578
38235,24407
37893,24150
37993,24050
37706,23757
37516,23418
37733,23379
37548,22911
37493,22400
37710,22399
37793,21250
37943,21250
38243,20300
38375,20339
38735,19507
38859,19566
39267,18818
39388,18870
39643,18450
40005,18085
40143,18800
40193,19400
40381,19366
40643,20550
40850,20587
40966,21030
40993,21500
41185,21526
41243,22550
41470,22565
41444,23044
41393,23450
41510,23480
41193,24000
40855,24427
40993,24550
40493,24900
39893,25000
39843,24900
39343,23200
39243,21150
39393,20100
39543,19200
39443,19150
39193,20050
38893,21850
39143,23600
39493,24950
Z" /> 
</g>
<g style="fill:#000000; fill-opacity:1.0; 
stroke:#000000; stroke-width:118.11; stroke-opacity:1; 
stroke-linecap:round; stroke-linejoin:round;">
</g>
<g style="fill:#000000; fill-opacity:0.0; 
stroke:#000000; stroke-width:118.11; stroke-opacity:1; 
stroke-linecap:round; stroke-linejoin:round;">
<path d="M38375 20339
L38238 20318
" />
<path d="M41510 23480
L41349 23467
" />
<path d="M39901 25182
L39901 25182
" />
<path d="M38625 24578
L38533 24698
" />
<path d="M37710 22399
L37493 22400
" />
<path d="M40850 20587
L40632 20570
" />
<path d="M37932 21261
L37780 21231
" />
<path d="M41185 21526
L40986 21521
" />
<path d="M40381 19366
L40173 19428
" />
<path d="M38004 24061
L37878 24158
" />
<path d="M40997 24543
L40855 24427
" />
<path d="M39583 18967
L39583 18967
" />
<path d="M39388 18870
L39267 18818
" />
<path d="M41470 22565
L41225 22572
" />
<path d="M37733 23379
L37516 23418
" />
<path d="M38859 19566
L38735 19507
" />
<path d="M39312 18819
L39312 18819
" />
<path d="M38995 25034
L38995 25034
" />
</g>
<g style="fill:#000000; fill-opacity:0.0; 
stroke:#000000; stroke-width:59.0551; stroke-opacity:1; 
stroke-linecap:round; stroke-linejoin:round;">
<path d="M35962.9 54226.2 A818.386 818.386 0.0 0 0 36159 53085.5 " />
<path d="M38036.1 54667.6 A819.955 819.955 0.0 0 0 38232.8 53524.8 " />
<path d="M35186 51362
L36165 53093
" />
<path d="M35202 51353
L36534 50584
" />
<path d="M36534 50584
L38232 53524
" />
<path d="M38014 54685
L36669 55461
" />
<path d="M36666 55463
L35955 54232
" />
<path d="M37200 50222
L36723 50497
" />
<path d="M36961 50359
L37377 50528
" />
<path d="M36900 50804
L36961 50359
" />
<path d="M37377 50528
L36900 50804
" />
<path d="M92267 39429
L92267 39980
" />
<path d="M92267 39704
L92622 39429
" />
<path d="M92622 39980
L92267 39704
" />
<path d="M92622 39429
L92622 39980
" />
<path d="M92275 38287
L92275 38838
" />
<path d="M92275 38562
L92629 38287
" />
<path d="M92629 38838
L92275 38562
" />
<path d="M92629 38287
L92629 38838
" />
<path d="M92188 24842
L92188 25393
" />
<path d="M92188 25118
L92543 24842
" />
<path d="M92543 25393
L92188 25118
" />
<path d="M92543 24842
L92543 25393
" />
<path d="M92196 23708
L92196 24259
" />
<path d="M92196 23984
L92551 23708
" />
<path d="M92551 24259
L92196 23984
" />
<path d="M92551 23708
L92551 24259
" />
<path d="M93379.9 13378 A818.387 818.387 0.0 0 0 92490.2 12637.8 " />
<path d="M94798.8 11803.1 A819.955 819.955 0.0 0 0 93907.5 11061.4 " />
<path d="M90511 12618
L92500 12636
" />
<path d="M90511 12600
L90511 11061
" />
<path d="M90511 11061
L93907 11061
" />
<path d="M94803 11830
L94803 13383
" />
<path d="M94803 13387
L93381 13387
" />
<path d="M93399.6 43338.6 A818.387 818.387 0.0 0 0 92509.8 42598.4 " />
<path d="M94818.5 41763.8 A819.955 819.955 0.0 0 0 93927.2 41022 " />
<path d="M90531 42578
L92519 42596
" />
<path d="M90531 42560
L90531 41022
" />
<path d="M90531 41022
L93927 41022
" />
<path d="M94822 41791
L94822 43344
" />
<path d="M94822 43348
L93401 43348
" />
<path d="M93379.9 35858.3 A818.387 818.387 0.0 0 0 92490.2 35118.1 " />
<path d="M94798.8 34283.5 A819.955 819.955 0.0 0 0 93907.5 33541.7 " />
<path d="M90511 35098
L92500 35116
" />
<path d="M90511 35080
L90511 33541
" />
<path d="M90511 33541
L93907 33541
" />
<path d="M94803 34311
L94803 35864
" />
<path d="M94803 35867
L93381 35867
" />
<path d="M93379.9 28299.2 A818.387 818.387 0.0 0 0 92490.2 27559.1 " />
<path d="M94798.8 26724.4 A819.955 819.955 0.0 0 0 93907.5 25982.7 " />
<path d="M90511 27539
L92500 27557
" />
<path d="M90511 27521
L90511 25982
" />
<path d="M90511 25982
L93907 25982
" />
<path d="M94803 26751
L94803 28305
" />
<path d="M94803 28308
L93381 28308
" />
<path d="M93379.9 20858.3 A818.387 818.387 0.0 0 0 92490.2 20118.1 " />
<path d="M94798.8 19283.5 A819.955 819.955 0.0 0 0 93907.5 18541.7 " />
<path d="M90511 20098
L92500 20116
" />
<path d="M90511 20080
L90511 18541
" />
<path d="M90511 18541
L93907 18541
" />
<path d="M94803 19311
L94803 20864
" />
<path d="M94803 20867
L93381 20867
" />
<path d="M92192 16216
L92192 16767
" />
<path d="M92192 16492
L92547 16216
" />
<path d="M92547 16767
L92192 16492
" />
<path d="M92547 16216
L92547 16767
" />
<path d="M85899.6 20858.3 A818.387 818.387 0.0 0 0 85009.8 20118.1 " />
<path d="M87318.5 19283.5 A819.955 819.955 0.0 0 0 86427.2 18541.7 " />
<path d="M83031 20098
L85019 20116
" />
<path d="M83031 20080
L83031 18541
" />
<path d="M83031 18541
L86427 18541
" />
<path d="M87322 19311
L87322 20864
" />
<path d="M87322 20867
L85901 20867
" />
<path d="M85899.6 13378 A818.387 818.387 0.0 0 0 85009.8 12637.8 " />
<path d="M87318.5 11803.1 A819.955 819.955 0.0 0 0 86427.2 11061.4 " />
<path d="M83031 12618
L85019 12636
" />
<path d="M83031 12600
L83031 11061
" />
<path d="M83031 11061
L86427 11061
" />
<path d="M87322 11830
L87322 13383
" />
<path d="M87322 13387
L85901 13387
" />
<path d="M78419.3 12787.4 A818.387 818.387 0.0 0 0 77529.5 12047.2 " />
<path d="M79838.2 11212.6 A819.955 819.955 0.0 0 0 78946.9 10470.9 " />
<path d="M75551 12027
L77539 12045
" />
<path d="M75551 12009
L75551 10470
" />
<path d="M75551 10470
L78946 10470
" />
<path d="M79842 11240
L79842 12793
" />
<path d="M79842 12796
L78421 12796
" />
<path d="M70899.6 10897.6 A818.387 818.387 0.0 0 0 70009.8 10157.5 " />
<path d="M72318.5 9322.83 A819.955 819.955 0.0 0 0 71427.2 8581.1 " />
<path d="M68031 10137
L70019 10155
" />
<path d="M68031 10119
L68031 8581
" />
<path d="M68031 8581
L71427 8581
" />
<path d="M72322 9350
L72322 10903
" />
<path d="M72322 10907
L70901 10907
" />
<path d="M63419.3 10350.4 A818.387 818.387 0.0 0 0 62529.5 9610.24 " />
<path d="M64838.2 8775.59 A819.955 819.955 0.0 0 0 63946.9 8033.86 " />
<path d="M60551 9590
L62539 9608
" />
<path d="M60551 9572
L60551 8033
" />
<path d="M60551 8033
L63946 8033
" />
<path d="M64842 8803
L64842 10356
" />
<path d="M64842 10359
L63421 10359
" />
<path d="M55899.6 10897.6 A818.387 818.387 0.0 0 0 55009.8 10157.5 " />
<path d="M57318.5 9322.83 A819.955 819.955 0.0 0 0 56427.2 8581.1 " />
<path d="M53031 10137
L55019 10155
" />
<path d="M53031 10119
L53031 8581
" />
<path d="M53031 8581
L56427 8581
" />
<path d="M57322 9350
L57322 10903
" />
<path d="M57322 10907
L55901 10907
" />
<path d="M48415.4 11842.5 A818.387 818.387 0.0 0 0 47525.6 11102.4 " />
<path d="M49834.3 10267.7 A819.955 819.955 0.0 0 0 48942.9 9525.98 " />
<path d="M45547 11082
L47535 11100
" />
<path d="M45547 11064
L45547 9525
" />
<path d="M45547 9525
L48942 9525
" />
<path d="M49838 10295
L49838 11848
" />
<path d="M49838 11851
L48417 11851
" />
<path d="M84724 15811
L84724 16362
" />
<path d="M84724 16086
L85078 15811
" />
<path d="M85078 16362
L84724 16086
" />
<path d="M85078 15811
L85078 16362
" />
<path d="M77240 14500
L77240 15051
" />
<path d="M77240 14775
L77594 14500
" />
<path d="M77594 15051
L77240 14775
" />
<path d="M77594 14500
L77594 15051
" />
<path d="M69716 13318
L69716 13870
" />
<path d="M69716 13594
L70070 13318
" />
<path d="M70070 13870
L69716 13594
" />
<path d="M70070 13318
L70070 13870
" />
<path d="M62232 12291
L62232 12842
" />
<path d="M62232 12566
L62586 12291
" />
<path d="M62586 12842
L62232 12566
" />
<path d="M62586 12291
L62586 12842
" />
<path d="M58866 11551
L58866 12102
" />
<path d="M58866 11826
L59220 11551
" />
<path d="M59220 12102
L58866 11826
" />
<path d="M59220 11551
L59220 12102
" />
<path d="M51208 12200
L51208 12751
" />
<path d="M51208 12476
L51562 12200
" />
<path d="M51562 12751
L51208 12476
" />
<path d="M51562 12200
L51562 12751
" />
<path d="M63582 45314
L63582 45866
" />
<path d="M63582 45590
L63937 45314
" />
<path d="M63937 45866
L63582 45590
" />
<path d="M63937 45314
L63937 45866
" />
<path d="M56062 45314
L56062 45866
" />
<path d="M56062 45590
L56417 45314
" />
<path d="M56417 45866
L56062 45590
" />
<path d="M56417 45314
L56417 45866
" />
<path d="M48582 46181
L48582 46732
" />
<path d="M48582 46456
L48937 46181
" />
<path d="M48937 46732
L48582 46456
" />
<path d="M48937 46181
L48937 46732
" />
<path d="M43368 46660
L42891 46935
" />
<path d="M43129 46798
L43545 46967
" />
<path d="M43068 47242
L43129 46798
" />
<path d="M43545 46967
L43068 47242
" />
<path d="M41377 34960
L41377 35511
" />
<path d="M41377 35236
L41732 34960
" />
<path d="M41732 35511
L41377 35236
" />
<path d="M41732 34960
L41732 35511
" />
<path d="M67322 21614
L67322 22165
" />
<path d="M67322 21889
L67677 21614
" />
<path d="M67677 22165
L67322 21889
" />
<path d="M67677 21614
L67677 22165
" />
<path d="M59842 21062
L59842 21614
" />
<path d="M59842 21338
L60196 21062
" />
<path d="M60196 21614
L59842 21338
" />
<path d="M60196 21062
L60196 21614
" />
<path d="M52677 21653
L52677 22204
" />
<path d="M52677 21929
L53031 21653
" />
<path d="M53031 22204
L52677 21929
" />
<path d="M53031 21653
L53031 22204
" />
<path d="M44842 22559
L44842 23110
" />
<path d="M44842 22834
L45196 22559
" />
<path d="M45196 23110
L44842 22834
" />
<path d="M45196 22559
L45196 23110
" />
<path d="M78419.3 27708.7 A818.387 818.387 0.0 0 0 77529.5 26968.5 " />
<path d="M79838.2 26133.9 A819.955 819.955 0.0 0 0 78946.9 25392.1 " />
<path d="M75551 26948
L77539 26966
" />
<path d="M75551 26930
L75551 25392
" />
<path d="M75551 25392
L78946 25392
" />
<path d="M79842 26161
L79842 27714
" />
<path d="M79842 27718
L78421 27718
" />
<path d="M59639.8 48358.3 A818.387 818.387 0.0 0 0 58750 47618.1 " />
<path d="M61058.7 46783.5 A819.955 819.955 0.0 0 0 60167.3 46041.7 " />
<path d="M56771 47598
L58759 47616
" />
<path d="M56771 47580
L56771 46041
" />
<path d="M56771 46041
L60167 46041
" />
<path d="M61062 46811
L61062 48364
" />
<path d="M61062 48367
L59641 48367
" />
<path d="M78419.3 35267.7 A818.387 818.387 0.0 0 0 77529.5 34527.6 " />
<path d="M79838.2 33692.9 A819.955 819.955 0.0 0 0 78946.9 32951.2 " />
<path d="M75551 34507
L77539 34525
" />
<path d="M75551 34489
L75551 32951
" />
<path d="M75551 32951
L78946 32951
" />
<path d="M79842 33720
L79842 35273
" />
<path d="M79842 35277
L78421 35277
" />
<path d="M78419.3 20267.7 A818.387 818.387 0.0 0 0 77529.5 19527.6 " />
<path d="M79838.2 18692.9 A819.955 819.955 0.0 0 0 78946.9 17951.2 " />
<path d="M75551 19507
L77539 19525
" />
<path d="M75551 19489
L75551 17951
" />
<path d="M75551 17951
L78946 17951
" />
<path d="M79842 18720
L79842 20273
" />
<path d="M79842 20277
L78421 20277
" />
<path d="M70899.6 18378 A818.387 818.387 0.0 0 0 70009.8 17637.8 " />
<path d="M72318.5 16803.1 A819.955 819.955 0.0 0 0 71427.2 16061.4 " />
<path d="M68031 17618
L70019 17636
" />
<path d="M68031 17600
L68031 16061
" />
<path d="M68031 16061
L71427 16061
" />
<path d="M72322 16830
L72322 18383
" />
<path d="M72322 18387
L70901 18387
" />
<path d="M55899.6 18378 A818.387 818.387 0.0 0 0 55009.8 17637.8 " />
<path d="M57318.5 16803.1 A819.955 819.955 0.0 0 0 56427.2 16061.4 " />
<path d="M53031 17618
L55019 17636
" />
<path d="M53031 17600
L53031 16061
" />
<path d="M53031 16061
L56427 16061
" />
<path d="M57322 16830
L57322 18383
" />
<path d="M57322 18387
L55901 18387
" />
<path d="M42141.4 50666.2 A818.386 818.386 0.0 0 0 42337.5 49525.5 " />
<path d="M44214.7 51107.6 A819.955 819.955 0.0 0 0 44411.4 49964.8 " />
<path d="M41365 47802
L42343 49533
" />
<path d="M41381 47793
L42713 47024
" />
<path d="M42713 47024
L44411 49964
" />
<path d="M44193 51125
L42847 51901
" />
<path d="M42844 51903
L42134 50672
" />
<path d="M67159.4 48358.3 A818.387 818.387 0.0 0 0 66269.7 47618.1 " />
<path d="M68578.3 46783.5 A819.955 819.955 0.0 0 0 67687 46041.7 " />
<path d="M64291 47598
L66279 47616
" />
<path d="M64291 47580
L64291 46041
" />
<path d="M64291 46041
L67687 46041
" />
<path d="M68582 46811
L68582 48364
" />
<path d="M68582 48367
L67161 48367
" />
<path d="M52159.4 49244.1 A818.387 818.387 0.0 0 0 51269.7 48503.9 " />
<path d="M53578.3 47669.3 A819.955 819.955 0.0 0 0 52687 46927.6 " />
<path d="M49291 48484
L51279 48502
" />
<path d="M49291 48466
L49291 46927
" />
<path d="M49291 46927
L52687 46927
" />
<path d="M53582 47696
L53582 49250
" />
<path d="M53582 49253
L52161 49253
" />
<path d="M40899.6 38023.6 A818.387 818.387 0.0 0 0 40009.8 37283.5 " />
<path d="M42318.5 36448.8 A819.955 819.955 0.0 0 0 41427.2 35707.1 " />
<path d="M38031 37263
L40019 37281
" />
<path d="M38031 37245
L38031 35707
" />
<path d="M38031 35707
L41427 35707
" />
<path d="M42322 36476
L42322 38029
" />
<path d="M42322 38033
L40901 38033
" />
<path d="M85919.3 43338.6 A818.387 818.387 0.0 0 0 85029.5 42598.4 " />
<path d="M87338.2 41763.8 A819.955 819.955 0.0 0 0 86446.9 41022 " />
<path d="M83051 42578
L85039 42596
" />
<path d="M83051 42560
L83051 41022
" />
<path d="M83051 41022
L86446 41022
" />
<path d="M87342 41791
L87342 43344
" />
<path d="M87342 43348
L85921 43348
" />
<path d="M78419.3 42748 A818.387 818.387 0.0 0 0 77529.5 42007.9 " />
<path d="M79838.2 41173.2 A819.955 819.955 0.0 0 0 78946.9 40431.5 " />
<path d="M75551 41988
L77539 42006
" />
<path d="M75551 41970
L75551 40431
" />
<path d="M75551 40431
L78946 40431
" />
<path d="M79842 41200
L79842 42753
" />
<path d="M79842 42757
L78421 42757
" />
<path d="M70899.6 40897.6 A818.387 818.387 0.0 0 0 70009.8 40157.5 " />
<path d="M72318.5 39322.8 A819.955 819.955 0.0 0 0 71427.2 38581.1 " />
<path d="M68031 40137
L70019 40155
" />
<path d="M68031 40119
L68031 38581
" />
<path d="M68031 38581
L71427 38581
" />
<path d="M72322 39350
L72322 40903
" />
<path d="M72322 40907
L70901 40907
" />
<path d="M63419.3 40346.5 A818.387 818.387 0.0 0 0 62529.5 39606.3 " />
<path d="M64838.2 38771.7 A819.955 819.955 0.0 0 0 63946.9 38029.9 " />
<path d="M60551 39586
L62539 39604
" />
<path d="M60551 39568
L60551 38029
" />
<path d="M60551 38029
L63946 38029
" />
<path d="M64842 38799
L64842 40352
" />
<path d="M64842 40355
L63421 40355
" />
<path d="M55899.6 40897.6 A818.387 818.387 0.0 0 0 55009.8 40157.5 " />
<path d="M57318.5 39322.8 A819.955 819.955 0.0 0 0 56427.2 38581.1 " />
<path d="M53031 40137
L55019 40155
" />
<path d="M53031 40119
L53031 38581
" />
<path d="M53031 38581
L56427 38581
" />
<path d="M57322 39350
L57322 40903
" />
<path d="M57322 40907
L55901 40907
" />
<path d="M48419.3 41803.1 A818.387 818.387 0.0 0 0 47529.5 41063 " />
<path d="M49838.2 40228.3 A819.955 819.955 0.0 0 0 48946.9 39486.6 " />
<path d="M45551 41043
L47539 41061
" />
<path d="M45551 41025
L45551 39486
" />
<path d="M45551 39486
L48946 39486
" />
<path d="M49842 40255
L49842 41809
" />
<path d="M49842 41812
L48421 41812
" />
<path d="M85899.6 35858.3 A818.387 818.387 0.0 0 0 85009.8 35118.1 " />
<path d="M87318.5 34283.5 A819.955 819.955 0.0 0 0 86427.2 33541.7 " />
<path d="M83031 35098
L85019 35116
" />
<path d="M83031 35080
L83031 33541
" />
<path d="M83031 33541
L86427 33541
" />
<path d="M87322 34311
L87322 35864
" />
<path d="M87322 35867
L85901 35867
" />
<path d="M70899.6 33378 A818.387 818.387 0.0 0 0 70009.8 32637.8 " />
<path d="M72318.5 31803.1 A819.955 819.955 0.0 0 0 71427.2 31061.4 " />
<path d="M68031 32618
L70019 32636
" />
<path d="M68031 32600
L68031 31061
" />
<path d="M68031 31061
L71427 31061
" />
<path d="M72322 31830
L72322 33383
" />
<path d="M72322 33387
L70901 33387
" />
<path d="M63419.3 32866.1 A818.387 818.387 0.0 0 0 62529.5 32126 " />
<path d="M64838.2 31291.3 A819.955 819.955 0.0 0 0 63946.9 30549.6 " />
<path d="M60551 32106
L62539 32124
" />
<path d="M60551 32088
L60551 30549
" />
<path d="M60551 30549
L63946 30549
" />
<path d="M64842 31318
L64842 32872
" />
<path d="M64842 32875
L63421 32875
" />
<path d="M55899.6 33378 A818.387 818.387 0.0 0 0 55009.8 32637.8 " />
<path d="M57318.5 31803.1 A819.955 819.955 0.0 0 0 56427.2 31061.4 " />
<path d="M53031 32618
L55019 32636
" />
<path d="M53031 32600
L53031 31061
" />
<path d="M53031 31061
L56427 31061
" />
<path d="M57322 31830
L57322 33383
" />
<path d="M57322 33387
L55901 33387
" />
<path d="M48419.3 34322.8 A818.387 818.387 0.0 0 0 47529.5 33582.7 " />
<path d="M49838.2 32748 A819.955 819.955 0.0 0 0 48946.9 32006.3 " />
<path d="M45551 33562
L47539 33581
" />
<path d="M45551 33544
L45551 32006
" />
<path d="M45551 32006
L48946 32006
" />
<path d="M49842 32775
L49842 34328
" />
<path d="M49842 34332
L48421 34332
" />
<path d="M85899.6 28299.2 A818.387 818.387 0.0 0 0 85009.8 27559.1 " />
<path d="M87318.5 26724.4 A819.955 819.955 0.0 0 0 86427.2 25982.7 " />
<path d="M83031 27539
L85019 27557
" />
<path d="M83031 27521
L83031 25982
" />
<path d="M83031 25982
L86427 25982
" />
<path d="M87322 26751
L87322 28305
" />
<path d="M87322 28308
L85901 28308
" />
<path d="M70899.6 25858.3 A818.387 818.387 0.0 0 0 70009.8 25118.1 " />
<path d="M72318.5 24283.5 A819.955 819.955 0.0 0 0 71427.2 23541.7 " />
<path d="M68031 25098
L70019 25116
" />
<path d="M68031 25080
L68031 23541
" />
<path d="M68031 23541
L71427 23541
" />
<path d="M72322 24311
L72322 25864
" />
<path d="M72322 25867
L70901 25867
" />
<path d="M63419.3 25346.5 A818.387 818.387 0.0 0 0 62529.5 24606.3 " />
<path d="M64838.2 23771.7 A819.955 819.955 0.0 0 0 63946.9 23029.9 " />
<path d="M60551 24586
L62539 24604
" />
<path d="M60551 24568
L60551 23029
" />
<path d="M60551 23029
L63946 23029
" />
<path d="M64842 23799
L64842 25352
" />
<path d="M64842 25355
L63421 25355
" />
<path d="M55899.6 25897.6 A818.387 818.387 0.0 0 0 55009.8 25157.5 " />
<path d="M57318.5 24322.8 A819.955 819.955 0.0 0 0 56427.2 23581.1 " />
<path d="M53031 25137
L55019 25155
" />
<path d="M53031 25119
L53031 23581
" />
<path d="M53031 23581
L56427 23581
" />
<path d="M57322 24350
L57322 25903
" />
<path d="M57322 25907
L55901 25907
" />
<path d="M48419.3 26842.5 A818.387 818.387 0.0 0 0 47529.5 26102.4 " />
<path d="M49838.2 25267.7 A819.955 819.955 0.0 0 0 48946.9 24526 " />
<path d="M45551 26082
L47539 26100
" />
<path d="M45551 26064
L45551 24525
" />
<path d="M45551 24525
L48946 24525
" />
<path d="M49842 25295
L49842 26848
" />
<path d="M49842 26851
L48421 26851
" />
<path d="M63419.3 17830.7 A818.387 818.387 0.0 0 0 62529.5 17090.6 " />
<path d="M64838.2 16255.9 A819.955 819.955 0.0 0 0 63946.9 15514.2 " />
<path d="M60551 17070
L62539 17088
" />
<path d="M60551 17052
L60551 15514
" />
<path d="M60551 15514
L63946 15514
" />
<path d="M64842 16283
L64842 17836
" />
<path d="M64842 17840
L63421 17840
" />
<path d="M48419.3 19322.8 A818.387 818.387 0.0 0 0 47529.5 18582.7 " />
<path d="M49838.2 17748 A819.955 819.955 0.0 0 0 48946.9 17006.3 " />
<path d="M45551 18562
L47539 18581
" />
<path d="M45551 18544
L45551 17006
" />
<path d="M45551 17006
L48946 17006
" />
<path d="M49842 17775
L49842 19328
" />
<path d="M49842 19332
L48421 19332
" />
<path d="M33622 14724
L35590 14724
" />
<path d="M35787 15472
L35590 15472
" />
<path d="M33622 15472
L33622 14724
" />
<path d="M35590 15472
L35590 14724
" />
<path d="M33425 15472
L33622 15472
" />
<path d="M35787 15472
L35787 20196
" />
<path d="M35787 20196
L33425 20196
" />
<path d="M33425 20196
L33425 15472
" />
<path d="M44724 30472
L44015 30472
" />
<path d="M44724 32086
L44015 32086
" />
<path d="M44015 32086
L44015 31377
" />
<path d="M44015 31377
L44724 31377
" />
<path d="M44724 31377
L44724 32086
" />
<path d="M44724 31299
L44015 31299
" />
<path d="M44015 30590
L44724 30590
" />
<path d="M44015 31299
L44015 30590
" />
<path d="M44724 31299
L44724 30590
" />
<path d="M44015 30472
L44015 29763
" />
<path d="M44015 29763
L44724 29763
" />
<path d="M44724 30472
L44724 29763
" />
</g>
<g style="fill:#000000; fill-opacity:0.0; 
stroke:#000000; stroke-width:98.4252; stroke-opacity:1; 
stroke-linecap:round; stroke-linejoin:round;">
<path d="M42302 28203
L43302 28203
" />
<path d="M37302 16203
L36302 16203
" />
</g>
<g style="fill:#000000; fill-opacity:0.0; 
stroke:#000000; stroke-width:59.0551; stroke-opacity:1; 
stroke-linecap:round; stroke-linejoin:round;">
<path d="M36302 16203
L36302 28203
" />
</g>
<g style="fill:#000000; fill-opacity:0.0; 
stroke:#000000; stroke-width:98.4252; stroke-opacity:1; 
stroke-linecap:round; stroke-linejoin:round;">
<path d="M36302 15203
L36302 28203
" />
<path d="M43302 15203
L36302 15203
" />
<path d="M36302 28203
L37302 28203
" />
<path d="M43302 16203
L42302 16203
" />
<path d="M43302 28203
L43302 15203
" />
<path d="M42302 16203
L42302 28203
" />
<path d="M37302 28203
L37302 16203
" />
</g>
<g style="fill:#000000; fill-opacity:0.0; 
stroke:#000000; stroke-width:59.0551; stroke-opacity:1; 
stroke-linecap:round; stroke-linejoin:round;">
<path d="M43302 28203
L43302 16203
" />
<path d="M33740 24291
L33740 23503
" />
<path d="M33740 23503
L32952 23503
" />
<path d="M32952 23503
L32952 24291
" />
<path d="M32952 24291
L33740 24291
" />
<path d="M33818 24291
L34606 24291
" />
<path d="M33818 23503
L33818 24291
" />
<path d="M34606 23503
L33818 23503
" />
<path d="M34606 24291
L34606 23503
" />
<path d="M34621 22653
L34621 21471
" />
<path d="M33833 22653
L34621 22653
" />
<path d="M33833 21471
L33833 22653
" />
<path d="M34621 21471
L33833 21471
" />
<path d="M33735 21471
L32947 21471
" />
<path d="M32947 21471
L32947 22653
" />
<path d="M32947 22653
L33735 22653
" />
<path d="M33735 22653
L33735 21471
" />
<path d="M32755 25472
L32755 27834
" />
<path d="M34133 27834
L34133 25472
" />
<path d="M32755 25472
L32952 25472
" />
<path d="M34133 25472
L33976 25472
" />
<path d="M34133 27834
L33976 27834
" />
<path d="M32755 27834
L32952 27834
" />
<path d="M35389 24347
L34689 24347
" />
<path d="M35389 23447
L35389 24347
" />
<path d="M34689 23447
L35389 23447
" />
<path d="M34689 24347
L34689 23447
" />
<path d="M74842 23503
L74842 24055
" />
<path d="M74842 23779
L75196 23503
" />
<path d="M75196 24055
L74842 23779
" />
<path d="M75196 23503
L75196 24055
" />
<path d="M87480 24055
L87480 24606
" />
<path d="M87480 24606
L87125 24330
" />
<path d="M87125 24330
L87480 24055
" />
<path d="M87125 24055
L87125 24606
" />
<path d="M44842 23779
L44842 24330
" />
<path d="M44842 24055
L45196 23779
" />
<path d="M45196 24330
L44842 24055
" />
<path d="M45196 23779
L45196 24330
" />
<path d="M53070 22834
L53070 23385
" />
<path d="M53070 23110
L53425 22834
" />
<path d="M53425 23385
L53070 23110
" />
<path d="M53425 22834
L53425 23385
" />
<path d="M59881 22322
L59881 22874
" />
<path d="M59881 22598
L60236 22322
" />
<path d="M60236 22874
L59881 22598
" />
<path d="M60236 22322
L60236 22874
" />
<path d="M67677 22834
L67677 23385
" />
<path d="M67677 23385
L67322 23110
" />
<path d="M67322 23110
L67677 22834
" />
<path d="M67322 22834
L67322 23385
" />
<path d="M74842 24645
L74842 25196
" />
<path d="M74842 24921
L75196 24645
" />
<path d="M75196 25196
L74842 24921
" />
<path d="M75196 24645
L75196 25196
" />
<path d="M87125 25275
L87125 25826
" />
<path d="M87125 25551
L87480 25275
" />
<path d="M87480 25826
L87125 25551
" />
<path d="M87480 25275
L87480 25826
" />
<path d="M45196 37519
L45196 38070
" />
<path d="M45196 38070
L44842 37795
" />
<path d="M44842 37795
L45196 37519
" />
<path d="M44842 37519
L44842 38070
" />
<path d="M52677 36653
L52677 37204
" />
<path d="M52677 36929
L53031 36653
" />
<path d="M53031 37204
L52677 36929
" />
<path d="M53031 36653
L53031 37204
" />
<path d="M59842 36062
L59842 36614
" />
<path d="M59842 36338
L60196 36062
" />
<path d="M60196 36614
L59842 36338
" />
<path d="M60196 36062
L60196 36614
" />
<path d="M67677 36574
L67677 37125
" />
<path d="M67677 37125
L67322 36850
" />
<path d="M67322 36850
L67677 36574
" />
<path d="M67322 36574
L67322 37125
" />
<path d="M75196 38425
L75196 38976
" />
<path d="M75196 38976
L74842 38700
" />
<path d="M74842 38700
L75196 38425
" />
<path d="M74842 38425
L74842 38976
" />
<path d="M84688 37909
L84688 38460
" />
<path d="M84688 38185
L85043 37909
" />
<path d="M85043 38460
L84688 38185
" />
<path d="M85043 37909
L85043 38460
" />
<path d="M44842 38740
L44842 39291
" />
<path d="M44842 39015
L45196 38740
" />
<path d="M45196 39291
L44842 39015
" />
<path d="M45196 38740
L45196 39291
" />
<path d="M53425 37834
L53425 38385
" />
<path d="M53425 38385
L53070 38110
" />
<path d="M53070 38110
L53425 37834
" />
<path d="M53070 37834
L53070 38385
" />
<path d="M59842 37283
L59842 37834
" />
<path d="M59842 37559
L60196 37283
" />
<path d="M60196 37834
L59842 37559
" />
<path d="M60196 37283
L60196 37834
" />
<path d="M67677 37834
L67677 38385
" />
<path d="M67677 38385
L67322 38110
" />
<path d="M67322 38110
L67677 37834
" />
<path d="M67322 37834
L67322 38385
" />
<path d="M74842 39685
L74842 40236
" />
<path d="M74842 39960
L75196 39685
" />
<path d="M75196 40236
L74842 39960
" />
<path d="M75196 39685
L75196 40236
" />
<path d="M85173 40007
L85173 40559
" />
<path d="M85173 40559
L84818 40283
" />
<path d="M84818 40283
L85173 40007
" />
<path d="M84818 40007
L84818 40559
" />
<g >
</g>
<g >
</g>
<g >
</g>
<g >
</g>
<g >
</g>
<g >
</g>
<g >
</g>
<g >
</g>
<g >
</g>
<g >
</g>
<g >
</g>
<g >
</g>
<g >
</g>
<g >
</g>
<g >
</g>
<g >
</g>
<g >
</g>
<g >
</g>
<g >
</g>
<g >
</g>
<g >
</g>
<g >
</g>
<g >
</g>
<g >
</g>
<g >
</g>
<g >
</g>
<g >
</g>
<g >
</g>
<g >
</g>
<g >
</g>
<g >
</g>
<g >
</g>
<g >
</g>
<g >
</g>
<g >
</g>
<g >
</g>
<g >
</g>
<g >
</g>
<g >
</g>
<g >
</g>
<g >
</g>
<g >
</g>
<g >
</g>
<g >
</g>
<g >
</g>
<g >
</g>
<g >
</g>
<g >
</g>
<g >
</g>
<g >
</g>
<g >
</g>
<g >
</g>
<g >
</g>
<g >
</g>
<g >
</g>
<g >
</g>
<g >
</g>
<g >
</g>
<g >
</g>
<g >
</g>
<g >
</g>
<g >
</g>
<g >
</g>
<g >
</g>
<g >
</g>
<g >
</g>
<g >
</g>
<g >
</g>
<g >
</g>
<g >
</g>
<g >
</g>
<g >
</g>
<g >
</g>
<g >
</g>
<g >
</g>
<g >
</g>
<g >
</g>
<g >
</g>
<g >
</g>
<g >
</g>
<g >
</g>
<g >
</g>
<g >
</g>
<g >
</g>
<g >
</g>
<g >
</g>
<g >
</g>
<g >
</g>
<g >
</g>
<g >
</g>
<g >
</g>
<g >
</g>
<g >
</g>
<g >
</g>
<g >
</g>
<g >
</g>
<g >
</g>
<g >
</g>
<g >
</g>
</g>
<g style="fill:#000000; fill-opacity:0.0; 
stroke:#000000; stroke-width:59.0551; stroke-opacity:1; 
stroke-linecap:round; stroke-linejoin:round;">
<path d="M44816 31599
L44921 31914
L45026 31599
" />
<path d="M45311 31884
L45296 31899
L45251 31914
L45221 31914
L45176 31899
L45146 31869
L45131 31839
L45116 31779
L45116 31734
L45131 31674
L45146 31644
L45176 31614
L45221 31599
L45251 31599
L45296 31614
L45311 31629
" />
<path d="M45626 31884
L45611 31899
L45566 31914
L45536 31914
L45491 31899
L45461 31869
L45446 31839
L45431 31779
L45431 31734
L45446 31674
L45461 31644
L45491 31614
L45536 31599
L45566 31599
L45611 31614
L45626 31629
" />
<path d="M44996 30000
L44966 29985
L44921 29985
L44876 30000
L44846 30029
L44831 30059
L44816 30119
L44816 30164
L44831 30224
L44846 30254
L44876 30284
L44921 30299
L44951 30299
L44996 30284
L45011 30269
L45011 30164
L44951 30164
" />
<path d="M45146 30299
L45146 29985
L45326 30299
L45326 29985
" />
<path d="M45476 30299
L45476 29985
L45551 29985
L45596 30000
L45626 30029
L45641 30059
L45656 30119
L45656 30164
L45641 30224
L45626 30254
L45596 30284
L45551 30299
L45476 30299
" />
<path d="M45033 31087
L44883 31087
L44883 30772
" />
<path d="M45138 30922
L45243 30922
" />
<path d="M45288 31087
L45138 31087
L45138 30772
L45288 30772
" />
<path d="M45423 31087
L45423 30772
L45498 30772
L45543 30787
L45573 30817
L45588 30847
L45603 30907
L45603 30952
L45588 31012
L45573 31042
L45543 31072
L45498 31087
L45423 31087
" />
<path d="M33110 24700
L33110 24380
L33232 24380
L33262 24395
L33277 24411
L33293 24441
L33293 24487
L33277 24517
L33262 24533
L33232 24548
L33110 24548
" />
<path d="M33597 24700
L33415 24700
" />
<path d="M33506 24700
L33506 24380
L33475 24426
L33445 24456
L33415 24472
" />
<path d="M33976 24700
L33976 24380
L34098 24380
L34128 24395
L34144 24411
L34159 24441
L34159 24487
L34144 24517
L34128 24533
L34098 24548
L33976 24548
" />
<path d="M34281 24411
L34296 24395
L34326 24380
L34403 24380
L34433 24395
L34448 24411
L34464 24441
L34464 24472
L34448 24517
L34265 24700
L34464 24700
" />
<path d="M34357 22100
L34204 22207
" />
<path d="M34357 22283
L34037 22283
L34037 22161
L34052 22131
L34067 22115
L34098 22100
L34144 22100
L34174 22115
L34189 22131
L34204 22161
L34204 22283
" />
<path d="M34067 21978
L34052 21963
L34037 21932
L34037 21856
L34052 21826
L34067 21811
L34098 21795
L34128 21795
L34174 21811
L34357 21993
L34357 21795
" />
<path d="M33491 22100
L33338 22207
" />
<path d="M33491 22283
L33171 22283
L33171 22161
L33186 22131
L33201 22115
L33232 22100
L33277 22100
L33308 22115
L33323 22131
L33338 22161
L33338 22283
" />
<path d="M33491 21795
L33491 21978
" />
<path d="M33491 21887
L33171 21887
L33216 21917
L33247 21948
L33262 21978
" />
<path d="M33607 27110
L33457 27215
" />
<path d="M33607 27290
L33292 27290
L33292 27170
L33307 27140
L33322 27125
L33352 27110
L33397 27110
L33427 27125
L33442 27140
L33457 27170
L33457 27290
" />
<path d="M33442 26976
L33442 26871
" />
<path d="M33607 26826
L33607 26976
L33292 26976
L33292 26826
" />
<path d="M33592 26706
L33607 26661
L33607 26586
L33592 26556
L33577 26541
L33547 26526
L33517 26526
L33487 26541
L33472 26556
L33457 26586
L33442 26646
L33427 26676
L33412 26691
L33382 26706
L33352 26706
L33322 26691
L33307 26676
L33292 26646
L33292 26571
L33307 26526
" />
<path d="M33442 26391
L33442 26286
" />
<path d="M33607 26241
L33607 26391
L33292 26391
L33292 26241
" />
<path d="M33292 26151
L33292 25971
" />
<path d="M33607 26061
L33292 26061
" />
<g >
</g>
</g> 
</svg>
