<?xml version="1.0" standalone="no"?>
 <!DOCTYPE svg PUBLIC "-//W3C//DTD SVG 1.1//EN" 
 "http://www.w3.org/Graphics/SVG/1.1/DTD/svg11.dtd"> 
<svg xmlns="http://www.w3.org/2000/svg" version="1.1" 
    width="29.7002cm" height="21.0007cm" viewBox="0 0 116930 82680 ">
<title>SVG Picture created as Lily58_Pro-B_SilkS.svg date 2020/11/24 20:32:45 </title>
  <desc>Picture generated by PCBNEW </desc>
<g style="fill:#000000; fill-opacity:1;stroke:#000000; stroke-opacity:1;
stroke-linecap:round; stroke-linejoin:round; "
 transform="translate(0 0) scale(1 1)">
</g>
<g style="fill:#000000; fill-opacity:0.0; 
stroke:#000000; stroke-width:-0.000393701; stroke-opacity:1; 
stroke-linecap:round; stroke-linejoin:round;">
</g>
<g style="fill:#000000; fill-opacity:0.0; 
stroke:#000000; stroke-width:39.3701; stroke-opacity:1; 
stroke-linecap:round; stroke-linejoin:round;">
</g>
<g style="fill:#000000; fill-opacity:0.0; 
stroke:#000000; stroke-width:59.0551; stroke-opacity:1; 
stroke-linecap:round; stroke-linejoin:round;">
<rect x="69685.9" y="65357.2" width="42519.7" height="12598.4" rx="0" />
</g>
<g style="fill:#000000; fill-opacity:0.0; 
stroke:#000000; stroke-width:39.3701; stroke-opacity:1; 
stroke-linecap:round; stroke-linejoin:round;">
</g>
<g style="fill:#000000; fill-opacity:0.0; 
stroke:#000000; stroke-width:59.0551; stroke-opacity:1; 
stroke-linecap:round; stroke-linejoin:round;">
<rect x="3937.01" y="3937.01" width="109056" height="74806" rx="0" />
</g>
<g style="fill:#000000; fill-opacity:0.0; 
stroke:#000000; stroke-width:39.3701; stroke-opacity:1; 
stroke-linecap:round; stroke-linejoin:round;">
</g>
<g style="fill:#000000; fill-opacity:0.0; 
stroke:#000000; stroke-width:59.0551; stroke-opacity:1; 
stroke-linecap:round; stroke-linejoin:round;">
<rect x="4724.41" y="4724.41" width="107481" height="73231.2" rx="0" />
</g>
<g style="fill:#000000; fill-opacity:0.0; 
stroke:#000000; stroke-width:39.3701; stroke-opacity:1; 
stroke-linecap:round; stroke-linejoin:round;">
</g>
<g style="fill:#000000; fill-opacity:0.0; 
stroke:#000000; stroke-width:59.0551; stroke-opacity:1; 
stroke-linecap:round; stroke-linejoin:round;">
<path d="M23622 4724
L23622 3937
" />
</g>
<g style="fill:#000000; fill-opacity:0.0; 
stroke:#000000; stroke-width:39.3701; stroke-opacity:1; 
stroke-linecap:round; stroke-linejoin:round;">
</g>
<g style="fill:#000000; fill-opacity:0.0; 
stroke:#000000; stroke-width:59.0551; stroke-opacity:1; 
stroke-linecap:round; stroke-linejoin:round;">
<path d="M43307 4724
L43307 3937
" />
</g>
<g style="fill:#000000; fill-opacity:0.0; 
stroke:#000000; stroke-width:39.3701; stroke-opacity:1; 
stroke-linecap:round; stroke-linejoin:round;">
</g>
<g style="fill:#000000; fill-opacity:0.0; 
stroke:#000000; stroke-width:59.0551; stroke-opacity:1; 
stroke-linecap:round; stroke-linejoin:round;">
<path d="M62992 4724
L62992 3937
" />
</g>
<g style="fill:#000000; fill-opacity:0.0; 
stroke:#000000; stroke-width:39.3701; stroke-opacity:1; 
stroke-linecap:round; stroke-linejoin:round;">
</g>
<g style="fill:#000000; fill-opacity:0.0; 
stroke:#000000; stroke-width:59.0551; stroke-opacity:1; 
stroke-linecap:round; stroke-linejoin:round;">
<path d="M82677 4724
L82677 3937
" />
</g>
<g style="fill:#000000; fill-opacity:0.0; 
stroke:#000000; stroke-width:39.3701; stroke-opacity:1; 
stroke-linecap:round; stroke-linejoin:round;">
</g>
<g style="fill:#000000; fill-opacity:0.0; 
stroke:#000000; stroke-width:59.0551; stroke-opacity:1; 
stroke-linecap:round; stroke-linejoin:round;">
<path d="M102362 4724
L102362 3937
" />
</g>
<g style="fill:#000000; fill-opacity:0.0; 
stroke:#000000; stroke-width:39.3701; stroke-opacity:1; 
stroke-linecap:round; stroke-linejoin:round;">
</g>
<g style="fill:#000000; fill-opacity:0.0; 
stroke:#000000; stroke-width:59.0551; stroke-opacity:1; 
stroke-linecap:round; stroke-linejoin:round;">
<path d="M14199 4562
L13906 4562
" />
<path d="M14052 4562
L14052 4050
L14004 4123
L13955 4172
L13906 4196
" />
</g>
<g style="fill:#000000; fill-opacity:0.0; 
stroke:#000000; stroke-width:39.3701; stroke-opacity:1; 
stroke-linecap:round; stroke-linejoin:round;">
</g>
<g style="fill:#000000; fill-opacity:0.0; 
stroke:#000000; stroke-width:59.0551; stroke-opacity:1; 
stroke-linecap:round; stroke-linejoin:round;">
<path d="M33591 4099
L33615 4074
L33664 4050
L33786 4050
L33835 4074
L33859 4099
L33884 4147
L33884 4196
L33859 4269
L33567 4562
L33884 4562
" />
</g>
<g style="fill:#000000; fill-opacity:0.0; 
stroke:#000000; stroke-width:39.3701; stroke-opacity:1; 
stroke-linecap:round; stroke-linejoin:round;">
</g>
<g style="fill:#000000; fill-opacity:0.0; 
stroke:#000000; stroke-width:59.0551; stroke-opacity:1; 
stroke-linecap:round; stroke-linejoin:round;">
<path d="M53252 4050
L53569 4050
L53398 4245
L53471 4245
L53520 4269
L53544 4294
L53569 4342
L53569 4464
L53544 4513
L53520 4537
L53471 4562
L53325 4562
L53276 4537
L53252 4513
" />
</g>
<g style="fill:#000000; fill-opacity:0.0; 
stroke:#000000; stroke-width:39.3701; stroke-opacity:1; 
stroke-linecap:round; stroke-linejoin:round;">
</g>
<g style="fill:#000000; fill-opacity:0.0; 
stroke:#000000; stroke-width:59.0551; stroke-opacity:1; 
stroke-linecap:round; stroke-linejoin:round;">
<path d="M73205 4221
L73205 4562
" />
<path d="M73083 4026
L72961 4391
L73278 4391
" />
</g>
<g style="fill:#000000; fill-opacity:0.0; 
stroke:#000000; stroke-width:39.3701; stroke-opacity:1; 
stroke-linecap:round; stroke-linejoin:round;">
</g>
<g style="fill:#000000; fill-opacity:0.0; 
stroke:#000000; stroke-width:59.0551; stroke-opacity:1; 
stroke-linecap:round; stroke-linejoin:round;">
<path d="M92914 4050
L92671 4050
L92646 4294
L92671 4269
L92719 4245
L92841 4245
L92890 4269
L92914 4294
L92939 4342
L92939 4464
L92914 4513
L92890 4537
L92841 4562
L92719 4562
L92671 4537
L92646 4513
" />
</g>
<g style="fill:#000000; fill-opacity:0.0; 
stroke:#000000; stroke-width:39.3701; stroke-opacity:1; 
stroke-linecap:round; stroke-linejoin:round;">
</g>
<g style="fill:#000000; fill-opacity:0.0; 
stroke:#000000; stroke-width:59.0551; stroke-opacity:1; 
stroke-linecap:round; stroke-linejoin:round;">
<path d="M112575 4050
L112477 4050
L112429 4074
L112404 4099
L112356 4172
L112331 4269
L112331 4464
L112356 4513
L112380 4537
L112429 4562
L112526 4562
L112575 4537
L112599 4513
L112624 4464
L112624 4342
L112599 4294
L112575 4269
L112526 4245
L112429 4245
L112380 4269
L112356 4294
L112331 4342
" />
</g>
<g style="fill:#000000; fill-opacity:0.0; 
stroke:#000000; stroke-width:39.3701; stroke-opacity:1; 
stroke-linecap:round; stroke-linejoin:round;">
</g>
<g style="fill:#000000; fill-opacity:0.0; 
stroke:#000000; stroke-width:59.0551; stroke-opacity:1; 
stroke-linecap:round; stroke-linejoin:round;">
<path d="M23622 77955
L23622 78742
" />
</g>
<g style="fill:#000000; fill-opacity:0.0; 
stroke:#000000; stroke-width:39.3701; stroke-opacity:1; 
stroke-linecap:round; stroke-linejoin:round;">
</g>
<g style="fill:#000000; fill-opacity:0.0; 
stroke:#000000; stroke-width:59.0551; stroke-opacity:1; 
stroke-linecap:round; stroke-linejoin:round;">
<path d="M43307 77955
L43307 78742
" />
</g>
<g style="fill:#000000; fill-opacity:0.0; 
stroke:#000000; stroke-width:39.3701; stroke-opacity:1; 
stroke-linecap:round; stroke-linejoin:round;">
</g>
<g style="fill:#000000; fill-opacity:0.0; 
stroke:#000000; stroke-width:59.0551; stroke-opacity:1; 
stroke-linecap:round; stroke-linejoin:round;">
<path d="M62992 77955
L62992 78742
" />
</g>
<g style="fill:#000000; fill-opacity:0.0; 
stroke:#000000; stroke-width:39.3701; stroke-opacity:1; 
stroke-linecap:round; stroke-linejoin:round;">
</g>
<g style="fill:#000000; fill-opacity:0.0; 
stroke:#000000; stroke-width:59.0551; stroke-opacity:1; 
stroke-linecap:round; stroke-linejoin:round;">
<path d="M82677 77955
L82677 78742
" />
</g>
<g style="fill:#000000; fill-opacity:0.0; 
stroke:#000000; stroke-width:39.3701; stroke-opacity:1; 
stroke-linecap:round; stroke-linejoin:round;">
</g>
<g style="fill:#000000; fill-opacity:0.0; 
stroke:#000000; stroke-width:59.0551; stroke-opacity:1; 
stroke-linecap:round; stroke-linejoin:round;">
<path d="M102362 77955
L102362 78742
" />
</g>
<g style="fill:#000000; fill-opacity:0.0; 
stroke:#000000; stroke-width:39.3701; stroke-opacity:1; 
stroke-linecap:round; stroke-linejoin:round;">
</g>
<g style="fill:#000000; fill-opacity:0.0; 
stroke:#000000; stroke-width:59.0551; stroke-opacity:1; 
stroke-linecap:round; stroke-linejoin:round;">
<path d="M14199 78580
L13906 78580
" />
<path d="M14052 78580
L14052 78069
L14004 78142
L13955 78190
L13906 78215
" />
</g>
<g style="fill:#000000; fill-opacity:0.0; 
stroke:#000000; stroke-width:39.3701; stroke-opacity:1; 
stroke-linecap:round; stroke-linejoin:round;">
</g>
<g style="fill:#000000; fill-opacity:0.0; 
stroke:#000000; stroke-width:59.0551; stroke-opacity:1; 
stroke-linecap:round; stroke-linejoin:round;">
<path d="M33591 78117
L33615 78093
L33664 78069
L33786 78069
L33835 78093
L33859 78117
L33884 78166
L33884 78215
L33859 78288
L33567 78580
L33884 78580
" />
</g>
<g style="fill:#000000; fill-opacity:0.0; 
stroke:#000000; stroke-width:39.3701; stroke-opacity:1; 
stroke-linecap:round; stroke-linejoin:round;">
</g>
<g style="fill:#000000; fill-opacity:0.0; 
stroke:#000000; stroke-width:59.0551; stroke-opacity:1; 
stroke-linecap:round; stroke-linejoin:round;">
<path d="M53252 78069
L53569 78069
L53398 78263
L53471 78263
L53520 78288
L53544 78312
L53569 78361
L53569 78483
L53544 78532
L53520 78556
L53471 78580
L53325 78580
L53276 78556
L53252 78532
" />
</g>
<g style="fill:#000000; fill-opacity:0.0; 
stroke:#000000; stroke-width:39.3701; stroke-opacity:1; 
stroke-linecap:round; stroke-linejoin:round;">
</g>
<g style="fill:#000000; fill-opacity:0.0; 
stroke:#000000; stroke-width:59.0551; stroke-opacity:1; 
stroke-linecap:round; stroke-linejoin:round;">
<path d="M73205 78239
L73205 78580
" />
<path d="M73083 78044
L72961 78410
L73278 78410
" />
</g>
<g style="fill:#000000; fill-opacity:0.0; 
stroke:#000000; stroke-width:39.3701; stroke-opacity:1; 
stroke-linecap:round; stroke-linejoin:round;">
</g>
<g style="fill:#000000; fill-opacity:0.0; 
stroke:#000000; stroke-width:59.0551; stroke-opacity:1; 
stroke-linecap:round; stroke-linejoin:round;">
<path d="M92914 78069
L92671 78069
L92646 78312
L92671 78288
L92719 78263
L92841 78263
L92890 78288
L92914 78312
L92939 78361
L92939 78483
L92914 78532
L92890 78556
L92841 78580
L92719 78580
L92671 78556
L92646 78532
" />
</g>
<g style="fill:#000000; fill-opacity:0.0; 
stroke:#000000; stroke-width:39.3701; stroke-opacity:1; 
stroke-linecap:round; stroke-linejoin:round;">
</g>
<g style="fill:#000000; fill-opacity:0.0; 
stroke:#000000; stroke-width:59.0551; stroke-opacity:1; 
stroke-linecap:round; stroke-linejoin:round;">
<path d="M112575 78069
L112477 78069
L112429 78093
L112404 78117
L112356 78190
L112331 78288
L112331 78483
L112356 78532
L112380 78556
L112429 78580
L112526 78580
L112575 78556
L112599 78532
L112624 78483
L112624 78361
L112599 78312
L112575 78288
L112526 78263
L112429 78263
L112380 78288
L112356 78312
L112331 78361
" />
</g>
<g style="fill:#000000; fill-opacity:0.0; 
stroke:#000000; stroke-width:39.3701; stroke-opacity:1; 
stroke-linecap:round; stroke-linejoin:round;">
</g>
<g style="fill:#000000; fill-opacity:0.0; 
stroke:#000000; stroke-width:59.0551; stroke-opacity:1; 
stroke-linecap:round; stroke-linejoin:round;">
<path d="M3937 23622
L4724 23622
" />
</g>
<g style="fill:#000000; fill-opacity:0.0; 
stroke:#000000; stroke-width:39.3701; stroke-opacity:1; 
stroke-linecap:round; stroke-linejoin:round;">
</g>
<g style="fill:#000000; fill-opacity:0.0; 
stroke:#000000; stroke-width:59.0551; stroke-opacity:1; 
stroke-linecap:round; stroke-linejoin:round;">
<path d="M3937 43307
L4724 43307
" />
</g>
<g style="fill:#000000; fill-opacity:0.0; 
stroke:#000000; stroke-width:39.3701; stroke-opacity:1; 
stroke-linecap:round; stroke-linejoin:round;">
</g>
<g style="fill:#000000; fill-opacity:0.0; 
stroke:#000000; stroke-width:59.0551; stroke-opacity:1; 
stroke-linecap:round; stroke-linejoin:round;">
<path d="M3937 62992
L4724 62992
" />
</g>
<g style="fill:#000000; fill-opacity:0.0; 
stroke:#000000; stroke-width:39.3701; stroke-opacity:1; 
stroke-linecap:round; stroke-linejoin:round;">
</g>
<g style="fill:#000000; fill-opacity:0.0; 
stroke:#000000; stroke-width:59.0551; stroke-opacity:1; 
stroke-linecap:round; stroke-linejoin:round;">
<path d="M4208 13864
L4452 13864
" />
<path d="M4160 14011
L4330 13499
L4501 14011
" />
</g>
<g style="fill:#000000; fill-opacity:0.0; 
stroke:#000000; stroke-width:39.3701; stroke-opacity:1; 
stroke-linecap:round; stroke-linejoin:round;">
</g>
<g style="fill:#000000; fill-opacity:0.0; 
stroke:#000000; stroke-width:59.0551; stroke-opacity:1; 
stroke-linecap:round; stroke-linejoin:round;">
<path d="M4367 33428
L4440 33452
L4464 33476
L4489 33525
L4489 33598
L4464 33647
L4440 33671
L4391 33696
L4196 33696
L4196 33184
L4367 33184
L4416 33208
L4440 33233
L4464 33281
L4464 33330
L4440 33379
L4416 33403
L4367 33428
L4196 33428
" />
</g>
<g style="fill:#000000; fill-opacity:0.0; 
stroke:#000000; stroke-width:39.3701; stroke-opacity:1; 
stroke-linecap:round; stroke-linejoin:round;">
</g>
<g style="fill:#000000; fill-opacity:0.0; 
stroke:#000000; stroke-width:59.0551; stroke-opacity:1; 
stroke-linecap:round; stroke-linejoin:round;">
<path d="M4489 53332
L4464 53356
L4391 53381
L4342 53381
L4269 53356
L4221 53308
L4196 53259
L4172 53161
L4172 53088
L4196 52991
L4221 52942
L4269 52893
L4342 52869
L4391 52869
L4464 52893
L4489 52918
" />
</g>
<g style="fill:#000000; fill-opacity:0.0; 
stroke:#000000; stroke-width:39.3701; stroke-opacity:1; 
stroke-linecap:round; stroke-linejoin:round;">
</g>
<g style="fill:#000000; fill-opacity:0.0; 
stroke:#000000; stroke-width:59.0551; stroke-opacity:1; 
stroke-linecap:round; stroke-linejoin:round;">
<path d="M4196 73066
L4196 72554
L4318 72554
L4391 72578
L4440 72627
L4464 72676
L4489 72773
L4489 72846
L4464 72944
L4440 72993
L4391 73041
L4318 73066
L4196 73066
" />
</g>
<g style="fill:#000000; fill-opacity:0.0; 
stroke:#000000; stroke-width:39.3701; stroke-opacity:1; 
stroke-linecap:round; stroke-linejoin:round;">
</g>
<g style="fill:#000000; fill-opacity:0.0; 
stroke:#000000; stroke-width:59.0551; stroke-opacity:1; 
stroke-linecap:round; stroke-linejoin:round;">
<path d="M112992 23622
L112205 23622
" />
</g>
<g style="fill:#000000; fill-opacity:0.0; 
stroke:#000000; stroke-width:39.3701; stroke-opacity:1; 
stroke-linecap:round; stroke-linejoin:round;">
</g>
<g style="fill:#000000; fill-opacity:0.0; 
stroke:#000000; stroke-width:59.0551; stroke-opacity:1; 
stroke-linecap:round; stroke-linejoin:round;">
<path d="M112992 43307
L112205 43307
" />
</g>
<g style="fill:#000000; fill-opacity:0.0; 
stroke:#000000; stroke-width:39.3701; stroke-opacity:1; 
stroke-linecap:round; stroke-linejoin:round;">
</g>
<g style="fill:#000000; fill-opacity:0.0; 
stroke:#000000; stroke-width:59.0551; stroke-opacity:1; 
stroke-linecap:round; stroke-linejoin:round;">
<path d="M112992 62992
L112205 62992
" />
</g>
<g style="fill:#000000; fill-opacity:0.0; 
stroke:#000000; stroke-width:39.3701; stroke-opacity:1; 
stroke-linecap:round; stroke-linejoin:round;">
</g>
<g style="fill:#000000; fill-opacity:0.0; 
stroke:#000000; stroke-width:59.0551; stroke-opacity:1; 
stroke-linecap:round; stroke-linejoin:round;">
<path d="M112477 13864
L112721 13864
" />
<path d="M112428 14011
L112599 13499
L112769 14011
" />
</g>
<g style="fill:#000000; fill-opacity:0.0; 
stroke:#000000; stroke-width:39.3701; stroke-opacity:1; 
stroke-linecap:round; stroke-linejoin:round;">
</g>
<g style="fill:#000000; fill-opacity:0.0; 
stroke:#000000; stroke-width:59.0551; stroke-opacity:1; 
stroke-linecap:round; stroke-linejoin:round;">
<path d="M112635 33428
L112708 33452
L112733 33476
L112757 33525
L112757 33598
L112733 33647
L112708 33671
L112660 33696
L112465 33696
L112465 33184
L112635 33184
L112684 33208
L112708 33233
L112733 33281
L112733 33330
L112708 33379
L112684 33403
L112635 33428
L112465 33428
" />
</g>
<g style="fill:#000000; fill-opacity:0.0; 
stroke:#000000; stroke-width:39.3701; stroke-opacity:1; 
stroke-linecap:round; stroke-linejoin:round;">
</g>
<g style="fill:#000000; fill-opacity:0.0; 
stroke:#000000; stroke-width:59.0551; stroke-opacity:1; 
stroke-linecap:round; stroke-linejoin:round;">
<path d="M112757 53332
L112733 53356
L112660 53381
L112611 53381
L112538 53356
L112489 53308
L112465 53259
L112440 53161
L112440 53088
L112465 52991
L112489 52942
L112538 52893
L112611 52869
L112660 52869
L112733 52893
L112757 52918
" />
</g>
<g style="fill:#000000; fill-opacity:0.0; 
stroke:#000000; stroke-width:39.3701; stroke-opacity:1; 
stroke-linecap:round; stroke-linejoin:round;">
</g>
<g style="fill:#000000; fill-opacity:0.0; 
stroke:#000000; stroke-width:59.0551; stroke-opacity:1; 
stroke-linecap:round; stroke-linejoin:round;">
<path d="M112465 73066
L112465 72554
L112587 72554
L112660 72578
L112708 72627
L112733 72676
L112757 72773
L112757 72846
L112733 72944
L112708 72993
L112660 73041
L112587 73066
L112465 73066
" />
</g>
<g style="fill:#000000; fill-opacity:0.0; 
stroke:#000000; stroke-width:39.3701; stroke-opacity:1; 
stroke-linecap:round; stroke-linejoin:round;">
</g>
<g style="fill:#000000; fill-opacity:0.0; 
stroke:#000000; stroke-width:59.0551; stroke-opacity:1; 
stroke-linecap:round; stroke-linejoin:round;">
<path d="M78911 76293
L78911 75703
L79051 75703
L79136 75731
L79192 75787
L79220 75843
L79248 75956
L79248 76040
L79220 76153
L79192 76209
L79136 76265
L79051 76293
L78911 76293
" />
<path d="M79754 76293
L79754 75984
L79726 75928
L79670 75899
L79557 75899
L79501 75928
" />
<path d="M79754 76265
L79698 76293
L79557 76293
L79501 76265
L79473 76209
L79473 76153
L79501 76096
L79557 76068
L79698 76068
L79754 76040
" />
<path d="M79951 75899
L80176 75899
" />
<path d="M80036 75703
L80036 76209
L80064 76265
L80120 76293
L80176 76293
" />
<path d="M80598 76265
L80542 76293
L80429 76293
L80373 76265
L80345 76209
L80345 75984
L80373 75928
L80429 75899
L80542 75899
L80598 75928
L80626 75984
L80626 76040
L80345 76096
" />
<path d="M80879 76237
L80907 76265
L80879 76293
L80851 76265
L80879 76237
L80879 76293
" />
<path d="M80879 75928
L80907 75956
L80879 75984
L80851 75956
L80879 75928
L80879 75984
" />
</g>
<g style="fill:#000000; fill-opacity:0.0; 
stroke:#000000; stroke-width:39.3701; stroke-opacity:1; 
stroke-linecap:round; stroke-linejoin:round;">
</g>
<g style="fill:#000000; fill-opacity:0.0; 
stroke:#000000; stroke-width:59.0551; stroke-opacity:1; 
stroke-linecap:round; stroke-linejoin:round;">
<path d="M69685 76577
L112205 76577
" />
</g>
<g style="fill:#000000; fill-opacity:0.0; 
stroke:#000000; stroke-width:39.3701; stroke-opacity:1; 
stroke-linecap:round; stroke-linejoin:round;">
</g>
<g style="fill:#000000; fill-opacity:0.0; 
stroke:#000000; stroke-width:59.0551; stroke-opacity:1; 
stroke-linecap:round; stroke-linejoin:round;">
<path d="M70249 77395
L70249 76805
" />
<path d="M70587 77395
L70334 77058
" />
<path d="M70587 76805
L70249 77142
" />
<path d="M70840 77395
L70840 77002
" />
<path d="M70840 76805
L70812 76833
L70840 76861
L70868 76833
L70840 76805
L70840 76861
" />
<path d="M71458 77339
L71430 77367
L71346 77395
L71290 77395
L71205 77367
L71149 77311
L71121 77255
L71093 77142
L71093 77058
L71121 76946
L71149 76889
L71205 76833
L71290 76805
L71346 76805
L71430 76833
L71458 76861
" />
<path d="M71965 77395
L71965 77086
L71937 77030
L71880 77002
L71768 77002
L71712 77030
" />
<path d="M71965 77367
L71908 77395
L71768 77395
L71712 77367
L71683 77311
L71683 77255
L71712 77199
L71768 77171
L71908 77171
L71965 77142
" />
<path d="M72499 77395
L72499 76805
" />
<path d="M72499 77367
L72443 77395
L72330 77395
L72274 77367
L72246 77339
L72218 77283
L72218 77114
L72246 77058
L72274 77030
L72330 77002
L72443 77002
L72499 77030
" />
<path d="M73230 77086
L73427 77086
" />
<path d="M73511 77395
L73230 77395
L73230 76805
L73511 76805
" />
<path d="M73764 77339
L73793 77367
L73764 77395
L73736 77367
L73764 77339
L73764 77395
" />
<path d="M74046 77395
L74046 76805
L74186 76805
L74271 76833
L74327 76889
L74355 76946
L74383 77058
L74383 77142
L74355 77255
L74327 77311
L74271 77367
L74186 77395
L74046 77395
" />
<path d="M74636 77339
L74664 77367
L74636 77395
L74608 77367
L74636 77339
L74636 77395
" />
<path d="M74889 77227
L75171 77227
" />
<path d="M74833 77395
L75030 76805
L75227 77395
" />
<path d="M75424 77339
L75452 77367
L75424 77395
L75395 77367
L75424 77339
L75424 77395
" />
<path d="M76605 77395
L76605 76805
" />
<path d="M76661 77171
L76830 77395
" />
<path d="M76830 77002
L76605 77227
" />
<path d="M77083 77395
L77083 77002
" />
<path d="M77083 76805
L77055 76833
L77083 76861
L77111 76833
L77083 76805
L77083 76861
" />
<path d="M77617 77367
L77561 77395
L77448 77395
L77392 77367
L77364 77339
L77336 77283
L77336 77114
L77364 77058
L77392 77030
L77448 77002
L77561 77002
L77617 77030
" />
<path d="M78123 77395
L78123 77086
L78095 77030
L78039 77002
L77926 77002
L77870 77030
" />
<path d="M78123 77367
L78067 77395
L77926 77395
L77870 77367
L77842 77311
L77842 77255
L77870 77199
L77926 77171
L78067 77171
L78123 77142
" />
<path d="M78658 77395
L78658 76805
" />
<path d="M78658 77367
L78601 77395
L78489 77395
L78433 77367
L78404 77339
L78376 77283
L78376 77114
L78404 77058
L78433 77030
L78489 77002
L78601 77002
L78658 77030
" />
<path d="M79557 77620
L79529 77592
L79473 77508
L79445 77452
L79417 77367
L79389 77227
L79389 77114
L79417 76974
L79445 76889
L79473 76833
L79529 76749
L79557 76721
" />
<path d="M80064 76805
L79782 76805
L79754 77086
L79782 77058
L79839 77030
L79979 77030
L80036 77058
L80064 77086
L80092 77142
L80092 77283
L80064 77339
L80036 77367
L79979 77395
L79839 77395
L79782 77367
L79754 77339
" />
<path d="M80345 77339
L80373 77367
L80345 77395
L80317 77367
L80345 77339
L80345 77395
" />
<path d="M80935 77395
L80598 77395
" />
<path d="M80767 77395
L80767 76805
L80710 76889
L80654 76946
L80598 76974
" />
<path d="M81188 77339
L81217 77367
L81188 77395
L81160 77367
L81188 77339
L81188 77395
" />
<path d="M81723 77002
L81723 77395
" />
<path d="M81582 76777
L81442 77199
L81807 77199
" />
<path d="M81976 77620
L82004 77592
L82060 77508
L82088 77452
L82117 77367
L82145 77227
L82145 77114
L82117 76974
L82088 76889
L82060 76833
L82004 76749
L81976 76721
" />
<path d="M82426 77171
L82876 77171
" />
<path d="M83466 77395
L83129 77395
" />
<path d="M83298 77395
L83298 76805
L83241 76889
L83185 76946
L83129 76974
" />
</g>
<g style="fill:#000000; fill-opacity:0.0; 
stroke:#000000; stroke-width:39.3701; stroke-opacity:1; 
stroke-linecap:round; stroke-linejoin:round;">
</g>
<g style="fill:#000000; fill-opacity:0.0; 
stroke:#000000; stroke-width:59.0551; stroke-opacity:1; 
stroke-linecap:round; stroke-linejoin:round;">
<path d="M69685 75396
L112205 75396
" />
</g>
<g style="fill:#000000; fill-opacity:0.0; 
stroke:#000000; stroke-width:39.3701; stroke-opacity:1; 
stroke-linecap:round; stroke-linejoin:round;">
</g>
<g style="fill:#000000; fill-opacity:0.0; 
stroke:#000000; stroke-width:118.11; stroke-opacity:1; 
stroke-linecap:round; stroke-linejoin:round;">
<path d="M104099 76293
L103902 76012
" />
<path d="M103761 76293
L103761 75703
L103986 75703
L104042 75731
L104070 75759
L104099 75815
L104099 75899
L104070 75956
L104042 75984
L103986 76012
L103761 76012
" />
<path d="M104577 76265
L104520 76293
L104408 76293
L104352 76265
L104323 76209
L104323 75984
L104352 75928
L104408 75899
L104520 75899
L104577 75928
L104605 75984
L104605 76040
L104323 76096
" />
<path d="M104802 75899
L104942 76293
L105083 75899
" />
<path d="M105308 76237
L105336 76265
L105308 76293
L105280 76265
L105308 76237
L105308 76293
" />
<path d="M105308 75928
L105336 75956
L105308 75984
L105280 75956
L105308 75928
L105308 75984
" />
</g>
<g style="fill:#000000; fill-opacity:0.0; 
stroke:#000000; stroke-width:39.3701; stroke-opacity:1; 
stroke-linecap:round; stroke-linejoin:round;">
</g>
<g style="fill:#000000; fill-opacity:0.0; 
stroke:#000000; stroke-width:59.0551; stroke-opacity:1; 
stroke-linecap:round; stroke-linejoin:round;">
<path d="M70221 76265
L70305 76293
L70446 76293
L70502 76265
L70530 76237
L70559 76181
L70559 76124
L70530 76068
L70502 76040
L70446 76012
L70334 75984
L70277 75956
L70249 75928
L70221 75871
L70221 75815
L70249 75759
L70277 75731
L70334 75703
L70474 75703
L70559 75731
" />
<path d="M70812 76293
L70812 75899
" />
<path d="M70812 75703
L70784 75731
L70812 75759
L70840 75731
L70812 75703
L70812 75759
" />
<path d="M71037 75899
L71346 75899
L71037 76293
L71346 76293
" />
<path d="M71796 76265
L71740 76293
L71627 76293
L71571 76265
L71543 76209
L71543 75984
L71571 75928
L71627 75899
L71740 75899
L71796 75928
L71824 75984
L71824 76040
L71543 76096
" />
<path d="M72077 76237
L72105 76265
L72077 76293
L72049 76265
L72077 76237
L72077 76293
" />
<path d="M72077 75928
L72105 75956
L72077 75984
L72049 75956
L72077 75928
L72077 75984
" />
<path d="M72780 76124
L73061 76124
" />
<path d="M72724 76293
L72921 75703
L73118 76293
" />
<path d="M73568 75899
L73568 76293
" />
<path d="M73427 75674
L73286 76096
L73652 76096
" />
</g>
<g style="fill:#000000; fill-opacity:0.0; 
stroke:#000000; stroke-width:39.3701; stroke-opacity:1; 
stroke-linecap:round; stroke-linejoin:round;">
</g>
<g style="fill:#000000; fill-opacity:0.0; 
stroke:#000000; stroke-width:59.0551; stroke-opacity:1; 
stroke-linecap:round; stroke-linejoin:round;">
<path d="M103714 77395
L103714 76805
" />
<path d="M104248 77395
L104248 76805
" />
<path d="M104248 77367
L104192 77395
L104079 77395
L104023 77367
L103995 77339
L103967 77283
L103967 77114
L103995 77058
L104023 77030
L104079 77002
L104192 77002
L104248 77030
" />
<path d="M104529 77339
L104557 77367
L104529 77395
L104501 77367
L104529 77339
L104529 77395
" />
<path d="M104529 77030
L104557 77058
L104529 77086
L104501 77058
L104529 77030
L104529 77086
" />
<path d="M105570 77395
L105232 77395
" />
<path d="M105401 77395
L105401 76805
L105345 76889
L105289 76946
L105232 76974
" />
<path d="M106245 76777
L105739 77536
" />
<path d="M106751 77395
L106413 77395
" />
<path d="M106582 77395
L106582 76805
L106526 76889
L106470 76946
L106413 76974
" />
</g>
<g style="fill:#000000; fill-opacity:0.0; 
stroke:#000000; stroke-width:39.3701; stroke-opacity:1; 
stroke-linecap:round; stroke-linejoin:round;">
</g>
<g style="fill:#000000; fill-opacity:0.0; 
stroke:#000000; stroke-width:59.0551; stroke-opacity:1; 
stroke-linecap:round; stroke-linejoin:round;">
<path d="M69685 73821
L112205 73821
" />
</g>
<g style="fill:#000000; fill-opacity:0.0; 
stroke:#000000; stroke-width:39.3701; stroke-opacity:1; 
stroke-linecap:round; stroke-linejoin:round;">
</g>
<g style="fill:#000000; fill-opacity:0.0; 
stroke:#000000; stroke-width:157.48; stroke-opacity:1; 
stroke-linecap:round; stroke-linejoin:round;">
<path d="M70360 74099
L70810 74099
" />
<path d="M70486 74886
L70585 74099
" />
<path d="M70974 74886
L71039 74361
" />
<path d="M71072 74099
L71030 74136
L71063 74174
L71105 74136
L71072 74099
L71063 74174
" />
<path d="M71302 74361
L71602 74361
" />
<path d="M71447 74099
L71363 74774
L71391 74849
L71461 74886
L71536 74886
" />
<path d="M71911 74886
L71841 74849
L71813 74774
L71897 74099
" />
<path d="M72516 74849
L72436 74886
L72286 74886
L72216 74849
L72187 74774
L72225 74474
L72272 74399
L72352 74361
L72501 74361
L72572 74399
L72600 74474
L72591 74549
L72206 74624
" />
<path d="M72895 74811
L72928 74849
L72886 74886
L72853 74849
L72895 74811
L72886 74886
" />
<path d="M72947 74399
L72980 74436
L72937 74474
L72905 74436
L72947 74399
L72937 74474
" />
</g>
<g style="fill:#000000; fill-opacity:0.0; 
stroke:#000000; stroke-width:39.3701; stroke-opacity:1; 
stroke-linecap:round; stroke-linejoin:round;">
</g>
<g style="fill:#000000; fill-opacity:0.0; 
stroke:#000000; stroke-width:59.0551; stroke-opacity:1; 
stroke-linecap:round; stroke-linejoin:round;">
<path d="M70446 73070
L70249 73070
" />
<path d="M70249 73380
L70249 72789
L70530 72789
" />
<path d="M70755 73380
L70755 72986
" />
<path d="M70755 72789
L70727 72817
L70755 72845
L70784 72817
L70755 72789
L70755 72845
" />
<path d="M71121 73380
L71065 73352
L71037 73295
L71037 72789
" />
<path d="M71571 73352
L71515 73380
L71402 73380
L71346 73352
L71318 73295
L71318 73070
L71346 73014
L71402 72986
L71515 72986
L71571 73014
L71599 73070
L71599 73127
L71318 73183
" />
<path d="M71852 73323
L71880 73352
L71852 73380
L71824 73352
L71852 73323
L71852 73380
" />
<path d="M71852 73014
L71880 73042
L71852 73070
L71824 73042
L71852 73014
L71852 73070
" />
<path d="M72865 73380
L72583 73380
L72583 72789
" />
<path d="M73061 73380
L73061 72986
" />
<path d="M73061 72789
L73033 72817
L73061 72845
L73090 72817
L73061 72789
L73061 72845
" />
<path d="M73427 73380
L73371 73352
L73343 73295
L73343 72789
" />
<path d="M73596 72986
L73736 73380
" />
<path d="M73877 72986
L73736 73380
L73680 73520
L73652 73548
L73596 73577
" />
<path d="M74383 72789
L74102 72789
L74074 73070
L74102 73042
L74158 73014
L74299 73014
L74355 73042
L74383 73070
L74411 73127
L74411 73267
L74383 73323
L74355 73352
L74299 73380
L74158 73380
L74102 73352
L74074 73323
" />
<path d="M74749 73042
L74692 73014
L74664 72986
L74636 72930
L74636 72902
L74664 72845
L74692 72817
L74749 72789
L74861 72789
L74917 72817
L74946 72845
L74974 72902
L74974 72930
L74946 72986
L74917 73014
L74861 73042
L74749 73042
L74692 73070
L74664 73099
L74636 73155
L74636 73267
L74664 73323
L74692 73352
L74749 73380
L74861 73380
L74917 73352
L74946 73323
L74974 73267
L74974 73155
L74946 73099
L74917 73070
L74861 73042
" />
<path d="M75086 73436
L75536 73436
" />
<path d="M75677 73380
L75677 72789
L75902 72789
L75958 72817
L75986 72845
L76014 72902
L76014 72986
L75986 73042
L75958 73070
L75902 73099
L75677 73099
" />
<path d="M76267 73380
L76267 72986
" />
<path d="M76267 73099
L76295 73042
L76323 73014
L76380 72986
L76436 72986
" />
<path d="M76717 73380
L76661 73352
L76633 73323
L76605 73267
L76605 73099
L76633 73042
L76661 73014
L76717 72986
L76802 72986
L76858 73014
L76886 73042
L76914 73099
L76914 73267
L76886 73323
L76858 73352
L76802 73380
L76717 73380
" />
<path d="M77167 73323
L77195 73352
L77167 73380
L77139 73352
L77167 73323
L77167 73380
" />
<path d="M77448 73380
L77448 72789
" />
<path d="M77505 73155
L77673 73380
" />
<path d="M77673 72986
L77448 73211
" />
<path d="M77926 73380
L77926 72986
" />
<path d="M77926 72789
L77898 72817
L77926 72845
L77955 72817
L77926 72789
L77926 72845
" />
<path d="M78461 73352
L78404 73380
L78292 73380
L78236 73352
L78208 73323
L78180 73267
L78180 73099
L78208 73042
L78236 73014
L78292 72986
L78404 72986
L78461 73014
" />
<path d="M78967 73380
L78967 73070
L78939 73014
L78883 72986
L78770 72986
L78714 73014
" />
<path d="M78967 73352
L78911 73380
L78770 73380
L78714 73352
L78686 73295
L78686 73239
L78714 73183
L78770 73155
L78911 73155
L78967 73127
" />
<path d="M79501 73380
L79501 72789
" />
<path d="M79501 73352
L79445 73380
L79332 73380
L79276 73352
L79248 73323
L79220 73267
L79220 73099
L79248 73042
L79276 73014
L79332 72986
L79445 72986
L79501 73014
" />
<path d="M79642 73436
L80092 73436
" />
<path d="M80232 72986
L80232 73577
" />
<path d="M80232 73014
L80289 72986
L80401 72986
L80457 73014
L80485 73042
L80514 73099
L80514 73267
L80485 73323
L80457 73352
L80401 73380
L80289 73380
L80232 73352
" />
<path d="M81020 73352
L80964 73380
L80851 73380
L80795 73352
L80767 73323
L80739 73267
L80739 73099
L80767 73042
L80795 73014
L80851 72986
L80964 72986
L81020 73014
" />
<path d="M81273 73380
L81273 72789
" />
<path d="M81273 73014
L81329 72986
L81442 72986
L81498 73014
L81526 73042
L81554 73099
L81554 73267
L81526 73323
L81498 73352
L81442 73380
L81329 73380
L81273 73352
" />
</g>
<g style="fill:#000000; fill-opacity:0.0; 
stroke:#000000; stroke-width:39.3701; stroke-opacity:1; 
stroke-linecap:round; stroke-linejoin:round;">
</g>
<g style="fill:#000000; fill-opacity:0.0; 
stroke:#000000; stroke-width:59.0551; stroke-opacity:1; 
stroke-linecap:round; stroke-linejoin:round;">
<path d="M69685 71459
L112205 71459
" />
</g>
<g style="fill:#000000; fill-opacity:0.0; 
stroke:#000000; stroke-width:39.3701; stroke-opacity:1; 
stroke-linecap:round; stroke-linejoin:round;">
</g>
<g style="fill:#000000; fill-opacity:0.0; 
stroke:#000000; stroke-width:59.0551; stroke-opacity:1; 
stroke-linecap:round; stroke-linejoin:round;">
<path d="M70221 72289
L70305 72317
L70446 72317
L70502 72289
L70530 72260
L70559 72204
L70559 72148
L70530 72092
L70502 72064
L70446 72036
L70334 72007
L70277 71979
L70249 71951
L70221 71895
L70221 71839
L70249 71782
L70277 71754
L70334 71726
L70474 71726
L70559 71754
" />
<path d="M70812 72317
L70812 71726
" />
<path d="M71065 72317
L71065 72007
L71037 71951
L70980 71923
L70896 71923
L70840 71951
L70812 71979
" />
<path d="M71571 72289
L71515 72317
L71402 72317
L71346 72289
L71318 72232
L71318 72007
L71346 71951
L71402 71923
L71515 71923
L71571 71951
L71599 72007
L71599 72064
L71318 72120
" />
<path d="M72077 72289
L72021 72317
L71908 72317
L71852 72289
L71824 72232
L71824 72007
L71852 71951
L71908 71923
L72021 71923
L72077 71951
L72105 72007
L72105 72064
L71824 72120
" />
<path d="M72274 71923
L72499 71923
" />
<path d="M72358 71726
L72358 72232
L72386 72289
L72443 72317
L72499 72317
" />
<path d="M72696 72260
L72724 72289
L72696 72317
L72668 72289
L72696 72260
L72696 72317
" />
<path d="M72696 71951
L72724 71979
L72696 72007
L72668 71979
L72696 71951
L72696 72007
" />
</g>
<g style="fill:#000000; fill-opacity:0.0; 
stroke:#000000; stroke-width:39.3701; stroke-opacity:1; 
stroke-linecap:round; stroke-linejoin:round;">
</g>
<g style="fill:#000000; fill-opacity:0.0; 
stroke:#000000; stroke-width:59.0551; stroke-opacity:1; 
stroke-linecap:round; stroke-linejoin:round;">
<path d="M77559 75396
L77559 76577
" />
</g>
<g style="fill:#000000; fill-opacity:0.0; 
stroke:#000000; stroke-width:39.3701; stroke-opacity:1; 
stroke-linecap:round; stroke-linejoin:round;">
</g>
<g style="fill:#000000; fill-opacity:0.0; 
stroke:#000000; stroke-width:59.0551; stroke-opacity:1; 
stroke-linecap:round; stroke-linejoin:round;">
<path d="M102756 75396
L102756 77955
" />
<path d="M28415.4 52096.5 A1927.47 1927.47 0.0 0 0 28612 53134 " />
<path d="M32165 59305 A1932.98 1932.98 0.0 0 0 34781.7 60086.8 " />
<path d="M28612 53133
L32165 59304
" />
<path d="M41124 56406
L34781 60086
" />
<path d="M96503 47555
L96503 8876
" />
<path d="M88173 47555
L96503 47555
" />
<path d="M43267 14480
L43267 6790
" />
<path d="M32653 14480
L43267 14480
" />
<path d="M32652 15014
L32653 14480
" />
</g>
<g style="fill:#000000; fill-opacity:0.0; 
stroke:#000000; stroke-width:78.7402; stroke-opacity:1; 
stroke-linecap:round; stroke-linejoin:round;">
<path d="M94704 7903
L92592 7478
" />
<path d="M92592 7478
L89795 7108
" />
<path d="M45742 53732
L46402 53350
" />
<path d="M45083 54114
L45742 53732
" />
<path d="M32652 19980
L32652 17497
" />
<path d="M32652 22463
L32652 19980
" />
<path d="M55973 6376
L51875 6376
" />
<path d="M86099 47555
L88173 47555
" />
<path d="M84025 47555
L86099 47555
" />
<path d="M81951 47555
L84025 47555
" />
<path d="M79877 47555
L81951 47555
" />
<path d="M77803 47555
L79877 47555
" />
<path d="M75730 47555
L77803 47555
" />
<path d="M73656 47555
L75730 47555
" />
<path d="M71582 47555
L73656 47555
" />
<path d="M71304 47582
L71582 47555
" />
<path d="M71045 47663
L71304 47582
" />
<path d="M70811 47790
L71045 47663
" />
<path d="M70607 47958
L70811 47790
" />
<path d="M70439 48162
L70607 47958
" />
<path d="M70312 48396
L70439 48162
" />
<path d="M70232 48655
L70312 48396
" />
<path d="M70204 48932
L70232 48655
" />
<path d="M86404 6803
L82511 6572
" />
<path d="M89795 7108
L86404 6803
" />
<path d="M78208 6427
L73586 6376
" />
<path d="M82511 6572
L78208 6427
" />
<path d="M69944 53250
L69843 53304
" />
<path d="M70031 53178
L69944 53250
" />
<path d="M70103 53090
L70031 53178
" />
<path d="M70158 52990
L70103 53090
" />
<path d="M70192 52879
L70158 52990
" />
<path d="M70204 52769
L70192 52879
" />
<path d="M32652 27429
L32652 24946
" />
<path d="M32652 29912
L32652 27429
" />
<path d="M32652 32395
L32652 29912
" />
<path d="M32652 34878
L32652 32395
" />
<path d="M51875 6376
L47777 6376
" />
<path d="M60070 6376
L55973 6376
" />
<path d="M64168 6376
L60070 6376
" />
<path d="M68265 6376
L64168 6376
" />
<path d="M73586 6376
L68265 6376
" />
<path d="M43449 6447
L43519 6409
" />
<path d="M43388 6497
L43449 6447
" />
<path d="M43337 6558
L43388 6497
" />
<path d="M43299 6629
L43337 6558
" />
<path d="M43275 6706
L43299 6629
" />
<path d="M43267 6790
L43275 6706
" />
<path d="M43597 6385
L43680 6376
" />
<path d="M43519 6409
L43597 6385
" />
<path d="M47777 6376
L43680 6376
" />
<path d="M32652 24946
L32652 22463
" />
<path d="M32652 17497
L32652 15014
" />
<path d="M32652 34878
L28415 52096
" />
<path d="M44423 54496
L45083 54114
" />
<path d="M43763 54878
L44423 54496
" />
<path d="M43103 55260
L43763 54878
" />
<path d="M42444 55642
L43103 55260
" />
<path d="M41784 56024
L42444 55642
" />
<path d="M41124 56406
L41784 56024
" />
<path d="M66712 53351
L69613 53351
" />
<path d="M63811 53351
L66712 53351
" />
<path d="M60909 53351
L63811 53351
" />
<path d="M58008 53351
L60909 53351
" />
<path d="M55106 53351
L58008 53351
" />
<path d="M52205 53351
L55106 53351
" />
<path d="M49304 53351
L52205 53351
" />
<path d="M46402 53351
L49304 53351
" />
<path d="M70204 52289
L70204 52769
" />
<path d="M70204 51810
L70204 52289
" />
<path d="M70204 51330
L70204 51810
" />
<path d="M70204 50851
L70204 51330
" />
<path d="M70204 50371
L70204 50851
" />
<path d="M70204 49892
L70204 50371
" />
<path d="M70204 49412
L70204 49892
" />
<path d="M70204 48932
L70204 49412
" />
<path d="M69733 53339
L69613 53351
" />
<path d="M69843 53304
L69733 53339
" />
<path d="M96038 8372
L94704 7903
" />
<path d="M96503 8876
L96038 8372
" />
</g>
<g style="fill:#000000; fill-opacity:0.0; 
stroke:#000000; stroke-width:118.11; stroke-opacity:1; 
stroke-linecap:round; stroke-linejoin:round;">
<path d="M37899 24395
L38041 24279
" />
<path d="M40892 23913
L41017 24010
" />
<path d="M39507 18722
L39629 18669
" />
<path d="M37425 22417
L37671 22424
" />
<path d="M37711 21378
L37910 21373
" />
<path d="M38046 20439
L38263 20422
" />
<path d="M41163 23231
L41380 23270
" />
<path d="M40036 19418
L40161 19359
" />
<path d="M40963 21113
L41116 21083
" />
<path d="M37386 23332
L37547 23318
" />
<path d="M38515 19218
L38723 19279
" />
<path d="M40271 24430
L40363 24549
" />
<path d="M40520 20191
L40658 20169
" />
<path d="M41186 22250
L41402 22252
" />
</g>
<g style="fill:#000000; fill-opacity:1.0; 
stroke:#000000; stroke-width:39.3701; stroke-opacity:1; 
stroke-linecap:round; stroke-linejoin:round;">
<path style="fill:#000000; fill-opacity:1.0; 
stroke:#000000; stroke-width:39.3701; stroke-opacity:1; 
stroke-linecap:round; stroke-linejoin:round;fill-rule:evenodd;"
d="M 39401,24827
39951,24777
40363,24549
40301,24427
41001,24027
40901,23927
41380,23270
41201,23227
41401,22327
41351,22227
41186,22250
41116,21083
40951,21077
40658,20169
40501,20177
40151,19377
40051,19427
39629,18669
39507,18722
38951,17977
38851,18077
38723,19279
38501,19227
38251,20377
38046,20439
37951,20877
37901,21327
37711,21378
37651,22377
37425,22417
37547,23318
37401,23327
37651,23827
38001,24277
37901,24377
38501,24777
39001,24877
39301,24027
39601,22527
39701,21627
39701,21227
39601,20277
39401,19527
39301,18927
39451,19077
39601,19677
39901,20877
39951,22027
39801,23177
39501,24277
Z" /> 
<path style="fill:#000000; fill-opacity:1.0; 
stroke:#000000; stroke-width:39.3701; stroke-opacity:1; 
stroke-linecap:round; stroke-linejoin:round;fill-rule:evenodd;"
d="M 38701,25527
38896,25596
39251,25077
39001,25077
Z" /> 
</g>
<g style="fill:#000000; fill-opacity:1.0; 
stroke:#000000; stroke-width:59.0551; stroke-opacity:1; 
stroke-linecap:round; stroke-linejoin:round;">
</g>
<g style="fill:#000000; fill-opacity:0.0; 
stroke:#000000; stroke-width:59.0551; stroke-opacity:1; 
stroke-linecap:round; stroke-linejoin:round;">
<path d="M34264 51303
L34975 52534
" />
<path d="M35612 50525
L34267 51302
" />
<path d="M38424 53857
L36726 50916
" />
<path d="M37092 54626
L38424 53857
" />
<path d="M37076 54635
L36066 52922
" />
<path d="M36726.9 50916.5 A819.955 819.955 0.0 0 0 35638.9 50515.4 " />
<path d="M36070.4 52932.1 A818.386 818.386 0.0 0 0 34984.5 52531.6 " />
<path d="M37200 50222
L36723 50497
" />
<path d="M36900 50804
L36961 50359
" />
<path d="M37377 50528
L36900 50804
" />
<path d="M36961 50359
L37377 50528
" />
<path d="M92267 39429
L92267 39980
" />
<path d="M92622 39980
L92267 39704
" />
<path d="M92622 39429
L92622 39980
" />
<path d="M92267 39704
L92622 39429
" />
<path d="M92275 38287
L92275 38838
" />
<path d="M92629 38838
L92275 38562
" />
<path d="M92629 38287
L92629 38838
" />
<path d="M92275 38562
L92629 38287
" />
<path d="M92188 24842
L92188 25393
" />
<path d="M92543 25393
L92188 25118
" />
<path d="M92543 24842
L92543 25393
" />
<path d="M92188 25118
L92543 24842
" />
<path d="M92196 23708
L92196 24259
" />
<path d="M92551 24259
L92196 23984
" />
<path d="M92551 23708
L92551 24259
" />
<path d="M92196 23984
L92551 23708
" />
<path d="M90000 13387
L91421 13387
" />
<path d="M90000 11830
L90000 13383
" />
<path d="M94291 11061
L90895 11061
" />
<path d="M94291 12600
L94291 11061
" />
<path d="M94291 12618
L92303 12636
" />
<path d="M90895.7 11061.4 A819.955 819.955 0.0 0 0 90004.3 11803.1 " />
<path d="M92313 12637.8 A818.386 818.386 0.0 0 0 91423.2 13378 " />
<path d="M90019 43348
L91440 43348
" />
<path d="M90019 41791
L90019 43344
" />
<path d="M94311 41022
L90915 41022
" />
<path d="M94311 42560
L94311 41022
" />
<path d="M94311 42578
L92322 42596
" />
<path d="M90915.4 41022 A819.955 819.955 0.0 0 0 90024 41763.8 " />
<path d="M92332.7 42598.4 A818.386 818.386 0.0 0 0 91442.9 43338.6 " />
<path d="M90000 35867
L91421 35867
" />
<path d="M90000 34311
L90000 35864
" />
<path d="M94291 33541
L90895 33541
" />
<path d="M94291 35080
L94291 33541
" />
<path d="M94291 35098
L92303 35116
" />
<path d="M90895.7 33541.7 A819.955 819.955 0.0 0 0 90004.3 34283.5 " />
<path d="M92313 35118.1 A818.386 818.386 0.0 0 0 91423.2 35858.3 " />
<path d="M90000 28308
L91421 28308
" />
<path d="M90000 26751
L90000 28305
" />
<path d="M94291 25982
L90895 25982
" />
<path d="M94291 27521
L94291 25982
" />
<path d="M94291 27539
L92303 27557
" />
<path d="M90895.7 25982.7 A819.955 819.955 0.0 0 0 90004.3 26724.4 " />
<path d="M92313 27559.1 A818.386 818.386 0.0 0 0 91423.2 28299.2 " />
<path d="M90000 20867
L91421 20867
" />
<path d="M90000 19311
L90000 20864
" />
<path d="M94291 18541
L90895 18541
" />
<path d="M94291 20080
L94291 18541
" />
<path d="M94291 20098
L92303 20116
" />
<path d="M90895.7 18541.7 A819.955 819.955 0.0 0 0 90004.3 19283.5 " />
<path d="M92313 20118.1 A818.386 818.386 0.0 0 0 91423.2 20858.3 " />
<path d="M92192 16216
L92192 16767
" />
<path d="M92547 16767
L92192 16492
" />
<path d="M92547 16216
L92547 16767
" />
<path d="M92192 16492
L92547 16216
" />
<path d="M82519 20867
L83940 20867
" />
<path d="M82519 19311
L82519 20864
" />
<path d="M86811 18541
L83415 18541
" />
<path d="M86811 20080
L86811 18541
" />
<path d="M86811 20098
L84822 20116
" />
<path d="M83415.4 18541.7 A819.955 819.955 0.0 0 0 82524 19283.5 " />
<path d="M84832.7 20118.1 A818.386 818.386 0.0 0 0 83942.9 20858.3 " />
<path d="M82519 13387
L83940 13387
" />
<path d="M82519 11830
L82519 13383
" />
<path d="M86811 11061
L83415 11061
" />
<path d="M86811 12600
L86811 11061
" />
<path d="M86811 12618
L84822 12636
" />
<path d="M83415.4 11061.4 A819.955 819.955 0.0 0 0 82524 11803.1 " />
<path d="M84832.7 12637.8 A818.386 818.386 0.0 0 0 83942.9 13378 " />
<path d="M75039 12796
L76460 12796
" />
<path d="M75039 11240
L75039 12793
" />
<path d="M79330 10470
L75935 10470
" />
<path d="M79330 12009
L79330 10470
" />
<path d="M79330 12027
L77342 12045
" />
<path d="M75935 10470.9 A819.955 819.955 0.0 0 0 75043.7 11212.6 " />
<path d="M77352.4 12047.2 A818.386 818.386 0.0 0 0 76462.6 12787.4 " />
<path d="M67519 10907
L68940 10907
" />
<path d="M67519 9350
L67519 10903
" />
<path d="M71811 8581
L68415 8581
" />
<path d="M71811 10119
L71811 8581
" />
<path d="M71811 10137
L69822 10155
" />
<path d="M68415.4 8581.1 A819.955 819.955 0.0 0 0 67524 9322.83 " />
<path d="M69832.7 10157.5 A818.386 818.386 0.0 0 0 68942.9 10897.6 " />
<path d="M60039 10359
L61460 10359
" />
<path d="M60039 8803
L60039 10356
" />
<path d="M64330 8033
L60935 8033
" />
<path d="M64330 9572
L64330 8033
" />
<path d="M64330 9590
L62342 9608
" />
<path d="M60935 8033.86 A819.955 819.955 0.0 0 0 60043.7 8775.59 " />
<path d="M62352.4 9610.24 A818.386 818.386 0.0 0 0 61462.6 10350.4 " />
<path d="M52519 10907
L53940 10907
" />
<path d="M52519 9350
L52519 10903
" />
<path d="M56811 8581
L53415 8581
" />
<path d="M56811 10119
L56811 8581
" />
<path d="M56811 10137
L54822 10155
" />
<path d="M53415.4 8581.1 A819.955 819.955 0.0 0 0 52524 9322.83 " />
<path d="M54832.7 10157.5 A818.386 818.386 0.0 0 0 53942.9 10897.6 " />
<path d="M45035 11851
L46456 11851
" />
<path d="M45035 10295
L45035 11848
" />
<path d="M49326 9525
L45931 9525
" />
<path d="M49326 11064
L49326 9525
" />
<path d="M49326 11082
L47338 11100
" />
<path d="M45931.1 9525.98 A819.955 819.955 0.0 0 0 45039.8 10267.7 " />
<path d="M47348.4 11102.4 A818.386 818.386 0.0 0 0 46458.7 11842.5 " />
<path d="M84724 15811
L84724 16362
" />
<path d="M85078 16362
L84724 16086
" />
<path d="M85078 15811
L85078 16362
" />
<path d="M84724 16086
L85078 15811
" />
<path d="M77240 14500
L77240 15051
" />
<path d="M77594 15051
L77240 14775
" />
<path d="M77594 14500
L77594 15051
" />
<path d="M77240 14775
L77594 14500
" />
<path d="M69716 13318
L69716 13870
" />
<path d="M70070 13870
L69716 13594
" />
<path d="M70070 13318
L70070 13870
" />
<path d="M69716 13594
L70070 13318
" />
<path d="M62232 12291
L62232 12842
" />
<path d="M62586 12842
L62232 12566
" />
<path d="M62586 12291
L62586 12842
" />
<path d="M62232 12566
L62586 12291
" />
<path d="M58866 11551
L58866 12102
" />
<path d="M59220 12102
L58866 11826
" />
<path d="M59220 11551
L59220 12102
" />
<path d="M58866 11826
L59220 11551
" />
<path d="M51208 12200
L51208 12751
" />
<path d="M51562 12751
L51208 12476
" />
<path d="M51562 12200
L51562 12751
" />
<path d="M51208 12476
L51562 12200
" />
<path d="M63582 45314
L63582 45866
" />
<path d="M63937 45866
L63582 45590
" />
<path d="M63937 45314
L63937 45866
" />
<path d="M63582 45590
L63937 45314
" />
<path d="M56062 45314
L56062 45866
" />
<path d="M56417 45866
L56062 45590
" />
<path d="M56417 45314
L56417 45866
" />
<path d="M56062 45590
L56417 45314
" />
<path d="M48582 46181
L48582 46732
" />
<path d="M48937 46732
L48582 46456
" />
<path d="M48937 46181
L48937 46732
" />
<path d="M48582 46456
L48937 46181
" />
<path d="M43368 46660
L42891 46935
" />
<path d="M43068 47242
L43129 46798
" />
<path d="M43545 46967
L43068 47242
" />
<path d="M43129 46798
L43545 46967
" />
<path d="M41377 34960
L41377 35511
" />
<path d="M41732 35511
L41377 35236
" />
<path d="M41732 34960
L41732 35511
" />
<path d="M41377 35236
L41732 34960
" />
<path d="M67322 21614
L67322 22165
" />
<path d="M67677 22165
L67322 21889
" />
<path d="M67677 21614
L67677 22165
" />
<path d="M67322 21889
L67677 21614
" />
<path d="M59842 21062
L59842 21614
" />
<path d="M60196 21614
L59842 21338
" />
<path d="M60196 21062
L60196 21614
" />
<path d="M59842 21338
L60196 21062
" />
<path d="M52677 21653
L52677 22204
" />
<path d="M53031 22204
L52677 21929
" />
<path d="M53031 21653
L53031 22204
" />
<path d="M52677 21929
L53031 21653
" />
<path d="M44842 22559
L44842 23110
" />
<path d="M45196 23110
L44842 22834
" />
<path d="M45196 22559
L45196 23110
" />
<path d="M44842 22834
L45196 22559
" />
<path d="M75039 27718
L76460 27718
" />
<path d="M75039 26161
L75039 27714
" />
<path d="M79330 25392
L75935 25392
" />
<path d="M79330 26930
L79330 25392
" />
<path d="M79330 26948
L77342 26966
" />
<path d="M75935 25392.1 A819.955 819.955 0.0 0 0 75043.7 26133.9 " />
<path d="M77352.4 26968.5 A818.386 818.386 0.0 0 0 76462.6 27708.7 " />
<path d="M56259 48367
L57681 48367
" />
<path d="M56259 46811
L56259 48364
" />
<path d="M60551 46041
L57155 46041
" />
<path d="M60551 47580
L60551 46041
" />
<path d="M60551 47598
L58562 47616
" />
<path d="M57155.5 46041.7 A819.955 819.955 0.0 0 0 56264.2 46783.5 " />
<path d="M58572.8 47618.1 A818.386 818.386 0.0 0 0 57683.1 48358.3 " />
<path d="M75039 35277
L76460 35277
" />
<path d="M75039 33720
L75039 35273
" />
<path d="M79330 32951
L75935 32951
" />
<path d="M79330 34489
L79330 32951
" />
<path d="M79330 34507
L77342 34525
" />
<path d="M75935 32951.2 A819.955 819.955 0.0 0 0 75043.7 33692.9 " />
<path d="M77352.4 34527.6 A818.386 818.386 0.0 0 0 76462.6 35267.7 " />
<path d="M75039 20277
L76460 20277
" />
<path d="M75039 18720
L75039 20273
" />
<path d="M79330 17951
L75935 17951
" />
<path d="M79330 19489
L79330 17951
" />
<path d="M79330 19507
L77342 19525
" />
<path d="M75935 17951.2 A819.955 819.955 0.0 0 0 75043.7 18692.9 " />
<path d="M77352.4 19527.6 A818.386 818.386 0.0 0 0 76462.6 20267.7 " />
<path d="M67519 18387
L68940 18387
" />
<path d="M67519 16830
L67519 18383
" />
<path d="M71811 16061
L68415 16061
" />
<path d="M71811 17600
L71811 16061
" />
<path d="M71811 17618
L69822 17636
" />
<path d="M68415.4 16061.4 A819.955 819.955 0.0 0 0 67524 16803.1 " />
<path d="M69832.7 17637.8 A818.386 818.386 0.0 0 0 68942.9 18378 " />
<path d="M52519 18387
L53940 18387
" />
<path d="M52519 16830
L52519 18383
" />
<path d="M56811 16061
L53415 16061
" />
<path d="M56811 17600
L56811 16061
" />
<path d="M56811 17618
L54822 17636
" />
<path d="M53415.4 16061.4 A819.955 819.955 0.0 0 0 52524 16803.1 " />
<path d="M54832.7 17637.8 A818.386 818.386 0.0 0 0 53942.9 18378 " />
<path d="M40443 47743
L41153 48974
" />
<path d="M41791 46965
L40446 47742
" />
<path d="M44603 50297
L42905 47356
" />
<path d="M43270 51066
L44603 50297
" />
<path d="M43255 51075
L42245 49362
" />
<path d="M42905.5 47356.5 A819.955 819.955 0.0 0 0 41817.5 46955.4 " />
<path d="M42249 49372.1 A818.386 818.386 0.0 0 0 41163.1 48971.6 " />
<path d="M63779 48367
L65200 48367
" />
<path d="M63779 46811
L63779 48364
" />
<path d="M68070 46041
L64675 46041
" />
<path d="M68070 47580
L68070 46041
" />
<path d="M68070 47598
L66082 47616
" />
<path d="M64675.2 46041.7 A819.955 819.955 0.0 0 0 63783.9 46783.5 " />
<path d="M66092.5 47618.1 A818.386 818.386 0.0 0 0 65202.8 48358.3 " />
<path d="M48779 49253
L50200 49253
" />
<path d="M48779 47696
L48779 49250
" />
<path d="M53070 46927
L49675 46927
" />
<path d="M53070 48466
L53070 46927
" />
<path d="M53070 48484
L51082 48502
" />
<path d="M49675.2 46927.6 A819.955 819.955 0.0 0 0 48783.9 47669.3 " />
<path d="M51092.5 48503.9 A818.386 818.386 0.0 0 0 50202.8 49244.1 " />
<path d="M37519 38033
L38940 38033
" />
<path d="M37519 36476
L37519 38029
" />
<path d="M41811 35707
L38415 35707
" />
<path d="M41811 37245
L41811 35707
" />
<path d="M41811 37263
L39822 37281
" />
<path d="M38415.4 35707.1 A819.955 819.955 0.0 0 0 37524 36448.8 " />
<path d="M39832.7 37283.5 A818.386 818.386 0.0 0 0 38942.9 38023.6 " />
<path d="M82539 43348
L83960 43348
" />
<path d="M82539 41791
L82539 43344
" />
<path d="M86830 41022
L83435 41022
" />
<path d="M86830 42560
L86830 41022
" />
<path d="M86830 42578
L84842 42596
" />
<path d="M83435 41022 A819.955 819.955 0.0 0 0 82543.7 41763.8 " />
<path d="M84852.4 42598.4 A818.386 818.386 0.0 0 0 83962.6 43338.6 " />
<path d="M75039 42757
L76460 42757
" />
<path d="M75039 41200
L75039 42753
" />
<path d="M79330 40431
L75935 40431
" />
<path d="M79330 41970
L79330 40431
" />
<path d="M79330 41988
L77342 42006
" />
<path d="M75935 40431.5 A819.955 819.955 0.0 0 0 75043.7 41173.2 " />
<path d="M77352.4 42007.9 A818.386 818.386 0.0 0 0 76462.6 42748 " />
<path d="M67519 40907
L68940 40907
" />
<path d="M67519 39350
L67519 40903
" />
<path d="M71811 38581
L68415 38581
" />
<path d="M71811 40119
L71811 38581
" />
<path d="M71811 40137
L69822 40155
" />
<path d="M68415.4 38581.1 A819.955 819.955 0.0 0 0 67524 39322.8 " />
<path d="M69832.7 40157.5 A818.386 818.386 0.0 0 0 68942.9 40897.6 " />
<path d="M60039 40355
L61460 40355
" />
<path d="M60039 38799
L60039 40352
" />
<path d="M64330 38029
L60935 38029
" />
<path d="M64330 39568
L64330 38029
" />
<path d="M64330 39586
L62342 39604
" />
<path d="M60935 38029.9 A819.955 819.955 0.0 0 0 60043.7 38771.7 " />
<path d="M62352.4 39606.3 A818.386 818.386 0.0 0 0 61462.6 40346.5 " />
<path d="M52519 40907
L53940 40907
" />
<path d="M52519 39350
L52519 40903
" />
<path d="M56811 38581
L53415 38581
" />
<path d="M56811 40119
L56811 38581
" />
<path d="M56811 40137
L54822 40155
" />
<path d="M53415.4 38581.1 A819.955 819.955 0.0 0 0 52524 39322.8 " />
<path d="M54832.7 40157.5 A818.386 818.386 0.0 0 0 53942.9 40897.6 " />
<path d="M45039 41812
L46460 41812
" />
<path d="M45039 40255
L45039 41809
" />
<path d="M49330 39486
L45935 39486
" />
<path d="M49330 41025
L49330 39486
" />
<path d="M49330 41043
L47342 41061
" />
<path d="M45935 39486.6 A819.955 819.955 0.0 0 0 45043.7 40228.3 " />
<path d="M47352.4 41063 A818.386 818.386 0.0 0 0 46462.6 41803.1 " />
<path d="M82519 35867
L83940 35867
" />
<path d="M82519 34311
L82519 35864
" />
<path d="M86811 33541
L83415 33541
" />
<path d="M86811 35080
L86811 33541
" />
<path d="M86811 35098
L84822 35116
" />
<path d="M83415.4 33541.7 A819.955 819.955 0.0 0 0 82524 34283.5 " />
<path d="M84832.7 35118.1 A818.386 818.386 0.0 0 0 83942.9 35858.3 " />
<path d="M67519 33387
L68940 33387
" />
<path d="M67519 31830
L67519 33383
" />
<path d="M71811 31061
L68415 31061
" />
<path d="M71811 32600
L71811 31061
" />
<path d="M71811 32618
L69822 32636
" />
<path d="M68415.4 31061.4 A819.955 819.955 0.0 0 0 67524 31803.1 " />
<path d="M69832.7 32637.8 A818.386 818.386 0.0 0 0 68942.9 33378 " />
<path d="M60039 32875
L61460 32875
" />
<path d="M60039 31318
L60039 32872
" />
<path d="M64330 30549
L60935 30549
" />
<path d="M64330 32088
L64330 30549
" />
<path d="M64330 32106
L62342 32124
" />
<path d="M60935 30549.6 A819.955 819.955 0.0 0 0 60043.7 31291.3 " />
<path d="M62352.4 32126 A818.386 818.386 0.0 0 0 61462.6 32866.1 " />
<path d="M52519 33387
L53940 33387
" />
<path d="M52519 31830
L52519 33383
" />
<path d="M56811 31061
L53415 31061
" />
<path d="M56811 32600
L56811 31061
" />
<path d="M56811 32618
L54822 32636
" />
<path d="M53415.4 31061.4 A819.955 819.955 0.0 0 0 52524 31803.1 " />
<path d="M54832.7 32637.8 A818.386 818.386 0.0 0 0 53942.9 33378 " />
<path d="M45039 34332
L46460 34332
" />
<path d="M45039 32775
L45039 34328
" />
<path d="M49330 32006
L45935 32006
" />
<path d="M49330 33544
L49330 32006
" />
<path d="M49330 33562
L47342 33581
" />
<path d="M45935 32006.3 A819.955 819.955 0.0 0 0 45043.7 32748 " />
<path d="M47352.4 33582.7 A818.386 818.386 0.0 0 0 46462.6 34322.8 " />
<path d="M82519 28308
L83940 28308
" />
<path d="M82519 26751
L82519 28305
" />
<path d="M86811 25982
L83415 25982
" />
<path d="M86811 27521
L86811 25982
" />
<path d="M86811 27539
L84822 27557
" />
<path d="M83415.4 25982.7 A819.955 819.955 0.0 0 0 82524 26724.4 " />
<path d="M84832.7 27559.1 A818.386 818.386 0.0 0 0 83942.9 28299.2 " />
<path d="M67519 25867
L68940 25867
" />
<path d="M67519 24311
L67519 25864
" />
<path d="M71811 23541
L68415 23541
" />
<path d="M71811 25080
L71811 23541
" />
<path d="M71811 25098
L69822 25116
" />
<path d="M68415.4 23541.7 A819.955 819.955 0.0 0 0 67524 24283.5 " />
<path d="M69832.7 25118.1 A818.386 818.386 0.0 0 0 68942.9 25858.3 " />
<path d="M60039 25355
L61460 25355
" />
<path d="M60039 23799
L60039 25352
" />
<path d="M64330 23029
L60935 23029
" />
<path d="M64330 24568
L64330 23029
" />
<path d="M64330 24586
L62342 24604
" />
<path d="M60935 23029.9 A819.955 819.955 0.0 0 0 60043.7 23771.7 " />
<path d="M62352.4 24606.3 A818.386 818.386 0.0 0 0 61462.6 25346.5 " />
<path d="M52519 25907
L53940 25907
" />
<path d="M52519 24350
L52519 25903
" />
<path d="M56811 23581
L53415 23581
" />
<path d="M56811 25119
L56811 23581
" />
<path d="M56811 25137
L54822 25155
" />
<path d="M53415.4 23581.1 A819.955 819.955 0.0 0 0 52524 24322.8 " />
<path d="M54832.7 25157.5 A818.386 818.386 0.0 0 0 53942.9 25897.6 " />
<path d="M45039 26851
L46460 26851
" />
<path d="M45039 25295
L45039 26848
" />
<path d="M49330 24525
L45935 24525
" />
<path d="M49330 26064
L49330 24525
" />
<path d="M49330 26082
L47342 26100
" />
<path d="M45935 24526 A819.955 819.955 0.0 0 0 45043.7 25267.7 " />
<path d="M47352.4 26102.4 A818.386 818.386 0.0 0 0 46462.6 26842.5 " />
<path d="M60039 17840
L61460 17840
" />
<path d="M60039 16283
L60039 17836
" />
<path d="M64330 15514
L60935 15514
" />
<path d="M64330 17052
L64330 15514
" />
<path d="M64330 17070
L62342 17088
" />
<path d="M60935 15514.2 A819.955 819.955 0.0 0 0 60043.7 16255.9 " />
<path d="M62352.4 17090.6 A818.386 818.386 0.0 0 0 61462.6 17830.7 " />
<path d="M45039 19332
L46460 19332
" />
<path d="M45039 17775
L45039 19328
" />
<path d="M49330 17006
L45935 17006
" />
<path d="M49330 18544
L49330 17006
" />
<path d="M49330 18562
L47342 18581
" />
<path d="M45935 17006.3 A819.955 819.955 0.0 0 0 45043.7 17748 " />
<path d="M47352.4 18582.7 A818.386 818.386 0.0 0 0 46462.6 19322.8 " />
<path d="M34901 15472
L34901 14724
" />
<path d="M35098 15472
L34901 15472
" />
<path d="M32952 14724
L34901 14724
" />
<path d="M32933 15472
L32933 14724
" />
<path d="M32736 20196
L32736 15472
" />
<path d="M35098 20196
L32736 20196
" />
<path d="M35098 15472
L35098 20196
" />
<path d="M32736 15472
L32933 15472
" />
<path d="M44724 29763
L44724 30472
" />
<path d="M44015 29763
L44724 29763
" />
<path d="M44015 30472
L44015 29763
" />
<path d="M44724 30472
L44015 30472
" />
<path d="M44724 31377
L44724 32086
" />
<path d="M44015 31377
L44724 31377
" />
<path d="M44015 32086
L44015 31377
" />
<path d="M44724 32086
L44015 32086
" />
<path d="M44724 30590
L44724 31299
" />
<path d="M44015 30590
L44724 30590
" />
<path d="M44015 31299
L44015 30590
" />
<path d="M44724 31299
L44015 31299
" />
<path d="M35791 27732
L35791 15732
" />
</g>
<g style="fill:#000000; fill-opacity:0.0; 
stroke:#000000; stroke-width:98.4252; stroke-opacity:1; 
stroke-linecap:round; stroke-linejoin:round;">
<path d="M36791 27732
L35791 27732
" />
<path d="M36791 15732
L36791 27732
" />
<path d="M35791 15732
L36791 15732
" />
<path d="M41791 27732
L41791 15732
" />
<path d="M42791 27732
L41791 27732
" />
</g>
<g style="fill:#000000; fill-opacity:0.0; 
stroke:#000000; stroke-width:59.0551; stroke-opacity:1; 
stroke-linecap:round; stroke-linejoin:round;">
<path d="M42791 15732
L42791 27732
" />
</g>
<g style="fill:#000000; fill-opacity:0.0; 
stroke:#000000; stroke-width:98.4252; stroke-opacity:1; 
stroke-linecap:round; stroke-linejoin:round;">
<path d="M41791 15732
L42791 15732
" />
<path d="M35791 27732
L35791 14732
" />
<path d="M42791 14732
L42791 27732
" />
<path d="M35791 14732
L42791 14732
" />
</g>
<g style="fill:#000000; fill-opacity:0.0; 
stroke:#000000; stroke-width:59.0551; stroke-opacity:1; 
stroke-linecap:round; stroke-linejoin:round;">
<path d="M33740 24291
L32952 24291
" />
<path d="M32952 24291
L32952 23503
" />
<path d="M32952 23503
L33740 23503
" />
<path d="M33740 23503
L33740 24291
" />
<path d="M34606 23503
L34606 24291
" />
<path d="M33818 23503
L34606 23503
" />
<path d="M33818 24291
L33818 23503
" />
<path d="M34606 24291
L33818 24291
" />
<path d="M33833 21472
L34621 21472
" />
<path d="M33833 22653
L33833 21472
" />
<path d="M34621 22653
L33833 22653
" />
<path d="M34621 21472
L34621 22653
" />
<path d="M33735 21472
L33735 22653
" />
<path d="M33735 22653
L32948 22653
" />
<path d="M32948 22653
L32948 21472
" />
<path d="M32948 21472
L33735 21472
" />
<path d="M32755 27834
L32755 25511
" />
<path d="M32755 27834
L32755 25472
" />
<path d="M34133 25472
L34133 27834
" />
<path d="M32755 25472
L32952 25472
" />
<path d="M34133 25472
L33976 25472
" />
<path d="M34133 27834
L33976 27834
" />
<path d="M32755 27834
L32952 27834
" />
<path d="M74842 23503
L74842 24055
" />
<path d="M75196 24055
L74842 23779
" />
<path d="M75196 23503
L75196 24055
" />
<path d="M74842 23779
L75196 23503
" />
<path d="M87125 24330
L87480 24055
" />
<path d="M87480 24055
L87480 24606
" />
<path d="M87480 24606
L87125 24330
" />
<path d="M87125 24055
L87125 24606
" />
<path d="M44842 23779
L44842 24330
" />
<path d="M45196 24330
L44842 24055
" />
<path d="M45196 23779
L45196 24330
" />
<path d="M44842 24055
L45196 23779
" />
<path d="M53070 22834
L53070 23385
" />
<path d="M53425 23385
L53070 23110
" />
<path d="M53425 22834
L53425 23385
" />
<path d="M53070 23110
L53425 22834
" />
<path d="M59881 22322
L59881 22874
" />
<path d="M60236 22874
L59881 22598
" />
<path d="M60236 22322
L60236 22874
" />
<path d="M59881 22598
L60236 22322
" />
<path d="M67322 23110
L67677 22834
" />
<path d="M67677 22834
L67677 23385
" />
<path d="M67677 23385
L67322 23110
" />
<path d="M67322 22834
L67322 23385
" />
<path d="M74842 24645
L74842 25196
" />
<path d="M75196 25196
L74842 24921
" />
<path d="M75196 24645
L75196 25196
" />
<path d="M74842 24921
L75196 24645
" />
<path d="M87125 25275
L87125 25826
" />
<path d="M87480 25826
L87125 25551
" />
<path d="M87480 25275
L87480 25826
" />
<path d="M87125 25551
L87480 25275
" />
<path d="M44842 37795
L45196 37519
" />
<path d="M45196 37519
L45196 38070
" />
<path d="M45196 38070
L44842 37795
" />
<path d="M44842 37519
L44842 38070
" />
<path d="M52677 36653
L52677 37204
" />
<path d="M53031 37204
L52677 36929
" />
<path d="M53031 36653
L53031 37204
" />
<path d="M52677 36929
L53031 36653
" />
<path d="M59842 36062
L59842 36614
" />
<path d="M60196 36614
L59842 36338
" />
<path d="M60196 36062
L60196 36614
" />
<path d="M59842 36338
L60196 36062
" />
<path d="M67322 36850
L67677 36574
" />
<path d="M67677 36574
L67677 37125
" />
<path d="M67677 37125
L67322 36850
" />
<path d="M67322 36574
L67322 37125
" />
<path d="M74842 38700
L75196 38425
" />
<path d="M75196 38425
L75196 38976
" />
<path d="M75196 38976
L74842 38700
" />
<path d="M74842 38425
L74842 38976
" />
<path d="M84688 37909
L84688 38460
" />
<path d="M85043 38460
L84688 38185
" />
<path d="M85043 37909
L85043 38460
" />
<path d="M84688 38185
L85043 37909
" />
<path d="M44842 38740
L44842 39291
" />
<path d="M45196 39291
L44842 39015
" />
<path d="M45196 38740
L45196 39291
" />
<path d="M44842 39015
L45196 38740
" />
<path d="M53070 38110
L53425 37834
" />
<path d="M53425 37834
L53425 38385
" />
<path d="M53425 38385
L53070 38110
" />
<path d="M53070 37834
L53070 38385
" />
<path d="M59842 37283
L59842 37834
" />
<path d="M60196 37834
L59842 37559
" />
<path d="M60196 37283
L60196 37834
" />
<path d="M59842 37559
L60196 37283
" />
<path d="M67322 38110
L67677 37834
" />
<path d="M67677 37834
L67677 38385
" />
<path d="M67677 38385
L67322 38110
" />
<path d="M67322 37834
L67322 38385
" />
<path d="M74842 39685
L74842 40236
" />
<path d="M75196 40236
L74842 39960
" />
<path d="M75196 39685
L75196 40236
" />
<path d="M74842 39960
L75196 39685
" />
<path d="M84818 40283
L85173 40007
" />
<path d="M85173 40007
L85173 40559
" />
<path d="M85173 40559
L84818 40283
" />
<path d="M84818 40007
L84818 40559
" />
<g >
</g>
<g >
</g>
<g >
</g>
<g >
</g>
<g >
</g>
<g >
</g>
<g >
</g>
<g >
</g>
<g >
</g>
<g >
</g>
<g >
</g>
<g >
</g>
<g >
</g>
<g >
</g>
<g >
</g>
<g >
</g>
<g >
</g>
<g >
</g>
<g >
</g>
<g >
</g>
<g >
</g>
<g >
</g>
<g >
</g>
<g >
</g>
<g >
</g>
<g >
</g>
<g >
</g>
<g >
</g>
<g >
</g>
<g >
</g>
<g >
</g>
<g >
</g>
<g >
</g>
<g >
</g>
<g >
</g>
<g >
</g>
<g >
</g>
<g >
</g>
<g >
</g>
<g >
</g>
<g >
</g>
<g >
</g>
<g >
</g>
<g >
</g>
<g >
</g>
<g >
</g>
<g >
</g>
<g >
</g>
<g >
</g>
<g >
</g>
<g >
</g>
<g >
</g>
<g >
</g>
<g >
</g>
<g >
</g>
<g >
</g>
<g >
</g>
<g >
</g>
<g >
</g>
<g >
</g>
<g >
</g>
<g >
</g>
<g >
</g>
<g >
</g>
<g >
</g>
<g >
</g>
<g >
</g>
<g >
</g>
<g >
</g>
<g >
</g>
<g >
</g>
<g >
</g>
<g >
</g>
<g >
</g>
<g >
</g>
<g >
</g>
<g >
</g>
<g >
</g>
<g >
</g>
<g >
</g>
<g >
</g>
<g >
</g>
<g >
</g>
<g >
</g>
<g >
</g>
<g >
</g>
<g >
</g>
<g >
</g>
<g >
</g>
<g >
</g>
<g >
</g>
<g >
</g>
<g >
</g>
<g >
</g>
<g >
</g>
<g >
</g>
<g >
</g>
<g >
</g>
<g >
</g>
</g>
<g style="fill:#000000; fill-opacity:0.0; 
stroke:#000000; stroke-width:59.0551; stroke-opacity:1; 
stroke-linecap:round; stroke-linejoin:round;">
<path d="M45656 31599
L45551 31914
L45446 31599
" />
<path d="M45161 31884
L45176 31899
L45221 31914
L45251 31914
L45296 31899
L45326 31869
L45341 31839
L45356 31779
L45356 31734
L45341 31674
L45326 31644
L45296 31614
L45251 31599
L45221 31599
L45176 31614
L45161 31629
" />
<path d="M44846 31884
L44861 31899
L44906 31914
L44936 31914
L44981 31899
L45011 31869
L45026 31839
L45041 31779
L45041 31734
L45026 31674
L45011 31644
L44981 31614
L44936 31599
L44906 31599
L44861 31614
L44846 31629
" />
<path d="M45438 31087
L45588 31087
L45588 30772
" />
<path d="M45333 30922
L45228 30922
" />
<path d="M45183 31087
L45333 31087
L45333 30772
L45183 30772
" />
<path d="M45048 31087
L45048 30772
L44973 30772
L44928 30787
L44898 30817
L44883 30847
L44868 30907
L44868 30952
L44883 31012
L44898 31042
L44928 31072
L44973 31087
L45048 31087
" />
<path d="M45476 30000
L45506 29985
L45551 29985
L45596 30000
L45626 30029
L45641 30059
L45656 30119
L45656 30164
L45641 30224
L45626 30254
L45596 30284
L45551 30299
L45521 30299
L45476 30284
L45461 30269
L45461 30164
L45521 30164
" />
<path d="M45326 30299
L45326 29985
L45146 30299
L45146 29985
" />
<path d="M44996 30299
L44996 29985
L44921 29985
L44876 30000
L44846 30029
L44831 30059
L44816 30119
L44816 30164
L44831 30224
L44846 30254
L44876 30284
L44921 30299
L44996 30299
" />
<path d="M33500 24709
L33500 24394
L33380 24394
L33350 24409
L33335 24424
L33320 24454
L33320 24499
L33335 24529
L33350 24544
L33380 24559
L33500 24559
" />
<path d="M33020 24709
L33200 24709
" />
<path d="M33110 24709
L33110 24394
L33140 24439
L33170 24469
L33200 24484
" />
<path d="M34445 24709
L34445 24394
L34325 24394
L34295 24409
L34280 24424
L34265 24454
L34265 24499
L34280 24529
L34295 24544
L34325 24559
L34445 24559
" />
<path d="M34145 24424
L34130 24409
L34100 24394
L34025 24394
L33995 24409
L33980 24424
L33965 24454
L33965 24484
L33980 24529
L34160 24709
L33965 24709
" />
<path d="M34370 22010
L34220 21905
" />
<path d="M34370 21830
L34055 21830
L34055 21950
L34070 21980
L34085 21995
L34115 22010
L34160 22010
L34190 21995
L34205 21980
L34220 21950
L34220 21830
" />
<path d="M34085 22130
L34070 22145
L34055 22175
L34055 22250
L34070 22280
L34085 22295
L34115 22310
L34145 22310
L34190 22295
L34370 22115
L34370 22310
" />
<path d="M33488 22010
L33338 21905
" />
<path d="M33488 21830
L33173 21830
L33173 21950
L33188 21980
L33203 21995
L33233 22010
L33278 22010
L33308 21995
L33323 21980
L33338 21950
L33338 21830
" />
<path d="M33488 22310
L33488 22130
" />
<path d="M33488 22220
L33173 22220
L33218 22190
L33248 22160
L33263 22130
" />
<path d="M33607 26196
L33457 26091
" />
<path d="M33607 26016
L33292 26016
L33292 26136
L33307 26166
L33322 26181
L33352 26196
L33397 26196
L33427 26181
L33442 26166
L33457 26136
L33457 26016
" />
<path d="M33442 26331
L33442 26436
" />
<path d="M33607 26481
L33607 26331
L33292 26331
L33292 26481
" />
<path d="M33592 26601
L33607 26646
L33607 26721
L33592 26751
L33577 26766
L33547 26781
L33517 26781
L33487 26766
L33472 26751
L33457 26721
L33442 26661
L33427 26631
L33412 26616
L33382 26601
L33352 26601
L33322 26616
L33307 26631
L33292 26661
L33292 26736
L33307 26781
" />
<path d="M33442 26916
L33442 27020
" />
<path d="M33607 27065
L33607 26916
L33292 26916
L33292 27065
" />
<path d="M33292 27155
L33292 27335
" />
<path d="M33607 27245
L33292 27245
" />
<g >
</g>
</g> 
</svg>
