<?xml version="1.0" standalone="no"?>
 <!DOCTYPE svg PUBLIC "-//W3C//DTD SVG 1.1//EN" 
 "http://www.w3.org/Graphics/SVG/1.1/DTD/svg11.dtd"> 
<svg xmlns="http://www.w3.org/2000/svg" version="1.1" 
    width="29.7002cm" height="21.0007cm" viewBox="0 0 116930 82680 ">
<title>SVG Picture created as Lily58_Pro-F_Fab.svg date 2020/11/24 20:32:45 </title>
  <desc>Picture generated by PCBNEW </desc>
<g style="fill:#000000; fill-opacity:1;stroke:#000000; stroke-opacity:1;
stroke-linecap:round; stroke-linejoin:round; "
 transform="translate(0 0) scale(1 1)">
</g>
<g style="fill:#000000; fill-opacity:0.0; 
stroke:#000000; stroke-width:-0.000393701; stroke-opacity:1; 
stroke-linecap:round; stroke-linejoin:round;">
</g>
<g style="fill:#000000; fill-opacity:0.0; 
stroke:#000000; stroke-width:39.3701; stroke-opacity:1; 
stroke-linecap:round; stroke-linejoin:round;">
</g>
<g style="fill:#000000; fill-opacity:0.0; 
stroke:#000000; stroke-width:59.0551; stroke-opacity:1; 
stroke-linecap:round; stroke-linejoin:round;">
<rect x="69685.9" y="65357.2" width="42519.7" height="12598.4" rx="0" />
</g>
<g style="fill:#000000; fill-opacity:0.0; 
stroke:#000000; stroke-width:39.3701; stroke-opacity:1; 
stroke-linecap:round; stroke-linejoin:round;">
</g>
<g style="fill:#000000; fill-opacity:0.0; 
stroke:#000000; stroke-width:59.0551; stroke-opacity:1; 
stroke-linecap:round; stroke-linejoin:round;">
<rect x="3937.01" y="3937.01" width="109056" height="74806" rx="0" />
</g>
<g style="fill:#000000; fill-opacity:0.0; 
stroke:#000000; stroke-width:39.3701; stroke-opacity:1; 
stroke-linecap:round; stroke-linejoin:round;">
</g>
<g style="fill:#000000; fill-opacity:0.0; 
stroke:#000000; stroke-width:59.0551; stroke-opacity:1; 
stroke-linecap:round; stroke-linejoin:round;">
<rect x="4724.41" y="4724.41" width="107481" height="73231.2" rx="0" />
</g>
<g style="fill:#000000; fill-opacity:0.0; 
stroke:#000000; stroke-width:39.3701; stroke-opacity:1; 
stroke-linecap:round; stroke-linejoin:round;">
</g>
<g style="fill:#000000; fill-opacity:0.0; 
stroke:#000000; stroke-width:59.0551; stroke-opacity:1; 
stroke-linecap:round; stroke-linejoin:round;">
<path d="M23622 4724
L23622 3937
" />
</g>
<g style="fill:#000000; fill-opacity:0.0; 
stroke:#000000; stroke-width:39.3701; stroke-opacity:1; 
stroke-linecap:round; stroke-linejoin:round;">
</g>
<g style="fill:#000000; fill-opacity:0.0; 
stroke:#000000; stroke-width:59.0551; stroke-opacity:1; 
stroke-linecap:round; stroke-linejoin:round;">
<path d="M43307 4724
L43307 3937
" />
</g>
<g style="fill:#000000; fill-opacity:0.0; 
stroke:#000000; stroke-width:39.3701; stroke-opacity:1; 
stroke-linecap:round; stroke-linejoin:round;">
</g>
<g style="fill:#000000; fill-opacity:0.0; 
stroke:#000000; stroke-width:59.0551; stroke-opacity:1; 
stroke-linecap:round; stroke-linejoin:round;">
<path d="M62992 4724
L62992 3937
" />
</g>
<g style="fill:#000000; fill-opacity:0.0; 
stroke:#000000; stroke-width:39.3701; stroke-opacity:1; 
stroke-linecap:round; stroke-linejoin:round;">
</g>
<g style="fill:#000000; fill-opacity:0.0; 
stroke:#000000; stroke-width:59.0551; stroke-opacity:1; 
stroke-linecap:round; stroke-linejoin:round;">
<path d="M82677 4724
L82677 3937
" />
</g>
<g style="fill:#000000; fill-opacity:0.0; 
stroke:#000000; stroke-width:39.3701; stroke-opacity:1; 
stroke-linecap:round; stroke-linejoin:round;">
</g>
<g style="fill:#000000; fill-opacity:0.0; 
stroke:#000000; stroke-width:59.0551; stroke-opacity:1; 
stroke-linecap:round; stroke-linejoin:round;">
<path d="M102362 4724
L102362 3937
" />
</g>
<g style="fill:#000000; fill-opacity:0.0; 
stroke:#000000; stroke-width:39.3701; stroke-opacity:1; 
stroke-linecap:round; stroke-linejoin:round;">
</g>
<g style="fill:#000000; fill-opacity:0.0; 
stroke:#000000; stroke-width:59.0551; stroke-opacity:1; 
stroke-linecap:round; stroke-linejoin:round;">
<path d="M14199 4562
L13906 4562
" />
<path d="M14052 4562
L14052 4050
L14004 4123
L13955 4172
L13906 4196
" />
</g>
<g style="fill:#000000; fill-opacity:0.0; 
stroke:#000000; stroke-width:39.3701; stroke-opacity:1; 
stroke-linecap:round; stroke-linejoin:round;">
</g>
<g style="fill:#000000; fill-opacity:0.0; 
stroke:#000000; stroke-width:59.0551; stroke-opacity:1; 
stroke-linecap:round; stroke-linejoin:round;">
<path d="M33591 4099
L33615 4074
L33664 4050
L33786 4050
L33835 4074
L33859 4099
L33884 4147
L33884 4196
L33859 4269
L33567 4562
L33884 4562
" />
</g>
<g style="fill:#000000; fill-opacity:0.0; 
stroke:#000000; stroke-width:39.3701; stroke-opacity:1; 
stroke-linecap:round; stroke-linejoin:round;">
</g>
<g style="fill:#000000; fill-opacity:0.0; 
stroke:#000000; stroke-width:59.0551; stroke-opacity:1; 
stroke-linecap:round; stroke-linejoin:round;">
<path d="M53252 4050
L53569 4050
L53398 4245
L53471 4245
L53520 4269
L53544 4294
L53569 4342
L53569 4464
L53544 4513
L53520 4537
L53471 4562
L53325 4562
L53276 4537
L53252 4513
" />
</g>
<g style="fill:#000000; fill-opacity:0.0; 
stroke:#000000; stroke-width:39.3701; stroke-opacity:1; 
stroke-linecap:round; stroke-linejoin:round;">
</g>
<g style="fill:#000000; fill-opacity:0.0; 
stroke:#000000; stroke-width:59.0551; stroke-opacity:1; 
stroke-linecap:round; stroke-linejoin:round;">
<path d="M73205 4221
L73205 4562
" />
<path d="M73083 4026
L72961 4391
L73278 4391
" />
</g>
<g style="fill:#000000; fill-opacity:0.0; 
stroke:#000000; stroke-width:39.3701; stroke-opacity:1; 
stroke-linecap:round; stroke-linejoin:round;">
</g>
<g style="fill:#000000; fill-opacity:0.0; 
stroke:#000000; stroke-width:59.0551; stroke-opacity:1; 
stroke-linecap:round; stroke-linejoin:round;">
<path d="M92914 4050
L92671 4050
L92646 4294
L92671 4269
L92719 4245
L92841 4245
L92890 4269
L92914 4294
L92939 4342
L92939 4464
L92914 4513
L92890 4537
L92841 4562
L92719 4562
L92671 4537
L92646 4513
" />
</g>
<g style="fill:#000000; fill-opacity:0.0; 
stroke:#000000; stroke-width:39.3701; stroke-opacity:1; 
stroke-linecap:round; stroke-linejoin:round;">
</g>
<g style="fill:#000000; fill-opacity:0.0; 
stroke:#000000; stroke-width:59.0551; stroke-opacity:1; 
stroke-linecap:round; stroke-linejoin:round;">
<path d="M112575 4050
L112477 4050
L112429 4074
L112404 4099
L112356 4172
L112331 4269
L112331 4464
L112356 4513
L112380 4537
L112429 4562
L112526 4562
L112575 4537
L112599 4513
L112624 4464
L112624 4342
L112599 4294
L112575 4269
L112526 4245
L112429 4245
L112380 4269
L112356 4294
L112331 4342
" />
</g>
<g style="fill:#000000; fill-opacity:0.0; 
stroke:#000000; stroke-width:39.3701; stroke-opacity:1; 
stroke-linecap:round; stroke-linejoin:round;">
</g>
<g style="fill:#000000; fill-opacity:0.0; 
stroke:#000000; stroke-width:59.0551; stroke-opacity:1; 
stroke-linecap:round; stroke-linejoin:round;">
<path d="M23622 77955
L23622 78742
" />
</g>
<g style="fill:#000000; fill-opacity:0.0; 
stroke:#000000; stroke-width:39.3701; stroke-opacity:1; 
stroke-linecap:round; stroke-linejoin:round;">
</g>
<g style="fill:#000000; fill-opacity:0.0; 
stroke:#000000; stroke-width:59.0551; stroke-opacity:1; 
stroke-linecap:round; stroke-linejoin:round;">
<path d="M43307 77955
L43307 78742
" />
</g>
<g style="fill:#000000; fill-opacity:0.0; 
stroke:#000000; stroke-width:39.3701; stroke-opacity:1; 
stroke-linecap:round; stroke-linejoin:round;">
</g>
<g style="fill:#000000; fill-opacity:0.0; 
stroke:#000000; stroke-width:59.0551; stroke-opacity:1; 
stroke-linecap:round; stroke-linejoin:round;">
<path d="M62992 77955
L62992 78742
" />
</g>
<g style="fill:#000000; fill-opacity:0.0; 
stroke:#000000; stroke-width:39.3701; stroke-opacity:1; 
stroke-linecap:round; stroke-linejoin:round;">
</g>
<g style="fill:#000000; fill-opacity:0.0; 
stroke:#000000; stroke-width:59.0551; stroke-opacity:1; 
stroke-linecap:round; stroke-linejoin:round;">
<path d="M82677 77955
L82677 78742
" />
</g>
<g style="fill:#000000; fill-opacity:0.0; 
stroke:#000000; stroke-width:39.3701; stroke-opacity:1; 
stroke-linecap:round; stroke-linejoin:round;">
</g>
<g style="fill:#000000; fill-opacity:0.0; 
stroke:#000000; stroke-width:59.0551; stroke-opacity:1; 
stroke-linecap:round; stroke-linejoin:round;">
<path d="M102362 77955
L102362 78742
" />
</g>
<g style="fill:#000000; fill-opacity:0.0; 
stroke:#000000; stroke-width:39.3701; stroke-opacity:1; 
stroke-linecap:round; stroke-linejoin:round;">
</g>
<g style="fill:#000000; fill-opacity:0.0; 
stroke:#000000; stroke-width:59.0551; stroke-opacity:1; 
stroke-linecap:round; stroke-linejoin:round;">
<path d="M14199 78580
L13906 78580
" />
<path d="M14052 78580
L14052 78069
L14004 78142
L13955 78190
L13906 78215
" />
</g>
<g style="fill:#000000; fill-opacity:0.0; 
stroke:#000000; stroke-width:39.3701; stroke-opacity:1; 
stroke-linecap:round; stroke-linejoin:round;">
</g>
<g style="fill:#000000; fill-opacity:0.0; 
stroke:#000000; stroke-width:59.0551; stroke-opacity:1; 
stroke-linecap:round; stroke-linejoin:round;">
<path d="M33591 78117
L33615 78093
L33664 78069
L33786 78069
L33835 78093
L33859 78117
L33884 78166
L33884 78215
L33859 78288
L33567 78580
L33884 78580
" />
</g>
<g style="fill:#000000; fill-opacity:0.0; 
stroke:#000000; stroke-width:39.3701; stroke-opacity:1; 
stroke-linecap:round; stroke-linejoin:round;">
</g>
<g style="fill:#000000; fill-opacity:0.0; 
stroke:#000000; stroke-width:59.0551; stroke-opacity:1; 
stroke-linecap:round; stroke-linejoin:round;">
<path d="M53252 78069
L53569 78069
L53398 78263
L53471 78263
L53520 78288
L53544 78312
L53569 78361
L53569 78483
L53544 78532
L53520 78556
L53471 78580
L53325 78580
L53276 78556
L53252 78532
" />
</g>
<g style="fill:#000000; fill-opacity:0.0; 
stroke:#000000; stroke-width:39.3701; stroke-opacity:1; 
stroke-linecap:round; stroke-linejoin:round;">
</g>
<g style="fill:#000000; fill-opacity:0.0; 
stroke:#000000; stroke-width:59.0551; stroke-opacity:1; 
stroke-linecap:round; stroke-linejoin:round;">
<path d="M73205 78239
L73205 78580
" />
<path d="M73083 78044
L72961 78410
L73278 78410
" />
</g>
<g style="fill:#000000; fill-opacity:0.0; 
stroke:#000000; stroke-width:39.3701; stroke-opacity:1; 
stroke-linecap:round; stroke-linejoin:round;">
</g>
<g style="fill:#000000; fill-opacity:0.0; 
stroke:#000000; stroke-width:59.0551; stroke-opacity:1; 
stroke-linecap:round; stroke-linejoin:round;">
<path d="M92914 78069
L92671 78069
L92646 78312
L92671 78288
L92719 78263
L92841 78263
L92890 78288
L92914 78312
L92939 78361
L92939 78483
L92914 78532
L92890 78556
L92841 78580
L92719 78580
L92671 78556
L92646 78532
" />
</g>
<g style="fill:#000000; fill-opacity:0.0; 
stroke:#000000; stroke-width:39.3701; stroke-opacity:1; 
stroke-linecap:round; stroke-linejoin:round;">
</g>
<g style="fill:#000000; fill-opacity:0.0; 
stroke:#000000; stroke-width:59.0551; stroke-opacity:1; 
stroke-linecap:round; stroke-linejoin:round;">
<path d="M112575 78069
L112477 78069
L112429 78093
L112404 78117
L112356 78190
L112331 78288
L112331 78483
L112356 78532
L112380 78556
L112429 78580
L112526 78580
L112575 78556
L112599 78532
L112624 78483
L112624 78361
L112599 78312
L112575 78288
L112526 78263
L112429 78263
L112380 78288
L112356 78312
L112331 78361
" />
</g>
<g style="fill:#000000; fill-opacity:0.0; 
stroke:#000000; stroke-width:39.3701; stroke-opacity:1; 
stroke-linecap:round; stroke-linejoin:round;">
</g>
<g style="fill:#000000; fill-opacity:0.0; 
stroke:#000000; stroke-width:59.0551; stroke-opacity:1; 
stroke-linecap:round; stroke-linejoin:round;">
<path d="M3937 23622
L4724 23622
" />
</g>
<g style="fill:#000000; fill-opacity:0.0; 
stroke:#000000; stroke-width:39.3701; stroke-opacity:1; 
stroke-linecap:round; stroke-linejoin:round;">
</g>
<g style="fill:#000000; fill-opacity:0.0; 
stroke:#000000; stroke-width:59.0551; stroke-opacity:1; 
stroke-linecap:round; stroke-linejoin:round;">
<path d="M3937 43307
L4724 43307
" />
</g>
<g style="fill:#000000; fill-opacity:0.0; 
stroke:#000000; stroke-width:39.3701; stroke-opacity:1; 
stroke-linecap:round; stroke-linejoin:round;">
</g>
<g style="fill:#000000; fill-opacity:0.0; 
stroke:#000000; stroke-width:59.0551; stroke-opacity:1; 
stroke-linecap:round; stroke-linejoin:round;">
<path d="M3937 62992
L4724 62992
" />
</g>
<g style="fill:#000000; fill-opacity:0.0; 
stroke:#000000; stroke-width:39.3701; stroke-opacity:1; 
stroke-linecap:round; stroke-linejoin:round;">
</g>
<g style="fill:#000000; fill-opacity:0.0; 
stroke:#000000; stroke-width:59.0551; stroke-opacity:1; 
stroke-linecap:round; stroke-linejoin:round;">
<path d="M4208 13864
L4452 13864
" />
<path d="M4160 14011
L4330 13499
L4501 14011
" />
</g>
<g style="fill:#000000; fill-opacity:0.0; 
stroke:#000000; stroke-width:39.3701; stroke-opacity:1; 
stroke-linecap:round; stroke-linejoin:round;">
</g>
<g style="fill:#000000; fill-opacity:0.0; 
stroke:#000000; stroke-width:59.0551; stroke-opacity:1; 
stroke-linecap:round; stroke-linejoin:round;">
<path d="M4367 33428
L4440 33452
L4464 33476
L4489 33525
L4489 33598
L4464 33647
L4440 33671
L4391 33696
L4196 33696
L4196 33184
L4367 33184
L4416 33208
L4440 33233
L4464 33281
L4464 33330
L4440 33379
L4416 33403
L4367 33428
L4196 33428
" />
</g>
<g style="fill:#000000; fill-opacity:0.0; 
stroke:#000000; stroke-width:39.3701; stroke-opacity:1; 
stroke-linecap:round; stroke-linejoin:round;">
</g>
<g style="fill:#000000; fill-opacity:0.0; 
stroke:#000000; stroke-width:59.0551; stroke-opacity:1; 
stroke-linecap:round; stroke-linejoin:round;">
<path d="M4489 53332
L4464 53356
L4391 53381
L4342 53381
L4269 53356
L4221 53308
L4196 53259
L4172 53161
L4172 53088
L4196 52991
L4221 52942
L4269 52893
L4342 52869
L4391 52869
L4464 52893
L4489 52918
" />
</g>
<g style="fill:#000000; fill-opacity:0.0; 
stroke:#000000; stroke-width:39.3701; stroke-opacity:1; 
stroke-linecap:round; stroke-linejoin:round;">
</g>
<g style="fill:#000000; fill-opacity:0.0; 
stroke:#000000; stroke-width:59.0551; stroke-opacity:1; 
stroke-linecap:round; stroke-linejoin:round;">
<path d="M4196 73066
L4196 72554
L4318 72554
L4391 72578
L4440 72627
L4464 72676
L4489 72773
L4489 72846
L4464 72944
L4440 72993
L4391 73041
L4318 73066
L4196 73066
" />
</g>
<g style="fill:#000000; fill-opacity:0.0; 
stroke:#000000; stroke-width:39.3701; stroke-opacity:1; 
stroke-linecap:round; stroke-linejoin:round;">
</g>
<g style="fill:#000000; fill-opacity:0.0; 
stroke:#000000; stroke-width:59.0551; stroke-opacity:1; 
stroke-linecap:round; stroke-linejoin:round;">
<path d="M112992 23622
L112205 23622
" />
</g>
<g style="fill:#000000; fill-opacity:0.0; 
stroke:#000000; stroke-width:39.3701; stroke-opacity:1; 
stroke-linecap:round; stroke-linejoin:round;">
</g>
<g style="fill:#000000; fill-opacity:0.0; 
stroke:#000000; stroke-width:59.0551; stroke-opacity:1; 
stroke-linecap:round; stroke-linejoin:round;">
<path d="M112992 43307
L112205 43307
" />
</g>
<g style="fill:#000000; fill-opacity:0.0; 
stroke:#000000; stroke-width:39.3701; stroke-opacity:1; 
stroke-linecap:round; stroke-linejoin:round;">
</g>
<g style="fill:#000000; fill-opacity:0.0; 
stroke:#000000; stroke-width:59.0551; stroke-opacity:1; 
stroke-linecap:round; stroke-linejoin:round;">
<path d="M112992 62992
L112205 62992
" />
</g>
<g style="fill:#000000; fill-opacity:0.0; 
stroke:#000000; stroke-width:39.3701; stroke-opacity:1; 
stroke-linecap:round; stroke-linejoin:round;">
</g>
<g style="fill:#000000; fill-opacity:0.0; 
stroke:#000000; stroke-width:59.0551; stroke-opacity:1; 
stroke-linecap:round; stroke-linejoin:round;">
<path d="M112477 13864
L112721 13864
" />
<path d="M112428 14011
L112599 13499
L112769 14011
" />
</g>
<g style="fill:#000000; fill-opacity:0.0; 
stroke:#000000; stroke-width:39.3701; stroke-opacity:1; 
stroke-linecap:round; stroke-linejoin:round;">
</g>
<g style="fill:#000000; fill-opacity:0.0; 
stroke:#000000; stroke-width:59.0551; stroke-opacity:1; 
stroke-linecap:round; stroke-linejoin:round;">
<path d="M112635 33428
L112708 33452
L112733 33476
L112757 33525
L112757 33598
L112733 33647
L112708 33671
L112660 33696
L112465 33696
L112465 33184
L112635 33184
L112684 33208
L112708 33233
L112733 33281
L112733 33330
L112708 33379
L112684 33403
L112635 33428
L112465 33428
" />
</g>
<g style="fill:#000000; fill-opacity:0.0; 
stroke:#000000; stroke-width:39.3701; stroke-opacity:1; 
stroke-linecap:round; stroke-linejoin:round;">
</g>
<g style="fill:#000000; fill-opacity:0.0; 
stroke:#000000; stroke-width:59.0551; stroke-opacity:1; 
stroke-linecap:round; stroke-linejoin:round;">
<path d="M112757 53332
L112733 53356
L112660 53381
L112611 53381
L112538 53356
L112489 53308
L112465 53259
L112440 53161
L112440 53088
L112465 52991
L112489 52942
L112538 52893
L112611 52869
L112660 52869
L112733 52893
L112757 52918
" />
</g>
<g style="fill:#000000; fill-opacity:0.0; 
stroke:#000000; stroke-width:39.3701; stroke-opacity:1; 
stroke-linecap:round; stroke-linejoin:round;">
</g>
<g style="fill:#000000; fill-opacity:0.0; 
stroke:#000000; stroke-width:59.0551; stroke-opacity:1; 
stroke-linecap:round; stroke-linejoin:round;">
<path d="M112465 73066
L112465 72554
L112587 72554
L112660 72578
L112708 72627
L112733 72676
L112757 72773
L112757 72846
L112733 72944
L112708 72993
L112660 73041
L112587 73066
L112465 73066
" />
</g>
<g style="fill:#000000; fill-opacity:0.0; 
stroke:#000000; stroke-width:39.3701; stroke-opacity:1; 
stroke-linecap:round; stroke-linejoin:round;">
</g>
<g style="fill:#000000; fill-opacity:0.0; 
stroke:#000000; stroke-width:59.0551; stroke-opacity:1; 
stroke-linecap:round; stroke-linejoin:round;">
<path d="M78911 76293
L78911 75703
L79051 75703
L79136 75731
L79192 75787
L79220 75843
L79248 75956
L79248 76040
L79220 76153
L79192 76209
L79136 76265
L79051 76293
L78911 76293
" />
<path d="M79754 76293
L79754 75984
L79726 75928
L79670 75899
L79557 75899
L79501 75928
" />
<path d="M79754 76265
L79698 76293
L79557 76293
L79501 76265
L79473 76209
L79473 76153
L79501 76096
L79557 76068
L79698 76068
L79754 76040
" />
<path d="M79951 75899
L80176 75899
" />
<path d="M80036 75703
L80036 76209
L80064 76265
L80120 76293
L80176 76293
" />
<path d="M80598 76265
L80542 76293
L80429 76293
L80373 76265
L80345 76209
L80345 75984
L80373 75928
L80429 75899
L80542 75899
L80598 75928
L80626 75984
L80626 76040
L80345 76096
" />
<path d="M80879 76237
L80907 76265
L80879 76293
L80851 76265
L80879 76237
L80879 76293
" />
<path d="M80879 75928
L80907 75956
L80879 75984
L80851 75956
L80879 75928
L80879 75984
" />
</g>
<g style="fill:#000000; fill-opacity:0.0; 
stroke:#000000; stroke-width:39.3701; stroke-opacity:1; 
stroke-linecap:round; stroke-linejoin:round;">
</g>
<g style="fill:#000000; fill-opacity:0.0; 
stroke:#000000; stroke-width:59.0551; stroke-opacity:1; 
stroke-linecap:round; stroke-linejoin:round;">
<path d="M69685 76577
L112205 76577
" />
</g>
<g style="fill:#000000; fill-opacity:0.0; 
stroke:#000000; stroke-width:39.3701; stroke-opacity:1; 
stroke-linecap:round; stroke-linejoin:round;">
</g>
<g style="fill:#000000; fill-opacity:0.0; 
stroke:#000000; stroke-width:59.0551; stroke-opacity:1; 
stroke-linecap:round; stroke-linejoin:round;">
<path d="M70249 77395
L70249 76805
" />
<path d="M70587 77395
L70334 77058
" />
<path d="M70587 76805
L70249 77142
" />
<path d="M70840 77395
L70840 77002
" />
<path d="M70840 76805
L70812 76833
L70840 76861
L70868 76833
L70840 76805
L70840 76861
" />
<path d="M71458 77339
L71430 77367
L71346 77395
L71290 77395
L71205 77367
L71149 77311
L71121 77255
L71093 77142
L71093 77058
L71121 76946
L71149 76889
L71205 76833
L71290 76805
L71346 76805
L71430 76833
L71458 76861
" />
<path d="M71965 77395
L71965 77086
L71937 77030
L71880 77002
L71768 77002
L71712 77030
" />
<path d="M71965 77367
L71908 77395
L71768 77395
L71712 77367
L71683 77311
L71683 77255
L71712 77199
L71768 77171
L71908 77171
L71965 77142
" />
<path d="M72499 77395
L72499 76805
" />
<path d="M72499 77367
L72443 77395
L72330 77395
L72274 77367
L72246 77339
L72218 77283
L72218 77114
L72246 77058
L72274 77030
L72330 77002
L72443 77002
L72499 77030
" />
<path d="M73230 77086
L73427 77086
" />
<path d="M73511 77395
L73230 77395
L73230 76805
L73511 76805
" />
<path d="M73764 77339
L73793 77367
L73764 77395
L73736 77367
L73764 77339
L73764 77395
" />
<path d="M74046 77395
L74046 76805
L74186 76805
L74271 76833
L74327 76889
L74355 76946
L74383 77058
L74383 77142
L74355 77255
L74327 77311
L74271 77367
L74186 77395
L74046 77395
" />
<path d="M74636 77339
L74664 77367
L74636 77395
L74608 77367
L74636 77339
L74636 77395
" />
<path d="M74889 77227
L75171 77227
" />
<path d="M74833 77395
L75030 76805
L75227 77395
" />
<path d="M75424 77339
L75452 77367
L75424 77395
L75395 77367
L75424 77339
L75424 77395
" />
<path d="M76605 77395
L76605 76805
" />
<path d="M76661 77171
L76830 77395
" />
<path d="M76830 77002
L76605 77227
" />
<path d="M77083 77395
L77083 77002
" />
<path d="M77083 76805
L77055 76833
L77083 76861
L77111 76833
L77083 76805
L77083 76861
" />
<path d="M77617 77367
L77561 77395
L77448 77395
L77392 77367
L77364 77339
L77336 77283
L77336 77114
L77364 77058
L77392 77030
L77448 77002
L77561 77002
L77617 77030
" />
<path d="M78123 77395
L78123 77086
L78095 77030
L78039 77002
L77926 77002
L77870 77030
" />
<path d="M78123 77367
L78067 77395
L77926 77395
L77870 77367
L77842 77311
L77842 77255
L77870 77199
L77926 77171
L78067 77171
L78123 77142
" />
<path d="M78658 77395
L78658 76805
" />
<path d="M78658 77367
L78601 77395
L78489 77395
L78433 77367
L78404 77339
L78376 77283
L78376 77114
L78404 77058
L78433 77030
L78489 77002
L78601 77002
L78658 77030
" />
<path d="M79557 77620
L79529 77592
L79473 77508
L79445 77452
L79417 77367
L79389 77227
L79389 77114
L79417 76974
L79445 76889
L79473 76833
L79529 76749
L79557 76721
" />
<path d="M80064 76805
L79782 76805
L79754 77086
L79782 77058
L79839 77030
L79979 77030
L80036 77058
L80064 77086
L80092 77142
L80092 77283
L80064 77339
L80036 77367
L79979 77395
L79839 77395
L79782 77367
L79754 77339
" />
<path d="M80345 77339
L80373 77367
L80345 77395
L80317 77367
L80345 77339
L80345 77395
" />
<path d="M80935 77395
L80598 77395
" />
<path d="M80767 77395
L80767 76805
L80710 76889
L80654 76946
L80598 76974
" />
<path d="M81188 77339
L81217 77367
L81188 77395
L81160 77367
L81188 77339
L81188 77395
" />
<path d="M81723 77002
L81723 77395
" />
<path d="M81582 76777
L81442 77199
L81807 77199
" />
<path d="M81976 77620
L82004 77592
L82060 77508
L82088 77452
L82117 77367
L82145 77227
L82145 77114
L82117 76974
L82088 76889
L82060 76833
L82004 76749
L81976 76721
" />
<path d="M82426 77171
L82876 77171
" />
<path d="M83466 77395
L83129 77395
" />
<path d="M83298 77395
L83298 76805
L83241 76889
L83185 76946
L83129 76974
" />
</g>
<g style="fill:#000000; fill-opacity:0.0; 
stroke:#000000; stroke-width:39.3701; stroke-opacity:1; 
stroke-linecap:round; stroke-linejoin:round;">
</g>
<g style="fill:#000000; fill-opacity:0.0; 
stroke:#000000; stroke-width:59.0551; stroke-opacity:1; 
stroke-linecap:round; stroke-linejoin:round;">
<path d="M69685 75396
L112205 75396
" />
</g>
<g style="fill:#000000; fill-opacity:0.0; 
stroke:#000000; stroke-width:39.3701; stroke-opacity:1; 
stroke-linecap:round; stroke-linejoin:round;">
</g>
<g style="fill:#000000; fill-opacity:0.0; 
stroke:#000000; stroke-width:118.11; stroke-opacity:1; 
stroke-linecap:round; stroke-linejoin:round;">
<path d="M104099 76293
L103902 76012
" />
<path d="M103761 76293
L103761 75703
L103986 75703
L104042 75731
L104070 75759
L104099 75815
L104099 75899
L104070 75956
L104042 75984
L103986 76012
L103761 76012
" />
<path d="M104577 76265
L104520 76293
L104408 76293
L104352 76265
L104323 76209
L104323 75984
L104352 75928
L104408 75899
L104520 75899
L104577 75928
L104605 75984
L104605 76040
L104323 76096
" />
<path d="M104802 75899
L104942 76293
L105083 75899
" />
<path d="M105308 76237
L105336 76265
L105308 76293
L105280 76265
L105308 76237
L105308 76293
" />
<path d="M105308 75928
L105336 75956
L105308 75984
L105280 75956
L105308 75928
L105308 75984
" />
</g>
<g style="fill:#000000; fill-opacity:0.0; 
stroke:#000000; stroke-width:39.3701; stroke-opacity:1; 
stroke-linecap:round; stroke-linejoin:round;">
</g>
<g style="fill:#000000; fill-opacity:0.0; 
stroke:#000000; stroke-width:59.0551; stroke-opacity:1; 
stroke-linecap:round; stroke-linejoin:round;">
<path d="M70221 76265
L70305 76293
L70446 76293
L70502 76265
L70530 76237
L70559 76181
L70559 76124
L70530 76068
L70502 76040
L70446 76012
L70334 75984
L70277 75956
L70249 75928
L70221 75871
L70221 75815
L70249 75759
L70277 75731
L70334 75703
L70474 75703
L70559 75731
" />
<path d="M70812 76293
L70812 75899
" />
<path d="M70812 75703
L70784 75731
L70812 75759
L70840 75731
L70812 75703
L70812 75759
" />
<path d="M71037 75899
L71346 75899
L71037 76293
L71346 76293
" />
<path d="M71796 76265
L71740 76293
L71627 76293
L71571 76265
L71543 76209
L71543 75984
L71571 75928
L71627 75899
L71740 75899
L71796 75928
L71824 75984
L71824 76040
L71543 76096
" />
<path d="M72077 76237
L72105 76265
L72077 76293
L72049 76265
L72077 76237
L72077 76293
" />
<path d="M72077 75928
L72105 75956
L72077 75984
L72049 75956
L72077 75928
L72077 75984
" />
<path d="M72780 76124
L73061 76124
" />
<path d="M72724 76293
L72921 75703
L73118 76293
" />
<path d="M73568 75899
L73568 76293
" />
<path d="M73427 75674
L73286 76096
L73652 76096
" />
</g>
<g style="fill:#000000; fill-opacity:0.0; 
stroke:#000000; stroke-width:39.3701; stroke-opacity:1; 
stroke-linecap:round; stroke-linejoin:round;">
</g>
<g style="fill:#000000; fill-opacity:0.0; 
stroke:#000000; stroke-width:59.0551; stroke-opacity:1; 
stroke-linecap:round; stroke-linejoin:round;">
<path d="M103714 77395
L103714 76805
" />
<path d="M104248 77395
L104248 76805
" />
<path d="M104248 77367
L104192 77395
L104079 77395
L104023 77367
L103995 77339
L103967 77283
L103967 77114
L103995 77058
L104023 77030
L104079 77002
L104192 77002
L104248 77030
" />
<path d="M104529 77339
L104557 77367
L104529 77395
L104501 77367
L104529 77339
L104529 77395
" />
<path d="M104529 77030
L104557 77058
L104529 77086
L104501 77058
L104529 77030
L104529 77086
" />
<path d="M105570 77395
L105232 77395
" />
<path d="M105401 77395
L105401 76805
L105345 76889
L105289 76946
L105232 76974
" />
<path d="M106245 76777
L105739 77536
" />
<path d="M106751 77395
L106413 77395
" />
<path d="M106582 77395
L106582 76805
L106526 76889
L106470 76946
L106413 76974
" />
</g>
<g style="fill:#000000; fill-opacity:0.0; 
stroke:#000000; stroke-width:39.3701; stroke-opacity:1; 
stroke-linecap:round; stroke-linejoin:round;">
</g>
<g style="fill:#000000; fill-opacity:0.0; 
stroke:#000000; stroke-width:59.0551; stroke-opacity:1; 
stroke-linecap:round; stroke-linejoin:round;">
<path d="M69685 73821
L112205 73821
" />
</g>
<g style="fill:#000000; fill-opacity:0.0; 
stroke:#000000; stroke-width:39.3701; stroke-opacity:1; 
stroke-linecap:round; stroke-linejoin:round;">
</g>
<g style="fill:#000000; fill-opacity:0.0; 
stroke:#000000; stroke-width:157.48; stroke-opacity:1; 
stroke-linecap:round; stroke-linejoin:round;">
<path d="M70360 74099
L70810 74099
" />
<path d="M70486 74886
L70585 74099
" />
<path d="M70974 74886
L71039 74361
" />
<path d="M71072 74099
L71030 74136
L71063 74174
L71105 74136
L71072 74099
L71063 74174
" />
<path d="M71302 74361
L71602 74361
" />
<path d="M71447 74099
L71363 74774
L71391 74849
L71461 74886
L71536 74886
" />
<path d="M71911 74886
L71841 74849
L71813 74774
L71897 74099
" />
<path d="M72516 74849
L72436 74886
L72286 74886
L72216 74849
L72187 74774
L72225 74474
L72272 74399
L72352 74361
L72501 74361
L72572 74399
L72600 74474
L72591 74549
L72206 74624
" />
<path d="M72895 74811
L72928 74849
L72886 74886
L72853 74849
L72895 74811
L72886 74886
" />
<path d="M72947 74399
L72980 74436
L72937 74474
L72905 74436
L72947 74399
L72937 74474
" />
</g>
<g style="fill:#000000; fill-opacity:0.0; 
stroke:#000000; stroke-width:39.3701; stroke-opacity:1; 
stroke-linecap:round; stroke-linejoin:round;">
</g>
<g style="fill:#000000; fill-opacity:0.0; 
stroke:#000000; stroke-width:59.0551; stroke-opacity:1; 
stroke-linecap:round; stroke-linejoin:round;">
<path d="M70446 73070
L70249 73070
" />
<path d="M70249 73380
L70249 72789
L70530 72789
" />
<path d="M70755 73380
L70755 72986
" />
<path d="M70755 72789
L70727 72817
L70755 72845
L70784 72817
L70755 72789
L70755 72845
" />
<path d="M71121 73380
L71065 73352
L71037 73295
L71037 72789
" />
<path d="M71571 73352
L71515 73380
L71402 73380
L71346 73352
L71318 73295
L71318 73070
L71346 73014
L71402 72986
L71515 72986
L71571 73014
L71599 73070
L71599 73127
L71318 73183
" />
<path d="M71852 73323
L71880 73352
L71852 73380
L71824 73352
L71852 73323
L71852 73380
" />
<path d="M71852 73014
L71880 73042
L71852 73070
L71824 73042
L71852 73014
L71852 73070
" />
<path d="M72865 73380
L72583 73380
L72583 72789
" />
<path d="M73061 73380
L73061 72986
" />
<path d="M73061 72789
L73033 72817
L73061 72845
L73090 72817
L73061 72789
L73061 72845
" />
<path d="M73427 73380
L73371 73352
L73343 73295
L73343 72789
" />
<path d="M73596 72986
L73736 73380
" />
<path d="M73877 72986
L73736 73380
L73680 73520
L73652 73548
L73596 73577
" />
<path d="M74383 72789
L74102 72789
L74074 73070
L74102 73042
L74158 73014
L74299 73014
L74355 73042
L74383 73070
L74411 73127
L74411 73267
L74383 73323
L74355 73352
L74299 73380
L74158 73380
L74102 73352
L74074 73323
" />
<path d="M74749 73042
L74692 73014
L74664 72986
L74636 72930
L74636 72902
L74664 72845
L74692 72817
L74749 72789
L74861 72789
L74917 72817
L74946 72845
L74974 72902
L74974 72930
L74946 72986
L74917 73014
L74861 73042
L74749 73042
L74692 73070
L74664 73099
L74636 73155
L74636 73267
L74664 73323
L74692 73352
L74749 73380
L74861 73380
L74917 73352
L74946 73323
L74974 73267
L74974 73155
L74946 73099
L74917 73070
L74861 73042
" />
<path d="M75086 73436
L75536 73436
" />
<path d="M75677 73380
L75677 72789
L75902 72789
L75958 72817
L75986 72845
L76014 72902
L76014 72986
L75986 73042
L75958 73070
L75902 73099
L75677 73099
" />
<path d="M76267 73380
L76267 72986
" />
<path d="M76267 73099
L76295 73042
L76323 73014
L76380 72986
L76436 72986
" />
<path d="M76717 73380
L76661 73352
L76633 73323
L76605 73267
L76605 73099
L76633 73042
L76661 73014
L76717 72986
L76802 72986
L76858 73014
L76886 73042
L76914 73099
L76914 73267
L76886 73323
L76858 73352
L76802 73380
L76717 73380
" />
<path d="M77167 73323
L77195 73352
L77167 73380
L77139 73352
L77167 73323
L77167 73380
" />
<path d="M77448 73380
L77448 72789
" />
<path d="M77505 73155
L77673 73380
" />
<path d="M77673 72986
L77448 73211
" />
<path d="M77926 73380
L77926 72986
" />
<path d="M77926 72789
L77898 72817
L77926 72845
L77955 72817
L77926 72789
L77926 72845
" />
<path d="M78461 73352
L78404 73380
L78292 73380
L78236 73352
L78208 73323
L78180 73267
L78180 73099
L78208 73042
L78236 73014
L78292 72986
L78404 72986
L78461 73014
" />
<path d="M78967 73380
L78967 73070
L78939 73014
L78883 72986
L78770 72986
L78714 73014
" />
<path d="M78967 73352
L78911 73380
L78770 73380
L78714 73352
L78686 73295
L78686 73239
L78714 73183
L78770 73155
L78911 73155
L78967 73127
" />
<path d="M79501 73380
L79501 72789
" />
<path d="M79501 73352
L79445 73380
L79332 73380
L79276 73352
L79248 73323
L79220 73267
L79220 73099
L79248 73042
L79276 73014
L79332 72986
L79445 72986
L79501 73014
" />
<path d="M79642 73436
L80092 73436
" />
<path d="M80232 72986
L80232 73577
" />
<path d="M80232 73014
L80289 72986
L80401 72986
L80457 73014
L80485 73042
L80514 73099
L80514 73267
L80485 73323
L80457 73352
L80401 73380
L80289 73380
L80232 73352
" />
<path d="M81020 73352
L80964 73380
L80851 73380
L80795 73352
L80767 73323
L80739 73267
L80739 73099
L80767 73042
L80795 73014
L80851 72986
L80964 72986
L81020 73014
" />
<path d="M81273 73380
L81273 72789
" />
<path d="M81273 73014
L81329 72986
L81442 72986
L81498 73014
L81526 73042
L81554 73099
L81554 73267
L81526 73323
L81498 73352
L81442 73380
L81329 73380
L81273 73352
" />
</g>
<g style="fill:#000000; fill-opacity:0.0; 
stroke:#000000; stroke-width:39.3701; stroke-opacity:1; 
stroke-linecap:round; stroke-linejoin:round;">
</g>
<g style="fill:#000000; fill-opacity:0.0; 
stroke:#000000; stroke-width:59.0551; stroke-opacity:1; 
stroke-linecap:round; stroke-linejoin:round;">
<path d="M69685 71459
L112205 71459
" />
</g>
<g style="fill:#000000; fill-opacity:0.0; 
stroke:#000000; stroke-width:39.3701; stroke-opacity:1; 
stroke-linecap:round; stroke-linejoin:round;">
</g>
<g style="fill:#000000; fill-opacity:0.0; 
stroke:#000000; stroke-width:59.0551; stroke-opacity:1; 
stroke-linecap:round; stroke-linejoin:round;">
<path d="M70221 72289
L70305 72317
L70446 72317
L70502 72289
L70530 72260
L70559 72204
L70559 72148
L70530 72092
L70502 72064
L70446 72036
L70334 72007
L70277 71979
L70249 71951
L70221 71895
L70221 71839
L70249 71782
L70277 71754
L70334 71726
L70474 71726
L70559 71754
" />
<path d="M70812 72317
L70812 71726
" />
<path d="M71065 72317
L71065 72007
L71037 71951
L70980 71923
L70896 71923
L70840 71951
L70812 71979
" />
<path d="M71571 72289
L71515 72317
L71402 72317
L71346 72289
L71318 72232
L71318 72007
L71346 71951
L71402 71923
L71515 71923
L71571 71951
L71599 72007
L71599 72064
L71318 72120
" />
<path d="M72077 72289
L72021 72317
L71908 72317
L71852 72289
L71824 72232
L71824 72007
L71852 71951
L71908 71923
L72021 71923
L72077 71951
L72105 72007
L72105 72064
L71824 72120
" />
<path d="M72274 71923
L72499 71923
" />
<path d="M72358 71726
L72358 72232
L72386 72289
L72443 72317
L72499 72317
" />
<path d="M72696 72260
L72724 72289
L72696 72317
L72668 72289
L72696 72260
L72696 72317
" />
<path d="M72696 71951
L72724 71979
L72696 72007
L72668 71979
L72696 71951
L72696 72007
" />
</g>
<g style="fill:#000000; fill-opacity:0.0; 
stroke:#000000; stroke-width:39.3701; stroke-opacity:1; 
stroke-linecap:round; stroke-linejoin:round;">
</g>
<g style="fill:#000000; fill-opacity:0.0; 
stroke:#000000; stroke-width:59.0551; stroke-opacity:1; 
stroke-linecap:round; stroke-linejoin:round;">
<path d="M77559 75396
L77559 76577
" />
</g>
<g style="fill:#000000; fill-opacity:0.0; 
stroke:#000000; stroke-width:39.3701; stroke-opacity:1; 
stroke-linecap:round; stroke-linejoin:round;">
</g>
<g style="fill:#000000; fill-opacity:0.0; 
stroke:#000000; stroke-width:59.0551; stroke-opacity:1; 
stroke-linecap:round; stroke-linejoin:round;">
<path d="M102756 75396
L102756 77955
" />
<path d="M28415.4 52096.5 A1927.47 1927.47 0.0 0 0 28612 53134 " />
<path d="M32165 59305 A1932.98 1932.98 0.0 0 0 34781.7 60086.8 " />
<path d="M28612 53133
L32165 59304
" />
<path d="M41124 56406
L34781 60086
" />
<path d="M96503 47555
L96503 8876
" />
<path d="M88173 47555
L96503 47555
" />
<path d="M43267 14480
L43267 6790
" />
<path d="M32653 14480
L43267 14480
" />
<path d="M32652 15014
L32653 14480
" />
</g>
<g style="fill:#000000; fill-opacity:0.0; 
stroke:#000000; stroke-width:78.7402; stroke-opacity:1; 
stroke-linecap:round; stroke-linejoin:round;">
<path d="M94704 7903
L92592 7478
" />
<path d="M92592 7478
L89795 7108
" />
<path d="M45742 53732
L46402 53350
" />
<path d="M45083 54114
L45742 53732
" />
<path d="M32652 19980
L32652 17497
" />
<path d="M32652 22463
L32652 19980
" />
<path d="M55973 6376
L51875 6376
" />
<path d="M86099 47555
L88173 47555
" />
<path d="M84025 47555
L86099 47555
" />
<path d="M81951 47555
L84025 47555
" />
<path d="M79877 47555
L81951 47555
" />
<path d="M77803 47555
L79877 47555
" />
<path d="M75730 47555
L77803 47555
" />
<path d="M73656 47555
L75730 47555
" />
<path d="M71582 47555
L73656 47555
" />
<path d="M71304 47582
L71582 47555
" />
<path d="M71045 47663
L71304 47582
" />
<path d="M70811 47790
L71045 47663
" />
<path d="M70607 47958
L70811 47790
" />
<path d="M70439 48162
L70607 47958
" />
<path d="M70312 48396
L70439 48162
" />
<path d="M70232 48655
L70312 48396
" />
<path d="M70204 48932
L70232 48655
" />
<path d="M86404 6803
L82511 6572
" />
<path d="M89795 7108
L86404 6803
" />
<path d="M78208 6427
L73586 6376
" />
<path d="M82511 6572
L78208 6427
" />
<path d="M69944 53250
L69843 53304
" />
<path d="M70031 53178
L69944 53250
" />
<path d="M70103 53090
L70031 53178
" />
<path d="M70158 52990
L70103 53090
" />
<path d="M70192 52879
L70158 52990
" />
<path d="M70204 52769
L70192 52879
" />
<path d="M32652 27429
L32652 24946
" />
<path d="M32652 29912
L32652 27429
" />
<path d="M32652 32395
L32652 29912
" />
<path d="M32652 34878
L32652 32395
" />
<path d="M51875 6376
L47777 6376
" />
<path d="M60070 6376
L55973 6376
" />
<path d="M64168 6376
L60070 6376
" />
<path d="M68265 6376
L64168 6376
" />
<path d="M73586 6376
L68265 6376
" />
<path d="M43449 6447
L43519 6409
" />
<path d="M43388 6497
L43449 6447
" />
<path d="M43337 6558
L43388 6497
" />
<path d="M43299 6629
L43337 6558
" />
<path d="M43275 6706
L43299 6629
" />
<path d="M43267 6790
L43275 6706
" />
<path d="M43597 6385
L43680 6376
" />
<path d="M43519 6409
L43597 6385
" />
<path d="M47777 6376
L43680 6376
" />
<path d="M32652 24946
L32652 22463
" />
<path d="M32652 17497
L32652 15014
" />
<path d="M32652 34878
L28415 52096
" />
<path d="M44423 54496
L45083 54114
" />
<path d="M43763 54878
L44423 54496
" />
<path d="M43103 55260
L43763 54878
" />
<path d="M42444 55642
L43103 55260
" />
<path d="M41784 56024
L42444 55642
" />
<path d="M41124 56406
L41784 56024
" />
<path d="M66712 53351
L69613 53351
" />
<path d="M63811 53351
L66712 53351
" />
<path d="M60909 53351
L63811 53351
" />
<path d="M58008 53351
L60909 53351
" />
<path d="M55106 53351
L58008 53351
" />
<path d="M52205 53351
L55106 53351
" />
<path d="M49304 53351
L52205 53351
" />
<path d="M46402 53351
L49304 53351
" />
<path d="M70204 52289
L70204 52769
" />
<path d="M70204 51810
L70204 52289
" />
<path d="M70204 51330
L70204 51810
" />
<path d="M70204 50851
L70204 51330
" />
<path d="M70204 50371
L70204 50851
" />
<path d="M70204 49892
L70204 50371
" />
<path d="M70204 49412
L70204 49892
" />
<path d="M70204 48932
L70204 49412
" />
<path d="M69733 53339
L69613 53351
" />
<path d="M69843 53304
L69733 53339
" />
<path d="M96038 8372
L94704 7903
" />
<path d="M96503 8876
L96038 8372
" />
</g>
<g style="fill:#000000; fill-opacity:0.0; 
stroke:#000000; stroke-width:59.0551; stroke-opacity:1; 
stroke-linecap:round; stroke-linejoin:round;">
<path d="M33574 59475
L41075 55145
" />
<path d="M29244 51974
L33574 59475
" />
<path d="M36745 47644
L29244 51974
" />
<path d="M41075 55145
L36745 47644
" />
<path d="M96732 18070
L96732 9409
" />
<path d="M88070 18070
L96732 18070
" />
<path d="M88070 9409
L88070 18070
" />
<path d="M96732 9409
L88070 9409
" />
<path d="M96751 48031
L96751 39370
" />
<path d="M88090 48031
L96751 48031
" />
<path d="M88090 39370
L88090 48031
" />
<path d="M96751 39370
L88090 39370
" />
<path d="M96732 40551
L96732 31889
" />
<path d="M88070 40551
L96732 40551
" />
<path d="M88070 31889
L88070 40551
" />
<path d="M96732 31889
L88070 31889
" />
<path d="M96732 32992
L96732 24330
" />
<path d="M88070 32992
L96732 32992
" />
<path d="M88070 24330
L88070 32992
" />
<path d="M96732 24330
L88070 24330
" />
<path d="M96732 25551
L96732 16889
" />
<path d="M88070 25551
L96732 25551
" />
<path d="M88070 16889
L88070 25551
" />
<path d="M96732 16889
L88070 16889
" />
<path d="M89251 25551
L89251 16889
" />
<path d="M80590 25551
L89251 25551
" />
<path d="M80590 16889
L80590 25551
" />
<path d="M89251 16889
L80590 16889
" />
<path d="M89251 18070
L89251 9409
" />
<path d="M80590 18070
L89251 18070
" />
<path d="M80590 9409
L80590 18070
" />
<path d="M89251 9409
L80590 9409
" />
<path d="M81771 17480
L81771 8818
" />
<path d="M73110 17480
L81771 17480
" />
<path d="M73110 8818
L73110 17480
" />
<path d="M81771 8818
L73110 8818
" />
<path d="M74251 15590
L74251 6929
" />
<path d="M65590 15590
L74251 15590
" />
<path d="M65590 6929
L65590 15590
" />
<path d="M74251 6929
L65590 6929
" />
<path d="M66771 15043
L66771 6381
" />
<path d="M58110 15043
L66771 15043
" />
<path d="M58110 6381
L58110 15043
" />
<path d="M66771 6381
L58110 6381
" />
<path d="M59251 15590
L59251 6929
" />
<path d="M50590 15590
L59251 15590
" />
<path d="M50590 6929
L50590 15590
" />
<path d="M59251 6929
L50590 6929
" />
<path d="M51767 16535
L51767 7874
" />
<path d="M43106 16535
L51767 16535
" />
<path d="M43106 7874
L43106 16535
" />
<path d="M51767 7874
L43106 7874
" />
<path d="M81771 32401
L81771 23740
" />
<path d="M73110 32401
L81771 32401
" />
<path d="M73110 23740
L73110 32401
" />
<path d="M81771 23740
L73110 23740
" />
<path d="M62992 53051
L62992 44389
" />
<path d="M54330 53051
L62992 53051
" />
<path d="M54330 44389
L54330 53051
" />
<path d="M62992 44389
L54330 44389
" />
<path d="M81771 39960
L81771 31299
" />
<path d="M73110 39960
L81771 39960
" />
<path d="M73110 31299
L73110 39960
" />
<path d="M81771 31299
L73110 31299
" />
<path d="M81771 24960
L81771 16299
" />
<path d="M73110 24960
L81771 24960
" />
<path d="M73110 16299
L73110 24960
" />
<path d="M81771 16299
L73110 16299
" />
<path d="M74251 23070
L74251 14409
" />
<path d="M65590 23070
L74251 23070
" />
<path d="M65590 14409
L65590 23070
" />
<path d="M74251 14409
L65590 14409
" />
<path d="M59251 23070
L59251 14409
" />
<path d="M50590 23070
L59251 23070
" />
<path d="M50590 14409
L50590 23070
" />
<path d="M59251 14409
L50590 14409
" />
<path d="M39753 55915
L47254 51585
" />
<path d="M35422 48414
L39753 55915
" />
<path d="M42923 44084
L35422 48414
" />
<path d="M47254 51585
L42923 44084
" />
<path d="M70511 53051
L70511 44389
" />
<path d="M61850 53051
L70511 53051
" />
<path d="M61850 44389
L61850 53051
" />
<path d="M70511 44389
L61850 44389
" />
<path d="M55511 53937
L55511 45275
" />
<path d="M46850 53937
L55511 53937
" />
<path d="M46850 45275
L46850 53937
" />
<path d="M55511 45275
L46850 45275
" />
<path d="M44251 42716
L44251 34055
" />
<path d="M35590 42716
L44251 42716
" />
<path d="M35590 34055
L35590 42716
" />
<path d="M44251 34055
L35590 34055
" />
<path d="M89271 48031
L89271 39370
" />
<path d="M80610 48031
L89271 48031
" />
<path d="M80610 39370
L80610 48031
" />
<path d="M89271 39370
L80610 39370
" />
<path d="M81771 47440
L81771 38779
" />
<path d="M73110 47440
L81771 47440
" />
<path d="M73110 38779
L73110 47440
" />
<path d="M81771 38779
L73110 38779
" />
<path d="M74251 45590
L74251 36929
" />
<path d="M65590 45590
L74251 45590
" />
<path d="M65590 36929
L65590 45590
" />
<path d="M74251 36929
L65590 36929
" />
<path d="M66771 45039
L66771 36377
" />
<path d="M58110 45039
L66771 45039
" />
<path d="M58110 36377
L58110 45039
" />
<path d="M66771 36377
L58110 36377
" />
<path d="M59251 45590
L59251 36929
" />
<path d="M50590 45590
L59251 45590
" />
<path d="M50590 36929
L50590 45590
" />
<path d="M59251 36929
L50590 36929
" />
<path d="M51771 46496
L51771 37834
" />
<path d="M43110 46496
L51771 46496
" />
<path d="M43110 37834
L43110 46496
" />
<path d="M51771 37834
L43110 37834
" />
<path d="M89251 40551
L89251 31889
" />
<path d="M80590 40551
L89251 40551
" />
<path d="M80590 31889
L80590 40551
" />
<path d="M89251 31889
L80590 31889
" />
<path d="M74251 38070
L74251 29409
" />
<path d="M65590 38070
L74251 38070
" />
<path d="M65590 29409
L65590 38070
" />
<path d="M74251 29409
L65590 29409
" />
<path d="M66771 37559
L66771 28897
" />
<path d="M58110 37559
L66771 37559
" />
<path d="M58110 28897
L58110 37559
" />
<path d="M66771 28897
L58110 28897
" />
<path d="M59251 38070
L59251 29409
" />
<path d="M50590 38070
L59251 38070
" />
<path d="M50590 29409
L50590 38070
" />
<path d="M59251 29409
L50590 29409
" />
<path d="M51771 39015
L51771 30354
" />
<path d="M43110 39015
L51771 39015
" />
<path d="M43110 30354
L43110 39015
" />
<path d="M51771 30354
L43110 30354
" />
<path d="M89251 32992
L89251 24330
" />
<path d="M80590 32992
L89251 32992
" />
<path d="M80590 24330
L80590 32992
" />
<path d="M89251 24330
L80590 24330
" />
<path d="M74251 30551
L74251 21889
" />
<path d="M65590 30551
L74251 30551
" />
<path d="M65590 21889
L65590 30551
" />
<path d="M74251 21889
L65590 21889
" />
<path d="M66771 30039
L66771 21377
" />
<path d="M58110 30039
L66771 30039
" />
<path d="M58110 21377
L58110 30039
" />
<path d="M66771 21377
L58110 21377
" />
<path d="M59251 30590
L59251 21929
" />
<path d="M50590 30590
L59251 30590
" />
<path d="M50590 21929
L50590 30590
" />
<path d="M59251 21929
L50590 21929
" />
<path d="M51771 31535
L51771 22874
" />
<path d="M43110 31535
L51771 31535
" />
<path d="M43110 22874
L43110 31535
" />
<path d="M51771 22874
L43110 22874
" />
<path d="M66771 22523
L66771 13862
" />
<path d="M58110 22523
L66771 22523
" />
<path d="M58110 13862
L58110 22523
" />
<path d="M66771 13862
L58110 13862
" />
<path d="M51771 24015
L51771 15354
" />
<path d="M43110 24015
L51771 24015
" />
<path d="M43110 15354
L43110 24015
" />
<path d="M51771 15354
L43110 15354
" />
<g >
</g>
<g >
</g>
<g >
</g>
<g >
</g>
<g >
</g>
<g >
</g>
<g >
</g>
<g >
</g>
<g >
</g>
<g >
</g>
<g >
</g>
<g >
</g>
<g >
</g>
<g >
</g>
<g >
</g>
<g >
</g>
<g >
</g>
<g >
</g>
<g >
</g>
<g >
</g>
<g >
</g>
<g >
</g>
<g >
</g>
<g >
</g>
<g >
</g>
<g >
</g>
<g >
</g>
<g >
</g>
<g >
</g>
<g >
</g>
<g >
</g>
<g >
</g>
<g >
</g>
<g >
</g>
<g >
</g>
<g >
</g>
<g >
</g>
<g >
</g>
<g >
</g>
<g >
</g>
<g >
</g>
<g >
</g>
<g >
</g>
<g >
</g>
<g >
</g>
<g >
</g>
<g >
</g>
<g >
</g>
<g >
</g>
<g >
</g>
<g >
</g>
<g >
</g>
<g >
</g>
<g >
</g>
<g >
</g>
<g >
</g>
<g >
</g>
<g >
</g>
<g >
</g>
<g >
</g>
<g >
</g>
<g >
</g>
<g >
</g>
<g >
</g>
<g >
</g>
<g >
</g>
<g >
</g>
<g >
</g>
<g >
</g>
<g >
</g>
<g >
</g>
<g >
</g>
<g >
</g>
<g >
</g>
<g >
</g>
<g >
</g>
<g >
</g>
<g >
</g>
<g >
</g>
<g >
</g>
<g >
</g>
<g >
</g>
<g >
</g>
<g >
</g>
<g >
</g>
<g >
</g>
<g >
</g>
<g >
</g>
<g >
</g>
<g >
</g>
<g >
</g>
<g >
</g>
<g >
</g>
<g >
</g>
<g >
</g>
<g >
</g>
<g >
</g>
<g >
</g>
<g >
</g>
</g>
<g style="fill:#000000; fill-opacity:0.0; 
stroke:#000000; stroke-width:59.0551; stroke-opacity:1; 
stroke-linecap:round; stroke-linejoin:round;">
<path d="M41821 25006
L41803 25044
L41765 25062
L41428 25062
" />
<path d="M41821 24800
L41803 24838
L41784 24856
L41746 24875
L41634 24875
L41596 24856
L41578 24838
L41559 24800
L41559 24744
L41578 24706
L41596 24688
L41634 24669
L41746 24669
L41784 24688
L41803 24706
L41821 24744
L41821 24800
" />
<path d="M41559 24331
L41878 24331
L41915 24350
L41934 24369
L41953 24406
L41953 24463
L41934 24500
" />
<path d="M41803 24331
L41821 24369
L41821 24444
L41803 24481
L41784 24500
L41746 24519
L41634 24519
L41596 24500
L41578 24481
L41559 24444
L41559 24369
L41578 24331
" />
<path d="M41821 24088
L41803 24125
L41784 24144
L41746 24163
L41634 24163
L41596 24144
L41578 24125
L41559 24088
L41559 24031
L41578 23994
L41596 23975
L41634 23956
L41746 23956
L41784 23975
L41803 23994
L41821 24031
L41821 24088
" />
<path d="M41671 23788
L41671 23488
" />
<path d="M41821 23244
L41803 23281
L41784 23300
L41746 23319
L41634 23319
L41596 23300
L41578 23281
L41559 23244
L41559 23188
L41578 23150
L41596 23131
L41634 23113
L41746 23113
L41784 23131
L41803 23150
L41821 23188
L41821 23244
" />
<path d="M41821 22944
L41559 22944
" />
<path d="M41634 22944
L41596 22925
L41578 22906
L41559 22869
L41559 22832
" />
<path d="M41559 22757
L41559 22607
" />
<path d="M41428 22700
L41765 22700
L41803 22682
L41821 22644
L41821 22607
" />
<path d="M41821 22475
L41559 22475
" />
<path d="M41428 22475
L41446 22494
L41465 22475
L41446 22457
L41428 22475
L41465 22475
" />
<path d="M41803 22138
L41821 22175
L41821 22250
L41803 22288
L41765 22307
L41615 22307
L41578 22288
L41559 22250
L41559 22175
L41578 22138
L41615 22119
L41653 22119
L41690 22307
" />
<path d="M41559 21782
L41878 21782
L41915 21800
L41934 21819
L41953 21857
L41953 21913
L41934 21950
" />
<path d="M41803 21782
L41821 21819
L41821 21894
L41803 21932
L41784 21950
L41746 21969
L41634 21969
L41596 21950
L41578 21932
L41559 21894
L41559 21819
L41578 21782
" />
<path d="M41821 21425
L41615 21425
L41578 21444
L41559 21482
L41559 21557
L41578 21594
" />
<path d="M41803 21425
L41821 21463
L41821 21557
L41803 21594
L41765 21613
L41728 21613
L41690 21594
L41671 21557
L41671 21463
L41653 21425
" />
<path d="M41559 21069
L41821 21069
" />
<path d="M41559 21238
L41765 21238
L41803 21219
L41821 21182
L41821 21125
L41803 21088
L41784 21069
" />
<path d="M41803 20713
L41821 20751
L41821 20826
L41803 20863
L41784 20882
L41746 20900
L41634 20900
L41596 20882
L41578 20863
L41559 20826
L41559 20751
L41578 20713
" />
<path d="M41821 20544
L41428 20544
" />
<path d="M41821 20376
L41615 20376
L41578 20394
L41559 20432
L41559 20488
L41578 20526
L41596 20544
" />
<path d="M41803 20038
L41821 20076
L41821 20151
L41803 20188
L41765 20207
L41615 20207
L41578 20188
L41559 20151
L41559 20076
L41578 20038
L41615 20019
L41653 20019
L41690 20207
" />
<path d="M43879 23999
L43860 24036
L43823 24055
L43485 24055
" />
<path d="M43879 23792
L43860 23830
L43841 23849
L43804 23867
L43691 23867
L43654 23849
L43635 23830
L43616 23792
L43616 23736
L43635 23699
L43654 23680
L43691 23661
L43804 23661
L43841 23680
L43860 23699
L43879 23736
L43879 23792
" />
<path d="M43616 23324
L43935 23324
L43973 23342
L43991 23361
L44010 23399
L44010 23455
L43991 23492
" />
<path d="M43860 23324
L43879 23361
L43879 23436
L43860 23474
L43841 23492
L43804 23511
L43691 23511
L43654 23492
L43635 23474
L43616 23436
L43616 23361
L43635 23324
" />
<path d="M43879 23080
L43860 23117
L43841 23136
L43804 23155
L43691 23155
L43654 23136
L43635 23117
L43616 23080
L43616 23024
L43635 22986
L43654 22967
L43691 22949
L43804 22949
L43841 22967
L43860 22986
L43879 23024
L43879 23080
" />
<path d="M43729 22780
L43729 22480
" />
<path d="M43879 22236
L43860 22274
L43841 22293
L43804 22311
L43691 22311
L43654 22293
L43635 22274
L43616 22236
L43616 22180
L43635 22143
L43654 22124
L43691 22105
L43804 22105
L43841 22124
L43860 22143
L43879 22180
L43879 22236
" />
<path d="M43879 21936
L43616 21936
" />
<path d="M43691 21936
L43654 21918
L43635 21899
L43616 21861
L43616 21824
" />
<path d="M43616 21749
L43616 21599
" />
<path d="M43485 21693
L43823 21693
L43860 21674
L43879 21636
L43879 21599
" />
<path d="M43879 21468
L43616 21468
" />
<path d="M43485 21468
L43504 21486
L43523 21468
L43504 21449
L43485 21468
L43523 21468
" />
<path d="M43860 21130
L43879 21168
L43879 21243
L43860 21280
L43823 21299
L43673 21299
L43635 21280
L43616 21243
L43616 21168
L43635 21130
L43673 21111
L43710 21111
L43748 21299
" />
<path d="M43729 20943
L43729 20643
" />
<path d="M43879 20455
L43485 20455
" />
<path d="M43635 20455
L43616 20418
L43616 20343
L43635 20305
L43654 20287
L43691 20268
L43804 20268
L43841 20287
L43860 20305
L43879 20343
L43879 20418
L43860 20455
" />
<path d="M43879 20043
L43860 20080
L43841 20099
L43804 20118
L43691 20118
L43654 20099
L43635 20080
L43616 20043
L43616 19987
L43635 19949
L43654 19930
L43691 19912
L43804 19912
L43841 19930
L43860 19949
L43879 19987
L43879 20043
" />
<path d="M43616 19799
L43616 19649
" />
<path d="M43485 19743
L43823 19743
L43860 19724
L43879 19687
L43879 19649
" />
<path d="M43616 19574
L43616 19424
" />
<path d="M43485 19518
L43823 19518
L43860 19499
L43879 19462
L43879 19424
" />
<path d="M43879 19237
L43860 19274
L43841 19293
L43804 19312
L43691 19312
L43654 19293
L43635 19274
L43616 19237
L43616 19180
L43635 19143
L43654 19124
L43691 19105
L43804 19105
L43841 19124
L43860 19143
L43879 19180
L43879 19237
" />
<path d="M43879 18937
L43616 18937
" />
<path d="M43654 18937
L43635 18918
L43616 18880
L43616 18824
L43635 18787
L43673 18768
L43879 18768
" />
<path d="M43673 18768
L43635 18749
L43616 18712
L43616 18656
L43635 18618
L43673 18599
L43879 18599
" />
<g >
</g>
</g> 
</svg>
